<?xml version="1.0" encoding="utf-8" standalone="no"?>
<!DOCTYPE svg PUBLIC "-//W3C//DTD SVG 1.1//EN"
  "http://www.w3.org/Graphics/SVG/1.1/DTD/svg11.dtd">
<svg xmlns:xlink="http://www.w3.org/1999/xlink" width="276.68768pt" height="202.265052pt" viewBox="0 0 276.68768 202.265052" xmlns="http://www.w3.org/2000/svg" version="1.1">
 <metadata>
  <rdf:RDF xmlns:dc="http://purl.org/dc/elements/1.1/" xmlns:cc="http://creativecommons.org/ns#" xmlns:rdf="http://www.w3.org/1999/02/22-rdf-syntax-ns#">
   <cc:Work>
    <dc:type rdf:resource="http://purl.org/dc/dcmitype/StillImage"/>
    <dc:date>2023-06-22T01:29:51.663066</dc:date>
    <dc:format>image/svg+xml</dc:format>
    <dc:creator>
     <cc:Agent>
      <dc:title>Matplotlib v3.7.1, https://matplotlib.org/</dc:title>
     </cc:Agent>
    </dc:creator>
   </cc:Work>
  </rdf:RDF>
 </metadata>
 <defs>
  <style type="text/css">*{stroke-linejoin: round; stroke-linecap: butt}</style>
 </defs>
 <g id="figure_1">
  <g id="patch_1">
   <path d="M 0 202.265052 
L 276.68768 202.265052 
L 276.68768 0 
L 0 0 
L 0 202.265052 
z
" style="fill: none"/>
  </g>
  <g id="axes_1">
   <g id="patch_2">
    <path d="M 38.09568 151.105 
L 266.48768 151.105 
L 266.48768 11.364375 
L 38.09568 11.364375 
L 38.09568 151.105 
z
" style="fill: none"/>
   </g>
   <g id="matplotlib.axis_1">
    <g id="xtick_1">
     <g id="line2d_1">
      <defs>
       <path id="m1cfb35cc62" d="M 0 0 
L 0 3.5 
" style="stroke: #000000; stroke-width: 0.8"/>
      </defs>
      <g>
       <use xlink:href="#m1cfb35cc62" x="38.09568" y="162.750052" style="stroke: #000000; stroke-width: 0.8"/>
      </g>
     </g>
     <g id="text_1">
      <!-- 1 -->
      <g transform="translate(35.09568 178.078802) scale(0.12 -0.12)">
       <defs>
        <path id="NewCM10-Book-31" d="M 1722 4262 
C 1459 3994 1075 3859 570 3859 
L 570 3610 
C 902 3610 1178 3661 1389 3763 
L 1389 525 
C 1389 410 1363 333 1306 301 
C 1248 269 1088 250 832 250 
L 608 250 
L 608 0 
C 768 13 1114 19 1645 19 
C 2176 19 2522 13 2682 0 
L 2682 250 
L 2458 250 
C 2195 250 2035 269 1984 301 
C 1933 333 1901 410 1901 525 
L 1901 4070 
C 1901 4224 1888 4262 1722 4262 
z
" transform="scale(0.015625)"/>
       </defs>
       <use xlink:href="#NewCM10-Book-31"/>
      </g>
     </g>
    </g>
    <g id="xtick_2">
     <g id="line2d_2">
      <g>
       <use xlink:href="#m1cfb35cc62" x="95.19368" y="162.750052" style="stroke: #000000; stroke-width: 0.8"/>
      </g>
     </g>
     <g id="text_2">
      <!-- 3 -->
      <g transform="translate(92.19368 178.078802) scale(0.12 -0.12)">
       <defs>
        <path id="NewCM10-Book-33" d="M 1939 2259 
C 2362 2419 2758 2822 2758 3366 
C 2758 3642 2624 3866 2362 4038 
C 2131 4186 1869 4262 1574 4262 
C 1286 4262 1037 4186 813 4038 
C 563 3872 435 3654 435 3379 
C 435 3168 576 3021 781 3021 
C 986 3021 1126 3168 1126 3373 
C 1126 3584 1005 3699 762 3712 
C 928 3936 1190 4051 1549 4051 
C 1933 4051 2125 3827 2125 3373 
C 2125 3104 2074 2880 1978 2694 
C 1805 2387 1568 2330 1171 2330 
C 1094 2317 1056 2285 1056 2227 
C 1056 2131 1101 2131 1229 2131 
L 1504 2131 
C 1984 2131 2227 1792 2227 1107 
C 2227 563 2029 90 1542 90 
C 1126 90 819 230 634 512 
C 858 506 1024 672 1024 890 
C 1024 1107 864 1267 646 1267 
C 397 1267 269 1139 269 877 
C 269 563 410 314 691 115 
C 941 -58 1235 -141 1562 -141 
C 1926 -141 2240 -26 2515 211 
C 2790 448 2925 749 2925 1107 
C 2925 1709 2451 2125 1939 2259 
z
" transform="scale(0.015625)"/>
       </defs>
       <use xlink:href="#NewCM10-Book-33"/>
      </g>
     </g>
    </g>
    <g id="xtick_3">
     <g id="line2d_3">
      <g>
       <use xlink:href="#m1cfb35cc62" x="152.29168" y="162.750052" style="stroke: #000000; stroke-width: 0.8"/>
      </g>
     </g>
     <g id="text_3">
      <!-- 5 -->
      <g transform="translate(149.29168 178.078802) scale(0.12 -0.12)">
       <defs>
        <path id="NewCM10-Book-35" d="M 755 2016 
C 787 2016 826 2042 858 2086 
C 1050 2374 1312 2515 1645 2515 
C 1869 2515 2042 2387 2157 2125 
C 2227 1952 2266 1690 2266 1338 
C 2266 934 2214 653 2118 486 
C 1958 224 1741 90 1466 90 
C 1037 90 698 397 582 730 
C 602 723 614 730 640 730 
C 832 730 992 877 992 1069 
C 992 1267 832 1402 640 1402 
C 416 1402 320 1280 320 1043 
C 320 403 838 -141 1478 -141 
C 1869 -141 2202 0 2470 282 
C 2739 563 2874 902 2874 1293 
C 2874 1664 2765 1984 2547 2259 
C 2310 2560 2016 2707 1658 2707 
C 1357 2707 1094 2611 883 2419 
L 883 3558 
C 1056 3507 1222 3482 1395 3482 
C 1690 3482 1946 3552 2163 3699 
C 2362 3821 2496 3942 2573 4058 
C 2611 4109 2630 4147 2630 4166 
C 2630 4230 2598 4262 2534 4262 
C 2182 4128 1882 4058 1638 4058 
C 1350 4058 1075 4115 813 4237 
C 781 4250 755 4256 730 4256 
C 672 4256 640 4198 640 4077 
L 640 2208 
C 640 2074 640 2016 755 2016 
z
" transform="scale(0.015625)"/>
       </defs>
       <use xlink:href="#NewCM10-Book-35"/>
      </g>
     </g>
    </g>
    <g id="xtick_4">
     <g id="line2d_4">
      <g>
       <use xlink:href="#m1cfb35cc62" x="209.38968" y="162.750052" style="stroke: #000000; stroke-width: 0.8"/>
      </g>
     </g>
     <g id="text_4">
      <!-- 7 -->
      <g transform="translate(206.38968 178.078802) scale(0.12 -0.12)">
       <defs>
        <path id="NewCM10-Book-37" d="M 3040 3866 
C 3085 3923 3104 4006 3104 4122 
L 1555 4122 
C 1114 4122 864 4147 819 4205 
C 800 4224 781 4269 768 4326 
L 570 4326 
L 352 2970 
L 563 2970 
C 627 3328 678 3520 717 3552 
C 736 3571 934 3584 1312 3584 
L 2566 3584 
L 1888 2624 
C 1370 1888 1114 1094 1114 230 
C 1114 -19 1216 -141 1427 -141 
C 1638 -141 1741 -19 1741 230 
L 1741 557 
C 1741 1530 1894 2234 2195 2662 
L 3040 3866 
z
" transform="scale(0.015625)"/>
       </defs>
       <use xlink:href="#NewCM10-Book-37"/>
      </g>
     </g>
    </g>
    <g id="xtick_5">
     <g id="line2d_5">
      <g>
       <use xlink:href="#m1cfb35cc62" x="266.48768" y="162.750052" style="stroke: #000000; stroke-width: 0.8"/>
      </g>
     </g>
     <g id="text_5">
      <!-- 9 -->
      <g transform="translate(263.48768 178.078802) scale(0.12 -0.12)">
       <defs>
        <path id="NewCM10-Book-39" d="M 742 896 
C 531 896 429 787 429 570 
C 429 90 819 -141 1325 -141 
C 1837 -141 2246 115 2547 634 
C 2797 1062 2925 1555 2925 2106 
C 2925 2918 2778 3494 2483 3834 
C 2234 4122 1946 4262 1619 4262 
C 1242 4262 928 4128 678 3853 
C 403 3565 269 3219 269 2816 
C 269 2426 384 2093 614 1818 
C 858 1523 1171 1376 1549 1376 
C 1882 1376 2138 1555 2310 1914 
L 2310 1830 
C 2310 1133 2189 659 1939 403 
C 1741 192 1530 90 1318 90 
C 1062 90 877 147 755 269 
C 954 282 1056 384 1056 582 
C 1056 762 922 896 742 896 
z
M 1555 1574 
C 1306 1574 1120 1702 992 1958 
C 922 2106 883 2394 883 2810 
C 883 3226 928 3507 1011 3667 
C 1152 3923 1357 4051 1619 4051 
C 1882 4051 2074 3891 2195 3571 
C 2266 3398 2298 3104 2298 2688 
C 2298 2131 2061 1574 1555 1574 
z
" transform="scale(0.015625)"/>
       </defs>
       <use xlink:href="#NewCM10-Book-39"/>
      </g>
     </g>
    </g>
    <g id="text_6">
     <!-- $n$ -->
     <g transform="translate(148.63168 192.736302) scale(0.12 -0.12)">
      <defs>
       <path id="Cmmi10-6e" d="M 494 109 
Q 494 147 500 166 
L 978 2075 
Q 1025 2253 1025 2388 
Q 1025 2663 838 2663 
Q 638 2663 541 2423 
Q 444 2184 353 1819 
Q 353 1800 334 1789 
Q 316 1778 300 1778 
L 225 1778 
Q 203 1778 187 1801 
Q 172 1825 172 1844 
Q 241 2122 305 2315 
Q 369 2509 505 2668 
Q 641 2828 844 2828 
Q 1084 2828 1268 2676 
Q 1453 2525 1453 2291 
Q 1644 2541 1900 2684 
Q 2156 2828 2444 2828 
Q 2672 2828 2837 2750 
Q 3003 2672 3095 2514 
Q 3188 2356 3188 2138 
Q 3188 1875 3070 1503 
Q 2953 1131 2778 672 
Q 2688 463 2688 288 
Q 2688 97 2834 97 
Q 3084 97 3251 365 
Q 3419 634 3488 941 
Q 3500 978 3541 978 
L 3616 978 
Q 3641 978 3658 962 
Q 3675 947 3675 922 
Q 3675 916 3669 903 
Q 3581 541 3364 234 
Q 3147 -72 2822 -72 
Q 2597 -72 2437 83 
Q 2278 238 2278 459 
Q 2278 578 2328 709 
Q 2409 919 2514 1209 
Q 2619 1500 2686 1765 
Q 2753 2031 2753 2234 
Q 2753 2413 2679 2538 
Q 2606 2663 2431 2663 
Q 2197 2663 2000 2559 
Q 1803 2456 1656 2286 
Q 1509 2116 1388 1881 
L 953 141 
Q 931 53 854 -9 
Q 778 -72 684 -72 
Q 606 -72 550 -22 
Q 494 28 494 109 
z
" transform="scale(0.015625)"/>
      </defs>
      <use xlink:href="#Cmmi10-6e" transform="translate(0 0.8125)"/>
     </g>
    </g>
   </g>
   <g id="matplotlib.axis_2">
    <g id="ytick_1">
     <g id="line2d_6">
      <defs>
       <path id="m67debcf821" d="M 0 0 
L -3.5 0 
" style="stroke: #000000; stroke-width: 0.8"/>
      </defs>
      <g>
       <use xlink:href="#m67debcf821" x="28.96" y="151.105" style="stroke: #000000; stroke-width: 0.8"/>
      </g>
     </g>
     <g id="text_7">
      <!-- $\mathdefault{2^{0}}$ -->
      <g transform="translate(11.4 155.269375) scale(0.12 -0.12)">
       <defs>
        <path id="NewCM10-Book-32" d="M 1517 4262 
C 1190 4262 915 4147 678 3917 
C 442 3686 320 3418 320 3091 
C 320 2874 480 2714 678 2714 
C 870 2714 1030 2880 1030 3072 
C 1030 3283 877 3430 672 3430 
C 653 3430 640 3430 627 3424 
C 749 3738 1030 4013 1434 4013 
C 1958 4013 2253 3558 2253 3008 
C 2253 2579 2035 2118 1600 1632 
L 397 275 
C 314 179 320 186 320 0 
L 2694 0 
L 2880 1152 
L 2669 1152 
C 2618 826 2573 640 2534 582 
C 2502 550 2310 538 1958 538 
L 890 538 
L 1510 1146 
C 1946 1555 2496 1997 2682 2336 
C 2810 2560 2874 2784 2874 3008 
C 2874 3763 2285 4262 1517 4262 
z
" transform="scale(0.015625)"/>
        <path id="NewCM10-Book-30" d="M 1594 -141 
C 2496 -141 2944 589 2944 2048 
C 2944 3027 2739 3680 2336 4000 
C 2112 4173 1862 4262 1600 4262 
C 698 4262 250 3526 250 2048 
C 250 870 563 -141 1594 -141 
z
M 2310 3354 
C 2355 3130 2374 2720 2374 2125 
C 2374 1536 2349 1101 2304 819 
C 2221 307 1984 51 1594 51 
C 1446 51 1299 109 1165 218 
C 992 365 890 666 845 1126 
C 826 1286 819 1619 819 2125 
C 819 2682 838 3072 870 3283 
C 928 3635 1043 3859 1222 3955 
C 1363 4032 1485 4070 1594 4070 
C 2010 4070 2240 3731 2310 3354 
z
" transform="scale(0.015625)"/>
       </defs>
       <use xlink:href="#NewCM10-Book-32" transform="translate(0 0.21875)"/>
       <use xlink:href="#NewCM10-Book-30" transform="translate(50.754125 30.384375) scale(0.7)"/>
      </g>
     </g>
    </g>
    <g id="ytick_2">
     <g id="line2d_7">
      <g>
       <use xlink:href="#m67debcf821" x="28.96" y="116.169844" style="stroke: #000000; stroke-width: 0.8"/>
      </g>
     </g>
     <g id="text_8">
      <!-- $\mathdefault{2^{3}}$ -->
      <g transform="translate(11.4 120.334219) scale(0.12 -0.12)">
       <use xlink:href="#NewCM10-Book-32" transform="translate(0 0.21875)"/>
       <use xlink:href="#NewCM10-Book-33" transform="translate(50.754125 30.384375) scale(0.7)"/>
      </g>
     </g>
    </g>
    <g id="ytick_3">
     <g id="line2d_8">
      <g>
       <use xlink:href="#m67debcf821" x="28.96" y="81.234688" style="stroke: #000000; stroke-width: 0.8"/>
      </g>
     </g>
     <g id="text_9">
      <!-- $\mathdefault{2^{6}}$ -->
      <g transform="translate(11.4 85.399063) scale(0.12 -0.12)">
       <defs>
        <path id="NewCM10-Book-36" d="M 2451 3226 
C 2662 3226 2765 3334 2765 3552 
C 2765 4013 2419 4262 1946 4262 
C 1414 4262 992 4013 678 3507 
C 403 3072 269 2579 269 2022 
C 269 1210 416 640 717 301 
C 973 6 1267 -141 1606 -141 
C 1997 -141 2317 6 2566 301 
C 2803 582 2925 922 2925 1312 
C 2925 1702 2810 2035 2579 2310 
C 2336 2605 2022 2758 1645 2758 
C 1312 2758 1056 2573 883 2214 
L 883 2253 
C 883 2976 1062 3590 1446 3872 
C 1613 3994 1786 4051 1958 4051 
C 2189 4051 2355 3987 2464 3853 
C 2246 3853 2138 3731 2138 3539 
C 2138 3360 2272 3226 2451 3226 
z
M 2202 2176 
C 2272 2029 2310 1741 2310 1318 
C 2310 902 2278 627 2208 486 
C 2080 224 1882 90 1606 90 
C 1421 90 1280 154 1178 282 
C 1094 384 1037 474 1011 544 
C 934 742 896 1043 896 1453 
C 896 1632 922 1805 966 1965 
C 1050 2266 1286 2554 1638 2554 
C 1888 2554 2080 2426 2202 2176 
z
" transform="scale(0.015625)"/>
       </defs>
       <use xlink:href="#NewCM10-Book-32" transform="translate(0 0.21875)"/>
       <use xlink:href="#NewCM10-Book-36" transform="translate(50.754125 30.384375) scale(0.7)"/>
      </g>
     </g>
    </g>
    <g id="ytick_4">
     <g id="line2d_9">
      <g>
       <use xlink:href="#m67debcf821" x="28.96" y="46.299531" style="stroke: #000000; stroke-width: 0.8"/>
      </g>
     </g>
     <g id="text_10">
      <!-- $\mathdefault{2^{9}}$ -->
      <g transform="translate(11.4 50.463906) scale(0.12 -0.12)">
       <use xlink:href="#NewCM10-Book-32" transform="translate(0 0.21875)"/>
       <use xlink:href="#NewCM10-Book-39" transform="translate(50.754125 30.384375) scale(0.7)"/>
      </g>
     </g>
    </g>
    <g id="ytick_5">
     <g id="line2d_10">
      <g>
       <use xlink:href="#m67debcf821" x="28.96" y="11.364375" style="stroke: #000000; stroke-width: 0.8"/>
      </g>
     </g>
     <g id="text_11">
      <!-- $\mathdefault{2^{12}}$ -->
      <g transform="translate(7.2 15.52875) scale(0.12 -0.12)">
       <use xlink:href="#NewCM10-Book-32" transform="translate(0 0.21875)"/>
       <use xlink:href="#NewCM10-Book-31" transform="translate(50.754125 30.384375) scale(0.7)"/>
       <use xlink:href="#NewCM10-Book-32" transform="translate(85.754115 30.384375) scale(0.7)"/>
      </g>
     </g>
    </g>
   </g>
   <g id="line2d_11">
    <path d="M 38.09568 151.105 
L 66.64468 124.927767 
L 95.19368 110.256549 
L 123.74268 95.387678 
L 152.29168 82.41548 
L 180.84068 70.165415 
L 209.38968 58.228442 
L 237.93868 46.440861 
L 266.48768 34.726508 
" style="fill: none; stroke: #ff7f0e; stroke-linecap: square"/>
    <defs>
     <path id="mf47e91f31f" d="M -3 3 
L 3 3 
L 3 -3 
L -3 -3 
z
" style="stroke: #ff7f0e; stroke-linejoin: miter"/>
    </defs>
    <g>
     <use xlink:href="#mf47e91f31f" x="38.09568" y="151.105" style="fill: #ff7f0e; stroke: #ff7f0e; stroke-linejoin: miter"/>
     <use xlink:href="#mf47e91f31f" x="66.64468" y="124.927767" style="fill: #ff7f0e; stroke: #ff7f0e; stroke-linejoin: miter"/>
     <use xlink:href="#mf47e91f31f" x="95.19368" y="110.256549" style="fill: #ff7f0e; stroke: #ff7f0e; stroke-linejoin: miter"/>
     <use xlink:href="#mf47e91f31f" x="123.74268" y="95.387678" style="fill: #ff7f0e; stroke: #ff7f0e; stroke-linejoin: miter"/>
     <use xlink:href="#mf47e91f31f" x="152.29168" y="82.41548" style="fill: #ff7f0e; stroke: #ff7f0e; stroke-linejoin: miter"/>
     <use xlink:href="#mf47e91f31f" x="180.84068" y="70.165415" style="fill: #ff7f0e; stroke: #ff7f0e; stroke-linejoin: miter"/>
     <use xlink:href="#mf47e91f31f" x="209.38968" y="58.228442" style="fill: #ff7f0e; stroke: #ff7f0e; stroke-linejoin: miter"/>
     <use xlink:href="#mf47e91f31f" x="237.93868" y="46.440861" style="fill: #ff7f0e; stroke: #ff7f0e; stroke-linejoin: miter"/>
     <use xlink:href="#mf47e91f31f" x="266.48768" y="34.726508" style="fill: #ff7f0e; stroke: #ff7f0e; stroke-linejoin: miter"/>
    </g>
   </g>
   <g id="line2d_12">
    <path d="M 38.09568 151.105 
L 66.64468 132.648029 
L 95.19368 118.413206 
L 123.74268 105.609056 
L 152.29168 93.413126 
L 180.84068 81.499264 
L 209.38968 69.721403 
L 237.93868 58.010338 
L 266.48768 46.332376 
" style="fill: none; stroke: #1f77b4; stroke-linecap: square"/>
    <defs>
     <path id="m5419db8dca" d="M -0 4.242641 
L 2.545584 0 
L 0 -4.242641 
L -2.545584 -0 
z
" style="stroke: #1f77b4; stroke-linejoin: miter"/>
    </defs>
    <g>
     <use xlink:href="#m5419db8dca" x="38.09568" y="151.105" style="fill: #1f77b4; stroke: #1f77b4; stroke-linejoin: miter"/>
     <use xlink:href="#m5419db8dca" x="66.64468" y="132.648029" style="fill: #1f77b4; stroke: #1f77b4; stroke-linejoin: miter"/>
     <use xlink:href="#m5419db8dca" x="95.19368" y="118.413206" style="fill: #1f77b4; stroke: #1f77b4; stroke-linejoin: miter"/>
     <use xlink:href="#m5419db8dca" x="123.74268" y="105.609056" style="fill: #1f77b4; stroke: #1f77b4; stroke-linejoin: miter"/>
     <use xlink:href="#m5419db8dca" x="152.29168" y="93.413126" style="fill: #1f77b4; stroke: #1f77b4; stroke-linejoin: miter"/>
     <use xlink:href="#m5419db8dca" x="180.84068" y="81.499264" style="fill: #1f77b4; stroke: #1f77b4; stroke-linejoin: miter"/>
     <use xlink:href="#m5419db8dca" x="209.38968" y="69.721403" style="fill: #1f77b4; stroke: #1f77b4; stroke-linejoin: miter"/>
     <use xlink:href="#m5419db8dca" x="237.93868" y="58.010338" style="fill: #1f77b4; stroke: #1f77b4; stroke-linejoin: miter"/>
     <use xlink:href="#m5419db8dca" x="266.48768" y="46.332376" style="fill: #1f77b4; stroke: #1f77b4; stroke-linejoin: miter"/>
    </g>
   </g>
   <g id="line2d_13">
    <path d="M 38.09568 151.105 
L 66.64468 139.459948 
L 95.19368 127.814896 
L 123.74268 121.002977 
L 152.29168 112.420974 
L 180.84068 106.768154 
L 209.38968 99.174687 
L 237.93868 93.964003 
L 266.48768 86.782833 
" style="fill: none; stroke: #000000; stroke-linecap: square"/>
    <defs>
     <path id="m7fecc485b5" d="M 0 -3 
L -3 3 
L 3 3 
z
" style="stroke: #000000; stroke-linejoin: miter"/>
    </defs>
    <g>
     <use xlink:href="#m7fecc485b5" x="38.09568" y="151.105" style="stroke: #000000; stroke-linejoin: miter"/>
     <use xlink:href="#m7fecc485b5" x="66.64468" y="139.459948" style="stroke: #000000; stroke-linejoin: miter"/>
     <use xlink:href="#m7fecc485b5" x="95.19368" y="127.814896" style="stroke: #000000; stroke-linejoin: miter"/>
     <use xlink:href="#m7fecc485b5" x="123.74268" y="121.002977" style="stroke: #000000; stroke-linejoin: miter"/>
     <use xlink:href="#m7fecc485b5" x="152.29168" y="112.420974" style="stroke: #000000; stroke-linejoin: miter"/>
     <use xlink:href="#m7fecc485b5" x="180.84068" y="106.768154" style="stroke: #000000; stroke-linejoin: miter"/>
     <use xlink:href="#m7fecc485b5" x="209.38968" y="99.174687" style="stroke: #000000; stroke-linejoin: miter"/>
     <use xlink:href="#m7fecc485b5" x="237.93868" y="93.964003" style="stroke: #000000; stroke-linejoin: miter"/>
     <use xlink:href="#m7fecc485b5" x="266.48768" y="86.782833" style="stroke: #000000; stroke-linejoin: miter"/>
    </g>
   </g>
   <g id="patch_3">
    <path d="M 28.96 151.105 
L 28.96 11.364375 
" style="fill: none; stroke: #000000; stroke-width: 0.5; stroke-linejoin: miter; stroke-linecap: square"/>
   </g>
   <g id="patch_4">
    <path d="M 38.09568 162.750052 
L 266.48768 162.750052 
" style="fill: none; stroke: #000000; stroke-width: 0.5; stroke-linejoin: miter; stroke-linecap: square"/>
   </g>
   <g id="legend_1">
    <g id="line2d_14">
     <path d="M 38.09568 15.564375 
L 50.09568 15.564375 
L 62.09568 15.564375 
" style="fill: none; stroke-dasharray: 3.7,1.6; stroke-dashoffset: 0; stroke: #000000"/>
    </g>
    <g id="text_12">
     <!-- upper bound -->
     <g transform="translate(71.69568 19.764375) scale(0.12 -0.12)">
      <defs>
       <path id="NewCM10-Book-75" d="M 1709 115 
C 1267 115 1184 301 1184 717 
L 1184 2829 
L 205 2758 
L 205 2515 
C 454 2515 602 2490 640 2445 
C 678 2400 698 2240 698 1958 
L 698 1018 
C 698 768 717 576 762 429 
C 858 96 1210 -70 1677 -70 
C 2022 -70 2285 90 2464 416 
L 2464 -70 
L 3424 0 
L 3424 243 
C 3194 243 3059 256 3008 294 
C 2957 333 2931 422 2931 570 
L 2931 2829 
L 1958 2758 
L 1958 2515 
C 2182 2515 2317 2496 2368 2458 
C 2419 2419 2445 2336 2445 2189 
L 2445 1069 
C 2445 563 2176 115 1709 115 
z
" transform="scale(0.015625)"/>
       <path id="NewCM10-Book-70" d="M 1907 -83 
C 2304 -83 2643 58 2918 346 
C 3194 634 3334 973 3334 1376 
C 3334 1766 3206 2099 2957 2381 
C 2694 2682 2374 2829 1990 2829 
C 1664 2829 1382 2701 1139 2451 
L 1139 2829 
L 179 2758 
L 179 2515 
C 416 2515 557 2502 602 2470 
C 646 2438 672 2355 672 2221 
L 672 -736 
C 672 -858 646 -928 602 -954 
C 557 -979 416 -992 179 -992 
L 179 -1242 
L 909 -1222 
L 1645 -1242 
L 1645 -992 
C 1408 -992 1274 -979 1229 -954 
C 1184 -928 1158 -858 1158 -736 
L 1158 282 
C 1299 83 1574 -83 1907 -83 
z
M 1946 2618 
C 2208 2618 2413 2470 2573 2176 
C 2694 1926 2758 1664 2758 1376 
C 2758 1075 2688 800 2547 550 
C 2381 250 2157 102 1882 102 
C 1613 102 1402 230 1242 480 
C 1184 563 1158 646 1158 730 
L 1158 2131 
C 1344 2458 1606 2618 1946 2618 
z
" transform="scale(0.015625)"/>
       <path id="NewCM10-Book-65" d="M 2656 1606 
C 2656 2342 2227 2867 1510 2867 
C 1126 2867 806 2720 544 2419 
C 301 2138 179 1798 179 1408 
C 179 1005 314 659 582 365 
C 851 70 1184 -70 1581 -70 
C 1946 -70 2227 58 2419 307 
C 2579 518 2656 672 2656 774 
C 2656 838 2618 870 2547 870 
C 2496 870 2464 838 2445 768 
C 2304 346 2029 134 1619 134 
C 1331 134 1107 269 934 544 
C 813 742 755 1043 749 1453 
L 2477 1453 
C 2618 1453 2656 1466 2656 1606 
z
M 2086 2234 
C 2157 2022 2189 1818 2189 1632 
L 755 1632 
C 774 2054 883 2342 1075 2490 
C 1235 2618 1376 2682 1510 2682 
C 1798 2682 1990 2534 2086 2234 
z
" transform="scale(0.015625)"/>
       <path id="NewCM10-Book-72" d="M 2330 2419 
C 2330 2669 2093 2829 1843 2829 
C 1517 2829 1267 2637 1101 2246 
L 1101 2829 
L 179 2758 
L 179 2515 
C 403 2515 538 2496 589 2458 
C 640 2419 666 2336 666 2189 
L 666 506 
C 666 384 646 307 602 282 
C 557 256 416 243 179 243 
L 179 0 
L 915 19 
C 1184 26 1459 19 1734 0 
L 1734 243 
L 1581 243 
C 1370 243 1235 262 1190 294 
C 1146 326 1126 403 1126 518 
L 1126 1485 
C 1126 1760 1178 2010 1274 2221 
C 1402 2496 1587 2637 1837 2643 
C 1773 2579 1741 2502 1741 2413 
C 1741 2214 1837 2118 2035 2118 
C 2208 2118 2330 2253 2330 2419 
z
" transform="scale(0.015625)"/>
       <path id="NewCM10-Book-20" transform="scale(0.015625)"/>
       <path id="NewCM10-Book-62" d="M 1907 -70 
C 2304 -70 2643 70 2918 358 
C 3194 646 3334 986 3334 1389 
C 3334 1779 3206 2125 2944 2413 
C 2682 2701 2362 2848 1971 2848 
C 1658 2848 1376 2726 1139 2477 
L 1139 4442 
L 179 4371 
L 179 4128 
C 410 4128 550 4109 602 4070 
C 653 4032 672 3942 672 3795 
L 672 0 
L 870 0 
L 1082 371 
C 1286 77 1562 -70 1907 -70 
z
M 1882 122 
C 1619 122 1402 243 1242 493 
C 1184 576 1158 666 1158 749 
L 1158 2048 
C 1158 2131 1178 2202 1222 2266 
C 1408 2528 1645 2656 1946 2656 
C 2208 2656 2419 2528 2586 2266 
C 2701 2074 2758 1786 2758 1395 
C 2758 704 2515 122 1882 122 
z
" transform="scale(0.015625)"/>
       <path id="NewCM10-Book-6f" d="M 1594 -70 
C 1990 -70 2323 70 2598 352 
C 2874 634 3014 973 3014 1370 
C 3014 1773 2880 2125 2611 2419 
C 2342 2714 2003 2867 1600 2867 
C 1197 2867 864 2714 589 2419 
C 314 2125 179 1773 179 1370 
C 179 973 314 634 589 352 
C 864 70 1203 -70 1594 -70 
z
M 1600 134 
C 1293 134 1062 269 902 544 
C 800 723 749 1018 749 1421 
C 749 1811 800 2093 896 2272 
C 1050 2547 1280 2682 1594 2682 
C 1894 2682 2125 2547 2285 2285 
C 2394 2106 2445 1818 2445 1421 
C 2445 678 2227 134 1600 134 
z
" transform="scale(0.015625)"/>
       <path id="NewCM10-Book-6e" d="M 2010 2643 
C 2298 2643 2445 2419 2445 1965 
L 2445 506 
C 2445 384 2426 307 2381 282 
C 2336 256 2195 243 1958 243 
L 1958 0 
L 2694 19 
L 3424 0 
L 3424 243 
C 3219 243 3085 250 3021 269 
C 2957 288 2931 333 2931 410 
L 2931 1606 
C 2931 1907 2925 2118 2906 2240 
C 2842 2630 2554 2829 2048 2829 
C 1645 2829 1344 2637 1146 2253 
L 1146 2829 
L 205 2758 
L 205 2515 
C 435 2515 576 2496 627 2458 
C 678 2419 698 2336 698 2189 
L 698 506 
C 698 384 672 307 627 282 
C 582 256 442 243 205 243 
L 205 0 
L 941 19 
L 1670 0 
L 1670 243 
C 1434 243 1299 256 1254 282 
C 1210 307 1184 384 1184 506 
L 1184 1658 
C 1184 2176 1510 2643 2010 2643 
z
" transform="scale(0.015625)"/>
       <path id="NewCM10-Book-64" d="M 2394 -70 
L 3373 0 
L 3373 243 
C 3142 243 3008 256 2957 294 
C 2906 333 2880 429 2880 576 
L 2880 4442 
L 1926 4371 
L 1926 4128 
C 2150 4128 2291 4109 2342 4070 
C 2394 4032 2413 3942 2413 3795 
L 2413 2496 
C 2208 2733 1952 2848 1645 2848 
C 1248 2848 909 2707 634 2419 
C 358 2131 218 1786 218 1382 
C 218 992 346 653 608 365 
C 870 77 1190 -70 1581 -70 
C 1907 -70 2182 51 2394 301 
L 2394 -70 
z
M 1670 2656 
C 1946 2656 2170 2534 2330 2291 
C 2374 2221 2394 2150 2394 2067 
L 2394 774 
C 2394 691 2374 621 2330 550 
C 2150 262 1907 122 1606 122 
C 1344 122 1133 250 966 512 
C 851 704 794 992 794 1376 
C 794 2074 1030 2656 1670 2656 
z
" transform="scale(0.015625)"/>
      </defs>
      <use xlink:href="#NewCM10-Book-75"/>
      <use xlink:href="#NewCM10-Book-70" x="55.599991"/>
      <use xlink:href="#NewCM10-Book-70" x="111.199982"/>
      <use xlink:href="#NewCM10-Book-65" x="166.799973"/>
      <use xlink:href="#NewCM10-Book-72" x="211.199966"/>
      <use xlink:href="#NewCM10-Book-20" x="250.399963"/>
      <use xlink:href="#NewCM10-Book-62" x="283.699951"/>
      <use xlink:href="#NewCM10-Book-6f" x="339.299942"/>
      <use xlink:href="#NewCM10-Book-75" x="389.299927"/>
      <use xlink:href="#NewCM10-Book-6e" x="444.899918"/>
      <use xlink:href="#NewCM10-Book-64" x="500.499908"/>
     </g>
    </g>
    <g id="line2d_15">
     <path d="M 38.09568 32.293125 
L 50.09568 32.293125 
L 62.09568 32.293125 
" style="fill: none; stroke: #ff7f0e; stroke-linecap: square"/>
     <g>
      <use xlink:href="#mf47e91f31f" x="50.09568" y="32.293125" style="fill: #ff7f0e; stroke: #ff7f0e; stroke-linejoin: miter"/>
     </g>
    </g>
    <g id="text_13">
     <!-- Random -->
     <g transform="translate(71.69568 36.493125) scale(0.12 -0.12)">
      <defs>
       <path id="NewCM10-Book-52" d="M 3910 3206 
C 3910 3571 3712 3866 3322 4090 
C 2995 4275 2630 4371 2234 4371 
L 224 4371 
L 224 4122 
L 403 4122 
C 627 4122 762 4102 806 4070 
C 851 4038 877 3968 877 3853 
L 877 518 
C 877 403 851 326 806 294 
C 762 262 627 243 403 243 
L 224 243 
L 224 -6 
C 397 13 710 19 1171 19 
C 1638 19 1952 13 2125 -6 
L 2125 243 
L 1946 243 
C 1722 243 1587 262 1542 294 
C 1498 326 1472 403 1472 518 
L 1472 2093 
L 2176 2093 
C 2586 2093 2886 1850 2957 1504 
C 2970 1434 2976 1280 2976 1056 
C 2976 883 2982 755 2989 678 
C 3027 141 3494 -141 4058 -141 
C 4301 -141 4474 -38 4570 160 
C 4646 307 4685 448 4685 582 
C 4685 666 4646 710 4576 710 
C 4518 710 4480 672 4474 589 
C 4442 230 4307 51 4083 51 
C 3859 51 3782 262 3744 448 
C 3706 666 3680 832 3661 941 
L 3578 1446 
C 3482 1779 3245 2022 2867 2170 
C 3354 2310 3910 2656 3910 3206 
z
M 3008 3840 
C 3142 3718 3213 3507 3213 3206 
C 3213 2963 3149 2758 3027 2586 
C 2880 2387 2592 2285 2150 2285 
L 1472 2285 
L 1472 3898 
C 1472 4032 1510 4102 1587 4109 
C 1632 4115 1754 4122 1958 4122 
C 2464 4122 2726 4102 3008 3840 
z
" transform="scale(0.015625)"/>
       <path id="NewCM10-Book-61" d="M 3091 582 
L 3091 960 
L 2886 960 
L 2886 582 
C 2886 333 2816 205 2682 205 
C 2554 205 2477 365 2477 493 
L 2477 1754 
C 2477 1978 2451 2144 2406 2259 
C 2253 2637 1811 2867 1363 2867 
C 870 2867 384 2592 384 2131 
C 384 1920 493 1811 704 1811 
C 915 1811 1018 1914 1018 2125 
C 1018 2310 922 2419 723 2438 
C 864 2598 1075 2682 1350 2682 
C 1747 2682 1990 2317 1990 1901 
L 1990 1690 
C 1491 1658 1114 1581 851 1459 
C 422 1261 205 986 205 621 
C 205 454 269 314 390 205 
C 595 19 877 -70 1235 -70 
C 1613 -70 1882 90 2048 416 
C 2093 173 2272 -38 2547 -38 
C 2886 -38 3091 230 3091 582 
z
M 1280 115 
C 986 115 742 333 742 627 
C 742 1222 1363 1478 1990 1510 
L 1990 902 
C 1990 474 1709 115 1280 115 
z
" transform="scale(0.015625)"/>
       <path id="NewCM10-Book-6d" d="M 2016 2643 
C 2310 2643 2458 2419 2458 1965 
L 2458 506 
C 2458 384 2438 307 2394 282 
C 2349 256 2202 243 1965 243 
L 1965 0 
L 2707 19 
L 3443 0 
L 3443 243 
C 3206 243 3066 256 3021 282 
C 2976 307 2950 384 2950 506 
L 2950 1658 
C 2950 2170 3283 2643 3776 2643 
C 4077 2643 4224 2419 4224 1965 
L 4224 506 
C 4224 384 4198 307 4154 282 
C 4109 256 3962 243 3725 243 
L 3725 0 
L 4467 19 
L 5203 0 
L 5203 243 
C 4998 243 4870 250 4806 269 
C 4742 288 4710 333 4710 410 
L 4710 1606 
C 4710 1907 4698 2118 4678 2240 
C 4614 2630 4326 2829 3821 2829 
C 3418 2829 3117 2643 2912 2266 
C 2822 2643 2541 2829 2061 2829 
C 1658 2829 1350 2637 1146 2253 
L 1146 2829 
L 205 2758 
L 205 2515 
C 435 2515 576 2496 627 2458 
C 678 2419 698 2336 698 2189 
L 698 506 
C 698 384 672 307 627 282 
C 582 256 442 243 205 243 
L 205 0 
L 947 19 
L 1683 0 
L 1683 243 
C 1446 243 1299 256 1254 282 
C 1210 307 1184 384 1184 506 
L 1184 1658 
C 1184 2176 1523 2643 2016 2643 
z
" transform="scale(0.015625)"/>
      </defs>
      <use xlink:href="#NewCM10-Book-52"/>
      <use xlink:href="#NewCM10-Book-61" x="73.599991"/>
      <use xlink:href="#NewCM10-Book-6e" x="123.599976"/>
      <use xlink:href="#NewCM10-Book-64" x="179.199966"/>
      <use xlink:href="#NewCM10-Book-6f" x="234.799957"/>
      <use xlink:href="#NewCM10-Book-6d" x="284.799942"/>
     </g>
    </g>
    <g id="line2d_16">
     <path d="M 38.09568 49.021875 
L 50.09568 49.021875 
L 62.09568 49.021875 
" style="fill: none; stroke: #1f77b4; stroke-linecap: square"/>
     <g>
      <use xlink:href="#m5419db8dca" x="50.09568" y="49.021875" style="fill: #1f77b4; stroke: #1f77b4; stroke-linejoin: miter"/>
     </g>
    </g>
    <g id="text_14">
     <!-- Column -->
     <g transform="translate(71.69568 53.221875) scale(0.12 -0.12)">
      <defs>
       <path id="NewCM10-Book-43" d="M 4256 2835 
L 4256 4333 
C 4256 4454 4224 4512 4160 4512 
C 4115 4512 4077 4480 4038 4422 
L 3738 3981 
C 3546 4179 3341 4320 3117 4410 
C 2950 4480 2771 4512 2579 4512 
C 1958 4512 1427 4288 998 3827 
C 570 3366 358 2822 358 2189 
C 358 1555 570 1011 992 557 
C 1421 90 1952 -141 2579 -141 
C 3034 -141 3430 19 3763 339 
C 4096 659 4256 1043 4256 1498 
C 4256 1587 4218 1632 4147 1632 
C 4083 1632 4051 1606 4051 1549 
C 4051 1542 4051 1530 4045 1510 
C 4006 742 3456 109 2656 109 
C 2419 109 2182 173 1933 301 
C 1344 621 1062 1235 1062 2182 
C 1062 3078 1376 3770 1933 4070 
C 2182 4198 2419 4262 2650 4262 
C 3443 4262 3898 3539 4006 2784 
C 4013 2701 4058 2656 4128 2656 
C 4256 2656 4256 2707 4256 2835 
z
" transform="scale(0.015625)"/>
       <path id="NewCM10-Book-6c" d="M 922 19 
L 1632 0 
L 1632 250 
C 1402 250 1261 256 1216 282 
C 1171 307 1152 384 1152 506 
L 1152 4442 
L 211 4371 
L 211 4128 
C 435 4128 576 4109 621 4070 
C 666 4032 691 3942 691 3795 
L 691 506 
C 691 384 666 307 621 282 
C 576 256 442 250 211 250 
L 211 0 
L 922 19 
z
" transform="scale(0.015625)"/>
      </defs>
      <use xlink:href="#NewCM10-Book-43"/>
      <use xlink:href="#NewCM10-Book-6f" x="72.199982"/>
      <use xlink:href="#NewCM10-Book-6c" x="122.199966"/>
      <use xlink:href="#NewCM10-Book-75" x="149.999954"/>
      <use xlink:href="#NewCM10-Book-6d" x="205.599945"/>
      <use xlink:href="#NewCM10-Book-6e" x="288.899933"/>
     </g>
    </g>
    <g id="line2d_17">
     <path d="M 38.09568 65.750625 
L 50.09568 65.750625 
L 62.09568 65.750625 
" style="fill: none; stroke: #000000; stroke-linecap: square"/>
     <g>
      <use xlink:href="#m7fecc485b5" x="50.09568" y="65.750625" style="stroke: #000000; stroke-linejoin: miter"/>
     </g>
    </g>
    <g id="text_15">
     <!-- Z -->
     <g transform="translate(71.69568 69.950625) scale(0.12 -0.12)">
      <defs>
       <path id="NewCM10-Book-5a" d="M 550 0 
L 3475 0 
L 3584 1741 
L 3379 1741 
C 3366 1523 3347 1350 3328 1222 
C 3226 512 2867 269 2067 269 
L 1075 269 
L 3501 4109 
C 3533 4160 3546 4205 3546 4243 
C 3546 4326 3507 4371 3437 4371 
L 512 4371 
L 442 2899 
L 646 2899 
C 672 3290 755 3584 902 3782 
C 1069 4006 1395 4122 1888 4122 
L 2835 4122 
L 410 275 
C 378 224 358 179 358 134 
C 358 26 397 0 550 0 
z
" transform="scale(0.015625)"/>
      </defs>
      <use xlink:href="#NewCM10-Book-5a"/>
     </g>
    </g>
   </g>
   <g id="line2d_18">
    <path d="M 38.09568 127.814896 
L 66.64468 116.169844 
L 95.19368 104.524792 
L 123.74268 92.87974 
L 152.29168 81.234688 
L 180.84068 69.589635 
L 209.38968 57.944583 
L 237.93868 46.299531 
L 266.48768 34.654479 
" style="fill: none; stroke-dasharray: 3.7,1.6; stroke-dashoffset: 0; stroke: #000000"/>
   </g>
  </g>
 </g>
</svg>
