<?xml version="1.0" encoding="utf-8" standalone="no"?>
<!DOCTYPE svg PUBLIC "-//W3C//DTD SVG 1.1//EN"
  "http://www.w3.org/Graphics/SVG/1.1/DTD/svg11.dtd">
<svg xmlns:xlink="http://www.w3.org/1999/xlink" width="275.904655pt" height="203.705113pt" viewBox="0 0 275.904655 203.705113" xmlns="http://www.w3.org/2000/svg" version="1.1">
 <metadata>
  <rdf:RDF xmlns:dc="http://purl.org/dc/elements/1.1/" xmlns:cc="http://creativecommons.org/ns#" xmlns:rdf="http://www.w3.org/1999/02/22-rdf-syntax-ns#">
   <cc:Work>
    <dc:type rdf:resource="http://purl.org/dc/dcmitype/StillImage"/>
    <dc:date>2023-06-26T19:16:03.275554</dc:date>
    <dc:format>image/svg+xml</dc:format>
    <dc:creator>
     <cc:Agent>
      <dc:title>Matplotlib v3.7.1, https://matplotlib.org/</dc:title>
     </cc:Agent>
    </dc:creator>
   </cc:Work>
  </rdf:RDF>
 </metadata>
 <defs>
  <style type="text/css">*{stroke-linejoin: round; stroke-linecap: butt}</style>
 </defs>
 <g id="figure_1">
  <g id="patch_1">
   <path d="M 0 203.705113 
L 275.904655 203.705113 
L 275.904655 0 
L 0 0 
L 0 203.705113 
z
" style="fill: none"/>
  </g>
  <g id="axes_1">
   <g id="patch_2">
    <path d="M 59.88828 158.3122 
L 268.704655 158.3122 
L 268.704655 11.364375 
L 59.88828 11.364375 
L 59.88828 158.3122 
z
" style="fill: none"/>
   </g>
   <g id="matplotlib.axis_1">
    <g id="xtick_1">
     <g id="line2d_1">
      <path d="M 79.926215 158.3122 
L 79.926215 11.364375 
" style="fill: none; stroke: #b0b0b0; stroke-width: 0.8; stroke-linecap: square"/>
     </g>
     <g id="line2d_2">
      <defs>
       <path id="md2cdfa5a93" d="M 0 0 
L 0 3.5 
" style="stroke: #000000; stroke-width: 0.8"/>
      </defs>
      <g>
       <use xlink:href="#md2cdfa5a93" x="79.926215" y="164.190113" style="stroke: #000000; stroke-width: 0.8"/>
      </g>
     </g>
     <g id="text_1">
      <!-- −4 -->
      <g transform="translate(72.258402 179.518863) scale(0.12 -0.12)">
       <defs>
        <path id="NewCM10-Book-2212" d="M 4371 1472 
C 4531 1472 4614 1517 4614 1600 
C 4614 1683 4538 1728 4378 1728 
L 595 1728 
C 435 1728 358 1683 358 1600 
C 358 1517 442 1472 602 1472 
L 4371 1472 
z
" transform="scale(0.015625)"/>
        <path id="NewCM10-Book-34" d="M 2259 4333 
C 2202 4333 2150 4301 2112 4243 
L 179 1274 
L 179 1043 
L 1850 1043 
L 1850 518 
C 1850 403 1824 326 1779 294 
C 1734 262 1613 250 1402 250 
L 1242 250 
L 1242 0 
C 1427 13 1722 19 2118 19 
C 2515 19 2810 13 2995 0 
L 2995 250 
L 2835 250 
C 2624 250 2502 262 2458 294 
C 2413 326 2387 403 2387 518 
L 2387 1043 
L 3014 1043 
L 3014 1293 
L 2387 1293 
L 2387 4224 
C 2387 4288 2342 4333 2259 4333 
z
M 1888 3539 
L 1888 1293 
L 429 1293 
L 1888 3539 
z
" transform="scale(0.015625)"/>
       </defs>
       <use xlink:href="#NewCM10-Book-2212"/>
       <use xlink:href="#NewCM10-Book-34" x="77.799988"/>
      </g>
     </g>
    </g>
    <g id="xtick_2">
     <g id="line2d_3">
      <path d="M 122.111341 158.3122 
L 122.111341 11.364375 
" style="fill: none; stroke: #b0b0b0; stroke-width: 0.8; stroke-linecap: square"/>
     </g>
     <g id="line2d_4">
      <g>
       <use xlink:href="#md2cdfa5a93" x="122.111341" y="164.190113" style="stroke: #000000; stroke-width: 0.8"/>
      </g>
     </g>
     <g id="text_2">
      <!-- −2 -->
      <g transform="translate(114.443529 179.518863) scale(0.12 -0.12)">
       <defs>
        <path id="NewCM10-Book-32" d="M 1517 4262 
C 1190 4262 915 4147 678 3917 
C 442 3686 320 3418 320 3091 
C 320 2874 480 2714 678 2714 
C 870 2714 1030 2880 1030 3072 
C 1030 3283 877 3430 672 3430 
C 653 3430 640 3430 627 3424 
C 749 3738 1030 4013 1434 4013 
C 1958 4013 2253 3558 2253 3008 
C 2253 2579 2035 2118 1600 1632 
L 397 275 
C 314 179 320 186 320 0 
L 2694 0 
L 2880 1152 
L 2669 1152 
C 2618 826 2573 640 2534 582 
C 2502 550 2310 538 1958 538 
L 890 538 
L 1510 1146 
C 1946 1555 2496 1997 2682 2336 
C 2810 2560 2874 2784 2874 3008 
C 2874 3763 2285 4262 1517 4262 
z
" transform="scale(0.015625)"/>
       </defs>
       <use xlink:href="#NewCM10-Book-2212"/>
       <use xlink:href="#NewCM10-Book-32" x="77.799988"/>
      </g>
     </g>
    </g>
    <g id="xtick_3">
     <g id="line2d_5">
      <path d="M 164.296468 158.3122 
L 164.296468 11.364375 
" style="fill: none; stroke: #b0b0b0; stroke-width: 0.8; stroke-linecap: square"/>
     </g>
     <g id="line2d_6">
      <g>
       <use xlink:href="#md2cdfa5a93" x="164.296468" y="164.190113" style="stroke: #000000; stroke-width: 0.8"/>
      </g>
     </g>
     <g id="text_3">
      <!-- 0 -->
      <g transform="translate(161.296468 179.518863) scale(0.12 -0.12)">
       <defs>
        <path id="NewCM10-Book-30" d="M 1594 -141 
C 2496 -141 2944 589 2944 2048 
C 2944 3027 2739 3680 2336 4000 
C 2112 4173 1862 4262 1600 4262 
C 698 4262 250 3526 250 2048 
C 250 870 563 -141 1594 -141 
z
M 2310 3354 
C 2355 3130 2374 2720 2374 2125 
C 2374 1536 2349 1101 2304 819 
C 2221 307 1984 51 1594 51 
C 1446 51 1299 109 1165 218 
C 992 365 890 666 845 1126 
C 826 1286 819 1619 819 2125 
C 819 2682 838 3072 870 3283 
C 928 3635 1043 3859 1222 3955 
C 1363 4032 1485 4070 1594 4070 
C 2010 4070 2240 3731 2310 3354 
z
" transform="scale(0.015625)"/>
       </defs>
       <use xlink:href="#NewCM10-Book-30"/>
      </g>
     </g>
    </g>
    <g id="xtick_4">
     <g id="line2d_7">
      <path d="M 206.481594 158.3122 
L 206.481594 11.364375 
" style="fill: none; stroke: #b0b0b0; stroke-width: 0.8; stroke-linecap: square"/>
     </g>
     <g id="line2d_8">
      <g>
       <use xlink:href="#md2cdfa5a93" x="206.481594" y="164.190113" style="stroke: #000000; stroke-width: 0.8"/>
      </g>
     </g>
     <g id="text_4">
      <!-- 2 -->
      <g transform="translate(203.481594 179.518863) scale(0.12 -0.12)">
       <use xlink:href="#NewCM10-Book-32"/>
      </g>
     </g>
    </g>
    <g id="xtick_5">
     <g id="line2d_9">
      <path d="M 248.66672 158.3122 
L 248.66672 11.364375 
" style="fill: none; stroke: #b0b0b0; stroke-width: 0.8; stroke-linecap: square"/>
     </g>
     <g id="line2d_10">
      <g>
       <use xlink:href="#md2cdfa5a93" x="248.66672" y="164.190113" style="stroke: #000000; stroke-width: 0.8"/>
      </g>
     </g>
     <g id="text_5">
      <!-- 4 -->
      <g transform="translate(245.66672 179.518863) scale(0.12 -0.12)">
       <use xlink:href="#NewCM10-Book-34"/>
      </g>
     </g>
    </g>
    <g id="text_6">
     <!-- $z$ -->
     <g transform="translate(161.476468 194.176363) scale(0.12 -0.12)">
      <defs>
       <path id="Cmmi10-7a" d="M 313 -72 
Q 263 -72 263 -13 
Q 263 19 275 31 
Q 447 328 689 598 
Q 931 869 1239 1145 
Q 1547 1422 1858 1700 
Q 2169 1978 2363 2194 
L 2338 2194 
Q 2197 2194 1925 2284 
Q 1653 2375 1497 2375 
Q 1328 2375 1168 2301 
Q 1009 2228 966 2075 
Q 956 2028 916 2028 
L 838 2028 
Q 788 2028 788 2094 
L 788 2113 
Q 838 2300 952 2462 
Q 1066 2625 1233 2726 
Q 1400 2828 1581 2828 
Q 1709 2828 1793 2770 
Q 1878 2713 1990 2591 
Q 2103 2469 2173 2416 
Q 2244 2363 2350 2363 
Q 2491 2363 2602 2491 
Q 2713 2619 2822 2809 
Q 2841 2828 2869 2828 
L 2944 2828 
Q 2966 2828 2980 2812 
Q 2994 2797 2994 2772 
Q 2994 2750 2981 2731 
Q 2809 2434 2579 2176 
Q 2350 1919 1979 1586 
Q 1609 1253 1354 1023 
Q 1100 794 878 550 
Q 928 563 1013 563 
Q 1169 563 1439 473 
Q 1709 384 1856 384 
Q 2016 384 2178 453 
Q 2341 522 2459 647 
Q 2578 772 2619 934 
Q 2634 978 2669 978 
L 2747 978 
Q 2772 978 2787 958 
Q 2803 938 2803 916 
Q 2803 909 2797 897 
Q 2738 653 2591 433 
Q 2444 213 2230 70 
Q 2016 -72 1772 -72 
Q 1650 -72 1565 -15 
Q 1481 41 1367 164 
Q 1253 288 1181 342 
Q 1109 397 1006 397 
Q 688 397 434 -50 
Q 413 -72 391 -72 
L 313 -72 
z
" transform="scale(0.015625)"/>
      </defs>
      <use xlink:href="#Cmmi10-7a" transform="translate(0 0.8125)"/>
     </g>
    </g>
   </g>
   <g id="matplotlib.axis_2">
    <g id="ytick_1">
     <g id="line2d_11">
      <path d="M 59.88828 158.3122 
L 268.704655 158.3122 
" style="fill: none; stroke: #b0b0b0; stroke-width: 0.8; stroke-linecap: square"/>
     </g>
     <g id="line2d_12">
      <defs>
       <path id="mb49b96e990" d="M 0 0 
L -3.5 0 
" style="stroke: #000000; stroke-width: 0.8"/>
      </defs>
      <g>
       <use xlink:href="#mb49b96e990" x="51.535625" y="158.3122" style="stroke: #000000; stroke-width: 0.8"/>
      </g>
     </g>
     <g id="text_7">
      <!-- 0.00 -->
      <g transform="translate(23.2 162.476575) scale(0.12 -0.12)">
       <defs>
        <path id="NewCM10-Book-2e" d="M 1229 339 
C 1229 525 1075 678 890 678 
C 704 678 550 525 550 339 
C 550 154 704 0 890 0 
C 1075 0 1229 154 1229 339 
z
" transform="scale(0.015625)"/>
       </defs>
       <use xlink:href="#NewCM10-Book-30"/>
       <use xlink:href="#NewCM10-Book-2e" x="49.999985"/>
       <use xlink:href="#NewCM10-Book-30" x="77.799973"/>
       <use xlink:href="#NewCM10-Book-30" x="127.799957"/>
      </g>
     </g>
    </g>
    <g id="ytick_2">
     <g id="line2d_13">
      <path d="M 59.88828 121.575244 
L 268.704655 121.575244 
" style="fill: none; stroke: #b0b0b0; stroke-width: 0.8; stroke-linecap: square"/>
     </g>
     <g id="line2d_14">
      <g>
       <use xlink:href="#mb49b96e990" x="51.535625" y="121.575244" style="stroke: #000000; stroke-width: 0.8"/>
      </g>
     </g>
     <g id="text_8">
      <!-- 0.25 -->
      <g transform="translate(23.2 125.739619) scale(0.12 -0.12)">
       <defs>
        <path id="NewCM10-Book-35" d="M 755 2016 
C 787 2016 826 2042 858 2086 
C 1050 2374 1312 2515 1645 2515 
C 1869 2515 2042 2387 2157 2125 
C 2227 1952 2266 1690 2266 1338 
C 2266 934 2214 653 2118 486 
C 1958 224 1741 90 1466 90 
C 1037 90 698 397 582 730 
C 602 723 614 730 640 730 
C 832 730 992 877 992 1069 
C 992 1267 832 1402 640 1402 
C 416 1402 320 1280 320 1043 
C 320 403 838 -141 1478 -141 
C 1869 -141 2202 0 2470 282 
C 2739 563 2874 902 2874 1293 
C 2874 1664 2765 1984 2547 2259 
C 2310 2560 2016 2707 1658 2707 
C 1357 2707 1094 2611 883 2419 
L 883 3558 
C 1056 3507 1222 3482 1395 3482 
C 1690 3482 1946 3552 2163 3699 
C 2362 3821 2496 3942 2573 4058 
C 2611 4109 2630 4147 2630 4166 
C 2630 4230 2598 4262 2534 4262 
C 2182 4128 1882 4058 1638 4058 
C 1350 4058 1075 4115 813 4237 
C 781 4250 755 4256 730 4256 
C 672 4256 640 4198 640 4077 
L 640 2208 
C 640 2074 640 2016 755 2016 
z
" transform="scale(0.015625)"/>
       </defs>
       <use xlink:href="#NewCM10-Book-30"/>
       <use xlink:href="#NewCM10-Book-2e" x="49.999985"/>
       <use xlink:href="#NewCM10-Book-32" x="77.799973"/>
       <use xlink:href="#NewCM10-Book-35" x="127.799957"/>
      </g>
     </g>
    </g>
    <g id="ytick_3">
     <g id="line2d_15">
      <path d="M 59.88828 84.838288 
L 268.704655 84.838288 
" style="fill: none; stroke: #b0b0b0; stroke-width: 0.8; stroke-linecap: square"/>
     </g>
     <g id="line2d_16">
      <g>
       <use xlink:href="#mb49b96e990" x="51.535625" y="84.838288" style="stroke: #000000; stroke-width: 0.8"/>
      </g>
     </g>
     <g id="text_9">
      <!-- 0.50 -->
      <g transform="translate(23.2 89.002663) scale(0.12 -0.12)">
       <use xlink:href="#NewCM10-Book-30"/>
       <use xlink:href="#NewCM10-Book-2e" x="49.999985"/>
       <use xlink:href="#NewCM10-Book-35" x="77.799973"/>
       <use xlink:href="#NewCM10-Book-30" x="127.799957"/>
      </g>
     </g>
    </g>
    <g id="ytick_4">
     <g id="line2d_17">
      <path d="M 59.88828 48.101331 
L 268.704655 48.101331 
" style="fill: none; stroke: #b0b0b0; stroke-width: 0.8; stroke-linecap: square"/>
     </g>
     <g id="line2d_18">
      <g>
       <use xlink:href="#mb49b96e990" x="51.535625" y="48.101331" style="stroke: #000000; stroke-width: 0.8"/>
      </g>
     </g>
     <g id="text_10">
      <!-- 0.75 -->
      <g transform="translate(23.2 52.265706) scale(0.12 -0.12)">
       <defs>
        <path id="NewCM10-Book-37" d="M 3040 3866 
C 3085 3923 3104 4006 3104 4122 
L 1555 4122 
C 1114 4122 864 4147 819 4205 
C 800 4224 781 4269 768 4326 
L 570 4326 
L 352 2970 
L 563 2970 
C 627 3328 678 3520 717 3552 
C 736 3571 934 3584 1312 3584 
L 2566 3584 
L 1888 2624 
C 1370 1888 1114 1094 1114 230 
C 1114 -19 1216 -141 1427 -141 
C 1638 -141 1741 -19 1741 230 
L 1741 557 
C 1741 1530 1894 2234 2195 2662 
L 3040 3866 
z
" transform="scale(0.015625)"/>
       </defs>
       <use xlink:href="#NewCM10-Book-30"/>
       <use xlink:href="#NewCM10-Book-2e" x="49.999985"/>
       <use xlink:href="#NewCM10-Book-37" x="77.799973"/>
       <use xlink:href="#NewCM10-Book-35" x="127.799957"/>
      </g>
     </g>
    </g>
    <g id="ytick_5">
     <g id="line2d_19">
      <path d="M 59.88828 11.364375 
L 268.704655 11.364375 
" style="fill: none; stroke: #b0b0b0; stroke-width: 0.8; stroke-linecap: square"/>
     </g>
     <g id="line2d_20">
      <g>
       <use xlink:href="#mb49b96e990" x="51.535625" y="11.364375" style="stroke: #000000; stroke-width: 0.8"/>
      </g>
     </g>
     <g id="text_11">
      <!-- 1.00 -->
      <g transform="translate(23.2 15.52875) scale(0.12 -0.12)">
       <defs>
        <path id="NewCM10-Book-31" d="M 1722 4262 
C 1459 3994 1075 3859 570 3859 
L 570 3610 
C 902 3610 1178 3661 1389 3763 
L 1389 525 
C 1389 410 1363 333 1306 301 
C 1248 269 1088 250 832 250 
L 608 250 
L 608 0 
C 768 13 1114 19 1645 19 
C 2176 19 2522 13 2682 0 
L 2682 250 
L 2458 250 
C 2195 250 2035 269 1984 301 
C 1933 333 1901 410 1901 525 
L 1901 4070 
C 1901 4224 1888 4262 1722 4262 
z
" transform="scale(0.015625)"/>
       </defs>
       <use xlink:href="#NewCM10-Book-31"/>
       <use xlink:href="#NewCM10-Book-2e" x="49.999985"/>
       <use xlink:href="#NewCM10-Book-30" x="77.799973"/>
       <use xlink:href="#NewCM10-Book-30" x="127.799957"/>
      </g>
     </g>
    </g>
    <g id="text_12">
     <!-- $\mathrm{CDF}(z)$ -->
     <g transform="translate(16.2 105.118288) rotate(-90) scale(0.12 -0.12)">
      <defs>
       <path id="Cmr10-43" d="M 1459 684 
Q 1678 406 2006 245 
Q 2334 84 2688 84 
Q 2984 84 3237 201 
Q 3491 319 3680 528 
Q 3869 738 3970 1003 
Q 4072 1269 4072 1563 
Q 4072 1613 4128 1613 
L 4206 1613 
Q 4256 1613 4256 1550 
Q 4256 1216 4128 905 
Q 4000 594 3765 358 
Q 3531 122 3226 -9 
Q 2922 -141 2591 -141 
Q 2131 -141 1720 45 
Q 1309 231 1004 554 
Q 700 878 529 1303 
Q 359 1728 359 2188 
Q 359 2647 529 3072 
Q 700 3497 1004 3822 
Q 1309 4147 1720 4330 
Q 2131 4513 2591 4513 
Q 2919 4513 3219 4370 
Q 3519 4228 3744 3969 
L 4116 4494 
Q 4153 4513 4159 4513 
L 4206 4513 
Q 4225 4513 4240 4497 
Q 4256 4481 4256 4459 
L 4256 2731 
Q 4256 2675 4206 2675 
L 4091 2675 
Q 4031 2675 4031 2731 
Q 4031 2916 3957 3144 
Q 3884 3372 3770 3576 
Q 3656 3781 3506 3938 
Q 3147 4288 2681 4288 
Q 2328 4288 2004 4128 
Q 1681 3969 1459 3688 
Q 1225 3388 1134 3005 
Q 1044 2622 1044 2188 
Q 1044 1753 1134 1368 
Q 1225 984 1459 684 
z
" transform="scale(0.015625)"/>
       <path id="Cmr10-44" d="M 213 0 
L 213 225 
Q 872 225 872 428 
L 872 3944 
Q 872 4147 213 4147 
L 213 4372 
L 2572 4372 
Q 3009 4372 3371 4183 
Q 3734 3994 3990 3678 
Q 4247 3363 4386 2963 
Q 4525 2563 4525 2144 
Q 4525 1738 4384 1355 
Q 4244 972 3980 664 
Q 3716 356 3355 178 
Q 2994 0 2572 0 
L 213 0 
z
M 1447 428 
Q 1447 291 1525 258 
Q 1603 225 1772 225 
L 2406 225 
Q 2734 225 3029 367 
Q 3325 509 3519 763 
Q 3722 1031 3790 1364 
Q 3859 1697 3859 2144 
Q 3859 2609 3790 2959 
Q 3722 3309 3519 3584 
Q 3328 3856 3034 4001 
Q 2741 4147 2406 4147 
L 1772 4147 
Q 1656 4147 1592 4137 
Q 1528 4128 1487 4083 
Q 1447 4038 1447 3944 
L 1447 428 
z
" transform="scale(0.015625)"/>
       <path id="Cmr10-46" d="M 197 0 
L 197 225 
Q 856 225 856 428 
L 856 3944 
Q 856 4147 197 4147 
L 197 4372 
L 3725 4372 
L 3903 2906 
L 3719 2906 
Q 3675 3309 3601 3542 
Q 3528 3775 3387 3908 
Q 3247 4041 3011 4094 
Q 2775 4147 2363 4147 
L 1778 4147 
Q 1663 4147 1598 4137 
Q 1534 4128 1493 4083 
Q 1453 4038 1453 3944 
L 1453 2297 
L 1906 2297 
Q 2234 2297 2387 2355 
Q 2541 2413 2598 2566 
Q 2656 2719 2656 3047 
L 2841 3047 
L 2841 1325 
L 2656 1325 
Q 2656 1653 2598 1806 
Q 2541 1959 2387 2017 
Q 2234 2075 1906 2075 
L 1453 2075 
L 1453 428 
Q 1453 225 2272 225 
L 2272 0 
L 197 0 
z
" transform="scale(0.015625)"/>
       <path id="Cmr10-28" d="M 1984 -1588 
Q 1628 -1306 1370 -942 
Q 1113 -578 948 -165 
Q 784 247 703 697 
Q 622 1147 622 1600 
Q 622 2059 703 2509 
Q 784 2959 951 3375 
Q 1119 3791 1378 4153 
Q 1638 4516 1984 4788 
Q 1984 4800 2016 4800 
L 2075 4800 
Q 2094 4800 2109 4783 
Q 2125 4766 2125 4744 
Q 2125 4716 2113 4703 
Q 1800 4397 1592 4047 
Q 1384 3697 1257 3301 
Q 1131 2906 1075 2482 
Q 1019 2059 1019 1600 
Q 1019 -434 2106 -1491 
Q 2125 -1509 2125 -1544 
Q 2125 -1559 2108 -1579 
Q 2091 -1600 2075 -1600 
L 2016 -1600 
Q 1984 -1600 1984 -1588 
z
" transform="scale(0.015625)"/>
       <path id="Cmr10-29" d="M 416 -1600 
Q 359 -1600 359 -1544 
Q 359 -1516 372 -1503 
Q 1466 -434 1466 1600 
Q 1466 3634 384 4691 
Q 359 4706 359 4744 
Q 359 4766 376 4783 
Q 394 4800 416 4800 
L 475 4800 
Q 494 4800 506 4788 
Q 966 4425 1272 3906 
Q 1578 3388 1720 2800 
Q 1863 2213 1863 1600 
Q 1863 1147 1786 708 
Q 1709 269 1542 -157 
Q 1375 -584 1119 -945 
Q 863 -1306 506 -1588 
Q 494 -1600 475 -1600 
L 416 -1600 
z
" transform="scale(0.015625)"/>
      </defs>
      <use xlink:href="#Cmr10-43"/>
      <use xlink:href="#Cmr10-44" transform="translate(72.216797 0)"/>
      <use xlink:href="#Cmr10-46" transform="translate(148.535156 0)"/>
      <use xlink:href="#Cmr10-28" transform="translate(213.720703 0)"/>
      <use xlink:href="#Cmmi10-7a" transform="translate(252.539062 0)"/>
      <use xlink:href="#Cmr10-29" transform="translate(299.023438 0)"/>
     </g>
    </g>
   </g>
   <g id="line2d_21">
    <path d="M 69.379933 158.311701 
L 97.044049 158.207102 
L 104.675529 157.966577 
L 109.445204 157.628251 
L 113.260944 157.170586 
L 117.076684 156.46243 
L 119.938489 155.706488 
L 122.800294 154.701368 
L 125.662099 153.389275 
L 127.569969 152.313241 
L 129.477839 151.053796 
L 131.385709 149.591681 
L 133.293579 147.908104 
L 135.20145 145.985306 
L 137.10932 143.807178 
L 139.01719 141.359905 
L 140.92506 138.63262 
L 142.83293 135.618032 
L 145.694735 130.551866 
L 148.55654 124.842791 
L 151.418345 118.526392 
L 154.28015 111.665338 
L 158.09589 101.826856 
L 162.865565 88.812224 
L 170.497045 67.849719 
L 174.312785 58.011237 
L 177.17459 51.150183 
L 180.036395 44.833784 
L 182.8982 39.124709 
L 185.760005 34.058543 
L 187.667875 31.043955 
L 189.575745 28.31667 
L 191.483615 25.869397 
L 193.391485 23.691269 
L 195.299356 21.768471 
L 197.207226 20.084894 
L 199.115096 18.622779 
L 201.022966 17.363334 
L 203.884771 15.81204 
L 206.746576 14.60903 
L 209.608381 13.693101 
L 212.470186 13.008446 
L 216.285926 12.371559 
L 220.101666 11.963299 
L 224.871341 11.664196 
L 231.548886 11.469473 
L 243.950041 11.376066 
L 259.213002 11.364874 
L 259.213002 11.364874 
" style="fill: none; stroke: #000000; stroke-linecap: square"/>
   </g>
   <g id="patch_3">
    <path d="M 51.535625 158.3122 
L 51.535625 11.364375 
" style="fill: none; stroke: #000000; stroke-width: 0.5; stroke-linejoin: miter; stroke-linecap: square"/>
   </g>
   <g id="patch_4">
    <path d="M 59.88828 164.190113 
L 268.704655 164.190113 
" style="fill: none; stroke: #000000; stroke-width: 0.5; stroke-linejoin: miter; stroke-linecap: square"/>
   </g>
  </g>
 </g>
</svg>
