<?xml version="1.0" encoding="utf-8" standalone="no"?>
<!DOCTYPE svg PUBLIC "-//W3C//DTD SVG 1.1//EN"
  "http://www.w3.org/Graphics/SVG/1.1/DTD/svg11.dtd">
<svg xmlns:xlink="http://www.w3.org/1999/xlink" width="275.57923pt" height="203.699413pt" viewBox="0 0 275.57923 203.699413" xmlns="http://www.w3.org/2000/svg" version="1.1">
 <metadata>
  <rdf:RDF xmlns:dc="http://purl.org/dc/elements/1.1/" xmlns:cc="http://creativecommons.org/ns#" xmlns:rdf="http://www.w3.org/1999/02/22-rdf-syntax-ns#">
   <cc:Work>
    <dc:type rdf:resource="http://purl.org/dc/dcmitype/StillImage"/>
    <dc:date>2023-06-20T19:36:26.001453</dc:date>
    <dc:format>image/svg+xml</dc:format>
    <dc:creator>
     <cc:Agent>
      <dc:title>Matplotlib v3.7.1, https://matplotlib.org/</dc:title>
     </cc:Agent>
    </dc:creator>
   </cc:Work>
  </rdf:RDF>
 </metadata>
 <defs>
  <style type="text/css">*{stroke-linejoin: round; stroke-linecap: butt}</style>
 </defs>
 <g id="figure_1">
  <g id="patch_1">
   <path d="M 0 203.699413 
L 275.57923 203.699413 
L 275.57923 0 
L 0 0 
L 0 203.699413 
z
" style="fill: none"/>
  </g>
  <g id="axes_1">
   <g id="patch_2">
    <path d="M 67.69848 158.1697 
L 268.37923 158.1697 
L 268.37923 11.364375 
L 67.69848 11.364375 
L 67.69848 158.1697 
z
" style="fill: none"/>
   </g>
   <g id="matplotlib.axis_1">
    <g id="xtick_1">
     <g id="line2d_1">
      <defs>
       <path id="m5a42f744af" d="M 0 0 
L 0 3.5 
" style="stroke: #000000; stroke-width: 0.8"/>
      </defs>
      <g>
       <use xlink:href="#m5a42f744af" x="67.69848" y="164.041913" style="stroke: #000000; stroke-width: 0.8"/>
      </g>
     </g>
     <g id="text_1">
      <!-- 0 -->
      <g transform="translate(64.69848 179.370663) scale(0.12 -0.12)">
       <defs>
        <path id="NewCM10-Book-30" d="M 1594 -141 
C 2496 -141 2944 589 2944 2048 
C 2944 3027 2739 3680 2336 4000 
C 2112 4173 1862 4262 1600 4262 
C 698 4262 250 3526 250 2048 
C 250 870 563 -141 1594 -141 
z
M 2310 3354 
C 2355 3130 2374 2720 2374 2125 
C 2374 1536 2349 1101 2304 819 
C 2221 307 1984 51 1594 51 
C 1446 51 1299 109 1165 218 
C 992 365 890 666 845 1126 
C 826 1286 819 1619 819 2125 
C 819 2682 838 3072 870 3283 
C 928 3635 1043 3859 1222 3955 
C 1363 4032 1485 4070 1594 4070 
C 2010 4070 2240 3731 2310 3354 
z
" transform="scale(0.015625)"/>
       </defs>
       <use xlink:href="#NewCM10-Book-30"/>
      </g>
     </g>
    </g>
    <g id="xtick_2">
     <g id="line2d_2">
      <g>
       <use xlink:href="#m5a42f744af" x="114.91748" y="164.041913" style="stroke: #000000; stroke-width: 0.8"/>
      </g>
     </g>
     <g id="text_2">
      <!-- 2 -->
      <g transform="translate(111.91748 179.370663) scale(0.12 -0.12)">
       <defs>
        <path id="NewCM10-Book-32" d="M 1517 4262 
C 1190 4262 915 4147 678 3917 
C 442 3686 320 3418 320 3091 
C 320 2874 480 2714 678 2714 
C 870 2714 1030 2880 1030 3072 
C 1030 3283 877 3430 672 3430 
C 653 3430 640 3430 627 3424 
C 749 3738 1030 4013 1434 4013 
C 1958 4013 2253 3558 2253 3008 
C 2253 2579 2035 2118 1600 1632 
L 397 275 
C 314 179 320 186 320 0 
L 2694 0 
L 2880 1152 
L 2669 1152 
C 2618 826 2573 640 2534 582 
C 2502 550 2310 538 1958 538 
L 890 538 
L 1510 1146 
C 1946 1555 2496 1997 2682 2336 
C 2810 2560 2874 2784 2874 3008 
C 2874 3763 2285 4262 1517 4262 
z
" transform="scale(0.015625)"/>
       </defs>
       <use xlink:href="#NewCM10-Book-32"/>
      </g>
     </g>
    </g>
    <g id="xtick_3">
     <g id="line2d_3">
      <g>
       <use xlink:href="#m5a42f744af" x="162.13648" y="164.041913" style="stroke: #000000; stroke-width: 0.8"/>
      </g>
     </g>
     <g id="text_3">
      <!-- 4 -->
      <g transform="translate(159.13648 179.370663) scale(0.12 -0.12)">
       <defs>
        <path id="NewCM10-Book-34" d="M 2259 4333 
C 2202 4333 2150 4301 2112 4243 
L 179 1274 
L 179 1043 
L 1850 1043 
L 1850 518 
C 1850 403 1824 326 1779 294 
C 1734 262 1613 250 1402 250 
L 1242 250 
L 1242 0 
C 1427 13 1722 19 2118 19 
C 2515 19 2810 13 2995 0 
L 2995 250 
L 2835 250 
C 2624 250 2502 262 2458 294 
C 2413 326 2387 403 2387 518 
L 2387 1043 
L 3014 1043 
L 3014 1293 
L 2387 1293 
L 2387 4224 
C 2387 4288 2342 4333 2259 4333 
z
M 1888 3539 
L 1888 1293 
L 429 1293 
L 1888 3539 
z
" transform="scale(0.015625)"/>
       </defs>
       <use xlink:href="#NewCM10-Book-34"/>
      </g>
     </g>
    </g>
    <g id="xtick_4">
     <g id="line2d_4">
      <g>
       <use xlink:href="#m5a42f744af" x="209.35548" y="164.041913" style="stroke: #000000; stroke-width: 0.8"/>
      </g>
     </g>
     <g id="text_4">
      <!-- 6 -->
      <g transform="translate(206.35548 179.370663) scale(0.12 -0.12)">
       <defs>
        <path id="NewCM10-Book-36" d="M 2451 3226 
C 2662 3226 2765 3334 2765 3552 
C 2765 4013 2419 4262 1946 4262 
C 1414 4262 992 4013 678 3507 
C 403 3072 269 2579 269 2022 
C 269 1210 416 640 717 301 
C 973 6 1267 -141 1606 -141 
C 1997 -141 2317 6 2566 301 
C 2803 582 2925 922 2925 1312 
C 2925 1702 2810 2035 2579 2310 
C 2336 2605 2022 2758 1645 2758 
C 1312 2758 1056 2573 883 2214 
L 883 2253 
C 883 2976 1062 3590 1446 3872 
C 1613 3994 1786 4051 1958 4051 
C 2189 4051 2355 3987 2464 3853 
C 2246 3853 2138 3731 2138 3539 
C 2138 3360 2272 3226 2451 3226 
z
M 2202 2176 
C 2272 2029 2310 1741 2310 1318 
C 2310 902 2278 627 2208 486 
C 2080 224 1882 90 1606 90 
C 1421 90 1280 154 1178 282 
C 1094 384 1037 474 1011 544 
C 934 742 896 1043 896 1453 
C 896 1632 922 1805 966 1965 
C 1050 2266 1286 2554 1638 2554 
C 1888 2554 2080 2426 2202 2176 
z
" transform="scale(0.015625)"/>
       </defs>
       <use xlink:href="#NewCM10-Book-36"/>
      </g>
     </g>
    </g>
    <g id="xtick_5">
     <g id="line2d_5">
      <g>
       <use xlink:href="#m5a42f744af" x="256.57448" y="164.041913" style="stroke: #000000; stroke-width: 0.8"/>
      </g>
     </g>
     <g id="text_5">
      <!-- 8 -->
      <g transform="translate(253.57448 179.370663) scale(0.12 -0.12)">
       <defs>
        <path id="NewCM10-Book-38" d="M 1600 4262 
C 1286 4262 1011 4160 781 3955 
C 550 3750 435 3494 435 3181 
C 435 2918 531 2682 723 2470 
C 768 2419 909 2310 1146 2144 
C 563 1843 269 1453 269 979 
C 269 640 410 365 685 154 
C 941 -45 1242 -141 1594 -141 
C 1952 -141 2266 -26 2528 205 
C 2790 435 2925 736 2925 1088 
C 2925 1382 2822 1645 2611 1882 
C 2534 1965 2336 2112 2022 2310 
C 2515 2573 2758 2906 2758 3296 
C 2758 3878 2202 4262 1600 4262 
z
M 2426 3296 
C 2426 2963 2227 2675 1830 2438 
L 1069 2938 
C 870 3066 768 3232 768 3430 
C 768 3814 1184 4051 1594 4051 
C 2035 4051 2426 3738 2426 3296 
z
M 1600 90 
C 1075 90 634 467 634 979 
C 634 1408 870 1754 1344 2016 
L 2099 1536 
C 2406 1338 2560 1114 2560 858 
C 2560 397 2080 90 1600 90 
z
" transform="scale(0.015625)"/>
       </defs>
       <use xlink:href="#NewCM10-Book-38"/>
      </g>
     </g>
    </g>
    <g id="text_6">
     <!-- nth eigenvalue -->
     <g transform="translate(129.867605 194.028163) scale(0.12 -0.12)">
      <defs>
       <path id="NewCM10-Book-6e" d="M 2010 2643 
C 2298 2643 2445 2419 2445 1965 
L 2445 506 
C 2445 384 2426 307 2381 282 
C 2336 256 2195 243 1958 243 
L 1958 0 
L 2694 19 
L 3424 0 
L 3424 243 
C 3219 243 3085 250 3021 269 
C 2957 288 2931 333 2931 410 
L 2931 1606 
C 2931 1907 2925 2118 2906 2240 
C 2842 2630 2554 2829 2048 2829 
C 1645 2829 1344 2637 1146 2253 
L 1146 2829 
L 205 2758 
L 205 2515 
C 435 2515 576 2496 627 2458 
C 678 2419 698 2336 698 2189 
L 698 506 
C 698 384 672 307 627 282 
C 582 256 442 243 205 243 
L 205 0 
L 941 19 
L 1670 0 
L 1670 243 
C 1434 243 1299 256 1254 282 
C 1210 307 1184 384 1184 506 
L 1184 1658 
C 1184 2176 1510 2643 2010 2643 
z
" transform="scale(0.015625)"/>
       <path id="NewCM10-Book-74" d="M 2125 806 
L 2125 1190 
L 1920 1190 
L 1920 819 
C 1920 499 1805 141 1523 141 
C 1261 141 1133 358 1133 794 
L 1133 2528 
L 2022 2528 
L 2022 2771 
L 1133 2771 
L 1133 3936 
L 928 3936 
C 922 3725 902 3539 858 3373 
C 749 2950 499 2733 122 2714 
L 122 2528 
L 653 2528 
L 653 806 
C 653 429 768 186 992 64 
C 1165 -26 1325 -70 1485 -70 
C 1907 -70 2125 352 2125 806 
z
" transform="scale(0.015625)"/>
       <path id="NewCM10-Book-68" d="M 2010 2656 
C 2298 2656 2445 2432 2445 1978 
L 2445 506 
C 2445 384 2426 307 2381 282 
C 2336 256 2195 250 1958 250 
L 1958 0 
L 2694 19 
L 3424 0 
L 3424 250 
C 3219 250 3085 256 3021 275 
C 2957 294 2931 339 2931 410 
L 2931 1619 
C 2931 1926 2925 2138 2906 2259 
C 2842 2650 2554 2848 2048 2848 
C 1658 2848 1363 2669 1165 2310 
L 1165 4442 
L 205 4371 
L 205 4128 
C 435 4128 576 4109 627 4070 
C 678 4032 698 3942 698 3795 
L 698 506 
C 698 384 672 307 627 282 
C 582 256 442 250 205 250 
L 205 0 
L 941 19 
L 1670 0 
L 1670 250 
C 1434 250 1299 256 1254 282 
C 1210 307 1184 384 1184 506 
L 1184 1670 
C 1184 2189 1510 2656 2010 2656 
z
" transform="scale(0.015625)"/>
       <path id="NewCM10-Book-20" transform="scale(0.015625)"/>
       <path id="NewCM10-Book-65" d="M 2656 1606 
C 2656 2342 2227 2867 1510 2867 
C 1126 2867 806 2720 544 2419 
C 301 2138 179 1798 179 1408 
C 179 1005 314 659 582 365 
C 851 70 1184 -70 1581 -70 
C 1946 -70 2227 58 2419 307 
C 2579 518 2656 672 2656 774 
C 2656 838 2618 870 2547 870 
C 2496 870 2464 838 2445 768 
C 2304 346 2029 134 1619 134 
C 1331 134 1107 269 934 544 
C 813 742 755 1043 749 1453 
L 2477 1453 
C 2618 1453 2656 1466 2656 1606 
z
M 2086 2234 
C 2157 2022 2189 1818 2189 1632 
L 755 1632 
C 774 2054 883 2342 1075 2490 
C 1235 2618 1376 2682 1510 2682 
C 1798 2682 1990 2534 2086 2234 
z
" transform="scale(0.015625)"/>
       <path id="NewCM10-Book-69" d="M 1242 3846 
C 1242 4038 1082 4205 890 4205 
C 698 4205 531 4038 531 3846 
C 531 3654 691 3482 883 3482 
C 1082 3482 1242 3648 1242 3846 
z
M 915 19 
L 1581 0 
L 1581 250 
C 1370 250 1242 262 1203 288 
C 1165 314 1152 384 1152 499 
L 1152 2848 
L 237 2771 
L 237 2528 
C 448 2528 582 2509 627 2477 
C 672 2445 691 2355 691 2208 
L 691 506 
C 691 384 672 307 627 282 
C 582 256 442 250 211 250 
L 211 0 
L 915 19 
z
" transform="scale(0.015625)"/>
       <path id="NewCM10-Book-67" d="M 2758 2899 
C 2515 2899 2291 2803 2086 2611 
C 1894 2758 1677 2829 1427 2829 
C 877 2829 378 2419 378 1882 
C 378 1613 474 1395 666 1229 
C 544 1075 480 902 480 704 
C 480 461 563 275 723 154 
C 454 64 179 -166 179 -493 
C 179 -768 358 -986 710 -1139 
C 979 -1261 1274 -1318 1594 -1318 
C 1920 -1318 2221 -1261 2490 -1139 
C 2842 -986 3014 -768 3014 -480 
C 3014 -141 2874 109 2592 269 
C 2298 429 1971 448 1498 448 
C 1216 448 1062 448 1030 454 
C 851 480 723 653 723 851 
C 723 947 749 1037 806 1114 
C 986 992 1190 928 1427 928 
C 1978 928 2470 1338 2470 1875 
C 2470 2125 2387 2330 2221 2490 
C 2381 2637 2554 2707 2739 2707 
C 2707 2675 2688 2624 2688 2560 
C 2688 2419 2758 2349 2899 2349 
C 3034 2349 3104 2419 3104 2566 
C 3104 2765 2950 2899 2758 2899 
z
M 1427 2630 
C 1773 2630 1946 2381 1946 1882 
C 1946 1376 1773 1120 1427 1120 
C 1075 1120 902 1370 902 1875 
C 902 2381 1075 2630 1427 2630 
z
M 1050 26 
L 1421 26 
C 1754 26 2022 6 2227 -38 
C 2502 -96 2637 -250 2637 -493 
C 2637 -698 2509 -858 2253 -979 
C 2054 -1075 1837 -1120 1600 -1120 
C 1370 -1120 1152 -1075 947 -979 
C 685 -858 557 -698 557 -493 
C 557 -224 787 26 1050 26 
z
" transform="scale(0.015625)"/>
       <path id="NewCM10-Book-76" d="M 2483 2266 
C 2483 2234 2470 2189 2445 2125 
L 1830 582 
L 1146 2278 
C 1120 2336 1107 2368 1107 2374 
C 1107 2470 1229 2515 1472 2515 
L 1472 2758 
L 755 2739 
C 602 2733 390 2739 122 2758 
L 122 2515 
C 480 2515 538 2528 627 2298 
L 1536 64 
C 1568 -26 1619 -70 1690 -70 
C 1760 -70 1811 -26 1843 64 
L 2669 2106 
C 2694 2176 2720 2234 2752 2285 
C 2842 2438 3008 2515 3251 2515 
L 3251 2758 
C 3040 2739 2874 2733 2752 2739 
L 2182 2758 
L 2182 2515 
C 2368 2509 2483 2432 2483 2266 
z
" transform="scale(0.015625)"/>
       <path id="NewCM10-Book-61" d="M 3091 582 
L 3091 960 
L 2886 960 
L 2886 582 
C 2886 333 2816 205 2682 205 
C 2554 205 2477 365 2477 493 
L 2477 1754 
C 2477 1978 2451 2144 2406 2259 
C 2253 2637 1811 2867 1363 2867 
C 870 2867 384 2592 384 2131 
C 384 1920 493 1811 704 1811 
C 915 1811 1018 1914 1018 2125 
C 1018 2310 922 2419 723 2438 
C 864 2598 1075 2682 1350 2682 
C 1747 2682 1990 2317 1990 1901 
L 1990 1690 
C 1491 1658 1114 1581 851 1459 
C 422 1261 205 986 205 621 
C 205 454 269 314 390 205 
C 595 19 877 -70 1235 -70 
C 1613 -70 1882 90 2048 416 
C 2093 173 2272 -38 2547 -38 
C 2886 -38 3091 230 3091 582 
z
M 1280 115 
C 986 115 742 333 742 627 
C 742 1222 1363 1478 1990 1510 
L 1990 902 
C 1990 474 1709 115 1280 115 
z
" transform="scale(0.015625)"/>
       <path id="NewCM10-Book-6c" d="M 922 19 
L 1632 0 
L 1632 250 
C 1402 250 1261 256 1216 282 
C 1171 307 1152 384 1152 506 
L 1152 4442 
L 211 4371 
L 211 4128 
C 435 4128 576 4109 621 4070 
C 666 4032 691 3942 691 3795 
L 691 506 
C 691 384 666 307 621 282 
C 576 256 442 250 211 250 
L 211 0 
L 922 19 
z
" transform="scale(0.015625)"/>
       <path id="NewCM10-Book-75" d="M 1709 115 
C 1267 115 1184 301 1184 717 
L 1184 2829 
L 205 2758 
L 205 2515 
C 454 2515 602 2490 640 2445 
C 678 2400 698 2240 698 1958 
L 698 1018 
C 698 768 717 576 762 429 
C 858 96 1210 -70 1677 -70 
C 2022 -70 2285 90 2464 416 
L 2464 -70 
L 3424 0 
L 3424 243 
C 3194 243 3059 256 3008 294 
C 2957 333 2931 422 2931 570 
L 2931 2829 
L 1958 2758 
L 1958 2515 
C 2182 2515 2317 2496 2368 2458 
C 2419 2419 2445 2336 2445 2189 
L 2445 1069 
C 2445 563 2176 115 1709 115 
z
" transform="scale(0.015625)"/>
      </defs>
      <use xlink:href="#NewCM10-Book-6e"/>
      <use xlink:href="#NewCM10-Book-74" x="55.599991"/>
      <use xlink:href="#NewCM10-Book-68" x="94.499985"/>
      <use xlink:href="#NewCM10-Book-20" x="150.099976"/>
      <use xlink:href="#NewCM10-Book-65" x="183.399963"/>
      <use xlink:href="#NewCM10-Book-69" x="227.799957"/>
      <use xlink:href="#NewCM10-Book-67" x="255.599945"/>
      <use xlink:href="#NewCM10-Book-65" x="305.59993"/>
      <use xlink:href="#NewCM10-Book-6e" x="349.999924"/>
      <use xlink:href="#NewCM10-Book-76" x="405.599915"/>
      <use xlink:href="#NewCM10-Book-61" x="458.399902"/>
      <use xlink:href="#NewCM10-Book-6c" x="508.399887"/>
      <use xlink:href="#NewCM10-Book-75" x="536.199875"/>
      <use xlink:href="#NewCM10-Book-65" x="591.799866"/>
     </g>
    </g>
   </g>
   <g id="matplotlib.axis_2">
    <g id="ytick_1">
     <g id="line2d_6">
      <defs>
       <path id="m7d945b9864" d="M 0 0 
L -3.5 0 
" style="stroke: #000000; stroke-width: 0.8"/>
      </defs>
      <g>
       <use xlink:href="#m7d945b9864" x="59.67125" y="158.1697" style="stroke: #000000; stroke-width: 0.8"/>
      </g>
     </g>
     <g id="text_7">
      <!-- −1.00 -->
      <g transform="translate(22 162.334075) scale(0.12 -0.12)">
       <defs>
        <path id="NewCM10-Book-2212" d="M 4371 1472 
C 4531 1472 4614 1517 4614 1600 
C 4614 1683 4538 1728 4378 1728 
L 595 1728 
C 435 1728 358 1683 358 1600 
C 358 1517 442 1472 602 1472 
L 4371 1472 
z
" transform="scale(0.015625)"/>
        <path id="NewCM10-Book-31" d="M 1722 4262 
C 1459 3994 1075 3859 570 3859 
L 570 3610 
C 902 3610 1178 3661 1389 3763 
L 1389 525 
C 1389 410 1363 333 1306 301 
C 1248 269 1088 250 832 250 
L 608 250 
L 608 0 
C 768 13 1114 19 1645 19 
C 2176 19 2522 13 2682 0 
L 2682 250 
L 2458 250 
C 2195 250 2035 269 1984 301 
C 1933 333 1901 410 1901 525 
L 1901 4070 
C 1901 4224 1888 4262 1722 4262 
z
" transform="scale(0.015625)"/>
        <path id="NewCM10-Book-2e" d="M 1229 339 
C 1229 525 1075 678 890 678 
C 704 678 550 525 550 339 
C 550 154 704 0 890 0 
C 1075 0 1229 154 1229 339 
z
" transform="scale(0.015625)"/>
       </defs>
       <use xlink:href="#NewCM10-Book-2212"/>
       <use xlink:href="#NewCM10-Book-31" x="77.799988"/>
       <use xlink:href="#NewCM10-Book-2e" x="127.799973"/>
       <use xlink:href="#NewCM10-Book-30" x="155.59996"/>
       <use xlink:href="#NewCM10-Book-30" x="205.599945"/>
      </g>
     </g>
    </g>
    <g id="ytick_2">
     <g id="line2d_7">
      <g>
       <use xlink:href="#m7d945b9864" x="59.67125" y="133.702146" style="stroke: #000000; stroke-width: 0.8"/>
      </g>
     </g>
     <g id="text_8">
      <!-- −0.75 -->
      <g transform="translate(22 137.866521) scale(0.12 -0.12)">
       <defs>
        <path id="NewCM10-Book-37" d="M 3040 3866 
C 3085 3923 3104 4006 3104 4122 
L 1555 4122 
C 1114 4122 864 4147 819 4205 
C 800 4224 781 4269 768 4326 
L 570 4326 
L 352 2970 
L 563 2970 
C 627 3328 678 3520 717 3552 
C 736 3571 934 3584 1312 3584 
L 2566 3584 
L 1888 2624 
C 1370 1888 1114 1094 1114 230 
C 1114 -19 1216 -141 1427 -141 
C 1638 -141 1741 -19 1741 230 
L 1741 557 
C 1741 1530 1894 2234 2195 2662 
L 3040 3866 
z
" transform="scale(0.015625)"/>
        <path id="NewCM10-Book-35" d="M 755 2016 
C 787 2016 826 2042 858 2086 
C 1050 2374 1312 2515 1645 2515 
C 1869 2515 2042 2387 2157 2125 
C 2227 1952 2266 1690 2266 1338 
C 2266 934 2214 653 2118 486 
C 1958 224 1741 90 1466 90 
C 1037 90 698 397 582 730 
C 602 723 614 730 640 730 
C 832 730 992 877 992 1069 
C 992 1267 832 1402 640 1402 
C 416 1402 320 1280 320 1043 
C 320 403 838 -141 1478 -141 
C 1869 -141 2202 0 2470 282 
C 2739 563 2874 902 2874 1293 
C 2874 1664 2765 1984 2547 2259 
C 2310 2560 2016 2707 1658 2707 
C 1357 2707 1094 2611 883 2419 
L 883 3558 
C 1056 3507 1222 3482 1395 3482 
C 1690 3482 1946 3552 2163 3699 
C 2362 3821 2496 3942 2573 4058 
C 2611 4109 2630 4147 2630 4166 
C 2630 4230 2598 4262 2534 4262 
C 2182 4128 1882 4058 1638 4058 
C 1350 4058 1075 4115 813 4237 
C 781 4250 755 4256 730 4256 
C 672 4256 640 4198 640 4077 
L 640 2208 
C 640 2074 640 2016 755 2016 
z
" transform="scale(0.015625)"/>
       </defs>
       <use xlink:href="#NewCM10-Book-2212"/>
       <use xlink:href="#NewCM10-Book-30" x="77.799988"/>
       <use xlink:href="#NewCM10-Book-2e" x="127.799973"/>
       <use xlink:href="#NewCM10-Book-37" x="155.59996"/>
       <use xlink:href="#NewCM10-Book-35" x="205.599945"/>
      </g>
     </g>
    </g>
    <g id="ytick_3">
     <g id="line2d_8">
      <g>
       <use xlink:href="#m7d945b9864" x="59.67125" y="109.234592" style="stroke: #000000; stroke-width: 0.8"/>
      </g>
     </g>
     <g id="text_9">
      <!-- −0.50 -->
      <g transform="translate(22 113.398967) scale(0.12 -0.12)">
       <use xlink:href="#NewCM10-Book-2212"/>
       <use xlink:href="#NewCM10-Book-30" x="77.799988"/>
       <use xlink:href="#NewCM10-Book-2e" x="127.799973"/>
       <use xlink:href="#NewCM10-Book-35" x="155.59996"/>
       <use xlink:href="#NewCM10-Book-30" x="205.599945"/>
      </g>
     </g>
    </g>
    <g id="ytick_4">
     <g id="line2d_9">
      <g>
       <use xlink:href="#m7d945b9864" x="59.67125" y="84.767038" style="stroke: #000000; stroke-width: 0.8"/>
      </g>
     </g>
     <g id="text_10">
      <!-- −0.25 -->
      <g transform="translate(22 88.931413) scale(0.12 -0.12)">
       <use xlink:href="#NewCM10-Book-2212"/>
       <use xlink:href="#NewCM10-Book-30" x="77.799988"/>
       <use xlink:href="#NewCM10-Book-2e" x="127.799973"/>
       <use xlink:href="#NewCM10-Book-32" x="155.59996"/>
       <use xlink:href="#NewCM10-Book-35" x="205.599945"/>
      </g>
     </g>
    </g>
    <g id="ytick_5">
     <g id="line2d_10">
      <g>
       <use xlink:href="#m7d945b9864" x="59.67125" y="60.299483" style="stroke: #000000; stroke-width: 0.8"/>
      </g>
     </g>
     <g id="text_11">
      <!-- 0.00 -->
      <g transform="translate(31.335625 64.463858) scale(0.12 -0.12)">
       <use xlink:href="#NewCM10-Book-30"/>
       <use xlink:href="#NewCM10-Book-2e" x="49.999985"/>
       <use xlink:href="#NewCM10-Book-30" x="77.799973"/>
       <use xlink:href="#NewCM10-Book-30" x="127.799957"/>
      </g>
     </g>
    </g>
    <g id="ytick_6">
     <g id="line2d_11">
      <g>
       <use xlink:href="#m7d945b9864" x="59.67125" y="35.831929" style="stroke: #000000; stroke-width: 0.8"/>
      </g>
     </g>
     <g id="text_12">
      <!-- 0.25 -->
      <g transform="translate(31.335625 39.996304) scale(0.12 -0.12)">
       <use xlink:href="#NewCM10-Book-30"/>
       <use xlink:href="#NewCM10-Book-2e" x="49.999985"/>
       <use xlink:href="#NewCM10-Book-32" x="77.799973"/>
       <use xlink:href="#NewCM10-Book-35" x="127.799957"/>
      </g>
     </g>
    </g>
    <g id="ytick_7">
     <g id="line2d_12">
      <g>
       <use xlink:href="#m7d945b9864" x="59.67125" y="11.364375" style="stroke: #000000; stroke-width: 0.8"/>
      </g>
     </g>
     <g id="text_13">
      <!-- 0.50 -->
      <g transform="translate(31.335625 15.52875) scale(0.12 -0.12)">
       <use xlink:href="#NewCM10-Book-30"/>
       <use xlink:href="#NewCM10-Book-2e" x="49.999985"/>
       <use xlink:href="#NewCM10-Book-35" x="77.799973"/>
       <use xlink:href="#NewCM10-Book-30" x="127.799957"/>
      </g>
     </g>
    </g>
    <g id="text_14">
     <!-- Eigenvalues -->
     <g transform="translate(15.52875 115.720475) rotate(-90) scale(0.12 -0.12)">
      <defs>
       <path id="NewCM10-Book-45" d="M 1472 474 
L 1472 2138 
L 2016 2138 
C 2304 2138 2483 2086 2560 1990 
C 2637 1894 2675 1696 2675 1395 
L 2886 1395 
L 2886 3123 
L 2675 3123 
C 2675 2822 2637 2630 2560 2534 
C 2483 2438 2304 2387 2016 2387 
L 1472 2387 
L 1472 3878 
C 1472 4109 1510 4102 1760 4102 
L 2573 4102 
C 3034 4102 3341 4013 3501 3827 
C 3706 3578 3731 3347 3789 2880 
L 4000 2880 
L 3814 4352 
L 211 4352 
L 211 4102 
L 390 4102 
C 614 4102 749 4090 794 4058 
C 838 4026 864 3949 864 3834 
L 864 518 
C 864 403 838 326 794 294 
C 749 262 614 250 390 250 
L 211 250 
L 211 0 
L 3904 0 
L 4179 1683 
L 3968 1683 
C 3910 1331 3853 1062 3782 870 
C 3712 678 3584 525 3392 403 
C 3232 301 2970 250 2598 250 
L 1760 250 
C 1510 250 1472 243 1472 474 
z
" transform="scale(0.015625)"/>
       <path id="NewCM10-Book-73" d="M 2304 832 
C 2304 1318 1971 1626 1312 1754 
C 1011 1811 813 1882 710 1952 
C 608 2022 563 2125 563 2246 
C 563 2547 787 2694 1235 2694 
C 1670 2694 1907 2451 1939 1958 
C 1946 1907 1978 1882 2042 1882 
C 2112 1882 2150 1939 2150 2054 
L 2150 2688 
C 2150 2810 2118 2867 2054 2867 
C 1984 2867 1888 2752 1824 2701 
C 1664 2810 1466 2867 1235 2867 
C 666 2867 211 2611 211 2067 
C 211 1850 301 1664 486 1517 
C 710 1331 922 1293 1325 1222 
C 1741 1139 1952 954 1952 666 
C 1952 301 1728 115 1274 115 
C 832 115 550 410 429 992 
C 410 1075 378 1120 320 1120 
C 250 1120 211 1056 211 934 
L 211 109 
C 211 -13 243 -70 307 -70 
C 326 -70 352 -51 403 -6 
C 518 96 474 77 589 192 
C 774 19 1005 -70 1274 -70 
C 1882 -70 2304 243 2304 832 
z
" transform="scale(0.015625)"/>
      </defs>
      <use xlink:href="#NewCM10-Book-45"/>
      <use xlink:href="#NewCM10-Book-69" x="68.099991"/>
      <use xlink:href="#NewCM10-Book-67" x="95.899979"/>
      <use xlink:href="#NewCM10-Book-65" x="145.899963"/>
      <use xlink:href="#NewCM10-Book-6e" x="190.299957"/>
      <use xlink:href="#NewCM10-Book-76" x="245.899948"/>
      <use xlink:href="#NewCM10-Book-61" x="298.699936"/>
      <use xlink:href="#NewCM10-Book-6c" x="348.699921"/>
      <use xlink:href="#NewCM10-Book-75" x="376.499908"/>
      <use xlink:href="#NewCM10-Book-65" x="432.099899"/>
      <use xlink:href="#NewCM10-Book-73" x="476.499893"/>
     </g>
    </g>
   </g>
   <g id="line2d_13">
    <path d="M 67.69848 60.299483 
L 268.37923 60.299483 
" clip-path="url(#p1be90df9f2)" style="fill: none; stroke-dasharray: 3.7,1.6; stroke-dashoffset: 0; stroke: #808080"/>
   </g>
   <g id="line2d_14">
    <path d="M 67.69848 39.119861 
L 91.30798 51.64179 
L 114.91748 158.1697 
L 138.52698 158.1697 
L 162.13648 158.1697 
L 185.74598 158.1697 
L 209.35548 158.1697 
L 232.96498 158.1697 
" style="fill: none; stroke: #000000; stroke-linecap: square"/>
    <defs>
     <path id="m02534eee67" d="M 0 3 
C 0.795609 3 1.55874 2.683901 2.12132 2.12132 
C 2.683901 1.55874 3 0.795609 3 0 
C 3 -0.795609 2.683901 -1.55874 2.12132 -2.12132 
C 1.55874 -2.683901 0.795609 -3 0 -3 
C -0.795609 -3 -1.55874 -2.683901 -2.12132 -2.12132 
C -2.683901 -1.55874 -3 -0.795609 -3 0 
C -3 0.795609 -2.683901 1.55874 -2.12132 2.12132 
C -1.55874 2.683901 -0.795609 3 0 3 
z
" style="stroke: #000000"/>
    </defs>
    <g>
     <use xlink:href="#m02534eee67" x="67.69848" y="39.119861" style="stroke: #000000"/>
     <use xlink:href="#m02534eee67" x="91.30798" y="51.64179" style="stroke: #000000"/>
     <use xlink:href="#m02534eee67" x="114.91748" y="158.1697" style="stroke: #000000"/>
     <use xlink:href="#m02534eee67" x="138.52698" y="158.1697" style="stroke: #000000"/>
     <use xlink:href="#m02534eee67" x="162.13648" y="158.1697" style="stroke: #000000"/>
     <use xlink:href="#m02534eee67" x="185.74598" y="158.1697" style="stroke: #000000"/>
     <use xlink:href="#m02534eee67" x="209.35548" y="158.1697" style="stroke: #000000"/>
     <use xlink:href="#m02534eee67" x="232.96498" y="158.1697" style="stroke: #000000"/>
    </g>
   </g>
   <g id="line2d_15">
    <path d="M 232.96498 158.1697 
L 256.57448 158.1697 
L 268.37923 158.1697 
" style="fill: none; stroke-dasharray: 3.7,1.6; stroke-dashoffset: 0; stroke: #000000"/>
   </g>
   <g id="line2d_16">
    <path d="M 67.69848 41.644441 
L 91.30798 41.644441 
" style="fill: none; stroke: #ff0000; stroke-linecap: square"/>
    <defs>
     <path id="mac8328dac1" d="M 0 3 
C 0.795609 3 1.55874 2.683901 2.12132 2.12132 
C 2.683901 1.55874 3 0.795609 3 0 
C 3 -0.795609 2.683901 -1.55874 2.12132 -2.12132 
C 1.55874 -2.683901 0.795609 -3 0 -3 
C -0.795609 -3 -1.55874 -2.683901 -2.12132 -2.12132 
C -2.683901 -1.55874 -3 -0.795609 -3 0 
C -3 0.795609 -2.683901 1.55874 -2.12132 2.12132 
C -1.55874 2.683901 -0.795609 3 0 3 
z
" style="stroke: #ff0000"/>
    </defs>
    <g>
     <use xlink:href="#mac8328dac1" x="67.69848" y="41.644441" style="fill: #ff0000; stroke: #ff0000"/>
     <use xlink:href="#mac8328dac1" x="91.30798" y="41.644441" style="fill: #ff0000; stroke: #ff0000"/>
    </g>
   </g>
   <g id="patch_3">
    <path d="M 59.67125 158.1697 
L 59.67125 11.364375 
" style="fill: none; stroke: #000000; stroke-width: 0.5; stroke-linejoin: miter; stroke-linecap: square"/>
   </g>
   <g id="patch_4">
    <path d="M 67.69848 164.041913 
L 268.37923 164.041913 
" style="fill: none; stroke: #000000; stroke-width: 0.5; stroke-linejoin: miter; stroke-linecap: square"/>
   </g>
  </g>
 </g>
 <defs>
  <clipPath id="p1be90df9f2">
   <rect x="67.69848" y="11.364375" width="200.68075" height="146.805325"/>
  </clipPath>
 </defs>
</svg>
