<?xml version="1.0" encoding="UTF-8" standalone="no"?>
<!-- Created with Inkscape (http://www.inkscape.org/) -->

<svg
   width="452.74103"
   height="96.959251"
   viewBox="0 0 119.78773 25.653802"
   version="1.1"
   id="svg5"
   xml:space="preserve"
   xmlns="http://www.w3.org/2000/svg"
   xmlns:svg="http://www.w3.org/2000/svg"><defs
     id="defs2"><rect
       x="398.15744"
       y="256.2482"
       width="254.22476"
       height="85.826263"
       id="rect3261-9" /></defs><g
     id="layer3"
     style="display:inline"
     transform="translate(-37.606597,-134.25488)"><path
       style="fill:#813d9c;fill-opacity:1;stroke:none;stroke-width:0.264999"
       id="path13042"
       d="m 37.71232,135.61416 c 0.20099,0.28814 0.363926,0.60697 0.602975,0.86442 1.73624,1.8699 4.23844,2.58624 6.67603,2.97623 0.68629,0.1098 1.38123,0.15619 2.07184,0.23428 3.86567,0.20655 7.71504,-0.30601 11.56247,-0.59477 4.30226,-0.29383 8.61079,-0.48755 12.92145,-0.59854 3.99297,-0.0745 7.99055,-0.11015 11.9808,0.0773 2.79329,0.18805 5.54428,0.95407 7.94086,2.42573 0.39909,0.24507 0.76875,0.53512 1.15313,0.80269 0.62026,0.51721 1.26377,1.03379 1.75136,1.68612 0.0318,0.0425 0.10016,0.18712 0.0743,0.14078 -0.37295,-0.66884 -0.13586,-0.21519 0.81487,-1.43383 0.54503,-1.26585 0.75703,0.78644 0.96319,0.56029 0.0571,-0.0626 0.0776,-0.15108 0.12535,-0.22099 0.23301,-0.34079 0.26892,-0.33632 0.59542,-0.63841 1.08227,-0.87671 2.32422,-1.49428 3.701895,-1.73945 0.34209,-0.0609 0.69021,-0.0808 1.03532,-0.12121 3.2819,-0.11448 6.5394,0.40118 9.79247,0.75198 4.40113,0.48221 8.82306,0.75102 13.2472,0.8947 5.58606,0.0415 11.16889,-0.20439 16.73153,-0.70407 3.03887,-0.38403 6.08511,-0.90893 8.97719,-1.94976 1.43908,-0.51792 2.24682,-0.93789 3.60913,-1.58234 2.47713,-1.38307 0.59682,-0.0533 2.41425,-2.20061 0.26791,-0.31654 0.61452,-0.557 0.92178,-0.8355 0.0371,-0.0206 0.008,-0.073 -0.0291,-0.0525 v 0 c -0.39843,0.11285 -0.7851,0.28173 -1.19528,0.33856 -2.79336,0.38703 -0.60371,-0.4865 -3.05508,0.7693 -1.4865,0.71326 -1.75065,0.88407 -3.34176,1.45896 -2.74434,0.99158 -5.62481,1.53118 -8.50625,1.94022 -0.81803,0.0855 -1.63435,0.18929 -2.4541,0.25638 -2.88188,0.23584 -5.77932,0.30174 -8.66816,0.39251 -0.97447,0.0306 -1.94859,0.0762 -2.92342,0.0919 -0.80431,0.0129 -1.60882,-0.004 -2.41324,-0.006 -4.36604,-0.14113 -8.73229,-0.38583 -13.07702,-0.84824 -2.61119,-0.32782 -1.40189,-0.19299 -4.03543,-0.45505 -2.07966,-0.20695 -4.16893,-0.44031 -6.26231,-0.31837 -0.42574,0.0598 -0.85564,0.0952 -1.27724,0.1795 -1.722795,0.3443 -3.314045,1.13589 -4.639845,2.28287 -0.20224,0.20935 -0.42368,0.40172 -0.60673,0.62803 -0.41629,0.5147 -0.80731,1.26517 -0.75323,1.95178 0.0181,0.23058 0.0406,0.49488 0.19698,0.66535 0.24105,0.26285 0.61179,0.36676 0.91768,0.55014 0.35239,-0.40105 0.8058,-0.73216 1.05719,-1.20314 0.0774,-0.14506 -0.0943,-0.31673 -0.16733,-0.46404 -0.14196,-0.28624 -0.48381,-0.66333 -0.68371,-0.87363 -0.74747,-0.78637 -0.78959,-0.77005 -1.70713,-1.53183 -0.4471,-0.30588 -0.87655,-0.6393 -1.3413,-0.91764 -2.67032,-1.59924 -5.70208,-2.44363 -8.79625,-2.64193 -4.03907,-0.16803 -8.08131,-0.18989 -12.12251,-0.0696 -4.34367,0.12935 -8.69068,0.23999 -13.02233,0.61129 -3.57025,0.30087 -0.27528,0.0274 -3.81672,0.3091 -1.823,0.14499 -3.65646,0.32448 -5.48659,0.3475 -0.63392,0.008 -1.26773,-0.0236 -1.9016,-0.0354 -0.6286,-0.0605 -1.26152,-0.0863 -1.8858,-0.18159 -1.63068,-0.24885 -3.36956,-0.66899 -4.769652,-1.58469 -0.563481,-0.36854 -0.803918,-0.6836 -1.218076,-1.14876 -0.540247,-1.18758 -2.219737,-0.42355 -1.679487,0.76403 z" /><path
       style="fill:#813d9c;fill-opacity:1;stroke:none;stroke-width:0.264999"
       id="path13044"
       d="m 89.492449,152.49224 c 0.25568,-0.0637 0.50971,-0.16643 0.77777,-0.16506 0.0626,2.6e-4 0.13785,-0.004 0.18401,0.0382 0.0237,0.0218 -0.0275,0.0778 -0.0596,0.0759 -0.13988,-0.008 -0.27166,-0.0688 -0.40749,-0.10316 -0.0525,0.0436 -0.12707,0.0696 -0.15753,0.13071 -0.10267,0.2058 -0.15457,0.43324 -0.23186,0.64986 -0.15809,0.33381 -0.3082,0.67152 -0.47426,1.00145 -0.3113,0.61845 -0.67772,1.20824 -0.98606,1.82817 -0.10987,0.22089 -0.19758,0.45213 -0.29637,0.67819 0.0189,0.38655 -0.17731,0.85147 0.0568,1.15965 0.81575,1.07392 1.58864,0.97193 2.65299,0.83547 0.54196,-0.0695 1.8014,-0.34452 2.30032,-0.54071 0.3453,-0.13578 0.6559,-0.3471 0.98385,-0.52065 0.69104,-1.11066 0.37461,-0.6224 0.93853,-1.47172 0.038,-0.0189 0.0112,-0.0726 -0.0267,-0.0537 v 0 c -0.92516,-0.10398 -0.41065,7.9e-4 -1.52343,-0.40078 -0.32897,0.035 -0.66109,0.0477 -0.9869,0.10513 -0.343,0.0604 -0.67488,0.17299 -1.01511,0.24746 -0.30254,0.0662 -0.60787,0.11912 -0.91259,0.17448 -0.17819,0.0324 -0.52481,-0.0921 -0.53606,0.0887 -0.0186,0.29965 0.32219,0.5067 0.48327,0.76005 -0.0452,0.1916 -0.0905,0.38321 -0.13575,0.57482 0.31036,-0.78799 0.0409,-0.16581 0.65886,-1.27353 0.42844,-0.76802 0.94632,-1.69427 1.22819,-2.52515 0.15042,-0.4434 0.30214,-0.89861 0.32646,-1.3662 0.0233,-0.44749 -0.12412,-0.88756 -0.18618,-1.33134 -0.30662,-0.32965 -0.54542,-0.739 -0.91987,-0.98896 -0.25443,-0.16983 -0.58613,-0.19461 -0.89099,-0.21982 -0.68182,-0.0564 -1.42702,0.26591 -1.96186,0.66338 -0.13009,0.0967 -0.23848,0.21959 -0.35772,0.32938 -1.14537,1.04324 0.32999,2.66304 1.47536,1.61981 z" /><path
       style="fill:#813d9c;fill-opacity:1;stroke:none;stroke-width:0.264999"
       id="path13046"
       d="m 92.938559,149.11905 c 0.0934,0.67927 0.29464,1.33555 0.50169,1.98679 0.0509,0.16015 0.10089,0.32066 0.15692,0.4791 0.0295,0.0835 0.0112,0.24105 0.0996,0.24629 0.69474,0.0412 1.38975,-0.0779 2.08462,-0.11681 0.0746,-0.63682 0.1196,-1.32317 0.55574,-1.83691 0.23816,-0.28054 0.20681,-0.23444 0.28429,-0.0457 0.0341,0.14582 -0.24828,0.15994 -0.24711,0.2859 7.9e-4,0.0979 0.0837,0.17724 0.12073,0.26791 0.0637,0.15583 0.12483,0.31279 0.1815,0.47132 0.34382,0.9619 0.0622,0.4102 0.60286,1.27241 1.11504,0.27101 0.90212,-0.0816 1.1187,0.52477 0.01,0.0413 0.0682,0.0274 0.0584,-0.0139 v 0 c -0.0807,-0.64798 -0.10717,-0.22486 0.72871,-1.04238 -0.005,-0.26836 0.0308,-0.54086 -0.0165,-0.80509 -0.0564,-0.31541 -0.1729,-0.6183 -0.29121,-0.91607 -0.3913,-0.98479 -0.98745,-1.98133 -2.11988,-2.23873 -0.34485,-0.0784 -0.70631,0.0373 -1.05946,0.0559 -0.27213,0.17018 -0.57479,0.29925 -0.8164,0.51054 -0.36709,0.32102 -0.66471,0.91611 -0.83759,1.35693 -0.17177,0.43799 -0.35228,1.01391 -0.32736,1.49774 0.67646,0.0191 1.35368,0.0946 2.02938,0.0573 0.0575,-0.003 -0.0293,-0.11141 -0.0445,-0.16696 -0.0442,-0.16121 -0.088,-0.32255 -0.13372,-0.48334 -0.15942,-0.56034 -0.23027,-0.81783 -0.43407,-1.37462 -0.0707,-0.19314 -0.15254,-0.38202 -0.22881,-0.57302 -0.42468,-1.39051 -2.39115,-0.78992 -1.96647,0.60058 z" /><text
       xml:space="preserve"
       transform="matrix(0.26458333,0,0,0.26458333,-14.483572,80.522942)"
       id="text3259-1"
       style="font-weight:500;font-size:18.6667px;font-family:'Fira Code';-inkscape-font-specification:'Fira Code Medium';text-align:center;white-space:pre;shape-inside:url(#rect3261-9);display:inline;fill:#813d9c;fill-opacity:1;stroke-width:4"><tspan
         x="444.86005"
         y="272.58141"
         id="tspan2639">segments after
</tspan><tspan
         x="439.11644"
         y="295.91478"
         id="tspan2641">coarse-graining</tspan></text></g></svg>
