<?xml version="1.0" encoding="UTF-8" standalone="no"?>
<!-- Created with Inkscape (http://www.inkscape.org/) -->

<svg
   width="396.86926"
   height="134.81076"
   viewBox="0 0 105.00499 35.66868"
   version="1.1"
   id="svg5"
   xml:space="preserve"
   xmlns="http://www.w3.org/2000/svg"
   xmlns:svg="http://www.w3.org/2000/svg"><defs
     id="defs2" /><g
     id="layer2"
     style="display:inline"
     transform="translate(-42.650476,-94.01092)"><path
       style="fill:#5e5c64;fill-opacity:1;stroke:none;stroke-width:0.264999"
       id="path7901"
       d="m 70.443317,95.226356 c -0.138084,2.234435 -0.03825,4.495646 0.244033,6.716494 0.07897,0.62135 0.05951,1.27883 0.308557,1.85353 0.21204,0.48929 0.684297,0.81804 1.026448,1.22707 0.151331,0.24137 0.302665,0.48275 0.453996,0.72413 0.01021,0.0412 0.06845,0.0267 0.05824,-0.0144 v 0 c 0.02519,-0.26726 0.0504,-0.53453 0.07559,-0.8018 0.205475,-0.46321 0.537181,-0.88913 0.616426,-1.38964 0.09454,-0.59714 -0.06674,-1.20737 -0.109765,-1.81041 -0.153152,-2.146853 -0.344961,-4.290534 -0.326451,-6.445647 0.04192,-1.659633 -2.305156,-1.718916 -2.347076,-0.05928 z" /><path
       style="fill:#5e5c64;fill-opacity:1;stroke:none;stroke-width:0.264999"
       id="path7905"
       d="m 94.165318,95.189836 c -0.05633,2.094246 0.0563,4.220367 0.430255,6.285494 0.108987,0.60187 0.121301,1.25099 0.415306,1.78735 0.269365,0.49141 0.804199,0.78065 1.206299,1.17099 0.164883,0.2447 0.329769,0.4894 0.494652,0.7341 0.0159,0.0393 0.07152,0.0169 0.05563,-0.0225 v 0 c -0.04432,-0.27291 -0.08864,-0.54581 -0.132953,-0.81872 0.178842,-0.47963 0.480914,-0.93004 0.536524,-1.4389 0.06238,-0.57085 -0.126613,-1.1415 -0.192193,-1.71199 -0.21966,-1.910793 -0.431244,-3.821608 -0.445394,-5.747833 0.168296,-1.674513 -2.199825,-1.912522 -2.368122,-0.238006 z" /><path
       style="fill:#5e5c64;fill-opacity:1;stroke:none;stroke-width:0.264999"
       id="path7911"
       d="m 121.16629,95.346717 c -0.20214,1.627021 -0.31124,3.273578 -0.27242,4.913993 0.0339,1.43208 0.0902,2.90493 0.57418,4.27625 0.17919,0.50769 0.5132,0.9466 0.7698,1.4199 0.15506,0.26054 0.31011,0.52107 0.46517,0.78161 0.0101,0.0412 0.0684,0.0269 0.0583,-0.0143 v 0 c 0.0222,-0.28127 0.0444,-0.56255 0.0666,-0.84383 0.13099,-0.49541 0.31784,-0.97934 0.39297,-1.48623 0.21297,-1.43689 0.0802,-2.6523 0.0733,-4.09905 -0.007,-1.532006 0.0598,-3.06339 0.19673,-4.589134 0.25401,-1.643761 -2.07062,-2.00298 -2.32462,-0.359219 z" /><path
       style="fill:#a51d2d;fill-opacity:1;stroke:none;stroke-width:0.264999"
       id="path10052"
       d="m 42.691941,111.0046 c -0.17386,1.3927 0.188323,2.49421 1.289198,3.4265 0.246571,0.20881 0.536009,0.36095 0.804011,0.54143 0.687776,0.2792 1.013333,0.48733 1.777471,0.49286 1.116279,0.008 2.105101,-0.47768 3.092854,-0.92609 0.399101,-0.18118 0.797481,-0.36394 1.196219,-0.54591 0.935484,-0.40256 1.382143,-0.63624 2.350616,-0.90004 0.43715,-0.11908 1.065644,-0.26908 1.544698,-0.15409 0.236131,0.0567 0.370438,0.28154 0.505953,0.45105 0.289078,0.38484 0.515045,0.81179 0.724556,1.24365 0.06048,0.12465 0.114191,0.25248 0.173045,0.37791 0.0421,0.0897 0.07028,0.18825 0.129805,0.26749 0.145798,0.19408 0.321016,0.36422 0.481526,0.54633 0.482457,0.0222 0.973047,0.1575 1.447368,0.0665 0.210405,-0.0404 1.120905,-0.87378 1.26827,-0.99938 0.363294,-0.30965 0.934027,-0.8014 1.349719,-1.04958 0.220977,-0.13193 0.464698,-0.22137 0.697047,-0.33205 0.899906,-0.20762 1.809663,-0.12781 2.715482,-0.0138 0.395616,0.0498 0.78539,0.15071 1.183416,0.17457 1.35591,0.0813 2.153097,-0.045 3.516087,-0.16793 1.339541,-0.26138 2.700211,-0.61092 3.788103,-1.48285 0.188299,-0.15093 0.483582,-0.28371 0.498975,-0.52453 0.01963,-0.30698 -0.284604,-0.54573 -0.412692,-0.8254 -0.02516,-0.0549 -0.03046,-0.11695 -0.04568,-0.17542 -0.0123,-0.0406 -0.06972,-0.0232 -0.05742,0.0174 v 0 c 0.147754,0.41163 -0.0073,-0.12238 -0.601456,-0.15007 -0.122336,-0.006 -0.176318,0.17179 -0.277487,0.24081 -0.907619,0.61923 -1.944413,0.96054 -3.018544,1.16211 -0.517935,0.0269 -1.036143,0.11221 -1.553811,0.0806 -0.683884,-0.0418 -2.021639,-0.42221 -2.711296,-0.55991 -1.540579,-0.30761 -2.579574,-0.39657 -4.112361,0.0783 -0.341085,0.18021 -0.695565,0.33709 -1.023252,0.54065 -0.502047,0.31188 -1.061082,0.80679 -1.508339,1.19549 -0.176623,0.1535 -0.357807,0.3023 -0.525272,0.46574 -0.03701,0.0361 -0.132178,0.10879 -0.08494,0.12982 0.306666,0.13654 0.647724,0.17663 0.971585,0.26494 0.06566,0.10561 0.07538,0.29085 0.196993,0.31682 0.10768,0.023 -0.08513,-0.20316 -0.131787,-0.30289 -0.276431,-0.59083 -0.576138,-1.2028 -0.970454,-1.72473 -0.195205,-0.25839 -0.423622,-0.48991 -0.635432,-0.73487 -0.844616,-0.5745 -0.970285,-0.81138 -2.039368,-0.91505 -0.362694,-0.0352 -0.731385,0.0139 -1.090607,0.0751 -1.287915,0.2194 -2.466798,0.84227 -3.660818,1.33258 -0.668657,0.31329 -1.327036,0.64926 -2.004517,0.94299 -0.205238,0.089 -0.8029,0.3312 -1.085253,0.35709 -0.360013,0.033 -0.549338,-0.0739 -0.887317,-0.18766 -0.145973,-0.0815 -0.300148,-0.14983 -0.437917,-0.24455 -0.281421,-0.19348 -0.615288,-0.51229 -0.704752,-0.86052 -0.05132,-0.19976 -0.02326,-0.46072 -0.01252,-0.66352 0.246044,-1.49179 -1.863669,-1.83975 -2.109713,-0.34796 z" /><path
       style="fill:#a51d2d;fill-opacity:1;stroke:none;stroke-width:0.264999"
       id="path12280"
       d="m 73.423083,110.5155 c -0.01757,0.14099 -0.05362,0.28089 -0.05267,0.42296 0.0048,0.72317 0.327459,1.54113 0.876879,2.0281 0.178388,0.15812 0.393999,0.26843 0.590998,0.40264 0.25786,0.0695 0.508695,0.17444 0.77358,0.20841 0.45475,0.0583 0.985753,-0.0404 1.426343,-0.1411 0.655984,-0.14997 1.295373,-0.37974 1.929622,-0.6004 0.584546,-0.21178 1.172239,-0.41145 1.776759,-0.55837 0.32241,-0.0784 0.585845,-0.14245 0.915982,-0.15447 0.111067,-0.004 0.221946,0.0122 0.332917,0.0184 0.08985,0.0285 0.185333,0.0432 0.269537,0.0855 0.100771,0.0507 0.369284,0.32926 0.413459,0.37781 0.237172,0.26065 0.41825,0.53431 0.581776,0.84416 0.487606,0.7652 0.557221,0.98388 2.070113,0.61236 0.241258,-0.0593 0.503555,-0.81999 0.646179,-1.07725 0.06087,-0.1098 0.138546,-0.20939 0.20782,-0.31409 0.08549,-0.0892 0.159234,-0.19142 0.256484,-0.26766 0.501584,-0.3932 1.045411,-0.34938 1.639956,-0.29233 0.327335,0.0314 0.653939,0.07 0.980909,0.10506 1.531228,0.23229 3.083578,0.63338 4.637061,0.3292 0.895738,-0.17539 1.054838,-0.32602 1.820296,-0.73074 0.08288,-0.29773 0.165761,-0.59545 0.248642,-0.89317 0.03892,-0.0169 0.01503,-0.0719 -0.02389,-0.055 v 0 c -0.277916,-0.14114 -0.555834,-0.28227 -0.833752,-0.4234 -0.490781,0.16325 -0.806051,0.29482 -1.333252,0.35235 -1.374589,0.15 -2.791997,-0.32106 -4.103507,-0.65801 -0.848913,-0.23201 -1.462228,-0.47116 -2.356797,-0.43808 -0.912786,0.0338 -1.790825,0.50939 -2.443446,1.11931 -0.18918,0.1768 -0.33955,0.39103 -0.509325,0.58654 -0.114623,0.18883 -0.237226,0.37303 -0.343874,0.56647 -0.07243,0.13137 -0.221065,0.25942 -0.192662,0.40672 0.01887,0.0979 0.136105,-0.18962 0.235601,-0.18404 0.536805,0.0301 1.063263,0.16621 1.587339,0.28624 0.03052,0.007 0.04955,0.115 0.03782,0.086 -0.04213,-0.10427 -0.08602,-0.20781 -0.129032,-0.31172 -0.211523,-0.35603 -0.357415,-0.62678 -0.625734,-0.9568 -0.527862,-0.64926 -1.193519,-1.20414 -2.000541,-1.46927 -0.22507,-0.0739 -0.468707,-0.0694 -0.703059,-0.10402 -0.225319,0.001 -0.451204,-0.0119 -0.675957,0.004 -0.204997,0.0146 -0.407784,0.0526 -0.610293,0.0876 -0.88374,0.15287 -1.730711,0.44559 -2.566236,0.76559 -0.53035,0.18863 -1.055823,0.36786 -1.603357,0.50062 -0.123539,0.03 -0.248658,0.0531 -0.372433,0.082 -0.05751,0.0135 -0.123341,0.0108 -0.171331,0.0452 -0.01998,0.0143 0.0039,0.049 0.0058,0.0735 -0.0036,0.0193 0.0081,0.0526 -0.01085,0.0578 -0.09698,0.0267 -0.14705,-0.18482 -0.203838,-0.23075 -0.0092,-0.007 -0.02656,0.0107 -0.0354,0.003 -0.01347,-0.012 -0.01236,-0.0339 -0.01852,-0.0508 0.386107,-1.65615 -1.956038,-2.20219 -2.342144,-0.54604 z" /><path
       style="fill:#a51d2d;fill-opacity:1;stroke:none;stroke-width:0.264999"
       id="path12292"
       d="m 80.180729,121.49313 c 0.466678,-0.28067 -0.279625,0.15618 0.485701,-0.22527 0.125537,-0.0626 0.230442,-0.16623 0.362326,-0.21399 0.120975,-0.0438 0.378529,-0.0669 0.485296,0.0619 0.02682,0.0323 -7.94e-4,0.084 -0.0011,0.12604 -0.03508,0.0967 -0.15475,0.13401 -0.196517,0.22418 -0.04674,0.10091 -0.06223,0.21353 -0.09334,0.3203 -0.06748,0.17195 -0.119478,0.35082 -0.20243,0.51587 -0.275113,0.5474 -0.477467,0.76861 -0.847979,1.26137 -0.160432,0.16606 -0.314944,0.33806 -0.481298,0.49819 -0.839388,0.80797 -1.581192,0.7639 0.516776,2.44808 0.981985,-0.1662 1.980232,-0.22432 2.974295,-0.26406 0.255284,-0.0102 0.511739,0.001 0.766144,-0.0221 0.194968,-0.018 0.385635,-0.0681 0.578456,-0.10209 0.562639,-0.55363 0.315684,-0.2513 0.742883,-0.90534 0.0417,0.008 0.05272,-0.0512 0.01101,-0.059 v 0 c -0.29051,-0.80265 -0.07262,-0.43308 -0.674521,-1.09616 -0.232211,-0.0504 -0.460047,-0.12909 -0.696634,-0.15121 -0.286944,-0.0268 -0.576588,-0.006 -0.864569,0.005 -1.186775,0.0457 -2.374818,0.20152 -3.529475,0.47888 -1.129684,0.46616 -1.004501,0.20058 0.405106,2.21637 0.06967,0.0996 0.223327,-0.0963 0.332888,-0.14897 0.175641,-0.0844 0.359201,-0.15595 0.52252,-0.26228 0.601152,-0.3914 0.794557,-0.66001 1.307029,-1.19201 0.227552,-0.30014 0.480851,-0.58239 0.682654,-0.90041 0.808791,-1.27456 1.412997,-3.06516 0.387681,-4.42335 -0.2125,-0.28149 -0.551535,-0.43976 -0.827302,-0.65964 -0.331616,-0.0795 -0.654005,-0.2279 -0.994847,-0.23839 -0.913839,-0.0281 -1.853726,0.53863 -2.329352,1.30269 -0.353795,0.56836 -0.314237,0.74863 -0.364252,1.3289 -0.05388,1.09092 1.488922,1.16712 1.542799,0.0762 z" /><path
       style="fill:#a51d2d;fill-opacity:1;stroke:none;stroke-width:0.264999"
       id="path12294"
       d="m 84.897472,117.68514 c 0.0033,0.13947 0.0019,0.27915 0.01,0.41842 0.0093,0.15725 0.09922,1.16862 0.11974,1.28078 0.03485,0.19044 0.107202,0.37209 0.158203,0.55885 0.09549,0.34968 -0.02302,0.37748 0.128992,0.32124 2.745679,-0.69639 1.890173,0.19227 1.828392,-0.82423 -0.0088,-0.14393 -0.02246,-0.29446 0.02048,-0.43212 0.03338,-0.10704 0.25857,-0.41436 0.417687,-0.43943 0.04198,-0.007 0.05955,0.0606 0.08933,0.091 0.03972,0.13788 -0.196255,0.18219 -0.203674,0.30392 -0.004,0.065 0.03001,0.12733 0.05567,0.18714 0.06319,0.14728 0.139372,0.28865 0.210135,0.43244 0.408381,0.82988 0.123359,0.47608 0.930997,1.05473 0.249605,0.10711 0.499208,0.21422 0.748813,0.32134 0.01109,0.0409 0.069,0.0253 0.05792,-0.0157 v 0 c 0.15335,-0.24851 0.306697,-0.49702 0.460047,-0.74554 0.05056,-0.31027 0.188748,-0.61864 0.151693,-0.93082 -0.03772,-0.31778 -0.215368,-0.60538 -0.367464,-0.88695 -0.169156,-0.31315 -0.352573,-0.6252 -0.591743,-0.88878 -0.40541,-0.44677 -1.010007,-0.8268 -1.638207,-0.8381 -0.321599,-0.006 -0.627158,0.14322 -0.940737,0.21483 -0.209153,0.18057 -0.453908,0.32669 -0.627465,0.5417 -0.493352,0.6112 -0.550367,1.44354 -0.571846,2.19125 -0.0051,0.17635 -0.161047,0.48779 0.01045,0.52915 0.640678,0.15452 1.317675,-0.0333 1.976511,-0.05 0.04575,-0.31932 0.03081,-0.10022 -0.01566,-0.54498 -0.01839,-0.17609 -0.0195,-0.3544 -0.05005,-0.52879 -0.03311,-0.18899 -0.101478,-0.37034 -0.140372,-0.55821 -0.06242,-0.3015 -0.0752,-0.5059 -0.10315,-0.80112 -0.02683,-1.50238 -2.151526,-1.46443 -2.124692,0.0379 z" /><path
       style="fill:#a51d2d;fill-opacity:1;stroke:none;stroke-width:0.264999"
       id="path12298"
       d="m 51.483696,123.73956 c 0.104473,-0.0268 0.213982,-0.0387 0.313423,-0.0804 0.436975,-0.18356 0.258588,-0.2347 0.70826,-0.3 0.118287,-0.0172 0.338775,-0.0258 0.155972,0.15494 -0.04504,0.0445 -0.11389,0.0555 -0.170836,0.0832 -0.04083,0.0431 -0.10164,0.0737 -0.122481,0.12926 -0.05087,0.13565 -0.05372,0.28479 -0.08578,0.42608 -0.05447,0.24003 -0.09374,0.48491 -0.173749,0.71767 -0.182282,0.53028 -0.388094,0.88733 -0.746181,1.31329 -0.139769,0.16626 -0.307533,0.30682 -0.461301,0.46023 -0.131794,0.0935 -0.259424,0.19318 -0.395383,0.28053 -0.07816,0.0502 -0.161361,0.0926 -0.24579,0.13139 -0.01169,0.005 -0.05145,4e-5 -0.03861,-8e-4 0.173845,-0.0115 0.417076,-0.17038 0.521746,-0.0311 0.961183,1.27899 0.949245,1.18258 0.647705,1.88075 1.228389,0.12796 2.413468,0.50812 3.633438,0.685 0.312079,0.0453 0.627825,0.06 0.941734,0.09 0.251534,-0.0456 0.514025,-0.0503 0.754602,-0.13676 0.407162,-0.14627 0.728703,-0.40842 0.868109,-0.82863 0.0423,-0.12751 -0.0074,-0.26859 -0.01109,-0.40288 0.0265,-0.0331 -0.02037,-0.0706 -0.04686,-0.0375 v 0 c -0.516816,-0.39947 0.121629,0.13462 -0.37352,-0.44293 -0.272095,-0.31738 -0.445331,-0.31973 -0.853252,-0.48801 -1.159063,-0.23271 -0.548476,-0.11322 -1.832142,-0.3565 -0.370594,-0.0738 -0.738113,-0.16315 -1.109866,-0.2309 -0.761751,-0.13881 -1.564185,-0.28677 -2.344862,-0.18635 -0.289962,0.0373 -0.557302,0.17689 -0.835956,0.26534 -0.94968,0.75996 -1.263571,0.68589 -0.09452,2.46183 0.138171,0.2099 0.502732,0.058 0.753041,0.0357 0.173104,-0.0154 0.339019,-0.0821 0.500176,-0.1471 0.618483,-0.2496 0.733481,-0.39721 1.304738,-0.81713 0.255174,-0.26014 0.537585,-0.49613 0.765524,-0.78045 0.262885,-0.3279 0.506627,-0.67542 0.700579,-1.04827 0.347607,-0.66824 0.654611,-1.69324 0.681385,-2.44845 0.01643,-0.4635 0.01114,-0.94361 -0.13053,-1.38524 -0.128405,-0.40025 -0.439211,-0.71684 -0.658818,-1.07526 -0.327943,-0.18057 -0.622612,-0.44336 -0.983832,-0.54172 -1.041513,-0.28358 -2.172626,0.38792 -2.689217,1.26582 -0.09047,0.15374 -0.133059,0.33102 -0.199586,0.49652 -0.628488,0.95723 0.725231,1.84605 1.35372,0.88882 z" /><path
       style="fill:#a51d2d;fill-opacity:1;stroke:none;stroke-width:0.264999"
       id="path12300"
       d="m 56.234964,121.22868 c 0.110228,0.67247 0.19852,1.34808 0.328052,2.01716 0.06115,0.31585 0.02458,0.19877 0.08893,0.38018 0.745924,-0.21196 1.559743,-0.25958 2.237777,-0.63589 0.171961,-0.0954 -0.03181,-0.39256 -0.03034,-0.58922 0.0016,-0.21797 0.0146,-0.43619 0.03964,-0.65272 5.29e-4,-0.004 0.08106,-0.75246 0.246528,-0.827 0.06361,-0.0286 0.01119,0.13909 0.0168,0.20863 0.260731,0.4777 -0.525687,0.18636 -0.5515,0.41496 -0.01114,0.0987 0.100978,0.17107 0.151138,0.2568 0.283567,0.48465 0.481693,0.924 0.964875,1.27182 0.280397,0.20184 0.624152,0.29647 0.936228,0.44471 0.145497,0.16451 0.290994,0.32902 0.436488,0.49353 0.01418,0.04 0.07073,0.0199 0.05655,-0.02 v 0 c 0.005,-0.23137 0.01005,-0.46273 0.01508,-0.69409 0.08819,-0.36741 0.268801,-0.7244 0.264573,-1.10222 -0.0084,-0.75329 -0.494713,-1.55389 -0.960694,-2.09412 -0.451043,-0.52291 -1.111962,-1.05193 -1.863754,-1.03151 -0.38067,0.0104 -0.720193,0.24777 -1.080289,0.37166 -0.176196,0.24518 -0.392684,0.46593 -0.52859,0.73554 -0.107518,0.21329 -0.143269,0.45665 -0.190418,0.69081 -0.107918,0.53596 -0.120999,1.01645 -0.140544,1.56124 -0.008,0.2217 -0.225046,0.59613 -0.01429,0.66537 0.719574,0.23643 1.513991,0.0507 2.270987,0.0761 0.10735,-0.0114 0.01331,0.003 -0.01955,-0.282 -0.07954,-0.69048 -0.186124,-1.37762 -0.309994,-2.06161 -0.284208,-1.67139 -2.647908,-1.26946 -2.3637,0.40193 z" /><path
       style="fill:#a51d2d;fill-opacity:1;stroke:none;stroke-width:0.264999"
       id="path12304"
       d="m 122.91691,110.50388 c 0.001,0.90341 0.20502,1.54512 0.9035,2.19218 0.55558,0.51467 0.99047,0.62979 1.6659,0.9135 0.72014,0.15741 1.0294,0.28506 1.77693,0.20833 0.72548,-0.0745 1.39668,-0.32434 2.06849,-0.58914 0.59873,-0.23599 1.38839,-0.60748 1.97695,-0.87748 0.79412,-0.34676 0.874,-0.44237 1.69663,-0.58497 0.35153,-0.0609 0.66861,-0.13134 0.97561,0.0778 0.0781,0.0532 0.18479,0.35116 0.21087,0.4144 0.0421,0.10339 0.0889,0.20499 0.12632,0.31016 0.032,0.09 0.0492,0.18475 0.0817,0.27454 0.0938,0.25955 0.46346,0.78131 0.56068,0.81567 0.98687,0.34881 1.19962,0.0542 1.81729,-0.3791 0.37851,-0.25846 0.9234,-0.65214 1.3356,-0.83669 0.6278,-0.28106 1.51463,-0.4729 2.206,-0.37422 0.17377,0.0248 0.33769,0.096 0.50654,0.14396 0.56327,0.21136 1.08478,0.52994 1.66937,0.68705 0.40102,0.10777 1.25691,0.24057 1.67079,0.24351 0.28727,0.002 0.57258,-0.0476 0.85887,-0.0714 1.04089,-0.2049 1.76262,-0.53031 2.33271,-1.46899 0.11709,-0.1928 0.33728,-0.3897 0.29168,-0.61061 -0.0628,-0.30407 -0.3799,-0.49121 -0.56985,-0.73682 -0.0197,-0.0938 -0.0393,-0.18764 -0.0589,-0.28146 0.0114,-0.0409 -0.0464,-0.057 -0.0578,-0.0161 v 0 c -0.0634,0.0634 -0.1269,0.12678 -0.19035,0.19017 -0.28518,0.0267 -0.59283,-0.034 -0.85554,0.0801 -0.11389,0.0495 -0.086,0.23303 -0.13136,0.34861 -0.12261,0.31209 -0.16137,0.4121 -0.49866,0.54469 -0.13786,0.0542 -0.28385,0.0848 -0.42577,0.12727 -0.4463,0.0453 -0.60238,0.0972 -1.05822,-0.0134 -0.1871,-0.0454 -0.3634,-0.12799 -0.541,-0.20235 -0.66259,-0.27742 -1.28459,-0.65157 -1.98321,-0.8425 -0.88462,-0.16998 -1.07786,-0.27714 -1.99894,-0.16252 -1.37522,0.17112 -2.56948,0.85457 -3.66436,1.66347 -0.0854,0.0677 -0.34397,0.13873 -0.2561,0.20317 0.23274,0.17066 0.59246,0.0688 0.83672,0.22258 0.15078,0.0949 0.0863,0.42497 0.25941,0.46731 0.13546,0.0331 -0.0139,-0.28037 -0.048,-0.4156 -0.0478,-0.1896 -0.11442,-0.3752 -0.19617,-0.55283 -0.10556,-0.22936 -0.24265,-0.44284 -0.36398,-0.66426 -0.5637,-0.61535 -0.67377,-0.90213 -1.52619,-1.14754 -1.28118,-0.36885 -2.66519,0.34532 -3.7917,0.85833 -0.57263,0.26601 -1.24722,0.58788 -1.83253,0.82584 -0.39565,0.16085 -0.98116,0.39069 -1.4279,0.45494 -0.45026,0.0648 -0.63059,-0.008 -1.07477,-0.0902 -0.56941,-0.21431 -0.49121,-0.1563 -0.98742,-0.44493 -0.0839,-0.0488 -0.18297,-0.0836 -0.24414,-0.15898 -0.17551,-0.21642 -0.21825,-0.67663 -0.34987,-0.93153 -0.13153,-1.19906 -1.82726,-1.01306 -1.69574,0.186 z" /><path
       style="fill:#a51d2d;fill-opacity:1;stroke:none;stroke-width:0.264999"
       id="path12306"
       d="m 130.70232,119.80008 c 0.19013,-0.002 0.3231,0.2111 0.38302,0.37082 0.0229,0.0611 0.013,0.13343 0.0445,0.19054 0.0182,0.0329 0.22431,0.14723 0.23968,0.15625 0.0261,0.0381 0.0885,0.0692 0.0782,0.11417 -0.0119,0.052 -0.0984,0.0525 -0.12672,0.0977 -0.0384,0.0614 -0.038,0.14002 -0.0642,0.20754 -0.053,0.13666 -0.11502,0.26962 -0.17287,0.40428 -0.39474,0.91879 -0.18343,0.4833 -0.66489,1.36229 -0.10322,0.17348 -0.20299,0.34906 -0.30966,0.52045 -0.14524,0.23336 -0.59321,0.79241 -0.4386,1.07223 0.26765,0.48441 0.7303,0.86775 1.21931,1.12688 0.14413,0.0764 1.5115,-0.15817 1.63488,-0.17707 0.78235,-0.18425 1.78763,-0.13858 2.37734,-0.80183 0.20416,-0.22962 0.29117,-0.54117 0.43675,-0.81175 0.0417,-0.008 0.0304,-0.0669 -0.0112,-0.0589 v 0 c -0.2515,-0.19482 -0.46598,-0.45045 -0.75451,-0.58447 -0.7238,-0.33621 -1.64057,0.084 -2.3738,0.14962 -0.24388,0.038 -0.48852,0.0714 -0.73163,0.11401 -0.12417,0.0218 -0.40077,-0.0431 -0.36981,0.0792 0.10307,0.40683 0.53018,0.67272 0.66131,1.07139 0.0438,0.13321 -0.32021,0.34253 -0.18455,0.37805 0.40014,0.10475 0.22064,-1.44367 0.75379,-0.98569 0.39836,-0.67538 0.78895,-1.2384 0.98639,-2.01944 0.11369,-0.44975 0.21339,-0.91833 0.17506,-1.38064 -0.0676,-0.81583 -0.54064,-1.48073 -1.22594,-1.89773 -0.26489,-0.16117 -0.59586,-0.1718 -0.89379,-0.25771 -0.69655,0.0636 -1.08822,-0.006 -1.66981,0.46833 -0.46438,0.37862 -0.77413,0.91755 -0.72566,1.53233 0.021,0.26635 0.13623,0.52287 0.26752,0.75556 0.0854,0.15137 0.24497,0.2466 0.36746,0.36989 1.10751,0.77248 2.19996,-0.79377 1.09245,-1.56625 z" /><path
       style="fill:#a51d2d;fill-opacity:1;stroke:none;stroke-width:0.264999"
       id="path12308"
       d="m 134.50617,117.4359 c 0.001,0.12617 -0.004,0.25257 0.003,0.37851 0.01,0.15815 0.0329,0.31518 0.0487,0.47285 0.0513,0.5127 0.0834,1.02823 0.22587,1.52526 0.20835,0.72671 0.092,0.51435 1.91402,0.0242 0.12161,-0.0327 5.3e-4,-0.25365 0.0264,-0.3769 0.0671,-0.31972 0.23105,-0.69304 0.41183,-0.96142 0.0854,-0.12672 0.20088,-0.23026 0.30131,-0.34539 0.0606,0.0109 0.16266,-0.0259 0.18191,0.0326 0.0688,0.20907 -0.20345,0.19272 -0.24804,0.31101 -0.0215,0.057 0.0171,0.12114 0.0346,0.17952 0.0323,0.10809 0.23622,0.64672 0.26568,0.72546 0.65279,0.66378 -0.0763,0.004 0.90595,0.5781 0.0909,0.0531 0.15031,0.1476 0.22547,0.22139 0.004,0.0422 0.064,0.0362 0.0597,-0.006 v 0 c 0.0584,-0.0928 0.10469,-0.19426 0.17509,-0.27824 0.65472,-0.7809 0.41944,-0.1671 0.60183,-1.15008 -0.1735,-0.59188 -0.20982,-0.89857 -0.59953,-1.41667 -0.6123,-0.81401 -1.46745,-1.25408 -2.46321,-0.76791 -0.24378,0.11903 -0.4034,0.36285 -0.6051,0.54427 -0.12139,0.20158 -0.25277,0.39747 -0.36417,0.60474 -0.29516,0.54914 -0.35923,0.76519 -0.58107,1.33632 -0.0498,0.1283 -0.28231,0.3481 -0.14967,0.38483 4.34087,1.20192 1.25466,-0.17565 1.83345,0.0829 0.004,-0.49769 -0.0974,-0.98392 -0.16763,-1.47486 -0.0204,-0.1425 -0.0318,-0.28624 -0.0544,-0.4284 -0.0143,-0.0902 -0.0375,-0.17873 -0.0563,-0.26809 -0.0509,-1.36177 -1.97677,-1.28976 -1.92584,0.072 z" /><path
       style="display:inline;fill:#a51d2d;fill-opacity:1;stroke:none;stroke-width:0.264999"
       id="path12304-5"
       d="m 96.893702,110.77114 c 10e-4,0.90341 0.20502,1.54512 0.9035,2.19218 0.55558,0.51467 0.99047,0.62979 1.6659,0.9135 0.720138,0.15741 1.029398,0.28506 1.776928,0.20833 0.72548,-0.0745 1.39668,-0.32434 2.06849,-0.58914 0.59873,-0.23599 1.38839,-0.60748 1.97695,-0.87748 0.79412,-0.34676 0.874,-0.44237 1.69663,-0.58497 0.35153,-0.0609 0.66861,-0.13134 0.97561,0.0778 0.0781,0.0532 0.18479,0.35116 0.21087,0.4144 0.0421,0.10339 0.0889,0.20499 0.12632,0.31016 0.032,0.09 0.0492,0.18475 0.0817,0.27454 0.0938,0.25955 0.46346,0.78131 0.56068,0.81567 0.98687,0.34881 1.19962,0.0542 1.81729,-0.3791 0.37851,-0.25846 0.9234,-0.65214 1.3356,-0.83669 0.6278,-0.28106 1.51463,-0.4729 2.206,-0.37422 0.17377,0.0248 0.33769,0.096 0.50654,0.14396 0.56327,0.21136 1.08478,0.52994 1.66937,0.68705 0.40102,0.10777 1.25691,0.24057 1.67079,0.24351 0.28727,0.002 0.57258,-0.0476 0.85887,-0.0714 1.04089,-0.2049 1.76262,-0.53031 2.33271,-1.46899 0.11709,-0.1928 0.33728,-0.3897 0.29168,-0.61061 -0.0628,-0.30407 -0.3799,-0.49121 -0.56985,-0.73682 -0.0197,-0.0938 -0.0393,-0.18764 -0.0589,-0.28146 0.0114,-0.0409 -0.0464,-0.057 -0.0578,-0.0161 v 0 c -0.0634,0.0634 -0.1269,0.12678 -0.19035,0.19017 -0.28518,0.0267 -0.59283,-0.034 -0.85554,0.0801 -0.11389,0.0495 -0.086,0.23303 -0.13136,0.34861 -0.12261,0.31209 -0.16137,0.4121 -0.49866,0.54469 -0.13786,0.0542 -0.28385,0.0848 -0.42577,0.12727 -0.4463,0.0453 -0.60238,0.0972 -1.05822,-0.0134 -0.1871,-0.0454 -0.3634,-0.12799 -0.541,-0.20235 -0.66259,-0.27742 -1.28459,-0.65157 -1.98321,-0.8425 -0.88462,-0.16998 -1.07786,-0.27714 -1.99894,-0.16252 -1.37522,0.17112 -2.56948,0.85457 -3.66436,1.66347 -0.0854,0.0677 -0.34397,0.13873 -0.2561,0.20317 0.23274,0.17066 0.59246,0.0688 0.83672,0.22258 0.15078,0.0949 0.0863,0.42497 0.25941,0.46731 0.13546,0.0331 -0.0139,-0.28037 -0.048,-0.4156 -0.0478,-0.1896 -0.11442,-0.3752 -0.19617,-0.55283 -0.10556,-0.22936 -0.24265,-0.44284 -0.36398,-0.66426 -0.5637,-0.61535 -0.67377,-0.90213 -1.52619,-1.14754 -1.28118,-0.36885 -2.66519,0.34532 -3.7917,0.85833 -0.57263,0.26601 -1.24722,0.58788 -1.83253,0.82584 -0.39565,0.16085 -0.98116,0.39069 -1.4279,0.45494 -0.45026,0.0648 -0.63059,-0.008 -1.07477,-0.0902 -0.569408,-0.21431 -0.491208,-0.1563 -0.987418,-0.44493 -0.0839,-0.0488 -0.18297,-0.0836 -0.24414,-0.15898 -0.17551,-0.21642 -0.21825,-0.67663 -0.34987,-0.93153 -0.13153,-1.19906 -1.82726,-1.01306 -1.69574,0.186 z" /><path
       style="display:inline;fill:#a51d2d;fill-opacity:1;stroke:none;stroke-width:0.264999"
       id="path12306-3"
       d="m 104.67911,120.06734 c 0.19013,-0.002 0.3231,0.2111 0.38302,0.37082 0.0229,0.0611 0.013,0.13343 0.0445,0.19054 0.0182,0.0329 0.22431,0.14723 0.23968,0.15625 0.0261,0.0381 0.0885,0.0692 0.0782,0.11417 -0.0119,0.052 -0.0984,0.0525 -0.12672,0.0977 -0.0384,0.0614 -0.038,0.14002 -0.0642,0.20754 -0.053,0.13666 -0.11502,0.26962 -0.17287,0.40428 -0.39474,0.91879 -0.18343,0.4833 -0.66489,1.36229 -0.10322,0.17348 -0.20299,0.34906 -0.30966,0.52045 -0.14524,0.23336 -0.59321,0.79241 -0.4386,1.07223 0.26765,0.48441 0.7303,0.86775 1.21931,1.12688 0.14413,0.0764 1.5115,-0.15817 1.63488,-0.17707 0.78235,-0.18425 1.78763,-0.13858 2.37734,-0.80183 0.20416,-0.22962 0.29117,-0.54117 0.43675,-0.81175 0.0417,-0.008 0.0304,-0.0669 -0.0112,-0.0589 v 0 c -0.2515,-0.19482 -0.46598,-0.45045 -0.75451,-0.58447 -0.7238,-0.33621 -1.64057,0.084 -2.3738,0.14962 -0.24388,0.038 -0.48852,0.0714 -0.73163,0.11401 -0.12417,0.0218 -0.40077,-0.0431 -0.36981,0.0792 0.10307,0.40683 0.53018,0.67272 0.66131,1.07139 0.0438,0.13321 -0.32021,0.34253 -0.18455,0.37805 0.40014,0.10475 0.22064,-1.44367 0.75379,-0.98569 0.39836,-0.67538 0.78895,-1.2384 0.98639,-2.01944 0.11369,-0.44975 0.21339,-0.91833 0.17506,-1.38064 -0.0676,-0.81583 -0.54064,-1.48073 -1.22594,-1.89773 -0.26489,-0.16117 -0.59586,-0.1718 -0.89379,-0.25771 -0.69655,0.0636 -1.08822,-0.006 -1.66981,0.46833 -0.46438,0.37862 -0.77413,0.91755 -0.72566,1.53233 0.021,0.26635 0.13623,0.52287 0.26752,0.75556 0.0854,0.15137 0.24497,0.2466 0.36746,0.36989 1.10751,0.77248 2.19996,-0.79377 1.09245,-1.56625 z" /><path
       style="display:inline;fill:#a51d2d;fill-opacity:1;stroke:none;stroke-width:0.264999"
       id="path12308-5"
       d="m 108.48296,117.70316 c 10e-4,0.12617 -0.004,0.25257 0.003,0.37851 0.01,0.15815 0.0329,0.31518 0.0487,0.47285 0.0513,0.5127 0.0834,1.02823 0.22587,1.52526 0.20835,0.72671 0.092,0.51435 1.91402,0.0242 0.12161,-0.0327 5.3e-4,-0.25365 0.0264,-0.3769 0.0671,-0.31972 0.23105,-0.69304 0.41183,-0.96142 0.0854,-0.12672 0.20088,-0.23026 0.30131,-0.34539 0.0606,0.0109 0.16266,-0.0259 0.18191,0.0326 0.0688,0.20907 -0.20345,0.19272 -0.24804,0.31101 -0.0215,0.057 0.0171,0.12114 0.0346,0.17952 0.0323,0.10809 0.23622,0.64672 0.26568,0.72546 0.65279,0.66378 -0.0763,0.004 0.90595,0.5781 0.0909,0.0531 0.15031,0.1476 0.22547,0.22139 0.004,0.0422 0.064,0.0362 0.0597,-0.006 v 0 c 0.0584,-0.0928 0.10469,-0.19426 0.17509,-0.27824 0.65472,-0.7809 0.41944,-0.1671 0.60183,-1.15008 -0.1735,-0.59188 -0.20982,-0.89857 -0.59953,-1.41667 -0.6123,-0.81401 -1.46745,-1.25408 -2.46321,-0.76791 -0.24378,0.11903 -0.4034,0.36285 -0.6051,0.54427 -0.12139,0.20158 -0.25277,0.39747 -0.36417,0.60474 -0.29516,0.54914 -0.35923,0.76519 -0.58107,1.33632 -0.0498,0.1283 -0.28231,0.3481 -0.14967,0.38483 4.34087,1.20192 1.25466,-0.17565 1.83345,0.0829 0.004,-0.49769 -0.0974,-0.98392 -0.16763,-1.47486 -0.0204,-0.1425 -0.0318,-0.28624 -0.0544,-0.4284 -0.0143,-0.0902 -0.0375,-0.17873 -0.0563,-0.26809 -0.0509,-1.36177 -1.97677,-1.28976 -1.92584,0.072 z" /></g></svg>
