<?xml version="1.0" encoding="UTF-8" standalone="no"?>
<!-- Created with Inkscape (http://www.inkscape.org/) -->

<svg
   width="369.63617"
   height="378.23355"
   viewBox="0 0 97.799571 100.07429"
   version="1.1"
   id="svg5"
   xmlns="http://www.w3.org/2000/svg"
   xmlns:svg="http://www.w3.org/2000/svg">
  <defs
     id="defs2" />
  <g
     id="layer1"
     transform="translate(-61.714527,-46.603642)">
    <path
       style="opacity:1;fill:#5e5c64;stroke:none;stroke-width:0.264999"
       id="path1007"
       d="m 73.310585,61.999203 c -0.1445,1.622954 -0.304718,3.060962 -0.29704,4.70889 0.0044,0.942121 -0.05314,1.900439 0.137732,2.82303 0.100973,0.488053 1.274842,3.100163 1.591664,3.817906 0.0074,0.04178 0.06649,0.0313 0.05908,-0.01048 v 0 c 0.178829,-2.356844 0.004,-1.065511 0.632024,-3.857921 0.09455,-0.886034 -0.0034,-1.782294 0.01617,-2.673141 0.05003,-2.274117 0.08944,-2.418307 0.259177,-4.527272 0.198708,-1.696209 -2.200095,-1.977226 -2.398802,-0.281016 z" />
    <path
       style="opacity:1;fill:#5e5c64;stroke:none;stroke-width:0.264999"
       id="path1009"
       d="m 74.747884,68.150414 c 2.633268,0.01918 5.261705,0.188026 7.892928,0.280903 3.430606,0.08624 6.86232,0.10215 10.293268,0.172114 3.203509,0.094 6.403226,0.277833 9.60637,0.380439 3.26127,0.06274 6.52262,0.12986 9.78431,0.16741 2.69739,0.01643 5.38362,0.302133 8.0683,0.536908 2.20218,0.182401 4.41045,0.271708 6.61665,0.388969 1.89877,0.134602 3.79588,0.289571 5.69487,0.42151 1.92805,0.15852 3.8588,0.255297 5.79237,0.307941 1.14094,0.04144 2.28244,0.06969 3.42171,0.147947 0.37451,0.02572 0.74822,0.06198 1.12236,0.09265 0.30486,0.02498 0.61203,0.119015 0.91463,0.07431 0.25376,-0.03749 0.46859,-0.208852 0.70289,-0.313278 0.17629,-0.185547 0.35257,-0.371094 0.52886,-0.556643 0.0405,0.01275 0.0585,-0.04448 0.018,-0.05723 v 0 c -0.10244,-0.273357 -0.20489,-0.546714 -0.30734,-0.820071 -0.2283,-0.181708 -0.41528,-0.433575 -0.6849,-0.545124 -0.29959,-0.123941 -0.64094,-0.09926 -0.96299,-0.136633 -1.55281,-0.180205 -3.11659,-0.252016 -4.67757,-0.314605 -1.90258,-0.06697 -3.80165,-0.183844 -5.69954,-0.334151 -1.91232,-0.129677 -3.82356,-0.271417 -5.73507,-0.412205 -2.17862,-0.112829 -4.35933,-0.194995 -6.53415,-0.371435 -2.747,-0.236773 -5.49541,-0.527852 -8.25529,-0.538599 -3.24493,-0.02622 -6.48947,-0.09074 -9.73397,-0.147344 -3.212355,-0.09476 -6.421039,-0.280416 -9.633816,-0.365011 -3.420396,-0.06375 -6.841125,-0.06098 -10.261621,-0.111149 -2.516619,-0.08015 -0.934561,-0.02336 -3.436059,-0.128452 -1.569442,-0.06594 -3.164409,-0.189273 -4.717918,0.11513 -1.460669,0.129181 -1.277982,2.194878 0.182687,2.065698 z" />
    <path
       style="opacity:1;fill:#5e5c64;stroke:none;stroke-width:0.264999"
       id="path1011"
       d="m 144.01147,66.7993 c -0.0451,1.262992 -0.0898,2.141287 -0.0581,3.473244 0.0202,0.849069 -0.027,1.709013 0.12307,2.544956 0.14464,0.805558 0.52008,1.552395 0.75345,2.336858 0.1712,0.575461 0.30655,1.160983 0.45983,1.741477 0.002,0.04238 0.0619,0.03963 0.0599,-0.0028 v 0 c 0.0998,-0.584925 0.1627,-1.177335 0.2993,-1.75477 0.18445,-0.779737 0.5295,-1.520541 0.66241,-2.310698 0.13817,-0.821389 0.10305,-1.662698 0.14588,-2.494526 0.0927,-1.799847 0.0871,-1.907887 0.12527,-3.462137 0.0507,-1.817999 -2.52037,-1.889649 -2.57104,-0.07165 z" />
    <path
       style="opacity:1;fill:#5e5c64;stroke:none;stroke-width:0.264999"
       id="path1070"
       d="m 69.526058,91.506282 c 1.164535,0.02371 2.330371,0.0218 3.494797,-0.0092 0.378534,-0.01008 1.342797,0.05377 1.694212,-0.321505 0.209886,-0.224142 0.240617,-0.565042 0.360926,-0.847564 0.04243,-8.2e-5 0.04231,-0.06008 -1.17e-4,-0.06 v 0 c -0.135898,-0.282017 -0.185084,-0.625946 -0.407694,-0.846053 -0.354155,-0.350171 -1.333174,-0.248568 -1.690229,-0.244428 -1.13506,0.01315 -2.270324,0.06184 -3.405653,0.0254 -1.628728,-0.0327 -1.674969,2.27067 -0.04624,2.303368 z" />
    <path
       style="opacity:1;fill:#5e5c64;stroke:none;stroke-width:0.264999"
       id="path1072"
       d="m 72.79439,90.853383 c -0.320707,2.542544 -0.193379,5.109744 -0.09042,7.661204 0.08348,2.068833 0.164232,3.835593 0.256355,5.907053 0.305622,5.69159 0.185385,11.39086 0.138004,17.08652 -0.0096,2.21039 0.0402,4.42228 0.256719,6.62325 0.105506,1.0725 0.280731,2.13632 0.431644,3.20283 0.08396,-0.72269 0.01087,0.60285 0.03109,0.45289 0.0068,-0.0504 -0.04635,-0.14238 0.0035,-0.15261 1.982134,-0.40685 2.433436,0.2866 2.231721,-0.39715 -0.243025,-0.26102 -0.42953,-0.5895 -0.729078,-0.78305 -0.215424,-0.1392 -1.094409,-0.15217 -1.339263,-0.15928 -0.7786,-0.0226 -1.545942,-0.0357 -2.322478,-0.10327 -0.05322,-0.007 -0.987724,-0.16285 -1.127882,-0.0496 -0.193526,0.15645 -0.237373,0.43755 -0.362817,0.65246 -0.04652,0.0797 -0.101844,0.15391 -0.152765,0.23087 -0.03103,-0.0289 -0.07195,0.0149 -0.04092,0.0439 v 0 c 0.01442,0.36664 0.0081,0.90274 0.223407,1.1938 0.145957,0.19734 1.148498,0.2645 1.259697,0.27801 0.81321,0.0687 1.61518,0.0926 2.430425,0.11149 0.170183,0.004 0.341048,0.0356 0.510368,0.018 0.02625,-0.003 -0.02858,-0.0443 -0.04288,-0.0665 -0.191566,-0.23792 -0.383129,-0.47583 -0.574696,-0.71375 0.227436,0.88346 0.0504,0.44551 2.372887,0.0886 0.04152,-0.006 0.01019,-0.52684 0.0095,-0.53513 -0.01175,-0.14787 -0.03026,-0.29513 -0.04539,-0.44269 -0.146391,-1.01822 -0.311232,-2.03462 -0.412657,-3.05878 -0.211127,-2.13188 -0.264195,-4.27412 -0.258011,-6.41541 0.04446,-5.73722 0.169746,-11.4787 -0.141793,-17.21158 -0.12931,-2.81468 -0.248081,-5.630093 -0.395751,-8.443893 -0.09212,-1.75532 -0.151516,-2.12689 -0.15354,-3.739096 -5.29e-4,-0.366002 0.01815,-0.731775 0.02723,-1.097662 0.128299,-1.408719 -1.863929,-1.590159 -1.992228,-0.181441 z" />
    <path
       style="opacity:1;fill:#5e5c64;stroke:none;stroke-width:0.264999"
       id="path1076"
       d="m 83.613705,139.15995 c -0.05483,-0.56685 -0.115115,-1.50782 -0.316966,-2.01627 -0.193894,-0.4884 -0.956225,-1.50356 -1.276239,-1.95023 -0.0055,-0.0421 -0.06498,-0.0343 -0.0595,0.008 v 0 c -0.193802,0.51439 -0.655529,1.66195 -0.726208,2.18954 -0.04967,0.37077 0.08112,1.57827 0.120629,2.00098 0.163888,1.59684 2.422168,1.36507 2.25828,-0.23177 z" />
    <path
       style="opacity:1;fill:#5e5c64;stroke:none;stroke-width:0.285735"
       id="path1080"
       d="m 82.91569,137.47164 c 4.006089,-0.53875 8.073482,-0.62445 12.119468,-0.72858 5.040882,-0.10754 10.077622,0.0364 15.106542,0.32318 4.15313,0.2143 8.31062,0.44866 12.47291,0.4514 1.1264,-0.0259 2.26623,-0.0695 3.36286,-0.30984 0.0903,-0.019 0.29111,-0.0838 0.35085,-0.10115 0.003,0.0239 -0.46169,0.066 -0.13173,0.036 0.29484,-0.019 0.57789,-0.10202 0.86955,-0.1354 0.0268,-0.003 0.0701,0.0117 0.0804,-0.01 0.16528,-0.34248 0.12888,-0.73357 0.17343,-1.1024 0.0492,-0.003 0.0445,-0.0627 -0.005,-0.0599 v 0 c -0.0723,-0.23007 -0.15882,-0.845 -0.4805,-1.06096 -0.0471,-0.0316 -0.11886,0.0114 -0.17828,0.0171 -0.26746,0.0385 -0.52983,0.0997 -0.79933,0.12664 0.13616,-0.008 -0.34089,0.0341 -0.34859,0.0601 -0.0672,0.0211 -0.11776,0.0369 -0.19014,0.0557 -0.86994,0.20587 -1.80213,0.15636 -2.69179,0.20199 -4.10867,-0.0302 -8.20932,-0.31213 -12.31084,-0.49789 -5.11614,-0.27467 -10.23784,-0.41545 -15.364887,-0.29168 -4.200595,0.11958 -8.45524,0.17651 -12.580205,0.93318 -1.720009,0.33142 -1.175095,2.42364 0.544913,2.09222 z" />
    <path
       style="opacity:1;fill:#5e5c64;stroke:none;stroke-width:0.264999"
       id="path1082"
       d="m 125.15583,136.35164 c 0.34383,1.04904 0.48903,2.14963 0.76438,3.21518 0.1048,0.40554 0.12836,0.85643 0.36402,1.20271 0.26185,0.38476 0.71146,0.6002 1.06718,0.9003 0.006,0.0419 0.0658,0.0328 0.0593,-0.009 v 0 c 0.24566,-0.41171 0.62033,-0.77012 0.73699,-1.23515 0.1063,-0.42377 -0.0383,-0.87431 -0.0993,-1.30692 -0.16947,-1.20106 -0.51002,-2.39077 -0.88516,-3.54079 -0.54718,-1.41945 -2.55459,-0.64562 -2.00741,0.77384 z" />
    <rect
       style="opacity:0.77844;fill:#d96888;fill-opacity:1;stroke:none;stroke-width:0.264999"
       id="rect1138"
       width="12.972377"
       height="12.086578"
       x="93.836449"
       y="61.182262" />
    <path
       style="opacity:1;fill:#c64600;stroke:none;stroke-width:0.264999"
       id="path1329"
       d="m 90.497812,56.457029 c 0.630415,0.649893 1.312537,1.243237 2.019859,1.807001 0.432035,0.34435 0.352882,0.158075 0.435845,0.404868 -0.08768,-0.217778 -0.175368,-0.435557 -0.263054,-0.653338 -0.02294,-0.02974 -0.03432,-0.104071 -0.06881,-0.08922 -0.131577,0.05665 -0.226245,0.175792 -0.338614,0.264645 -0.452503,0.357809 -0.871868,0.724857 -1.275357,1.137033 -0.233307,0.418896 -0.425027,0.538988 -0.152607,1.061445 0.09913,0.190111 0.301194,0.305221 0.451792,0.457832 -0.0079,0.04168 0.05105,0.05286 0.05895,0.01117 v 0 c 0.182219,-0.01413 0.363903,-0.04011 0.546653,-0.04243 0.455949,-0.0058 0.211799,0.126429 0.493078,-0.09409 0.361071,-0.352335 0.754065,-0.624861 1.153594,-0.931846 0.33124,-0.254514 0.99356,-0.747652 1.094057,-1.171768 0.09417,-0.397402 -0.05894,-0.814684 -0.0884,-1.222026 -0.124618,-0.142145 -0.236897,-0.296138 -0.373856,-0.426434 -0.120726,-0.114856 -0.264541,-0.202708 -0.395605,-0.30561 -0.644496,-0.506013 -1.254297,-1.052065 -1.838473,-1.626743 -1.003736,-1.0317 -2.462781,0.387797 -1.459045,1.419497 z" />
    <path
       style="opacity:1;fill:#c64600;stroke:none;stroke-width:0.264999"
       id="path1333"
       d="m 93.251461,58.954167 c 2.829091,0.03959 5.658781,-0.05647 8.488219,-0.06779 1.00698,-0.0085 2.01354,0.03526 3.02048,0.02833 0.0334,-2.3e-4 1.04671,-0.0066 1.1679,-0.05948 0.14231,-0.06208 0.22592,-0.213032 0.33888,-0.31955 0.06,-0.2285 0.12001,-0.457002 0.18002,-0.685501 0.0424,-0.0019 0.0396,-0.06191 -0.003,-0.05994 v 0 c -0.0832,-0.221838 -0.16634,-0.443672 -0.24951,-0.665509 -0.11382,-0.0949 -0.20237,-0.233596 -0.34147,-0.2847 -0.14406,-0.05292 -0.30683,-0.0098 -0.4603,-0.0098 -0.20814,-1.03e-4 -0.41621,0.0083 -0.62435,0.0093 -1.01443,0.0051 -2.02846,-0.03146 -3.04295,-0.02098 -1.774205,0.01701 -3.54744,0.05549 -5.321373,0.08962 -1.116619,0.02148 -1.560156,0.01183 -2.59787,0.07454 -0.196191,0.01185 -0.391573,0.0346 -0.587359,0.05191 -1.357352,0.02297 -1.324885,1.942545 0.03247,1.919587 z" />
    <path
       style="opacity:1;fill:#c64600;stroke:none;stroke-width:0.264999"
       id="path1335"
       d="m 107.54728,54.379661 c -0.94985,0.909886 -1.85291,1.870554 -2.84564,2.734418 -0.51335,0.584227 -0.72287,0.649894 -0.22524,1.830092 0.12665,0.300394 1.10609,0.732348 1.40626,0.882827 0.74544,0.373692 0.52801,0.262218 1.2302,0.655299 0.36974,0.221586 0.72391,0.604829 1.20163,0.466034 0.25312,-0.07354 0.48312,-0.210971 0.72468,-0.316455 0.0291,0.03089 0.0728,-0.01024 0.0437,-0.04113 v 0 c 0.12126,-0.233238 0.31771,-0.440909 0.36377,-0.699719 0.12431,-0.69845 -0.72847,-1.181672 -1.18311,-1.483776 -0.70986,-0.390419 -0.64181,-0.368003 -1.37411,-0.711001 -0.17855,-0.08363 -0.34598,-0.206751 -0.54013,-0.241107 -0.0471,-0.0083 -0.01,0.09527 -0.0181,0.142322 -0.0645,0.353795 -0.12866,0.707702 -0.20096,1.059982 -0.008,0.04007 0.006,-0.08161 0.009,-0.122415 0.86769,-1.028322 1.92633,-1.878955 2.77689,-2.924172 0.87059,-0.967571 -0.49776,-2.198765 -1.36835,-1.231194 z" />
    <path
       style="opacity:1;fill:#c64600;stroke:none;stroke-width:0.264999"
       id="path1339"
       d="m 101.67378,46.643432 c -0.76328,-0.05867 -1.59632,-0.09511 -2.319422,0.210812 -0.56756,0.240118 -0.646308,0.406803 -1.067792,0.837716 -0.08975,0.269333 -0.236543,0.525992 -0.269261,0.807993 -0.09962,0.858596 0.393848,1.712904 0.737243,2.452502 0.439965,0.947592 0.30947,0.639736 0.614635,1.599829 0.03676,0.280668 0.26393,1.058821 -0.07526,1.307688 -0.03318,0.02434 -0.188076,-0.05417 -0.213571,-0.05537 -0.131112,-0.0062 -0.262345,0.0094 -0.393518,0.01416 -0.187917,-0.02604 -0.382828,-0.02101 -0.563758,-0.07808 -0.17436,-0.05499 -0.3517,-0.129727 -0.486553,-0.253179 -0.299209,-0.273913 -0.227859,-0.80735 0.128492,-0.993566 0.101841,-0.05322 0.228196,-0.02722 0.342292,-0.04084 0.598887,-0.0514 1.137171,0.290989 1.738569,0.160837 0.258964,-0.05604 0.500024,-0.175426 0.750044,-0.263141 0.0337,0.02577 0.0701,-0.02191 0.0364,-0.04767 v 0 c -0.0533,-0.319575 -0.004,-0.674648 -0.15992,-0.958723 -0.520289,-0.948701 -1.9442,-1.055579 -2.840696,-0.746276 -0.34326,0.11843 -0.627454,0.36567 -0.941181,0.548508 -0.176218,0.301209 -0.419531,0.572161 -0.528653,0.903631 -0.177536,0.539303 -0.07728,1.33636 0.166555,1.837124 0.139417,0.286321 0.344527,0.542483 0.572476,0.764871 0.506635,0.494268 1.026663,0.649988 1.659499,0.926457 0.862562,0.09764 1.256879,0.287192 2.06563,-0.22805 0.26674,-0.169937 0.46433,-0.442061 0.62292,-0.715695 0.49001,-0.845445 0.3293,-1.849036 0.13692,-2.743121 -0.31013,-0.92565 -0.31872,-1.07148 -0.76502,-1.933911 -0.11033,-0.213212 -0.51778,-0.96779 -0.796052,-1.151109 -0.03644,-0.024 -0.08409,-0.02336 -0.12614,-0.03503 0.01098,-0.0603 5.29e-4,-0.128878 0.03294,-0.180885 0.05094,-0.0817 0.128426,-0.145478 0.206071,-0.202422 0.454011,-0.332973 0.981561,-0.383252 1.525591,-0.32729 1.00251,0.148828 1.21299,-1.268936 0.21048,-1.417767 z" />
    <path
       style="opacity:1;fill:#c64600;stroke:none;stroke-width:0.215892"
       id="path1351"
       d="m 100.27693,117.33391 c 0.16274,0.12116 0.39202,0.20853 0.46314,0.49819 0.0412,0.16759 -0.13446,0.55822 -0.17273,0.66762 -0.12449,0.29798 -0.31065,0.6557 -0.31171,1.03607 -6.6e-4,0.25482 0.0877,0.4931 0.11485,0.74462 0.015,0.13916 0.007,0.28176 0.0112,0.42264 -0.0164,0.0345 0.0161,0.0694 0.0324,0.0349 v 0 c 0.0879,-0.0367 0.1736,-0.0893 0.26379,-0.1101 0.17229,-0.0397 0.35994,0.0307 0.52077,-0.0705 0.37657,-0.2369 0.52262,-0.83892 0.70307,-1.31652 0.0734,-0.3461 0.1904,-0.67775 0.22011,-1.03831 0.0875,-1.06238 -0.19927,-1.85066 -0.74411,-2.47152 -0.18677,-0.21284 -0.40177,-0.32875 -0.61407,-0.46175 -0.968988,-0.51847 -1.45564,1.5462 -0.48665,2.06467 z" />
    <path
       style="opacity:1;fill:#c64600;stroke:none;stroke-width:0.215892"
       id="path1355"
       d="m 101.63107,118.66306 c 0.0944,0.027 0.18803,0.0618 0.28331,0.081 0.96839,0.19486 2.00332,0.13706 2.97999,0.14331 1.53454,0.0138 3.06868,-0.0494 4.60321,-0.0375 0.55055,0.005 1.10112,0.0344 1.65162,0.0107 0.005,-2.7e-4 0.20762,1.1e-4 0.23255,-0.0416 0.10456,-0.175 0.0331,-0.84663 0.0307,-0.94619 0.0281,-0.002 0.0264,-0.0618 -0.002,-0.0599 v 0 c -0.0157,-0.24659 -0.0204,-0.4953 -0.0469,-0.73978 -0.007,-0.0694 -0.0214,-0.14451 -0.0543,-0.19433 -0.0229,-0.0347 -0.19526,-0.008 -0.20322,-0.007 -0.53445,0.0303 -1.06972,-0.005 -1.60431,-0.003 -1.53675,-0.003 -3.0728,0.0572 -4.6094,0.0727 -1.04569,0.0114 -2.09218,0.0105 -3.13733,0.0321 -0.79303,-0.13216 -0.91708,1.55758 -0.12405,1.68974 z" />
    <path
       style="opacity:1;fill:#c64600;stroke:none;stroke-width:0.215892"
       id="path1357"
       d="m 112.05104,114.94914 c -0.31463,0.2892 -0.60812,0.62459 -0.88853,0.98419 -0.1733,0.22224 -0.45902,0.57664 -0.54356,0.90804 -0.0711,0.27858 -0.0666,0.58839 -0.1,0.88258 0.10621,0.32833 0.17911,0.68631 0.31865,0.98499 0.14189,0.30372 0.58381,0.76842 0.79311,0.98102 0.25173,0.25572 0.50684,0.49528 0.79007,0.6594 0.14257,-0.21935 0.28514,-0.4387 0.42772,-0.65806 0.0205,0.0291 0.0478,-0.0146 0.0273,-0.0437 v 0 c 0.0848,-0.30119 0.16964,-0.60238 0.25445,-0.90357 -0.0536,-0.0798 -0.10251,-0.16739 -0.16078,-0.23936 -0.0736,-0.0909 -0.15549,-0.16563 -0.23356,-0.24773 -0.21479,-0.2259 -0.35703,-0.37041 -0.56986,-0.59816 -0.0615,-0.0658 -0.10818,-0.21204 -0.18325,-0.20032 -0.0536,0.008 -0.0279,0.15699 -0.0419,0.23549 -0.0354,0.0691 -0.0507,0.18251 -0.10624,0.20727 -0.0344,0.0153 -0.0131,-0.11544 0.005,-0.16216 0.13049,-0.33652 0.53077,-0.86239 0.72308,-1.1402 0.0681,-0.0984 0.13731,-0.1951 0.20596,-0.29265 0.6369,-0.76461 -0.0808,-2.12168 -0.7177,-1.35707 z" />
    <path
       style="opacity:1;fill:#c64600;stroke:none;stroke-width:0.264999"
       id="path1361"
       d="m 103.81543,124.62707 c 0.0506,-0.11383 0.0894,-0.23365 0.1518,-0.34149 0.0707,-0.12229 0.16067,-0.23246 0.24539,-0.34548 0.0443,-0.0591 0.13447,-0.24401 0.14139,-0.1705 0.009,0.10061 -0.0589,0.20298 -0.13174,0.27305 -0.0806,0.0775 -0.23328,0.0571 -0.3025,0.14484 -0.0319,0.0405 0.0585,0.085 0.0878,0.12744 0.71851,0.61254 1.53135,1.51634 2.59232,1.31844 0.24598,-0.0459 0.45938,-0.19854 0.68907,-0.2978 0.26364,-0.32801 0.6726,-0.61551 0.46487,-1.12193 -0.0867,-0.21141 -0.31103,-0.33484 -0.46654,-0.50227 0.01,-0.0412 -0.0483,-0.0553 -0.0583,-0.0141 v 0 c -0.18221,0.015 -0.60676,0.0196 -0.83706,0.10629 -0.01,0.004 0.0119,0.0172 0.0179,0.0258 0.0136,0.006 0.27711,0.0944 0.10155,0.11267 -0.19687,0.0205 -0.47117,-0.2304 -0.56905,-0.30643 -0.31883,-0.24764 -0.60832,-0.53165 -0.92867,-0.77741 -0.55097,-0.32283 -0.83553,-0.62794 -1.56548,-0.39629 -0.43605,0.13837 -0.73112,0.57069 -0.81982,0.99087 -0.0657,0.31139 0.0465,0.64382 -0.0596,0.95289 -0.15654,0.88156 1.09018,1.10295 1.24672,0.22139 z" />
    <path
       style="opacity:1;fill:#c64600;stroke:none;stroke-width:0.272969"
       id="path1371"
       d="m 95.601062,113.77186 c 0.402362,-0.51282 0.781941,-1.10128 1.34589,-1.43119 0.276476,-0.16174 0.245054,-0.1475 0.215863,0.0158 -0.058,0.0404 -0.153665,0.0509 -0.173995,0.1213 -0.01675,0.058 0.06154,0.10228 0.09527,0.15132 0.0686,0.0996 0.147526,0.19138 0.211574,0.29437 0.123417,0.19848 0.376645,0.73453 0.538366,0.8836 0.162986,0.15024 0.376182,0.22495 0.564276,0.33744 0.23633,0.0343 0.47266,0.0687 0.708997,0.10292 0.0217,0.0386 0.0733,0.006 0.0515,-0.0327 v 0 c 0.10175,-0.20478 0.20351,-0.40956 0.305257,-0.61433 0.0296,-0.23702 0.11725,-0.47385 0.0889,-0.71105 -0.10375,-0.86879 -1.192764,-2.24035 -1.971743,-2.51549 -0.299406,-0.10579 -0.626486,-0.081 -0.939729,-0.12146 -0.222403,0.0944 -0.463254,0.15008 -0.667208,0.28341 -0.303556,0.19847 -0.513093,0.5975 -0.70775,0.89327 -0.307588,0.46735 -0.623268,0.92879 -0.921972,1.40272 -0.62639,0.94271 0.630084,1.88264 1.256475,0.93994 z" />
    <path
       style="opacity:1;fill:#c64600;stroke:none;stroke-width:0.219438"
       id="path1377"
       d="m 96.096087,105.01843 c -0.57404,1.34976 -0.479505,2.76693 -0.384715,4.15455 0.107011,0.49043 0.07754,0.98803 0.148833,1.48017 0.06386,0.44081 0.0825,0.69384 0.481957,1.05041 0.134792,0.12032 0.332468,0.20027 0.4987,0.3004 0.004,0.029 0.06374,0.0251 0.05973,-0.004 v 0 c 0.36971,-0.2898 0.571629,-0.38303 0.711414,-0.78879 0.22451,-0.6517 -0.03538,-1.46151 -0.08128,-2.11878 -0.08109,-0.6676 -0.140364,-1.01721 -0.15349,-1.69068 -0.0052,-0.26754 0.01984,-0.535 0.02,-0.80256 2.64e-4,-0.50369 -0.02471,-1.00872 -0.08166,-1.51094 0.07207,-0.5913 -1.147416,-0.66118 -1.219486,-0.0699 z" />
    <path
       style="opacity:1;fill:#c64600;stroke:none;stroke-width:0.219438"
       id="path1381"
       d="m 93.989067,102.87915 c 0.337418,0.58042 0.801822,1.14665 1.409385,1.61649 0.147643,0.11417 0.295262,0.2329 0.479361,0.31863 0.21898,0.10196 0.476446,0.15824 0.714669,0.23738 0.325178,-0.0208 0.674457,0.0244 0.97554,-0.0624 0.847381,-0.24418 1.27244,-1.04396 1.40671,-1.60929 0.0439,-0.18496 0.0998,-0.37849 0.041,-0.5615 -0.0637,-0.19826 -0.26433,-0.36331 -0.396499,-0.54497 0.01632,-0.0268 -0.03905,-0.0428 -0.05538,-0.0158 v 0 c -0.295915,0.0875 -0.63391,0.12652 -0.887746,0.2627 -0.26998,0.14484 -0.593275,0.67234 -0.723661,0.88547 -0.05077,0.083 -0.14109,0.16348 -0.135793,0.25339 0.0067,0.1136 0.640869,-0.10697 0.469699,0.1122 -0.0046,0.13778 0.01601,0.10027 -0.28091,-0.13432 -0.426673,-0.33712 -0.804455,-0.71089 -1.188702,-1.07079 -0.07365,-0.069 -0.145854,-0.13869 -0.218781,-0.20804 -0.53707,-0.78008 -2.14594,-0.25927 -1.608873,0.52082 z" />
    <path
       style="opacity:1;fill:#c64600;stroke:none;stroke-width:0.264999"
       id="path1385"
       d="m 78.801447,107.63045 c 0.06943,-0.12215 0.118473,-0.25841 0.208304,-0.36643 0.06359,-0.0765 0.60738,-0.55374 0.768295,-0.37183 0.02687,0.0304 -0.01397,0.0799 -0.02096,0.11986 0.04586,0.0495 0.09172,0.0989 0.137575,0.14841 0.705794,0.62481 1.601285,1.04783 2.557171,0.69181 0.694764,-0.25877 0.79266,-0.57246 1.1771,-1.12874 0.08145,-0.94662 0.154527,-0.49544 -0.207055,-1.35547 0.01476,-0.0398 -0.0415,-0.0606 -0.05625,-0.0209 v 0 c -0.733039,0.26207 -0.40445,0.10513 -0.996537,0.44757 -0.02106,0.0242 -0.385525,0.48408 -0.43343,0.49538 -0.423297,0.0999 -0.823476,-0.43099 -1.110914,-0.61362 -0.61817,-0.3317 -0.808908,-0.55234 -1.577764,-0.44242 -0.951214,0.13599 -1.381336,1.10226 -1.746287,1.85252 -0.38454,0.91977 0.916221,1.4636 1.300761,0.54382 z" />
    <path
       style="opacity:1;fill:#c64600;stroke:none;stroke-width:0.264999"
       id="path1391"
       d="m 90.29101,101.86677 c -0.716629,-0.23556 -1.558128,-0.4 -2.289458,-0.10219 -0.533876,0.21739 -0.634751,0.44479 -0.991335,0.86995 -0.06658,0.32173 -0.191987,0.63673 -0.199729,0.96519 -0.01064,0.4517 0.311724,1.45057 0.434996,1.85389 0.175884,0.57543 0.421439,1.25444 0.544602,1.84791 0.05568,0.26828 0.07511,0.54283 0.112671,0.81424 -0.01029,0.26922 0.07103,1.07829 -0.281599,1.26617 -0.02527,0.0135 -0.03845,-0.0436 -0.06293,-0.0585 -0.03464,-0.021 -0.07327,-0.0353 -0.111852,-0.0476 -0.100005,-0.0321 -0.202161,-0.0571 -0.303242,-0.0856 -0.152117,-0.077 -0.329668,-0.11681 -0.456353,-0.23089 -0.2374,-0.21378 -0.543791,-0.74082 -0.523947,-1.08386 0.01704,-0.2946 0.338606,-0.64899 0.559856,-0.80708 0.127473,-0.0911 0.280104,-0.14044 0.420156,-0.21066 0.48225,-0.0338 0.955415,-0.11121 1.437036,-0.16756 0.03363,0.0259 0.07021,-0.0217 0.03657,-0.0476 v 0 c -0.149315,-0.35172 -0.168735,-0.79432 -0.44795,-1.05517 -1.015222,-0.94846 -1.317813,-0.50813 -2.271093,-0.0731 -0.55794,0.6653 -0.902846,0.87235 -0.994582,1.79428 -0.03267,0.32828 0.03971,0.663 0.124399,0.98184 0.248814,0.93678 0.924086,1.64202 1.603812,2.28702 0.69008,0.27628 0.9936,0.54043 1.771515,0.27201 0.90688,-0.31292 1.249502,-1.19694 1.327255,-2.06579 0.02799,-0.31277 -0.0036,-0.62803 -0.0054,-0.94205 -0.05448,-0.34011 -0.09097,-0.68358 -0.163436,-1.02031 -0.13321,-0.619 -0.372385,-1.30853 -0.570211,-1.90976 -0.08541,-0.25958 -0.177882,-0.51689 -0.258287,-0.77807 -0.05146,-0.16715 -0.05805,-0.35046 -0.137154,-0.50644 -0.03342,-0.0659 -0.122037,-0.0833 -0.183055,-0.125 -0.03089,-0.17347 -0.06322,-0.15338 0.09423,-0.30401 0.348771,-0.33365 0.775785,-0.23222 1.199325,-0.13283 0.847404,0.41378 1.432581,-0.78463 0.585176,-1.19841 z" />
    <path
       style="opacity:1;fill:#c64600;stroke:none;stroke-width:0.264999"
       id="path1397"
       d="m 113.95779,122.37455 c -0.20288,-0.0964 -0.39525,-0.21903 -0.60863,-0.28915 -0.65337,-0.21471 -1.43851,-0.20404 -2.09433,-0.006 -0.20642,0.0622 -0.4308,0.11539 -0.59371,0.25662 -0.22284,0.19317 -0.34956,0.47506 -0.52435,0.7126 0.0125,0.32089 -0.0326,0.64928 0.0375,0.96268 0.0975,0.4362 0.58033,1.11707 0.77275,1.50379 0.23715,0.47662 0.54152,1.22035 0.60927,1.75517 0.0292,0.23051 -0.0265,0.46395 -0.0398,0.69592 -0.0596,0.13532 -0.0906,0.28736 -0.1789,0.40596 -0.0317,0.0426 -0.10078,0.0409 -0.15384,0.0408 -0.0671,-1.5e-4 -0.13388,-0.0186 -0.19691,-0.0416 -0.29794,-0.10845 -0.45868,-0.17708 -0.59954,-0.49598 -0.06,-0.13577 -0.0535,-0.29199 -0.0802,-0.43799 0.0505,-0.11943 0.065,-0.26157 0.15137,-0.35828 0.17478,-0.19578 0.65451,-0.14336 0.87172,-0.11751 0.13643,0.0162 0.27351,0.0791 0.4086,0.0541 0.26788,-0.0495 0.51376,-0.18142 0.77063,-0.27214 0.1854,0.1098 0.3708,0.2196 0.5562,0.3294 0.0324,0.0274 0.0711,-0.0185 0.0387,-0.0459 v 0 c -0.15177,-0.17481 -0.30353,-0.34962 -0.4553,-0.52443 -0.18159,-0.34483 -0.24621,-0.78401 -0.54477,-1.0345 -0.27251,-0.22862 -0.67272,-0.2756 -1.02829,-0.28525 -1.12693,-0.0306 -2.09358,0.7471 -2.22363,1.87832 -0.0353,0.30724 0.0914,0.61174 0.13716,0.91761 0.37112,0.69721 0.43924,1.03745 1.14499,1.4871 0.94937,0.60485 2.17647,0.52781 2.88492,-0.42885 0.2216,-0.29924 0.26321,-0.69666 0.39481,-1.04499 -0.004,-0.41268 0.0464,-0.82968 -0.0133,-1.23803 -0.10754,-0.73475 -0.48755,-1.5861 -0.83995,-2.23205 -0.12314,-0.2257 -0.27633,-0.43391 -0.42528,-0.64347 -0.0785,-0.1104 -0.1375,-0.2502 -0.25625,-0.31533 -0.061,-0.0335 -0.13203,0.0441 -0.19805,0.0661 -0.0896,0.0109 -0.21201,0.10281 -0.26868,0.0326 -0.0485,-0.0601 0.0893,-0.13434 0.15814,-0.16955 0.45552,-0.2331 0.97035,-0.12046 1.44774,-0.074 0.73791,0.6641 1.6771,-0.37946 0.93919,-1.04357 z" />
    <path
       style="opacity:1;fill:#613583;stroke:none;stroke-width:0.264999"
       id="path1454"
       d="m 106.26133,76.593673 c 0.76814,1.255778 1.58417,2.48087 2.26709,3.787386 0.65067,1.244824 0.85017,1.76095 1.42412,3.066441 0.77209,2.042766 1.69968,4.068085 2.08597,6.232938 0.19218,1.076986 0.17738,1.57803 0.22351,2.663481 0.004,1.118896 -0.0429,2.239256 -0.15075,3.353152 -0.0222,0.229949 -0.0542,0.458856 -0.0829,0.688096 -0.0214,0.171453 -0.0786,0.34154 -0.0674,0.513964 0.008,0.128349 0.083,0.243477 0.12451,0.365215 0.19472,0.105034 0.38944,0.210066 0.58415,0.3151 -0.0161,0.03925 0.0394,0.06202 0.0555,0.02275 v 0 c 0.2383,-0.0013 0.47661,-0.0026 0.71491,-0.0038 0.10094,-0.119216 0.23596,-0.216472 0.3028,-0.357651 0.0944,-0.199289 0.25191,-1.206119 0.27243,-1.348663 0.173,-1.202071 0.25489,-2.415691 0.25723,-3.630113 -0.0515,-1.313759 -0.0247,-1.717484 -0.25084,-3.027484 -0.3968,-2.298991 -1.29657,-4.466778 -2.14803,-6.624497 -1.09912,-2.541802 -2.25346,-5.138301 -4.18084,-7.175846 -0.81988,-1.012225 -2.25138,0.147267 -1.4315,1.159491 z" />
    <path
       style="opacity:1;fill:#613583;stroke:none;stroke-width:0.264999"
       id="path1456"
       d="m 109.60947,94.174431 c 0.3081,1.039608 0.59145,2.105509 1.06222,3.087507 0.10683,0.222845 0.20469,0.456726 0.36319,0.64634 0.19435,0.232529 0.45384,0.401751 0.68076,0.602626 0.35461,0.06876 0.70266,0.212487 1.06381,0.206282 0.64306,-0.01103 1.31644,-0.392898 1.83813,-0.715722 0.65683,-0.406442 1.01583,-0.653179 1.41013,-1.340154 0.15794,-0.27518 0.22948,-0.591619 0.34423,-0.887431 0.0341,-0.02521 -0.002,-0.07347 -0.0357,-0.04825 v 0 c -0.30812,0.01669 -0.62015,-0.0016 -0.92436,0.05011 -0.8428,0.143303 -0.87852,0.281437 -1.60102,0.646554 -0.19734,0.09973 -0.40121,0.185973 -0.60186,0.278868 -0.1037,0.04801 -0.22608,0.0676 -0.3112,0.143854 -0.0345,0.03087 -0.003,0.0925 -0.004,0.138743 -0.27946,-0.02363 -0.12866,0.02151 -0.3459,-0.477478 -0.4182,-0.960565 -0.69056,-1.977459 -1.09926,-2.941775 -0.43129,-1.300316 -2.27021,-0.690385 -1.83893,0.609931 z" />
    <path
       style="opacity:1;fill:#613583;stroke:none;stroke-width:0.264999"
       id="path1466"
       d="m 124.41731,84.549971 c -0.16941,-0.06809 -0.33147,-0.158501 -0.50821,-0.204277 -1.07683,-0.278878 -2.46757,-0.172064 -3.33419,0.599398 -0.21265,0.189307 -0.35355,0.446363 -0.53032,0.669547 -0.0626,0.296108 -0.19161,0.585687 -0.18794,0.888328 0.004,0.290761 0.098,0.57817 0.209,0.846936 0.38471,0.931632 1.25872,1.52124 2.04649,2.07673 0.51275,0.351994 1.12609,0.738918 1.26422,1.399361 0.0119,0.05677 2.6e-4,0.116001 2.7e-4,0.174003 -0.0189,0.01961 -0.0308,0.05054 -0.0568,0.05883 -0.015,0.0048 -0.0858,-0.0488 -0.0971,-0.05349 -0.0326,-0.01352 -0.0662,-0.02556 -0.10094,-0.03153 -0.73117,-0.125645 0.0984,0.100581 -1.03064,-0.27359 -1.15467,-0.453337 -0.52157,-0.32235 -1.91521,-0.3063 -0.0316,-0.02836 -0.0717,0.01627 -0.0401,0.04463 v 0 c 0.39798,1.710624 -0.0389,0.991513 1.34183,2.13804 0.91704,0.297503 1.39702,0.584885 2.37689,0.415306 0.7966,-0.137856 1.45495,-0.841116 1.65576,-1.598472 0.0626,-0.236228 0.0425,-0.486926 0.0638,-0.730391 -0.044,-0.229946 -0.063,-0.466145 -0.13208,-0.689837 -0.20674,-0.66919 -0.65028,-1.263327 -1.1748,-1.7165 -0.3183,-0.274995 -0.63365,-0.435303 -0.9932,-0.642348 -0.38965,-0.219181 -0.47425,-0.249917 -0.82503,-0.509915 -0.11177,-0.08285 -0.21544,-0.176128 -0.32435,-0.262713 -0.18244,-0.145042 -0.23832,-0.22746 -0.45608,-0.168079 0.003,-0.246687 -0.0339,-0.173318 0.27861,-0.39261 0.1289,-0.09045 0.25948,-0.187569 0.40944,-0.235612 0.21617,-0.06926 0.70532,-0.08286 0.94803,-0.05283 0.079,0.0098 0.15295,0.04425 0.22943,0.06638 1.06701,0.624416 1.95007,-0.884571 0.88306,-1.508988 z" />
    <path
       style="opacity:1;fill:#613583;stroke:none;stroke-width:0.264999"
       id="path1468"
       d="m 126.4956,86.505758 c 0.51272,-0.03103 0.30555,-0.0093 0.93333,-0.10047 0.21844,-0.03171 0.44296,-0.03706 0.65466,-0.09955 0.20917,-0.06174 0.44691,-0.110596 0.59612,-0.269653 0.22913,-0.244242 0.32212,-0.58724 0.48317,-0.880859 0.0424,-7.93e-4 0.0413,-0.06079 -0.001,-0.05999 v 0 c -0.22403,-0.286367 -0.37448,-0.650222 -0.67207,-0.8591 -0.20381,-0.143049 -0.48681,-0.124148 -0.73577,-0.12904 -0.23036,-0.0045 -0.45651,0.06322 -0.68377,0.101143 -0.49498,0.08259 -0.45501,0.07964 -0.84912,0.184393 -1.49421,0.194154 -1.21963,2.30728 0.27457,2.113124 z" />
    <path
       style="opacity:1;fill:#613583;stroke:none;stroke-width:0.264999"
       id="path1470"
       d="m 131.63655,85.347399 c 0.53382,-0.461097 1.01589,-0.97739 1.50727,-1.482289 0.0982,-0.100872 0.18501,-0.21432 0.29504,-0.302114 0.0785,-0.06262 0.17624,-0.09618 0.26437,-0.144269 0.0331,-0.01723 0.13607,-0.04445 0.0994,-0.05163 -0.53114,-0.104074 -1.07571,-0.132051 -1.60536,-0.243451 -0.049,-0.01029 -0.0792,-0.161372 -0.097,-0.114599 -0.0562,0.147701 -0.0295,0.314748 -0.0392,0.472488 -0.047,0.76427 -0.0333,0.775874 -0.0344,1.603338 0.009,0.200869 0.0397,1.496957 0.15083,1.726403 0.21917,0.452525 0.76702,0.718487 1.16527,0.961996 0.008,0.04176 0.0666,0.03114 0.0591,-0.01061 v 0 c 0.20753,-0.245938 0.73914,-0.825571 0.82295,-1.142177 0.13216,-0.499311 -0.22596,-1.051065 -0.0716,-1.547868 -0.0112,-0.815094 -0.0229,-0.689358 0.013,-1.44096 0.009,-0.183703 0.10184,-1.162725 -0.0378,-1.256083 -1.38711,-0.92723 -1.3685,-0.845344 -1.81707,-0.279014 -0.0435,0.0905 -0.0722,0.189767 -0.13055,0.271513 -0.0795,0.111487 -0.18485,0.202157 -0.27866,0.301948 -0.44544,0.473834 -0.9016,0.938037 -1.37727,1.381638 -0.91624,0.78617 0.19557,2.081924 1.11181,1.295754 z" />
    <path
       style="opacity:1;fill:#a51d2d;stroke:none;stroke-width:0.264999"
       id="path1551"
       d="m 126.08263,59.631712 c 1.23757,-0.85965 2.17513,-2.052773 3.26881,-3.071472 0.16816,-0.156636 0.75057,-0.378851 0.52948,-0.441563 -0.36604,-0.103825 -0.7381,0.185142 -1.10714,0.277712 -0.18245,-0.129968 -0.37762,-0.536091 -0.54734,-0.389906 -0.26137,0.22511 -0.12647,0.678244 -0.18259,1.018591 -0.19654,1.191887 -0.41426,2.425377 -0.3718,3.63928 0.01,0.272201 0.0682,0.540443 0.10235,0.810665 0.32251,0.139686 0.64502,0.279373 0.96753,0.419063 0.004,0.04219 0.0641,0.03592 0.0597,-0.0063 v 0 c 0.29071,-0.162766 0.58142,-0.325533 0.87212,-0.488297 0.0604,-0.940003 0.0722,-1.849249 0.19359,-2.788324 0.0533,-0.4123 0.11981,-0.822812 0.18581,-1.233268 0.0589,-0.366019 0.21557,-0.726279 0.18875,-1.096029 -0.0394,-0.543456 -0.25565,-1.059359 -0.38348,-1.589039 -0.46165,0.03361 -0.9509,-0.05993 -1.38496,0.100824 -0.22098,0.08184 -0.27337,0.384241 -0.42091,0.567987 -0.82991,1.033571 -1.76962,1.982081 -2.79754,2.818762 -1.02622,0.585235 -0.19857,2.036524 0.82765,1.45129 z" />
    <path
       style="opacity:1;fill:#a51d2d;stroke:none;stroke-width:0.264999"
       id="path1553"
       d="m 126.94683,62.956362 c 0.53274,-0.05707 1.06713,-0.09703 1.60014,-0.151278 0.42438,-0.0432 0.86089,-0.02551 1.27217,-0.138686 0.78987,-0.217369 1.51391,-0.730248 2.19706,-1.15629 0.0424,-0.0013 0.0406,-0.06127 -0.002,-0.05997 v 0 c -0.73271,-0.394927 -1.48149,-0.866526 -2.32331,-1.007671 -0.44649,-0.07486 -0.90585,-0.0079 -1.3581,0.01281 -0.90164,0.04117 -1.07412,0.09271 -1.87852,0.232505 -1.60414,0.348176 -1.11174,2.616764 0.49239,2.268591 z" />
    <path
       style="opacity:1;fill:#a51d2d;stroke:none;stroke-width:0.264999"
       id="path1555"
       d="m 131.49057,59.97227 c 0.7635,-0.179099 1.6032,-0.177813 2.3258,-0.515623 0.35468,-0.165806 1.21489,-0.850148 1.55192,-1.109128 0.0423,-0.0027 0.0386,-0.06254 -0.004,-0.05988 v 0 c -0.58832,-0.318622 -1.16709,-0.689591 -1.84852,-0.793967 -0.82132,-0.125804 -1.64877,0.171593 -2.4459,0.302961 -1.53841,0.297307 -1.11795,2.47295 0.42046,2.17564 z" />
    <path
       style="opacity:1;fill:#a51d2d;stroke:none;stroke-width:0.264999"
       id="path1557"
       d="m 137.70133,61.341269 c 0.24465,-0.06822 0.4995,-0.10695 0.73394,-0.20465 1.03056,-0.42949 2.17219,-1.389729 2.22953,-2.598565 0.016,-0.33618 -0.11993,-0.662342 -0.17989,-0.993513 -0.23045,-0.278585 -0.37625,-0.658464 -0.69134,-0.835753 -1.35529,-0.762561 -2.73658,0.01013 -3.48636,1.182952 -0.59892,0.936847 -0.50668,1.39301 -0.58177,2.434878 0.33345,0.942018 0.32553,1.67032 1.60247,1.880119 1.15022,0.188981 1.9265,-0.619667 2.31791,-1.574811 0.33811,-0.825071 0.42758,-2.892374 0.49338,-3.749817 0.0385,-0.557893 0.0754,-1.115896 0.11541,-1.673683 0.01,-0.137258 0.17426,-1.575504 0.0543,-1.939647 -0.0943,-0.286144 -0.15969,-0.873482 -0.44771,-0.785125 -2.21212,0.678617 -1.76045,1.338739 -1.59712,2.801049 0.31766,1.644972 0.57318,3.417945 1.51754,4.854807 0.24422,0.371581 0.52768,0.748369 0.91007,0.9753 0.3303,0.196021 0.75213,0.15622 1.12819,0.23433 0.0265,0.03315 0.0734,-0.0043 0.0469,-0.03746 v 0 c 0.0486,-0.331708 0.17238,-0.660947 0.14565,-0.995124 -0.0487,-0.608346 -0.6482,-1.77302 -0.82512,-2.280655 -0.17072,-0.489855 -0.31436,-0.989637 -0.43611,-1.493901 -0.12088,-0.500629 -0.19396,-1.0116 -0.29094,-1.517402 -0.28193,-2.22913 0.33111,-0.39013 -1.91136,-0.78827 -0.26139,-0.04641 -0.12435,-0.578763 -0.35278,-0.714042 -0.16706,-0.09894 0.0722,0.38158 0.11224,0.571585 0.0795,0.37796 0.19009,0.750107 0.24632,1.132229 0.0758,0.514871 0.0993,1.036084 0.14898,1.554125 -0.036,0.558636 -0.0187,1.123286 -0.10801,1.675908 -0.37192,2.300676 -0.16826,0.454218 -0.61049,1.658522 -0.0139,0.03777 0.007,0.557313 -0.0672,0.562393 -0.1186,0.0081 -0.14543,-0.188087 -0.21815,-0.282128 -0.008,-0.201877 -0.0501,-0.405214 -0.0245,-0.605628 0.0488,-0.381789 0.22751,-0.815623 0.45527,-1.129604 0.0755,-0.10414 0.2062,-0.162052 0.27516,-0.270661 0.2179,-0.34316 -0.1149,-0.23739 0.23919,-0.291455 0.0464,0.02291 0.1115,0.02506 0.13937,0.06873 0.3234,0.506825 -1.11802,1.407467 -1.43146,1.653579 -1.07578,0.246447 -0.72725,1.767827 0.34853,1.521381 z" />
    <path
       style="opacity:1;fill:#a51d2d;stroke:none;stroke-width:0.264999"
       id="path1559"
       d="m 142.20098,57.324751 c -0.01,0.856136 0.049,1.727605 0.22361,2.567731 0.0672,0.323432 0.10028,0.666996 0.25943,0.956472 0.31574,0.574254 0.74973,0.722161 1.27384,1.004464 0.012,0.04068 0.0696,0.02365 0.0575,-0.01704 v 0 c 0.27366,-0.440013 0.58979,-0.848419 0.6407,-1.394579 0.0271,-0.290225 -0.0752,-0.57811 -0.11695,-0.866593 -0.10677,-0.73841 -0.24233,-1.475065 -0.26605,-2.222955 0.0195,-1.465204 -2.05267,-1.49271 -2.07211,-0.0275 z" />
    <path
       style="opacity:1;fill:#a51d2d;stroke:none;stroke-width:0.264999"
       id="path1561"
       d="m 143.5522,55.223595 c 0.67719,-1.191721 -0.0854,0.415544 0.002,-1.633228 0.009,-0.219329 0.23504,-0.370848 0.35256,-0.556274 0.0282,-0.0317 -0.0166,-0.07158 -0.0448,-0.03988 v 0 c -0.17116,0.139126 -0.29726,0.373756 -0.51347,0.41738 -1.94522,0.392467 -0.63071,-0.585467 -1.67283,0.347451 -1.03559,1.326602 0.84051,2.791148 1.8761,1.464546 z" />
    <path
       style="opacity:1;fill:#a51d2d;stroke:none;stroke-width:0.264999"
       id="path1563"
       d="m 145.48538,56.864995 c 0.16369,1.481283 0.25025,2.979367 0.57867,4.436579 0.27948,-0.612135 -0.16562,0.334454 1.75274,-0.660321 0.0743,-0.03852 -0.0847,-0.145944 -0.10961,-0.225835 -0.0572,-0.183803 -0.11136,-0.370409 -0.13556,-0.561393 -0.0879,-0.693486 -0.0234,-0.718992 0.12286,-1.385877 0.0641,-0.110331 0.28552,-0.659212 0.55661,-0.673751 0.0561,-0.003 0.0766,0.117137 0.0438,0.162825 -0.0719,0.100322 -0.2534,0.09492 -0.30789,0.20566 -0.0393,0.07998 0.0463,0.172752 0.0814,0.254699 0.0829,0.193831 0.18122,0.380706 0.27183,0.571058 0.28606,0.803246 0.52749,1.625751 0.73655,2.452486 0.0363,0.143402 0.0543,0.290913 0.0884,0.434854 0.0118,0.04977 -0.002,0.153336 0.0489,0.145444 0.63156,-0.09864 1.24362,-0.296294 1.86543,-0.444439 -0.29631,-1.045258 -0.26682,-2.233454 0.40103,-3.139062 0.10002,-0.135641 0.24123,-0.235421 0.36184,-0.353131 0.057,0.04303 0.18508,0.05913 0.17088,0.129082 -0.0474,0.233344 -0.3739,0.174186 -0.28403,0.454869 0.0629,0.196387 0.19083,0.365755 0.27826,0.552513 0.35775,0.764199 0.41449,0.940933 0.72747,1.727611 0.65291,1.120954 0.0772,0.450738 1.2429,1.095224 0.14256,0.07882 0.25975,0.196649 0.38962,0.294973 0.0108,0.04103 0.0688,0.02577 0.058,-0.01527 v 0 c 0.0625,-0.157734 0.11308,-0.320699 0.18743,-0.473197 0.58404,-1.198047 0.51505,-0.441227 0.31339,-1.744459 -0.60557,-1.622761 -1.61142,-4.649972 -3.97212,-3.880345 -0.32765,0.106823 -0.53661,0.432586 -0.80491,0.648881 -0.15664,0.2702 -0.3444,0.52461 -0.46992,0.810598 -0.58385,1.33024 -0.5731,2.765909 -0.44029,4.178795 0.63574,-0.05885 1.27922,-0.06144 1.90722,-0.176551 0.0564,-0.01035 0.002,-0.115094 -0.006,-0.171953 -0.0225,-0.170315 -0.0559,-0.339003 -0.0838,-0.508511 -0.17169,-1.043649 -0.40792,-2.06602 -0.84779,-3.03657 -0.35422,-0.604959 -0.69103,-1.399304 -1.39316,-1.722979 -1.18429,-0.545952 -2.07185,-0.04691 -2.57345,1.039251 -0.13321,0.288436 -0.17978,0.609455 -0.26967,0.91418 -0.0382,0.339276 -0.10283,0.676612 -0.11457,1.017829 -0.0161,0.468262 0.0677,1.250071 0.1583,1.72603 0.0405,0.212916 -0.0562,0.600843 0.15852,0.630606 0.63286,0.08773 1.277,-0.151003 1.885,-0.347311 0.0848,-0.02739 0.0114,-0.177898 0.0172,-0.266848 -0.15859,-1.452584 -0.41746,-2.893841 -0.55843,-4.348948 -0.17869,-1.437667 -2.21185,-1.184963 -2.03316,0.252706 z" />
    <path
       style="opacity:1;fill:#a51d2d;stroke:none;stroke-width:0.264999"
       id="path1593"
       d="m 128.22178,106.2449 c -0.25227,1.50945 -0.41312,3.03834 -0.47994,4.56739 -0.0347,0.79376 -0.0768,1.58968 -0.038,2.38326 0.0336,0.68698 0.0721,1.38446 0.25438,2.04767 0.13484,0.49056 0.45571,0.90975 0.68356,1.36463 -0.003,0.0423 0.0568,0.0466 0.0598,0.004 v 0 c 0.29205,-0.43445 0.68529,-0.81589 0.87615,-1.30335 0.24869,-0.6351 0.32364,-1.32749 0.41845,-2.00293 0.10788,-0.76852 0.13068,-1.54663 0.18843,-2.32054 0.10937,-1.46585 0.1842,-2.93418 0.37537,-4.39288 0.24576,-1.65339 -2.09249,-2.00095 -2.33825,-0.34756 z" />
    <path
       style="opacity:1;fill:#a51d2d;stroke:none;stroke-width:0.264999"
       id="path1595"
       d="m 129.93333,107.89778 c 0.0948,-0.0754 0.17907,-0.16633 0.28431,-0.22628 0.29523,-0.16818 0.88931,-0.40913 1.22759,-0.21703 0.10504,0.0597 0.10371,0.36592 0.11021,0.44732 0.0441,0.52353 -0.23206,0.88088 -0.59274,1.23687 -0.1417,0.13985 -0.32964,0.23118 -0.45804,0.38333 -0.24474,0.29001 -0.4351,0.62186 -0.65264,0.93279 -0.0419,0.007 -0.0327,0.0658 0.009,0.0593 v 0 c 0.49673,0.19977 0.95528,0.62216 1.49019,0.5993 1.84869,-0.079 2.71759,-2.04537 2.44352,-3.62634 -0.077,-0.44417 -0.37094,-0.82175 -0.55641,-1.23262 -0.33714,-0.27181 -0.61733,-0.63587 -1.01141,-0.81541 -0.98981,-0.45095 -2.05307,-0.0744 -2.81989,0.58933 -0.39328,0.3404 -0.52318,0.6182 -0.772,1.0349 -0.59012,0.91789 0.70797,1.75244 1.29808,0.83456 z" />
    <path
       style="opacity:1;fill:#a51d2d;stroke:none;stroke-width:0.264999"
       id="path1601"
       d="m 135.87889,109.46211 c 0.37342,-0.0424 1.65492,-0.16887 1.92308,-0.29451 0.4408,-0.20654 0.77134,-0.59544 1.17718,-0.86424 0.33283,-0.22044 0.69045,-0.40094 1.03567,-0.60141 0.0418,-0.007 0.0318,-0.0662 -0.01,-0.0592 v 0 c -1.60208,-0.32344 -0.78772,-0.0846 -2.43166,-0.75439 -0.31049,-0.0652 -1.6211,0.0635 -1.99665,0.0948 -1.75285,0.21381 -1.45048,2.69272 0.30237,2.47891 z" />
    <path
       style="opacity:1;fill:#a51d2d;stroke:none;stroke-width:0.264999"
       id="path1603"
       d="m 142.341,110.24632 c 0.8663,-0.14047 1.97409,-0.54854 2.46988,-1.33237 0.17268,-0.273 0.34752,-0.57632 0.36172,-0.89903 0.0177,-0.40254 -0.18018,-0.78546 -0.27028,-1.17819 -0.60898,-0.63547 -0.80957,-1.04239 -1.72936,-1.22976 -1.18462,-0.24132 -2.50811,0.26778 -3.11284,1.3515 -0.20835,0.37337 -0.24278,0.81993 -0.36418,1.2299 0.0676,0.40884 0.0544,0.83956 0.20268,1.22652 0.40623,1.06035 1.57617,1.90749 2.74995,1.68573 1.15569,-0.21833 1.2784,-0.74119 1.90556,-1.60546 0.26234,-1.04845 0.4563,-1.58306 0.50333,-2.65069 0.0196,-0.44578 -0.0171,-0.89244 -0.0409,-1.33803 -0.051,-0.95433 -0.17892,-1.88946 -0.31928,-2.83299 -0.0543,-0.15659 -0.002,-0.429 -0.16296,-0.46976 -0.60194,-0.15274 -1.32469,-0.35467 -1.86253,-0.0442 -0.37081,0.21406 -0.24209,0.83273 -0.24515,1.26089 -0.006,0.86795 0.45594,2.68143 0.74553,3.4269 0.23611,0.60778 0.58087,1.16756 0.87131,1.75133 1.55953,1.49002 0.72469,0.9353 2.43646,1.76233 0.0261,0.0334 0.0734,-0.003 0.0473,-0.0369 v 0 c -0.25612,-1.67081 -0.0868,-0.79969 -0.53017,-2.6089 -0.60451,-1.51257 -0.65609,-1.50168 -1.06481,-3.09091 -0.10267,-0.3992 -0.095,-0.83033 -0.25603,-1.20978 -0.0324,-0.0765 -0.16603,0.0315 -0.24843,0.0208 -2.11804,-0.2766 -2.24771,-0.27096 -1.60887,-0.27517 0.0651,0.15875 0.14698,0.31161 0.19527,0.47626 0.37646,1.28347 0.39714,2.66766 0.0977,3.96984 -0.0625,0.27174 -0.17363,0.52994 -0.26045,0.79492 -0.0574,0.13505 -0.12228,0.26718 -0.17222,0.40516 -0.0237,0.0654 -0.0123,0.14342 -0.0479,0.20312 -0.24359,0.40733 -0.73292,-0.1725 -0.85607,-0.38227 -0.0153,-0.093 -0.0666,-0.18713 -0.0458,-0.27907 0.0604,-0.26702 0.4231,-0.64011 0.69912,-0.69286 0.0337,-0.006 0.43177,0.0443 0.51549,0.0546 0.054,-0.0695 0.0885,-0.16009 0.16203,-0.20842 0.0378,-0.0248 0.13224,-0.0319 0.13499,0.0132 0.0189,0.31059 -1.04677,0.72138 -1.27852,0.8347 -1.34147,0.26763 -0.96299,2.16475 0.37848,1.89712 z" />
    <path
       style="opacity:1;fill:#a51d2d;stroke:none;stroke-width:0.264999"
       id="path1605"
       d="m 149.26633,109.60337 c -0.0612,-0.59604 -0.0898,-1.74081 -0.48255,-2.20579 -0.27764,-0.32871 -0.6926,-0.51076 -1.0389,-0.76614 -0.006,-0.0421 -0.0651,-0.0341 -0.0595,0.008 v 0 c -0.26661,0.34182 -0.61102,0.63524 -0.79984,1.02545 -0.2257,0.46644 -0.009,1.5096 -0.0322,2.04394 0.0745,1.70618 2.48743,1.6008 2.41291,-0.10539 z" />
    <path
       style="opacity:1;fill:#a51d2d;stroke:none;stroke-width:0.264999"
       id="path1607"
       d="m 147.72757,104.45621 c -0.10931,-0.4713 -0.21863,-0.94261 -0.32794,-1.41392 0.0274,-0.0324 -0.0185,-0.0711 -0.0459,-0.0387 v 0 c -0.43745,-0.0826 -0.8749,-0.1652 -1.31235,-0.24781 -1.2024,1.19229 0.48375,2.89273 1.68614,1.70044 z" />
    <path
       style="opacity:1;fill:#a51d2d;stroke:none;stroke-width:0.264999"
       id="path1609"
       d="m 149.6552,107.01099 c 0.028,0.30932 0.058,0.61847 0.0841,0.92797 0.1492,1.76851 0.0209,0.39148 0.16709,2.0754 0.022,0.25326 0.0426,0.5067 0.0705,0.75937 0.0162,0.14638 -0.0124,0.31028 0.0618,0.43745 0.0415,0.0711 0.0351,-0.16098 0.0526,-0.24147 0.6149,-0.0988 1.29865,0.003 1.8447,-0.29633 0.18682,-0.10246 -0.14751,-0.40118 -0.19356,-0.60921 -0.0692,-0.31256 -0.1314,-0.62889 -0.15123,-0.9484 -0.0413,-0.66468 -0.005,-1.249 0.28063,-1.85687 0.0799,-0.17018 0.23123,-0.29652 0.34685,-0.44478 0.0731,0.0152 0.20548,-0.0278 0.21932,0.0456 0.2072,1.09883 -0.47953,-0.35295 -0.10894,0.57216 0.0668,0.16681 0.17875,0.31241 0.25262,0.47622 0.26372,0.58483 0.30037,0.79222 0.4835,1.41578 0.10786,0.50315 0.14937,0.6551 0.22239,1.12623 0.011,0.0709 -0.0103,0.27669 0.0243,0.21381 0.11329,-0.20633 0.002,-0.59438 0.22572,-0.66911 1.60331,-0.53676 1.77622,0.71794 1.52724,-0.32245 -0.0752,-0.59034 -0.15268,-1.23335 0.16416,-1.77639 0.033,-0.0565 0.3043,-0.42192 0.35968,-0.0979 0.0155,0.0907 -0.0298,0.18157 -0.0447,0.27236 0.50128,0.46535 0.97646,0.94699 1.29134,1.5651 0.13588,0.26674 0.20991,0.561 0.32961,0.83538 0.1252,0.287 0.19984,0.61087 0.40464,0.84772 0.20696,0.23936 0.52475,0.35375 0.78713,0.53062 0.26135,-0.0713 0.5227,-0.14271 0.78405,-0.21407 0.0423,0.003 0.047,-0.0565 0.005,-0.0598 v 0 c 0.0451,-0.0884 0.0903,-0.17674 0.13539,-0.26511 0.2754,-0.72756 0.32238,-0.62335 0.0559,-1.66743 -0.34648,-1.35756 -1.09411,-2.53222 -2.29518,-3.28964 -0.35668,-0.22493 -0.76822,-0.34803 -1.15232,-0.52205 -0.44878,0.0239 -0.92,-0.0705 -1.34633,0.0717 -0.33806,0.11271 -0.61292,0.38555 -0.84246,0.65812 -0.75403,0.89541 -0.65413,2.4493 -0.54438,3.52753 0.20675,1.00257 0.0903,1.43632 1.96081,1.25711 0.67751,-0.0649 0.11679,-2.44398 0.0552,-2.66915 -0.23718,-0.74673 -0.3807,-1.3481 -0.8038,-2.02892 -0.66352,-1.06767 -1.69517,-1.93411 -3.03802,-1.36479 -0.30955,0.13123 -0.4804,0.47051 -0.72061,0.70577 -0.12031,0.31148 -0.28005,0.61048 -0.36095,0.93445 -0.23903,0.95721 -0.2191,2.39532 -0.21573,3.39317 10e-4,0.29124 -0.22719,0.72751 0.0249,0.87338 0.5864,0.33931 1.33975,0.20258 2.00962,0.30387 0.0339,-0.14213 0.0852,-0.28121 0.10158,-0.42639 0.0315,-0.27891 -0.0392,-1.04371 -0.0546,-1.23736 -0.0811,-1.02271 -0.18089,-2.0439 -0.29832,-3.06307 -0.17291,-1.52812 -2.334,-1.2836 -2.16109,0.24452 z" />
    <path
       style="fill:#aba8af;stroke-width:0.264999"
       id="path712"
       d="m 69.005733,65.494998 c -0.03265,0.05551 -0.07108,0.108006 -0.09795,0.166537 -0.05959,0.129841 -0.107212,0.264848 -0.160816,0.397272 -0.100161,0.227081 -0.194707,0.456721 -0.300479,0.681243 -0.290153,0.615921 -0.572628,1.179005 -0.948685,1.749621 -0.1754,0.266145 -0.379159,0.512477 -0.568738,0.768718 -0.347517,0.361418 -0.568026,0.659053 -1.002252,0.897731 -0.07013,0.03855 -0.156681,0.06968 -0.234561,0.05125 -0.03599,-0.0085 0.02942,-0.07435 0.06186,-0.09212 0.05445,-0.02982 0.14202,0.0066 0.18161,-0.04121 0.04947,-0.05973 0.02801,-0.152561 0.04201,-0.22884 0.009,-0.172474 0.0049,-0.346126 0.02702,-0.517419 0.052,-0.403802 0.110591,-0.686491 0.331291,-1.028558 0.06491,-0.10061 0.145052,-0.196865 0.245205,-0.262479 0.04427,-0.029 0.167597,-0.05433 0.158739,-0.0021 -0.01625,0.09557 -0.130011,0.143838 -0.195016,0.215757 -0.09624,0.05549 -0.294841,0.05556 -0.288714,0.166486 0.01159,0.209752 0.218731,0.358712 0.327639,0.538348 0.166899,0.275283 0.328451,0.553852 0.499777,0.826402 0.338722,0.538853 0.847082,1.351489 1.310571,1.788539 0.25758,0.242887 0.578991,0.407596 0.868487,0.611394 1.350185,-0.144955 0.829741,-0.310113 1.634323,0.110638 0.03761,0.01963 0.06537,-0.03357 0.02776,-0.0532 v 0 c -0.748776,-0.389895 -0.445953,-0.0645 -0.440494,-1.258639 -0.150744,-0.243914 -0.286579,-0.497697 -0.452229,-0.731742 -1.349896,-1.907233 0.181761,0.505809 -1.131416,-1.57457 -0.186897,-0.296087 -0.923005,-1.560848 -1.192605,-1.792861 -0.349472,-0.300747 -0.798229,-0.461674 -1.197345,-0.692513 -0.326795,0.07627 -0.679857,0.07949 -0.980387,0.228801 -0.232828,0.115676 -0.404315,0.333518 -0.564142,0.538565 -0.486465,0.624107 -0.733348,1.589606 -0.783095,2.363653 -0.02008,0.312446 0.01368,0.626033 0.0205,0.939048 0.108416,0.328793 0.13371,0.697982 0.325247,0.986377 0.617524,0.929807 1.64564,0.992926 2.56181,0.527289 0.623736,-0.317011 1.007948,-0.808043 1.482727,-1.301616 0.232479,-0.316206 0.482817,-0.620029 0.697442,-0.948618 0.352996,-0.540438 0.815668,-1.424996 1.072409,-2.023168 0.210809,-0.491162 0.400759,-1.008939 0.466315,-1.544217 0.01942,-0.158554 0.0011,-0.319476 0.0016,-0.479216 -0.01376,-1.276649 -1.819219,-1.257176 -1.805453,0.01947 z" />
    <path
       style="fill:#aba8af;stroke-width:0.264999"
       id="path722"
       d="m 61.77494,110.06778 c 0.258413,0.75083 0.537829,1.51802 1.021217,2.15921 0.144706,0.19193 0.298448,0.38178 0.484042,0.53454 0.196435,0.16168 0.433658,0.26618 0.650486,0.39927 0.268846,0.0346 0.539666,0.15142 0.806535,0.10391 0.759719,-0.13525 1.069837,-0.54771 1.301126,-1.24725 0.251584,-0.76092 0.02492,-1.79262 -0.119457,-2.55326 -0.285454,-1.06444 -0.640339,-2.58321 -2.002396,-0.5865 -0.182491,0.26752 0.801531,1.08878 0.84895,1.13414 0.517353,0.29175 0.82845,0.51423 1.414111,0.65753 0.234143,0.0573 0.487897,0.15316 0.718404,0.0827 1.677887,-0.51318 0.05941,-0.64206 1.241782,-0.46676 0.04122,0.0101 0.05543,-0.0482 0.01421,-0.0583 v 0 c -1.007859,-0.34625 0.12334,0.1622 -0.852133,-0.97652 -0.124881,-0.14578 -0.341461,-0.17645 -0.518737,-0.25007 -1.418249,-0.589 0.308186,0.20868 -0.900954,-0.36229 -0.07815,-0.0372 -0.14864,-0.10021 -0.234434,-0.11168 -0.03107,-0.004 -0.03204,0.0584 -0.06014,0.0723 -0.454576,0.22444 -0.8939,0.49561 -1.380207,0.63884 -0.0723,0.0213 -0.16882,-0.23307 -0.09973,-0.20294 0.237794,0.10371 0.104968,0.66047 0.323185,0.708 0.107252,0.58461 0.148852,0.60165 0.109929,1.18624 -0.009,0.13488 -0.06067,0.26541 -0.06337,0.40056 -0.0039,0.19773 0.333931,0.0267 0.304147,0.24218 -0.268883,-0.0627 -0.199615,-0.014 -0.446326,-0.33015 -0.401889,-0.51493 -0.621644,-1.13826 -0.854996,-1.73981 -0.400333,-1.20579 -2.105572,-0.63963 -1.705239,0.56615 z" />
    <path
       style="fill:#aba8af;stroke-width:0.264999"
       id="path726"
       d="m 67.137155,114.17583 c 0.122957,-0.0593 0.249436,-0.11172 0.368871,-0.1778 0.291119,-0.16107 0.508776,-0.32189 0.775441,-0.51978 0.0085,-0.006 0.517663,-0.40009 0.576427,-0.4312 0.06502,-0.0344 0.14112,-0.0416 0.211682,-0.0624 -0.121319,0.0665 -0.242639,0.13295 -0.363955,0.19942 -0.324581,-0.11618 -0.646573,-0.45721 -0.973741,-0.34853 -0.206126,0.0685 0.02898,0.43491 0.07411,0.64737 0.09823,0.46244 0.372324,1.46394 0.702662,1.84174 0.217961,0.24927 0.547684,0.37231 0.821528,0.55847 0.01077,0.041 0.06881,0.0258 0.05803,-0.0152 v 0 c 0.150178,-0.28461 0.368025,-0.54278 0.450535,-0.85382 0.07774,-0.29304 0.02937,-0.60643 0.01717,-0.90937 -0.0021,-0.0513 -0.136025,-1.54349 -0.217898,-1.66208 -0.289626,-0.41948 -0.661082,-0.81663 -1.117163,-1.04431 -0.173355,-0.0865 -0.359349,0.14502 -0.539025,0.21753 -0.03407,0.0623 -0.05577,0.13324 -0.102206,0.18701 -0.06443,0.0746 -0.148408,0.12985 -0.225026,0.19187 -0.394628,0.31946 -0.816237,0.60576 -1.193106,0.94707 -0.872631,0.47776 -0.196977,1.71185 0.67565,1.23409 z" />
    <path
       style="fill:#aba8af;stroke-width:0.264999"
       id="path728"
       d="m 95.632835,140.85002 c 0.195437,0.94216 0.358849,1.94888 0.904745,2.76653 0.118018,0.17676 0.27173,0.3269 0.407594,0.49035 0.430244,0.28797 0.753528,0.6181 1.360863,0.45588 0.722627,-0.19301 1.096436,-0.68476 1.412092,-1.29257 0.297671,-0.57318 0.361291,-1.01224 0.510681,-1.63553 0.13207,-0.65911 0.19687,-1.32861 0.16186,-2.00031 -0.006,-0.12188 -0.0399,-0.50484 -0.0943,-0.64206 -0.0582,-0.14687 -0.14512,-0.28071 -0.21769,-0.42106 -0.535328,0.1809 -1.139986,0.2231 -1.605986,0.5427 -0.145571,0.0998 0.0057,0.35562 0.0454,0.52761 0.144184,0.62455 0.636465,1.19049 1.141314,1.55713 0.217482,0.15794 0.465692,0.26853 0.698542,0.4028 1.08328,0.17905 0.54558,0.26398 1.58529,-0.3922 0.0411,0.0107 0.0562,-0.0474 0.0151,-0.0581 v 0 c -0.35335,-0.96849 -0.0743,-0.62559 -0.68714,-1.13439 -0.3762,-0.21659 -0.37394,-0.18975 -0.68751,-0.46261 -0.0621,-0.0541 -0.12167,-0.11166 -0.17487,-0.17452 -0.0307,-0.0363 -0.0282,-0.12737 -0.0753,-0.12109 -0.0466,0.006 -0.0248,0.0907 -0.0372,0.13609 -0.527483,0.12991 -1.054961,0.25983 -1.58244,0.38974 -0.05079,-0.11585 -0.104243,-0.23058 -0.152363,-0.34757 -0.003,-0.007 0.01508,0.01 0.01654,0.0174 0.01207,0.0646 0.02085,0.13012 0.02326,0.1958 0.01865,0.50821 -0.04888,1.01616 -0.148751,1.51316 -0.213455,0.70589 -0.11098,0.46368 -0.405958,1.09029 -0.04909,0.10427 -0.199763,0.20491 -0.152792,0.31015 0.04154,0.0931 0.206222,0.002 0.304366,0.0295 0.326493,0.0915 0.335868,0.0547 0.259853,0.16715 -0.0483,-0.0434 -0.105929,-0.0784 -0.144915,-0.13034 -0.490376,-0.6537 -0.519761,-1.58501 -0.81733,-2.3278 -0.387442,-1.31729 -2.250368,-0.76936 -1.862928,0.54792 z" />
    <path
       style="fill:#aba8af;stroke-width:0.264999"
       id="path732"
       d="m 102.64154,143.56828 c 0.15739,-0.0889 0.74258,-0.3578 0.90722,-0.21856 0.0192,0.0163 -0.003,0.0664 -0.0282,0.0701 -0.0909,0.0136 -0.18305,-0.0166 -0.27457,-0.0249 -0.0368,0.002 -0.0912,-0.0257 -0.11051,0.006 -0.0414,0.0674 -0.0213,0.15696 -0.0371,0.23453 -0.0257,0.12653 -0.0505,0.25359 -0.0871,0.3774 -0.10039,0.3394 -0.25513,0.63692 -0.42983,0.94146 -0.0195,0.0399 -0.033,0.0835 -0.0585,0.11987 -0.005,0.008 -0.0153,-0.0247 -0.006,-0.0273 0.13509,-0.0403 0.31355,-0.19427 0.41239,-0.0937 0.30528,0.31046 0.48295,0.73565 0.6239,1.14762 0.15516,0.4535 -0.33196,0.1553 -0.0592,0.30201 0.48813,0.11928 -0.0482,-0.007 0.63112,0.12897 0.15813,0.0316 0.31276,0.0829 0.47287,0.10204 0.17051,0.0204 0.35491,0.0784 0.51491,0.016 0.21866,-0.0852 0.35846,-0.30493 0.55513,-0.43294 0.11657,-0.0759 0.25253,-0.11663 0.3788,-0.17494 0.0413,0.01 0.0552,-0.0485 0.0139,-0.0584 v 0 c -0.0868,-0.10909 -0.18905,-0.20753 -0.26049,-0.32727 -0.1216,-0.20382 -0.15127,-0.46698 -0.31554,-0.63829 -0.12645,-0.13186 -0.32911,-0.16226 -0.50371,-0.21606 -0.1893,-0.0583 -0.38684,-0.0865 -0.5823,-0.11859 -0.69449,-0.114 -0.55552,-0.0832 -1.25907,-0.0435 -0.20133,0.0645 -1.02648,0.2521 -1.0193,0.60468 0.0245,1.19998 0.30718,1.46765 1.1079,1.2344 0.1409,-0.0411 0.65494,-0.41926 0.74447,-0.48223 0.12002,-0.14296 0.25732,-0.27305 0.36007,-0.42888 0.4439,-0.67328 0.78487,-1.9016 0.58592,-2.69593 -0.0685,-0.27358 -0.22792,-0.51595 -0.34188,-0.77392 -0.24465,-0.16535 -0.45855,-0.38953 -0.73395,-0.49606 -0.20357,-0.0787 -0.43656,-0.0642 -0.65355,-0.0406 -0.66289,0.0719 -1.13651,0.56547 -1.51433,1.06344 -0.66744,0.68369 0.29943,1.6276 0.96688,0.94391 z" />
    <path
       style="fill:#aba8af;stroke-width:0.264999"
       id="path740"
       d="m 68.587786,131.96304 c 0.07131,-0.22009 0.181033,-0.49929 0.170521,-0.73522 -0.02895,-0.64997 -0.286612,-1.29393 -0.795007,-1.71888 -0.167814,-0.14027 -0.377121,-0.22166 -0.565684,-0.33249 -0.221888,-0.0344 -0.444968,-0.14469 -0.66566,-0.10329 -0.315558,0.0592 -0.631679,0.18877 -0.879298,0.39314 -0.410326,0.33866 -0.653478,1.06156 -0.633171,1.57437 0.0123,0.31049 0.08651,0.62563 0.221506,0.90551 0.131818,0.2733 0.374007,0.4779 0.561012,0.71685 0.525529,0.28834 0.892876,0.6578 1.550207,0.36612 0.243311,-0.10797 0.373772,-0.37911 0.560657,-0.56866 0.04164,-0.008 0.03014,-0.067 -0.01151,-0.0589 v 0 c -0.280014,-0.3007 -0.537075,-0.6152 -0.916355,-0.79446 -0.132411,-0.099 -0.336069,-0.21738 -0.39854,-0.38992 -0.260773,-0.72027 0.15565,0.08 0.0016,-0.54189 -0.0665,-0.26824 -0.255744,-0.12482 -0.0057,-0.24675 0.350703,0.0714 0.360116,0.12322 0.525513,0.44524 0.0299,0.0582 0.07094,0.11415 0.08119,0.17879 0.01003,0.0632 -0.02803,0.29727 -0.03993,0.37811 -0.376412,0.87594 0.862354,1.40826 1.238764,0.53232 z" />
    <path
       style="fill:#aba8af;stroke-width:0.264999"
       id="path744"
       d="m 64.472277,91.181033 c 0.503706,-0.255127 0.940316,-0.622348 1.333614,-1.023708 0.418152,-0.426728 0.09794,-0.1481 0.503319,-0.477927 0.0611,-0.03822 0.114329,-0.135565 0.183309,-0.114673 0.05674,0.01717 -0.05924,0.153715 -0.115552,0.135197 -0.514646,-0.169238 -0.953884,-0.552628 -1.484611,-0.661395 -0.114343,-0.02344 -0.06431,0.224874 -0.0842,0.339886 -0.09912,0.572865 -0.07998,0.70534 -0.09996,1.317456 0.0204,0.331353 0.03676,1.382559 0.245798,1.692005 0.173093,0.25623 0.495559,0.369999 0.741654,0.557228 0.150476,0.114485 0.298685,0.231923 0.448029,0.347885 0.01416,0.03999 0.07072,0.01995 0.05656,-0.02003 v 0 c 0.05042,-0.163372 0.07436,-0.337405 0.151252,-0.490114 0.120722,-0.239768 0.361138,-0.419193 0.436325,-0.676894 0.0168,-0.05761 -0.08955,-1.297731 -0.09447,-1.358077 0.01333,-0.732132 -7.94e-4,-0.414573 0.04075,-1.089126 0.0086,-0.140155 0.125344,-0.320722 0.02646,-0.42042 -0.621488,-0.626618 -1.180331,-1.495885 -1.670775,-0.798748 -0.03582,0.05092 -0.03496,0.119496 -0.05245,0.179245 -0.03955,0.07812 -0.06999,0.161551 -0.118642,0.234352 -0.08369,0.12523 -0.331118,0.381973 -0.429537,0.48365 -0.197313,0.203846 -0.397547,0.408519 -0.63367,0.56828 -0.902215,0.436144 -0.285416,1.712068 0.6168,1.275927 z" />
    <path
       style="fill:#aba8af;stroke-width:0.264999"
       id="path748"
       d="m 75.040981,77.466435 c 0.105945,-0.04107 0.218273,-0.06846 0.317836,-0.123214 0.476991,-0.262337 0.901216,-0.658452 1.047867,-1.202642 0.05596,-0.207653 0.09726,-0.427249 0.07345,-0.640988 -0.02669,-0.239561 -0.147714,-0.458901 -0.221572,-0.68835 -0.180811,-0.180068 -0.324935,-0.406739 -0.542428,-0.540203 -0.664887,-0.408011 -1.617549,-0.393575 -2.299642,-0.04252 -0.251113,0.129241 -0.51167,0.277802 -0.681416,0.50352 -0.211534,0.281295 -0.282884,0.64457 -0.424325,0.966854 0.04657,0.337831 0.01445,0.696307 0.139702,1.013492 0.238022,0.602715 0.795333,1.125492 1.402115,1.34394 0.28118,0.101227 0.608777,0.21557 0.889413,0.112842 0.570727,-0.208909 0.727979,-0.788146 0.924856,-1.260009 0.03199,-0.02787 -0.0074,-0.07311 -0.03942,-0.04524 v 0 c -0.832744,0.02344 -0.0869,0.117904 -0.686673,-0.315224 -0.06276,-0.04532 -0.156123,-0.0047 -0.230936,-0.02458 -0.22928,-0.06095 -0.445849,-0.18224 -0.617815,-0.343995 -0.04724,-0.02641 -0.135848,-0.0254 -0.141722,-0.07919 -0.0083,-0.07587 0.05707,-0.146357 0.111236,-0.200128 0.179039,-0.177753 0.424511,-0.156422 0.614921,-0.29585 0.0249,-0.01823 0.03805,-0.04863 0.05707,-0.07294 0.02397,-0.02246 0.03909,-0.06586 0.07191,-0.06739 0.02828,-0.0013 0.05717,0.03304 0.05879,0.0613 0.0034,0.05944 -0.112716,0.52796 -0.147625,0.583684 -0.02739,0.04373 -0.07727,0.06841 -0.115908,0.102608 -0.886857,0.311359 -0.44653,1.565564 0.440327,1.254205 z" />
    <path
       style="fill:#aba8af;stroke-width:0.264999"
       id="path756"
       d="m 142.4324,79.563192 c 0.73864,-0.354798 1.26502,-0.994535 1.77947,-1.610437 0.0705,-0.04001 0.13523,-0.09278 0.21161,-0.120041 0.0134,-0.0048 0.0356,0.03561 0.0215,0.03685 -0.42344,0.03733 -0.85114,0.124759 -1.27311,0.07349 -0.11234,-0.01365 -0.13643,-0.327324 -0.22374,-0.255336 -0.1047,0.08632 0.0274,0.269999 0.0424,0.404868 0.0235,0.212166 0.0487,0.424145 0.073,0.636219 0.10122,0.639038 0.10435,1.659208 0.61901,2.141414 0.19581,0.183456 0.47541,0.248943 0.71311,0.373417 0.009,0.04149 0.0675,0.02894 0.0587,-0.01254 v 0 c 0.17015,-0.191524 0.39099,-0.347937 0.51045,-0.574571 0.31606,-0.599668 0.0521,-1.519193 0.0114,-2.151788 -0.0368,-0.30807 -0.13328,-1.73786 -0.46014,-1.880687 -0.45211,-0.197562 -1.28402,-0.379392 -1.50251,0.16252 -0.0261,0.06478 -0.0208,0.138139 -0.0312,0.207208 -0.34112,0.474941 -0.73476,0.898729 -1.20745,1.246579 -0.93538,0.464966 -0.27782,1.787795 0.65756,1.322832 z" />
    <path
       style="fill:#aba8af;stroke-width:0.264999"
       id="path758"
       d="m 82.653639,145.58412 c 0.14111,-0.0647 0.297828,-0.10281 0.423328,-0.19419 0.732988,-0.53375 1.270127,-1.61119 0.854943,-2.5029 -0.115062,-0.24713 -0.341474,-0.42502 -0.51221,-0.63753 -0.64721,-0.2392 -0.972489,-0.50036 -1.679744,-0.21576 -0.656413,0.26415 -1.104927,0.76305 -1.322978,1.42774 -0.09926,0.30258 -0.162734,0.63413 -0.112868,0.94865 0.05617,0.35431 0.280228,0.66048 0.420343,0.99071 0.715619,0.49217 0.817126,0.80985 1.72956,0.52106 0.244311,-0.0773 0.421513,-0.29154 0.63227,-0.43731 0.04242,-0.001 0.04099,-0.061 -0.0013,-0.06 v 0 c -0.1328,-0.13763 -0.274077,-0.26757 -0.398396,-0.41291 -0.408213,-0.47724 -0.06989,-0.22518 -0.421701,-0.45648 -0.04967,-0.0154 -0.121126,-0.002 -0.149,-0.0463 -0.113861,-0.1794 -0.0099,-0.38798 0.02077,-0.56247 0.01368,-0.0779 -0.0011,-0.16166 0.02651,-0.23586 0.02204,-0.0595 0.07767,-0.10041 0.11651,-0.15061 0.01222,-0.0477 0.02445,-0.0955 0.03668,-0.14321 0.02688,-0.0257 0.04406,-0.0704 0.08063,-0.0771 0.141894,-0.0259 0.134348,0.20576 0.122201,0.25552 -0.06203,0.25414 -0.350774,0.62668 -0.495464,0.85025 -0.80518,0.44551 -0.175136,1.58421 0.630042,1.1387 z" />
    <path
       style="fill:#aba8af;stroke-width:0.264999"
       id="path760"
       d="m 129.43219,143.9005 c 0.53632,-0.19157 0.96426,-0.57502 1.3976,-0.92975 0.10239,-0.0838 0.19481,-0.18195 0.30813,-0.25027 0.0912,-0.055 0.19867,-0.0768 0.29801,-0.11519 -0.54361,0.59467 0.36643,-0.27908 -1.22387,-0.13601 -0.14276,0.0128 -0.004,0.28665 -0.004,0.42999 2.2e-4,0.0962 0.009,1.32561 0.0255,1.40372 0.0491,0.22683 0.18307,0.42654 0.2746,0.63981 0.24472,0.13725 0.48944,0.2745 0.73416,0.41176 0.008,0.0417 0.0667,0.0309 0.059,-0.0108 v 0 c 0.19081,-0.15667 0.38162,-0.31335 0.57242,-0.47003 0.0707,-0.19865 0.17867,-0.38777 0.21207,-0.59597 0.0169,-0.10536 -0.0129,-1.39412 -0.0179,-1.4811 -0.0145,-0.25274 0.0805,-0.5521 -0.0691,-0.7563 -0.30215,-0.41238 -0.72012,-0.76839 -1.19202,-0.96498 -0.16675,-0.0695 -0.3119,0.18233 -0.46785,0.27349 -0.0494,0.0914 -0.0829,0.19328 -0.14808,0.2742 -0.0791,0.0983 -0.18442,0.17226 -0.27875,0.25604 -0.2817,0.25016 -0.57323,0.50442 -0.90387,0.68753 -0.94321,0.29958 -0.51952,1.63348 0.42368,1.33389 z" />
    <path
       style="fill:#5e5c64;stroke-width:0.264999"
       id="path762"
       d="m 78.52621,132.26311 c 0.432957,0.34628 0.815756,0.74853 1.224349,1.12135 0.375645,0.34275 0.756933,0.74755 1.304997,0.81463 0.316267,0.0387 0.633478,-0.0693 0.950219,-0.10392 0.02915,0.0308 0.07274,-0.0104 0.0436,-0.0412 v 0 c 0.06169,-0.30438 0.199567,-0.60292 0.185063,-0.91316 -0.02802,-0.59938 -0.439918,-1.07111 -0.810713,-1.48384 -0.454594,-0.50601 -0.98969,-0.94217 -1.548751,-1.32631 -1.36647,-0.95371 -2.715229,0.97877 -1.348762,1.93248 z" />
    <path
       style="fill:#5e5c64;stroke-width:0.264999"
       id="path764"
       d="m 80.878782,132.52855 c 0.53199,-0.39558 1.002422,-0.86775 1.484739,-1.32112 0.404272,-0.39296 0.817562,-0.77633 1.219649,-1.17159 0.183193,-0.18615 0.385131,-0.35144 0.57912,-0.5256 0.05556,-0.0499 0.124474,-0.0893 0.16392,-0.15266 0.04575,-0.0735 0.05602,-0.16388 0.08403,-0.24583 -0.346345,-0.57662 -0.308367,-0.32354 -0.325374,-0.69538 0.0259,-0.0336 -0.02162,-0.0702 -0.04751,-0.0366 v 0 c -0.351047,0.0568 -0.109541,0.0508 -0.674177,-0.26597 -0.0549,0.005 -0.114118,-0.007 -0.164711,0.0151 -0.04958,0.0215 -0.07973,0.0729 -0.120505,0.1084 -0.212725,0.18498 -0.426622,0.36842 -0.625546,0.56864 -0.433499,0.3688 -0.874999,0.72771 -1.28564,1.12286 -0.449728,0.41915 -0.89808,0.84007 -1.345655,1.26129 -0.946428,0.74788 0.111239,2.08633 1.057664,1.33845 z" />
    <path
       style="fill:#5e5c64;stroke-width:0.264999"
       id="path774"
       d="m 85.347005,128.22732 c 0.353888,-0.49983 0.158519,-0.0805 0.07875,-0.8989 -0.01402,-0.14385 0.01164,-0.28883 0.01746,-0.43325 0.03225,-0.0276 -0.0067,-0.0732 -0.03898,-0.0456 v 0 c -0.147209,-0.0136 -0.296568,-0.0123 -0.441632,-0.0408 -0.786725,-0.15466 -0.402732,-0.28655 -0.871598,-0.0373 -1.029465,0.88812 0.226531,2.34401 1.255996,1.45588 z" />
    <path
       style="fill:#5e5c64;stroke-width:0.264999"
       id="path776"
       d="m 86.569128,126.94899 c 0.08654,-0.0729 0.196996,-0.12451 0.25962,-0.21877 0.275183,-0.41419 0.100341,-0.63776 0.0065,-1.13101 0.03392,-0.0255 -0.0021,-0.0734 -0.03604,-0.048 v 0 c -0.509495,-0.21662 -0.645797,-0.42687 -1.136938,-0.23353 -0.09076,0.0357 -0.151844,0.12249 -0.227767,0.18374 -1.023564,0.80233 0.111102,2.24987 1.134666,1.44754 z" />
    <path
       style="fill:#5e5c64;stroke-width:0.264999"
       id="path778"
       d="m 88.150617,125.45562 c 0.08287,-0.0694 0.20161,-0.11094 0.248608,-0.20831 0.193352,-0.40058 -0.02545,-0.73612 -0.148455,-1.11583 0.03058,-0.0294 -0.01101,-0.0727 -0.04159,-0.0432 v 0 c -0.29787,-0.11705 -0.671782,-0.33773 -1.026655,-0.2822 -0.05415,0.008 -0.08324,0.0713 -0.124864,0.10696 -1.090796,0.77284 0.0021,2.31546 1.092959,1.54262 z" />
    <path
       style="fill:#aba8af;stroke-width:0.264999"
       id="path780"
       d="m 87.440441,127.35733 c 0.113067,0.52663 0.371821,1.01978 0.729819,1.42325 0.108526,0.12231 0.219514,0.24712 0.355274,0.33826 0.151482,0.10169 0.330253,0.1552 0.495382,0.23281 0.200303,0.007 0.405911,0.066 0.600914,0.0197 0.473649,-0.11235 0.757682,-0.4164 0.912942,-0.86823 0.197533,-0.57485 0.06381,-1.23024 -0.0176,-1.81057 -0.154368,-0.7408 -0.244835,-1.38683 -0.944933,0.22934 -0.03919,0.0905 0.180719,0.0794 0.273556,0.11261 0.121295,0.0434 0.245538,0.0782 0.368308,0.11723 0.774522,-0.002 0.378666,0.0977 1.145193,-0.434 0.04205,0.006 0.05005,-0.0538 0.008,-0.0595 v 0 c -0.450791,-0.68899 -0.176313,-0.45181 -0.748805,-0.78969 -0.108836,-0.0339 -0.217273,-0.0691 -0.326512,-0.10174 -0.07445,-0.0222 -0.158953,-0.10442 -0.224488,-0.0627 -1.232466,0.78476 -1.102458,0.50653 -0.8587,1.20587 0.08016,0.39564 0.08224,0.31177 0.0858,0.73032 5.29e-4,0.075 -0.01982,0.15031 -0.01042,0.2247 0.0077,0.0607 0.277215,-0.005 0.285663,0.11039 -0.08542,0.0445 -0.0585,0.0451 -0.185235,-0.0915 -0.240974,-0.25979 -0.319331,-0.61574 -0.466127,-0.92764 -0.283575,-1.04514 -1.761627,-0.6441 -1.478052,0.40104 z" />
    <path
       style="fill:#aba8af;stroke-width:0.264999"
       id="path782"
       d="m 91.094821,128.44011 c 0.02357,0.68218 0.03019,1.36813 0.104865,2.04744 0.01725,0.15689 0.0066,0.32465 0.07297,0.46785 0.05927,0.12787 0.191715,0.20662 0.287573,0.30993 0.15407,0.0508 0.308139,0.10158 0.462206,0.15238 0.0029,0.0423 0.06278,0.0382 0.05986,-0.004 v 0 c 0.145155,-0.0781 0.290309,-0.15627 0.435464,-0.23441 0.07622,-0.11495 0.191408,-0.21205 0.228648,-0.34485 0.04132,-0.14735 0.0035,-0.30621 -0.0032,-0.45911 -0.02995,-0.68487 -0.10868,-1.36741 -0.188666,-2.04779 -0.07969,-1.03218 -1.539415,-0.91948 -1.459722,0.1127 z" />
    <path
       style="fill:#aba8af;stroke-width:0.264999"
       id="path784"
       d="m 92.147426,128.3473 c 0.257051,0.17271 0.47757,-0.003 0.746313,0.0155 0.09545,0.007 0.224422,0.0852 0.205322,0.12441 -0.01966,0.0403 -0.08583,0.0262 -0.128741,0.0393 -0.03865,-0.005 -0.0773,-0.0107 -0.115951,-0.0161 -0.02692,0.009 -0.05235,0.0274 -0.08076,0.0273 -0.02347,-1.3e-4 -0.0684,-0.0512 -0.06453,-0.0281 0.01421,0.0848 0.113202,0.15307 0.09972,0.23804 -0.02408,0.15174 -0.135427,0.27582 -0.20314,0.41373 -0.04228,0.003 -0.03733,0.0633 0.0049,0.0598 v 0 c 0.434999,0.28608 0.721498,0.62718 1.329031,0.30704 0.205875,-0.10848 0.305472,-0.36193 0.390978,-0.57836 0.244107,-0.61788 0.06722,-0.81129 -0.118261,-1.41151 -0.181232,-0.16075 -0.335902,-0.35773 -0.543698,-0.48227 -0.400478,-0.24001 -1.028689,-0.20267 -1.455256,-0.0679 -0.126822,0.0401 -0.261352,0.075 -0.367741,0.15484 -0.104955,0.0787 -0.164717,0.20429 -0.247076,0.30643 -0.634834,0.38809 -0.086,1.28588 0.548838,0.8978 z" />
    <path
       style="fill:#5e5c64;stroke-width:0.264999"
       id="path792"
       d="m 77.475108,125.16924 c 0.07555,0.0181 0.151098,0.0363 0.226645,0.0544 0.114313,0.0319 0.227557,0.0679 0.34294,0.0957 0.134731,0.0324 0.271983,0.0536 0.406987,0.0848 0.403593,0.0935 0.79607,0.21519 1.18822,0.34743 0.702159,0.24185 1.290135,0.72307 1.982967,0.98447 0.129106,0.0487 0.26425,0.0796 0.396375,0.11941 0.178909,-0.0113 0.357815,-0.0227 0.536723,-0.0341 0.02713,0.0326 0.07326,-0.006 0.04613,-0.0384 v 0 c 0.02728,-0.19366 0.05455,-0.38731 0.08183,-0.58097 -0.06486,-0.16058 -0.107751,-0.33191 -0.19459,-0.48177 -0.488728,-0.84338 -1.448697,-1.21066 -2.293779,-1.57848 -0.821373,-0.28897 -1.667825,-0.55094 -2.54853,-0.52683 -1.099013,-0.12156 -1.270929,1.43268 -0.171916,1.55424 z" />
    <path
       style="fill:#5e5c64;stroke-width:0.264999"
       id="path794"
       d="m 86.393789,130.61197 c 0.513323,0.67808 0.56724,1.5953 1.160198,2.22467 0.160324,0.17017 0.364508,0.29288 0.546764,0.43932 0.0095,0.0413 0.06795,0.028 0.05849,-0.0134 v 0 c 0.09755,-0.22348 0.237157,-0.43299 0.29264,-0.67043 0.191444,-0.81927 -0.246076,-1.87921 -0.690502,-2.55531 -0.08544,-0.12998 -0.188746,-0.24731 -0.28312,-0.37096 -0.669002,-0.76684 -1.753468,0.17927 -1.084466,0.94611 z" />
    <path
       style="fill:#aba8af;stroke-width:0.264999"
       id="path818"
       d="m 78.380113,137.52954 c 0.474707,-0.28201 0.831207,-0.55369 0.962239,-1.12705 0.03476,-0.1521 0.05097,-0.31035 0.04247,-0.46615 -0.0088,-0.16212 -0.06265,-0.31863 -0.09397,-0.47794 -0.09824,-0.1535 -0.173678,-0.32423 -0.294698,-0.46048 -0.227902,-0.25659 -0.514001,-0.39432 -0.825664,-0.51475 -0.40839,-0.1578 -0.619385,-0.24431 -1.065988,-0.0943 -0.196411,0.0659 -0.359495,0.20607 -0.539242,0.30911 -0.131321,0.17833 -0.308801,0.33056 -0.393965,0.53499 -0.218368,0.52418 -0.174439,0.99124 -7.93e-4,1.51461 0.07682,0.23146 0.183755,0.4558 0.320786,0.65753 0.128632,0.18937 0.255659,0.41642 0.467561,0.50306 0.222538,0.091 0.480708,-0.0114 0.721061,-0.0171 0.149722,-0.042 0.299445,-0.0841 0.449167,-0.12612 0.04099,0.011 0.05649,-0.047 0.01551,-0.058 v 0 c -0.06535,-0.0996 -0.130697,-0.19912 -0.196043,-0.29868 -0.0058,-0.14268 0.02953,-0.29322 -0.01754,-0.42804 -0.03088,-0.0885 -0.145196,-0.12141 -0.20061,-0.197 -0.06314,-0.0861 -0.117986,-0.18099 -0.150982,-0.28256 -0.06276,-0.19319 -0.03347,-0.42042 -0.05926,-0.62044 -0.0024,-0.0402 -0.01468,-0.081 -0.0072,-0.12061 0.0199,-0.10534 0.102558,-0.21234 0.220464,-0.22492 0.140057,-0.0149 0.3511,0.15893 0.473432,0.22116 0.02421,0.0431 0.05973,0.0816 0.07266,0.12926 0.03756,0.1385 -0.01886,0.45263 -0.07515,0.57997 -0.05279,0.11942 -0.129328,0.18706 -0.215058,0.27674 -0.556996,0.27633 -0.166217,1.06404 0.390781,0.78772 z" />
    <path
       d="m 102.41307,103.97476 9.06436,1.72682 5.22809,-4.3647 -9.06436,-1.726824 z"
       style="fill:#bf2a54;fill-rule:evenodd;stroke:none;stroke-width:1.38397;stroke-linejoin:round"
       id="path8215" />
    <path
       d="m 111.47743,105.70158 v 8.50991 l 5.22809,-4.3647 v -8.50991 z"
       style="fill:#fed5df;fill-rule:evenodd;stroke:none;stroke-width:1.38397;stroke-linejoin:round"
       id="path8217" />
    <path
       d="m 102.41307,103.97476 9.06436,1.72682 v 8.50991 l -9.06436,-1.72682 z"
       style="fill:#d96888;fill-rule:evenodd;stroke:none;stroke-width:1.38397;stroke-linejoin:round"
       id="path8219" />
  </g>
</svg>
