<?xml version="1.0" encoding="UTF-8" standalone="no"?>
<!-- Created with Inkscape (http://www.inkscape.org/) -->

<svg
   width="500.0816"
   height="154.92999"
   viewBox="0 0 132.31326 40.991894"
   version="1.1"
   id="svg5"
   xml:space="preserve"
   xmlns="http://www.w3.org/2000/svg"
   xmlns:svg="http://www.w3.org/2000/svg"><defs
     id="defs2"><rect
       x="398.15744"
       y="256.2482"
       width="254.22476"
       height="85.826263"
       id="rect3261" /></defs><g
     id="layer1"
     style="display:inline"
     transform="translate(-30.356524,-66.140307)"><path
       style="fill:#5e5c64;stroke:none;stroke-width:0.264999"
       id="path6813"
       d="m 41.095607,95.433659 c -0.06209,2.748852 0.0092,5.511991 0.361802,8.241871 0.07869,0.60929 0.145277,1.2238 0.298764,1.81866 0.105035,0.40707 0.314828,0.77965 0.472242,1.16947 0.281218,0.1454 0.562435,0.2908 0.843656,0.4362 -7.94e-4,0.0424 0.05921,0.0435 0.05999,10e-4 v 0 c 0.287832,-0.21455 0.575661,-0.42909 0.863494,-0.64364 0.06293,-0.41939 0.18157,-0.83414 0.188777,-1.25816 0.01005,-0.59181 -0.08769,-1.18055 -0.137316,-1.77035 -0.221168,-2.62839 -0.437377,-5.259854 -0.364966,-7.901186 0.06645,-1.82889 -2.519997,-1.92286 -2.586442,-0.09397 z" /><path
       style="fill:#5e5c64;stroke:none;stroke-width:0.264999"
       id="path6815"
       d="m 43.025618,101.26471 c 4.242842,-0.10857 8.482298,-0.32285 12.722378,-0.50709 3.69515,-0.27119 7.392773,-0.25842 11.093455,-0.17353 3.37924,0.11714 6.759763,0.12389 10.140413,0.14708 2.516362,0.0537 5.030197,-0.0952 7.539723,-0.26126 2.427663,-0.21941 4.857837,-0.35472 7.294739,-0.3916 2.323309,-0.0397 4.644856,0.0497 6.965305,0.15024 2.638079,0.10302 5.279759,0.0455 7.918789,0.0107 3.5222,-0.016 7.04249,0.0119 10.55755,-0.244998 0.80175,-0.06738 2.12452,-0.161099 2.93209,-0.295097 0.37513,-0.06225 0.79476,-0.04287 1.11273,-0.251423 0.31787,-0.208484 0.44909,-0.613476 0.67364,-0.920213 0.0422,-0.0042 0.0362,-0.06393 -0.006,-0.0597 v 0 c -0.27907,-0.256354 -0.48629,-0.626049 -0.83721,-0.769059 -0.34981,-0.142557 -0.75509,-0.0425 -1.13273,-0.03375 -0.94926,0.02201 -1.8925,0.17671 -2.84322,0.174289 -3.49169,0.06906 -6.9829,0.120822 -10.47501,0.02437 -2.59524,0.0053 -5.19244,0.02734 -7.78522,-0.10772 -2.368505,-0.118491 -4.738364,-0.221425 -7.110483,-0.214334 -2.480234,0.02088 -4.954405,0.140846 -7.4255,0.359818 -2.448158,0.143809 -4.900911,0.284599 -7.354276,0.218284 -3.373086,-0.04114 -6.747563,0.01503 -10.11923,-0.133604 -3.75602,-0.04746 -7.510145,-0.01863 -11.258209,0.265324 -2.257025,0.115594 -4.514022,0.224184 -6.771521,0.329856 -0.118893,0.0056 -4.122885,0.200035 -4.47966,0.226203 -0.541814,0.03974 -1.08117,0.10787 -1.621756,0.161806 -1.62311,0.190341 -1.353928,2.485768 0.269185,2.295428 z" /><path
       style="fill:#5e5c64;stroke:none;stroke-width:0.264999"
       id="path6821"
       d="m 114.7745,100.26365 c 2.76407,-0.298697 5.54242,-0.459128 8.32023,-0.557727 2.37989,0.0024 4.75982,0.04388 7.13972,0.07229 1.83529,0.120729 3.66672,0.04648 5.49866,-0.07775 2.35465,-0.230844 4.71453,-0.369581 7.07969,-0.413073 1.17006,-0.03388 2.33543,0.09066 3.50421,0.1041 0.79671,0.01831 1.59166,-0.02156 2.38542,-0.08473 0.76757,-0.06003 1.53296,-0.131194 2.29017,-0.27272 0.53088,-0.143613 0.32189,-0.27211 0.30871,-0.967007 0.0422,-0.0039 0.0368,-0.06364 -0.006,-0.05975 v 0 c -0.20739,-0.661921 -0.0533,-0.869646 -0.60825,-0.827162 -0.68929,0.09506 -1.38433,0.152678 -2.07981,0.172448 -0.73509,0.01013 -1.4716,-5.29e-4 -2.2058,-0.03603 -1.20056,-0.08691 -2.39978,-0.20383 -3.60345,-0.231815 -2.40588,-0.01193 -4.80948,0.08639 -7.21019,0.241565 -1.77043,0.09559 -3.53931,0.150754 -5.3103,0.01659 -2.42336,-0.05751 -4.84815,-0.1007 -7.27208,-0.0887 -2.85004,0.105209 -5.69496,0.335724 -8.52658,0.677302 -1.64908,0.208706 -1.35393,2.540859 0.29515,2.332149 z" /><path
       style="fill:#5e5c64;stroke:none;stroke-width:0.264999"
       id="path6825"
       d="m 149.63219,94.018657 c -0.28524,1.782706 -0.25061,3.614719 -0.14283,5.411242 0.0811,1.351631 0.23325,3.346171 0.68536,4.661901 0.18696,0.54411 0.54202,1.015 0.81304,1.5225 0.1827,0.26392 0.36541,0.52783 0.54811,0.79175 0.004,0.0422 0.0639,0.0363 0.0597,-0.006 v 0 c 0.1261,-0.30993 0.25219,-0.61986 0.37828,-0.92978 0.11632,-0.55244 0.31144,-1.09401 0.34894,-1.65731 0.0474,-0.71199 -0.0508,-1.42642 -0.0962,-2.13854 -0.0494,-0.77448 -0.14456,-1.54572 -0.18827,-2.320551 -0.0937,-1.661917 -0.10607,-3.336684 0.0546,-4.994939 0.24069,-1.739956 -2.21998,-2.08034 -2.46067,-0.340384 z" /><path
       style="fill:#aba8af;fill-opacity:1;stroke:none;stroke-width:0.264999"
       id="path10024"
       d="m 58.168047,96.984811 c -0.03922,-0.195165 -0.110654,-0.381921 -0.156451,-0.575308 -0.01762,-0.07439 -0.0016,-0.160374 -0.04151,-0.225554 -0.476528,-0.777452 -1.209082,-0.275995 -2.001134,0.449003 -0.220707,0.202023 -0.05232,0.596125 -0.07849,0.894186 0.04988,1.175004 0.02812,1.012314 0.152292,2.282867 0.04433,0.453595 0.06875,0.910375 0.147293,1.359315 0.06856,0.39191 0.09057,0.81453 0.292944,1.15707 0.183838,0.31117 0.551905,0.46741 0.813882,0.71639 0.112189,0.10662 0.204473,0.2324 0.306708,0.3486 0.004,0.0422 0.06373,0.0366 0.05973,-0.006 v 0 c 0.07812,-0.13877 0.147667,-0.28273 0.234352,-0.41632 0.197353,-0.30414 0.511974,-0.54871 0.617019,-0.89572 0.111911,-0.36968 0.02657,-0.77309 0.0049,-1.15873 -0.02445,-0.43501 -0.101483,-0.86552 -0.142989,-1.299234 -0.07691,-0.803727 -0.103341,-1.321609 -0.151585,-2.102903 -0.270097,-0.840554 0.07592,-0.06834 -1.718757,0.180658 -0.07932,0.01101 -0.154728,-0.126669 -0.129161,-0.202557 0.02394,-0.07106 0.590785,0.261405 0.640857,0.288859 0.562129,0.813236 1.71222,0.01826 1.150091,-0.794973 z" /><path
       style="fill:#aba8af;fill-opacity:1;stroke:none;stroke-width:0.264999"
       id="path10028"
       d="m 47.778728,96.728739 c -0.051,1.12531 -0.07382,0.88515 0.07797,2.294385 0.05828,0.541054 0.01709,1.112156 0.217856,1.617946 0.194598,0.49024 0.624842,0.84996 0.931989,1.27875 0.203933,0.2847 0.40078,0.57441 0.60117,0.86161 0.0076,0.0417 0.06667,0.0309 0.05901,-0.0108 v 0 c 0.08718,-0.32972 0.157192,-0.66446 0.261541,-0.98915 0.157191,-0.4891 0.465346,-0.93942 0.522364,-1.44999 0.05662,-0.507027 -0.133226,-1.011682 -0.190836,-1.5186 -0.137102,-1.206336 -0.114842,-0.935392 -0.134493,-1.866847 0.153636,-1.659279 -2.192941,-1.876555 -2.346576,-0.217276 z" /><path
       style="fill:#aba8af;fill-opacity:1;stroke:none;stroke-width:0.264999"
       id="path10030"
       d="m 63.41542,97.096116 c -0.152945,1.186439 -0.15948,2.389579 -0.106431,3.583114 0.0456,1.02581 -0.02992,1.71646 0.647588,2.55737 0.222581,0.27626 0.57598,0.41436 0.863968,0.62154 0.0078,0.0417 0.06674,0.0307 0.05899,-0.011 v 0 c 0.203335,-0.24823 0.463566,-0.45917 0.610007,-0.74469 0.507847,-0.99014 0.331164,-1.37508 0.30166,-2.46914 -0.02808,-1.041377 -0.04329,-2.083415 0.06877,-3.121174 0.29419,-1.728563 -2.150364,-2.144607 -2.444554,-0.416047 z" /><path
       style="fill:#aba8af;fill-opacity:1;stroke:none;stroke-width:0.264999"
       id="path10030-3"
       d="m 69.901251,96.794098 c -0.152945,1.186439 -0.15948,2.389579 -0.106431,3.583112 0.0456,1.02581 -0.02992,1.71646 0.647588,2.55737 0.222581,0.27626 0.57598,0.41436 0.863968,0.62154 0.0078,0.0417 0.06674,0.0307 0.05899,-0.011 v 0 c 0.203335,-0.24823 0.463566,-0.45917 0.610007,-0.74469 0.507847,-0.99014 0.331164,-1.37508 0.30166,-2.46914 -0.02808,-1.041375 -0.04329,-2.083413 0.06877,-3.121172 0.29419,-1.728563 -2.150364,-2.144607 -2.444554,-0.416047 z" /><path
       style="fill:#aba8af;fill-opacity:1;stroke:none;stroke-width:0.264999"
       id="path10030-3-6"
       d="m 121.69859,95.674548 c -0.15295,1.186439 -0.15948,2.389579 -0.10643,3.583112 0.0456,1.02581 -0.0299,1.71646 0.64758,2.55737 0.22259,0.27626 0.57598,0.41436 0.86397,0.62154 0.008,0.0417 0.0667,0.0307 0.059,-0.011 v 0 c 0.20334,-0.24823 0.46357,-0.45917 0.61001,-0.74469 0.50785,-0.99014 0.33116,-1.37508 0.30166,-2.46914 -0.0281,-1.041375 -0.0433,-2.083413 0.0688,-3.121172 0.29419,-1.728563 -2.15036,-2.144607 -2.44455,-0.416047 z" /><path
       style="fill:#aba8af;fill-opacity:1;stroke:none;stroke-width:0.264999"
       id="path10032"
       d="m 83.640101,96.740905 c -0.117303,0.333875 -0.269804,0.657399 -0.351909,1.001625 -0.105619,0.442799 -0.199684,1.697736 -0.195813,2.14126 0.0029,0.33551 -0.03776,0.68834 0.07703,1.00361 0.15244,0.4187 0.776216,0.98634 1.098333,1.30735 0.0013,0.0424 0.06139,0.0404 0.05997,-0.002 v 0 c 0.245387,-0.27045 0.915603,-0.97293 1.036952,-1.28071 0.110474,-0.2802 0.07367,-0.59803 0.09835,-0.89821 0.02572,-0.312763 0.02832,-0.627112 0.05276,-0.939979 0.02035,-0.260379 0.07577,-0.518152 0.08155,-0.779262 0.0016,-0.07654 -0.03961,-0.147902 -0.05941,-0.221853 0.941731,-1.341948 -0.956067,-2.673757 -1.897798,-1.331812 z" /><path
       style="fill:#aba8af;fill-opacity:1;stroke:none;stroke-width:0.264999"
       id="path10034"
       d="m 75.951373,96.824563 c -0.0415,0.716114 -0.07653,0.991286 -0.01791,1.769782 0.03132,0.416084 -0.06587,0.885505 0.149636,1.242804 0.297629,0.493461 0.861644,0.765451 1.292468,1.148171 0.0061,0.042 0.06552,0.0333 0.05937,-0.009 v 0 c 0.311788,-0.42982 0.747292,-0.79289 0.935366,-1.289461 0.136882,-0.361408 -7.94e-4,-0.772962 -0.0079,-1.159354 -0.0011,-0.0525 -0.04503,-1.348965 -0.05244,-1.567686 0.09585,-1.667769 -2.262729,-1.803323 -2.35858,-0.135554 z" /><path
       style="fill:#aba8af;fill-opacity:1;stroke:none;stroke-width:0.264999"
       id="path10036"
       d="m 88.825074,96.587338 c 7.94e-4,0.528815 -0.0065,1.670897 0.03531,2.161212 0.03503,0.410768 -0.0019,0.850625 0.171008,1.224899 0.187955,0.406981 0.609857,0.660631 0.868781,1.026581 0.171291,0.24209 0.27637,0.5248 0.414554,0.7872 0.0062,0.042 0.06556,0.0332 0.05936,-0.009 v 0 c 0.259961,-1.25961 0.02566,-0.59634 0.835464,-1.937883 0.112681,-0.369859 0.02654,-0.773004 0.02553,-1.159645 -0.0019,-0.667118 -0.06025,-1.333492 -0.03468,-2.001055 0.06542,-1.679606 -2.309897,-1.772128 -2.37532,-0.09252 z" /><path
       style="fill:#aba8af;fill-opacity:1;stroke:none;stroke-width:0.264999"
       id="path10038"
       d="m 107.60884,96.637246 c -0.0605,0.896668 0.0969,1.79441 0.21978,2.679417 0.0749,0.539448 0.1261,1.400687 0.48987,1.878537 0.17295,0.22718 0.45807,0.34099 0.6871,0.51149 0.10262,0.10215 0.20524,0.20431 0.30787,0.30646 -0.001,0.0424 0.059,0.0437 0.06,0.001 v 0 c 0.10766,-0.12686 0.21532,-0.25372 0.32298,-0.38058 0.18633,-0.23467 0.44447,-0.42712 0.559,-0.70402 0.22424,-0.54215 0.0375,-1.400498 -0.0288,-1.924307 -0.10252,-0.810474 -0.17835,-1.628632 -0.34702,-2.428671 -0.0427,-1.605701 -2.31348,-1.545344 -2.2708,0.06036 z" /><path
       style="fill:#aba8af;fill-opacity:1;stroke:none;stroke-width:0.264999"
       id="path10040"
       d="m 99.850396,97.131382 c 0.02786,0.86778 0.02678,1.258602 0.12109,2.161508 0.04516,0.432332 0.07297,0.86927 0.170574,1.29285 0.0906,0.393 0.17685,0.80327 0.39114,1.14492 0.20945,0.33395 0.5732,0.5418 0.84554,0.8268 0.17641,0.18462 0.333,0.38721 0.4995,0.58081 0.0114,0.0409 0.0692,0.0248 0.0578,-0.0161 v 0 c 0.20827,-1.07205 0.0382,-0.49407 0.59173,-1.70788 0.0833,-0.3591 0.0471,-0.73699 0.0342,-1.10542 -0.014,-0.402164 -0.0805,-0.80082 -0.11483,-1.201764 -0.0865,-1.009462 -0.0797,-1.028835 -0.12308,-1.947394 0.0201,-1.749158 -2.453644,-1.7775 -2.473684,-0.02834 z" /><path
       style="fill:#aba8af;fill-opacity:1;stroke:none;stroke-width:0.264999"
       id="path10042"
       d="m 113.9868,96.509871 c -0.14246,0.838459 -0.11886,1.711454 -0.0306,2.555332 0.0334,0.319405 0.009,0.662683 0.14795,0.952017 0.0788,0.16355 1.08353,1.21533 1.27143,1.41511 0.008,0.0418 0.0666,0.0311 0.059,-0.0106 v 0 c 0.11298,-0.22977 0.21321,-0.46626 0.33894,-0.68932 0.16792,-0.29789 0.43909,-0.54523 0.54094,-0.871672 0.0907,-0.290562 0.0196,-0.608642 0.0159,-0.912997 -0.008,-0.660842 -0.0723,-1.32179 -0.0537,-1.983499 0.32127,-1.619242 -1.96868,-2.073596 -2.28996,-0.454354 z" /><path
       style="fill:#aba8af;fill-opacity:1;stroke:none;stroke-width:0.264999"
       id="path10044"
       d="m 136.12664,95.950665 c -0.0579,0.789371 -0.0916,1.593025 -0.0337,2.383457 0.0305,0.416536 -0.008,0.857549 0.15065,1.243862 0.16417,0.39956 0.54651,0.670996 0.78429,1.031626 0.14299,0.21687 0.23583,0.46292 0.35375,0.69438 0.002,0.0424 0.0623,0.0389 0.0599,-0.003 v 0 c 0.091,-0.24079 0.15116,-0.49561 0.27297,-0.72237 0.2003,-0.3729 0.55455,-0.665552 0.68828,-1.067169 0.12899,-0.387387 0.0649,-0.814459 0.0742,-1.222652 0.0181,-0.794052 -0.0272,-1.598295 -0.12904,-2.385902 -0.0341,-1.570648 -2.2553,-1.522468 -2.22123,0.04818 z" /><path
       style="fill:#aba8af;fill-opacity:1;stroke:none;stroke-width:0.264999"
       id="path10046"
       d="m 130.36313,96.40687 c -0.007,-0.11345 0.0115,-0.231028 -0.0195,-0.340349 -0.1595,-0.562192 -0.95682,-0.721254 -1.48668,-0.481804 -0.41301,0.186651 -0.57732,0.716963 -0.74267,1.138958 -0.13149,0.33556 0.0592,1.612476 0.0871,1.864907 0.096,0.562279 0.2486,1.794228 0.56851,2.297078 0.21429,0.33684 0.60191,0.52668 0.87426,0.81859 0.16491,0.17675 0.28838,0.38805 0.43257,0.58208 0.009,0.0414 0.0677,0.0285 0.0586,-0.013 v 0 c 0.0501,-0.23161 0.0678,-0.47267 0.15023,-0.69483 0.13707,-0.36942 0.42688,-0.68277 0.50428,-1.06912 0.099,-0.49403 -0.14959,-1.69889 -0.23482,-2.197214 -0.0333,-0.262562 -0.0677,-0.524986 -0.0999,-0.787686 -0.0145,-0.1182 0.0762,-0.380235 -0.0402,-0.354986 -0.25863,0.05612 -0.35542,0.46849 -0.61843,0.49789 -1.39102,0.155485 -1.40395,-0.414388 -0.73255,-0.336235 0.6536,0.918737 1.95289,-0.0056 1.2993,-0.924319 z" /><path
       style="fill:#aba8af;fill-opacity:1;stroke:none;stroke-width:0.264999"
       id="path10048"
       d="m 142.95147,95.528231 c -0.34149,0.877832 -0.29954,1.811232 -0.24701,2.731762 0.0241,0.423366 0.004,0.855269 0.10028,1.268199 0.22977,0.983428 0.52999,1.228098 1.10197,1.983668 0.13718,0.18284 0.27436,0.36568 0.41154,0.54852 0.009,0.0414 0.0677,0.0286 0.0586,-0.0128 v 0 c 0.0517,-0.20842 0.10339,-0.41684 0.15509,-0.62526 0.33251,-0.7928 0.56236,-1.17069 0.61821,-2.072778 0.0245,-0.395774 -0.0621,-0.790662 -0.0867,-1.186434 -0.0213,-0.343416 -0.0221,-0.688107 -0.0509,-1.030975 -0.0759,-0.90274 -0.14132,-0.322712 -0.0248,-0.975894 0.44407,-1.439844 -1.59218,-2.067851 -2.03625,-0.628008 z" /><path
       style="fill:#5e5c64;fill-opacity:1;stroke:none;stroke-width:0.264999"
       id="path14522"
       d="m 34.287102,104.14434 c 0.268685,-0.0186 0.54265,2.7e-4 0.806051,-0.0559 1.490334,-0.31798 2.622531,-1.42665 2.729211,-2.99664 0.02764,-0.40677 -0.09039,-0.81038 -0.135583,-1.215572 -0.182581,-0.38455 -0.314253,-0.797705 -0.547743,-1.153649 -0.672571,-1.025303 -1.802222,-1.81057 -3.065317,-1.810848 -1.168119,-2.57e-4 -1.456796,0.375491 -2.385459,0.97305 -0.284872,0.387038 -0.637561,0.732348 -0.854618,1.161108 -0.658235,1.300261 -0.663019,2.912191 0.158854,4.144051 0.258318,0.38718 0.595524,0.74101 0.995349,0.97929 0.358635,0.21373 0.804862,0.22227 1.207294,0.3334 0.375226,-0.23541 0.750453,-0.47081 1.12568,-0.70622 0.04211,0.005 0.04945,-0.0543 0.0074,-0.0595 v 0 c -0.122422,-0.29679 -0.244845,-0.59359 -0.36727,-0.89038 -0.122807,-0.13172 -0.236937,-0.2721 -0.36842,-0.39517 -0.291478,-0.27281 -0.551238,-0.34713 -0.698034,-0.75529 -0.225681,-0.62749 -0.02635,-1.28171 0.24102,-1.852086 0.243549,-0.258879 0.600937,-0.680498 1.024231,-0.615357 0.567438,0.08732 0.924777,0.600162 1.203719,1.042073 0.108572,0.31828 0.299067,0.75703 0.08043,1.08715 -0.246044,0.3715 -0.701735,0.50997 -1.076629,0.69819 -1.476679,-0.0567 -1.55679,2.03169 -0.08011,2.08833 z" /><path
       style="fill:#5e5c64;fill-opacity:1;stroke:none;stroke-width:0.264999"
       id="path14524"
       d="m 156.53384,99.56019 c 0.18067,-0.118747 0.36635,-0.230208 0.54202,-0.356237 0.26886,-0.192884 1.2997,-1.005613 1.5113,-1.169443 0.62752,-0.485854 1.26024,-0.953915 1.91695,-1.398992 -1.71413,0.906206 1.12529,-0.403267 -1.52459,-0.210648 -0.19184,0.01394 -0.0378,0.382953 -0.0479,0.575027 -0.0645,1.223383 -0.0837,2.448795 -0.0931,3.673553 0.008,0.28343 -0.10547,0.59766 0.0233,0.8503 0.11098,0.21783 0.88072,0.6466 1.14557,0.80324 -0.002,0.0424 0.0579,0.0452 0.0599,0.003 v 0 c 0.2818,-0.16783 1.02886,-0.5792 1.15673,-0.83882 0.11802,-0.23961 2.5e-4,-0.53419 2.7e-4,-0.80129 0.008,-1.272737 -5.3e-4,-1.023452 0.0374,-2.381637 0.012,-0.429033 0.0395,-0.857748 0.041,-1.286942 0.004,-1.107561 0.1545,-1.815965 -1.19952,-2.434431 -0.32504,-0.148465 -0.69353,0.172606 -1.0403,0.258908 -1.11881,1.061194 -2.285,2.07676 -3.51487,3.007577 -1.20702,0.697045 -0.22125,2.404025 0.98577,1.706983 z" /><path
       style="fill:#5e5c64;fill-opacity:1;stroke:none;stroke-width:0.264999"
       id="path14526"
       d="m 157.32064,103.04439 c 0.93451,-0.0683 1.86961,-0.14453 2.80228,-0.23514 0.45773,-0.0445 0.96407,0.0658 1.37184,-0.14682 0.48282,-0.2518 0.76307,-0.77703 1.14461,-1.16555 0.0424,-0.002 0.0396,-0.0619 -0.003,-0.0599 v 0 c -0.42867,-0.35109 -0.76777,-0.8572 -1.28601,-1.05328 -0.44255,-0.16744 -0.94652,0.008 -1.41919,0.0297 -1.00169,0.0459 -2.00562,0.14426 -3.00019,0.26965 -1.66972,0.27536 -1.28029,2.6367 0.38943,2.36133 z" /><path
       style="fill:#aba8af;fill-opacity:1;stroke:none;stroke-width:0.264999"
       id="path10030-3-7"
       d="m 94.537171,96.072368 c -0.152945,1.186439 -0.15948,2.389579 -0.106431,3.583112 0.0456,1.02581 -0.02992,1.71646 0.647588,2.55737 0.222581,0.27626 0.57598,0.41436 0.863968,0.62154 0.0078,0.0417 0.06674,0.0307 0.05899,-0.011 v 0 c 0.203335,-0.24823 0.463566,-0.45917 0.610007,-0.74469 0.507847,-0.99014 0.331164,-1.37508 0.30166,-2.46914 -0.02808,-1.041375 -0.04329,-2.083413 0.06877,-3.121172 0.29419,-1.728563 -2.150364,-2.144607 -2.444554,-0.416047 z" /><path
       style="display:inline;fill:#094bac;fill-opacity:1;stroke:none;stroke-width:0.264999"
       id="path13042-2"
       d="m 36.403565,87.31334 c 0.20099,-0.28814 0.363926,-0.60697 0.602975,-0.86442 1.73624,-1.8699 4.23844,-2.58624 6.67603,-2.97623 0.68629,-0.1098 1.38123,-0.15619 2.07184,-0.23428 3.86567,-0.20655 7.71504,0.30601 11.56247,0.59477 4.30226,0.29383 8.61079,0.48755 12.92145,0.59854 3.99297,0.0745 7.99055,0.11015 11.9808,-0.0773 2.793287,-0.18805 5.544277,-0.95407 7.940857,-2.42573 0.39909,-0.24507 0.76875,-0.53512 1.15313,-0.80269 0.62026,-0.51721 1.26377,-1.03379 1.75136,-1.68612 0.0318,-0.0425 0.10016,-0.18712 0.0743,-0.14078 -0.37295,0.66884 -0.13586,0.21519 0.81487,1.43383 0.54503,1.26585 0.75703,-0.78644 0.96319,-0.56029 0.0571,0.0626 0.0776,0.15108 0.12535,0.22099 0.23301,0.34079 0.26892,0.33632 0.59542,0.63841 1.08227,0.87671 2.32422,1.49428 3.7019,1.73945 0.34209,0.0609 0.690213,0.0808 1.035323,0.12121 3.2819,0.11448 6.5394,-0.40118 9.79247,-0.75198 4.40113,-0.48221 8.82306,-0.75102 13.2472,-0.8947 5.58606,-0.0415 11.16889,0.20439 16.73153,0.70407 3.03887,0.38403 6.08511,0.90893 8.97719,1.94976 1.43908,0.51792 2.24682,0.93789 3.60913,1.58234 2.47713,1.38307 0.59682,0.0533 2.41425,2.20061 0.26791,0.31654 0.61452,0.557 0.92178,0.8355 0.0371,0.0206 0.008,0.073 -0.0291,0.0525 v 0 c -0.39843,-0.11285 -0.7851,-0.28173 -1.19528,-0.33856 -2.79336,-0.38703 -0.60371,0.4865 -3.05508,-0.7693 -1.4865,-0.71326 -1.75065,-0.88407 -3.34176,-1.45896 -2.74434,-0.99158 -5.62481,-1.53118 -8.50625,-1.94022 -0.81803,-0.0855 -1.63435,-0.18929 -2.4541,-0.25638 -2.88188,-0.23584 -5.77932,-0.30174 -8.66816,-0.39251 -0.97447,-0.0306 -1.94859,-0.0762 -2.92342,-0.0919 -0.80431,-0.0129 -1.60882,0.004 -2.41324,0.006 -4.36604,0.14113 -8.73229,0.38583 -13.07702,0.84824 -2.61119,0.32782 -1.40189,0.19299 -4.03543,0.45505 -2.07966,0.20695 -4.16893,0.44031 -6.26231,0.31837 -0.425743,-0.0598 -0.855643,-0.0952 -1.277243,-0.1795 -1.7228,-0.3443 -3.31405,-1.13589 -4.63985,-2.28287 -0.20224,-0.20935 -0.42368,-0.40172 -0.60673,-0.62803 -0.41629,-0.5147 -0.80731,-1.26517 -0.75323,-1.95178 0.0181,-0.23058 0.0406,-0.49488 0.19698,-0.66535 0.24105,-0.26285 0.61179,-0.36676 0.91768,-0.55014 0.35239,0.40105 0.8058,0.73216 1.05719,1.20314 0.0774,0.14506 -0.0943,0.31673 -0.16733,0.46404 -0.14196,0.28624 -0.48381,0.66333 -0.68371,0.87363 -0.74747,0.78637 -0.78959,0.77005 -1.70713,1.53183 -0.4471,0.30588 -0.87655,0.6393 -1.3413,0.91764 -2.67032,1.59924 -5.70208,2.44363 -8.796247,2.64193 -4.03907,0.16803 -8.08131,0.18989 -12.12251,0.0696 -4.34367,-0.12935 -8.69068,-0.23999 -13.02233,-0.61129 -3.57025,-0.30087 -0.27528,-0.0274 -3.81672,-0.3091 -1.823,-0.14499 -3.65646,-0.32448 -5.48659,-0.3475 -0.63392,-0.008 -1.26773,0.0236 -1.9016,0.0354 -0.6286,0.0605 -1.26152,0.0863 -1.8858,0.18159 -1.63068,0.24885 -3.36956,0.66899 -4.769652,1.58469 -0.563481,0.36854 -0.803918,0.6836 -1.218076,1.14876 -0.540247,1.18758 -2.219737,0.42355 -1.679487,-0.76403 z" /><path
       style="display:inline;fill:#094bac;fill-opacity:1;stroke:none;stroke-width:0.264999"
       id="path15296"
       d="m 88.943608,68.541994 c -0.513972,0.61846 -0.501539,0.567658 -1.002265,1.382164 -0.189368,0.308036 -0.371568,0.621099 -0.535266,0.943512 -0.276002,0.543608 -0.69487,1.344063 -0.453006,2.000446 0.163552,0.443852 0.577059,0.749681 0.865587,1.124522 0.410662,0.118832 0.809138,0.293547 1.23199,0.356497 0.549182,0.08175 1.619716,-0.0376 2.177265,-0.116153 0.43487,-0.06127 1.07198,-0.103925 1.40266,-0.486595 0.14489,-0.167679 0.1692,-0.409654 0.2538,-0.614484 0.0262,-0.122851 0.0524,-0.2457 0.0786,-0.368551 0.0388,-0.01722 0.0144,-0.07206 -0.0244,-0.05483 v 0 c -0.0816,-0.07493 -0.16327,-0.149852 -0.2449,-0.224779 -0.14125,-0.138399 -0.24857,-0.323451 -0.42376,-0.4152 -0.38658,-0.202462 -0.91581,-0.0391 -1.29225,0.01138 -0.276393,0.03706 -0.552602,0.07691 -0.830274,0.102658 -1.006808,0.09337 -0.386379,-0.03638 -1.005377,0.112009 -0.02019,0.134239 0.01929,0.292944 -0.06056,0.402712 -0.03692,0.05074 -0.15466,-0.05702 -0.145762,-0.119132 0.03539,-0.247062 0.156186,-0.475498 0.263247,-0.700955 0.175392,-0.369353 0.684385,-1.210292 0.924621,-1.563939 0.104762,-0.154215 0.225978,-0.296585 0.338968,-0.444876 0.937907,-1.074081 -0.581075,-2.400477 -1.518978,-1.326398 z" /><path
       style="display:inline;fill:#094bac;fill-opacity:1;stroke:none;stroke-width:0.264999"
       id="path15298"
       d="m 90.082078,68.753515 c -0.07592,0.15667 -0.179919,0.302614 -0.227753,0.470008 -0.142277,0.497906 -0.158618,1.191416 -0.149479,1.692548 0.01386,0.76006 0.0886,1.501428 0.218093,2.250945 0.06518,0.377293 0.159819,0.748906 0.239729,1.123357 0.253825,0.8172 0.204084,1.098458 0.880095,1.657747 0.40444,0.334611 0.71387,0.364609 1.17466,0.472604 0.0257,0.03375 0.0734,-0.0026 0.0477,-0.03636 v 0 c 0.0326,-0.132519 0.0581,-0.266983 0.0978,-0.397557 0.0612,-0.201409 0.1644,-0.390816 0.20452,-0.597456 0.14585,-0.751305 0.0348,-0.822259 -0.15447,-1.57893 -0.17333,-0.813199 -0.26216,-1.133544 -0.3558,-1.964915 -0.0335,-0.297058 -0.0517,-0.595857 -0.0634,-0.894569 -0.009,-0.234963 -3e-5,-0.470284 10e-4,-0.705424 5.3e-4,-0.127043 0.0157,-0.254638 0.004,-0.381111 -0.004,-0.04336 -0.0342,-0.0801 -0.0513,-0.120148 0.70055,-1.318776 -1.164478,-2.309513 -1.865034,-0.990737 z" /><path
       style="display:inline;fill:#094bac;fill-opacity:1;stroke:none;stroke-width:0.264999"
       id="path15302"
       d="m 93.889287,67.525232 c 0.0226,0.123275 0.0396,0.247724 0.068,0.369822 0.0479,0.206438 0.24358,0.886004 0.29509,1.06436 0.134815,0.466799 0.271965,0.928865 0.440355,1.384562 0.43833,0.673015 0.1463,0.311544 1.975622,-0.562404 0.0632,-0.03019 -0.0239,-0.138512 -0.0258,-0.208523 -0.006,-0.212339 0.008,-0.499457 0.0822,-0.701725 0.0333,-0.09094 0.0995,-0.16623 0.1492,-0.249344 -0.0825,-0.08443 0.22533,-0.170997 0.24893,-0.08639 0.002,0.0072 -0.0692,0.20534 -0.0695,0.233426 -2.6e-4,0.02858 0.0169,0.0546 0.0252,0.08196 0.014,0.04637 0.0277,0.09283 0.0415,0.139242 0.18674,0.409265 0.10726,0.20905 0.27381,0.708618 0.0562,0.168626 0.0312,0.391646 0.16687,0.506473 0.23442,0.198382 0.57696,0.214635 0.8504,0.354404 0.15186,0.07762 0.27905,0.196136 0.41857,0.294203 0.0127,0.04048 0.07,0.02249 0.0572,-0.01799 v 0 c 0.0614,-0.150366 0.0971,-0.314058 0.18436,-0.451094 0.16449,-0.258437 0.48424,-0.429638 0.56439,-0.725307 0.0671,-0.247481 -0.0879,-0.506685 -0.16403,-0.751544 -0.21861,-0.703421 -0.34772,-0.81684 -0.73955,-1.438108 -0.49502,-0.450411 -0.65851,-0.726967 -1.33193,-0.871646 -0.54521,-0.117134 -1.04958,-0.02281 -1.524572,0.267758 -0.46574,0.284896 -0.57346,0.603229 -0.82805,1.050253 -0.0657,0.215519 -0.14749,0.426762 -0.197,0.646557 -0.0885,0.393036 -0.11227,0.805177 -0.0972,1.206659 0.006,0.171278 -0.12166,0.497258 0.0491,0.511842 2.100112,0.179347 2.025262,0.269811 1.974332,-0.579184 -0.11659,-0.46949 -0.26217,-0.927248 -0.41067,-1.387692 -0.0452,-0.140293 -0.28573,-0.885124 -0.34903,-1.050263 -0.0413,-0.107837 -0.0947,-0.210659 -0.142092,-0.315987 -0.40804,-1.404141 -2.393795,-0.82708 -1.985755,0.577059 z" /><text
       xml:space="preserve"
       transform="matrix(0.26458333,0,0,0.26458333,-13.490172,-1.3856219)"
       id="text3259"
       style="font-weight:500;font-size:18.6667px;font-family:'Fira Code';-inkscape-font-specification:'Fira Code Medium';text-align:center;white-space:pre;shape-inside:url(#rect3261);display:inline;fill:#094bac;fill-opacity:1;stroke-width:4"><tspan
         x="439.11644"
         y="272.58141"
         id="tspan2367">segments before </tspan><tspan
         x="439.11644"
         y="295.91478"
         id="tspan2369">coarse-graining</tspan></text></g></svg>
