<?xml version="1.0" encoding="UTF-8" standalone="no"?>
<!-- Created with Inkscape (http://www.inkscape.org/) -->

<svg
   width="1280"
   height="720"
   viewBox="0 0 338.66667 190.5"
   version="1.1"
   id="svg5"
   inkscape:version="1.2.2 (b0a8486541, 2022-12-01)"
   xml:space="preserve"
   sodipodi:docname="fig-cg.svg"
   xmlns:inkscape="http://www.inkscape.org/namespaces/inkscape"
   xmlns:sodipodi="http://sodipodi.sourceforge.net/DTD/sodipodi-0.dtd"
   xmlns="http://www.w3.org/2000/svg"
   xmlns:svg="http://www.w3.org/2000/svg"><sodipodi:namedview
     id="namedview7"
     pagecolor="#ffffff"
     bordercolor="#999999"
     borderopacity="1"
     inkscape:showpageshadow="0"
     inkscape:pageopacity="0"
     inkscape:pagecheckerboard="0"
     inkscape:deskcolor="#d1d1d1"
     inkscape:document-units="mm"
     showgrid="true"
     inkscape:zoom="1.4407301"
     inkscape:cx="341.49352"
     inkscape:cy="455.67175"
     inkscape:window-width="1920"
     inkscape:window-height="1056"
     inkscape:window-x="0"
     inkscape:window-y="1080"
     inkscape:window-maximized="1"
     inkscape:current-layer="layer2"
     showguides="true"><inkscape:grid
       type="xygrid"
       id="grid9" /></sodipodi:namedview><defs
     id="defs2"><rect
       x="398.15743"
       y="256.2482"
       width="254.22476"
       height="85.826265"
       id="rect3261" /><rect
       x="398.15744"
       y="256.2482"
       width="254.22476"
       height="85.826263"
       id="rect3261-9" /></defs><g
     inkscape:label="Layer 1"
     inkscape:groupmode="layer"
     id="layer1"
     style="display:inline"><path
       style="fill:#5e5c64;stroke:none;stroke-width:0.264999"
       id="path6813"
       d="m 41.095607,95.433659 c -0.06209,2.748852 0.0092,5.511991 0.361802,8.241871 0.07869,0.60929 0.145277,1.2238 0.298764,1.81866 0.105035,0.40707 0.314828,0.77965 0.472242,1.16947 0.281218,0.1454 0.562435,0.2908 0.843656,0.4362 -7.94e-4,0.0424 0.05921,0.0435 0.05999,10e-4 v 0 c 0.287832,-0.21455 0.575661,-0.42909 0.863494,-0.64364 0.06293,-0.41939 0.18157,-0.83414 0.188777,-1.25816 0.01005,-0.59181 -0.08769,-1.18055 -0.137316,-1.77035 -0.221168,-2.62839 -0.437377,-5.259854 -0.364966,-7.901186 0.06645,-1.82889 -2.519997,-1.92286 -2.586442,-0.09397 z"
       inkscape:export-filename="fig-cg.export-3.svg"
       inkscape:export-xdpi="96"
       inkscape:export-ydpi="96" /><path
       style="fill:#5e5c64;stroke:none;stroke-width:0.264999"
       id="path6815"
       d="m 43.025618,101.26471 c 4.242842,-0.10857 8.482298,-0.32285 12.722378,-0.50709 3.69515,-0.27119 7.392773,-0.25842 11.093455,-0.17353 3.37924,0.11714 6.759763,0.12389 10.140413,0.14708 2.516362,0.0537 5.030197,-0.0952 7.539723,-0.26126 2.427663,-0.21941 4.857837,-0.35472 7.294739,-0.3916 2.323309,-0.0397 4.644856,0.0497 6.965305,0.15024 2.638079,0.10302 5.279759,0.0455 7.918789,0.0107 3.5222,-0.016 7.04249,0.0119 10.55755,-0.244998 0.80175,-0.06738 2.12452,-0.161099 2.93209,-0.295097 0.37513,-0.06225 0.79476,-0.04287 1.11273,-0.251423 0.31787,-0.208484 0.44909,-0.613476 0.67364,-0.920213 0.0422,-0.0042 0.0362,-0.06393 -0.006,-0.0597 v 0 c -0.27907,-0.256354 -0.48629,-0.626049 -0.83721,-0.769059 -0.34981,-0.142557 -0.75509,-0.0425 -1.13273,-0.03375 -0.94926,0.02201 -1.8925,0.17671 -2.84322,0.174289 -3.49169,0.06906 -6.9829,0.120822 -10.47501,0.02437 -2.59524,0.0053 -5.19244,0.02734 -7.78522,-0.10772 -2.368505,-0.118491 -4.738364,-0.221425 -7.110483,-0.214334 -2.480234,0.02088 -4.954405,0.140846 -7.4255,0.359818 -2.448158,0.143809 -4.900911,0.284599 -7.354276,0.218284 -3.373086,-0.04114 -6.747563,0.01503 -10.11923,-0.133604 -3.75602,-0.04746 -7.510145,-0.01863 -11.258209,0.265324 -2.257025,0.115594 -4.514022,0.224184 -6.771521,0.329856 -0.118893,0.0056 -4.122885,0.200035 -4.47966,0.226203 -0.541814,0.03974 -1.08117,0.10787 -1.621756,0.161806 -1.62311,0.190341 -1.353928,2.485768 0.269185,2.295428 z" /><path
       style="fill:#5e5c64;stroke:none;stroke-width:0.264999"
       id="path6821"
       d="m 114.7745,100.26365 c 2.76407,-0.298697 5.54242,-0.459128 8.32023,-0.557727 2.37989,0.0024 4.75982,0.04388 7.13972,0.07229 1.83529,0.120729 3.66672,0.04648 5.49866,-0.07775 2.35465,-0.230844 4.71453,-0.369581 7.07969,-0.413073 1.17006,-0.03388 2.33543,0.09066 3.50421,0.1041 0.79671,0.01831 1.59166,-0.02156 2.38542,-0.08473 0.76757,-0.06003 1.53296,-0.131194 2.29017,-0.27272 0.53088,-0.143613 0.32189,-0.27211 0.30871,-0.967007 0.0422,-0.0039 0.0368,-0.06364 -0.006,-0.05975 v 0 c -0.20739,-0.661921 -0.0533,-0.869646 -0.60825,-0.827162 -0.68929,0.09506 -1.38433,0.152678 -2.07981,0.172448 -0.73509,0.01013 -1.4716,-5.29e-4 -2.2058,-0.03603 -1.20056,-0.08691 -2.39978,-0.20383 -3.60345,-0.231815 -2.40588,-0.01193 -4.80948,0.08639 -7.21019,0.241565 -1.77043,0.09559 -3.53931,0.150754 -5.3103,0.01659 -2.42336,-0.05751 -4.84815,-0.1007 -7.27208,-0.0887 -2.85004,0.105209 -5.69496,0.335724 -8.52658,0.677302 -1.64908,0.208706 -1.35393,2.540859 0.29515,2.332149 z" /><path
       style="fill:#5e5c64;stroke:none;stroke-width:0.264999"
       id="path6825"
       d="m 149.63219,94.018657 c -0.28524,1.782706 -0.25061,3.614719 -0.14283,5.411242 0.0811,1.351631 0.23325,3.346171 0.68536,4.661901 0.18696,0.54411 0.54202,1.015 0.81304,1.5225 0.1827,0.26392 0.36541,0.52783 0.54811,0.79175 0.004,0.0422 0.0639,0.0363 0.0597,-0.006 v 0 c 0.1261,-0.30993 0.25219,-0.61986 0.37828,-0.92978 0.11632,-0.55244 0.31144,-1.09401 0.34894,-1.65731 0.0474,-0.71199 -0.0508,-1.42642 -0.0962,-2.13854 -0.0494,-0.77448 -0.14456,-1.54572 -0.18827,-2.320551 -0.0937,-1.661917 -0.10607,-3.336684 0.0546,-4.994939 0.24069,-1.739956 -2.21998,-2.08034 -2.46067,-0.340384 z" /><path
       style="fill:#aba8af;fill-opacity:1;stroke:none;stroke-width:0.264999"
       id="path10024"
       d="m 58.168047,96.984811 c -0.03922,-0.195165 -0.110654,-0.381921 -0.156451,-0.575308 -0.01762,-0.07439 -0.0016,-0.160374 -0.04151,-0.225554 -0.476528,-0.777452 -1.209082,-0.275995 -2.001134,0.449003 -0.220707,0.202023 -0.05232,0.596125 -0.07849,0.894186 0.04988,1.175004 0.02812,1.012314 0.152292,2.282867 0.04433,0.453595 0.06875,0.910375 0.147293,1.359315 0.06856,0.39191 0.09057,0.81453 0.292944,1.15707 0.183838,0.31117 0.551905,0.46741 0.813882,0.71639 0.112189,0.10662 0.204473,0.2324 0.306708,0.3486 0.004,0.0422 0.06373,0.0366 0.05973,-0.006 v 0 c 0.07812,-0.13877 0.147667,-0.28273 0.234352,-0.41632 0.197353,-0.30414 0.511974,-0.54871 0.617019,-0.89572 0.111911,-0.36968 0.02657,-0.77309 0.0049,-1.15873 -0.02445,-0.43501 -0.101483,-0.86552 -0.142989,-1.299234 -0.07691,-0.803727 -0.103341,-1.321609 -0.151585,-2.102903 -0.270097,-0.840554 0.07592,-0.06834 -1.718757,0.180658 -0.07932,0.01101 -0.154728,-0.126669 -0.129161,-0.202557 0.02394,-0.07106 0.590785,0.261405 0.640857,0.288859 0.562129,0.813236 1.71222,0.01826 1.150091,-0.794973 z" /><path
       style="fill:#aba8af;fill-opacity:1;stroke:none;stroke-width:0.264999"
       id="path10028"
       d="m 47.778728,96.728739 c -0.051,1.12531 -0.07382,0.88515 0.07797,2.294385 0.05828,0.541054 0.01709,1.112156 0.217856,1.617946 0.194598,0.49024 0.624842,0.84996 0.931989,1.27875 0.203933,0.2847 0.40078,0.57441 0.60117,0.86161 0.0076,0.0417 0.06667,0.0309 0.05901,-0.0108 v 0 c 0.08718,-0.32972 0.157192,-0.66446 0.261541,-0.98915 0.157191,-0.4891 0.465346,-0.93942 0.522364,-1.44999 0.05662,-0.507027 -0.133226,-1.011682 -0.190836,-1.5186 -0.137102,-1.206336 -0.114842,-0.935392 -0.134493,-1.866847 0.153636,-1.659279 -2.192941,-1.876555 -2.346576,-0.217276 z" /><path
       style="fill:#aba8af;fill-opacity:1;stroke:none;stroke-width:0.264999"
       id="path10030"
       d="m 63.41542,97.096116 c -0.152945,1.186439 -0.15948,2.389579 -0.106431,3.583114 0.0456,1.02581 -0.02992,1.71646 0.647588,2.55737 0.222581,0.27626 0.57598,0.41436 0.863968,0.62154 0.0078,0.0417 0.06674,0.0307 0.05899,-0.011 v 0 c 0.203335,-0.24823 0.463566,-0.45917 0.610007,-0.74469 0.507847,-0.99014 0.331164,-1.37508 0.30166,-2.46914 -0.02808,-1.041377 -0.04329,-2.083415 0.06877,-3.121174 0.29419,-1.728563 -2.150364,-2.144607 -2.444554,-0.416047 z" /><path
       style="fill:#aba8af;fill-opacity:1;stroke:none;stroke-width:0.264999"
       id="path10030-3"
       d="m 69.901251,96.794098 c -0.152945,1.186439 -0.15948,2.389579 -0.106431,3.583112 0.0456,1.02581 -0.02992,1.71646 0.647588,2.55737 0.222581,0.27626 0.57598,0.41436 0.863968,0.62154 0.0078,0.0417 0.06674,0.0307 0.05899,-0.011 v 0 c 0.203335,-0.24823 0.463566,-0.45917 0.610007,-0.74469 0.507847,-0.99014 0.331164,-1.37508 0.30166,-2.46914 -0.02808,-1.041375 -0.04329,-2.083413 0.06877,-3.121172 0.29419,-1.728563 -2.150364,-2.144607 -2.444554,-0.416047 z" /><path
       style="fill:#aba8af;fill-opacity:1;stroke:none;stroke-width:0.264999"
       id="path10030-3-6"
       d="m 121.69859,95.674548 c -0.15295,1.186439 -0.15948,2.389579 -0.10643,3.583112 0.0456,1.02581 -0.0299,1.71646 0.64758,2.55737 0.22259,0.27626 0.57598,0.41436 0.86397,0.62154 0.008,0.0417 0.0667,0.0307 0.059,-0.011 v 0 c 0.20334,-0.24823 0.46357,-0.45917 0.61001,-0.74469 0.50785,-0.99014 0.33116,-1.37508 0.30166,-2.46914 -0.0281,-1.041375 -0.0433,-2.083413 0.0688,-3.121172 0.29419,-1.728563 -2.15036,-2.144607 -2.44455,-0.416047 z" /><path
       style="fill:#aba8af;fill-opacity:1;stroke:none;stroke-width:0.264999"
       id="path10032"
       d="m 83.640101,96.740905 c -0.117303,0.333875 -0.269804,0.657399 -0.351909,1.001625 -0.105619,0.442799 -0.199684,1.697736 -0.195813,2.14126 0.0029,0.33551 -0.03776,0.68834 0.07703,1.00361 0.15244,0.4187 0.776216,0.98634 1.098333,1.30735 0.0013,0.0424 0.06139,0.0404 0.05997,-0.002 v 0 c 0.245387,-0.27045 0.915603,-0.97293 1.036952,-1.28071 0.110474,-0.2802 0.07367,-0.59803 0.09835,-0.89821 0.02572,-0.312763 0.02832,-0.627112 0.05276,-0.939979 0.02035,-0.260379 0.07577,-0.518152 0.08155,-0.779262 0.0016,-0.07654 -0.03961,-0.147902 -0.05941,-0.221853 0.941731,-1.341948 -0.956067,-2.673757 -1.897798,-1.331812 z" /><path
       style="fill:#aba8af;fill-opacity:1;stroke:none;stroke-width:0.264999"
       id="path10034"
       d="m 75.951373,96.824563 c -0.0415,0.716114 -0.07653,0.991286 -0.01791,1.769782 0.03132,0.416084 -0.06587,0.885505 0.149636,1.242804 0.297629,0.493461 0.861644,0.765451 1.292468,1.148171 0.0061,0.042 0.06552,0.0333 0.05937,-0.009 v 0 c 0.311788,-0.42982 0.747292,-0.79289 0.935366,-1.289461 0.136882,-0.361408 -7.94e-4,-0.772962 -0.0079,-1.159354 -0.0011,-0.0525 -0.04503,-1.348965 -0.05244,-1.567686 0.09585,-1.667769 -2.262729,-1.803323 -2.35858,-0.135554 z" /><path
       style="fill:#aba8af;fill-opacity:1;stroke:none;stroke-width:0.264999"
       id="path10036"
       d="m 88.825074,96.587338 c 7.94e-4,0.528815 -0.0065,1.670897 0.03531,2.161212 0.03503,0.410768 -0.0019,0.850625 0.171008,1.224899 0.187955,0.406981 0.609857,0.660631 0.868781,1.026581 0.171291,0.24209 0.27637,0.5248 0.414554,0.7872 0.0062,0.042 0.06556,0.0332 0.05936,-0.009 v 0 c 0.259961,-1.25961 0.02566,-0.59634 0.835464,-1.937883 0.112681,-0.369859 0.02654,-0.773004 0.02553,-1.159645 -0.0019,-0.667118 -0.06025,-1.333492 -0.03468,-2.001055 0.06542,-1.679606 -2.309897,-1.772128 -2.37532,-0.09252 z" /><path
       style="fill:#aba8af;fill-opacity:1;stroke:none;stroke-width:0.264999"
       id="path10038"
       d="m 107.60884,96.637246 c -0.0605,0.896668 0.0969,1.79441 0.21978,2.679417 0.0749,0.539448 0.1261,1.400687 0.48987,1.878537 0.17295,0.22718 0.45807,0.34099 0.6871,0.51149 0.10262,0.10215 0.20524,0.20431 0.30787,0.30646 -0.001,0.0424 0.059,0.0437 0.06,0.001 v 0 c 0.10766,-0.12686 0.21532,-0.25372 0.32298,-0.38058 0.18633,-0.23467 0.44447,-0.42712 0.559,-0.70402 0.22424,-0.54215 0.0375,-1.400498 -0.0288,-1.924307 -0.10252,-0.810474 -0.17835,-1.628632 -0.34702,-2.428671 -0.0427,-1.605701 -2.31348,-1.545344 -2.2708,0.06036 z" /><path
       style="fill:#aba8af;fill-opacity:1;stroke:none;stroke-width:0.264999"
       id="path10040"
       d="m 99.850396,97.131382 c 0.02786,0.86778 0.02678,1.258602 0.12109,2.161508 0.04516,0.432332 0.07297,0.86927 0.170574,1.29285 0.0906,0.393 0.17685,0.80327 0.39114,1.14492 0.20945,0.33395 0.5732,0.5418 0.84554,0.8268 0.17641,0.18462 0.333,0.38721 0.4995,0.58081 0.0114,0.0409 0.0692,0.0248 0.0578,-0.0161 v 0 c 0.20827,-1.07205 0.0382,-0.49407 0.59173,-1.70788 0.0833,-0.3591 0.0471,-0.73699 0.0342,-1.10542 -0.014,-0.402164 -0.0805,-0.80082 -0.11483,-1.201764 -0.0865,-1.009462 -0.0797,-1.028835 -0.12308,-1.947394 0.0201,-1.749158 -2.453644,-1.7775 -2.473684,-0.02834 z" /><path
       style="fill:#aba8af;fill-opacity:1;stroke:none;stroke-width:0.264999"
       id="path10042"
       d="m 113.9868,96.509871 c -0.14246,0.838459 -0.11886,1.711454 -0.0306,2.555332 0.0334,0.319405 0.009,0.662683 0.14795,0.952017 0.0788,0.16355 1.08353,1.21533 1.27143,1.41511 0.008,0.0418 0.0666,0.0311 0.059,-0.0106 v 0 c 0.11298,-0.22977 0.21321,-0.46626 0.33894,-0.68932 0.16792,-0.29789 0.43909,-0.54523 0.54094,-0.871672 0.0907,-0.290562 0.0196,-0.608642 0.0159,-0.912997 -0.008,-0.660842 -0.0723,-1.32179 -0.0537,-1.983499 0.32127,-1.619242 -1.96868,-2.073596 -2.28996,-0.454354 z" /><path
       style="fill:#aba8af;fill-opacity:1;stroke:none;stroke-width:0.264999"
       id="path10044"
       d="m 136.12664,95.950665 c -0.0579,0.789371 -0.0916,1.593025 -0.0337,2.383457 0.0305,0.416536 -0.008,0.857549 0.15065,1.243862 0.16417,0.39956 0.54651,0.670996 0.78429,1.031626 0.14299,0.21687 0.23583,0.46292 0.35375,0.69438 0.002,0.0424 0.0623,0.0389 0.0599,-0.003 v 0 c 0.091,-0.24079 0.15116,-0.49561 0.27297,-0.72237 0.2003,-0.3729 0.55455,-0.665552 0.68828,-1.067169 0.12899,-0.387387 0.0649,-0.814459 0.0742,-1.222652 0.0181,-0.794052 -0.0272,-1.598295 -0.12904,-2.385902 -0.0341,-1.570648 -2.2553,-1.522468 -2.22123,0.04818 z" /><path
       style="fill:#aba8af;fill-opacity:1;stroke:none;stroke-width:0.264999"
       id="path10046"
       d="m 130.36313,96.40687 c -0.007,-0.11345 0.0115,-0.231028 -0.0195,-0.340349 -0.1595,-0.562192 -0.95682,-0.721254 -1.48668,-0.481804 -0.41301,0.186651 -0.57732,0.716963 -0.74267,1.138958 -0.13149,0.33556 0.0592,1.612476 0.0871,1.864907 0.096,0.562279 0.2486,1.794228 0.56851,2.297078 0.21429,0.33684 0.60191,0.52668 0.87426,0.81859 0.16491,0.17675 0.28838,0.38805 0.43257,0.58208 0.009,0.0414 0.0677,0.0285 0.0586,-0.013 v 0 c 0.0501,-0.23161 0.0678,-0.47267 0.15023,-0.69483 0.13707,-0.36942 0.42688,-0.68277 0.50428,-1.06912 0.099,-0.49403 -0.14959,-1.69889 -0.23482,-2.197214 -0.0333,-0.262562 -0.0677,-0.524986 -0.0999,-0.787686 -0.0145,-0.1182 0.0762,-0.380235 -0.0402,-0.354986 -0.25863,0.05612 -0.35542,0.46849 -0.61843,0.49789 -1.39102,0.155485 -1.40395,-0.414388 -0.73255,-0.336235 0.6536,0.918737 1.95289,-0.0056 1.2993,-0.924319 z" /><path
       style="fill:#aba8af;fill-opacity:1;stroke:none;stroke-width:0.264999"
       id="path10048"
       d="m 142.95147,95.528231 c -0.34149,0.877832 -0.29954,1.811232 -0.24701,2.731762 0.0241,0.423366 0.004,0.855269 0.10028,1.268199 0.22977,0.983428 0.52999,1.228098 1.10197,1.983668 0.13718,0.18284 0.27436,0.36568 0.41154,0.54852 0.009,0.0414 0.0677,0.0286 0.0586,-0.0128 v 0 c 0.0517,-0.20842 0.10339,-0.41684 0.15509,-0.62526 0.33251,-0.7928 0.56236,-1.17069 0.61821,-2.072778 0.0245,-0.395774 -0.0621,-0.790662 -0.0867,-1.186434 -0.0213,-0.343416 -0.0221,-0.688107 -0.0509,-1.030975 -0.0759,-0.90274 -0.14132,-0.322712 -0.0248,-0.975894 0.44407,-1.439844 -1.59218,-2.067851 -2.03625,-0.628008 z" /><path
       style="fill:#5e5c64;fill-opacity:1;stroke:none;stroke-width:0.264999"
       id="path14522"
       d="m 34.287102,104.14434 c 0.268685,-0.0186 0.54265,2.7e-4 0.806051,-0.0559 1.490334,-0.31798 2.622531,-1.42665 2.729211,-2.99664 0.02764,-0.40677 -0.09039,-0.81038 -0.135583,-1.215572 -0.182581,-0.38455 -0.314253,-0.797705 -0.547743,-1.153649 -0.672571,-1.025303 -1.802222,-1.81057 -3.065317,-1.810848 -1.168119,-2.57e-4 -1.456796,0.375491 -2.385459,0.97305 -0.284872,0.387038 -0.637561,0.732348 -0.854618,1.161108 -0.658235,1.300261 -0.663019,2.912191 0.158854,4.144051 0.258318,0.38718 0.595524,0.74101 0.995349,0.97929 0.358635,0.21373 0.804862,0.22227 1.207294,0.3334 0.375226,-0.23541 0.750453,-0.47081 1.12568,-0.70622 0.04211,0.005 0.04945,-0.0543 0.0074,-0.0595 v 0 c -0.122422,-0.29679 -0.244845,-0.59359 -0.36727,-0.89038 -0.122807,-0.13172 -0.236937,-0.2721 -0.36842,-0.39517 -0.291478,-0.27281 -0.551238,-0.34713 -0.698034,-0.75529 -0.225681,-0.62749 -0.02635,-1.28171 0.24102,-1.852086 0.243549,-0.258879 0.600937,-0.680498 1.024231,-0.615357 0.567438,0.08732 0.924777,0.600162 1.203719,1.042073 0.108572,0.31828 0.299067,0.75703 0.08043,1.08715 -0.246044,0.3715 -0.701735,0.50997 -1.076629,0.69819 -1.476679,-0.0567 -1.55679,2.03169 -0.08011,2.08833 z" /><path
       style="fill:#5e5c64;fill-opacity:1;stroke:none;stroke-width:0.264999"
       id="path14524"
       d="m 156.53384,99.56019 c 0.18067,-0.118747 0.36635,-0.230208 0.54202,-0.356237 0.26886,-0.192884 1.2997,-1.005613 1.5113,-1.169443 0.62752,-0.485854 1.26024,-0.953915 1.91695,-1.398992 -1.71413,0.906206 1.12529,-0.403267 -1.52459,-0.210648 -0.19184,0.01394 -0.0378,0.382953 -0.0479,0.575027 -0.0645,1.223383 -0.0837,2.448795 -0.0931,3.673553 0.008,0.28343 -0.10547,0.59766 0.0233,0.8503 0.11098,0.21783 0.88072,0.6466 1.14557,0.80324 -0.002,0.0424 0.0579,0.0452 0.0599,0.003 v 0 c 0.2818,-0.16783 1.02886,-0.5792 1.15673,-0.83882 0.11802,-0.23961 2.5e-4,-0.53419 2.7e-4,-0.80129 0.008,-1.272737 -5.3e-4,-1.023452 0.0374,-2.381637 0.012,-0.429033 0.0395,-0.857748 0.041,-1.286942 0.004,-1.107561 0.1545,-1.815965 -1.19952,-2.434431 -0.32504,-0.148465 -0.69353,0.172606 -1.0403,0.258908 -1.11881,1.061194 -2.285,2.07676 -3.51487,3.007577 -1.20702,0.697045 -0.22125,2.404025 0.98577,1.706983 z" /><path
       style="fill:#5e5c64;fill-opacity:1;stroke:none;stroke-width:0.264999"
       id="path14526"
       d="m 157.32064,103.04439 c 0.93451,-0.0683 1.86961,-0.14453 2.80228,-0.23514 0.45773,-0.0445 0.96407,0.0658 1.37184,-0.14682 0.48282,-0.2518 0.76307,-0.77703 1.14461,-1.16555 0.0424,-0.002 0.0396,-0.0619 -0.003,-0.0599 v 0 c -0.42867,-0.35109 -0.76777,-0.8572 -1.28601,-1.05328 -0.44255,-0.16744 -0.94652,0.008 -1.41919,0.0297 -1.00169,0.0459 -2.00562,0.14426 -3.00019,0.26965 -1.66972,0.27536 -1.28029,2.6367 0.38943,2.36133 z" /><path
       style="fill:#aba8af;fill-opacity:1;stroke:none;stroke-width:0.264999"
       id="path10030-3-7"
       d="m 94.537171,96.072368 c -0.152945,1.186439 -0.15948,2.389579 -0.106431,3.583112 0.0456,1.02581 -0.02992,1.71646 0.647588,2.55737 0.222581,0.27626 0.57598,0.41436 0.863968,0.62154 0.0078,0.0417 0.06674,0.0307 0.05899,-0.011 v 0 c 0.203335,-0.24823 0.463566,-0.45917 0.610007,-0.74469 0.507847,-0.99014 0.331164,-1.37508 0.30166,-2.46914 -0.02808,-1.041375 -0.04329,-2.083413 0.06877,-3.121172 0.29419,-1.728563 -2.150364,-2.144607 -2.444554,-0.416047 z" /><path
       style="display:inline;fill:#094bac;fill-opacity:1;stroke:none;stroke-width:0.264999"
       id="path13042-2"
       d="m 36.403565,87.31334 c 0.20099,-0.28814 0.363926,-0.60697 0.602975,-0.86442 1.73624,-1.8699 4.23844,-2.58624 6.67603,-2.97623 0.68629,-0.1098 1.38123,-0.15619 2.07184,-0.23428 3.86567,-0.20655 7.71504,0.30601 11.56247,0.59477 4.30226,0.29383 8.61079,0.48755 12.92145,0.59854 3.99297,0.0745 7.99055,0.11015 11.9808,-0.0773 2.793287,-0.18805 5.544277,-0.95407 7.940857,-2.42573 0.39909,-0.24507 0.76875,-0.53512 1.15313,-0.80269 0.62026,-0.51721 1.26377,-1.03379 1.75136,-1.68612 0.0318,-0.0425 0.10016,-0.18712 0.0743,-0.14078 -0.37295,0.66884 -0.13586,0.21519 0.81487,1.43383 0.54503,1.26585 0.75703,-0.78644 0.96319,-0.56029 0.0571,0.0626 0.0776,0.15108 0.12535,0.22099 0.23301,0.34079 0.26892,0.33632 0.59542,0.63841 1.08227,0.87671 2.32422,1.49428 3.7019,1.73945 0.34209,0.0609 0.690213,0.0808 1.035323,0.12121 3.2819,0.11448 6.5394,-0.40118 9.79247,-0.75198 4.40113,-0.48221 8.82306,-0.75102 13.2472,-0.8947 5.58606,-0.0415 11.16889,0.20439 16.73153,0.70407 3.03887,0.38403 6.08511,0.90893 8.97719,1.94976 1.43908,0.51792 2.24682,0.93789 3.60913,1.58234 2.47713,1.38307 0.59682,0.0533 2.41425,2.20061 0.26791,0.31654 0.61452,0.557 0.92178,0.8355 0.0371,0.0206 0.008,0.073 -0.0291,0.0525 v 0 c -0.39843,-0.11285 -0.7851,-0.28173 -1.19528,-0.33856 -2.79336,-0.38703 -0.60371,0.4865 -3.05508,-0.7693 -1.4865,-0.71326 -1.75065,-0.88407 -3.34176,-1.45896 -2.74434,-0.99158 -5.62481,-1.53118 -8.50625,-1.94022 -0.81803,-0.0855 -1.63435,-0.18929 -2.4541,-0.25638 -2.88188,-0.23584 -5.77932,-0.30174 -8.66816,-0.39251 -0.97447,-0.0306 -1.94859,-0.0762 -2.92342,-0.0919 -0.80431,-0.0129 -1.60882,0.004 -2.41324,0.006 -4.36604,0.14113 -8.73229,0.38583 -13.07702,0.84824 -2.61119,0.32782 -1.40189,0.19299 -4.03543,0.45505 -2.07966,0.20695 -4.16893,0.44031 -6.26231,0.31837 -0.425743,-0.0598 -0.855643,-0.0952 -1.277243,-0.1795 -1.7228,-0.3443 -3.31405,-1.13589 -4.63985,-2.28287 -0.20224,-0.20935 -0.42368,-0.40172 -0.60673,-0.62803 -0.41629,-0.5147 -0.80731,-1.26517 -0.75323,-1.95178 0.0181,-0.23058 0.0406,-0.49488 0.19698,-0.66535 0.24105,-0.26285 0.61179,-0.36676 0.91768,-0.55014 0.35239,0.40105 0.8058,0.73216 1.05719,1.20314 0.0774,0.14506 -0.0943,0.31673 -0.16733,0.46404 -0.14196,0.28624 -0.48381,0.66333 -0.68371,0.87363 -0.74747,0.78637 -0.78959,0.77005 -1.70713,1.53183 -0.4471,0.30588 -0.87655,0.6393 -1.3413,0.91764 -2.67032,1.59924 -5.70208,2.44363 -8.796247,2.64193 -4.03907,0.16803 -8.08131,0.18989 -12.12251,0.0696 -4.34367,-0.12935 -8.69068,-0.23999 -13.02233,-0.61129 -3.57025,-0.30087 -0.27528,-0.0274 -3.81672,-0.3091 -1.823,-0.14499 -3.65646,-0.32448 -5.48659,-0.3475 -0.63392,-0.008 -1.26773,0.0236 -1.9016,0.0354 -0.6286,0.0605 -1.26152,0.0863 -1.8858,0.18159 -1.63068,0.24885 -3.36956,0.66899 -4.769652,1.58469 -0.563481,0.36854 -0.803918,0.6836 -1.218076,1.14876 -0.540247,1.18758 -2.219737,0.42355 -1.679487,-0.76403 z" /><path
       style="display:inline;fill:#094bac;fill-opacity:1;stroke:none;stroke-width:0.264999"
       id="path15296"
       d="m 88.943608,68.541994 c -0.513972,0.61846 -0.501539,0.567658 -1.002265,1.382164 -0.189368,0.308036 -0.371568,0.621099 -0.535266,0.943512 -0.276002,0.543608 -0.69487,1.344063 -0.453006,2.000446 0.163552,0.443852 0.577059,0.749681 0.865587,1.124522 0.410662,0.118832 0.809138,0.293547 1.23199,0.356497 0.549182,0.08175 1.619716,-0.0376 2.177265,-0.116153 0.43487,-0.06127 1.07198,-0.103925 1.40266,-0.486595 0.14489,-0.167679 0.1692,-0.409654 0.2538,-0.614484 0.0262,-0.122851 0.0524,-0.2457 0.0786,-0.368551 0.0388,-0.01722 0.0144,-0.07206 -0.0244,-0.05483 v 0 c -0.0816,-0.07493 -0.16327,-0.149852 -0.2449,-0.224779 -0.14125,-0.138399 -0.24857,-0.323451 -0.42376,-0.4152 -0.38658,-0.202462 -0.91581,-0.0391 -1.29225,0.01138 -0.276393,0.03706 -0.552602,0.07691 -0.830274,0.102658 -1.006808,0.09337 -0.386379,-0.03638 -1.005377,0.112009 -0.02019,0.134239 0.01929,0.292944 -0.06056,0.402712 -0.03692,0.05074 -0.15466,-0.05702 -0.145762,-0.119132 0.03539,-0.247062 0.156186,-0.475498 0.263247,-0.700955 0.175392,-0.369353 0.684385,-1.210292 0.924621,-1.563939 0.104762,-0.154215 0.225978,-0.296585 0.338968,-0.444876 0.937907,-1.074081 -0.581075,-2.400477 -1.518978,-1.326398 z" /><path
       style="display:inline;fill:#094bac;fill-opacity:1;stroke:none;stroke-width:0.264999"
       id="path15298"
       d="m 90.082078,68.753515 c -0.07592,0.15667 -0.179919,0.302614 -0.227753,0.470008 -0.142277,0.497906 -0.158618,1.191416 -0.149479,1.692548 0.01386,0.76006 0.0886,1.501428 0.218093,2.250945 0.06518,0.377293 0.159819,0.748906 0.239729,1.123357 0.253825,0.8172 0.204084,1.098458 0.880095,1.657747 0.40444,0.334611 0.71387,0.364609 1.17466,0.472604 0.0257,0.03375 0.0734,-0.0026 0.0477,-0.03636 v 0 c 0.0326,-0.132519 0.0581,-0.266983 0.0978,-0.397557 0.0612,-0.201409 0.1644,-0.390816 0.20452,-0.597456 0.14585,-0.751305 0.0348,-0.822259 -0.15447,-1.57893 -0.17333,-0.813199 -0.26216,-1.133544 -0.3558,-1.964915 -0.0335,-0.297058 -0.0517,-0.595857 -0.0634,-0.894569 -0.009,-0.234963 -3e-5,-0.470284 10e-4,-0.705424 5.3e-4,-0.127043 0.0157,-0.254638 0.004,-0.381111 -0.004,-0.04336 -0.0342,-0.0801 -0.0513,-0.120148 0.70055,-1.318776 -1.164478,-2.309513 -1.865034,-0.990737 z" /><path
       style="display:inline;fill:#094bac;fill-opacity:1;stroke:none;stroke-width:0.264999"
       id="path15302"
       d="m 93.889287,67.525232 c 0.0226,0.123275 0.0396,0.247724 0.068,0.369822 0.0479,0.206438 0.24358,0.886004 0.29509,1.06436 0.134815,0.466799 0.271965,0.928865 0.440355,1.384562 0.43833,0.673015 0.1463,0.311544 1.975622,-0.562404 0.0632,-0.03019 -0.0239,-0.138512 -0.0258,-0.208523 -0.006,-0.212339 0.008,-0.499457 0.0822,-0.701725 0.0333,-0.09094 0.0995,-0.16623 0.1492,-0.249344 -0.0825,-0.08443 0.22533,-0.170997 0.24893,-0.08639 0.002,0.0072 -0.0692,0.20534 -0.0695,0.233426 -2.6e-4,0.02858 0.0169,0.0546 0.0252,0.08196 0.014,0.04637 0.0277,0.09283 0.0415,0.139242 0.18674,0.409265 0.10726,0.20905 0.27381,0.708618 0.0562,0.168626 0.0312,0.391646 0.16687,0.506473 0.23442,0.198382 0.57696,0.214635 0.8504,0.354404 0.15186,0.07762 0.27905,0.196136 0.41857,0.294203 0.0127,0.04048 0.07,0.02249 0.0572,-0.01799 v 0 c 0.0614,-0.150366 0.0971,-0.314058 0.18436,-0.451094 0.16449,-0.258437 0.48424,-0.429638 0.56439,-0.725307 0.0671,-0.247481 -0.0879,-0.506685 -0.16403,-0.751544 -0.21861,-0.703421 -0.34772,-0.81684 -0.73955,-1.438108 -0.49502,-0.450411 -0.65851,-0.726967 -1.33193,-0.871646 -0.54521,-0.117134 -1.04958,-0.02281 -1.524572,0.267758 -0.46574,0.284896 -0.57346,0.603229 -0.82805,1.050253 -0.0657,0.215519 -0.14749,0.426762 -0.197,0.646557 -0.0885,0.393036 -0.11227,0.805177 -0.0972,1.206659 0.006,0.171278 -0.12166,0.497258 0.0491,0.511842 2.100112,0.179347 2.025262,0.269811 1.974332,-0.579184 -0.11659,-0.46949 -0.26217,-0.927248 -0.41067,-1.387692 -0.0452,-0.140293 -0.28573,-0.885124 -0.34903,-1.050263 -0.0413,-0.107837 -0.0947,-0.210659 -0.142092,-0.315987 -0.40804,-1.404141 -2.393795,-0.82708 -1.985755,0.577059 z" /><text
       xml:space="preserve"
       transform="matrix(0.26458333,0,0,0.26458333,-13.490172,-1.3856219)"
       id="text3259"
       style="font-weight:500;font-size:18.6667px;font-family:'Fira Code';-inkscape-font-specification:'Fira Code Medium';text-align:center;white-space:pre;shape-inside:url(#rect3261);display:inline;fill:#094bac;fill-opacity:1;stroke-width:4"><tspan
         x="439.11644"
         y="272.58141"
         id="tspan2702">segments before </tspan><tspan
         x="439.11644"
         y="295.91478"
         id="tspan2704">coarse-graining</tspan></text></g><g
     inkscape:groupmode="layer"
     id="layer2"
     inkscape:label="Layer 2"
     style="display:inline"><path
       style="fill:#5e5c64;fill-opacity:1;stroke:none;stroke-width:0.264999"
       id="path7901"
       d="m 70.443317,95.226356 c -0.138084,2.234435 -0.03825,4.495646 0.244033,6.716494 0.07897,0.62135 0.05951,1.27883 0.308557,1.85353 0.21204,0.48929 0.684297,0.81804 1.026448,1.22707 0.151331,0.24137 0.302665,0.48275 0.453996,0.72413 0.01021,0.0412 0.06845,0.0267 0.05824,-0.0144 v 0 c 0.02519,-0.26726 0.0504,-0.53453 0.07559,-0.8018 0.205475,-0.46321 0.537181,-0.88913 0.616426,-1.38964 0.09454,-0.59714 -0.06674,-1.20737 -0.109765,-1.81041 -0.153152,-2.146853 -0.344961,-4.290534 -0.326451,-6.445647 0.04192,-1.659633 -2.305156,-1.718916 -2.347076,-0.05928 z" /><path
       style="fill:#5e5c64;fill-opacity:1;stroke:none;stroke-width:0.264999"
       id="path7905"
       d="m 94.165318,95.189836 c -0.05633,2.094246 0.0563,4.220367 0.430255,6.285494 0.108987,0.60187 0.121301,1.25099 0.415306,1.78735 0.269365,0.49141 0.804199,0.78065 1.206299,1.17099 0.164883,0.2447 0.329769,0.4894 0.494652,0.7341 0.0159,0.0393 0.07152,0.0169 0.05563,-0.0225 v 0 c -0.04432,-0.27291 -0.08864,-0.54581 -0.132953,-0.81872 0.178842,-0.47963 0.480914,-0.93004 0.536524,-1.4389 0.06238,-0.57085 -0.126613,-1.1415 -0.192193,-1.71199 -0.21966,-1.910793 -0.431244,-3.821608 -0.445394,-5.747833 0.168296,-1.674513 -2.199825,-1.912522 -2.368122,-0.238006 z" /><path
       style="fill:#5e5c64;fill-opacity:1;stroke:none;stroke-width:0.264999"
       id="path7911"
       d="m 121.16629,95.346717 c -0.20214,1.627021 -0.31124,3.273578 -0.27242,4.913993 0.0339,1.43208 0.0902,2.90493 0.57418,4.27625 0.17919,0.50769 0.5132,0.9466 0.7698,1.4199 0.15506,0.26054 0.31011,0.52107 0.46517,0.78161 0.0101,0.0412 0.0684,0.0269 0.0583,-0.0143 v 0 c 0.0222,-0.28127 0.0444,-0.56255 0.0666,-0.84383 0.13099,-0.49541 0.31784,-0.97934 0.39297,-1.48623 0.21297,-1.43689 0.0802,-2.6523 0.0733,-4.09905 -0.007,-1.532006 0.0598,-3.06339 0.19673,-4.589134 0.25401,-1.643761 -2.07062,-2.00298 -2.32462,-0.359219 z" /><path
       style="fill:#a51d2d;fill-opacity:1;stroke:none;stroke-width:0.264999"
       id="path10052"
       d="m 42.691941,111.0046 c -0.17386,1.3927 0.188323,2.49421 1.289198,3.4265 0.246571,0.20881 0.536009,0.36095 0.804011,0.54143 0.687776,0.2792 1.013333,0.48733 1.777471,0.49286 1.116279,0.008 2.105101,-0.47768 3.092854,-0.92609 0.399101,-0.18118 0.797481,-0.36394 1.196219,-0.54591 0.935484,-0.40256 1.382143,-0.63624 2.350616,-0.90004 0.43715,-0.11908 1.065644,-0.26908 1.544698,-0.15409 0.236131,0.0567 0.370438,0.28154 0.505953,0.45105 0.289078,0.38484 0.515045,0.81179 0.724556,1.24365 0.06048,0.12465 0.114191,0.25248 0.173045,0.37791 0.0421,0.0897 0.07028,0.18825 0.129805,0.26749 0.145798,0.19408 0.321016,0.36422 0.481526,0.54633 0.482457,0.0222 0.973047,0.1575 1.447368,0.0665 0.210405,-0.0404 1.120905,-0.87378 1.26827,-0.99938 0.363294,-0.30965 0.934027,-0.8014 1.349719,-1.04958 0.220977,-0.13193 0.464698,-0.22137 0.697047,-0.33205 0.899906,-0.20762 1.809663,-0.12781 2.715482,-0.0138 0.395616,0.0498 0.78539,0.15071 1.183416,0.17457 1.35591,0.0813 2.153097,-0.045 3.516087,-0.16793 1.339541,-0.26138 2.700211,-0.61092 3.788103,-1.48285 0.188299,-0.15093 0.483582,-0.28371 0.498975,-0.52453 0.01963,-0.30698 -0.284604,-0.54573 -0.412692,-0.8254 -0.02516,-0.0549 -0.03046,-0.11695 -0.04568,-0.17542 -0.0123,-0.0406 -0.06972,-0.0232 -0.05742,0.0174 v 0 c 0.147754,0.41163 -0.0073,-0.12238 -0.601456,-0.15007 -0.122336,-0.006 -0.176318,0.17179 -0.277487,0.24081 -0.907619,0.61923 -1.944413,0.96054 -3.018544,1.16211 -0.517935,0.0269 -1.036143,0.11221 -1.553811,0.0806 -0.683884,-0.0418 -2.021639,-0.42221 -2.711296,-0.55991 -1.540579,-0.30761 -2.579574,-0.39657 -4.112361,0.0783 -0.341085,0.18021 -0.695565,0.33709 -1.023252,0.54065 -0.502047,0.31188 -1.061082,0.80679 -1.508339,1.19549 -0.176623,0.1535 -0.357807,0.3023 -0.525272,0.46574 -0.03701,0.0361 -0.132178,0.10879 -0.08494,0.12982 0.306666,0.13654 0.647724,0.17663 0.971585,0.26494 0.06566,0.10561 0.07538,0.29085 0.196993,0.31682 0.10768,0.023 -0.08513,-0.20316 -0.131787,-0.30289 -0.276431,-0.59083 -0.576138,-1.2028 -0.970454,-1.72473 -0.195205,-0.25839 -0.423622,-0.48991 -0.635432,-0.73487 -0.844616,-0.5745 -0.970285,-0.81138 -2.039368,-0.91505 -0.362694,-0.0352 -0.731385,0.0139 -1.090607,0.0751 -1.287915,0.2194 -2.466798,0.84227 -3.660818,1.33258 -0.668657,0.31329 -1.327036,0.64926 -2.004517,0.94299 -0.205238,0.089 -0.8029,0.3312 -1.085253,0.35709 -0.360013,0.033 -0.549338,-0.0739 -0.887317,-0.18766 -0.145973,-0.0815 -0.300148,-0.14983 -0.437917,-0.24455 -0.281421,-0.19348 -0.615288,-0.51229 -0.704752,-0.86052 -0.05132,-0.19976 -0.02326,-0.46072 -0.01252,-0.66352 0.246044,-1.49179 -1.863669,-1.83975 -2.109713,-0.34796 z" /><path
       style="fill:#a51d2d;fill-opacity:1;stroke:none;stroke-width:0.264999"
       id="path12280"
       d="m 73.423083,110.5155 c -0.01757,0.14099 -0.05362,0.28089 -0.05267,0.42296 0.0048,0.72317 0.327459,1.54113 0.876879,2.0281 0.178388,0.15812 0.393999,0.26843 0.590998,0.40264 0.25786,0.0695 0.508695,0.17444 0.77358,0.20841 0.45475,0.0583 0.985753,-0.0404 1.426343,-0.1411 0.655984,-0.14997 1.295373,-0.37974 1.929622,-0.6004 0.584546,-0.21178 1.172239,-0.41145 1.776759,-0.55837 0.32241,-0.0784 0.585845,-0.14245 0.915982,-0.15447 0.111067,-0.004 0.221946,0.0122 0.332917,0.0184 0.08985,0.0285 0.185333,0.0432 0.269537,0.0855 0.100771,0.0507 0.369284,0.32926 0.413459,0.37781 0.237172,0.26065 0.41825,0.53431 0.581776,0.84416 0.487606,0.7652 0.557221,0.98388 2.070113,0.61236 0.241258,-0.0593 0.503555,-0.81999 0.646179,-1.07725 0.06087,-0.1098 0.138546,-0.20939 0.20782,-0.31409 0.08549,-0.0892 0.159234,-0.19142 0.256484,-0.26766 0.501584,-0.3932 1.045411,-0.34938 1.639956,-0.29233 0.327335,0.0314 0.653939,0.07 0.980909,0.10506 1.531228,0.23229 3.083578,0.63338 4.637061,0.3292 0.895738,-0.17539 1.054838,-0.32602 1.820296,-0.73074 0.08288,-0.29773 0.165761,-0.59545 0.248642,-0.89317 0.03892,-0.0169 0.01503,-0.0719 -0.02389,-0.055 v 0 c -0.277916,-0.14114 -0.555834,-0.28227 -0.833752,-0.4234 -0.490781,0.16325 -0.806051,0.29482 -1.333252,0.35235 -1.374589,0.15 -2.791997,-0.32106 -4.103507,-0.65801 -0.848913,-0.23201 -1.462228,-0.47116 -2.356797,-0.43808 -0.912786,0.0338 -1.790825,0.50939 -2.443446,1.11931 -0.18918,0.1768 -0.33955,0.39103 -0.509325,0.58654 -0.114623,0.18883 -0.237226,0.37303 -0.343874,0.56647 -0.07243,0.13137 -0.221065,0.25942 -0.192662,0.40672 0.01887,0.0979 0.136105,-0.18962 0.235601,-0.18404 0.536805,0.0301 1.063263,0.16621 1.587339,0.28624 0.03052,0.007 0.04955,0.115 0.03782,0.086 -0.04213,-0.10427 -0.08602,-0.20781 -0.129032,-0.31172 -0.211523,-0.35603 -0.357415,-0.62678 -0.625734,-0.9568 -0.527862,-0.64926 -1.193519,-1.20414 -2.000541,-1.46927 -0.22507,-0.0739 -0.468707,-0.0694 -0.703059,-0.10402 -0.225319,0.001 -0.451204,-0.0119 -0.675957,0.004 -0.204997,0.0146 -0.407784,0.0526 -0.610293,0.0876 -0.88374,0.15287 -1.730711,0.44559 -2.566236,0.76559 -0.53035,0.18863 -1.055823,0.36786 -1.603357,0.50062 -0.123539,0.03 -0.248658,0.0531 -0.372433,0.082 -0.05751,0.0135 -0.123341,0.0108 -0.171331,0.0452 -0.01998,0.0143 0.0039,0.049 0.0058,0.0735 -0.0036,0.0193 0.0081,0.0526 -0.01085,0.0578 -0.09698,0.0267 -0.14705,-0.18482 -0.203838,-0.23075 -0.0092,-0.007 -0.02656,0.0107 -0.0354,0.003 -0.01347,-0.012 -0.01236,-0.0339 -0.01852,-0.0508 0.386107,-1.65615 -1.956038,-2.20219 -2.342144,-0.54604 z" /><path
       style="fill:#a51d2d;fill-opacity:1;stroke:none;stroke-width:0.264999"
       id="path12292"
       d="m 80.180729,121.49313 c 0.466678,-0.28067 -0.279625,0.15618 0.485701,-0.22527 0.125537,-0.0626 0.230442,-0.16623 0.362326,-0.21399 0.120975,-0.0438 0.378529,-0.0669 0.485296,0.0619 0.02682,0.0323 -7.94e-4,0.084 -0.0011,0.12604 -0.03508,0.0967 -0.15475,0.13401 -0.196517,0.22418 -0.04674,0.10091 -0.06223,0.21353 -0.09334,0.3203 -0.06748,0.17195 -0.119478,0.35082 -0.20243,0.51587 -0.275113,0.5474 -0.477467,0.76861 -0.847979,1.26137 -0.160432,0.16606 -0.314944,0.33806 -0.481298,0.49819 -0.839388,0.80797 -1.581192,0.7639 0.516776,2.44808 0.981985,-0.1662 1.980232,-0.22432 2.974295,-0.26406 0.255284,-0.0102 0.511739,0.001 0.766144,-0.0221 0.194968,-0.018 0.385635,-0.0681 0.578456,-0.10209 0.562639,-0.55363 0.315684,-0.2513 0.742883,-0.90534 0.0417,0.008 0.05272,-0.0512 0.01101,-0.059 v 0 c -0.29051,-0.80265 -0.07262,-0.43308 -0.674521,-1.09616 -0.232211,-0.0504 -0.460047,-0.12909 -0.696634,-0.15121 -0.286944,-0.0268 -0.576588,-0.006 -0.864569,0.005 -1.186775,0.0457 -2.374818,0.20152 -3.529475,0.47888 -1.129684,0.46616 -1.004501,0.20058 0.405106,2.21637 0.06967,0.0996 0.223327,-0.0963 0.332888,-0.14897 0.175641,-0.0844 0.359201,-0.15595 0.52252,-0.26228 0.601152,-0.3914 0.794557,-0.66001 1.307029,-1.19201 0.227552,-0.30014 0.480851,-0.58239 0.682654,-0.90041 0.808791,-1.27456 1.412997,-3.06516 0.387681,-4.42335 -0.2125,-0.28149 -0.551535,-0.43976 -0.827302,-0.65964 -0.331616,-0.0795 -0.654005,-0.2279 -0.994847,-0.23839 -0.913839,-0.0281 -1.853726,0.53863 -2.329352,1.30269 -0.353795,0.56836 -0.314237,0.74863 -0.364252,1.3289 -0.05388,1.09092 1.488922,1.16712 1.542799,0.0762 z" /><path
       style="fill:#a51d2d;fill-opacity:1;stroke:none;stroke-width:0.264999"
       id="path12294"
       d="m 84.897472,117.68514 c 0.0033,0.13947 0.0019,0.27915 0.01,0.41842 0.0093,0.15725 0.09922,1.16862 0.11974,1.28078 0.03485,0.19044 0.107202,0.37209 0.158203,0.55885 0.09549,0.34968 -0.02302,0.37748 0.128992,0.32124 2.745679,-0.69639 1.890173,0.19227 1.828392,-0.82423 -0.0088,-0.14393 -0.02246,-0.29446 0.02048,-0.43212 0.03338,-0.10704 0.25857,-0.41436 0.417687,-0.43943 0.04198,-0.007 0.05955,0.0606 0.08933,0.091 0.03972,0.13788 -0.196255,0.18219 -0.203674,0.30392 -0.004,0.065 0.03001,0.12733 0.05567,0.18714 0.06319,0.14728 0.139372,0.28865 0.210135,0.43244 0.408381,0.82988 0.123359,0.47608 0.930997,1.05473 0.249605,0.10711 0.499208,0.21422 0.748813,0.32134 0.01109,0.0409 0.069,0.0253 0.05792,-0.0157 v 0 c 0.15335,-0.24851 0.306697,-0.49702 0.460047,-0.74554 0.05056,-0.31027 0.188748,-0.61864 0.151693,-0.93082 -0.03772,-0.31778 -0.215368,-0.60538 -0.367464,-0.88695 -0.169156,-0.31315 -0.352573,-0.6252 -0.591743,-0.88878 -0.40541,-0.44677 -1.010007,-0.8268 -1.638207,-0.8381 -0.321599,-0.006 -0.627158,0.14322 -0.940737,0.21483 -0.209153,0.18057 -0.453908,0.32669 -0.627465,0.5417 -0.493352,0.6112 -0.550367,1.44354 -0.571846,2.19125 -0.0051,0.17635 -0.161047,0.48779 0.01045,0.52915 0.640678,0.15452 1.317675,-0.0333 1.976511,-0.05 0.04575,-0.31932 0.03081,-0.10022 -0.01566,-0.54498 -0.01839,-0.17609 -0.0195,-0.3544 -0.05005,-0.52879 -0.03311,-0.18899 -0.101478,-0.37034 -0.140372,-0.55821 -0.06242,-0.3015 -0.0752,-0.5059 -0.10315,-0.80112 -0.02683,-1.50238 -2.151526,-1.46443 -2.124692,0.0379 z" /><path
       style="fill:#a51d2d;fill-opacity:1;stroke:none;stroke-width:0.264999"
       id="path12298"
       d="m 51.483696,123.73956 c 0.104473,-0.0268 0.213982,-0.0387 0.313423,-0.0804 0.436975,-0.18356 0.258588,-0.2347 0.70826,-0.3 0.118287,-0.0172 0.338775,-0.0258 0.155972,0.15494 -0.04504,0.0445 -0.11389,0.0555 -0.170836,0.0832 -0.04083,0.0431 -0.10164,0.0737 -0.122481,0.12926 -0.05087,0.13565 -0.05372,0.28479 -0.08578,0.42608 -0.05447,0.24003 -0.09374,0.48491 -0.173749,0.71767 -0.182282,0.53028 -0.388094,0.88733 -0.746181,1.31329 -0.139769,0.16626 -0.307533,0.30682 -0.461301,0.46023 -0.131794,0.0935 -0.259424,0.19318 -0.395383,0.28053 -0.07816,0.0502 -0.161361,0.0926 -0.24579,0.13139 -0.01169,0.005 -0.05145,4e-5 -0.03861,-8e-4 0.173845,-0.0115 0.417076,-0.17038 0.521746,-0.0311 0.961183,1.27899 0.949245,1.18258 0.647705,1.88075 1.228389,0.12796 2.413468,0.50812 3.633438,0.685 0.312079,0.0453 0.627825,0.06 0.941734,0.09 0.251534,-0.0456 0.514025,-0.0503 0.754602,-0.13676 0.407162,-0.14627 0.728703,-0.40842 0.868109,-0.82863 0.0423,-0.12751 -0.0074,-0.26859 -0.01109,-0.40288 0.0265,-0.0331 -0.02037,-0.0706 -0.04686,-0.0375 v 0 c -0.516816,-0.39947 0.121629,0.13462 -0.37352,-0.44293 -0.272095,-0.31738 -0.445331,-0.31973 -0.853252,-0.48801 -1.159063,-0.23271 -0.548476,-0.11322 -1.832142,-0.3565 -0.370594,-0.0738 -0.738113,-0.16315 -1.109866,-0.2309 -0.761751,-0.13881 -1.564185,-0.28677 -2.344862,-0.18635 -0.289962,0.0373 -0.557302,0.17689 -0.835956,0.26534 -0.94968,0.75996 -1.263571,0.68589 -0.09452,2.46183 0.138171,0.2099 0.502732,0.058 0.753041,0.0357 0.173104,-0.0154 0.339019,-0.0821 0.500176,-0.1471 0.618483,-0.2496 0.733481,-0.39721 1.304738,-0.81713 0.255174,-0.26014 0.537585,-0.49613 0.765524,-0.78045 0.262885,-0.3279 0.506627,-0.67542 0.700579,-1.04827 0.347607,-0.66824 0.654611,-1.69324 0.681385,-2.44845 0.01643,-0.4635 0.01114,-0.94361 -0.13053,-1.38524 -0.128405,-0.40025 -0.439211,-0.71684 -0.658818,-1.07526 -0.327943,-0.18057 -0.622612,-0.44336 -0.983832,-0.54172 -1.041513,-0.28358 -2.172626,0.38792 -2.689217,1.26582 -0.09047,0.15374 -0.133059,0.33102 -0.199586,0.49652 -0.628488,0.95723 0.725231,1.84605 1.35372,0.88882 z" /><path
       style="fill:#a51d2d;fill-opacity:1;stroke:none;stroke-width:0.264999"
       id="path12300"
       d="m 56.234964,121.22868 c 0.110228,0.67247 0.19852,1.34808 0.328052,2.01716 0.06115,0.31585 0.02458,0.19877 0.08893,0.38018 0.745924,-0.21196 1.559743,-0.25958 2.237777,-0.63589 0.171961,-0.0954 -0.03181,-0.39256 -0.03034,-0.58922 0.0016,-0.21797 0.0146,-0.43619 0.03964,-0.65272 5.29e-4,-0.004 0.08106,-0.75246 0.246528,-0.827 0.06361,-0.0286 0.01119,0.13909 0.0168,0.20863 0.260731,0.4777 -0.525687,0.18636 -0.5515,0.41496 -0.01114,0.0987 0.100978,0.17107 0.151138,0.2568 0.283567,0.48465 0.481693,0.924 0.964875,1.27182 0.280397,0.20184 0.624152,0.29647 0.936228,0.44471 0.145497,0.16451 0.290994,0.32902 0.436488,0.49353 0.01418,0.04 0.07073,0.0199 0.05655,-0.02 v 0 c 0.005,-0.23137 0.01005,-0.46273 0.01508,-0.69409 0.08819,-0.36741 0.268801,-0.7244 0.264573,-1.10222 -0.0084,-0.75329 -0.494713,-1.55389 -0.960694,-2.09412 -0.451043,-0.52291 -1.111962,-1.05193 -1.863754,-1.03151 -0.38067,0.0104 -0.720193,0.24777 -1.080289,0.37166 -0.176196,0.24518 -0.392684,0.46593 -0.52859,0.73554 -0.107518,0.21329 -0.143269,0.45665 -0.190418,0.69081 -0.107918,0.53596 -0.120999,1.01645 -0.140544,1.56124 -0.008,0.2217 -0.225046,0.59613 -0.01429,0.66537 0.719574,0.23643 1.513991,0.0507 2.270987,0.0761 0.10735,-0.0114 0.01331,0.003 -0.01955,-0.282 -0.07954,-0.69048 -0.186124,-1.37762 -0.309994,-2.06161 -0.284208,-1.67139 -2.647908,-1.26946 -2.3637,0.40193 z" /><path
       style="fill:#a51d2d;fill-opacity:1;stroke:none;stroke-width:0.264999"
       id="path12304"
       d="m 122.91691,110.50388 c 0.001,0.90341 0.20502,1.54512 0.9035,2.19218 0.55558,0.51467 0.99047,0.62979 1.6659,0.9135 0.72014,0.15741 1.0294,0.28506 1.77693,0.20833 0.72548,-0.0745 1.39668,-0.32434 2.06849,-0.58914 0.59873,-0.23599 1.38839,-0.60748 1.97695,-0.87748 0.79412,-0.34676 0.874,-0.44237 1.69663,-0.58497 0.35153,-0.0609 0.66861,-0.13134 0.97561,0.0778 0.0781,0.0532 0.18479,0.35116 0.21087,0.4144 0.0421,0.10339 0.0889,0.20499 0.12632,0.31016 0.032,0.09 0.0492,0.18475 0.0817,0.27454 0.0938,0.25955 0.46346,0.78131 0.56068,0.81567 0.98687,0.34881 1.19962,0.0542 1.81729,-0.3791 0.37851,-0.25846 0.9234,-0.65214 1.3356,-0.83669 0.6278,-0.28106 1.51463,-0.4729 2.206,-0.37422 0.17377,0.0248 0.33769,0.096 0.50654,0.14396 0.56327,0.21136 1.08478,0.52994 1.66937,0.68705 0.40102,0.10777 1.25691,0.24057 1.67079,0.24351 0.28727,0.002 0.57258,-0.0476 0.85887,-0.0714 1.04089,-0.2049 1.76262,-0.53031 2.33271,-1.46899 0.11709,-0.1928 0.33728,-0.3897 0.29168,-0.61061 -0.0628,-0.30407 -0.3799,-0.49121 -0.56985,-0.73682 -0.0197,-0.0938 -0.0393,-0.18764 -0.0589,-0.28146 0.0114,-0.0409 -0.0464,-0.057 -0.0578,-0.0161 v 0 c -0.0634,0.0634 -0.1269,0.12678 -0.19035,0.19017 -0.28518,0.0267 -0.59283,-0.034 -0.85554,0.0801 -0.11389,0.0495 -0.086,0.23303 -0.13136,0.34861 -0.12261,0.31209 -0.16137,0.4121 -0.49866,0.54469 -0.13786,0.0542 -0.28385,0.0848 -0.42577,0.12727 -0.4463,0.0453 -0.60238,0.0972 -1.05822,-0.0134 -0.1871,-0.0454 -0.3634,-0.12799 -0.541,-0.20235 -0.66259,-0.27742 -1.28459,-0.65157 -1.98321,-0.8425 -0.88462,-0.16998 -1.07786,-0.27714 -1.99894,-0.16252 -1.37522,0.17112 -2.56948,0.85457 -3.66436,1.66347 -0.0854,0.0677 -0.34397,0.13873 -0.2561,0.20317 0.23274,0.17066 0.59246,0.0688 0.83672,0.22258 0.15078,0.0949 0.0863,0.42497 0.25941,0.46731 0.13546,0.0331 -0.0139,-0.28037 -0.048,-0.4156 -0.0478,-0.1896 -0.11442,-0.3752 -0.19617,-0.55283 -0.10556,-0.22936 -0.24265,-0.44284 -0.36398,-0.66426 -0.5637,-0.61535 -0.67377,-0.90213 -1.52619,-1.14754 -1.28118,-0.36885 -2.66519,0.34532 -3.7917,0.85833 -0.57263,0.26601 -1.24722,0.58788 -1.83253,0.82584 -0.39565,0.16085 -0.98116,0.39069 -1.4279,0.45494 -0.45026,0.0648 -0.63059,-0.008 -1.07477,-0.0902 -0.56941,-0.21431 -0.49121,-0.1563 -0.98742,-0.44493 -0.0839,-0.0488 -0.18297,-0.0836 -0.24414,-0.15898 -0.17551,-0.21642 -0.21825,-0.67663 -0.34987,-0.93153 -0.13153,-1.19906 -1.82726,-1.01306 -1.69574,0.186 z" /><path
       style="fill:#a51d2d;fill-opacity:1;stroke:none;stroke-width:0.264999"
       id="path12306"
       d="m 130.70232,119.80008 c 0.19013,-0.002 0.3231,0.2111 0.38302,0.37082 0.0229,0.0611 0.013,0.13343 0.0445,0.19054 0.0182,0.0329 0.22431,0.14723 0.23968,0.15625 0.0261,0.0381 0.0885,0.0692 0.0782,0.11417 -0.0119,0.052 -0.0984,0.0525 -0.12672,0.0977 -0.0384,0.0614 -0.038,0.14002 -0.0642,0.20754 -0.053,0.13666 -0.11502,0.26962 -0.17287,0.40428 -0.39474,0.91879 -0.18343,0.4833 -0.66489,1.36229 -0.10322,0.17348 -0.20299,0.34906 -0.30966,0.52045 -0.14524,0.23336 -0.59321,0.79241 -0.4386,1.07223 0.26765,0.48441 0.7303,0.86775 1.21931,1.12688 0.14413,0.0764 1.5115,-0.15817 1.63488,-0.17707 0.78235,-0.18425 1.78763,-0.13858 2.37734,-0.80183 0.20416,-0.22962 0.29117,-0.54117 0.43675,-0.81175 0.0417,-0.008 0.0304,-0.0669 -0.0112,-0.0589 v 0 c -0.2515,-0.19482 -0.46598,-0.45045 -0.75451,-0.58447 -0.7238,-0.33621 -1.64057,0.084 -2.3738,0.14962 -0.24388,0.038 -0.48852,0.0714 -0.73163,0.11401 -0.12417,0.0218 -0.40077,-0.0431 -0.36981,0.0792 0.10307,0.40683 0.53018,0.67272 0.66131,1.07139 0.0438,0.13321 -0.32021,0.34253 -0.18455,0.37805 0.40014,0.10475 0.22064,-1.44367 0.75379,-0.98569 0.39836,-0.67538 0.78895,-1.2384 0.98639,-2.01944 0.11369,-0.44975 0.21339,-0.91833 0.17506,-1.38064 -0.0676,-0.81583 -0.54064,-1.48073 -1.22594,-1.89773 -0.26489,-0.16117 -0.59586,-0.1718 -0.89379,-0.25771 -0.69655,0.0636 -1.08822,-0.006 -1.66981,0.46833 -0.46438,0.37862 -0.77413,0.91755 -0.72566,1.53233 0.021,0.26635 0.13623,0.52287 0.26752,0.75556 0.0854,0.15137 0.24497,0.2466 0.36746,0.36989 1.10751,0.77248 2.19996,-0.79377 1.09245,-1.56625 z" /><path
       style="fill:#a51d2d;fill-opacity:1;stroke:none;stroke-width:0.264999"
       id="path12308"
       d="m 134.50617,117.4359 c 0.001,0.12617 -0.004,0.25257 0.003,0.37851 0.01,0.15815 0.0329,0.31518 0.0487,0.47285 0.0513,0.5127 0.0834,1.02823 0.22587,1.52526 0.20835,0.72671 0.092,0.51435 1.91402,0.0242 0.12161,-0.0327 5.3e-4,-0.25365 0.0264,-0.3769 0.0671,-0.31972 0.23105,-0.69304 0.41183,-0.96142 0.0854,-0.12672 0.20088,-0.23026 0.30131,-0.34539 0.0606,0.0109 0.16266,-0.0259 0.18191,0.0326 0.0688,0.20907 -0.20345,0.19272 -0.24804,0.31101 -0.0215,0.057 0.0171,0.12114 0.0346,0.17952 0.0323,0.10809 0.23622,0.64672 0.26568,0.72546 0.65279,0.66378 -0.0763,0.004 0.90595,0.5781 0.0909,0.0531 0.15031,0.1476 0.22547,0.22139 0.004,0.0422 0.064,0.0362 0.0597,-0.006 v 0 c 0.0584,-0.0928 0.10469,-0.19426 0.17509,-0.27824 0.65472,-0.7809 0.41944,-0.1671 0.60183,-1.15008 -0.1735,-0.59188 -0.20982,-0.89857 -0.59953,-1.41667 -0.6123,-0.81401 -1.46745,-1.25408 -2.46321,-0.76791 -0.24378,0.11903 -0.4034,0.36285 -0.6051,0.54427 -0.12139,0.20158 -0.25277,0.39747 -0.36417,0.60474 -0.29516,0.54914 -0.35923,0.76519 -0.58107,1.33632 -0.0498,0.1283 -0.28231,0.3481 -0.14967,0.38483 4.34087,1.20192 1.25466,-0.17565 1.83345,0.0829 0.004,-0.49769 -0.0974,-0.98392 -0.16763,-1.47486 -0.0204,-0.1425 -0.0318,-0.28624 -0.0544,-0.4284 -0.0143,-0.0902 -0.0375,-0.17873 -0.0563,-0.26809 -0.0509,-1.36177 -1.97677,-1.28976 -1.92584,0.072 z" /><path
       style="display:inline;fill:#a51d2d;fill-opacity:1;stroke:none;stroke-width:0.264999"
       id="path12304-5"
       d="m 96.893702,110.77114 c 10e-4,0.90341 0.20502,1.54512 0.9035,2.19218 0.55558,0.51467 0.99047,0.62979 1.6659,0.9135 0.720138,0.15741 1.029398,0.28506 1.776928,0.20833 0.72548,-0.0745 1.39668,-0.32434 2.06849,-0.58914 0.59873,-0.23599 1.38839,-0.60748 1.97695,-0.87748 0.79412,-0.34676 0.874,-0.44237 1.69663,-0.58497 0.35153,-0.0609 0.66861,-0.13134 0.97561,0.0778 0.0781,0.0532 0.18479,0.35116 0.21087,0.4144 0.0421,0.10339 0.0889,0.20499 0.12632,0.31016 0.032,0.09 0.0492,0.18475 0.0817,0.27454 0.0938,0.25955 0.46346,0.78131 0.56068,0.81567 0.98687,0.34881 1.19962,0.0542 1.81729,-0.3791 0.37851,-0.25846 0.9234,-0.65214 1.3356,-0.83669 0.6278,-0.28106 1.51463,-0.4729 2.206,-0.37422 0.17377,0.0248 0.33769,0.096 0.50654,0.14396 0.56327,0.21136 1.08478,0.52994 1.66937,0.68705 0.40102,0.10777 1.25691,0.24057 1.67079,0.24351 0.28727,0.002 0.57258,-0.0476 0.85887,-0.0714 1.04089,-0.2049 1.76262,-0.53031 2.33271,-1.46899 0.11709,-0.1928 0.33728,-0.3897 0.29168,-0.61061 -0.0628,-0.30407 -0.3799,-0.49121 -0.56985,-0.73682 -0.0197,-0.0938 -0.0393,-0.18764 -0.0589,-0.28146 0.0114,-0.0409 -0.0464,-0.057 -0.0578,-0.0161 v 0 c -0.0634,0.0634 -0.1269,0.12678 -0.19035,0.19017 -0.28518,0.0267 -0.59283,-0.034 -0.85554,0.0801 -0.11389,0.0495 -0.086,0.23303 -0.13136,0.34861 -0.12261,0.31209 -0.16137,0.4121 -0.49866,0.54469 -0.13786,0.0542 -0.28385,0.0848 -0.42577,0.12727 -0.4463,0.0453 -0.60238,0.0972 -1.05822,-0.0134 -0.1871,-0.0454 -0.3634,-0.12799 -0.541,-0.20235 -0.66259,-0.27742 -1.28459,-0.65157 -1.98321,-0.8425 -0.88462,-0.16998 -1.07786,-0.27714 -1.99894,-0.16252 -1.37522,0.17112 -2.56948,0.85457 -3.66436,1.66347 -0.0854,0.0677 -0.34397,0.13873 -0.2561,0.20317 0.23274,0.17066 0.59246,0.0688 0.83672,0.22258 0.15078,0.0949 0.0863,0.42497 0.25941,0.46731 0.13546,0.0331 -0.0139,-0.28037 -0.048,-0.4156 -0.0478,-0.1896 -0.11442,-0.3752 -0.19617,-0.55283 -0.10556,-0.22936 -0.24265,-0.44284 -0.36398,-0.66426 -0.5637,-0.61535 -0.67377,-0.90213 -1.52619,-1.14754 -1.28118,-0.36885 -2.66519,0.34532 -3.7917,0.85833 -0.57263,0.26601 -1.24722,0.58788 -1.83253,0.82584 -0.39565,0.16085 -0.98116,0.39069 -1.4279,0.45494 -0.45026,0.0648 -0.63059,-0.008 -1.07477,-0.0902 -0.569408,-0.21431 -0.491208,-0.1563 -0.987418,-0.44493 -0.0839,-0.0488 -0.18297,-0.0836 -0.24414,-0.15898 -0.17551,-0.21642 -0.21825,-0.67663 -0.34987,-0.93153 -0.13153,-1.19906 -1.82726,-1.01306 -1.69574,0.186 z" /><path
       style="display:inline;fill:#a51d2d;fill-opacity:1;stroke:none;stroke-width:0.264999"
       id="path12306-3"
       d="m 104.67911,120.06734 c 0.19013,-0.002 0.3231,0.2111 0.38302,0.37082 0.0229,0.0611 0.013,0.13343 0.0445,0.19054 0.0182,0.0329 0.22431,0.14723 0.23968,0.15625 0.0261,0.0381 0.0885,0.0692 0.0782,0.11417 -0.0119,0.052 -0.0984,0.0525 -0.12672,0.0977 -0.0384,0.0614 -0.038,0.14002 -0.0642,0.20754 -0.053,0.13666 -0.11502,0.26962 -0.17287,0.40428 -0.39474,0.91879 -0.18343,0.4833 -0.66489,1.36229 -0.10322,0.17348 -0.20299,0.34906 -0.30966,0.52045 -0.14524,0.23336 -0.59321,0.79241 -0.4386,1.07223 0.26765,0.48441 0.7303,0.86775 1.21931,1.12688 0.14413,0.0764 1.5115,-0.15817 1.63488,-0.17707 0.78235,-0.18425 1.78763,-0.13858 2.37734,-0.80183 0.20416,-0.22962 0.29117,-0.54117 0.43675,-0.81175 0.0417,-0.008 0.0304,-0.0669 -0.0112,-0.0589 v 0 c -0.2515,-0.19482 -0.46598,-0.45045 -0.75451,-0.58447 -0.7238,-0.33621 -1.64057,0.084 -2.3738,0.14962 -0.24388,0.038 -0.48852,0.0714 -0.73163,0.11401 -0.12417,0.0218 -0.40077,-0.0431 -0.36981,0.0792 0.10307,0.40683 0.53018,0.67272 0.66131,1.07139 0.0438,0.13321 -0.32021,0.34253 -0.18455,0.37805 0.40014,0.10475 0.22064,-1.44367 0.75379,-0.98569 0.39836,-0.67538 0.78895,-1.2384 0.98639,-2.01944 0.11369,-0.44975 0.21339,-0.91833 0.17506,-1.38064 -0.0676,-0.81583 -0.54064,-1.48073 -1.22594,-1.89773 -0.26489,-0.16117 -0.59586,-0.1718 -0.89379,-0.25771 -0.69655,0.0636 -1.08822,-0.006 -1.66981,0.46833 -0.46438,0.37862 -0.77413,0.91755 -0.72566,1.53233 0.021,0.26635 0.13623,0.52287 0.26752,0.75556 0.0854,0.15137 0.24497,0.2466 0.36746,0.36989 1.10751,0.77248 2.19996,-0.79377 1.09245,-1.56625 z" /><path
       style="display:inline;fill:#a51d2d;fill-opacity:1;stroke:none;stroke-width:0.264999"
       id="path12308-5"
       d="m 108.48296,117.70316 c 10e-4,0.12617 -0.004,0.25257 0.003,0.37851 0.01,0.15815 0.0329,0.31518 0.0487,0.47285 0.0513,0.5127 0.0834,1.02823 0.22587,1.52526 0.20835,0.72671 0.092,0.51435 1.91402,0.0242 0.12161,-0.0327 5.3e-4,-0.25365 0.0264,-0.3769 0.0671,-0.31972 0.23105,-0.69304 0.41183,-0.96142 0.0854,-0.12672 0.20088,-0.23026 0.30131,-0.34539 0.0606,0.0109 0.16266,-0.0259 0.18191,0.0326 0.0688,0.20907 -0.20345,0.19272 -0.24804,0.31101 -0.0215,0.057 0.0171,0.12114 0.0346,0.17952 0.0323,0.10809 0.23622,0.64672 0.26568,0.72546 0.65279,0.66378 -0.0763,0.004 0.90595,0.5781 0.0909,0.0531 0.15031,0.1476 0.22547,0.22139 0.004,0.0422 0.064,0.0362 0.0597,-0.006 v 0 c 0.0584,-0.0928 0.10469,-0.19426 0.17509,-0.27824 0.65472,-0.7809 0.41944,-0.1671 0.60183,-1.15008 -0.1735,-0.59188 -0.20982,-0.89857 -0.59953,-1.41667 -0.6123,-0.81401 -1.46745,-1.25408 -2.46321,-0.76791 -0.24378,0.11903 -0.4034,0.36285 -0.6051,0.54427 -0.12139,0.20158 -0.25277,0.39747 -0.36417,0.60474 -0.29516,0.54914 -0.35923,0.76519 -0.58107,1.33632 -0.0498,0.1283 -0.28231,0.3481 -0.14967,0.38483 4.34087,1.20192 1.25466,-0.17565 1.83345,0.0829 0.004,-0.49769 -0.0974,-0.98392 -0.16763,-1.47486 -0.0204,-0.1425 -0.0318,-0.28624 -0.0544,-0.4284 -0.0143,-0.0902 -0.0375,-0.17873 -0.0563,-0.26809 -0.0509,-1.36177 -1.97677,-1.28976 -1.92584,0.072 z" /></g><g
     inkscape:groupmode="layer"
     id="layer3"
     inkscape:label="Layer 3"
     style="display:inline"><path
       style="fill:#813d9c;fill-opacity:1;stroke:none;stroke-width:0.264999"
       id="path13042"
       d="m 37.71232,135.61416 c 0.20099,0.28814 0.363926,0.60697 0.602975,0.86442 1.73624,1.8699 4.23844,2.58624 6.67603,2.97623 0.68629,0.1098 1.38123,0.15619 2.07184,0.23428 3.86567,0.20655 7.71504,-0.30601 11.56247,-0.59477 4.30226,-0.29383 8.61079,-0.48755 12.92145,-0.59854 3.99297,-0.0745 7.99055,-0.11015 11.9808,0.0773 2.79329,0.18805 5.54428,0.95407 7.94086,2.42573 0.39909,0.24507 0.76875,0.53512 1.15313,0.80269 0.62026,0.51721 1.26377,1.03379 1.75136,1.68612 0.0318,0.0425 0.10016,0.18712 0.0743,0.14078 -0.37295,-0.66884 -0.13586,-0.21519 0.81487,-1.43383 0.54503,-1.26585 0.75703,0.78644 0.96319,0.56029 0.0571,-0.0626 0.0776,-0.15108 0.12535,-0.22099 0.23301,-0.34079 0.26892,-0.33632 0.59542,-0.63841 1.08227,-0.87671 2.32422,-1.49428 3.701895,-1.73945 0.34209,-0.0609 0.69021,-0.0808 1.03532,-0.12121 3.2819,-0.11448 6.5394,0.40118 9.79247,0.75198 4.40113,0.48221 8.82306,0.75102 13.2472,0.8947 5.58606,0.0415 11.16889,-0.20439 16.73153,-0.70407 3.03887,-0.38403 6.08511,-0.90893 8.97719,-1.94976 1.43908,-0.51792 2.24682,-0.93789 3.60913,-1.58234 2.47713,-1.38307 0.59682,-0.0533 2.41425,-2.20061 0.26791,-0.31654 0.61452,-0.557 0.92178,-0.8355 0.0371,-0.0206 0.008,-0.073 -0.0291,-0.0525 v 0 c -0.39843,0.11285 -0.7851,0.28173 -1.19528,0.33856 -2.79336,0.38703 -0.60371,-0.4865 -3.05508,0.7693 -1.4865,0.71326 -1.75065,0.88407 -3.34176,1.45896 -2.74434,0.99158 -5.62481,1.53118 -8.50625,1.94022 -0.81803,0.0855 -1.63435,0.18929 -2.4541,0.25638 -2.88188,0.23584 -5.77932,0.30174 -8.66816,0.39251 -0.97447,0.0306 -1.94859,0.0762 -2.92342,0.0919 -0.80431,0.0129 -1.60882,-0.004 -2.41324,-0.006 -4.36604,-0.14113 -8.73229,-0.38583 -13.07702,-0.84824 -2.61119,-0.32782 -1.40189,-0.19299 -4.03543,-0.45505 -2.07966,-0.20695 -4.16893,-0.44031 -6.26231,-0.31837 -0.42574,0.0598 -0.85564,0.0952 -1.27724,0.1795 -1.722795,0.3443 -3.314045,1.13589 -4.639845,2.28287 -0.20224,0.20935 -0.42368,0.40172 -0.60673,0.62803 -0.41629,0.5147 -0.80731,1.26517 -0.75323,1.95178 0.0181,0.23058 0.0406,0.49488 0.19698,0.66535 0.24105,0.26285 0.61179,0.36676 0.91768,0.55014 0.35239,-0.40105 0.8058,-0.73216 1.05719,-1.20314 0.0774,-0.14506 -0.0943,-0.31673 -0.16733,-0.46404 -0.14196,-0.28624 -0.48381,-0.66333 -0.68371,-0.87363 -0.74747,-0.78637 -0.78959,-0.77005 -1.70713,-1.53183 -0.4471,-0.30588 -0.87655,-0.6393 -1.3413,-0.91764 -2.67032,-1.59924 -5.70208,-2.44363 -8.79625,-2.64193 -4.03907,-0.16803 -8.08131,-0.18989 -12.12251,-0.0696 -4.34367,0.12935 -8.69068,0.23999 -13.02233,0.61129 -3.57025,0.30087 -0.27528,0.0274 -3.81672,0.3091 -1.823,0.14499 -3.65646,0.32448 -5.48659,0.3475 -0.63392,0.008 -1.26773,-0.0236 -1.9016,-0.0354 -0.6286,-0.0605 -1.26152,-0.0863 -1.8858,-0.18159 -1.63068,-0.24885 -3.36956,-0.66899 -4.769652,-1.58469 -0.563481,-0.36854 -0.803918,-0.6836 -1.218076,-1.14876 -0.540247,-1.18758 -2.219737,-0.42355 -1.679487,0.76403 z" /><path
       style="fill:#813d9c;fill-opacity:1;stroke:none;stroke-width:0.264999"
       id="path13044"
       d="m 89.492449,152.49224 c 0.25568,-0.0637 0.50971,-0.16643 0.77777,-0.16506 0.0626,2.6e-4 0.13785,-0.004 0.18401,0.0382 0.0237,0.0218 -0.0275,0.0778 -0.0596,0.0759 -0.13988,-0.008 -0.27166,-0.0688 -0.40749,-0.10316 -0.0525,0.0436 -0.12707,0.0696 -0.15753,0.13071 -0.10267,0.2058 -0.15457,0.43324 -0.23186,0.64986 -0.15809,0.33381 -0.3082,0.67152 -0.47426,1.00145 -0.3113,0.61845 -0.67772,1.20824 -0.98606,1.82817 -0.10987,0.22089 -0.19758,0.45213 -0.29637,0.67819 0.0189,0.38655 -0.17731,0.85147 0.0568,1.15965 0.81575,1.07392 1.58864,0.97193 2.65299,0.83547 0.54196,-0.0695 1.8014,-0.34452 2.30032,-0.54071 0.3453,-0.13578 0.6559,-0.3471 0.98385,-0.52065 0.69104,-1.11066 0.37461,-0.6224 0.93853,-1.47172 0.038,-0.0189 0.0112,-0.0726 -0.0267,-0.0537 v 0 c -0.92516,-0.10398 -0.41065,7.9e-4 -1.52343,-0.40078 -0.32897,0.035 -0.66109,0.0477 -0.9869,0.10513 -0.343,0.0604 -0.67488,0.17299 -1.01511,0.24746 -0.30254,0.0662 -0.60787,0.11912 -0.91259,0.17448 -0.17819,0.0324 -0.52481,-0.0921 -0.53606,0.0887 -0.0186,0.29965 0.32219,0.5067 0.48327,0.76005 -0.0452,0.1916 -0.0905,0.38321 -0.13575,0.57482 0.31036,-0.78799 0.0409,-0.16581 0.65886,-1.27353 0.42844,-0.76802 0.94632,-1.69427 1.22819,-2.52515 0.15042,-0.4434 0.30214,-0.89861 0.32646,-1.3662 0.0233,-0.44749 -0.12412,-0.88756 -0.18618,-1.33134 -0.30662,-0.32965 -0.54542,-0.739 -0.91987,-0.98896 -0.25443,-0.16983 -0.58613,-0.19461 -0.89099,-0.21982 -0.68182,-0.0564 -1.42702,0.26591 -1.96186,0.66338 -0.13009,0.0967 -0.23848,0.21959 -0.35772,0.32938 -1.14537,1.04324 0.32999,2.66304 1.47536,1.61981 z" /><path
       style="fill:#813d9c;fill-opacity:1;stroke:none;stroke-width:0.264999"
       id="path13046"
       d="m 92.938559,149.11905 c 0.0934,0.67927 0.29464,1.33555 0.50169,1.98679 0.0509,0.16015 0.10089,0.32066 0.15692,0.4791 0.0295,0.0835 0.0112,0.24105 0.0996,0.24629 0.69474,0.0412 1.38975,-0.0779 2.08462,-0.11681 0.0746,-0.63682 0.1196,-1.32317 0.55574,-1.83691 0.23816,-0.28054 0.20681,-0.23444 0.28429,-0.0457 0.0341,0.14582 -0.24828,0.15994 -0.24711,0.2859 7.9e-4,0.0979 0.0837,0.17724 0.12073,0.26791 0.0637,0.15583 0.12483,0.31279 0.1815,0.47132 0.34382,0.9619 0.0622,0.4102 0.60286,1.27241 1.11504,0.27101 0.90212,-0.0816 1.1187,0.52477 0.01,0.0413 0.0682,0.0274 0.0584,-0.0139 v 0 c -0.0807,-0.64798 -0.10717,-0.22486 0.72871,-1.04238 -0.005,-0.26836 0.0308,-0.54086 -0.0165,-0.80509 -0.0564,-0.31541 -0.1729,-0.6183 -0.29121,-0.91607 -0.3913,-0.98479 -0.98745,-1.98133 -2.11988,-2.23873 -0.34485,-0.0784 -0.70631,0.0373 -1.05946,0.0559 -0.27213,0.17018 -0.57479,0.29925 -0.8164,0.51054 -0.36709,0.32102 -0.66471,0.91611 -0.83759,1.35693 -0.17177,0.43799 -0.35228,1.01391 -0.32736,1.49774 0.67646,0.0191 1.35368,0.0946 2.02938,0.0573 0.0575,-0.003 -0.0293,-0.11141 -0.0445,-0.16696 -0.0442,-0.16121 -0.088,-0.32255 -0.13372,-0.48334 -0.15942,-0.56034 -0.23027,-0.81783 -0.43407,-1.37462 -0.0707,-0.19314 -0.15254,-0.38202 -0.22881,-0.57302 -0.42468,-1.39051 -2.39115,-0.78992 -1.96647,0.60058 z" /><text
       xml:space="preserve"
       transform="matrix(0.26458333,0,0,0.26458333,-14.483572,80.522942)"
       id="text3259-1"
       style="font-weight:500;font-size:18.6667px;font-family:'Fira Code';-inkscape-font-specification:'Fira Code Medium';text-align:center;white-space:pre;shape-inside:url(#rect3261-9);display:inline;fill:#813d9c;fill-opacity:1;stroke-width:4"><tspan
         x="444.86005"
         y="272.58141"
         id="tspan2706">segments after
</tspan><tspan
         x="439.11644"
         y="295.91478"
         id="tspan2708">coarse-graining</tspan></text></g></svg>
