<?xml version="1.0" encoding="UTF-8" standalone="no"?>
<!-- Created with Inkscape (http://www.inkscape.org/) -->

<svg
   width="559.51117"
   height="425.2511"
   viewBox="0 0 148.03733 112.51435"
   version="1.1"
   id="svg5"
   xmlns:xlink="http://www.w3.org/1999/xlink"
   xmlns="http://www.w3.org/2000/svg"
   xmlns:svg="http://www.w3.org/2000/svg">
  <defs
     id="defs2">
    <linearGradient
       id="linearGradient1180">
      <stop
         style="stop-color:#3facd9;stop-opacity:1;"
         offset="0"
         id="stop1176" />
      <stop
         style="stop-color:#44b5e3;stop-opacity:0.82074326;"
         offset="0.26774314"
         id="stop1978" />
      <stop
         style="stop-color:#48bdeb;stop-opacity:0.68728483;"
         offset="0.49065059"
         id="stop1980" />
      <stop
         style="stop-color:#4cc6f4;stop-opacity:0.38000908;"
         offset="0.73103589"
         id="stop1982" />
      <stop
         style="stop-color:#4fcbf9;stop-opacity:0.20770428;"
         offset="0.86641419"
         id="stop1984" />
      <stop
         style="stop-color:#52d1ff;stop-opacity:0;"
         offset="1"
         id="stop1178" />
    </linearGradient>
    <radialGradient
       xlink:href="#linearGradient1180"
       id="radialGradient1182"
       cx="163.07907"
       cy="97.635521"
       fx="163.07907"
       fy="97.635521"
       r="56.257172"
       gradientUnits="userSpaceOnUse" />
  </defs>
  <g
     id="layer1"
     transform="translate(-106.8219,-41.378349)">
    <circle
       style="opacity:1;fill:url(#radialGradient1182);fill-opacity:1;stroke-width:0.264999"
       id="path487"
       cx="163.07907"
       cy="97.635521"
       r="56.257172" />
    <path
       style="opacity:1;fill:#a51d2d;fill-opacity:1;stroke-width:0.264999"
       id="path2816"
       d="m 144.27906,80.153911 c 0.13177,-0.130765 0.28186,-0.245345 0.3953,-0.392295 0.37794,-0.489614 0.78558,-1.432647 0.56871,-2.060739 -0.1149,-0.332761 -0.27969,-0.696661 -0.57765,-0.884142 -0.32794,-0.206346 -0.76338,-0.133207 -1.14508,-0.199811 -0.29225,0.160549 -0.62687,0.260853 -0.87674,0.481645 -0.68472,0.605028 -0.91471,1.750396 -0.37796,2.527745 0.17492,0.253328 0.42133,0.482115 0.70893,0.59192 0.31218,0.119184 0.66708,0.04051 1.00062,0.06076 0.26313,-0.160993 0.58119,-0.255365 0.7894,-0.482975 0.19173,-0.209595 0.30335,-0.494242 0.35928,-0.772742 0.0768,-0.382395 0.0202,-1.081953 -0.56599,-1.117323 -0.19692,-0.01188 -0.3348,0.208788 -0.5022,0.313182 -0.0395,0.01545 -0.0177,0.07134 0.0219,0.05588 v 0 c -0.092,0.07487 -0.16223,0.190717 -0.27587,0.224618 -0.26987,0.08052 -0.3975,-0.237778 -0.0803,-0.05264 0.0633,0.0577 0.14764,0.09859 0.1899,0.173083 0.11207,0.197532 -0.13582,0.341217 -0.18444,0.157892 -0.0161,-0.06056 0.0142,-0.12451 0.0212,-0.186764 -0.0165,-0.04348 -0.033,-0.08696 -0.0495,-0.130437 -0.23161,-0.23142 -0.40215,-0.267078 -0.28008,-0.633592 0.0176,-0.05282 0.0625,0.0995 0.0618,0.155173 -0.003,0.229359 -0.1174,0.422367 -0.21313,0.620162 -0.0364,0.0751 -0.0748,0.149183 -0.11216,0.223774 -0.93877,0.794856 0.18532,2.122482 1.1241,1.327626 z" />
    <path
       style="opacity:1;fill:#a51d2d;fill-opacity:1;stroke-width:0.264999"
       id="path2832"
       d="m 148.40089,64.418961 c 0.0747,1.321768 0.0879,2.646905 0.16196,3.968583 0.0472,0.842772 0.1471,1.943788 0.22004,2.795929 0.0319,0.318455 0.0632,0.636976 0.0958,0.955362 0.10185,0.993876 0.008,1.036974 1.81103,0.302501 0.13469,-0.05487 -0.0136,-0.290872 -0.009,-0.436218 0.008,-0.217771 0.0308,-0.434713 0.0462,-0.652069 0.12086,-0.629001 0.20698,-1.34762 0.61974,-1.87285 0.11999,-0.152675 0.37929,-0.326043 0.42679,-0.14024 0.0176,0.06889 -0.0461,0.134525 -0.0692,0.201785 0.36675,0.50655 0.55027,1.057058 0.70127,1.661416 0.0869,0.347935 0.13256,0.705665 0.2264,1.051806 0.085,0.313548 0.11776,0.661803 0.30927,0.924222 0.18142,0.248602 0.50269,0.355211 0.75404,0.532818 0.004,0.04222 0.0639,0.03633 0.0597,-0.0059 v 0 c 0.21054,-0.236227 0.5186,-0.41312 0.63161,-0.708683 0.12989,-0.33972 0.0817,-0.726882 0.056,-1.089684 -0.0809,-1.144691 -0.50104,-2.653477 -1.31608,-3.507259 -0.25382,-0.265882 -0.5926,-0.435075 -0.8889,-0.652613 -0.37636,-0.03778 -0.75598,-0.175538 -1.12908,-0.113334 -0.2918,0.04865 -0.5494,0.240551 -0.77585,0.430913 -0.21133,0.177668 -0.36699,0.416206 -0.51159,0.651407 -0.46052,0.749054 -0.6351,1.635141 -0.77297,2.487954 -0.0274,0.266983 -0.0649,0.533122 -0.0821,0.800955 -0.0129,0.201136 -0.19114,0.520147 -0.008,0.604596 1.87547,0.865445 1.8613,0.4503 1.80241,-0.634261 -0.0174,-0.320109 -0.0465,-0.639477 -0.0697,-0.959216 -0.0314,-0.352626 -0.22053,-2.48046 -0.2464,-2.757074 -0.0442,-0.472308 -0.10073,-0.943496 -0.13818,-1.416386 -0.0552,-0.696698 -0.0548,-1.397215 -0.11548,-2.093455 -0.0192,-0.220549 -0.0594,-0.438769 -0.089,-0.658154 -0.23132,-1.202859 -1.93242,-0.87572 -1.7011,0.327139 z" />
    <path
       style="opacity:1;fill:#a51d2d;fill-opacity:1;stroke-width:0.264999"
       id="path2834"
       d="m 158.1743,62.744672 c -0.17051,0.202258 -0.35947,0.390305 -0.51153,0.606774 -1.1533,1.641793 -1.76925,3.533019 -1.57306,5.554689 0.0544,0.560277 0.22878,1.102328 0.34316,1.653493 0.58399,1.151167 0.82756,1.953143 1.8668,2.781908 0.7128,0.568444 1.43942,0.696963 2.26832,0.925851 0.0355,0.02323 0.0684,-0.02696 0.0329,-0.0502 v 0 c -0.97712,-1.306348 -0.16637,-0.144115 -1.10557,-1.777743 -1.17492,-2.043626 -0.22302,-0.135789 -1.23568,-2.286574 -0.27303,-1.125873 -0.4279,-1.39033 -0.34833,-2.566003 0.0493,-0.727991 0.30089,-1.740794 0.5958,-2.415215 0.23791,-0.544062 0.63848,-1.005975 0.87784,-1.550109 0.62004,-0.856038 -0.59058,-1.732912 -1.21062,-0.876874 z" />
    <path
       style="opacity:1;fill:#a51d2d;fill-opacity:1;stroke-width:0.264999"
       id="path2836"
       d="m 162.4354,68.665349 c 0.11576,-0.05918 0.61553,-0.31622 0.69388,-0.348499 0.12139,-0.05001 0.25741,-0.179705 0.37481,-0.120957 0.0877,0.04391 -0.13055,0.15126 -0.21526,0.20079 -0.0689,0.04028 -0.18798,-0.0063 -0.2316,0.0605 -0.0612,0.09372 -0.0177,0.223165 -0.0265,0.334751 -0.0356,0.458965 -0.0752,0.925891 -0.22123,1.365874 -0.0261,0.07869 -0.15992,0.276476 -0.1406,0.349478 0.0993,0.375158 0.27983,0.723955 0.41974,1.085934 0.17895,0.249494 0.5021,0.685123 0.61557,0.930503 0.38373,0.829844 0.6187,1.914961 0.41291,2.821892 -0.0497,0.21908 -0.18357,0.410086 -0.27535,0.61513 -0.085,0.06079 -0.15054,0.17848 -0.25496,0.182367 -0.0626,0.0024 -0.0373,-0.209214 0.0174,-0.389282 0.0337,-0.110892 0.0576,-0.228004 0.11745,-0.327244 0.24135,-0.400159 0.69401,-0.797743 1.00488,-1.108059 0.51255,-0.566399 1.30515,-0.666642 1.89928,-1.090989 0.30225,-0.215881 0.53296,-0.517501 0.79944,-0.77625 0.0422,-0.0038 0.0369,-0.06355 -0.005,-0.05976 v 0 c -0.45484,-0.194037 -0.87047,-0.56107 -1.36453,-0.582115 -0.96094,-0.04094 -1.96372,0.874125 -2.64389,1.365885 -0.71957,0.90287 -1.29437,1.28451 -1.26881,2.537796 0.0265,1.301695 1.23888,2.195952 2.47795,1.695546 0.34809,-0.140584 0.57293,-0.485275 0.8594,-0.727911 0.16639,-0.382384 0.39573,-0.743167 0.49916,-1.147154 0.12173,-0.475488 0.18775,-0.972273 0.16901,-1.462736 -0.0314,-0.821957 -0.41627,-1.947966 -0.80314,-2.66832 -0.16209,-0.301803 -0.37528,-0.576046 -0.60148,-0.833327 -0.14818,-0.16855 -0.34249,-0.290113 -0.51373,-0.435171 0.0535,0.294392 0.10856,0.588503 0.16047,0.883177 7.9e-4,0.0052 -0.009,-0.009 -0.007,-0.01392 0.0458,-0.120912 0.10667,-0.236019 0.14845,-0.358386 0.23414,-0.685742 0.32726,-1.398252 0.29944,-2.1228 -0.17249,-0.754909 -0.1505,-1.391457 -0.98135,-1.812356 -0.94668,-0.479584 -1.79552,0.322638 -2.41488,0.893035 -0.75136,0.70766 0.24942,1.77024 1.00078,1.062577 z" />
    <path
       style="opacity:1;fill:#a51d2d;fill-opacity:1;stroke-width:0.264999"
       id="path2840"
       d="m 162.00998,64.902532 c 0.86292,-0.09178 1.72968,-0.105699 2.59488,-0.03945 0.39244,0.03005 0.78343,0.07737 1.17585,0.107665 0.61401,-0.05845 0.9195,0.02566 1.18648,-0.909561 0.0798,-0.279371 -0.10975,-0.575231 -0.22421,-0.842264 -0.17223,-0.401807 -0.55056,-0.835946 -0.9451,-1.035492 -0.19934,-0.100814 -0.43222,-0.113033 -0.64833,-0.16955 -0.15607,-0.03007 -0.31214,-0.06014 -0.46821,-0.09021 -0.0301,-0.02988 -0.0724,0.0127 -0.0423,0.04259 v 0 c 0.0252,0.149849 0.0505,0.299701 0.0757,0.449551 0.0226,0.2017 0.0157,0.408945 0.0679,0.605105 0.0422,0.158898 0.30687,0.723153 0.47528,0.854855 0.0356,0.02786 0.084,-0.03441 0.12294,-0.05741 0.21532,-0.127177 0.42846,-0.258112 0.6392,-0.39274 0.029,-0.01855 -0.0624,0.02942 -0.0935,0.04413 -1.34743,-0.155657 -2.71916,-0.125211 -4.06747,0.0074 -1.00787,0.106699 -0.85697,1.532036 0.15089,1.425337 z" />
    <path
       style="opacity:1;fill:#a51d2d;fill-opacity:1;stroke-width:0.264999"
       id="path2844"
       d="m 168.66621,72.132695 c -0.0349,0.558977 -0.0967,1.122661 -0.24851,1.663887 -0.0662,0.236136 -0.16073,0.463455 -0.24566,0.693529 -0.0743,0.201136 -0.21602,0.386151 -0.23186,0.599969 -0.0196,0.265171 0.0861,0.52478 0.12911,0.78717 -0.0328,0.02691 0.005,0.0733 0.0381,0.04638 v 0 c 0.38927,-0.02175 0.8182,0.107307 1.16781,-0.06525 0.29159,-0.143915 0.42097,-0.502775 0.56931,-0.792131 0.14931,-0.291245 0.23099,-0.613733 0.31376,-0.930381 0.18657,-0.71374 0.26672,-1.469628 0.15657,-2.201206 -0.14003,-1.165733 -1.78862,-0.9677 -1.64859,0.198033 z" />
    <path
       style="opacity:1;fill:#a51d2d;fill-opacity:1;stroke-width:0.264999"
       id="path2846"
       d="m 172.23634,63.635373 c -0.0971,0.200353 -0.21973,0.390216 -0.29122,0.601057 -0.58671,1.730346 -0.79046,3.576749 -0.80434,5.395762 -0.004,0.537575 -0.007,1.079407 0.0718,1.611177 0.0635,0.427913 0.23506,0.832652 0.35259,1.248979 0.91306,0.721021 1.36969,1.513144 2.70013,0.93922 0.44223,-0.190767 0.67817,-0.684045 1.01726,-1.02607 0.0413,-0.0098 0.0273,-0.06821 -0.0139,-0.05836 v 0 c -0.52539,-0.287248 -0.91764,-0.673389 -1.53275,-0.594321 -0.10818,0.01392 -0.19213,0.103307 -0.2882,0.154959 -0.0908,-0.254468 -0.22925,-0.496687 -0.27232,-0.763405 -0.076,-0.470456 -0.0791,-0.950786 -0.0814,-1.427329 -0.005,-1.02108 0.10382,-2.652096 0.23694,-3.659992 0.0602,-0.456083 0.17654,-0.903129 0.25137,-1.357045 0.0431,-0.261758 0.0683,-0.526164 0.10245,-0.789244 0.19473,-1.024152 -1.25364,-1.299538 -1.44837,-0.275387 z" />
    <path
       style="opacity:1;fill:#a51d2d;fill-opacity:1;stroke-width:0.264999"
       id="path2848"
       d="m 171.32996,68.952771 c 0.54335,0.01198 1.54173,0.06906 2.01902,-0.107241 0.4426,-0.163484 0.78106,-0.532651 1.19668,-0.755965 0.31796,-0.170839 0.66463,-0.281779 0.99695,-0.422667 0.0421,-0.0051 0.0349,-0.06464 -0.007,-0.05957 v 0 c -1.48887,-0.249682 -0.72463,-0.03373 -2.27363,-0.711941 -0.1072,-0.02611 -1.52258,-0.02561 -1.79291,-0.0264 -1.47345,-0.09824 -1.61238,1.985547 -0.13893,2.083781 z" />
    <path
       style="opacity:1;fill:#a51d2d;fill-opacity:1;stroke-width:0.264999"
       id="path2850"
       d="m 177.29949,64.427266 c 0.0579,0.206423 0.14425,0.406913 0.17372,0.61927 0.1778,1.281526 0.18022,2.719031 0.15117,3.99174 -0.018,0.787424 -0.097,1.572593 -0.11776,2.359951 -0.0746,2.834397 0.22052,1.125707 -0.35526,3.476088 -0.018,0.03842 0.0363,0.06387 0.0543,0.02545 v 0 c 0.68058,-0.949196 1.6795,-2.22985 2.03667,-3.317793 0.26932,-0.820343 0.3393,-1.697662 0.40293,-2.558738 0.0858,-1.161566 -0.0229,-3.454992 -0.28519,-4.658569 -0.0812,-0.37284 -0.28868,-0.706477 -0.43302,-1.059714 -0.7936,-1.150887 -2.42119,-0.02857 -1.6276,1.122315 z" />
    <path
       style="opacity:1;fill:#a51d2d;fill-opacity:1;stroke-width:0.264999"
       id="path2852"
       d="m 164.16461,117.96139 c 0.0736,-0.13558 0.18133,-0.25761 0.22078,-0.40675 0.23824,-0.90061 -0.2163,-1.4286 -1.08667,-1.62517 -0.55711,-0.12582 -0.82046,0.042 -1.33324,0.2134 -0.16767,0.26696 -0.46158,0.48837 -0.503,0.80089 -0.089,0.67149 0.3352,1.17226 0.80185,1.53709 0.17217,0.13461 0.36045,0.26294 0.57061,0.32295 0.62218,0.17766 0.78949,0.0277 1.34474,-0.16833 0.14243,-0.15012 0.3274,-0.26912 0.4273,-0.45034 0.42737,-0.77526 -0.0373,-1.77551 -0.87293,-2.01573 -0.2144,-0.0616 -0.44501,-0.032 -0.66752,-0.048 -0.55676,0.28478 -1.15059,0.33539 -0.78761,1.24692 0.0921,0.23128 0.40265,0.29285 0.60398,0.43928 0.0147,0.0398 0.071,0.019 0.0563,-0.0208 v 0 c 0.11597,-0.0847 0.20898,-0.21772 0.3479,-0.25418 0.0508,-0.0133 0.0901,0.13062 0.042,0.15184 -0.0506,0.0223 -0.0765,-0.0798 -0.11475,-0.11974 0.007,-0.0395 -0.002,-0.0865 0.0222,-0.11861 0.074,-0.0978 0.33739,-0.096 0.39323,0.0228 -0.008,0.028 -0.004,0.0635 -0.0242,0.0841 -0.15963,0.16042 -0.48064,-0.30948 -0.61148,-0.31076 -0.0849,-7.9e-4 -0.114,0.12843 -0.18497,0.175 -0.0805,0.0528 -0.17548,0.0794 -0.26322,0.11905 0.45337,-0.40402 -0.32376,0.25032 0.31796,-0.12927 0.0253,-0.015 -0.0323,-0.27017 -0.0163,-0.36743 0.0336,-0.20406 0.064,-0.1531 0.112,-0.10217 -0.724,0.8521 0.48104,1.876 1.20505,1.0239 z" />
    <path
       style="opacity:1;fill:#a51d2d;fill-opacity:1;stroke-width:0.264999"
       id="path2860"
       d="m 169.02423,117.38563 c 0.0167,0.28644 0.0261,0.57339 0.0502,0.85931 0.076,0.90384 0.18472,1.80463 0.27351,2.7073 0.13853,1.40845 0.26589,2.81788 0.39661,4.22706 0.0294,0.22707 0.0805,0.88426 0.2023,1.18389 0.0107,0.0264 -0.006,-0.0791 0.0225,-0.0823 0.54896,-0.0627 1.12941,0.0644 1.654,-0.10911 0.14427,-0.0477 0.0172,-0.30445 0.047,-0.45346 0.052,-0.25948 0.13185,-0.51258 0.19778,-0.76886 0.25477,-0.67735 0.31302,-0.98213 0.7377,-1.56054 0.1126,-0.15337 0.23596,-0.3108 0.39998,-0.40722 0.0578,-0.034 0.20583,-0.007 0.19239,0.059 -0.0222,0.10848 -0.18886,0.12671 -0.24935,0.21945 -0.0445,0.0682 -0.0331,0.15933 -0.0497,0.239 0.09,0.34009 0.46074,1.74765 0.52665,1.96541 0.10579,0.34951 0.12678,0.74947 0.35084,1.03783 0.2326,0.29932 0.63068,0.42074 0.94602,0.63111 0.005,0.0422 0.0643,0.0355 0.0596,-0.007 v 0 c 0.25575,-0.32216 0.64725,-0.57304 0.76723,-0.96648 0.122,-0.40008 -0.0171,-0.8398 -0.0908,-1.2515 -0.23158,-1.29208 -0.45715,-1.53505 -1.03788,-2.70383 -0.30817,-0.2632 -0.54866,-0.638 -0.92451,-0.78961 -1.95157,-0.78721 -2.69061,1.87445 -3.13625,3.14343 -0.0809,0.31046 -0.17118,0.6186 -0.2426,0.93137 -0.0458,0.20079 -0.28181,0.49626 -0.10893,0.60819 1.3856,0.89711 1.56704,0.86804 1.66729,0.1854 0.0978,-0.66594 0.0614,-0.41364 0.0293,-1.27783 -0.21834,-2.59601 -0.48032,-5.18988 -0.80537,-7.77449 -0.10902,-1.32615 -1.98447,-1.17198 -1.87545,0.15416 z" />
    <path
       style="opacity:1;fill:#a51d2d;fill-opacity:1;stroke-width:0.264999"
       id="path2862"
       d="m 178.83928,116.17587 c -0.37396,0.3093 -0.58907,0.45797 -0.8995,0.90231 -0.6826,0.97708 -1.09622,2.23465 -1.24386,3.40747 -0.0673,0.53488 -0.0509,1.07701 -0.0763,1.61552 0.17178,0.97691 0.33333,2.75177 1.06559,3.56824 0.40127,0.44743 1.0487,0.5874 1.57306,0.8811 0.0224,0.036 0.0734,0.004 0.051,-0.0317 v 0 c 0.0296,-0.50237 0.15194,-1.00784 0.0889,-1.50712 -0.12282,-0.97276 -0.8302,-1.81718 -0.7587,-2.84189 0.007,-0.42473 -0.0199,-0.85145 0.022,-1.27418 0.0714,-0.72188 0.26696,-1.33316 0.5368,-1.99772 0.10758,-0.26492 0.2482,-0.51534 0.36256,-0.77741 0.0915,-0.20959 0.16976,-0.42468 0.25464,-0.63703 0.059,-0.13285 0.11808,-0.26569 0.17712,-0.39854 0.64281,-0.81546 -0.51043,-1.72454 -1.15324,-0.90908 z" />
    <path
       style="opacity:1;fill:#a51d2d;fill-opacity:1;stroke-width:0.264999"
       id="path2864"
       d="m 181.12765,120.346 c -0.0939,0.15502 -0.20384,0.30136 -0.28158,0.46506 -0.33922,0.71421 -0.65889,1.75853 -0.64979,2.54744 0.004,0.34499 0.0137,0.70464 0.14071,1.02543 0.13883,0.3507 0.42384,0.62404 0.63576,0.93605 0.36392,0.14082 0.70175,0.43541 1.09175,0.42246 1.69503,-0.0563 2.47687,-2.28718 2.94468,-3.60023 0.0123,-0.15257 0.16706,-0.37715 0.0369,-0.45771 -0.44045,-0.27261 -0.97895,-0.52671 -1.48991,-0.44161 -0.29461,0.0491 -0.36264,0.48575 -0.46331,0.76695 -0.2691,0.75166 0.0488,1.98834 0.20251,2.72731 0.34209,1.65654 0.75322,3.35061 0.63416,5.05726 -0.0586,0.8397 0.11955,0.77134 -0.26752,0.82824 -0.37657,-0.18268 -0.90404,-0.26031 -1.0363,-0.7373 -0.12961,-0.46746 0.66429,-0.94716 0.90772,-1.13482 1.33692,-0.5272 0.68219,-0.13975 1.89913,-1.26586 0.0422,-0.005 0.0357,-0.0642 -0.006,-0.0597 v 0 c -2.18339,-0.80506 -1.13191,-0.8687 -3.1588,0.0944 -0.72938,0.86502 -1.27317,1.15748 -1.21819,2.38307 0.0544,1.21298 1.20978,2.21801 2.38267,2.29741 0.45358,0.0307 0.89754,-0.14545 1.34631,-0.21818 0.371,-0.33393 0.85274,-0.57586 1.11302,-1.00179 0.2083,-0.34086 0.18378,-0.7803 0.21916,-1.1782 0.16686,-1.87675 -0.27472,-3.76089 -0.7142,-5.5683 -0.1792,-0.63962 -0.23273,-0.76705 -0.34421,-1.35818 -0.0211,-0.11171 0.0375,-0.2639 -0.0492,-0.33746 -0.0706,-0.0599 -0.18233,0.0974 -0.26973,0.0667 -0.44952,-0.15765 -0.88462,-0.36455 -1.29049,-0.61394 -0.0439,-0.027 0.068,-0.0775 0.10208,-0.11629 0.008,0.1228 0.0397,0.24634 0.0241,0.36841 -0.0594,0.46381 -0.22672,0.88084 -0.48808,1.26944 -0.11445,0.17015 -0.27369,0.30545 -0.41058,0.45813 -0.19589,0.21849 -0.0841,0.14452 -0.3238,0.24186 -0.078,-0.0475 -0.18942,-0.0627 -0.23412,-0.1424 -0.20904,-0.37248 -0.1223,-0.83007 -0.0575,-1.21627 0.10706,-0.63817 0.36093,-1.22658 0.47746,-1.86071 0.45736,-0.99303 -0.94699,-1.63983 -1.40435,-0.64681 z" />
    <path
       style="opacity:1;fill:#a51d2d;fill-opacity:1;stroke-width:0.264999"
       id="path2866"
       d="m 181.4475,118.483 c 1.38794,0.23736 2.6918,0.81439 4.08097,1.04357 0.21476,0.0354 0.43272,0.0475 0.64909,0.0712 0.20239,-0.0264 0.43561,0.0314 0.60717,-0.0791 0.30757,-0.19821 0.65599,-0.44537 0.75379,-0.79796 0.10631,-0.38323 -0.0707,-0.80129 -0.20646,-1.17511 -0.11294,-0.31106 -0.33599,-0.57103 -0.52592,-0.84202 -0.56372,-0.80425 -0.51906,-0.68846 -1.2448,-1.28402 -0.0135,-0.0402 -0.0704,-0.0212 -0.0569,0.0191 v 0 c -0.20452,0.98971 -0.26859,0.8335 -0.0677,1.88256 0.0557,0.29102 0.0903,0.60016 0.23985,0.85596 0.0251,0.0429 1.19537,-0.68406 0.6909,-0.3439 -1.58236,-0.16596 -3.08899,-0.74141 -4.65622,-0.99698 -1.16444,-0.18654 -1.42824,1.46024 -0.26379,1.64677 z" />
    <path
       style="opacity:1;fill:#a51d2d;fill-opacity:1;stroke-width:0.264999"
       id="path2868"
       d="m 188.12916,123.92012 c -0.26771,0.56085 -0.82807,1.47077 -0.74756,2.09745 0.05,0.38952 0.30306,0.72463 0.45459,1.08695 -0.0156,0.0395 0.0402,0.0615 0.0558,0.022 v 0 c 0.35236,-0.14651 0.75258,-0.20951 1.05707,-0.43952 0.49159,-0.37136 0.82762,-1.48528 1.06786,-2.05773 0.50146,-1.33486 -1.38631,-2.04403 -1.88777,-0.70918 z" />
    <path
       style="opacity:1;fill:#a51d2d;fill-opacity:1;stroke-width:0.264999"
       id="path2870"
       d="m 191.92589,117.45982 c -0.66718,1.74298 -0.84211,3.65203 -0.53727,5.49427 0.0797,0.48142 0.23769,0.94655 0.35654,1.41982 0.19128,0.37934 0.31444,0.80158 0.57384,1.13804 0.56482,0.73259 1.23319,1.108 2.14564,1.22271 0.37083,0.0466 0.76425,0.0401 1.11843,-0.0792 0.87574,-0.29505 0.99574,-0.75797 1.43217,-1.46537 0.0389,-0.0169 0.015,-0.0719 -0.0239,-0.055 v 0 c -0.36685,-0.12091 -1.12412,-0.39571 -1.53722,-0.44356 -0.14585,-0.0169 -0.73262,0.069 -0.91638,0.0268 -0.53703,-0.12336 -0.4999,-0.3606 -0.79413,-0.86422 -0.10008,-0.36835 -0.23131,-0.72963 -0.30024,-1.10506 -0.14988,-0.8163 -0.19814,-1.8002 -0.13398,-2.62953 0.059,-0.76256 0.30767,-1.4933 0.40489,-2.24935 0.29012,-1.26459 -1.49827,-1.67488 -1.78839,-0.41029 z" />
    <path
       style="opacity:1;fill:#a51d2d;fill-opacity:1;stroke-width:0.264999"
       id="path2872"
       d="m 190.69462,122.17679 c 0.18318,-10e-4 0.36651,0.005 0.54952,-0.003 0.35775,-0.0152 0.71478,-0.0443 1.07222,-0.0657 1.11264,-0.0666 1.99218,-0.0398 3.06696,-0.42453 0.47943,-0.17164 0.90206,-0.4728 1.35309,-0.7092 0.0424,1.1e-4 0.0426,-0.0599 1.6e-4,-0.06 v 0 c -0.46615,-0.23872 -0.89897,-0.55864 -1.39844,-0.71615 -1.09599,-0.34562 -2.05425,-0.23442 -3.16706,-0.16759 -0.39079,0.0235 -0.78257,0.0418 -1.17095,0.0912 -0.194,0.0246 -0.38135,0.0868 -0.57203,0.13021 -1.36114,0.18847 -1.0946,2.1134 0.26653,1.92493 z" />
    <path
       style="opacity:1;fill:#a51d2d;fill-opacity:1;stroke-width:0.264999"
       id="path2874"
       d="m 198.82838,119.0214 c 0.32965,0.80895 0.63181,1.64316 0.68943,2.52579 0.083,1.27228 -0.10461,2.28794 -0.25638,3.55488 -0.068,0.56789 -0.13568,1.13581 -0.20352,1.70372 0.11065,0.44873 0.22129,0.89747 0.33193,1.3462 -0.0145,0.0399 0.0419,0.0604 0.0564,0.0205 v 0 c 0.3969,-0.3402 0.7938,-0.6804 1.1907,-1.0206 0.18858,-0.60205 0.43357,-1.18927 0.56574,-1.80617 0.14992,-0.69975 0.23361,-1.41461 0.27735,-2.1289 0.10914,-1.78206 -0.0796,-3.60602 -1.06876,-5.13202 -0.6623,-1.11928 -2.24519,-0.18264 -1.58289,0.93663 z" />
    <path
       style="opacity:1;fill:#c64600;fill-opacity:1;stroke-width:0.264999"
       id="path2933"
       d="m 163.58795,112.27115 c -0.003,-1.09143 0.009,-1.05269 -0.0545,-2.28306 -0.0324,-0.6271 -0.0524,-1.25544 -0.11394,-1.88036 -0.21447,-2.1799 -0.6688,-4.32149 -1.12417,-6.46001 -0.58329,-2.61895 -1.49494,-5.150782 -2.69444,-7.549145 -0.6067,-1.213086 -0.87361,-1.621497 -1.55923,-2.786539 -1.21275,-1.917465 -2.51883,-3.784957 -3.99254,-5.512893 -0.24141,-0.283059 -0.49647,-0.554183 -0.74471,-0.831276 -0.23042,-0.232185 -0.45555,-0.469738 -0.69125,-0.696558 -0.24362,-0.234436 -1.077,-0.978122 -1.32957,-1.204346 -0.49897,-0.446921 -0.99684,-0.891344 -1.51506,-1.315728 -0.10532,-0.06727 -0.19137,-0.191934 -0.31595,-0.201827 -0.42055,-0.03339 -0.54174,0.319143 -0.73546,0.590569 -0.041,-0.01111 -0.0567,0.04679 -0.0157,0.0579 v 0 c -0.0425,0.166288 -0.0821,0.333341 -0.12756,0.498859 -0.0271,0.09885 -0.10962,0.193434 -0.09,0.294039 0.0136,0.06976 0.11463,0.08406 0.17194,0.126082 1.16712,0.945592 2.2676,1.976734 3.35071,3.015871 1.69022,1.879598 3.2081,3.916199 4.55316,6.056236 0.68426,1.149763 0.88742,1.444908 1.49036,2.644431 1.1443,2.276557 2.03637,4.675479 2.60789,7.160565 0.39322,1.87307 0.52288,2.38073 0.82734,4.27116 0.1075,0.66748 0.1924,1.33839 0.28792,2.00769 0.18608,1.30368 0.39148,2.60258 0.33932,3.92498 -0.0519,1.04329 1.42356,1.11664 1.47543,0.0734 z" />
    <path
       style="opacity:1;fill:#c64600;fill-opacity:1;stroke-width:0.264999"
       id="path2945"
       d="m 149.90894,85.546667 c -0.4769,-1.317305 -1.13409,-2.567138 -1.50711,-3.920908 -0.0218,-0.0737 -0.0357,-0.150228 -0.0655,-0.221096 -0.0213,-0.05078 0.0692,0.113644 0.04,0.160327 -0.17088,0.272941 -0.45676,0.466008 -0.60956,0.749466 -0.0294,0.05451 0.11845,0.03701 0.17923,0.04886 0.61244,0.119345 0.66953,0.107632 1.34633,0.176596 0.43611,0.0093 1.23891,0.03828 1.68211,0.0024 0.23913,-0.01942 0.48605,-0.02625 0.71161,-0.108003 0.4784,-0.17336 0.63276,-0.440626 0.94249,-0.799991 0.0423,-0.0038 0.0369,-0.06354 -0.005,-0.05976 v 0 c -0.32965,-0.279506 -0.55426,-0.529741 -0.99149,-0.650256 -0.2138,-0.05893 -0.44123,-0.04773 -0.66275,-0.05854 -0.51893,-0.02532 -1.0398,0.0089 -1.55815,-0.03924 -0.50088,-0.01633 -0.74751,-0.01683 -1.22621,-0.05742 -0.16698,-0.01416 -0.35043,-0.128463 -0.49994,-0.05278 -1.00567,0.509072 -1.03351,0.682847 -0.78267,1.463625 0.59018,1.270161 1.06017,2.595033 1.64947,3.866382 0.35321,0.959898 1.71071,0.460381 1.3575,-0.499517 z" />
    <path
       style="opacity:1;fill:#c64600;fill-opacity:1;stroke-width:0.264999"
       id="path3693"
       d="m 166.55393,92.306649 c -0.0316,0.224171 -0.0837,0.446398 -0.0947,0.672513 -0.0515,1.061175 0.19243,2.510356 0.89061,3.351752 0.16736,0.201687 0.39567,0.343784 0.59351,0.515676 0.23994,0.08267 0.46682,0.228126 0.71983,0.248018 0.94125,0.07399 1.525,-0.572627 1.84032,-1.376291 0.20184,-0.514419 0.20804,-0.948497 0.2618,-1.488025 0.0375,-0.557482 -0.005,-1.118097 0.0427,-1.675109 0.006,-0.06921 0.0189,-0.137692 0.0319,-0.20592 0.002,-0.01201 0.018,-0.04546 0.0139,-0.03396 -0.0343,0.09538 -0.0696,0.190402 -0.10444,0.285604 -0.47273,-0.08218 -0.94547,-0.164367 -1.41821,-0.246549 -0.008,-0.0024 -0.0226,-0.01569 -0.0237,-0.0075 -0.0897,0.633819 0.13722,1.296635 0.32801,1.886735 0.37572,0.88355 0.93832,1.725864 1.78507,2.223363 0.17647,0.103682 0.36181,0.203271 0.56136,0.248793 0.23479,0.05356 0.48077,0.02919 0.72116,0.04379 0.29554,-0.16346 0.62846,-0.272624 0.88662,-0.490376 0.22446,-0.189323 0.38086,-0.450792 0.52946,-0.704054 0.49519,-0.84392 0.7305,-1.858462 0.7769,-2.827308 0.0147,-0.305903 -0.0163,-0.612288 -0.0244,-0.918432 -0.25322,-1.035873 0.0594,-0.659035 -1.04004,-1.03722 -0.0141,-0.04001 -0.0707,-0.02003 -0.0566,0.01998 v 0 c -0.72858,0.589055 -0.58208,0.223004 -0.59756,1.020792 -0.007,0.22978 -1.9e-4,0.460401 -0.0211,0.68934 -0.0464,0.509056 -0.14318,0.981353 -0.30088,1.467368 -0.0625,0.192718 -0.14259,0.379577 -0.22547,0.564457 -0.0484,0.108051 -0.16282,0.194742 -0.16792,0.313042 -0.003,0.05967 0.10015,0.06512 0.15022,0.09768 0.043,0.103256 0.0878,0.151209 -0.1439,0.03638 -0.54894,-0.272002 -0.90497,-0.834676 -1.18346,-1.353283 -0.14689,-0.34028 -0.29977,-0.679529 -0.35733,-1.049361 -0.006,-0.03749 -0.0328,-0.521134 -0.041,-0.524703 -0.45184,-0.197282 -0.95847,-0.231632 -1.4377,-0.347451 -0.0465,0.112138 -0.10318,0.220557 -0.13939,0.336412 -0.0366,0.117036 -0.0288,0.370205 -0.0296,0.473237 -0.004,0.512715 0.008,1.026149 -0.0374,1.537655 -0.0243,0.174969 -0.0383,0.35171 -0.073,0.524907 -0.0293,0.146116 -0.0751,0.288549 -0.11889,0.430998 -0.0298,0.09699 -0.0868,0.186521 -0.10187,0.286861 -0.0185,0.122682 0.1129,0.09358 0.14237,0.183153 0.007,0.02241 -0.0378,0.02815 -0.0568,0.04223 -0.0624,-0.04246 -0.13718,-0.07089 -0.18728,-0.127367 -0.66336,-0.747769 -0.57698,-1.958269 -0.67177,-2.884864 0.14354,-1.146519 -1.47788,-1.34951 -1.62142,-0.202993 z" />
    <path
       style="opacity:1;fill:#c64600;fill-opacity:1;stroke-width:0.264999"
       id="path3695"
       d="m 178.12329,87.614989 c -0.0914,0.175824 -0.19446,0.34603 -0.27409,0.527465 -0.12113,0.275977 -0.22414,0.559666 -0.32736,0.842831 -0.47492,1.302893 -0.89016,2.687952 -0.87317,4.091731 0.006,0.491299 0.11752,0.975619 0.17627,1.463429 0.35726,1.063426 0.71785,2.376715 1.93223,2.776966 0.28786,0.09488 0.60542,0.03049 0.90813,0.04573 0.0289,0.03103 0.0728,-0.0099 0.0439,-0.04092 v 0 c 0.0353,-0.271483 0.11336,-0.540784 0.10591,-0.814453 -0.0211,-0.773822 -0.20477,-0.796645 -0.51749,-1.468208 -0.12199,-0.261971 -0.21954,-0.53464 -0.32932,-0.801962 -0.0571,-0.332531 -0.15544,-0.66057 -0.17145,-0.997598 -0.0356,-0.749766 0.12075,-1.756738 0.30334,-2.475921 0.22188,-0.873913 0.6582,-1.694151 0.75709,-2.60032 0.38804,-1.226105 -1.34593,-1.774875 -1.73397,-0.548772 z" />
    <path
       style="opacity:1;fill:#c64600;fill-opacity:1;stroke-width:0.264999"
       id="path3699"
       d="m 182.97553,92.533278 c 0.14184,-0.01905 0.54659,-0.109789 0.66431,0.04172 0.0118,0.01511 -0.27374,0.262493 -0.28572,0.300151 -0.0329,0.103418 -0.0112,0.216876 -0.0225,0.324811 -0.0155,0.146981 -0.0385,0.293055 -0.0578,0.439584 -0.0787,0.278145 -0.0961,0.417541 -0.23146,0.656232 -0.10866,0.191598 -0.51348,0.366739 -0.22233,0.688629 0.76314,0.843706 0.97356,0.779087 1.67594,0.756912 0.2471,0.01241 0.46419,-0.0081 0.68956,0.117279 0.0503,0.02799 0.12076,0.07999 0.10672,0.135827 -0.0161,0.06382 -0.1409,0.04457 -0.16726,0.10487 -0.0548,0.125367 -0.032,0.271949 -0.0563,0.406585 -0.0433,0.239538 -0.0977,0.476938 -0.14662,0.715404 -0.21781,0.56251 -0.30913,0.958096 -0.71484,1.416209 -0.10045,0.113424 -0.22484,0.239876 -0.37548,0.256154 -0.10935,0.01183 -0.17168,-0.465119 -0.17061,-0.471078 0.0182,-0.101581 0.0985,-0.181422 0.14769,-0.272134 0.40035,-0.517811 0.73745,-0.583724 1.33674,-0.82667 0.29341,-0.118948 0.62384,-0.173582 0.87796,-0.362429 1.4093,-1.047297 0.0925,-0.85308 1.48029,-0.874831 0.0424,-5.29e-4 0.0417,-0.06049 -8e-4,-0.05999 v 0 c -2.69922,0.02132 2.35509,0.09613 -1.88472,-0.624028 -0.43764,-0.07434 -0.89597,0.06238 -1.31544,0.207634 -0.85778,0.297027 -1.66592,0.848474 -2.05608,1.704756 -0.17217,0.377856 -0.14691,0.817366 -0.22037,1.226047 0.15292,0.382558 0.20455,0.823455 0.45875,1.147673 0.56784,0.724255 1.41673,0.927755 2.28541,0.693805 0.38756,-0.10437 0.7319,-0.35649 1.02712,-0.628406 0.69184,-0.637206 0.86973,-1.339614 1.21474,-2.176163 0.1299,-0.862642 0.36277,-1.601449 0.006,-2.465353 -0.43825,-1.061419 -1.2412,-1.42824 -2.30304,-1.386388 -0.21458,0.0085 -0.42466,0.0642 -0.63699,0.0963 -0.14627,0.05241 -0.51074,0.01953 -0.4388,0.157234 0.20262,0.387869 0.65218,0.58365 0.97828,0.875472 -0.0457,0.158374 -0.14633,0.31056 -0.13701,0.475123 0.006,0.107021 0.10034,-0.189487 0.14774,-0.285626 0.31457,-0.638008 0.20168,-0.39244 0.45209,-1.16315 0.0934,-0.691838 0.25549,-1.220066 -0.0541,-1.912454 -0.36487,-0.815988 -0.90017,-1.263039 -1.83398,-1.2475 -0.45191,0.0075 -0.833,0.43487 -1.13097,0.711341 -0.77813,0.646136 0.13564,1.746586 0.91378,1.100449 z" />
    <path
       style="opacity:1;fill:#c64600;fill-opacity:1;stroke-width:0.264999"
       id="path3701"
       d="m 182.65964,89.665912 c 1.03999,-0.04649 2.068,0.126272 3.10894,0.0868 0.31993,-0.01214 0.64398,-0.02093 0.95602,-0.09262 0.28147,-0.06468 0.61097,-0.101587 0.80802,-0.31273 0.28921,-0.309898 0.36845,-0.763527 0.55268,-1.145289 -0.77718,-1.303448 -0.22143,-0.896696 -1.62331,-1.278141 -0.0249,-0.03435 -0.0735,7.94e-4 -0.0486,0.03522 v 0 c -0.1601,0.950823 -0.15755,0.611495 -0.15501,1.006144 0.15017,-0.118988 0.29379,-0.246753 0.45051,-0.35697 0.0504,-0.03546 -0.0694,0.120311 -0.13,0.131569 -0.26092,0.04846 -0.52979,0.03543 -0.79513,0.04024 -1.71337,0.03107 -0.66601,-0.08181 -2.40024,0.117592 -0.27318,0.03141 -0.54489,0.07456 -0.81733,0.111847 -1.17122,0.06606 -1.07779,1.722408 0.0934,1.656347 z" />
    <path
       style="opacity:1;fill:#c64600;fill-opacity:1;stroke-width:0.264999"
       id="path3703"
       d="m 189.31772,94.47849 c -0.13886,0.348043 -0.43326,1.021453 -0.44413,1.373251 0.20097,1.231315 0.1853,0.652333 0.10443,1.734433 -0.02,0.03741 0.0329,0.06571 0.0529,0.0283 v 0 c 0.20213,-0.162666 0.39311,-0.340241 0.60638,-0.487993 0.29153,-0.201967 0.65162,-0.311211 0.90516,-0.559189 0.33859,-0.331152 0.55364,-1.024128 0.71742,-1.459806 0.44477,-1.373325 -1.49741,-2.002319 -1.94217,-0.628994 z" />
    <path
       style="opacity:1;fill:#c64600;fill-opacity:1;stroke-width:0.264999"
       id="path3705"
       d="m 192.85355,91.438194 c 0.0605,0.490141 0.0592,0.800743 0.34579,1.267601 0.44809,0.729916 1.31372,1.34729 2.21692,1.161063 0.2745,-0.05659 0.50009,-0.253214 0.75013,-0.379823 0.75391,-0.815731 0.20291,-0.166074 0.75985,-0.948865 0.079,-0.11105 0.17446,-0.209978 0.25122,-0.322593 0.0458,-0.06721 0.10929,-0.296195 0.11528,-0.215077 0.0572,0.774967 -1.34234,0.184319 -1.48223,0.170225 0.004,0.103156 0.001,0.206928 0.0132,0.30947 0.0244,0.206854 0.0681,0.41103 0.096,0.617437 0.10036,0.741945 0.2145,1.716429 0.25093,2.445205 0.0608,1.215808 0.0177,1.546709 -0.0391,2.72515 -0.0736,0.218207 -0.0694,0.867582 -0.49948,0.823121 -0.15065,-0.01558 -0.30003,-0.06972 -0.42943,-0.14841 -0.31298,-0.190346 -0.57575,-0.414877 -0.44238,-0.827077 0.0367,-0.113548 0.176,-0.161247 0.26399,-0.241871 0.46214,-0.248132 0.88034,-0.571947 1.34292,-0.818666 0.32509,-0.173389 0.71613,-0.232942 1.00332,-0.463738 2.16253,-1.737886 -0.55682,-0.274177 1.32076,-1.201102 0.0423,-0.0038 0.0369,-0.06353 -0.005,-0.05976 v 0 c -0.29743,-0.07063 -2.13095,-0.507463 -2.15513,-0.504637 -0.46769,0.05469 -0.86822,0.372819 -1.27042,0.617683 -1.42219,0.865854 -1.18112,0.831233 -2.07855,2.211525 0.0266,0.436316 -0.0718,0.898998 0.0799,1.308946 0.134,0.362035 0.43529,0.65195 0.73565,0.894448 1.07705,0.869541 2.66869,0.930621 3.63687,-0.184457 0.29627,-0.341222 0.33605,-0.838996 0.50407,-1.258496 0.0462,-0.482216 0.11805,-0.962662 0.1387,-1.446649 0.0445,-1.041715 -0.0131,-2.069438 -0.13933,-3.103033 -0.0976,-0.799304 -0.22521,-1.5811 -0.58333,-2.30687 -0.49545,-0.153027 -0.96849,-0.43252 -1.48635,-0.459082 -0.23858,-0.01222 -0.16686,0.630103 -0.20704,0.745771 -0.0324,0.09332 -0.095,0.174532 -0.15741,0.251105 -0.0595,0.073 -0.13692,0.129339 -0.20538,0.194009 -0.021,0.01939 -0.16828,0.169018 -0.21678,0.164743 -0.44683,-0.03941 -0.56579,-0.830027 -0.6263,-1.157952 -0.0995,-1.273881 -1.901,-1.133218 -1.80154,0.14066 z" />
    <path
       style="opacity:1;fill:#c64600;fill-opacity:1;stroke-width:0.264999"
       id="path3707"
       d="m 193.83673,89.026475 c 0.78033,-0.0092 1.5601,-0.02024 2.34037,0.003 0.30892,0.0092 0.61731,0.03584 0.92635,0.03892 0.29103,0.0029 0.58541,0.02447 0.87287,-0.02101 0.28604,-0.04525 0.55495,-0.165849 0.83242,-0.248772 0.55783,-0.706625 1.11074,-0.962017 0.45096,-1.96792 -0.2548,-0.388472 -1.15331,-0.570257 -1.56241,-0.683676 -0.0295,-0.03052 -0.0726,0.01117 -0.0432,0.04168 v 0 c 0.0356,0.223808 0.0711,0.447616 0.10673,0.671425 -0.0224,0.175554 -0.0874,0.350832 -0.0673,0.526661 0.0215,0.18746 0.2926,-1.018635 0.46067,-0.328954 -0.44555,0.29359 -0.14782,0.154392 -1.02618,0.172956 -1.09414,0.02312 -2.18857,0.0336 -3.28207,0.0825 -1.21141,-0.0066 -1.2207,1.706636 -0.009,1.713201 z" />
    <path
       style="opacity:1;fill:#c64600;fill-opacity:1;stroke-width:0.264999"
       id="path3709"
       d="m 200.71287,89.722932 c 0.41621,0.895776 0.70177,1.873258 0.80353,2.857559 0.0566,0.547203 0.0142,1.101129 0.0614,1.649214 0.0463,0.536842 0.14599,1.067736 0.21899,1.601605 0.0602,0.468373 0.12036,0.936744 0.18054,1.405117 -0.0135,0.04022 0.0434,0.05933 0.0569,0.0191 v 0 c 0.35604,-0.412065 0.71208,-0.82413 1.06812,-1.236194 0.24049,-0.629082 0.61593,-1.222084 0.72148,-1.887249 0.10654,-0.671375 -0.007,-1.363419 -0.0988,-2.036932 -0.0755,-0.552146 -0.23069,-1.092446 -0.4014,-1.622931 -0.25233,-0.784098 -0.58048,-1.481007 -1.14245,-2.08816 -0.15411,-0.166492 -0.36629,-0.267777 -0.54943,-0.401667 -1.23074,-0.649761 -2.14964,1.090766 -0.91891,1.740527 z" />
    <path
       style="opacity:1;fill:#c64600;fill-opacity:1;stroke-width:0.264999"
       id="path3713"
       d="m 208.27435,94.883905 c 0.16333,0.0505 0.32184,0.120722 0.49001,0.151485 1.22123,0.223388 2.4451,-0.279262 3.26639,-1.195186 0.2358,-0.262967 0.38866,-0.589884 0.58298,-0.884825 0.1,-0.326213 0.27281,-0.638532 0.29986,-0.978641 0.10868,-1.366361 -0.67485,-2.385264 -1.89368,-2.922273 -1.05848,-0.466357 -1.56169,-0.306305 -2.65442,-0.236577 -0.39774,0.181996 -0.84754,0.277993 -1.19322,0.545994 -0.34507,0.267526 -0.63652,0.623845 -0.82421,1.018075 -0.37336,0.784246 -0.40376,1.950055 0.006,2.729999 0.2526,0.481053 0.57628,1.021866 1.08285,1.218367 0.53649,0.208108 1.14758,-0.08706 1.72138,-0.13059 0.0386,0.01765 0.0635,-0.03693 0.025,-0.05457 v 0 c -0.11849,-0.360056 -0.17741,-0.74554 -0.35546,-1.080169 -0.11133,-0.209222 -0.35804,-0.317696 -0.49227,-0.513022 -0.26543,-0.386271 -0.49586,-1.060466 -0.18589,-1.496481 0.11445,-0.160983 0.29312,-0.264829 0.43968,-0.397243 0.25225,-0.05577 0.49881,-0.153051 0.75676,-0.167325 0.38242,-0.02117 1.07012,0.08596 1.41999,0.307277 0.13828,0.08747 0.23701,0.229634 0.32617,0.366829 0.0745,0.114567 0.14737,0.241998 0.15805,0.378219 0.0135,0.172394 -0.0589,0.340794 -0.0884,0.511191 -0.23408,0.418094 -0.37109,0.739656 -0.73301,1.072113 -0.42007,0.385881 -1.0039,0.605297 -1.57027,0.537257 -0.86273,-0.413001 -1.44681,0.807093 -0.58407,1.220094 z" />
    <path
       style="opacity:1;fill:#c64600;fill-opacity:1;stroke-width:0.264999"
       id="path3715"
       d="m 209.171,85.213419 c -0.062,0.166886 -0.14674,0.327007 -0.18595,0.500658 -0.16863,0.746858 -0.2119,1.720763 -0.25249,2.454116 -0.0807,1.458595 -0.13051,2.860299 -0.14187,4.323882 -0.006,0.78228 0.009,1.564579 0.0137,2.34687 0.0503,0.96538 0.0906,3.012207 0.37346,4.02228 0.28234,1.008126 0.58917,1.234605 1.19811,1.930235 0.007,0.0418 0.0662,0.032 0.0592,-0.01 v 0 c 0.34771,-0.796439 0.55925,-1.13374 0.62552,-2.091235 0.089,-1.285407 -0.25526,-2.578196 -0.16204,-3.862041 -0.0127,-2.974681 -0.0271,-1.602999 0.0408,-4.571548 0.0152,-0.664715 0.0317,-1.329399 0.0471,-1.994106 0.0149,-0.643117 0.0601,-1.661605 0.008,-2.352908 -0.0118,-0.157689 -0.0542,-0.311586 -0.0813,-0.467381 0.16189,-1.09066 -1.38054,-1.319609 -1.54243,-0.228947 z" />
    <path
       style="opacity:1;fill:#c64600;fill-opacity:1;stroke-width:0.264999"
       id="path3717"
       d="m 217.06286,85.674487 c -1.30918,1.579333 -2.20436,3.347966 -2.46855,5.409766 -0.0755,0.588838 -0.0571,1.185929 -0.0857,1.778892 0.16579,1.507733 0.13117,2.034013 0.64734,3.46224 0.17843,0.493707 0.33538,1.020394 0.66895,1.425754 0.75542,0.918009 1.24532,0.824127 2.24688,0.966587 0.0344,0.02479 0.0695,-0.02389 0.0351,-0.04869 v 0 c -0.0773,-0.262302 -0.16419,-0.521946 -0.23175,-0.78691 -0.0818,-0.320681 -0.10922,-0.655804 -0.216,-0.969047 -0.13365,-0.392031 -0.36386,-0.746181 -0.50186,-1.136703 -0.43758,-1.238298 -0.40564,-1.535144 -0.57752,-2.842922 0.008,-0.477012 -0.0247,-0.956373 0.0233,-1.431036 0.1222,-1.210326 0.56735,-2.393542 1.09022,-3.481961 0.0401,-0.08352 0.66015,-1.223804 0.75645,-1.40121 0.66804,-0.980612 -0.71875,-1.92537 -1.38679,-0.944761 z" />
    <path
       style="opacity:1;fill:#c64600;fill-opacity:1;stroke-width:0.264999"
       id="path3719"
       d="m 219.58418,87.701264 c -0.017,0.180928 -0.0447,0.361167 -0.051,0.542783 -0.0217,0.632404 0.017,1.593437 0.0466,2.192363 0.0422,0.852464 0.13273,2.204376 0.21124,3.042166 0.044,0.469329 0.104,0.937017 0.156,1.405525 0.0504,0.356082 0.0926,0.713407 0.15108,1.068242 0.13504,0.81914 0.27774,1.867437 1.66198,1.475034 0.3087,-0.08751 0.35853,-1.185728 0.38515,-1.47297 0.0891,-0.674002 0.19802,-1.356617 0.4444,-1.99462 0.10722,-0.277638 0.23884,-0.617106 0.53016,-0.766966 0.0602,-0.03097 0.13513,0.0087 0.2027,0.01304 0.0437,0.216929 -0.26218,0.165568 -0.299,0.302472 -0.0239,0.08874 0.0614,0.173373 0.0973,0.257929 0.0696,0.163451 0.15497,0.320124 0.21918,0.485756 0.19227,0.496036 0.31789,0.962046 0.46887,1.472761 0.004,0.01849 0.26557,1.206016 0.36047,1.280848 0.25988,0.20493 0.62582,0.215617 0.93874,0.323424 0.003,0.04231 0.0629,0.03792 0.0598,-0.0044 v 0 c 0.28945,-0.211741 0.68227,-0.328639 0.86834,-0.63522 0.14904,-0.245583 -0.19365,-1.397481 -0.23635,-1.570257 -0.41437,-1.330642 -1.05212,-3.557815 -2.80014,-3.61443 -0.2812,-0.0091 -0.53604,0.171137 -0.80406,0.256704 -0.14725,0.171923 -0.31749,0.326567 -0.44175,0.51577 -0.12216,0.185987 -0.20324,0.396283 -0.29145,0.600565 -0.39872,0.923383 -0.62607,1.909328 -0.74331,2.905731 -0.0272,0.182867 -0.14791,0.375965 -0.0817,0.5486 0.0338,0.08826 0.13411,-0.188994 0.22676,-0.170286 0.44344,0.08954 0.82324,0.416476 1.27209,0.472948 0.10379,0.01307 0.004,-0.20974 -0.007,-0.313751 -0.06,-0.558043 -0.20032,-1.105797 -0.24974,-1.665147 -0.14402,-1.147982 -0.22336,-1.69749 -0.32549,-2.874655 -0.11615,-1.338808 -0.15674,-2.683251 -0.27852,-4.021527 0.0413,-1.196221 -1.65039,-1.254657 -1.69171,-0.05844 z" />
    <path
       style="opacity:1;fill:#c64600;fill-opacity:1;stroke-width:0.264999"
       id="path3721"
       d="m 228.39961,87.837533 c -0.12742,0.125762 -0.28867,0.224665 -0.38225,0.377288 -0.48633,0.793086 -0.79067,1.777809 -0.97007,2.674927 -0.31642,1.582298 -0.35733,2.616366 -0.13544,4.255103 0.0978,0.72237 0.31841,1.42273 0.47761,2.134094 1.04242,2.171187 0.25078,1.398943 2.27592,2.414075 0.0224,0.03606 0.0734,0.0044 0.051,-0.03162 v 0 c 0.2347,-1.875041 0.29449,-0.920538 -0.25276,-2.857966 -0.29939,-1.270799 -0.6418,-2.419024 -0.66204,-3.739967 -0.0216,-1.411729 0.47372,-2.648611 0.80076,-3.986892 0.0396,-0.162105 0.0604,-0.32824 0.0906,-0.492361 0.52798,-0.914493 -0.7653,-1.661176 -1.29329,-0.746683 z" />
    <path
       style="opacity:1;fill:#c64600;fill-opacity:1;stroke-width:0.264999"
       id="path3723"
       d="m 230.98509,91.948565 c -0.0375,0.10028 -0.0897,0.196234 -0.11255,0.300845 -0.2399,1.100179 -0.0224,2.362133 0.64734,3.278004 0.19995,0.273423 0.48725,0.470684 0.73088,0.706025 0.75146,0.294643 1.10966,0.638958 1.92353,0.06499 0.3008,-0.21213 0.46228,-0.577424 0.64047,-0.899483 0.31174,-0.563406 0.46176,-1.405442 0.62652,-2.039551 -0.41952,0.2252 0.24534,-0.508378 0.0786,-0.495385 -0.5461,0.04258 -1.11035,0.0761 -1.61965,0.27776 -0.11124,0.04405 -2.6e-4,0.239739 0.0122,0.35873 0.0382,0.364046 0.21521,1.313304 0.25993,1.566476 0.22089,1.363816 0.38539,2.750019 0.29438,4.134633 -0.0369,0.56134 -0.10205,1.333501 -0.44912,1.840321 -0.0519,0.0757 -0.16675,0.0768 -0.25012,0.1152 -0.0891,-0.0651 -0.3673,-0.26346 -0.3856,-0.31285 -0.0589,-0.15914 -0.0445,-0.34268 -0.0107,-0.50897 0.0397,-0.19553 0.1248,-0.382443 0.22672,-0.553972 0.36205,-0.609312 0.61907,-0.725996 1.18379,-1.186929 0.27089,-0.327353 0.54178,-0.654706 0.81267,-0.982062 0.0395,-0.0154 0.0177,-0.0713 -0.0218,-0.05591 v 0 c -0.5127,-0.02222 -1.02539,-0.04447 -1.53809,-0.06671 -0.46517,0.280601 -1.01387,0.455184 -1.39551,0.841801 -0.61689,0.624933 -0.90001,1.751102 -0.68004,2.596292 0.10478,0.40261 0.36047,0.76664 0.64986,1.06551 0.26455,0.27321 0.59974,0.50774 0.96746,0.60475 0.38287,0.101 0.79157,-0.0242 1.18735,-0.0363 0.31108,-0.24133 0.68655,-0.41715 0.93324,-0.72399 0.57397,-0.71392 0.76242,-1.75767 0.83776,-2.626331 0.046,-0.530773 0.0273,-1.065993 0.005,-1.598287 -0.0515,-1.22314 -0.17221,-1.781776 -0.35888,-2.966048 -0.22865,-0.9558 -0.15044,-0.836166 -0.43554,-1.525596 -0.0336,-0.08123 -0.024,-0.229499 -0.11141,-0.239024 -0.54837,-0.05978 -1.10315,0.02172 -1.65422,0.04656 -0.0149,7.93e-4 0.024,0.01757 0.036,0.02638 0.009,0.07289 0.0177,0.145778 0.0266,0.218665 0.0141,0.451734 0.0472,0.454465 -0.10358,0.936911 -0.0558,0.178657 -0.13084,0.351335 -0.2123,0.519861 -0.0353,0.07296 -0.11854,0.122248 -0.1363,0.201317 -0.009,0.04011 0.0923,0.06976 0.068,0.102891 -0.0312,0.04243 -0.1046,0.01212 -0.15689,0.01818 -0.0969,-0.09724 -0.2137,-0.17806 -0.29068,-0.291711 -0.22774,-0.336214 -0.38458,-0.772224 -0.44013,-1.172607 -0.0634,-0.456655 0.0562,-0.936646 -0.0773,-1.388206 0.10761,-1.207685 -1.60031,-1.359868 -1.70792,-0.152183 z" />
    <path
       style="opacity:1;fill:#c64600;fill-opacity:1;stroke-width:0.264999"
       id="path3725"
       d="m 231.93109,90.559116 c 0.76911,0.127947 -0.11523,-0.02707 1.04597,0.220536 0.28884,0.06159 0.57934,0.11507 0.8693,0.171175 0.62054,0.120073 1.09907,0.234031 1.73075,0.25391 0.25105,0.0079 0.50182,-0.02289 0.75274,-0.03433 0.69616,-0.2633 1.12157,-0.255101 1.29681,-1.221886 0.11936,-0.658524 -0.3572,-1.286161 -0.776,-1.699966 -0.53338,-0.527016 -0.7288,-0.541105 -1.38803,-0.82459 -0.0249,-0.03434 -0.0735,7.94e-4 -0.0486,0.03524 v 0 c 0.0662,0.91327 0.003,0.600088 0.22878,1.484778 0.0446,0.174533 0.0682,0.357754 0.14537,0.520499 0.015,0.03161 0.073,0.02133 0.10475,0.0066 0.13409,-0.06234 0.24283,-0.172595 0.37856,-0.231298 0.0299,-0.01294 -0.0299,0.05796 -0.0448,0.08694 -0.15411,0.01122 -0.3079,0.03905 -0.46231,0.03362 -0.25219,-0.0089 -1.45321,-0.164767 -1.63797,-0.187267 -1.50098,-0.182793 -0.31695,-0.05472 -1.61226,-0.147794 -0.093,-0.0067 -0.18529,-0.0208 -0.27793,-0.0312 -1.10666,-0.215792 -1.41184,1.349258 -0.30518,1.565053 z" />
    <path
       style="opacity:1;fill:#c64600;fill-opacity:1;stroke-width:0.264999"
       id="path3727"
       d="m 238.21186,94.491753 c -0.12217,0.285033 -0.38447,0.886304 -0.4711,1.143347 -0.0844,0.250502 -0.23744,0.499909 -0.21509,0.763307 0.0305,0.359473 0.2442,0.678955 0.36629,1.018431 -0.0194,0.03772 0.0339,0.06518 0.0534,0.02745 v 0 c 0.36085,-0.124511 0.77376,-0.149106 1.08254,-0.373534 0.23721,-0.172402 0.33028,-0.486693 0.46171,-0.748834 0.23439,-0.467479 0.31388,-0.840444 0.44598,-1.328164 0.35498,-1.218829 -1.36871,-1.720836 -1.72369,-0.502007 z" />
    <path
       style="opacity:1;fill:#c64600;fill-opacity:1;stroke-width:0.264999"
       id="path3729"
       d="m 242.46371,88.477645 c -0.0749,0.216053 -0.16768,0.426727 -0.22478,0.648157 -0.18845,0.730721 -0.29006,1.585365 -0.35702,2.325132 -0.0641,0.708485 -0.14352,2.157521 -0.12818,2.875756 0.009,0.423619 0.0605,0.84527 0.0907,1.267905 0.0841,0.343892 0.11708,0.704466 0.25223,1.031676 0.34873,0.844325 0.76159,1.257208 1.70853,1.486951 0.5821,0.141229 1.60252,-0.07331 2.1448,-0.32443 0.27256,-0.126217 0.49873,-0.334883 0.74809,-0.502324 0.48101,-1.073923 0.20654,-0.636093 0.74558,-1.359202 0.0343,-0.0249 -8e-4,-0.07348 -0.0352,-0.04858 v 0 c -0.7652,0.230664 -0.33405,0.204528 -1.29129,-0.108577 -0.80483,0.0605 -0.56596,0.009 -1.31496,0.189005 -0.11895,0.02859 -0.25537,0.02418 -0.3541,0.09641 -0.06,0.04391 0.005,0.201247 -0.068,0.212455 -0.31516,0.04805 -0.42949,-1.044911 -0.40468,-0.866592 -0.12232,-1.080421 -0.17064,-1.224865 -0.15339,-2.375059 0.0129,-0.858777 0.0991,-1.7228 0.195,-2.575544 0.0363,-0.32236 0.0932,-0.642371 0.12271,-0.965422 0.021,-0.229913 0.0192,-0.461344 0.0287,-0.692015 0.22324,-1.205439 -1.48151,-1.521145 -1.70475,-0.315706 z" />
    <path
       style="opacity:1;fill:#c64600;fill-opacity:1;stroke-width:0.264999"
       id="path3731"
       d="m 241.67672,93.594255 c 0.44717,-0.03387 1.66585,-0.09368 2.02939,-0.277635 0.41108,-0.208018 0.7023,-0.596496 1.05345,-0.894742 0.0424,-0.0019 0.0399,-0.06169 -0.002,-0.05995 v 0 c -0.39948,-0.267388 -0.74519,-0.642022 -1.19844,-0.802164 -0.30134,-0.106471 -1.62416,0.01603 -2.00404,0.04362 -1.40775,0.08634 -1.28565,2.077212 0.12211,1.990873 z" />
    <path
       style="opacity:1;fill:#c64600;fill-opacity:1;stroke-width:0.264999"
       id="path3733"
       d="m 246.84109,89.53678 c 0.26901,0.367887 0.55081,0.708876 0.68692,1.158449 0.27111,0.895397 0.36558,1.97068 0.38448,2.88346 0.0128,0.619993 -0.039,1.239639 -0.0585,1.859458 -0.13856,2.110946 -0.33697,1.141301 0.4886,2.928728 -0.0111,0.04094 0.0467,0.0567 0.0579,0.01577 v 0 c 1.70576,-1.464871 1.13751,-0.527963 1.57623,-2.884765 0.0177,-0.700654 0.0765,-1.401485 0.053,-2.101966 -0.0605,-1.800691 -0.28675,-3.757975 -1.62175,-5.099024 -0.10542,-0.105899 -0.23428,-0.185542 -0.35142,-0.27831 -1.07353,-0.859406 -2.28891,0.658797 -1.21538,1.518203 z" />
    <path
       style="opacity:1;fill:#c64600;fill-opacity:1;stroke-width:0.264999"
       id="path3737"
       d="m 251.19146,86.695184 c 0.24074,0.315282 0.51942,0.585591 0.69182,0.951939 0.54647,1.161198 0.61588,2.398498 0.7551,3.651967 0.009,0.621808 0.0464,1.243806 0.0283,1.865426 -0.0394,1.355206 -0.13552,1.981896 -0.43671,3.270599 -0.0545,0.233087 -0.55025,1.89121 -0.56268,2.243058 -0.0112,0.318813 0.10234,0.629759 0.1535,0.944637 -0.0979,0.131731 -0.19587,0.263459 -0.29381,0.39519 -0.0301,0.0299 0.0122,0.0725 0.0423,0.0425 v 0 c 0.14179,-0.10691 0.28357,-0.21382 0.42536,-0.320727 0.35335,-0.134271 0.76417,-0.167556 1.06004,-0.402807 0.63286,-0.503201 1.09872,-1.786668 1.29239,-2.4799 0.52529,-1.880322 0.54882,-3.851976 0.48945,-5.786242 -0.0643,-0.65836 -0.0824,-1.322895 -0.19303,-1.975077 -0.25116,-1.480733 -0.80135,-3.04006 -2.09027,-3.926369 -0.13171,-0.09057 -0.28564,-0.143595 -0.42847,-0.215392 -1.23119,-0.659993 -2.16457,1.081185 -0.93337,1.741178 z" />
    <path
       style="opacity:1;fill:#0076c6;fill-opacity:1;stroke-width:0.264999"
       id="path5368"
       d="m 122.95414,102.60426 c 0.13954,0.0328 0.26784,-0.22609 0.41698,-0.1919 0.0422,0.01 0.007,0.0895 0.0302,0.12624 0.033,0.0533 0.0819,0.0961 0.1314,0.13463 0.11715,0.0913 0.24557,0.16711 0.3665,0.2533 0.1873,0.1335 0.37209,0.27048 0.55814,0.40572 0.21503,0.14024 0.41892,0.29926 0.64509,0.42073 0.72488,0.38931 1.59655,0.6276 2.30805,0.0142 0.54023,-0.46576 0.50413,-0.93933 0.59482,-1.55907 -0.13074,-1.00892 0.0833,-0.54236 -0.77909,-1.32836 0.002,-0.0424 -0.0579,-0.0453 -0.0599,-0.003 v 0 c -0.87966,0.71889 -0.6811,0.29632 -0.85399,1.11025 -0.0287,0.34344 -0.10815,0.23939 0.0963,0.26916 0.076,0.0111 0.17143,-0.01 0.22636,0.0437 0.0337,0.033 -0.087,0.0558 -0.1334,0.0472 -0.36329,-0.0676 -0.66857,-0.32468 -0.96344,-0.51578 -0.43833,-0.31333 -1.02636,-0.78104 -1.54649,-0.95134 -0.85997,-0.28159 -1.74069,-0.1781 -2.25542,0.6339 -0.0905,0.14282 -0.11419,0.31833 -0.17129,0.4775 -0.4333,0.98228 0.95585,1.59507 1.38916,0.61279 z" />
    <path
       style="opacity:1;fill:#0076c6;fill-opacity:1;stroke-width:0.264999"
       id="path5370"
       d="m 129.08186,101.05577 c -0.0264,0.15584 -0.0651,0.31008 -0.0792,0.46751 -0.0974,1.08576 0.0955,2.26975 0.73022,3.18077 0.16328,0.23437 0.38499,0.42207 0.57749,0.6331 0.52505,0.30528 0.87707,0.63316 1.54667,0.51639 0.74618,-0.13012 1.16325,-0.54521 1.54471,-1.1541 0.46775,-0.74664 0.44556,-1.11153 0.60805,-1.97923 0.1218,-1.0868 0.0632,-2.17698 -0.13933,-3.249856 -0.11545,-0.61155 -0.30871,-1.20126 -0.49583,-1.79301 -0.0615,-0.097 -0.0698,-0.28732 -0.18461,-0.29116 -0.4767,-0.0159 -1.01238,-0.0241 -1.41099,0.23789 -0.20749,0.13635 -0.0829,0.49248 -0.0782,0.74072 0.0116,0.62164 0.44511,1.5817 0.66582,2.137896 0.70911,1.62671 1.399,3.26241 2.15331,4.86891 0.005,0.009 0.008,0.031 0.0162,0.0257 2.30358,-1.41805 1.7671,-0.41584 1.41312,-1.50803 -0.0775,-0.23911 -0.14326,-0.48349 -0.1814,-0.73194 -0.0577,-0.37604 -0.0703,-0.75763 -0.10541,-1.13644 0.0273,-1.0294 -0.043,-1.47351 0.28941,-2.447536 0.097,-0.28413 0.23121,-0.56119 0.41188,-0.80096 0.0127,-0.0169 0.46531,-0.53827 0.60727,-0.20067 0.0322,0.0765 -0.0204,0.16476 -0.0306,0.24714 0.29007,0.3409 0.41994,0.58893 0.9405,0.67775 0.31571,0.0539 0.63986,-0.0299 0.95978,-0.0449 0.0253,0.0341 0.0735,-0.002 0.0482,-0.0357 v 0 c 0.0818,-0.33614 0.28174,-0.66438 0.24544,-1.00842 -0.0957,-0.90678 -0.81951,-1.20438 -1.45115,-1.6733 -0.46762,-0.0806 -0.93157,-0.297 -1.40287,-0.24183 -0.40298,0.0472 -0.781,0.27565 -1.09373,0.53413 -0.30396,0.25124 -0.51964,0.60231 -0.70336,0.95124 -0.68082,1.29307 -0.71131,2.801636 -0.70446,4.220576 0.046,0.48168 0.0571,0.96795 0.13785,1.44503 0.0942,0.55656 0.27833,1.08682 0.52428,1.59102 0.0762,0.15619 0.0839,0.49325 0.25355,0.45555 1.982,-0.44045 1.9261,-0.33301 1.69373,-1.14852 -0.68548,-1.63006 -1.45842,-3.22316 -2.18083,-4.836866 -0.20532,-0.4322 -0.40365,-0.86778 -0.61547,-1.29684 -0.0524,-0.1061 -0.0547,-0.27222 -0.16536,-0.31408 -0.0782,-0.0296 -0.0826,0.17434 -0.1649,0.18915 -1.33921,0.24095 -1.27508,0.5172 -1.35154,0.0176 0.0484,0.0801 0.10754,0.15453 0.14514,0.24018 0.14545,0.33133 0.26934,0.8195 0.3362,1.15649 0.17578,0.885906 0.23246,1.779306 0.0775,2.674336 -0.0711,0.25125 -0.12888,0.5067 -0.21341,0.75377 -0.0619,0.18096 -0.14198,0.35552 -0.22505,0.5278 -0.0477,0.0988 -0.1363,0.17852 -0.16641,0.28404 -0.009,0.0329 0.1395,0.19757 -0.0287,0.20318 -0.08,0.003 -0.15394,-0.0443 -0.23091,-0.0664 -0.0965,-0.085 -0.20832,-0.1553 -0.28952,-0.25503 -0.55078,-0.67644 -0.57073,-1.68407 -0.58396,-2.51417 0.17596,-1.16609 -1.47314,-1.414936 -1.6491,-0.24885 z" />
    <path
       style="opacity:1;fill:#0076c6;fill-opacity:1;stroke-width:0.264999"
       id="path5376"
       d="m 139.55436,95.543384 c -0.0423,0.19234 -0.10721,0.38107 -0.12682,0.57703 -0.0328,0.32784 -0.0316,0.6585 -0.0298,0.98798 0.005,0.80135 0.0753,2.01562 0.14204,2.79655 0.0444,0.518926 0.0455,1.046216 0.16047,1.554196 0.11071,0.48928 0.34095,0.9436 0.51142,1.4154 0.24967,0.32463 0.49935,0.64926 0.74902,0.97388 0.006,0.042 0.0655,0.0333 0.0594,-0.009 v 0 c 0.14802,-0.37291 0.29604,-0.74582 0.44406,-1.11873 0.053,-0.48688 0.15863,-0.97089 0.15893,-1.46064 2.7e-4,-0.50866 -0.10501,-1.01188 -0.15706,-1.517856 -0.0931,-0.90531 -0.17561,-1.81173 -0.27629,-2.71623 -0.0352,-0.31643 -0.0613,-0.63457 -0.11841,-0.94778 -0.0344,-0.18866 -0.10375,-0.36927 -0.15562,-0.5539 -0.0133,-0.96262 -1.37462,-0.94387 -1.36136,0.0188 z" />
    <path
       style="opacity:1;fill:#0076c6;fill-opacity:1;stroke-width:0.264999"
       id="path5378"
       d="m 140.39958,95.570064 c 0.377,-0.14403 1.1635,-0.48689 1.516,-0.13159 0.0605,0.0609 0.0811,0.1513 0.12172,0.22695 0.10359,0.26152 0.24553,0.7983 0.12905,1.07081 -0.0903,0.21127 -0.14717,-0.0255 -0.22574,0.006 -0.1143,0.0453 -0.20526,0.13539 -0.30789,0.20308 -0.21433,0.17419 -0.42866,0.34838 -0.64298,0.52258 -0.0422,-0.004 -0.0477,0.0559 -0.005,0.0597 v 0 c 0.26513,0.21823 0.53026,0.43646 0.79539,0.65468 0.35217,0.0137 0.71942,0.1439 1.05651,0.041 1.07167,-0.32706 1.36774,-1.42362 1.13242,-2.38808 -0.18292,-0.74965 -0.40819,-0.90378 -0.87293,-1.49246 -0.24671,-0.15418 -0.47167,-0.35047 -0.74014,-0.46254 -0.63733,-0.26605 -1.34253,-0.14649 -1.95013,0.12424 -0.28562,0.12727 -0.47486,0.28372 -0.72014,0.46405 -0.77911,0.50513 -0.0648,1.60696 0.71435,1.10183 z" />
  </g>
</svg>
