<?xml version="1.0" encoding="UTF-8" standalone="no"?>
<!-- Created with Inkscape (http://www.inkscape.org/) -->

<svg
   width="706.35095"
   height="306.30292"
   viewBox="0 0 186.88869 81.042647"
   version="1.1"
   id="svg5"
   xmlns="http://www.w3.org/2000/svg"
   xmlns:svg="http://www.w3.org/2000/svg">
  <defs
     id="defs2" />
  <g
     id="layer1"
     transform="translate(-62.079383,-54.903797)">
    <path
       style="fill:#5e5c64;stroke:#5e5c64;stroke-width:0.264999"
       id="path667"
       d="m 127.84031,98.72841 c 2.84563,-0.434205 5.744,-0.388107 8.61522,-0.401476 2.91823,-0.0099 5.83669,0.03947 8.75476,-5.3e-4 2.34108,-0.124388 4.68524,-0.105277 7.02748,-0.17599 0.97863,-0.153223 3.19386,0.03903 3.92687,-0.718404 0.16147,-0.166855 0.25221,-0.38993 0.37831,-0.584894 0.0419,0.0067 0.0513,-0.05259 0.009,-0.05925 v 0 c -0.12001,-0.234135 -0.17567,-0.514718 -0.36005,-0.7024 -0.80356,-0.817933 -2.99859,-0.21767 -4.0258,-0.228986 -2.32892,0.07443 -4.66026,0.04818 -6.98793,0.178033 -2.91163,0.04052 -5.82364,-0.01215 -8.73544,0.0034 -3.04168,0.01868 -6.18262,-0.125315 -9.13232,0.73265 -1.3845,0.37439 -0.85503,2.33237 0.52947,1.957977 z" />
    <path
       style="fill:#5e5c64;stroke:#5e5c64;stroke-width:0.264999"
       id="path669"
       d="m 165.78161,98.015456 c 2.6191,-0.07031 5.23657,0.003 7.85447,0.07463 2.45395,-0.008 4.90002,-0.211913 7.35335,-0.2521 2.00952,0.03277 4.01697,0.05438 6.02684,0.02709 1.63887,0.058 3.27669,-0.01381 4.91486,-0.02363 0.46092,-5.29e-4 1.5174,0.131278 1.87841,-0.182002 1.34752,-1.169344 -0.073,-0.853564 0.99318,-1.006104 0.042,-0.006 0.0335,-0.06541 -0.009,-0.05939 v 0 c -0.92973,0.133231 0.0598,0.119647 -1.01811,-0.785167 -0.2871,-0.240996 -1.48312,-0.229309 -1.86405,-0.268158 -1.6425,0.01699 -3.28399,0.07759 -4.92715,0.01789 -2.01223,0.02739 -4.02186,-0.0084 -6.03378,-0.03431 -2.43155,0.04066 -4.85512,0.235509 -7.2861,0.290055 -1.43995,0.0033 -2.88526,-0.07054 -4.32452,-0.01778 -1.14009,0.0418 -1.54599,0.116885 -2.64124,0.213119 -0.29814,0.02619 -0.59692,0.04471 -0.89538,0.06706 -1.37092,-0.01574 -1.39319,1.923023 -0.0223,1.938774 z" />
    <path
       style="fill:#5e5c64;stroke:#5e5c64;stroke-width:0.264999"
       id="path673"
       d="m 202.42451,97.794229 c 2.56116,-0.387101 5.16151,-0.407892 7.74644,-0.454794 3.47839,-0.04203 6.95469,0.09475 10.42564,0.309057 2.52707,0.227861 5.0633,0.277661 7.59563,0.406886 1.98471,0.108808 3.96476,0.300311 5.95332,0.313757 0.48756,-0.07312 1.81193,0.131307 2.18282,-0.302274 0.16311,-0.190682 0.15542,-0.477184 0.23313,-0.715777 0.0424,5.29e-4 0.0431,-0.05949 8e-4,-0.06 v 0 c -0.10741,-0.240784 -0.13609,-0.535628 -0.32223,-0.722355 -0.36089,-0.362034 -1.59333,-0.07194 -2.04993,-0.164364 -1.96947,-0.07779 -3.9338,-0.229939 -5.90123,-0.345662 -2.52656,-0.115708 -5.05502,-0.180118 -7.57634,-0.395587 -3.52497,-0.194064 -7.05512,-0.33506 -10.58625,-0.269399 -2.70529,0.075 -5.45903,0.09641 -8.06937,0.900221 -1.06087,0.259969 -0.69322,1.760257 0.36765,1.500288 z" />
    <path
       style="fill:#5e5c64;stroke:#5e5c64;stroke-width:0.264999"
       id="path729"
       d="m 77.906845,99.493529 c 2.621002,-0.205597 5.25006,-0.165502 7.876129,-0.135559 3.441767,0.02252 6.87931,0.185034 10.321428,0.18724 2.576272,-0.01249 5.153918,0.06024 7.728748,0.148299 2.18052,0.142481 4.36206,0.2359 6.54527,0.116605 1.04973,-0.141973 2.14004,-0.178546 3.16823,-0.458079 0.22495,-0.06116 0.52489,-0.06005 0.6507,-0.256307 0.7305,-1.139587 -0.22884,-0.92456 0.24379,-1.016053 0.042,-0.0061 0.0334,-0.06545 -0.009,-0.05938 v 0 c -0.4867,0.04777 0.51338,-0.0217 -0.62962,-0.849855 -0.1728,-0.125203 -0.42778,-0.01312 -0.64011,0.0081 -0.96784,0.09679 -1.92257,0.364493 -2.90301,0.361582 -2.11408,0.104852 -4.22423,0.01426 -6.33075,-0.189561 -2.60571,-0.123579 -5.217199,-0.172598 -7.825562,-0.167841 -3.433794,0.0049 -6.862349,-0.170817 -10.295826,-0.182716 -2.728923,-0.02609 -5.492811,-0.152603 -8.188746,0.354026 -1.512845,0.203581 -1.224936,2.343065 0.287909,2.139482 z" />
    <path
       style="fill:#5e5c64;stroke:#5e5c64;stroke-width:0.264999"
       id="path731"
       d="m 74.86914,94.813426 c 0.358896,1.674151 0.594722,3.38378 1.057007,5.035007 0.189225,0.675887 0.333394,1.379967 0.66838,1.996747 0.316378,0.58252 0.836179,1.02883 1.254268,1.54325 0.0084,0.0416 0.0672,0.0297 0.05882,-0.0118 v 0 c 0.184668,-0.64405 0.496758,-1.26459 0.554003,-1.93213 0.05985,-0.69795 -0.105878,-1.39824 -0.208981,-2.091124 -0.253233,-1.701808 -0.714904,-3.375202 -1.045017,-5.062516 -0.369544,-1.653553 -2.708021,-1.13094 -2.338477,0.522613 z" />
    <path
       style="fill:#5e5c64;stroke:#5e5c64;stroke-width:0.264999"
       id="path733"
       d="m 236.01766,93.607508 c 0.0215,1.574805 0.29488,3.142906 0.55023,4.693036 0.0993,0.602869 0.10519,1.232815 0.31984,1.804856 0.14761,0.39338 1.19612,1.80724 1.52203,2.25788 0.008,0.0418 0.0666,0.0311 0.059,-0.0106 v 0 c 0.13012,-0.46495 0.6599,-2.30413 0.66879,-2.619191 0.017,-0.601814 -0.18236,-1.190218 -0.2737,-1.785303 -0.22394,-1.458912 -0.49837,-2.920471 -0.57532,-4.396954 -0.0398,-1.605775 -2.31073,-1.549458 -2.27091,0.05632 z" />
    <path
       style="fill:#5e5c64;stroke:#5e5c64;stroke-width:0.264999"
       id="path735"
       d="m 66.198376,101.37763 c 0.237686,0.0143 0.475464,0.0587 0.713055,0.0429 1.532932,-0.10195 3.052627,-1.0389 3.087433,-2.759085 0.01159,-0.5729 -0.269951,-1.113785 -0.404929,-1.670677 -0.638042,-0.935009 -1.144328,-1.967206 -2.256843,-2.465456 -1.909273,-0.855089 -3.93157,-0.09054 -4.780237,1.838856 -0.268515,0.610452 -0.22774,1.314204 -0.341609,1.971308 0.336571,1.129736 0.479494,2.718394 1.92636,3.173204 0.130723,0.0411 2.678673,-0.40923 3.147131,-0.49001 0.04242,-5.3e-4 0.0416,-0.0606 -7.94e-4,-0.06 v 0 c -0.360775,-0.0589 -0.78287,0.0329 -1.082331,-0.17672 -0.308718,-0.21614 -0.3235,-0.69052 -0.567118,-0.978053 -1.488765,-1.75714 0.182393,1.093553 -1.050316,-1.219628 -0.01331,-0.301975 -0.08398,-0.606878 -0.03994,-0.905918 0.06588,-0.447297 0.344699,-0.944557 0.760785,-1.163775 0.206478,-0.108786 0.454885,-0.218935 0.681186,-0.161872 0.643662,0.162306 1.16704,0.859885 1.578562,1.305549 0.06465,0.115208 0.517573,0.843894 0.484902,1.014884 -0.112273,0.587626 -1.220973,0.887351 -1.699752,0.998318 -1.206431,-0.109966 -1.361948,1.596185 -0.155517,1.706155 z" />
    <path
       style="fill:#5e5c64;stroke:#5e5c64;stroke-width:0.264999"
       id="path737"
       d="m 244.12464,97.957414 c 0.93472,-0.747826 1.73755,-1.639599 2.59797,-2.466888 0.2778,-0.267113 0.53995,-0.555204 0.85137,-0.782243 0.1024,-0.07465 0.49184,-0.09607 0.36543,-0.104868 -0.4708,-0.03277 -0.94364,0.02119 -1.41546,0.03179 -0.12969,1.228487 -0.12591,0.972463 -0.12861,2.612737 -0.002,1.088276 -0.0875,2.526493 0.45332,3.556758 0.21851,0.41627 0.64662,0.68265 0.96993,1.02398 0.006,0.042 0.0654,0.0334 0.0594,-0.009 v 0 c 0.22075,-0.36991 0.52294,-0.7021 0.66225,-1.10971 0.33358,-0.976042 0.24658,-2.440201 0.25959,-3.414005 0.0349,-2.609625 0.10205,-1.168339 -0.13601,-3.713152 -0.64096,-0.333476 -1.21024,-0.881396 -1.92289,-1.000424 -0.30572,-0.05106 -0.51886,0.344106 -0.74638,0.554593 -0.28129,0.260218 -0.50805,0.574037 -0.77293,0.850934 -0.75872,0.793147 -1.55688,1.552909 -2.38189,2.276523 -1.19681,0.90859 0.0881,2.601127 1.28493,1.692537 z" />
    <path
       style="fill:#5e5c64;stroke:#5e5c64;stroke-width:0.264999"
       id="path741"
       d="m 113.88733,93.187844 c -0.74122,0.501859 -1.32307,1.247011 -1.39489,2.17614 -0.0718,0.929611 0.14589,1.307925 0.4252,2.18068 0.18912,0.423256 0.3725,0.849127 0.56737,1.269775 0.21372,0.461367 0.47045,0.903544 0.65829,1.376041 0.35992,0.90533 0.58342,1.72312 0.63534,2.69187 0.0215,0.40142 -0.062,0.8016 -0.0904,1.20259 -0.0135,0.20058 -0.0269,0.40115 -0.0404,0.60173 -0.0403,0.0133 -0.0215,0.0703 0.0187,0.057 v 0 c 0.39826,0.065 0.79651,0.13 1.19476,0.195 0.314,-0.31678 0.74358,-0.55087 0.942,-0.95034 0.21638,-0.43562 0.24576,-0.95217 0.24458,-1.43857 -0.001,-0.55904 -0.11514,-1.11607 -0.2521,-1.65809 -0.37053,-1.466454 -1.1322,-2.74322 -1.78661,-4.087472 -0.0949,-0.233045 -0.18978,-0.466135 -0.28484,-0.699138 -0.0528,-0.129437 -0.12273,-0.2531 -0.15874,-0.388175 -0.12837,-0.481444 0.19973,-0.927661 0.42897,-1.317411 0.85675,-0.783003 -0.25059,-1.994622 -1.10733,-1.21162 z" />
    <path
       style="fill:#5e5c64;stroke:#5e5c64;stroke-width:0.264999"
       id="path751"
       d="m 194.63234,90.642621 c -0.72431,0.417815 -1.16813,0.967915 -1.4775,1.746952 -0.118,0.29714 -0.22063,0.604702 -0.26835,0.920834 -0.13788,0.913479 8e-4,1.296898 0.15117,2.197494 0.27723,1.193655 0.71072,2.341309 1.06806,3.511214 0.19806,0.648436 0.38177,1.162075 0.39449,1.835495 0.003,0.17797 -0.0486,0.35266 -0.0728,0.52899 -0.22902,0.12918 -0.0391,0.42355 -0.1633,0.58237 -0.16215,0.20736 -0.41521,0.32364 -0.62282,0.48547 -0.0422,0.004 -0.0367,0.0637 0.006,0.0597 v 0 c 0.81943,0.27427 1.4441,0.65968 2.34281,0.0984 0.32261,-0.20148 0.39573,-0.64969 0.5936,-0.97453 0.0382,-0.35889 0.12206,-0.71585 0.11445,-1.0767 -0.016,-0.759334 -0.26031,-1.518644 -0.48427,-2.232656 -0.33976,-1.083165 -0.75698,-2.140024 -1.09017,-3.225326 -0.0952,-0.398934 -0.24352,-0.871564 -0.2287,-1.296075 0.0176,-0.505529 0.13692,-0.62443 0.31207,-1.090562 0.23833,-0.634286 0.0351,-0.291317 0.36421,-0.753158 0.93195,-0.663612 -0.007,-1.981584 -0.93849,-1.317972 z" />
    <path
       style="fill:#5e5c64;stroke:#5e5c64;stroke-width:0.264999"
       id="path753"
       d="m 201.98724,90.690027 c -0.99708,0.871294 -2.08861,1.763834 -2.3635,3.139678 -0.19515,0.976699 -0.003,1.377243 0.20727,2.311995 0.33311,1.096518 0.83452,2.137685 1.14152,3.242831 0.14137,0.508895 0.30246,1.210629 0.22356,1.761059 -0.0213,0.14905 -0.12118,0.27569 -0.18177,0.41353 -0.32229,0.4656 -0.0342,0.0135 -0.37161,0.72791 -0.10221,0.21639 -0.21832,0.42594 -0.32749,0.6389 -0.0413,0.01 -0.0274,0.0682 0.0138,0.0584 v 0 c 0.29335,0.11753 0.56478,0.33094 0.88005,0.3526 1.14846,0.0789 1.24795,-0.37443 1.97159,-1.12935 0.0951,-0.38241 0.24744,-0.75498 0.28539,-1.1472 0.0376,-0.38823 -0.008,-0.78208 -0.0613,-1.168511 -0.20655,-1.507498 -0.87193,-2.895073 -1.36529,-4.318352 -0.0476,-0.15177 -0.29647,-0.884166 -0.30733,-1.111292 -0.008,-0.160107 10e-4,-0.328337 0.0612,-0.476962 0.25997,-0.643691 0.95486,-1.289042 1.44868,-1.757931 1.08703,-0.887246 -0.16773,-2.424541 -1.25476,-1.537295 z" />
    <path
       style="fill:#5e5c64;stroke:#5e5c64;stroke-width:0.264999"
       id="path755"
       d="m 128.78467,91.825682 c -0.16688,0.04742 -0.34029,0.07604 -0.50064,0.142272 -0.79874,0.329925 -1.83621,1.16391 -2.18787,1.960941 -0.15136,0.343056 -0.20048,0.72263 -0.30072,1.083945 5.3e-4,0.358153 -0.0261,0.71738 0.002,1.074457 0.13013,1.674309 0.81234,3.441131 1.39775,5.006823 0.18704,0.55492 0.45713,1.2188 0.2069,1.80942 -0.0375,0.0886 -0.10245,0.17731 -0.18994,0.21731 -0.0675,0.0309 -0.14645,-0.0313 -0.22064,-0.0296 -0.16917,0.004 -0.33705,0.0305 -0.50558,0.0458 -0.45743,0.0294 -1.26289,0.0439 -1.68412,0.23483 -0.31638,0.14344 -0.56651,0.40218 -0.84976,0.60327 -0.0417,-0.008 -0.0528,0.0511 -0.0112,0.059 v 0 c 0.24592,0.30132 0.41758,0.68316 0.73776,0.90398 0.66236,0.45682 1.53156,0.33707 2.26177,0.33781 1.05277,-0.27671 1.49303,-0.21657 2.23417,-1.12597 0.2215,-0.27178 0.33777,-0.62201 0.42788,-0.96083 0.25853,-0.97208 0.003,-1.96473 -0.32759,-2.87676 -0.59976,-1.586654 -1.21407,-3.201348 -1.38425,-4.901233 -0.008,-0.126365 -0.0506,-0.255653 -0.0225,-0.379092 0.15516,-0.682622 1.1591,-1.218388 1.55712,-1.765236 1.01902,-0.452668 0.37886,-1.893782 -0.64017,-1.441117 z" />
    <path
       style="fill:#5e5c64;stroke:#5e5c64;stroke-width:0.264999"
       id="path757"
       d="m 156.85293,91.351879 c -0.53547,0.280332 -1.45486,0.83879 -1.73032,1.368251 -0.17807,0.34227 -0.31922,0.713263 -0.37502,1.095031 -0.0553,0.378645 0.0316,0.764683 0.0474,1.147027 0.25324,1.740109 1.26958,3.245284 1.66128,4.944083 0.0511,0.221749 0.0645,0.450539 0.0967,0.675819 -0.023,0.32194 0.0134,0.63268 -0.19446,0.90773 -0.0651,0.0861 -0.17063,0.1334 -0.26391,0.18774 -0.28717,0.16729 -0.66997,0.33416 -0.99154,0.40049 -0.2068,0.0427 -0.42039,0.0402 -0.63059,0.0603 -0.40927,0.14412 -0.83076,-0.17682 -1.23591,-0.0957 -1.53437,0.30735 -0.0856,0.46156 -1.30758,0.24224 -0.0349,-0.0241 -0.069,0.0253 -0.0341,0.0494 v 0 c 0.11892,0.17496 0.25035,0.34203 0.35674,0.52487 0.17562,0.30182 0.23291,0.68855 0.48806,0.92696 0.40028,0.37403 1.48425,0.4403 1.9438,0.50504 0.94283,-0.0937 1.34477,-0.0428 2.20661,-0.48768 1.07894,-0.55699 1.73931,-1.3933 1.90917,-2.60182 0.0454,-0.32325 0.01,-0.65277 0.0144,-0.97916 -0.0561,-0.33008 -0.0904,-0.664606 -0.16826,-0.990236 -0.37213,-1.556486 -1.21779,-2.945403 -1.68186,-4.469493 -0.0355,-0.175175 -0.0617,-0.352478 -0.10644,-0.525528 -0.0245,-0.09486 -0.11558,-0.179306 -0.10067,-0.276138 0.0203,-0.131858 0.12261,-0.23762 0.19681,-0.348499 0.231,-0.345217 0.53751,-0.60166 0.82672,-0.893818 0.96655,-0.65556 0.0394,-2.022472 -0.92711,-1.366909 z" />
    <path
       style="fill:#5e5c64;stroke:#5e5c64;stroke-width:0.264999"
       id="path761"
       d="m 166.88533,91.337311 c -1.08959,0.493332 -2.06253,1.35789 -2.52158,2.487817 -0.11898,0.292854 -0.17386,0.607822 -0.26079,0.911733 -0.17294,1.272643 0.0686,2.544167 0.25246,3.799993 0.12804,0.874792 0.34173,1.854886 0.27424,2.755346 -0.0219,0.29214 -0.13583,0.56995 -0.20374,0.85493 -0.003,0.33469 -0.35525,0.48479 -0.4564,0.76351 -0.0777,0.21398 -0.0998,0.4442 -0.14969,0.66631 -0.042,0.006 -0.0336,0.0653 0.008,0.0594 v 0 c 0.33504,0.16775 0.63048,0.50937 1.00513,0.50326 0.88313,-0.0144 1.26954,-1.01845 1.61735,-1.57964 0.0818,-0.44914 0.21518,-0.8919 0.24533,-1.34744 0.066,-0.99722 -0.13576,-1.995249 -0.27935,-2.972697 -0.0717,-0.488394 -0.14981,-0.97591 -0.21476,-1.465254 -0.13346,-1.005419 -0.11172,-0.77153 -0.11406,-1.57956 0.0191,-0.155342 0.0159,-0.315074 0.0572,-0.466027 0.21005,-0.767045 0.86025,-1.333296 1.50008,-1.745728 1.16387,-0.537284 0.40403,-2.183247 -0.75984,-1.645963 z" />
    <path
       style="fill:#a51d2d;stroke:#a51d2d;stroke-width:0.264999"
       id="path1388"
       d="m 86.876542,119.89858 c -0.0019,0.26287 -0.01659,0.52596 -0.0059,0.78862 0.03867,0.95145 0.172495,2.07792 0.269626,3.00363 0.228606,2.17879 0.497938,4.35166 0.753325,6.5274 0.727321,1.87212 0.267366,1.07777 1.271336,2.4427 0.0019,0.0424 0.06185,0.0397 0.05994,-0.003 v 0 c 0.869476,-1.53164 0.521057,-0.65188 0.898154,-2.6929 -0.224292,-2.04702 -0.231214,-2.25419 -0.529712,-4.35633 -0.269816,-1.90016 -0.591584,-3.79381 -0.729464,-5.71041 0,-1.40523 -1.98729,-1.40523 -1.98729,0 z" />
    <path
       style="fill:#a51d2d;stroke:#a51d2d;stroke-width:0.264999"
       id="path1390"
       d="m 88.447151,120.93035 c 0.566309,0.12615 0.98067,-0.34153 1.548842,-0.2876 0.464095,0.0441 0.554366,0.47457 0.639929,0.83193 -0.0098,0.17622 0.02572,0.36101 -0.02944,0.52865 -0.322898,0.98126 -1.784268,1.11995 -2.473931,1.66338 -0.270441,0.2131 -0.449154,0.52198 -0.673733,0.78296 -0.04243,-2.3e-4 -0.04276,0.0598 -2.64e-4,0.06 v 0 c 0.341069,0.26412 0.608158,0.67479 1.023204,0.79235 0.486016,0.13766 1.026571,0.0602 1.51361,-0.0738 1.626312,-0.44745 2.884811,-1.83794 2.913745,-3.5631 0.0079,-0.46967 -0.206031,-0.9166 -0.309046,-1.3749 -0.271039,-0.3703 -0.467305,-0.80925 -0.813115,-1.11092 -1.004041,-0.87587 -2.282455,-0.86633 -3.40447,-0.27552 -0.298136,0.15698 -0.598993,0.33579 -0.821831,0.58852 -0.207211,0.23502 -0.288517,0.55627 -0.432776,0.8344 -0.426836,0.93292 0.892511,1.53656 1.319347,0.60364 z" />
    <path
       style="fill:#a51d2d;stroke:#a51d2d;stroke-width:0.264999"
       id="path1392"
       d="m 94.478633,125.9122 c 0.629327,-0.61998 1.130895,-1.3535 1.73447,-1.99578 0.280395,-0.29838 0.592386,-0.56543 0.890704,-0.84589 0.189593,-0.17825 0.354825,-0.38839 0.572998,-0.53023 0.03696,-0.024 0.11779,0.0996 0.07475,0.10911 -0.332079,0.0735 -0.677021,0.0662 -1.015532,0.0992 -0.0053,1.08596 0.280305,2.75167 0.798349,3.68447 0.282495,0.50866 0.756134,0.88456 1.1342,1.32684 0.0086,0.0415 0.06738,0.0293 0.05875,-0.0122 v 0 c 0.177348,-0.5238 0.440648,-1.02599 0.53204,-1.57139 0.164166,-0.9797 0.01252,-2.68051 -0.220027,-3.63747 -0.116586,-0.47975 -0.344959,-0.92521 -0.517438,-1.38782 -0.564878,-0.21997 -1.089964,-0.61691 -1.694633,-0.65989 -0.309996,-0.022 -0.560866,0.28142 -0.797642,0.48272 -0.589941,0.50154 -0.813136,1.12546 -1.259313,1.74597 -0.262321,0.36481 -0.558461,0.70422 -0.847122,1.04857 -0.233407,0.27844 -0.479176,0.54629 -0.718764,0.81943 -0.936435,0.90101 0.337777,2.22533 1.274215,1.32433 z" />
    <path
       style="fill:#a51d2d;stroke:#a51d2d;stroke-width:0.264999"
       id="path1398"
       d="m 131.17674,123.02871 c -0.0149,1.55686 0.18343,3.10443 0.36087,4.64764 0.0525,0.45658 0.12371,0.91131 0.15976,1.36949 0.0179,0.22767 -0.18301,0.5511 0.002,0.68513 0.15748,0.11415 0.11708,-0.37097 0.17563,-0.55645 0.4716,-0.0707 1.06257,0.10945 1.41479,-0.21201 0.22045,-0.20119 -0.17244,-0.57208 -0.23618,-0.86364 -0.10009,-0.45788 -0.19052,-0.91852 -0.2549,-1.38277 -0.12562,-0.90581 -0.21091,-2.04175 -0.14826,-2.96062 0.0288,-0.42297 0.12379,-0.83883 0.18569,-1.25825 0.41562,-0.85833 0.23758,-0.90629 1.0498,-1.26528 0.21047,-0.093 0.4339,-0.16699 0.66236,-0.19455 0.16377,-0.0198 0.36388,-0.0489 0.49176,0.0553 0.19394,0.158 -0.2484,0.22001 -0.50156,0.27515 -0.43073,0.85587 -0.1934,0.42074 -0.80782,1.43494 -0.16926,0.27939 -0.40753,0.52676 -0.50957,0.83708 -0.61554,1.87198 0.39739,0.31513 -0.42316,1.44263 -0.0366,0.0215 -0.006,0.0732 0.0304,0.0517 v 0 c 0.21661,-0.0395 0.43229,-0.0844 0.64982,-0.11845 0.40706,-0.0637 0.85752,0.0143 1.22362,-0.17464 0.39095,-0.2018 0.66706,-0.5839 0.92968,-0.93688 0.82689,-1.11139 0.77171,-1.46855 1.09756,-2.79441 -0.17288,-0.51642 -0.17473,-1.127 -0.51865,-1.54925 -0.29887,-0.36694 -0.80252,-0.54765 -1.26625,-0.64214 -0.40697,-0.0829 -0.84129,0.012 -1.23902,0.13167 -0.97969,0.29466 -1.80395,0.92002 -2.33665,1.80398 -0.25214,0.41839 -0.31089,0.92621 -0.46633,1.38933 -0.0596,0.50647 -0.15155,1.01017 -0.17882,1.51941 -0.086,1.60556 0.10396,3.26253 0.42762,4.83374 0.0927,0.44992 -5.3e-4,1.02635 0.33912,1.33571 0.50446,0.45958 1.27779,0.47961 1.91669,0.71942 0.16305,-0.29385 0.39676,-0.55845 0.48916,-0.88156 0.11781,-0.41193 -0.054,-2.13356 -0.0746,-2.35057 -0.15157,-1.59704 -0.31328,-3.22152 -0.8767,-4.73616 -0.24416,-1.25 -2.01191,-0.9047 -1.76775,0.34529 z" />
    <path
       style="fill:#a51d2d;stroke:#a51d2d;stroke-width:0.264999"
       id="path1400"
       d="m 140.79957,128.63611 c 0.3476,-0.26975 0.72055,-0.49342 0.88379,-0.94436 0.45721,-1.263 0.14066,-2.72401 -0.95684,-3.56967 -0.35247,-0.27158 -0.81232,-0.36343 -1.21847,-0.54515 -0.44983,0.0283 -0.91819,-0.0459 -1.34947,0.085 -1.29761,0.39396 -2.18995,1.72879 -1.95294,3.08553 0.20478,1.17224 0.68493,1.29623 1.53322,1.95609 0.36986,0.0934 0.72862,0.2604 1.10959,0.28035 1.31597,0.0689 2.29883,-0.74935 2.90754,-1.84586 0.31021,-0.55881 0.41066,-1.17605 0.54785,-1.7861 0.64636,-1.02274 -0.15913,0.31469 -0.68742,0.53933 -0.23271,0.099 -0.57929,-0.42032 -0.72741,-0.21537 -0.15983,0.22117 0.21579,0.50222 0.34732,0.74131 0.63081,1.14664 0.53712,0.90534 1.5283,1.88054 0.47351,0.18708 0.91468,0.50359 1.42052,0.56122 0.95464,0.10877 1.55856,-0.34147 2.32097,-0.75001 0.0424,-0.002 0.0397,-0.0618 -0.003,-0.0599 v 0 c -0.27149,-0.14277 -0.55043,-0.27221 -0.81448,-0.42832 -1.38914,-0.82125 -0.19848,-0.27966 -1.52348,-0.82204 -0.20538,-0.17636 -0.43791,-0.32532 -0.61614,-0.52908 -0.19179,-0.21926 -0.33766,-0.47582 -0.48345,-0.72801 -0.30144,-0.52146 -0.61021,-1.6438 -1.40977,-1.65771 -0.46548,-0.008 -0.78646,0.53544 -1.05388,0.91653 -0.0722,0.10296 0.11791,0.22222 0.17686,0.33333 -0.004,0.17931 0.0217,0.36164 -0.0112,0.53794 -0.0985,0.52723 -0.43475,1.27091 -0.9815,1.48234 -0.32895,0.12721 -0.60278,-0.0139 -0.90678,-0.10626 -0.16977,-0.0734 -0.46614,-0.16994 -0.59314,-0.33333 -0.38303,-0.49279 0.11835,-0.99037 0.5528,-1.18228 0.14493,0.007 0.29763,-0.027 0.43478,0.0203 0.41921,0.14468 0.95039,0.70391 0.89601,1.18702 -0.0106,0.0943 -0.30982,0.61779 -0.36205,0.7122 -0.83751,0.70114 0.15407,1.88555 0.99157,1.1844 z" />
    <path
       style="fill:#a51d2d;stroke:#a51d2d;stroke-width:0.264999"
       id="path1404"
       d="m 173.69234,122.22411 c 0.0965,0.79552 0.23923,1.58452 0.34363,2.37888 0.0898,0.68313 0.15611,1.36921 0.24622,2.05229 0.22884,1.73472 0.51921,3.4539 0.84448,5.17247 0.12366,0.54026 0.22692,1.83863 1.23381,-0.20636 0.12913,-0.26225 -0.19314,-0.55179 -0.28972,-0.82768 -0.006,-0.0419 -0.0658,-0.0328 -0.0593,0.009 v 0 c -0.009,0.29588 -0.23239,0.67574 -0.0257,0.88763 1.60888,1.6494 1.32306,0.37996 1.28481,-0.21066 -0.4321,-3.18845 -1.04715,-6.34454 -1.57429,-9.51765 -0.18523,-1.417 -2.18916,-1.15505 -2.00394,0.26195 z" />
    <path
       style="fill:#a51d2d;stroke:#a51d2d;stroke-width:0.264999"
       id="path1406"
       d="m 175.43462,122.87268 c 0.18083,-0.29637 0.27738,-0.52443 0.59392,-0.72048 0.1672,-0.10357 0.36225,-0.15485 0.5497,-0.21438 0.45911,-0.14582 0.73369,-0.25026 1.19958,-0.10206 0.13438,0.0428 0.24011,0.14795 0.36016,0.22192 0.0423,0.0931 0.12763,0.17695 0.12692,0.27917 -5.3e-4,0.0879 -0.0839,0.15457 -0.13045,0.22906 -0.22056,0.3526 -0.22387,0.36861 -0.59306,0.64291 -0.16824,0.12498 -0.36627,0.20919 -0.52477,0.3463 -0.23126,0.20004 -0.42519,0.43955 -0.63778,0.65932 -0.23558,0.15246 -0.47116,0.30491 -0.70674,0.45736 -0.0424,0.002 -0.0402,0.0615 0.002,0.06 v 0 c 0.30755,0.13265 0.61509,0.2653 0.92264,0.39795 0.45832,0.0599 0.92038,0.26336 1.37497,0.17973 2.06095,-0.37917 3.08822,-2.93036 1.88307,-4.63364 -0.24399,-0.34484 -0.66034,-0.52701 -0.99051,-0.79051 -0.40328,-0.10104 -0.79477,-0.27969 -1.20986,-0.30312 -1.25495,-0.0708 -2.46013,0.57497 -3.19777,1.56764 -0.35681,0.48015 -0.38721,0.88869 -0.49424,1.43079 -0.20654,1.04089 1.2655,1.33297 1.47203,0.29208 z" />
    <path
       style="fill:#a51d2d;stroke:#a51d2d;stroke-width:0.264999"
       id="path1412"
       d="m 181.85487,122.10036 c -0.0101,0.17877 -0.0305,0.35725 -0.0304,0.5363 5e-5,0.72073 0.0636,1.32354 0.12135,2.05117 0.10817,1.36188 0.21536,2.72327 0.34174,4.08358 0.61356,1.23829 0.19647,0.7322 1.212,1.54982 0.004,0.0422 0.0639,0.0363 0.0597,-0.006 v 0 c 0.83816,-0.97028 0.51736,-0.40871 0.92048,-1.70796 -0.12446,-2.18497 -0.29263,-4.3708 -0.54995,-6.54416 -0.0263,-1.46717 -2.10118,-1.42998 -2.07489,0.0372 z" />
    <path
       style="fill:#a51d2d;stroke:#a51d2d;stroke-width:0.264999"
       id="path1414"
       d="m 185.23708,126.83756 c 0.0737,-0.032 0.72387,-0.31643 0.76519,-0.32521 0.42543,-0.0904 1.0503,5.3e-4 1.39187,0.28783 0.0645,0.0543 0.0764,0.15024 0.11461,0.22536 -0.0644,0.0287 -0.14013,0.0398 -0.19328,0.0862 -0.57603,0.50275 0.35311,-0.0356 -0.52472,0.59349 -0.41709,0.29889 -0.83001,0.37328 -1.31242,0.53683 -0.28321,0.096 -0.56416,0.19861 -0.84624,0.29791 -0.29877,0.24807 -0.59754,0.49613 -0.89631,0.7442 -0.0424,-0.002 -0.0453,0.0579 -0.003,0.0599 v 0 c 0.35618,0.27961 0.71236,0.55922 1.06854,0.83883 0.44335,0.0245 0.88996,0.13269 1.33004,0.0736 1.32423,-0.17778 2.6576,-1.06622 3.13845,-2.34637 0.15049,-0.40061 0.2536,-0.84168 0.20683,-1.26705 -0.049,-0.44585 -0.32281,-0.83699 -0.48421,-1.25548 -0.29166,-0.22371 -0.54683,-0.50551 -0.87498,-0.67112 -1.1889,-0.6 -2.86377,-0.35137 -3.85039,0.52536 -0.18888,0.16784 -0.31366,0.39623 -0.47049,0.59435 -0.70803,1.01851 0.73237,2.01982 1.4404,1.00131 z" />
    <path
       style="fill:#a51d2d;stroke:#a51d2d;stroke-width:0.264999"
       id="path1418"
       d="m 210.6869,119.88936 c -0.0407,0.26513 -0.0995,0.52812 -0.12206,0.7954 -0.0848,1.00354 -0.046,1.97858 0.0158,2.98594 0.11896,1.93962 0.36527,3.86988 0.592,5.79887 0.20358,0.78673 0.20438,1.54101 0.93468,2.04647 0.1404,0.0972 0.34078,0.0221 0.51117,0.0332 0.0307,0.0293 0.0721,-0.0142 0.0414,-0.0434 v 0 c 0.13256,-0.025 0.30655,0.0245 0.39768,-0.075 0.64498,-0.70386 0.47378,-1.33581 0.51388,-2.24219 -0.34485,-2.95485 -0.88094,-5.91514 -0.74054,-8.90047 0.28198,-1.51601 -1.86199,-1.9148 -2.14397,-0.39878 z" />
    <path
       style="fill:#a51d2d;stroke:#a51d2d;stroke-width:0.264999"
       id="path1420"
       d="m 212.23375,121.01355 c 0.131,-0.0304 0.26431,-0.052 0.39299,-0.0911 0.49331,-0.14975 1.07087,-0.47239 1.58446,-0.15995 0.13731,0.0835 0.26365,0.20951 0.32127,0.35955 0.0621,0.1616 0.0108,0.34606 0.0161,0.51909 -0.43277,1.45044 0.13525,-0.16381 -0.61715,1.16566 -0.14306,0.25279 -0.10984,0.61702 -0.33,0.80648 -0.30774,0.26482 -0.75424,0.30072 -1.13136,0.45108 -0.042,0.006 -0.0339,0.0652 0.008,0.0595 v 0 c 0.8631,0.0652 2.734,0.30092 3.44772,-0.1551 1.08416,-0.69269 0.76753,-2.41506 0.74885,-3.35075 -0.32372,-0.51082 -0.52528,-1.12389 -0.97114,-1.53246 -1.29482,-1.18654 -3.69106,-0.68886 -4.64537,0.6822 -0.18926,0.27192 -0.238,0.61838 -0.357,0.92757 -0.22506,1.08363 1.30742,1.40191 1.53248,0.31828 z" />
    <path
       style="fill:#a51d2d;stroke:#a51d2d;stroke-width:0.264999"
       id="path1422"
       d="m 219.25867,128.56574 c -0.104,-1.01748 -0.2467,-2.03054 -0.38977,-3.04309 -0.0429,-0.30356 -0.10397,-0.60495 -0.13113,-0.91031 -0.0274,-0.3079 -0.007,-0.69543 0.005,-1.01729 0.143,0.86522 0.0849,-0.0366 -1.43747,0.99515 -0.0657,0.0445 0.0747,0.14045 0.12052,0.20518 0.60938,0.86048 1.31085,1.62306 2.03405,2.38752 0.80392,0.70326 2.59253,2.52573 3.85171,1.7911 1.14797,-0.66975 0.96246,-1.53362 1.04096,-2.59612 -0.25194,-1.52781 -0.18573,-1.36438 -0.5834,-2.84466 -0.21301,-0.7929 -0.40992,-1.87126 -1.20167,-2.33122 -0.0954,-0.0554 -0.21647,-0.0433 -0.3247,-0.065 -0.01,-0.0412 -0.0683,-0.027 -0.0583,0.0142 v 0 c -0.0834,0.0799 -0.19781,0.1369 -0.25036,0.23983 -0.39458,0.77286 0.01,1.70604 0.14733,2.47682 0.22215,1.24417 0.17793,1.17581 0.21699,2.38998 -0.0275,1.06073 -0.22828,0.47512 0.40425,0.64044 0.1318,0.0344 0.47827,0.25793 0.35097,0.20942 -0.77125,-0.29392 -1.38462,-0.924 -1.99788,-1.44305 -0.2554,-0.26677 -0.52044,-0.52464 -0.76621,-0.80031 -1.14583,-1.28523 -0.20284,-0.30703 -1.17103,-1.47159 -0.16889,-0.20315 -0.27064,-0.57098 -0.53444,-0.58526 -1.98866,-0.10765 -1.81786,0.002 -1.88632,1.01503 0.0841,0.35212 0.20803,0.69445 0.28161,1.04891 0.0613,0.29551 0.0918,0.59661 0.1349,0.89531 0.14211,0.98401 0.26569,1.97034 0.3625,2.95991 0.1138,1.2602 1.89599,1.09926 1.78219,-0.16094 z" />
    <path
       style="fill:#a51d2d;stroke:#a51d2d;stroke-width:0.264999"
       id="path1424"
       d="m 226.16255,127.47671 c 0.0726,1.02983 0.0797,1.31498 0.23304,2.45029 0.136,1.00665 0.16563,1.77301 0.76695,2.62364 0.19431,0.27488 0.50336,0.4471 0.75505,0.67065 0.006,0.042 0.0653,0.0337 0.0594,-0.008 v 0 c 0.17998,-0.28681 0.42898,-0.54052 0.53993,-0.86043 0.33171,-0.95643 0.14054,-1.69403 0.0307,-2.67218 -0.24574,-2.18757 -0.0953,-0.62137 -0.25301,-2.36613 -0.11492,-1.50757 -2.24695,-1.34506 -2.13203,0.16251 z" />
    <path
       style="fill:#a51d2d;stroke:#a51d2d;stroke-width:0.264999"
       id="path1428"
       d="m 227.2837,126.85577 c 0.50034,-0.0512 1.31849,-0.36608 1.60333,0.26527 0.0277,0.0614 0.0145,0.13392 0.0217,0.20088 -0.1316,0.24206 -0.0579,0.14586 -0.29836,0.37382 -0.11748,0.11137 -0.22629,0.23359 -0.35643,0.32986 -0.46413,0.34334 -0.56097,0.24721 -0.98945,0.67379 -0.1784,0.17761 -0.31457,0.39311 -0.47185,0.58966 -0.13265,0.0982 -0.2653,0.19634 -0.39795,0.29451 -0.0423,0.003 -0.0374,0.0632 0.005,0.0598 v 0 c 0.16387,0.074 0.32775,0.14805 0.49162,0.22207 0.30178,0.11807 0.5825,0.32613 0.90533,0.3542 1.53302,0.13329 3.01318,-1.45198 3.10208,-2.91313 0.022,-0.36161 -0.13611,-0.71167 -0.20416,-1.0675 -0.19721,-0.27019 -0.34671,-0.58275 -0.59164,-0.81057 -0.88663,-0.82469 -2.30227,-0.88009 -3.29692,-0.23134 -0.17776,0.11594 -0.3106,0.28929 -0.4659,0.43394 -0.86603,0.66729 0.0777,1.89204 0.94369,1.22474 z" />
    <path
       style="fill:#a51d2d;stroke:#a51d2d;stroke-width:0.264999"
       id="path1430"
       d="m 233.23717,129.68486 c 1.25557,-0.22248 2.3998,-0.73372 2.27124,-2.27724 -0.0268,-0.32138 -0.18734,-0.61718 -0.28101,-0.92577 -0.37621,-0.53626 -0.64392,-1.07368 -1.28579,-1.35957 -0.35627,-0.15869 -0.7554,-0.29622 -1.14279,-0.25106 -0.81026,0.0945 -1.522,0.78245 -1.75593,1.5363 -0.12919,0.41631 -0.0336,0.87115 -0.0504,1.30672 1.64917,1.11485 0.7822,0.88819 2.54139,0.87664 0.0401,0.0138 0.0597,-0.0429 0.0196,-0.0567 v 0 c -0.68488,-0.72128 -0.59132,-0.34912 -0.63451,-0.96059 -0.0563,-0.10567 -0.13802,-0.20133 -0.16891,-0.31701 -0.0352,-0.13178 -0.006,-0.81963 0.2542,-0.82629 0.27091,-0.007 0.59947,0.45782 0.73191,0.61196 0.0381,0.0649 0.38556,0.61442 0.29403,0.73574 -0.16174,0.21438 -0.86697,0.52201 -1.11899,0.65 -0.88875,0.23047 -0.56281,1.48735 0.32593,1.25688 z" />
    <path
       style="fill:#a51d2d;stroke:#a51d2d;stroke-width:0.264999"
       id="path1432"
       d="m 236.53479,127.15208 c -0.18191,1.96898 -0.0545,3.95065 0.14063,5.91334 0.0445,0.44784 0.0422,0.90542 0.15434,1.34128 0.0853,0.33169 0.28703,0.62193 0.43054,0.93289 0.26857,0.1484 0.53715,0.2968 0.80572,0.4452 0.004,0.0423 0.0633,0.0373 0.0598,-0.005 v 0 c 0.23798,-0.21585 0.47597,-0.43171 0.71395,-0.64756 0.0599,-0.32563 0.175,-0.64583 0.17979,-0.97689 0.006,-0.43086 -0.10346,-0.85562 -0.14707,-1.28431 -0.18557,-1.82388 -0.30614,-3.6581 -0.19542,-5.49133 0.16093,-1.51481 -1.98134,-1.74241 -2.14227,-0.2276 z" />
    <path
       style="fill:#a51d2d;stroke:#a51d2d;stroke-width:0.264999"
       id="path1434"
       d="m 237.73846,127.01288 c 0.0488,-0.0956 0.0764,-0.2056 0.14652,-0.28689 0.32589,-0.3776 0.80915,-0.16315 1.16015,0.0225 0.36292,0.31944 0.61969,0.69982 0.73251,1.17666 0.0389,0.16456 0.0809,0.33795 0.0523,0.50462 -0.0408,0.23758 -0.47636,0.63389 -0.59135,0.75534 -1.07294,0.90223 -0.11416,-0.007 -1.04876,1.25839 -0.1694,0.22932 -0.37941,0.42566 -0.56911,0.63849 -0.041,0.011 -0.0255,0.0689 0.0155,0.058 v 0 c 0.76259,0.16957 1.52915,0.43708 2.32709,0.13318 0.41092,-0.1565 0.69073,-0.54432 1.03609,-0.81648 0.24757,-0.38603 0.57647,-0.73068 0.74272,-1.15808 0.57925,-1.48912 -0.12515,-3.13641 -1.36851,-4.03718 -0.2735,-0.19814 -0.60319,-0.30398 -0.90478,-0.45598 -0.68526,-0.0814 -0.9777,-0.20104 -1.64599,0.0473 -1.00129,0.37207 -1.34811,1.15148 -1.27294,2.15371 -0.005,0.84041 1.18393,0.84691 1.18852,0.007 z" />
    <path
       style="fill:#aba8af;fill-opacity:1;fill-rule:nonzero;stroke:none;stroke-width:0.264583"
       id="path5881"
       d="m 107.70643,95.063674 c 0.0322,0.399894 0.0475,0.801505 0.0966,1.199684 0.22122,1.795841 0.57539,3.983462 1.4273,5.590502 0.29389,0.55438 0.73531,1.01694 1.10297,1.52541 0.0107,0.041 0.0687,0.0259 0.0581,-0.0151 v 0 c 0.0766,-0.61036 0.22126,-1.21598 0.22991,-1.83107 0.018,-1.28364 -0.30548,-2.68697 -0.51812,-3.941373 -0.0884,-0.52138 -0.16899,-1.044048 -0.2519,-1.566328 -0.0572,-0.360587 -0.11235,-0.721508 -0.16852,-1.082259 -0.0852,-1.39745 -2.06153,-1.276908 -1.97629,0.120541 z" />
    <path
       style="fill:#aba8af;fill-opacity:1;fill-rule:nonzero;stroke:none;stroke-width:0.264583"
       id="path5885"
       d="m 130.59429,95.009871 c 0.0735,0.585097 0.33877,2.972498 0.55089,3.466827 1.34445,1.880522 0.89803,0.933974 1.49717,2.759652 0.0103,0.0412 0.0685,0.0266 0.0582,-0.0145 v 0 c -0.53236,-3.071459 -0.0249,0.85609 0.20737,-3.016838 0.0132,-0.220401 -0.39436,-3.112976 -0.43623,-3.417689 -0.15739,-1.327534 -2.03481,-1.104948 -1.87742,0.222586 z" />
    <path
       style="fill:#aba8af;fill-opacity:1;stroke:none;stroke-width:0.264999;stroke-opacity:1"
       id="path8039"
       d="m 150.9397,94.370955 c -0.1382,0.310055 -0.34006,0.598988 -0.41459,0.930164 -0.20927,0.929905 -0.14343,1.970918 0.24219,2.850436 0.20108,0.458604 0.56184,0.829069 0.84019,1.245327 0.20224,0.302427 0.40103,0.607138 0.60155,0.910698 0.0145,0.0399 0.0709,0.0193 0.0564,-0.0205 v 0 c -0.0324,-0.336279 -0.12988,-0.672572 -0.0973,-1.008841 0.041,-0.423471 0.23008,-0.819994 0.31475,-1.236933 0.14241,-0.701328 0.23954,-1.452073 0.22405,-2.171806 1.05962,-1.249598 -0.70759,-2.748121 -1.7672,-1.49852 z" />
    <path
       style="fill:#aba8af;fill-opacity:1;stroke:none;stroke-width:0.264999;stroke-opacity:1"
       id="path8092"
       d="m 168.5226,94.551933 c -0.35639,1.233522 -0.39222,1.112184 -0.46173,2.50099 -0.0268,0.534786 -0.0585,1.073382 -0.007,1.606351 0.0502,0.518695 0.0577,1.076523 0.31055,1.532196 0.24823,0.44736 0.74748,0.69877 1.12123,1.04815 0.008,0.0417 0.0669,0.0304 0.0589,-0.0112 v 0 c 0.23438,-0.38029 0.56057,-0.71751 0.70314,-1.14086 0.14874,-0.441691 0.11756,-0.92522 0.14923,-1.390209 0.0322,-0.472036 0.0281,-0.945846 0.0421,-1.418768 0.0314,-0.369059 0.0673,-0.737769 0.0943,-1.107175 0.01,-0.134136 0.0108,-0.268774 0.0163,-0.403162 0.86003,-1.433335 -1.16701,-2.649598 -2.02704,-1.216263 z" />
    <path
       style="fill:#aba8af;fill-opacity:1;stroke:none;stroke-width:0.264999;stroke-opacity:1"
       id="path8094"
       d="m 188.60627,93.607783 c -0.1514,1.038587 -0.21725,1.271971 -0.22379,2.405319 -0.003,0.466453 -0.0444,0.943086 0.058,1.39818 0.0952,0.423326 0.35625,0.791398 0.52437,1.1914 0.12909,0.307137 0.24474,0.61975 0.36711,0.929627 -0.005,0.04218 0.0551,0.04864 0.0597,0.0065 v 0 c 0.29103,-0.458973 1.06374,-1.626664 1.19993,-2.089052 0.12478,-0.423675 0.0783,-0.879946 0.10655,-1.320713 0.16433,-2.567035 -0.0458,-0.07738 0.13011,-2.048631 0.33418,-1.571123 -1.88772,-2.043716 -2.2219,-0.472594 z" />
    <path
       style="fill:#aba8af;fill-opacity:1;stroke:none;stroke-width:0.264999;stroke-opacity:1"
       id="path8098"
       d="m 204.87412,94.464909 c -0.10024,1.28997 -0.1778,3.228149 0.4631,4.374456 0.20348,0.363953 0.55667,0.621083 0.82671,0.938806 0.18074,0.212653 0.3502,0.434639 0.5253,0.651959 0.012,0.0407 0.0696,0.0237 0.0575,-0.017 v 0 c 0.15552,-1.158841 0.0107,-0.530646 0.52106,-1.862471 0.13936,-0.706102 -0.028,-1.570818 -0.0714,-2.27447 -0.0178,-0.288631 -0.0202,-0.578127 -0.02,-0.867306 1.4e-4,-0.198747 0.014,-0.397251 0.021,-0.595879 0.24613,-1.642862 -2.07723,-1.990937 -2.32336,-0.348075 z" />
    <path
       style="fill:#c64600;fill-opacity:1;stroke:none;stroke-width:0.264999;stroke-opacity:1"
       id="path8155"
       d="m 139.98033,98.796662 c 0.0859,0.11866 0.1521,0.254415 0.25765,0.355981 0.15959,0.153572 0.33207,0.300998 0.52947,0.401439 0.81781,0.416123 1.84956,0.361704 2.60642,-0.17584 0.29617,-0.210349 0.48829,-0.537977 0.73243,-0.806966 0.0902,-0.446981 0.29277,-0.885483 0.27069,-1.340948 -0.0206,-0.425188 -0.18966,-0.841467 -0.39461,-1.214569 -0.5681,-1.034206 -1.74019,-1.801144 -2.9366,-1.788597 -0.37326,0.0039 -0.7301,0.155877 -1.09515,0.233815 -0.30883,0.246023 -0.6806,0.429125 -0.92648,0.738068 -0.7623,0.957837 -0.70164,2.32028 -0.0254,3.297658 0.60144,0.86926 1.06165,0.924418 1.97159,1.327301 0.3766,0.0421 0.75096,0.134491 1.12982,0.126299 1.13998,-0.02466 2.25618,-0.57685 2.54575,-1.786117 0.23546,-0.983335 -0.18032,-1.428364 -0.60176,-2.214594 -0.27811,-0.243287 -0.51943,-0.536578 -0.83436,-0.729862 -1.2458,-0.764582 -2.93848,-0.531442 -3.66547,0.831218 -0.15873,0.297511 -0.16871,0.652963 -0.25306,0.979445 0.10083,0.361948 0.10614,0.765493 0.30248,1.085842 0.59183,0.96565 1.84852,1.200941 2.82602,0.750771 0.24256,-0.111707 0.4825,-0.266969 0.63881,-0.483491 0.17817,-0.246793 0.21735,-0.568648 0.32603,-0.852975 -0.11882,-0.321336 -0.16208,-0.681897 -0.35647,-0.964014 -0.11905,-0.172776 -0.34463,-0.243774 -0.53562,-0.330658 -0.0906,-0.04122 -0.20619,-0.09236 -0.29486,-0.04715 -0.0545,0.0278 0.11074,0.07376 0.12682,0.132823 0.0796,0.292457 0.32218,0.644567 0.15333,0.896276 -0.11968,0.178398 -0.40283,-0.149407 -0.60424,-0.22411 0.0376,0.01966 0.0654,-0.03352 0.0278,-0.05318 v 0 c -0.2369,-0.09325 -0.54401,-0.472181 -0.71069,-0.279741 -0.20929,0.241639 0.0299,0.646562 0.13001,0.950172 0.0369,0.111873 0.18217,0.150614 0.26151,0.23768 0.0159,0.01749 0.0393,0.07845 0.0177,0.06875 -0.0688,-0.03093 -0.15092,-0.06988 -0.17742,-0.140518 -0.0772,-0.205721 -0.0791,-0.432276 -0.11857,-0.648414 0.08,-0.136104 0.13697,-0.288756 0.2401,-0.40831 0.0281,-0.03261 0.091,-0.04045 0.12789,-0.01828 0.0258,0.01548 -0.0131,0.05994 -0.009,0.0897 0.008,0.05376 0.0397,0.102767 0.0436,0.156912 0.0135,0.183845 -0.0425,0.237498 -0.12241,0.404873 -0.0657,-0.01122 -0.18763,-0.01624 -0.22387,-0.09389 -0.0566,-0.12123 0.0991,-0.21117 0.18108,-0.226722 0.23074,-0.04379 0.35559,0.0475 0.55877,0.133967 0.16384,0.150717 0.16453,0.223919 0.37064,0.216207 0.084,-0.0031 0.18185,-0.0894 0.24907,-0.03897 0.24829,0.186262 -1.05698,0.422461 -0.92217,0.295421 -0.70125,-0.149379 -1.03086,-0.242075 -1.13836,-0.989354 0.0513,-0.05685 0.0844,-0.138369 0.15381,-0.170548 0.41085,-0.190325 0.90088,0.08366 1.19459,0.356537 0.95902,0.890963 -0.31666,-0.111681 0.4531,0.475559 -0.0642,0.171405 -0.13115,0.419645 -0.28128,0.547278 -0.1803,0.153278 -0.5579,0.174924 -0.78107,0.124761 -0.0641,-0.01439 -0.12032,-0.05264 -0.18049,-0.07896 -0.63075,-0.875173 -1.86843,0.01685 -1.23768,0.892024 z" />
    <path
       style="fill:#c64600;fill-opacity:1;stroke:none;stroke-width:0.264999;stroke-opacity:1"
       id="path8157"
       d="m 180.36494,98.451854 c 0.6403,0.07554 1.29684,0.003 1.81257,-0.43347 0.20798,-0.175998 0.43681,-0.369691 0.52296,-0.628165 0.13464,-0.403977 0.17038,-0.85107 0.11058,-1.272675 -0.0501,-0.353063 -0.28668,-0.653034 -0.43003,-0.979551 -0.22577,-0.262914 -0.40813,-0.57049 -0.67731,-0.788739 -1.07075,-0.868132 -2.26888,-0.769189 -3.19123,0.294137 -0.59935,0.690952 -0.55337,1.372574 -0.64674,2.203112 0.078,0.357182 0.0787,0.740574 0.23394,1.071546 0.67449,1.437532 2.46453,2.157061 3.85502,1.231633 0.31274,-0.208137 0.49929,-0.561443 0.74893,-0.842166 0.0905,-0.37683 0.25781,-0.743194 0.27142,-1.130493 0.0491,-1.396648 -1.14964,-2.86408 -2.61774,-2.791275 -0.39708,0.01968 -0.75465,0.250515 -1.13197,0.375772 -0.25456,0.297545 -0.59294,0.540242 -0.76368,0.892635 -0.36969,0.762982 -0.2671,1.571464 0.20866,2.261116 0.20807,0.301633 0.4851,0.628888 0.84356,0.704908 0.85295,0.180883 1.12998,-0.429056 1.51416,-0.927203 0.0411,-0.01056 0.0262,-0.06867 -0.0149,-0.05812 v 0 c -0.53731,-0.85141 -0.11503,0.01267 -0.22187,-0.907277 -0.005,-0.03947 -0.0659,0.04476 -0.0959,0.07086 -0.0457,0.03986 -0.0739,0.105506 -0.13075,0.126617 -0.0744,0.02763 -0.24186,-0.07218 -0.29357,-0.09758 -0.034,-0.04853 -0.0866,-0.08838 -0.10193,-0.145603 -0.0573,-0.213442 0.0651,-0.205359 0.21769,-0.119277 0.20416,0.115184 0.16627,0.19231 0.31829,0.341683 0.0357,0.03503 0.0839,0.05441 0.12578,0.08162 0.006,0.01127 0.13582,0.267393 0.13251,0.271951 -0.0429,0.05912 -0.13984,0.04519 -0.21231,0.05448 -0.0721,0.0092 -0.14547,0.0035 -0.21812,7.94e-4 -0.29515,-0.01132 -0.17517,0.01527 -0.33731,-0.319032 -0.009,-0.141113 -0.0253,-0.281943 -0.0277,-0.423336 -0.002,-0.10314 0.0567,-0.214696 0.0151,-0.309092 -0.0341,-0.07732 -0.15654,-0.07498 -0.21233,-0.138419 -0.35218,-0.400474 0.53698,-0.10318 0.52695,0.02111 0.38861,0.420503 0.0352,0.193085 0.47636,0.102336 0.0305,-0.0063 0.0631,0.04175 0.0588,0.07257 -0.008,0.05338 -0.0517,0.09586 -0.0882,0.135543 -0.18577,0.202071 -0.19179,0.155192 -0.47721,0.225357 -1.25285,-0.07245 -1.3553,1.699342 -0.10246,1.77179 z" />
    <path
       style="fill:#c64600;fill-opacity:1;stroke:none;stroke-width:0.264999;stroke-opacity:1"
       id="path8159"
       d="m 133.80924,79.982959 c -0.46174,1.034301 -0.77754,2.123942 -1.20768,3.171666 -0.31604,0.769794 -0.64225,1.610741 -1.20659,2.250292 -0.12592,0.142708 -0.31633,0.211719 -0.4745,0.317579 -0.014,-0.06388 -0.028,-0.127765 -0.0419,-0.191646 0.0222,-0.106926 0.081,-0.212532 0.0666,-0.320781 -0.0385,-0.288551 -0.18429,-0.555987 -0.22188,-0.844655 -0.094,-0.721889 -0.0656,-1.374492 0.19465,-2.058549 0.078,-0.205009 0.23483,-0.370556 0.35224,-0.555834 0.0799,0.0061 0.23193,-0.06164 0.23983,0.01815 0.0145,0.146881 -0.22999,0.251333 -0.19889,0.395618 0.0419,0.194403 0.25076,0.30889 0.3828,0.4576 0.31442,0.354126 0.62306,0.714192 0.95634,1.050636 1.82076,1.838082 1.09083,1.24555 3.47578,2.333326 0.47758,0.261734 0.95517,0.523468 1.43275,0.785201 0.0319,0.02802 0.0715,-0.01704 0.0396,-0.04505 v 0 c -0.31122,-0.431872 -0.62243,-0.863743 -0.93364,-1.295615 -1.06502,-2.245423 -0.56092,-1.6007 -2.23205,-3.452913 -1.16109,-1.286901 -2.43932,-2.906606 -4.43092,-2.079437 -0.38777,0.161052 -0.57559,0.611479 -0.86338,0.917221 -0.13267,0.39716 -0.32252,0.77961 -0.39799,1.191487 -0.15516,0.846865 -0.0905,2.166951 0.12042,2.983799 0.27469,1.063641 0.75859,2.215449 1.92487,2.635483 0.46444,0.167269 0.98377,-0.08335 1.47566,-0.125029 0.35901,-0.279612 0.772,-0.501147 1.07702,-0.838835 0.63124,-0.698852 1.10973,-1.862442 1.45231,-2.708399 0.47907,-1.182976 0.93642,-2.40768 1.09131,-3.681709 0.21891,-1.465649 -1.85383,-1.775238 -2.07274,-0.309589 z" />
    <path
       style="fill:#c64600;fill-opacity:1;stroke:none;stroke-width:0.264999;stroke-opacity:1"
       id="path8161"
       d="m 187.24766,87.253537 c -0.39218,-0.626134 -0.70434,-1.291868 -0.94635,-1.990442 -0.12797,-0.369404 -0.26861,-0.738177 -0.33928,-1.122678 -0.1933,-1.051793 -0.0802,-1.510707 0.0132,-2.563706 0.096,-0.347734 0.45579,-2.165538 1.25891,-1.871763 0.077,0.02816 0.37157,1.137668 0.38306,1.178197 0.022,0.395362 0.094,1.018114 -0.23576,1.338858 -0.0303,0.02943 -0.0177,-0.119687 0.0242,-0.124309 0.43935,-0.04839 0.89754,-0.133763 1.32581,-0.02439 0.17985,0.04593 0.2209,0.298381 0.33135,0.447572 0.11465,-0.0033 0.23418,0.02352 0.34394,-0.0097 0.7253,-0.219771 0.52906,-0.396245 1.30537,-0.430837 0.0905,-0.004 0.57271,0.0365 0.59855,0.274146 0.006,0.05602 -0.0807,0.07868 -0.12106,0.118012 -0.0828,0.01024 -0.18221,-0.01998 -0.24851,0.03073 -0.12496,0.09557 -0.18951,0.251161 -0.28427,0.376743 -0.1751,0.164288 -0.33057,0.352401 -0.52531,0.492868 -0.25318,0.182626 -0.52922,0.333605 -0.80991,0.47025 -0.31889,0.155244 -0.73007,0.156355 -0.98459,0.403357 -0.3563,0.345771 -0.50295,0.856189 -0.75443,1.284285 -0.0417,0.0076 -0.0309,0.06666 0.0108,0.05902 v 0 c 0.54189,0.282776 1.01726,0.789715 1.62569,0.848325 0.50019,0.04819 0.95688,-0.321572 1.40095,-0.556757 0.46091,-0.2441 0.90786,-0.527384 1.29854,-0.872914 0.64313,-0.568811 1.34065,-1.521195 1.44047,-2.415868 0.0561,-0.503049 -0.12782,-1.004236 -0.19173,-1.506355 -0.28403,-0.308276 -0.50451,-0.690517 -0.85207,-0.924835 -1.03009,-0.694454 -2.39814,-0.449082 -3.42488,0.07565 -0.36809,0.188118 -0.73753,0.397025 -1.03311,0.686019 -0.33759,0.330068 -0.55808,0.761704 -0.83712,1.142553 0.0418,0.457052 -0.20443,1.052071 0.12546,1.371156 1.27015,1.228542 2.30978,-0.09331 2.57727,-1.12122 0.0927,-0.35606 0.14697,-0.727427 0.13706,-1.095211 -0.0116,-0.428641 -0.1339,-0.847077 -0.20085,-1.270614 -0.5232,-0.982337 -0.71009,-1.772954 -1.92633,-2.168107 -1.15705,-0.375917 -2.07637,0.01376 -2.84173,0.874284 -0.6812,0.765908 -0.82239,1.826893 -1.05996,2.763147 -0.0342,0.552781 -0.11731,1.104707 -0.10249,1.658348 0.0152,0.5666 0.0812,1.133678 0.19208,1.689528 0.0889,0.445664 0.25099,0.874226 0.40472,1.301885 0.30868,0.858769 0.69987,1.687227 1.2353,2.428346 0.87929,1.19285 2.56623,-0.05066 1.68694,-1.24351 z" />
    <path
       style="fill:#c64600;fill-opacity:1;stroke:none;stroke-width:0.264999;stroke-opacity:1"
       id="path8169"
       d="m 142.94156,91.81013 c 0.0549,-0.138481 0.11622,-0.274601 0.16478,-0.415438 0.20302,-0.588786 0.34062,-1.192866 0.57446,-1.772195 0.23797,-0.589556 0.50564,-1.166691 0.75562,-1.751259 0.69264,-1.691889 1.64873,-3.250779 2.75722,-4.699892 0.22575,-0.295108 0.46532,-0.579374 0.69797,-0.869061 1.15913,-1.371134 2.57837,-2.490721 4.19839,-3.271435 0.33456,-0.161226 0.68532,-0.286401 1.02798,-0.429601 0.34361,-0.09628 0.68288,-0.20959 1.03081,-0.288848 0.69192,-0.157626 1.48377,-0.240091 2.18532,-0.295794 0.69661,-0.05531 1.6168,-0.09872 2.32074,-0.07377 0.35179,0.01246 0.70186,0.05499 1.05279,0.08249 1.49584,0.195628 2.95747,0.644057 4.31288,1.307108 0.26661,0.130424 0.52485,0.277294 0.78728,0.415941 1.24816,0.718794 2.49553,1.447483 3.66935,2.284693 0.66227,0.472353 0.92543,0.699291 1.5516,1.204153 1.38454,1.08426 2.52026,2.421496 3.55656,3.831415 0.73908,1.059683 1.35486,2.195457 1.86174,3.38209 0.0356,0.09211 0.0718,0.184017 0.10691,0.276323 0.0217,0.05705 0.043,0.114263 0.0636,0.171717 0.008,0.0223 0.0269,0.09078 0.0222,0.06754 -0.006,-0.02842 -0.0508,-0.06927 -0.0254,-0.0832 1.84694,-1.011312 2.29128,-0.359958 1.87295,-0.958718 -0.51797,-0.745699 -1.086,0.305422 -1.96344,0.884081 -0.0172,0.01138 0.028,0.236778 0.0342,0.272148 0.19261,0.495088 0.87054,-0.06706 1.18576,-0.173125 0.0359,-0.02259 0.004,-0.07338 -0.032,-0.05079 v 0 c 1.16614,-0.347162 0.63248,-0.459629 1.0423,-0.174252 0.0107,0.0075 -0.0242,-0.08293 -0.004,-0.03899 -0.19081,-0.806598 -0.56315,0.255752 -1.86948,0.75574 -0.0626,0.02397 -0.09,-0.09947 -0.13595,-0.148296 -0.008,-0.0085 0.0148,0.01828 0.0221,0.0274 0.48484,0.577681 0.12576,0.173768 1.97793,-0.826772 0.0321,-0.01733 -0.16978,-0.524603 -0.17243,-0.531302 -0.0433,-0.109392 -0.0894,-0.21766 -0.13409,-0.326488 -0.57924,-1.336794 -1.26822,-2.62386 -2.11091,-3.815281 -1.15592,-1.549704 -2.41563,-3.021269 -3.94603,-4.218265 -0.65118,-0.525164 -1.00155,-0.822889 -1.69089,-1.314654 -1.23967,-0.884359 -2.56201,-1.646764 -3.88007,-2.405798 -0.30392,-0.158766 -0.60298,-0.327216 -0.91176,-0.476298 -1.58272,-0.76413 -3.2873,-1.269402 -5.03096,-1.485056 -0.40807,-0.02897 -0.81532,-0.07371 -1.2242,-0.08692 -0.75863,-0.02453 -1.78347,0.02005 -2.53457,0.08264 -0.84944,0.07077 -1.72582,0.171075 -2.55674,0.372883 -0.4314,0.104775 -0.85135,0.25209 -1.27702,0.378135 -0.40605,0.176249 -0.8212,0.332872 -1.21816,0.528743 -1.86419,0.919853 -3.49978,2.222341 -4.83777,3.809431 -0.62995,0.789345 -0.92485,1.131226 -1.50362,1.971135 -0.88754,1.287992 -1.58882,2.683227 -2.19573,4.122746 -0.47049,1.115213 -0.34424,0.771567 -0.74382,1.890683 -0.29244,0.819036 -0.58181,1.658138 -0.58071,2.538828 -0.2287,1.234974 1.51782,1.558409 1.74652,0.323432 z" />
    <path
       style="fill:#c64600;fill-opacity:1;stroke:none;stroke-width:0.264999;stroke-opacity:1"
       id="path8177"
       d="m 138.65116,84.75465 c 0.0505,0.204727 0.093,0.411612 0.1516,0.614175 0.13945,0.482004 0.63521,1.948058 0.74754,2.27866 0.43074,1.26768 0.88376,2.52657 1.33829,3.785804 0.0712,0.182144 0.43127,1.341183 0.68948,1.392232 0.58231,0.115123 1.19878,0.04401 1.77887,-0.08184 0.19381,-0.04205 0.2927,-0.267705 0.44072,-0.399695 0.20481,-0.182634 0.41184,-0.362768 0.61776,-0.54415 0.90761,-0.813499 1.81275,-1.629527 2.72142,-2.441821 0.21705,-0.19403 0.55731,-0.308425 0.64868,-0.584848 0.5734,-1.734611 -0.61173,-0.757653 0.23222,-1.358157 0.0393,-0.01585 0.0169,-0.07151 -0.0224,-0.05566 v 0 c -0.83778,0.142576 -0.28341,0.120433 -1.61839,-0.38884 -0.34016,0.02003 -0.57442,0.368732 -0.84188,0.579874 -0.31279,0.246933 -0.59884,0.525992 -0.8957,0.791861 -0.3176,0.284438 -0.63177,0.572686 -0.94766,0.859028 -0.29473,0.263507 -0.58947,0.527011 -0.88421,0.790514 -0.21654,0.194321 -0.4351,0.386408 -0.64961,0.58296 -0.1118,0.102436 -0.4656,0.247634 -0.32922,0.313912 0.43005,0.208994 0.96796,0.05433 1.4182,0.215302 0.13385,0.04785 0.1024,0.281249 0.21464,0.368469 0.24099,0.187277 -0.92206,-1.565788 -0.31397,-0.860094 -0.45742,-1.250077 -0.90446,-2.503874 -1.36395,-3.753205 -0.32022,-0.870656 -0.51288,-1.428252 -0.86607,-2.23571 -0.0769,-0.175911 -0.16541,-0.346554 -0.24812,-0.51983 -0.46037,-1.427099 -2.47859,-0.776044 -2.01822,0.651055 z" />
    <path
       style="fill:#c64600;fill-opacity:1;stroke:none;stroke-width:0.264999;stroke-opacity:1"
       id="path8181"
       d="m 136.68462,64.121061 c 0.47657,1.536972 1.21024,2.980214 2.12426,4.302741 0.14774,0.213763 0.31359,0.414423 0.47038,0.621636 0.40305,0.439584 0.80436,1.034534 1.63276,0.693129 0.45441,-0.187277 0.7043,-0.717698 0.89819,-1.169328 0.13388,-0.31183 0.0353,-0.677942 0.0406,-1.017255 0.008,-0.500795 -0.02,-1.482402 -0.0319,-1.989825 0.0357,-0.588383 -0.0827,-1.204066 0.0275,-1.790554 0.006,-0.03313 0.0759,-0.110935 0.0534,-0.08587 -1.04603,1.163635 -0.39642,1.030729 -1.71108,0.752623 0.70783,1.269026 1.5205,2.477741 2.38673,3.643524 0.79764,0.953852 1.25026,1.68616 2.70265,0.672658 0.28025,-0.195559 0.3434,-1.244531 0.37665,-1.530826 0.0908,-1.172824 0.28917,-2.338171 0.36362,-3.512344 0.023,-0.362357 0.10336,-1.174967 -0.18978,-1.531387 -0.18507,-0.225018 -0.48164,-0.327951 -0.72246,-0.491924 0.002,-0.04238 -0.058,-0.04513 -0.0599,-0.0028 v 0 c -0.25326,0.106813 -0.54553,0.14827 -0.75979,0.32044 -0.36586,0.293979 -0.47405,1.080056 -0.53571,1.451581 -0.19334,1.165053 -0.24712,2.351643 -0.40438,3.521334 -0.0156,0.169976 -0.10191,0.348403 -0.0467,0.509926 0.0256,0.07489 0.085,-0.153776 0.16147,-0.174064 0.42455,-0.112585 0.8611,-0.20557 1.30025,-0.213569 0.092,-0.0016 0.12134,0.227111 0.20373,0.18618 0.23721,-0.117859 -1.18766,-0.532191 -0.50532,-0.613254 -0.48733,-0.648105 -0.95041,-1.30759 -1.39424,-1.986524 -0.12321,-0.188476 -0.67749,-1.064024 -0.82914,-1.283454 -0.1198,-0.173334 -0.24992,-0.339307 -0.37488,-0.50896 -0.39188,-0.16618 -0.75976,-0.589196 -1.17566,-0.498541 -1.13612,0.247639 -0.98815,1.008279 -0.98871,1.725223 -7.9e-4,1.014825 -0.005,0.321146 0.009,1.491943 0.0173,0.686438 0.0344,1.183733 0.0339,1.869427 -1.4e-4,0.188465 -0.19754,0.537289 -0.0112,0.565282 0.28152,0.04229 0.43622,-0.441071 0.72034,-0.458763 0.6301,-0.03924 1.22446,0.739394 0.70906,0.127986 -0.47781,-0.732514 -0.98179,-1.455883 -1.3938,-2.228675 -0.35902,-0.67342 -0.62583,-1.3892 -0.90813,-2.096235 -0.51511,-1.535645 -2.68684,-0.80717 -2.17173,0.728472 z" />
    <path
       style="fill:#c64600;fill-opacity:1;stroke:none;stroke-width:0.264999;stroke-opacity:1"
       id="path8183"
       d="m 148.29263,57.376141 c -0.16947,0.224729 -0.36731,0.430647 -0.50842,0.674188 -0.20857,0.359992 -0.38392,0.739989 -0.53545,1.127466 -0.55693,1.424122 -0.65532,2.04302 -0.63803,3.704688 0.008,0.771353 0.0624,1.547868 0.21354,2.304306 0.15525,0.777021 0.46717,1.514335 0.70076,2.271501 0.92402,1.482537 0.84589,1.866591 2.36283,2.613266 0.27962,0.137636 0.60963,0.129953 0.91444,0.194926 0.0348,0.02434 0.0692,-0.02482 0.0344,-0.04915 v 0 c -0.0884,-0.21032 -0.20635,-0.410549 -0.26528,-0.630963 -0.87625,-3.277793 0.58864,1.030317 -0.80856,-2.833386 -0.19457,-0.601308 -0.45189,-1.185817 -0.5837,-1.803921 -0.18763,-0.879824 -0.30763,-2.675294 -0.17309,-3.614724 0.13514,-0.943499 0.67634,-1.760098 0.95312,-2.656337 0.92055,-1.178444 -0.74602,-2.4803 -1.66657,-1.301859 z" />
    <path
       style="fill:#c64600;fill-opacity:1;fill-rule:nonzero;stroke:none;stroke-width:0.264999;stroke-opacity:1"
       id="path8189"
       d="m 157.17556,61.686283 c -0.26359,1.074624 -0.59618,2.133865 -0.97692,3.172592 -0.26212,0.715087 -0.63133,1.729677 -1.09075,2.381105 -0.12319,0.174678 -0.3125,0.291721 -0.46874,0.437581 -0.15512,-0.252598 0.24605,-0.425143 0.19328,-0.642467 -0.0893,-0.367863 -0.37859,-0.65842 -0.52038,-1.009419 -0.30501,-0.755103 -0.55625,-1.674826 -0.58609,-2.499617 -0.01,-0.2638 0.0649,-0.523941 0.0973,-0.78591 0.0765,-0.03071 0.18971,-0.164315 0.22959,-0.09214 0.008,0.01482 -0.14816,0.484947 -0.0587,0.581038 0.15412,0.165455 0.3781,0.250097 0.55021,0.396743 1.06584,0.908166 1.37224,1.305726 2.38554,2.388232 1.69116,1.961486 0.63131,1.27213 3.22848,1.990855 0.0271,0.03267 0.0733,-0.0056 0.0462,-0.03829 v 0 c -0.23478,-2.740847 0.25702,-1.523915 -1.46695,-3.654213 -0.94379,-0.99764 -1.81823,-2.032074 -2.95545,-2.825102 -0.73588,-0.513151 -1.75597,-1.015304 -2.70751,-0.746135 -0.45048,0.127434 -0.86325,0.430585 -1.15868,0.793776 -0.25336,0.311486 -0.27244,0.755415 -0.40866,1.133121 0.0114,0.413197 -0.0157,0.82927 0.0343,1.239589 0.11499,0.943578 0.4798,2.275493 0.84821,3.129293 0.51319,1.189352 1.10697,2.417368 2.56605,2.748507 0.48398,0.109839 0.94717,-0.296741 1.42075,-0.445111 0.28178,-0.311859 0.60371,-0.591667 0.84533,-0.93558 0.5775,-0.822015 0.96152,-1.841547 1.29624,-2.774373 0.43099,-1.201108 0.80662,-2.434527 0.98077,-3.701838 0.17129,-1.642938 -2.15217,-1.885183 -2.32346,-0.242245 z" />
    <path
       style="fill:#c64600;fill-opacity:1;fill-rule:nonzero;stroke:none;stroke-width:0.264999;stroke-opacity:1"
       id="path8193"
       d="m 162.5488,66.948824 c -0.45536,0.880986 -1.03752,1.728526 -1.13006,2.751238 -0.0381,0.420619 0.0633,0.842299 0.095,1.263449 -0.0215,0.03655 0.0301,0.06702 0.0517,0.03046 v 0 c 0.38474,-0.177974 0.80587,-0.292338 1.1542,-0.533923 0.93944,-0.651553 1.43129,-1.710981 1.90636,-2.702386 0.57194,-1.468771 -1.50522,-2.277612 -2.07716,-0.808842 z" />
    <path
       style="fill:#c64600;fill-opacity:1;fill-rule:nonzero;stroke:none;stroke-width:0.264999;stroke-opacity:1"
       id="path8195"
       d="m 168.84523,71.394028 c -0.0168,-0.242337 -0.024,-0.485537 -0.0504,-0.727017 -0.0759,-0.69352 -0.24148,-1.572524 -0.35501,-2.236919 -0.12689,-0.742514 -0.38888,-2.251491 -0.49157,-3.000913 -0.0623,-0.45458 -0.1046,-0.911674 -0.15689,-1.367512 -0.0115,-0.866105 -0.10896,-2.401255 0.63006,-3.067388 0.24552,-0.221306 0.54235,-0.280271 0.84398,-0.37732 0.0513,0.04696 0.13972,0.0728 0.154,0.140893 0.0157,0.07485 -0.0814,0.138827 -0.0793,0.215279 0.005,0.180355 0.0654,0.354853 0.0991,0.532106 0.0615,0.323678 0.14187,0.64422 0.18627,0.970677 0.0336,0.247337 0.0645,0.895633 0.0822,1.236495 0.0608,0.229815 -0.0209,0.566185 0.18236,0.689441 0.49071,0.297558 1.09845,0.351084 1.66663,0.431744 0.19045,0.02704 0.37373,-0.100253 0.56554,-0.114855 0.30656,-0.02334 0.79123,0.0346 1.07756,0.167754 0.12004,0.05582 0.20926,0.162224 0.31388,0.243334 0.12291,0.549183 0.0893,1.227828 -0.45417,1.556404 -0.25335,0.153167 -1.35375,0.427106 -1.52097,0.472927 -0.33831,0.331419 -0.67661,0.662842 -1.01492,0.994261 -0.0424,-0.0011 -0.0439,0.05895 -0.002,0.05998 v 0 c 0.48796,0.351531 0.97591,0.703061 1.46387,1.05459 1.41974,-0.252958 2.05563,-0.137422 3.13338,-1.276374 0.97312,-1.028383 1.09571,-2.778945 0.4293,-3.989927 -0.21723,-0.394746 -0.59208,-0.679331 -0.88812,-1.018996 -0.3472,-0.160236 -0.67466,-0.373102 -1.04161,-0.480708 -0.71604,-0.209978 -1.34225,-0.154064 -2.05728,-0.01786 -0.23314,0.04441 -0.73877,-0.03235 -0.68378,0.198527 0.0865,0.362982 0.59475,0.450776 0.89213,0.676162 0.0265,0.16796 0.0529,0.33592 0.0794,0.50388 0.0312,-0.22624 0.0914,-0.45035 0.0935,-0.67872 0.0114,-1.232368 -0.29166,-3.066539 -1.18113,-3.988175 -0.32653,-0.338342 -0.76934,-0.58202 -1.22434,-0.70063 -0.38527,-0.100431 -0.79489,0.0471 -1.19234,0.07066 -0.83473,0.426151 -1.14631,0.482962 -1.77495,1.245669 -1.02372,1.242025 -0.99776,2.977713 -0.96305,4.485094 0.0496,0.491173 0.0862,0.98383 0.14868,1.473518 0.24329,1.905108 0.67165,3.78139 0.91549,5.686256 0.0441,1.537239 2.21807,1.474895 2.17399,-0.06235 z" />
    <path
       style="fill:#c64600;fill-opacity:1;fill-rule:nonzero;stroke:none;stroke-width:0.264999;stroke-opacity:1"
       id="path8197"
       d="m 177.50725,59.278953 c 0.19505,0.426014 0.48845,0.800404 0.68544,1.224746 0.67525,1.454623 0.99285,3.033104 1.05575,4.631423 0.0236,0.599088 -0.0294,1.198745 -0.0441,1.798116 -0.18764,1.302636 -0.28981,1.448482 -0.20786,2.644828 0.0192,0.280887 0.0794,0.557461 0.11915,0.836189 -0.0283,0.03158 0.0163,0.07165 0.0446,0.04007 v 0 c 0.39816,-0.120682 0.86567,-0.107128 1.19447,-0.362048 1.13531,-0.880232 1.00184,-1.826416 1.20582,-3.116559 0.009,-0.69908 0.0626,-1.399059 0.0261,-2.097238 -0.11595,-2.21855 -0.64557,-4.801111 -2.0917,-6.5653 -0.1468,-0.179075 -0.33774,-0.316854 -0.5066,-0.475281 -1.01898,-1.047269 -2.50004,0.393782 -1.48106,1.44105 z" />
    <path
       style="fill:#c64600;fill-opacity:1;fill-rule:nonzero;stroke:none;stroke-width:0.264999;stroke-opacity:1"
       id="path8201"
       d="m 184.89214,64.328978 c 1.05665,-0.153654 2.11675,-0.281852 3.17493,-0.423976 1.01323,-0.136086 1.94389,-0.177154 2.87181,-0.661056 0.36804,-0.191926 0.65705,-0.50737 0.98558,-0.761053 0.0424,-7.93e-4 0.0414,-0.06068 -0.001,-0.05999 v 0 c -0.3621,-0.242538 -0.68009,-0.569735 -1.08631,-0.72762 -1.02361,-0.397843 -2.03012,-0.256543 -3.08234,-0.149757 -1.12448,0.114118 -2.25516,0.293156 -3.34717,0.588153 -1.55231,0.342572 -1.06784,2.537873 0.48447,2.195303 z" />
    <path
       style="fill:#c64600;fill-opacity:1;fill-rule:nonzero;stroke:none;stroke-width:0.264999;stroke-opacity:1"
       id="path8203"
       d="m 185.12396,68.225129 c 0.96362,-0.09667 1.0994,-0.103812 2.1851,-0.249073 0.55463,-0.07421 1.16042,0.01146 1.66192,-0.236776 0.58445,-0.289285 0.97077,-0.871032 1.45616,-1.306547 0.0423,-0.0033 0.0377,-0.06309 -0.005,-0.05982 v 0 c -0.58041,-0.353158 -1.08381,-0.888047 -1.74124,-1.059479 -0.54871,-0.143081 -1.12979,0.100153 -1.69325,0.163904 -0.87017,0.09846 -1.36821,0.184518 -2.18495,0.314053 -1.72091,0.226901 -1.40003,2.660642 0.32089,2.43374 z" />
    <path
       style="fill:#c64600;fill-opacity:1;fill-rule:nonzero;stroke:none;stroke-width:0.264999;stroke-opacity:1"
       id="path8205"
       d="m 195.48757,62.067728 c 1.47062,-0.296567 2.92423,-0.676566 4.39308,-0.979694 -0.77653,0.148238 0.24133,-0.01818 -0.80403,-1.938594 -0.0478,-0.08788 -0.18656,0.07684 -0.26841,0.1344 -0.77983,0.54845 -0.77727,1.010208 -0.91217,1.881846 -0.0499,1.818929 0.35768,3.729961 -0.14266,5.515388 -0.0753,0.268729 -0.21957,0.513167 -0.32935,0.76975 -0.11728,0.08093 -0.2105,0.224734 -0.35184,0.242781 -0.081,0.01035 -0.10667,-0.125005 -0.17039,-0.176104 -0.10876,-0.08722 -0.22704,-0.162094 -0.34466,-0.236945 -0.0866,-0.05514 -1.45393,-0.89612 -1.5297,-0.912204 -0.34273,-0.07276 -0.69918,0.04648 -1.04877,0.06972 -0.0301,-0.02987 -0.0724,0.01273 -0.0422,0.0426 v 0 c -0.006,0.363615 -0.13772,0.747088 -0.019,1.090843 0.12801,0.370761 0.4365,0.659043 0.71765,0.932545 0.69566,0.67672 1.71629,1.369325 2.74632,1.361123 1.32505,-0.01056 1.58174,-0.673836 2.2941,-1.528078 0.1555,-0.417327 0.35376,-0.821134 0.46651,-1.251984 0.48828,-1.86581 0.21701,-3.811122 0.13468,-5.704475 -0.0102,-0.07936 0.0221,-0.177943 -0.0307,-0.238093 -0.007,-0.0079 -0.21197,0.107312 -0.19063,-5.29e-4 0.008,-0.04182 0.0886,-0.0578 0.0802,-0.09959 -0.43025,-2.140344 0.18007,-2.162569 -0.69246,-2.045843 -1.48675,0.315195 -2.98699,0.57491 -4.45501,0.975537 -1.48183,0.353187 -0.98234,2.448811 0.49949,2.095624 z" />
    <path
       style="fill:#c64600;fill-opacity:1;fill-rule:nonzero;stroke:none;stroke-width:0.264999;stroke-opacity:1"
       id="path8207"
       d="m 204.59421,66.39226 c -0.75016,1.283221 -1.33144,2.672956 -2.19561,3.889409 -0.19709,0.277429 -0.40002,0.563481 -0.67078,0.769639 -0.076,0.05786 -0.24789,0.04549 -0.28322,-0.04324 -0.0382,-0.09584 0.10711,-0.176339 0.16067,-0.264509 -0.21887,-0.596479 -0.36982,-1.270185 -0.16519,-1.898761 0.0505,-0.15517 0.12159,-0.355031 0.27746,-0.403342 0.15681,-0.0486 0.11794,0.347525 0.11014,0.597337 1.01497,0.785545 1.92503,1.848488 3.09284,2.415484 0.53126,0.257943 1.13943,0.31445 1.69697,0.509191 0.40863,0.142729 0.7984,0.334571 1.1976,0.501856 0.0333,0.02627 0.0705,-0.02085 0.0371,-0.04712 v 0 c -0.25478,-0.348329 -0.53426,-0.679873 -0.76435,-1.044982 -0.31065,-0.492937 -0.49778,-1.064276 -0.85498,-1.524598 -0.35761,-0.460849 -0.83219,-0.818171 -1.26576,-1.208392 -1.33507,-1.201563 -1.07319,-0.948626 -2.5725,-1.854062 -0.53458,-0.02799 -1.09155,-0.239575 -1.60375,-0.08397 -1.77947,0.540589 -1.72745,3.4388 -1.09079,4.732303 0.22671,0.460592 0.6152,0.822003 0.9228,1.233006 0.52482,0.152451 1.02858,0.483799 1.57445,0.457356 0.97422,-0.0472 1.66442,-0.964665 2.1495,-1.649642 0.31529,-0.44523 0.58594,-0.921041 0.85443,-1.395968 0.87287,-1.544027 0.79604,-1.498918 1.43259,-3.085569 0.42527,-1.442267 -1.6144,-2.043691 -2.03967,-0.601424 z" />
    <path
       style="fill:#c64600;fill-opacity:1;fill-rule:nonzero;stroke:none;stroke-width:0.264999;stroke-opacity:1"
       id="path8209"
       d="m 211.2626,74.58277 c -0.37786,-1.6672 -0.8649,-3.307998 -1.2449,-4.974587 -0.0888,-0.389686 -0.16392,-0.782383 -0.24589,-1.173575 -0.15119,-0.873964 -0.29263,-1.777656 -0.18219,-2.667402 0.0274,-0.220491 0.0599,-0.529032 0.25067,-0.475274 0.0636,0.01794 0.10056,0.08586 0.15084,0.128791 0.13158,0.01498 0.26968,0.0013 0.39473,0.0449 0.62827,0.218879 0.55177,1.134731 0.54784,1.659268 -0.18125,0.961398 0.18795,0.82391 1.50252,1.450147 0.16156,0.07696 0.35836,0.0173 0.53474,0.04751 0.22123,0.03788 0.44382,0.08009 0.65495,0.156229 0.20361,0.07343 0.38747,0.193043 0.5812,0.289563 0.0889,0.117811 0.21629,0.214741 0.26683,0.353433 0.10798,0.296293 -0.16349,0.197032 -0.26858,0.210732 -0.1189,0.0155 -0.23727,0.03945 -0.35185,0.07476 -1.82994,0.563909 0.47476,-0.03976 -1.66852,0.492154 -1.27937,0.281688 -0.67696,-0.003 -1.76455,0.939096 -0.0423,-0.0039 -0.0478,0.05585 -0.006,0.05975 v 0 c 1.21614,1.196629 0.48968,0.85815 2.17356,1.027819 1.06808,-0.177617 1.80168,-0.171603 2.71901,-0.852482 0.40712,-0.302183 0.80072,-0.669761 1.02341,-1.125246 0.41048,-0.839584 0.20083,-1.729843 -0.33278,-2.430976 -0.24087,-0.316487 -0.6089,-0.511831 -0.91335,-0.767749 -0.97722,-0.390832 -1.06161,-0.517568 -2.10303,-0.582848 -0.2829,-0.01773 -0.84348,-0.242803 -0.8494,0.04059 -0.009,0.44458 0.57985,0.677135 0.82667,1.047023 0.0341,0.05113 -0.22673,1.141095 0.0982,-0.347946 0.0374,-0.698926 0.11624,-1.071927 -0.13569,-1.784112 -0.43286,-1.223708 -1.31815,-2.034585 -2.64449,-2.152337 -0.37548,-0.03334 -0.74964,0.08015 -1.12445,0.120224 -0.36673,0.215153 -0.79043,0.354195 -1.10017,0.645461 -0.4367,0.410644 -0.58211,1.091028 -0.64055,1.651228 -0.11113,1.065334 0.0426,2.142995 0.22739,3.18915 0.0856,0.418232 0.16271,0.83829 0.25677,1.254699 0.14698,0.650705 0.46343,1.851424 0.63867,2.498323 0.10025,0.370099 0.43869,1.595545 0.5776,2.018342 0.0714,0.217313 0.16005,0.428574 0.24007,0.64286 0.50029,1.350772 2.41057,0.643255 1.91028,-0.707517 z" />
    <path
       style="fill:#c64600;fill-opacity:1;fill-rule:nonzero;stroke:none;stroke-width:0.264999;stroke-opacity:1"
       id="path8211"
       d="m 203.82327,61.678592 c 0.1903,-0.02695 0.38705,-0.02479 0.57089,-0.08083 1.13758,-0.346845 2.03184,-1.402511 2.36593,-2.516796 0.10606,-0.353738 0.11483,-0.72961 0.17224,-1.094415 -0.0782,-0.397457 -0.0642,-0.824875 -0.23457,-1.192371 -0.60738,-1.310005 -1.97397,-2.048727 -3.40068,-1.861653 -1.23116,0.161433 -1.45792,0.606258 -2.32337,1.38794 -0.19181,0.469652 -0.48452,0.909857 -0.57543,1.408954 -0.31378,1.722552 0.64697,3.141679 2.42866,3.302421 0.38624,0.03485 0.7613,-0.148394 1.14194,-0.222589 0.0403,0.01336 0.0592,-0.04357 0.0189,-0.05694 v 0 c -0.16497,-0.255434 -0.33216,-0.509455 -0.49492,-0.766302 -0.14348,-0.22642 -0.26172,-0.469918 -0.42378,-0.683437 -0.094,-0.123907 -0.26288,-0.185227 -0.33865,-0.321083 -0.2193,-0.393194 -0.14391,-0.657076 -0.11451,-1.068302 0.0966,-0.143545 0.16657,-0.309174 0.2898,-0.430634 0.18399,-0.181358 0.63034,-0.416075 0.90051,-0.433144 0.16323,-0.01032 0.32807,0.03303 0.48337,0.08433 0.13395,0.04425 0.27873,0.09438 0.37363,0.198752 0.10465,0.115083 0.12887,0.283149 0.1933,0.424722 -0.003,0.179819 0.0218,0.362149 -0.008,0.539457 -0.0538,0.317227 -0.24145,0.745037 -0.44487,0.999172 -0.28669,0.358164 -0.74448,0.541618 -0.96787,0.954254 -1.01009,0.27417 -0.62236,1.702663 0.38774,1.428494 z" />
    <path
       style="fill:#a51d2d;fill-opacity:1;fill-rule:nonzero;stroke:none;stroke-width:0.264999;stroke-opacity:1"
       id="path8262"
       d="m 79.26266,112.83866 c 1.836203,-0.4117 3.715562,-0.43019 5.587357,-0.4382 2.748576,0.0915 5.498941,0.12319 8.24784,0.20251 0.382447,0.0206 0.764889,0.0413 1.147342,0.0618 1.076788,0.0577 1.326541,0.0898 2.449557,0.0633 1.20885,-0.0285 2.414495,-0.15247 3.620964,-0.22628 1.66534,-0.0225 3.33411,0.0428 4.99281,0.19444 1.44971,0.1467 2.89466,0.35565 4.34997,0.43992 0.80593,-0.2958 0.43948,-0.0195 0.86804,-1.06886 0.0423,-0.003 0.0379,-0.063 -0.004,-0.0598 v 0 c -0.30085,-0.97947 -0.009,-0.68317 -0.63705,-1.07265 -1.45468,-0.21613 -2.9256,-0.26524 -4.38697,-0.42136 -1.76608,-0.14611 -3.54471,-0.1734 -5.31587,-0.16332 -1.160114,0.0729 -2.320185,0.19769 -3.482614,0.22654 -1.101172,0.0273 -1.260437,-0.009 -2.340398,-0.0677 -0.400145,-0.0218 -0.800396,-0.0416 -1.200594,-0.0624 -1.415249,-0.0389 -2.830521,-0.047 -4.245835,-0.0814 -0.944751,-0.0229 -1.888876,-0.0691 -2.833711,-0.0884 -0.417137,-0.009 -0.834422,-0.007 -1.25163,-0.01 -1.854645,0.0309 -3.810522,-0.0175 -5.603494,0.53794 -0.251603,0.0779 -0.489739,0.19409 -0.734608,0.29113 -1.232358,0.54682 -0.459049,2.28963 0.773308,1.74282 z" />
    <path
       style="fill:#a51d2d;fill-opacity:1;fill-rule:nonzero;stroke:none;stroke-width:0.264999;stroke-opacity:1"
       id="path8264"
       d="m 132.82896,112.44014 c 0.24135,0.0258 0.48154,0.0672 0.72406,0.0773 0.61518,0.0254 1.23131,-0.0167 1.84698,-0.0235 1.12299,-0.0123 2.24528,-0.0226 3.36808,-0.0482 2.17567,-0.0355 4.35501,-0.0504 6.52583,0.11669 1.35931,0.16572 2.73325,0.12343 4.09763,0.0571 0.31909,-0.0409 0.66218,0.005 0.95728,-0.12282 0.41096,-0.17839 1.01295,-0.86407 1.33448,-1.2029 0.0417,-0.008 0.0307,-0.0668 -0.011,-0.059 v 0 c -0.21645,-0.11391 -0.43307,-0.22749 -0.64934,-0.34173 -1.0664,-0.5633 -0.50133,-0.42841 -1.67052,-0.43052 -1.29573,-0.0175 -2.59612,0.0528 -3.8852,-0.10928 -2.24538,-0.17918 -4.50039,-0.16346 -6.75105,-0.11701 -1.12455,0.0272 -2.24969,0.0332 -3.374,0.0688 -0.24098,0.008 -1.56589,0.0573 -1.86215,0.0943 -0.18404,0.023 -0.36207,0.0806 -0.54311,0.12091 -1.35747,-0.0764 -1.46544,1.84341 -0.10797,1.91975 z" />
    <path
       style="fill:#a51d2d;fill-opacity:1;fill-rule:nonzero;stroke:none;stroke-width:0.264999;stroke-opacity:1"
       id="path8266"
       d="m 170.66149,111.94977 c 0.20753,-0.0137 0.41595,-0.0174 0.62257,-0.0411 0.33209,-0.0381 0.6616,-0.096 0.99239,-0.14407 0.40107,-0.0512 0.80129,-0.10956 1.2032,-0.15371 1.15459,-0.12681 2.31139,-0.19805 3.4713,-0.24769 1.27236,-0.019 2.53989,0.11147 3.80953,0.17015 0.98159,0.0454 1.50483,0.0514 2.48634,0.0736 1.93357,0.0248 3.86644,-0.0551 5.79931,-0.0978 0.58472,-0.0688 1.83003,0.13498 2.30904,-0.26062 0.25189,-0.20803 0.35815,-0.54647 0.53723,-0.8197 0.0424,1.2e-4 0.0426,-0.0599 1.7e-4,-0.06 v 0 c -0.19074,-0.27431 -0.30822,-0.61817 -0.57224,-0.82292 -0.48382,-0.37519 -1.73826,-0.12029 -2.31672,-0.15697 -1.90338,0.0343 -3.80634,0.12066 -5.71028,0.0964 -2.15035,-0.0457 -4.29719,-0.17865 -6.44716,-0.20793 -1.24591,0.0711 -2.39694,0.20872 -3.63255,0.38629 -0.42862,0.0616 -1.90104,0.26256 -2.36009,0.38001 -0.23688,0.0606 -0.45706,0.17392 -0.68558,0.26088 -1.16332,0.34899 -0.66978,1.99417 0.49354,1.64518 z" />
    <path
       style="fill:#a51d2d;fill-opacity:1;fill-rule:nonzero;stroke:none;stroke-width:0.264999;stroke-opacity:1"
       id="path8268"
       d="m 207.55531,111.78308 c 2.20672,-0.16004 4.41068,-0.0587 6.61521,0.0676 2.01307,0.10823 4.01713,0.32978 6.02672,0.48369 1.81434,0.1936 3.63524,0.22956 5.4578,0.22325 2.29084,0.0275 4.56832,-0.24016 6.85367,-0.3411 3.70854,-0.18821 -0.9358,0.0369 2.90841,-0.1141 0.49483,-0.0194 0.99305,-0.008 1.48375,-0.0747 1.05947,-0.14388 1.47312,-0.3551 2.42804,-0.71549 0.0422,0.005 0.0486,-0.0551 0.006,-0.0596 v 0 c -0.92873,-0.58103 -1.24342,-0.87715 -2.39016,-1.12516 -1.49102,-0.32246 -3.03176,-0.0554 -4.53242,-0.0309 -2.25668,0.10449 -4.50405,0.38613 -6.76661,0.35213 -1.7668,0.009 -3.53121,-0.0241 -5.29011,-0.21287 -2.02301,-0.15119 -4.04005,-0.37638 -6.0668,-0.47754 -2.32151,-0.1304 -4.68251,-0.33247 -6.97725,0.15876 -1.31945,0.17205 -1.07613,2.03803 0.24332,1.86598 z" />
    <path
       style="fill:#a51d2d;fill-opacity:1;fill-rule:nonzero;stroke:none;stroke-width:0.264999;stroke-opacity:1"
       id="path8270"
       d="m 79.397359,107.84576 c -0.842026,0.98912 -2.406422,2.12212 -2.206355,3.60734 0.134906,1.0015 0.785093,1.47249 1.420415,2.11582 0.469308,0.35693 0.846606,0.83215 1.521384,0.70468 0.293494,-0.0555 0.52868,-0.27812 0.793019,-0.41718 0.03405,0.0253 0.06985,-0.0228 0.0358,-0.0482 v 0 c 0.04386,-0.30297 0.165431,-0.60465 0.131575,-0.9089 -0.0631,-0.56699 -0.464368,-0.73977 -0.856295,-1.03674 -0.15349,-0.12975 -0.290171,-0.28252 -0.460476,-0.38925 -0.185097,-0.116 -0.534387,-0.007 -0.521332,-0.0904 0.0357,-0.22841 0.226446,-0.40479 0.36594,-0.58914 0.197641,-0.26119 1.129821,-1.29352 1.348041,-1.53753 0.997403,-1.11137 -0.574312,-2.52191 -1.571712,-1.41054 z" />
    <path
       style="fill:#a51d2d;fill-opacity:1;fill-rule:nonzero;stroke:none;stroke-width:0.264999;stroke-opacity:1"
       id="path8272"
       d="m 107.89205,110.0362 c 0.53783,0.53618 1.21538,0.96694 1.67837,1.57785 0.10583,0.13964 0.24391,0.29577 0.23395,0.4707 -0.008,0.13287 -0.20653,0.17458 -0.27715,0.28738 -0.16403,0.26203 -0.28018,0.55115 -0.42028,0.82672 -0.98981,2.05604 -0.13796,-0.0416 -0.57597,2.21979 -0.0471,0.24329 -0.18932,0.45803 -0.28398,0.68705 -0.0269,0.0328 0.0196,0.0708 0.0464,0.038 v 0 c 0.20936,-0.14252 0.40165,-0.31411 0.62809,-0.42754 1.85846,-0.93092 0.67586,0.13814 2.11092,-1.58417 0.60556,-1.2858 1.01716,-1.64504 0.69919,-3.17308 -0.0731,-0.35148 -0.35234,-0.62885 -0.57356,-0.9116 -0.50674,-0.64771 -1.22454,-1.11851 -1.82393,-1.67032 -1.17324,-1.0197 -2.61532,0.63951 -1.44208,1.65922 z" />
    <path
       style="fill:#a51d2d;fill-opacity:1;fill-rule:nonzero;stroke:none;stroke-width:0.264999;stroke-opacity:1"
       id="path8274"
       d="m 133.41572,107.82277 c -0.43084,0.4725 -0.70035,0.7742 -1.15902,1.24774 -0.42805,0.44194 -0.93176,0.85387 -1.21431,1.42031 -0.15585,0.31244 -0.33935,0.64431 -0.33218,0.99338 0.0104,0.50385 0.25512,0.97509 0.38268,1.46263 1.26423,1.60939 0.4273,1.15515 2.56355,1.26068 0.0306,0.0293 0.0721,-0.014 0.0415,-0.0433 v 0 c 0.058,-1.73416 0.36161,-1.07649 -0.52664,-2.10837 -0.10344,-0.0513 -0.23282,-0.0682 -0.3103,-0.15378 -0.26113,-0.2884 0.12478,-0.67621 0.24639,-0.87046 0.48092,-0.76824 1.06627,-1.45061 1.63295,-2.1549 0.74522,-0.93665 -0.5794,-1.99054 -1.32462,-1.05389 z" />
    <path
       style="fill:#a51d2d;fill-opacity:1;fill-rule:nonzero;stroke:none;stroke-width:0.264999;stroke-opacity:1"
       id="path8278"
       d="m 148.04743,110.22546 c 0.66908,0.48163 1.4966,1.12847 1.60009,2.01952 0.0381,0.32778 -0.17632,0.86556 -0.26512,1.14339 -0.36691,1.01899 -0.35494,0.45753 0.33879,1.65035 -0.022,0.0363 0.0294,0.0674 0.0513,0.0311 v 0 c 1.60573,-0.16912 1.05183,0.23605 1.76659,-1.05733 0.11644,-0.42433 0.30466,-0.83524 0.34933,-1.27299 0.17798,-1.74412 -0.77823,-3.10656 -2.09643,-4.12101 -0.18829,-0.14491 -0.40596,-0.24698 -0.60894,-0.37048 -1.3983,-0.80302 -2.53396,1.17447 -1.13565,1.9775 z" />
    <path
       style="fill:#a51d2d;fill-opacity:1;fill-rule:nonzero;stroke:none;stroke-width:0.264999;stroke-opacity:1"
       id="path8280"
       d="m 170.07448,107.57981 c -0.90309,0.98946 -2.04301,2.21186 -1.55864,3.69743 0.2961,0.90811 0.91742,1.24668 1.60178,1.78711 0.33016,0.20751 1.21061,0.77254 1.5903,0.97015 0.19892,0.10353 0.39162,0.27173 0.61586,0.27073 2.14792,-0.01 0.11611,-0.46127 1.1651,-0.19692 0.0313,0.0286 0.0718,-0.0156 0.0405,-0.0443 v 0 c -0.22952,-0.61791 -0.12488,-0.20651 -0.0693,-1.27162 -0.0844,-0.26088 -0.34768,-0.42745 -0.55401,-0.60801 -0.35694,-0.31235 -1.04123,-0.70526 -1.44899,-0.95292 -0.16978,-0.10662 -0.33026,-0.22974 -0.50934,-0.31986 -0.17198,-0.0866 -0.46027,-0.0697 -0.46258,-0.0972 -0.0469,-0.55734 0.9042,-1.47458 1.13337,-1.95357 0.90587,-1.09183 -0.6382,-2.37292 -1.54407,-1.2811 z" />
    <path
       style="fill:#a51d2d;fill-opacity:1;fill-rule:nonzero;stroke:none;stroke-width:0.264999;stroke-opacity:1"
       id="path8282"
       d="m 189.15797,108.87635 c 0.70308,0.44612 1.41197,0.95864 1.52339,1.85187 0.0638,0.51139 -0.0489,0.64923 -0.21739,1.12089 -0.17159,0.49712 -0.58443,0.86593 -0.7885,1.34338 -0.68279,1.59752 0.16716,0.38008 -0.63316,1.40928 -0.0338,0.0256 0.002,0.0734 0.0362,0.0478 v 0 c 0.89974,-0.37047 0.36521,-0.20999 1.63491,-0.36109 0.98512,-0.3794 1.25896,-0.97146 1.87729,-1.76694 0.13307,-0.44483 0.34709,-0.87312 0.39921,-1.33449 0.048,-0.42506 -0.005,-0.86302 -0.104,-1.27907 -0.33986,-1.42225 -1.40214,-2.4057 -2.65464,-3.04366 -1.42271,-0.75897 -2.49604,1.25304 -1.07334,2.012 z" />
    <path
       style="fill:#a51d2d;fill-opacity:1;fill-rule:nonzero;stroke:none;stroke-width:0.264999;stroke-opacity:1"
       id="path8284"
       d="m 207.99392,107.84532 c -0.6382,0.57169 -0.28829,0.23559 -0.94684,0.93296 -0.53452,0.56602 -1.16454,1.13636 -1.17499,1.99546 -0.005,0.37288 0.15267,0.73002 0.22899,1.09503 0.58862,0.93165 0.50146,0.87541 1.22226,1.69677 0.37913,0.43203 0.91636,1.0975 1.5441,1.21935 0.36088,0.07 0.7323,-0.0657 1.09844,-0.0985 0.0293,0.0307 0.0727,-0.0107 0.0434,-0.0414 v 0 c 0.0527,-0.36109 0.2019,-0.72098 0.15819,-1.08327 -0.0727,-0.60245 -0.63518,-1.11761 -0.99289,-1.53585 -1.44919,-1.69443 0.12078,0.1281 -0.85819,-1.0069 -0.11143,0.0624 -0.29263,0.18841 -0.27526,0.0527 0.0705,-0.55083 1.07035,-1.41653 1.37224,-1.91195 0.92938,-1.0037 -0.49007,-2.31804 -1.41945,-1.31434 z" />
    <path
       style="fill:#a51d2d;fill-opacity:1;fill-rule:nonzero;stroke:none;stroke-width:0.264999;stroke-opacity:1"
       id="path8288"
       d="m 234.40131,109.50846 c 0.7752,0.28282 1.59021,0.49986 2.27928,0.97544 0.18274,0.12613 0.3971,0.24976 0.48972,0.45157 0.0504,0.10981 -0.0909,0.2242 -0.12657,0.33966 -0.0585,0.18948 -0.10358,0.38282 -0.15536,0.57423 -0.0837,0.21197 -0.53943,1.35094 -0.58357,1.52905 -0.0861,0.34736 -0.10852,0.70747 -0.16278,1.0612 -0.0323,0.0275 0.007,0.0732 0.0389,0.0457 v 0 c 0.42992,-0.0579 0.89351,0.003 1.28976,-0.17366 1.07026,-0.4768 1.22062,-1.21445 1.70024,-2.17201 0.10114,-1.39087 0.36551,-1.7763 -0.55164,-3.02164 -0.67358,-0.91462 -2.64059,-1.31151 -3.70428,-1.59293 -1.40246,-0.36322 -1.91612,1.62016 -0.51366,1.98338 z" />
  </g>
</svg>
