<?xml version="1.0" encoding="UTF-8" standalone="no"?>
<!-- Created with Inkscape (http://www.inkscape.org/) -->

<svg
   width="1280"
   height="720"
   viewBox="0 0 338.66667 190.5"
   version="1.1"
   id="svg5"
   inkscape:version="1.2.2 (b0a8486541, 2022-12-01)"
   xml:space="preserve"
   sodipodi:docname="fig-venn.svg"
   xmlns:inkscape="http://www.inkscape.org/namespaces/inkscape"
   xmlns:sodipodi="http://sodipodi.sourceforge.net/DTD/sodipodi-0.dtd"
   xmlns="http://www.w3.org/2000/svg"
   xmlns:svg="http://www.w3.org/2000/svg"><sodipodi:namedview
     id="namedview7"
     pagecolor="#ffffff"
     bordercolor="#999999"
     borderopacity="1"
     inkscape:showpageshadow="0"
     inkscape:pageopacity="0"
     inkscape:pagecheckerboard="0"
     inkscape:deskcolor="#d1d1d1"
     inkscape:document-units="mm"
     showgrid="true"
     inkscape:zoom="1.4407301"
     inkscape:cx="381.7509"
     inkscape:cy="311.9946"
     inkscape:window-width="1920"
     inkscape:window-height="1056"
     inkscape:window-x="0"
     inkscape:window-y="1080"
     inkscape:window-maximized="1"
     inkscape:current-layer="layer1"><inkscape:grid
       type="xygrid"
       id="grid9" /></sodipodi:namedview><defs
     id="defs2"><rect
       x="279.05067"
       y="218.50844"
       width="155.73053"
       height="66.748886"
       id="rect1171" /><rect
       x="466.28035"
       y="331.95996"
       width="136.11085"
       height="47.566772"
       id="rect5072" /><rect
       x="206.80917"
       y="326.69128"
       width="175.47074"
       height="62.346626"
       id="rect5066" /><rect
       x="330.27419"
       y="116.63685"
       width="199.05719"
       height="82.654603"
       id="rect4478" /><rect
       x="339.50374"
       y="108.99731"
       width="98.095561"
       height="67.153369"
       id="rect4422" /><rect
       x="335.61011"
       y="118.39228"
       width="131.60977"
       height="54.620264"
       id="rect4404" /><rect
       x="206.80917"
       y="326.69128"
       width="224.27856"
       height="65.224924"
       id="rect5066-3" /></defs><g
     inkscape:label="Layer 1"
     inkscape:groupmode="layer"
     id="layer1"><ellipse
       style="fill:none;stroke:#000000;stroke-width:0.273465;stroke-dasharray:none;stroke-opacity:1"
       id="path2264-3-6-7"
       cx="85"
       cy="85"
       rx="34.86327"
       ry="34.863266"
       inkscape:export-filename="../fig-venn.svg"
       inkscape:export-xdpi="96"
       inkscape:export-ydpi="96" /><ellipse
       style="fill:none;stroke:#000000;stroke-width:0.273465;stroke-dasharray:none;stroke-opacity:1"
       id="path2264-3-6-7-5"
       cx="125"
       cy="85"
       rx="34.86327"
       ry="34.863266" /><ellipse
       style="fill:none;stroke:#000000;stroke-width:0.273465;stroke-dasharray:none;stroke-opacity:1"
       id="path2264-3-6-7-5-3"
       cx="105"
       cy="50.903885"
       rx="34.86327"
       ry="34.863266" /><path
       style="fill:#a51d2d;stroke:#000000;stroke-width:0.122893;stroke-dasharray:none;stroke-opacity:1"
       d="m 393.25153,323.5365 c -9.33698,-0.2579 -19.59402,-1.6844 -28.56064,-3.97207 -7.49449,-1.91209 -15.46059,-4.70548 -22.14357,-7.76486 l -0.94961,-0.43472 0.0602,-0.52905 c 0.0331,-0.29098 0.14667,-1.44009 0.25239,-2.55359 1.65255,-17.40613 7.25104,-35.26874 15.94016,-50.8589 9.19791,-16.50304 22.10907,-31.09003 37.29016,-42.13028 l 1.70501,-1.23995 0.81032,0.57291 c 8.47573,5.99248 17.36731,14.26651 24.35034,22.65912 16.93681,20.35563 27.21337,44.93565 29.83114,71.35171 0.10292,1.0386 0.18713,2.08922 0.18713,2.33472 v 0.44636 l -2.13429,0.943 c -17.78279,7.857 -37.30786,11.70956 -56.63872,11.1756 z"
       id="path4267"
       transform="scale(0.26458333)" /><path
       style="fill:#d1ff82;stroke:#000000;stroke-width:0.122893;stroke-dasharray:none;stroke-opacity:1"
       d="m 453.08219,309.64914 c -0.0445,-0.65058 -0.22023,-2.37 -0.39043,-3.82092 -4.23116,-36.06989 -23.03936,-68.7364 -52.11034,-90.50644 l -2.67011,-1.99953 0.95232,-0.64672 c 19.68042,-13.36495 42.75718,-21.12143 66.71919,-22.42542 2.94509,-0.16027 10.85871,-0.1619 13.68098,-0.003 15.72602,0.88642 30.51537,4.33226 44.8229,10.44349 3.64751,1.55797 3.52066,1.48318 3.52066,2.07593 0,0.60691 -0.28929,3.45102 -0.61718,6.06764 -2.7115,21.63866 -10.9304,42.48942 -23.76687,60.29487 -4.30797,5.97557 -8.24888,10.57705 -13.82957,16.14763 -9.34072,9.32381 -19.33433,16.72672 -30.92748,22.90997 -2.18872,1.16736 -4.18928,2.18005 -4.86014,2.46021 l -0.44295,0.18499 z"
       id="path4269"
       transform="scale(0.26458333)" /><path
       style="fill:#d1ff82;stroke:#000000;stroke-width:0.122893;stroke-dasharray:none;stroke-opacity:1"
       d="m 337.23633,309.21492 c -10.36135,-5.29699 -19.85994,-11.84447 -28.46332,-19.62007 -3.38821,-3.0622 -8.27845,-8.08047 -11.30918,-11.60525 -17.85222,-20.76236 -28.71516,-46.37299 -31.25803,-73.69442 -0.10046,-1.07937 -0.14369,-1.99641 -0.0961,-2.03785 0.16422,-0.14292 4.1414,-1.86687 6.38304,-2.76679 11.3355,-4.55074 23.42536,-7.52063 35.60539,-8.7465 5.02947,-0.50619 6.31121,-0.56005 13.25153,-0.55682 7.12327,0.003 9.02092,0.0937 14.29448,0.68061 18.77811,2.08993 36.9236,8.21102 53.06749,17.90146 2.67056,1.60301 6.99386,4.40214 6.99386,4.52818 0,0.045 -1.25613,1.0269 -2.79141,2.18211 -13.55596,10.20009 -24.88932,22.71569 -33.64307,37.15255 -10.24207,16.89141 -16.55286,35.84024 -18.53096,55.64119 -0.13762,1.37759 -0.26513,2.51963 -0.28336,2.53785 -0.0182,0.0182 -1.46741,-0.70008 -3.22039,-1.59625 z"
       id="path4271"
       transform="scale(0.26458333)" /><path
       style="fill:#d1ff82;stroke:#000000;stroke-width:0.122893;stroke-dasharray:none;stroke-opacity:1"
       d="m 396.38037,428.13183 c -10.15981,-7.32271 -18.78567,-15.48068 -26.30847,-24.88144 -8.20217,-10.24974 -14.73458,-21.48558 -19.56323,-33.64906 -6.97066,-17.55926 -10.03506,-36.24537 -9.07651,-55.34677 0.0683,-1.36139 0.10532,-1.56547 0.27432,-1.51288 0.10745,0.0334 1.34594,0.5618 2.75221,1.17417 11.21965,4.88563 23.86622,8.31858 36.15481,9.81434 6.07918,0.73995 9.44726,0.93131 16.31902,0.92717 5.78191,-0.003 7.54271,-0.075 12.14724,-0.49333 13.96736,-1.26897 28.44353,-5.02396 41.21249,-10.69013 0.97056,-0.43068 1.79161,-0.75609 1.82457,-0.72313 0.2555,0.2555 0.36735,11.42573 0.15306,15.28604 -1.40015,25.22341 -9.72394,49.08362 -24.17511,69.29813 -4.62227,6.46571 -8.34962,10.85088 -14.16033,16.65942 -3.81658,3.81515 -6.33005,6.10468 -9.87953,8.99931 -2.20359,1.79703 -7.00428,5.40972 -7.18374,5.406 -0.0675,-0.001 -0.28835,-0.12192 -0.4908,-0.26784 z"
       id="path4273"
       transform="scale(0.26458333)" /><path
       style="fill:#f8ead3;stroke:#000000;stroke-width:0.49157;stroke-dasharray:none;stroke-opacity:1"
       d="m 309.20245,451.75755 c -2.56441,-0.24593 -7.65328,-0.99606 -11.30858,-1.66697 -25.56764,-4.69279 -48.59962,-16.51607 -67.31188,-34.55399 -7.64759,-7.37199 -12.61411,-13.32568 -18.48874,-22.16373 -11.65239,-17.53032 -18.51201,-36.41348 -20.98744,-57.77423 -0.98721,-8.51872 -0.72039,-25.18362 0.53657,-33.51274 5.80986,-38.4984 28.67345,-72.7717 62.01071,-92.95619 4.85274,-2.93815 10.08104,-5.69412 10.80223,-5.69412 0.23882,0 0.58366,1.82209 0.76631,4.04908 0.41865,5.10453 2.80847,17.07415 4.49092,22.49318 5.12758,16.5155 13.35246,32.35543 23.2981,44.86879 4.49528,5.65585 14.67771,15.9207 20.25762,20.42157 7.53202,6.0755 18.90673,13.35527 25.26604,16.17017 l 1.47228,0.6517 0.25011,12.05312 c 0.27092,13.05597 1.02162,18.99224 3.78686,29.94536 5.52246,21.87451 16.62781,41.92284 32.52521,58.71735 4.14666,4.38066 12.17297,11.51901 16.19197,14.40062 1.2822,0.91935 2.33128,1.80656 2.33128,1.97158 0,0.67803 -10.55455,6.8217 -17.42331,10.14188 -11.75748,5.68325 -25.16337,9.76178 -38.62402,11.75073 -6.12442,0.90495 -23.41751,1.30296 -29.84224,0.68684 z"
       id="path4275"
       transform="scale(0.26458333)" /><path
       style="fill:#f8ead3;stroke:#000000;stroke-width:0.49157;stroke-dasharray:none;stroke-opacity:1"
       d="m 393.12883,209.85489 c -15.82178,-10.17461 -33.44162,-16.7879 -52.58621,-19.73732 -9.39528,-1.44744 -27.99085,-1.57329 -36.98434,-0.25029 -11.51425,1.6938 -21.55812,4.33379 -31.26467,8.21779 -2.77989,1.11235 -5.35922,2.14338 -5.73184,2.29116 -0.94547,0.37498 -0.454,-20.26922 0.64367,-27.03786 4.68319,-28.87812 17.30269,-53.79948 37.32077,-73.702107 21.32298,-21.200011 49.08341,-34.381048 79.1466,-37.579908 8.12381,-0.86441 26.22451,-0.351899 33.7505,0.955627 15.23178,2.646287 26.72282,6.475539 39.80591,13.264854 19.84528,10.298467 36.30724,25.146544 49.03728,44.229834 4.19396,6.28704 11.05748,19.84031 13.69056,27.03448 3.33335,9.10745 5.99438,20.72777 7.1625,31.27757 0.48129,4.34668 0.73779,21.09489 0.32933,21.50335 -0.10542,0.10543 -1.95814,-0.56438 -4.11714,-1.48847 -25.73269,-11.01405 -58.00556,-13.0636 -85.79141,-5.44834 -13.3723,3.66494 -27.23989,9.99524 -39.50353,18.03263 -1.19301,0.78188 -1.32896,0.73859 -4.90798,-1.563 z"
       id="path4346"
       transform="scale(0.26458333)" /><path
       style="fill:#f8ead3;stroke:#000000;stroke-width:0.49157;stroke-dasharray:none;stroke-opacity:1"
       d="m 460.3681,451.75755 c -16.21645,-1.55514 -33.36704,-6.62521 -47.85276,-14.14628 -6.24033,-3.24001 -14.01119,-7.92074 -13.96017,-8.40882 0.0141,-0.13497 1.93694,-1.68098 4.27295,-3.43558 5.75871,-4.32542 18.65643,-17.27375 23.33558,-23.42714 13.82118,-18.17576 22.6221,-38.69685 26.05167,-60.74464 1.09385,-7.03203 1.82794,-19.36847 1.46218,-24.5719 l -0.31354,-4.46035 5.82564,-3.15259 c 32.01467,-17.32494 55.53433,-46.46035 65.16567,-80.72517 1.67522,-5.95983 3.62688,-15.84819 4.02927,-20.41485 0.18195,-2.06488 0.50066,-4.02913 0.70825,-4.36502 0.27748,-0.44897 1.65796,0.0695 5.21285,1.95785 24.53525,13.03303 45.58241,35.48232 57.26797,61.0831 5.49932,12.04793 9.68517,27.21124 11.12295,40.2931 0.68982,6.27638 0.69795,21.69173 0.0146,27.73007 -2.95552,26.117 -12.74972,49.38243 -29.23592,69.44785 -4.93141,6.00203 -14.72076,15.60371 -20.34649,19.95641 -18.22757,14.10294 -39.88941,23.29433 -62.9185,26.69712 -6.12442,0.90495 -23.41751,1.30296 -29.84223,0.68684 z"
       id="path4348"
       transform="scale(0.26458333)" /><text
       xml:space="preserve"
       transform="scale(0.26458333)"
       id="text4402"
       style="font-style:normal;font-variant:normal;font-weight:normal;font-stretch:normal;font-family:'Fira Code';-inkscape-font-specification:'Fira Code';white-space:pre;shape-inside:url(#rect4404);display:inline;fill:#f8ead3;stroke:#000000;stroke-width:1.00157;stroke-dasharray:none;stroke-opacity:1" /><text
       xml:space="preserve"
       transform="scale(0.26458333)"
       id="text4420"
       style="font-style:normal;font-variant:normal;font-weight:normal;font-stretch:normal;font-size:21.3333px;font-family:'Fira Code';-inkscape-font-specification:'Fira Code';white-space:pre;shape-inside:url(#rect4422);display:inline;fill:#f8ead3;stroke:#000000;stroke-width:1.00157;stroke-dasharray:none;stroke-opacity:1"><tspan
         x="339.50391"
         y="127.66468"
         id="tspan3764">
</tspan><tspan
         x="339.50391"
         y="154.33131"
         id="tspan3766">
</tspan><tspan
         x="339.50391"
         y="194.81703"
         id="tspan3770"><tspan
           dx="0 13.128194 13.128194 13.128195 13.128193 13.128193 13.128197 13.128189 13.128197"
           id="tspan3768">continous</tspan></tspan></text><text
       xml:space="preserve"
       transform="matrix(0.26458333,0,0,0.26458333,-3.3586654,2.8970427)"
       id="text4476"
       style="font-style:normal;font-variant:normal;font-weight:normal;font-stretch:normal;font-size:29.3333px;font-family:'Fira Code';-inkscape-font-specification:'Fira Code';white-space:pre;shape-inside:url(#rect4478);display:inline;fill:#f8ead3;stroke:#000000;stroke-width:1.00157;stroke-dasharray:none;stroke-opacity:1"><tspan
         x="330.27344"
         y="142.30336"
         id="tspan3774"><tspan
           style="font-weight:500;-inkscape-font-specification:'Fira Code Medium';fill:#000000;stroke:none"
           id="tspan3772">continous</tspan></tspan></text><text
       xml:space="preserve"
       transform="matrix(0.13229167,0.22913589,-0.22913589,0.13229167,113.5331,-20.844033)"
       id="text5064"
       style="font-style:normal;font-variant:normal;font-weight:500;font-stretch:normal;font-size:29.3333px;font-family:'Fira Code';-inkscape-font-specification:'Fira Code Medium';white-space:pre;shape-inside:url(#rect5066);display:inline;fill:#000000;fill-opacity:1;stroke:none;stroke-width:1.00157;stroke-dasharray:none;stroke-opacity:1"><tspan
         x="206.80859"
         y="352.35804"
         id="tspan3776">injective</tspan></text><text
       xml:space="preserve"
       transform="matrix(0.13229167,-0.22913589,0.22913589,0.13229167,17.777008,113.79336)"
       id="text5064-6"
       style="font-style:normal;font-variant:normal;font-weight:500;font-stretch:normal;font-size:29.3333px;font-family:'Fira Code';-inkscape-font-specification:'Fira Code Medium';white-space:pre;shape-inside:url(#rect5066-3);display:inline;fill:#000000;fill-opacity:1;stroke:none;stroke-width:1.00157;stroke-dasharray:none;stroke-opacity:1"><tspan
         x="206.80859"
         y="352.35804"
         id="tspan3778">surjective</tspan></text><text
       xml:space="preserve"
       transform="matrix(0.26458333,0,0,0.26458333,-0.55309634,-1.9479558)"
       id="text5070"
       style="font-style:normal;font-variant:normal;font-weight:normal;font-stretch:normal;font-size:29.3333px;font-family:sans-serif;-inkscape-font-specification:sans-serif;white-space:pre;shape-inside:url(#rect5072);display:inline;fill:#000000;fill-opacity:1;stroke:none;stroke-width:1.00157;stroke-dasharray:none;stroke-opacity:1"><tspan
         x="466.28125"
         y="406.21699"
         id="tspan3782"><tspan
           dx="0 18.051273 18.051273 18.051273 18.051273 18.05127 18.051277 18.051277 18.05127 18.05127"
           style="font-family:'Fira Code';-inkscape-font-specification:'Fira Code'"
           id="tspan3780">surjective</tspan></tspan></text><text
       xml:space="preserve"
       transform="scale(0.26458333)"
       id="text1169"
       style="font-style:normal;font-variant:normal;font-weight:500;font-stretch:normal;font-size:18.6667px;font-family:'Fira Code';-inkscape-font-specification:'Fira Code Medium';text-align:center;white-space:pre;shape-inside:url(#rect1171);display:inline;fill:#a51d2d;fill-opacity:1;stroke-width:1.00157" /><text
       xml:space="preserve"
       style="font-style:normal;font-variant:normal;font-weight:500;font-stretch:normal;font-size:6.35px;font-family:'Fira Code';-inkscape-font-specification:'Fira Code Medium';text-align:center;text-anchor:middle;white-space:pre;inline-size:33.6485;display:inline;fill:#a51d2d;fill-opacity:1;stroke-width:0.264999"
       x="78.100807"
       y="64.062401"
       id="text3405"
       transform="translate(7.541244,-2.0828931)"><tspan
         x="78.100807"
         y="64.062401"
         id="tspan3786"><tspan
           style="fill:#000000;stroke-width:0.265"
           id="tspan3784">Jordan</tspan></tspan></text><text
       xml:space="preserve"
       style="font-style:normal;font-variant:normal;font-weight:500;font-stretch:normal;font-size:6.35px;font-family:'Fira Code';-inkscape-font-specification:'Fira Code Medium';text-align:center;text-anchor:middle;white-space:pre;inline-size:33.6485;display:inline;fill:#a51d2d;fill-opacity:1;stroke-width:0.264999"
       x="78.100807"
       y="64.062401"
       id="text3405-7"
       transform="translate(27.344247,30.596409)"><tspan
         x="78.100807"
         y="64.062401"
         id="tspan3790"><tspan
           style="fill:#000000"
           id="tspan3788">Cantor</tspan></tspan></text><text
       xml:space="preserve"
       style="font-style:normal;font-variant:normal;font-weight:500;font-stretch:normal;font-size:6.35px;font-family:'Fira Code';-inkscape-font-specification:'Fira Code Medium';text-align:center;text-anchor:middle;white-space:pre;inline-size:33.6485;display:inline;fill:#a51d2d;fill-opacity:1;stroke-width:0.264999"
       x="78.100807"
       y="64.062401"
       id="text3405-3"
       transform="translate(46.292251,-2.0510644)"><tspan
         x="78.100807"
         y="64.062401"
         id="tspan3794"><tspan
           style="fill:#000000"
           id="tspan3792">Peano</tspan></tspan></text><text
       xml:space="preserve"
       style="font-style:normal;font-variant:normal;font-weight:500;font-stretch:normal;font-size:4.93889px;font-family:'Fira Code';-inkscape-font-specification:'Fira Code Medium';text-align:center;text-anchor:middle;fill:#f8ead3;fill-opacity:1;stroke-width:0.264999"
       x="105.02552"
       y="72.419579"
       id="text3477"><tspan
         sodipodi:role="line"
         id="tspan3475"
         style="font-size:4.93889px;stroke-width:0.265;fill:#f8ead3"
         x="105.02552"
         y="72.419579">not</tspan><tspan
         sodipodi:role="line"
         style="font-size:4.93889px;stroke-width:0.265;fill:#f8ead3"
         x="105.02552"
         y="78.593193"
         id="tspan3479">possible</tspan></text></g></svg>
