<?xml version="1.0" encoding="UTF-8" standalone="no"?>
<!-- Created with Inkscape (http://www.inkscape.org/) -->

<svg
   width="1280"
   height="720"
   viewBox="0 0 338.66667 190.5"
   version="1.1"
   id="svg5"
   inkscape:version="1.2.2 (b0a8486541, 2022-12-01)"
   sodipodi:docname="fig-rnn.svg"
   xmlns:inkscape="http://www.inkscape.org/namespaces/inkscape"
   xmlns:sodipodi="http://sodipodi.sourceforge.net/DTD/sodipodi-0.dtd"
   xmlns="http://www.w3.org/2000/svg"
   xmlns:svg="http://www.w3.org/2000/svg">
  <sodipodi:namedview
     id="namedview7"
     pagecolor="#ffffff"
     bordercolor="#999999"
     borderopacity="1"
     inkscape:showpageshadow="0"
     inkscape:pageopacity="0"
     inkscape:pagecheckerboard="0"
     inkscape:deskcolor="#d1d1d1"
     inkscape:document-units="mm"
     showgrid="true"
     inkscape:zoom="1.0973349"
     inkscape:cx="493.01266"
     inkscape:cy="428.76609"
     inkscape:window-width="1920"
     inkscape:window-height="1056"
     inkscape:window-x="0"
     inkscape:window-y="1080"
     inkscape:window-maximized="1"
     inkscape:current-layer="layer1"
     showguides="false">
    <inkscape:grid
       type="xygrid"
       id="grid203" />
  </sodipodi:namedview>
  <defs
     id="defs2" />
  <g
     inkscape:label="Layer 1"
     inkscape:groupmode="layer"
     id="layer1">
    <circle
       id="path397"
       style="fill:#4d4d4d;stroke:#000000;stroke-width:0.264583"
       cx="-36.597492"
       cy="24.447432"
       r="0.032116216" />
    <path
       style="fill:#5e5c64;stroke-width:0.264583"
       id="path187"
       d="m 226.66518,117.20181 c -4.14191,0.24521 -8.28743,0.0216 -12.42525,-0.18494 -6.01538,-0.32463 -12.01504,-0.87923 -18.0329,-1.16623 -5.06082,-0.24136 -6.89516,-0.2454 -12.1611,-0.36257 -9.20237,-0.2358 -18.40817,-0.24612 -27.61198,-0.38374 -6.95261,-0.10396 -9.16341,-0.17358 -16.13143,-0.34207 -15.77771,-0.17214 -31.54857,-0.66619 -47.32167,-1.05172 -7.530952,-0.0648 -15.057977,-0.36126 -22.587921,-0.47258 -3.091029,-0.0457 -7.994356,-0.0504 -11.111679,-0.0591 -4.206552,5.3e-4 -8.412618,-0.0604 -12.618741,-0.10931 -0.890696,-0.0104 -2.992091,-0.20705 -3.980236,0.31648 -0.346871,0.18378 -0.511503,0.59561 -0.767254,0.89341 -0.05791,0.0269 -0.115814,0.0539 -0.173721,0.0808 -0.04993,-0.0266 -0.08753,0.044 -0.0376,0.0706 v 0 c 0.06079,0.0902 0.121581,0.18031 0.182372,0.27046 0.260262,0.33321 0.415311,0.78704 0.780793,0.99962 0.925539,0.53834 3.170203,0.36574 3.977177,0.36619 4.211558,0.002 8.423082,-0.0179 12.634597,-0.0331 11.217177,-0.0108 22.430692,0.22898 33.645493,0.44019 15.77417,0.26179 31.54529,0.67652 47.31972,0.92781 5.38589,0.10919 10.77134,0.24085 16.1575,0.33612 9.19378,0.16261 18.38985,0.12706 27.58321,0.32311 5.07491,0.12919 7.17428,0.14681 12.06826,0.39664 6.02814,0.30773 12.04559,0.81189 18.07564,1.08835 2.78981,0.10685 3.59145,0.16387 6.25829,0.1748 1.39873,0.006 2.9647,-0.001 4.37052,-0.13573 0.86837,-0.0832 1.37683,-0.21246 2.18666,-0.38756 1.4114,-0.1971 1.13266,-2.19313 -0.27875,-1.99603 z"
       inkscape:export-filename="../fig-rnn.svg"
       inkscape:export-xdpi="96"
       inkscape:export-ydpi="96" />
    <path
       style="fill:#5e5c64;stroke-width:0.264583"
       id="path195"
       d="m 188.78357,61.448764 c -0.29736,0.186637 -0.6055,0.357108 -0.89207,0.559911 -0.78925,0.558536 -1.51521,1.208834 -2.25048,1.833179 -0.98691,0.83802 -2.5333,2.138717 -3.44707,2.956385 -0.77098,0.689896 -1.52252,1.401202 -2.28378,2.101803 -4.3676,4.063807 -8.4612,8.407318 -12.72519,12.576423 -0.96266,0.941232 -1.94353,1.863649 -2.91529,2.795474 -6.26245,5.874602 -12.92011,11.307331 -19.51053,16.805511 -7.25341,6.04831 -14.53273,12.06517 -21.76552,18.13815 -8.23696,7.01052 -16.47224,14.02295 -24.709119,21.03357 -7.213021,6.13334 -14.30755,12.40441 -21.507815,18.55239 -2.258761,1.87881 -4.470225,3.81404 -6.72397,5.69875 -0.880586,0.73639 -1.964825,1.34475 -2.369852,2.51453 -0.131886,0.3809 -0.02117,0.80589 -0.03175,1.20884 -0.04567,0.0334 0.0016,0.098 0.04721,0.0646 v 0 c 0.40671,0.0979 0.803648,0.33321 1.220129,0.29385 1.276519,-0.12065 2.13583,-1.10371 3.031646,-1.86364 2.24238,-1.90224 4.44097,-3.85603 6.685407,-5.75592 7.150819,-6.19604 14.230831,-12.47404 21.441294,-18.60124 8.25238,-6.98164 16.43326,-14.04737 24.69183,-21.02176 7.26006,-6.03876 14.53544,-12.05902 21.78917,-18.10535 6.64314,-5.538088 13.35247,-11.011256 19.65857,-16.936364 0.98467,-0.948119 1.98039,-1.884903 2.95401,-2.844361 4.22343,-4.161973 8.26269,-8.511061 12.58301,-12.575757 2.68996,-2.539709 5.45512,-4.991999 8.21399,-7.455889 1.39517,-0.837094 0.21134,-2.810169 -1.18383,-1.973075 z" />
    <path
       style="fill:#5e5c64;stroke-width:0.264583"
       id="path209"
       d="m 125.89055,53.333723 c -0.57208,3.275225 -0.62511,6.613618 -0.68643,9.929294 -0.0936,4.579329 0.22689,9.150064 0.50616,13.717434 0.32277,5.137092 0.65649,10.271347 0.90829,15.412691 0.23557,3.275488 0.0965,6.556197 0.0987,9.835338 0.002,0.49545 0.006,0.99089 0.007,1.48634 0.002,0.82884 -0.0118,1.97269 0.0229,2.80363 0.0713,1.71219 0.23954,3.42283 0.39213,5.12899 0.5028,4.08293 1.24855,8.12752 1.6847,12.21929 0.25857,2.37026 0.26312,4.7539 0.28823,7.13443 0.0914,3.4256 0.47261,6.83664 0.86264,10.23869 0.60996,5.82026 0.6724,11.68421 0.7273,17.5315 0.005,2.12814 0.005,4.25519 0.0886,6.38198 0.0451,1.15228 0.0688,3.03674 0.42188,4.16137 0.17902,0.57028 0.54666,1.06313 0.81999,1.5947 0.17704,0.33491 0.35408,0.66981 0.53113,1.00472 0.004,0.0564 0.0836,0.0511 0.0798,-0.005 v 0 c 0.13097,-0.34738 0.26194,-0.69476 0.39291,-1.04215 0.22716,-0.55073 0.55056,-1.07101 0.68149,-1.65219 0.27905,-1.23865 0.12119,-2.91062 0.0767,-4.15593 -0.0754,-2.10778 -0.0927,-4.2161 -0.11326,-6.32501 -0.0953,-5.9462 -0.19299,-11.9032 -0.73282,-17.82852 -0.36503,-3.30117 -0.72083,-6.60979 -0.80411,-9.93245 -0.0208,-2.48185 -0.0224,-4.96917 -0.3261,-7.43712 -0.19719,-1.7207 -0.22548,-2.06916 -0.48043,-3.84478 -0.39766,-2.76961 -0.92676,-5.52172 -1.18892,-8.30974 -0.26765,-3.05128 -0.45247,-6.10494 -0.41949,-9.16997 -0.037,-3.323274 0.0901,-6.649799 -0.1868,-9.96747 -0.27552,-5.154096 -0.59137,-10.304176 -0.93509,-15.454069 -0.3185,-4.499506 -0.7168,-8.996034 -0.69807,-13.511884 -0.0148,-1.801969 -0.0356,-2.152057 0.0179,-3.918558 0.0587,-1.934975 0.2383,-3.864076 0.25804,-5.80045 0.15889,-1.622555 -2.13574,-1.847263 -2.29464,-0.224711 z" />
    <path
       style="fill:#813d9c;stroke-width:0.264583"
       id="path462"
       d="m 60.989879,75.894865 c 0.443169,-0.385005 0.657868,-0.610549 1.208135,-0.896683 0.26847,-0.139602 1.516581,-0.772208 1.769467,-0.165812 0.0462,0.110773 -0.037,0.237167 -0.0555,0.355751 0.233538,1.769959 -0.09178,3.717724 -1.278128,5.106741 0.104545,-0.726776 -7.93e-4,-0.216437 1.7627,0.701937 0.0522,0.02718 0.02774,0.170302 0.08456,0.154991 0.115906,-0.03123 0.15644,-0.189178 0.261019,-0.248116 0.168458,-0.09494 0.600345,-0.126016 0.769911,-0.146442 0.111893,0.03525 0.240819,0.03671 0.335677,0.105733 0.09952,0.07241 0.152464,0.193765 0.218578,0.297574 0.561231,0.881185 0.802523,1.835851 0.764744,2.891499 -0.01767,0.49416 -0.136459,0.979493 -0.204687,1.469243 -0.204706,0.61981 -0.58624,2.50064 -1.555809,2.59097 -0.09988,0.009 -0.16429,-0.12979 -0.202678,-0.22247 -0.174255,-0.42069 0.0041,-1.00437 0.05786,-1.38561 0.131128,-0.53097 0.262258,-1.06195 0.393386,-1.59292 0.289647,-0.567806 0.682408,-1.093906 0.868942,-1.703416 0.203752,-0.665771 0.190402,-1.379424 0.285601,-2.069137 0.02683,-0.03286 -0.01963,-0.07081 -0.04648,-0.03794 v 0 c -0.762678,0.361103 -1.686375,0.491638 -2.288035,1.083313 -1.144042,1.12505 -1.287674,3.26223 -1.53797,4.68425 0.215114,0.77848 0.194575,1.66529 0.645343,2.33546 0.361995,0.53819 1.006229,0.89595 1.635061,1.05487 0.527976,0.13343 1.117386,-0.0164 1.617025,-0.233 1.544719,-0.66972 2.158241,-2.77915 2.54698,-4.20719 0.07485,-0.67498 0.226081,-1.345821 0.224546,-2.024938 -0.0049,-2.151028 -0.903158,-4.745688 -3.204181,-5.388761 -0.374536,-0.104671 -0.777557,-0.01842 -1.166336,-0.02761 -0.346654,0.108395 -0.71452,0.163928 -1.039969,0.325184 -0.333433,0.165208 -0.636873,0.392967 -0.91296,0.642461 -0.209339,0.189174 -1.095198,1.327449 -0.903584,1.641245 0.373512,0.611674 1.067525,1.024697 1.746562,1.253969 0.246878,0.08336 0.427093,-0.29863 0.640641,-0.447945 0.191659,-0.232789 0.410128,-0.445881 0.574977,-0.698365 1.012732,-1.551099 1.589415,-3.842195 1.314362,-5.678988 -0.084,-0.560977 -0.316529,-1.089411 -0.474792,-1.634119 -0.408138,-0.416481 -0.71933,-0.958022 -1.224409,-1.249442 -0.406937,-0.234791 -0.916128,-0.264282 -1.38588,-0.256635 -1.282359,0.02088 -2.505302,0.873696 -3.3446,1.767533 -0.231773,0.246835 -0.408816,0.539866 -0.613225,0.809799 -0.737526,1.211371 0.975611,2.25439 1.713137,1.043019 z" />
    <path
       style="fill:#813d9c;stroke-width:0.264583"
       id="path464"
       d="m 70.526767,82.295647 c 0.953947,-1.060863 1.537179,-2.377826 2.223029,-3.612687 0.164581,-0.296326 0.306104,-0.608079 0.504494,-0.882917 0.02363,-0.03274 0.159801,0.0131 0.119745,0.01812 -0.563036,0.07089 -1.128609,0.11997 -1.692912,0.179956 0.406365,1.850022 0.747334,3.895595 2.04911,5.372862 0.310362,0.352203 0.623689,0.911317 1.092576,0.888603 0.573384,-0.02778 0.930349,-0.672761 1.395521,-1.009142 0.04204,-0.0057 0.03397,-0.06516 -0.0081,-0.05945 v 0 c 0.0275,-0.276956 0.178983,-0.569802 0.08251,-0.830866 -0.07351,-0.198919 -0.378669,-0.20674 -0.523264,-0.361868 -0.240069,-0.257559 -0.447005,-0.549402 -0.614698,-0.858996 -0.551027,-1.0173 -0.63046,-1.624468 -0.914932,-2.752096 -0.120579,-0.477967 -0.239168,-0.956434 -0.358751,-1.43465 -0.72788,-0.284186 -1.404877,-0.788543 -2.183644,-0.852561 -0.269306,-0.02215 -0.369022,0.39987 -0.5086,0.631242 -0.177689,0.294545 -0.29015,0.623809 -0.436362,0.935178 -0.502933,1.071033 -0.976288,2.179677 -1.787069,3.063891 -1.106887,1.104016 0.454429,2.669392 1.561316,1.565376 z" />
    <path
       style="fill:#813d9c;stroke-width:0.264583"
       id="path468"
       d="m 70.658799,71.547645 c -0.0259,0.357344 -0.393189,1.62359 -0.116393,1.927016 0.240133,0.263234 0.612357,0.36448 0.918536,0.54672 -0.0076,0.04174 0.0514,0.05251 0.05902,0.01077 v 0 c 0.349885,-0.05709 0.73121,-0.01548 1.04965,-0.171267 0.36291,-0.177562 0.488884,-1.455502 0.602914,-1.794542 0.366781,-1.777474 -2.146949,-2.296179 -2.51373,-0.518705 z" />
    <path
       style="fill:#813d9c;stroke-width:0.264583"
       id="path476"
       d="m 179.26707,44.999179 c -1.47838,0.359246 -2.89938,0.904954 -4.12071,1.838481 -1.11024,0.848622 -1.80378,1.564116 -1.95835,3.069188 -0.0668,0.650996 0.20464,1.292743 0.30697,1.939112 0.48632,0.562859 0.87068,1.233345 1.45897,1.688576 1.71871,1.329981 5.51017,1.970408 7.05767,1.99e-4 0.31187,-0.397063 0.33324,-0.953228 0.49986,-1.42984 0.0332,-0.02643 -0.004,-0.07337 -0.0374,-0.04693 v 0 c -0.40391,-0.02215 -0.80787,-0.08955 -1.21172,-0.06645 -0.72692,0.04158 -1.41586,0.387855 -2.14317,0.422103 -1.23358,0.05809 -2.34232,-0.380704 -3.30715,-1.116399 -0.21531,-0.487934 -0.57954,-0.99518 -0.26427,-1.573347 0.19992,-0.366633 0.55392,-0.629782 0.87588,-0.895728 0.953,-0.787194 2.08632,-1.24051 3.2623,-1.570437 1.59702,-0.296204 1.17813,-2.554732 -0.41889,-2.258531 z" />
    <path
       style="fill:#813d9c;stroke-width:0.264583"
       id="path478"
       d="m 176.62905,51.444542 c 0.28053,-0.06362 2.70068,-0.606573 2.82948,-0.663175 0.50956,-0.223928 0.9082,-0.647271 1.39295,-0.920774 0.38032,-0.214577 0.79605,-0.359227 1.19407,-0.53884 0.0422,-0.0044 0.036,-0.06405 -0.006,-0.05968 v 0 c -0.44077,-0.09284 -0.88413,-0.174156 -1.32232,-0.278516 -0.57413,-0.136737 -1.12444,-0.413988 -1.71383,-0.444585 -0.41193,-0.02138 -2.35919,0.43488 -2.8745,0.549466 -1.66602,0.353787 -1.16569,2.709894 0.50033,2.356106 z" />
    <path
       style="fill:#813d9c;stroke-width:0.264583"
       id="path484"
       d="m 184.25611,43.588161 c 0.0384,2.389505 0.25637,4.779378 0.50529,7.155024 0.0847,0.808752 0.35543,3.7372 0.78655,4.690366 0.16575,0.366454 0.55176,0.585322 0.82764,0.877983 0.0164,0.05336 0.0328,0.106717 0.0492,0.160078 -0.0138,0.04012 0.0429,0.05964 0.0567,0.01953 v 0 c 0.0577,-0.06657 0.11535,-0.133131 0.17302,-0.199695 0.22901,-0.358198 0.59661,-0.659169 0.68702,-1.074592 0.17731,-0.814705 -0.23024,-4.147222 -0.28038,-4.682458 -0.21319,-2.275469 -0.44318,-4.556016 -0.46309,-6.843717 0.0725,-1.656028 -2.26949,-1.758546 -2.34198,-0.102516 z" />
    <path
       style="fill:#813d9c;stroke-width:0.264583"
       id="path486"
       d="m 188.23779,43.495845 c -5.3e-4,2.864893 0.1721,5.7364 0.45664,8.587185 0.0758,0.759409 0.0757,1.535866 0.27225,2.273307 0.14989,0.562391 0.50232,1.050084 0.75348,1.575126 0.20313,0.275817 0.40625,0.551632 0.60937,0.827447 0.004,0.0422 0.0641,0.03598 0.0597,-0.0062 v 0 c 0.14141,-0.316052 0.28281,-0.632108 0.42422,-0.94816 0.12547,-0.557509 0.34821,-1.10177 0.3764,-1.672527 0.0369,-0.748215 -0.12178,-1.493298 -0.18318,-2.239904 -0.22625,-2.750878 -0.43586,-5.504709 -0.47397,-8.266078 0.0921,-1.622727 -2.20284,-1.752899 -2.29488,-0.130172 z" />
    <path
       style="fill:#813d9c;stroke-width:0.264583"
       id="path488"
       d="m 187.12175,45.193486 c 1.29078,-0.393216 2.58323,-0.727387 3.94686,-0.654291 0.43757,0.02347 1.63016,0.106254 1.96391,0.655209 0.10623,0.174718 -0.0392,0.407064 -0.0588,0.610595 -0.0439,0.347059 -0.0161,0.710999 -0.13172,1.04118 -0.48558,1.387139 -1.63593,2.494812 -2.76841,3.363659 -0.37833,0.290258 -0.79474,0.527896 -1.17839,0.811093 0.26914,0.722389 0.33189,1.560399 0.80741,2.167165 0.1843,0.23517 0.59798,-0.0094 0.89631,0.0068 1.57718,0.08586 2.64846,0.520357 4.04481,1.205326 1.24953,0.675293 0.56417,0.599715 2.06721,-0.07454 0.0358,0.02273 0.068,-0.02791 0.0322,-0.05065 v 0 c -0.10492,-1.744308 0.30026,-1.113221 -1.06152,-1.983724 -0.41113,-0.202853 -0.81161,-0.428884 -1.23338,-0.60856 -1.24716,-0.531291 -2.53419,-0.851175 -3.8877,-0.925894 -0.1495,-0.0083 -0.43951,-0.121462 -0.4483,0.02801 -0.0413,0.702058 0.21602,1.389856 0.32403,2.084784 0.58285,-0.596919 -0.33359,0.318093 1.15974,-0.892985 0.4732,-0.383757 0.95938,-0.758785 1.37463,-1.204597 0.99313,-1.066229 1.93158,-2.38193 2.24177,-3.845346 0.13957,-0.658492 -0.0185,-1.346121 -0.0277,-2.019181 -0.3501,-0.610682 -0.54898,-1.337889 -1.05029,-1.832044 -0.39537,-0.389723 -0.97784,-0.549166 -1.51347,-0.695132 -1.60277,-0.436782 -3.68795,-0.115085 -5.22661,0.421667 -0.483,0.168492 -0.93066,0.424966 -1.39599,0.637447 -1.24026,0.794391 -0.11683,2.548393 1.12344,1.754003 z" />
    <path
       style="fill:#813d9c;stroke-width:0.264583"
       id="path490"
       d="m 195.47908,40.211109 c 0.2574,1.670542 0.54046,3.337478 0.83488,5.001885 0.1652,0.93391 0.31505,2.214282 0.78106,3.097366 0.13985,0.265027 0.39672,0.449233 0.59507,0.673851 0.0748,0.09252 0.14971,0.185031 0.22457,0.277548 -0.0131,0.04036 0.044,0.05885 0.0571,0.01849 v 0 c 0.14066,-0.110675 0.28131,-0.22135 0.42197,-0.332028 0.17091,-0.311941 0.43613,-0.588476 0.51273,-0.935826 0.19612,-0.889362 -0.15345,-2.381747 -0.28918,-3.191309 -0.2756,-1.643853 -0.54989,-3.287831 -0.81292,-4.933757 -0.22895,-1.644208 -2.55421,-1.320421 -2.32526,0.323787 z" />
    <path
       style="fill:#813d9c;stroke-width:0.264583"
       id="path492"
       d="m 197.32512,41.424026 c 0.44009,-0.648732 1.27151,-1.863302 2.0637,-2.101282 0.22589,-0.06786 0.39615,0.07144 0.56728,0.171188 0.28024,0.625258 0.48813,1.556798 0.15434,2.201813 -0.077,0.148767 -0.22806,0.245409 -0.34209,0.368112 -0.79429,0.363135 -1.65394,0.378703 -2.50734,0.414784 -0.20659,0.0087 -0.44845,-0.08667 -0.61963,0.02932 -0.26187,0.177443 -0.37149,0.512088 -0.55724,0.768133 -0.0382,-0.01836 -0.0642,0.03575 -0.026,0.0541 v 0 c 0.0908,0.388702 0.007,0.867979 0.27234,1.166106 0.23482,0.263758 0.6687,0.251426 1.02018,0.285681 0.83552,0.08144 2.24704,-0.131006 2.98012,-0.464769 0.52268,-0.237972 0.94868,-0.647547 1.42302,-0.97132 0.22686,-0.405239 0.52187,-0.779259 0.68059,-1.215713 0.49105,-1.35032 0.0703,-3.469201 -1.02455,-4.429924 -0.29675,-0.260403 -0.69,-0.383895 -1.03501,-0.575839 -0.39222,-0.03891 -0.78497,-0.160573 -1.17668,-0.116726 -1.90055,0.212748 -2.99218,2.117817 -3.78628,3.621079 -0.56234,1.352836 1.35086,2.148099 1.9132,0.795264 z" />
    <path
       style="fill:#813d9c;stroke-width:0.264583"
       id="path494"
       d="m 91.518424,90.567561 c 0.0011,-0.32306 0.06233,-0.65161 0.003,-0.96918 -0.240951,-1.2904 -1.276995,-2.04648 -2.600415,-1.60429 -0.930926,0.31105 -1.051237,0.9394 -1.43247,1.70749 -0.02527,0.83035 -0.182406,1.32702 0.351788,2.05669 0.662955,0.90555 1.898996,1.2447 2.950815,0.91047 0.348533,-0.11075 0.644705,-0.34543 0.967058,-0.51814 0.230756,-0.28138 0.516048,-0.52576 0.692272,-0.84415 0.552865,-0.99888 0.495008,-2.3634 -0.530307,-3.07382 -0.35536,-0.24622 -0.813364,-0.37601 -1.245458,-0.36189 -0.464592,0.0152 -0.880901,0.2972 -1.32135,0.4458 -0.278635,0.29957 -0.622014,0.54996 -0.835901,0.89872 -0.657937,1.07282 -0.462457,2.45859 0.648573,3.15343 0.777521,0.48626 1.289249,0.29549 2.100191,0.19986 0.338339,-0.22813 0.728115,-0.39423 1.015016,-0.68441 0.901756,-0.91207 1.130549,-2.83091 -0.197591,-3.51634 -0.279349,-0.14417 -0.62312,-0.0837 -0.93468,-0.12552 -0.582451,1.00871 -0.472919,0.53518 -0.54261,1.35336 -0.02471,0.0345 0.02405,0.0694 0.04877,0.035 v 0 c 0.471429,0.0567 0.269735,-0.06 0.356995,0.60102 -0.06519,-0.0249 -0.152906,-0.0195 -0.19558,-0.0747 -0.136817,-0.17702 -0.05338,-0.44027 0.04026,-0.38833 0.148945,0.0826 -0.06841,0.47365 0.0069,0.60319 -0.07675,0.0358 -0.160837,0.0588 -0.230256,0.10732 -0.219019,0.15301 0.03226,0.10013 -0.162912,0.31564 -0.219596,0.24247 -0.202456,-0.10615 -0.189113,-0.2029 0.01461,-0.10581 0.06829,-0.20242 0.102428,-0.30362 0.0028,-0.10824 0.06252,-0.62851 0.201133,-0.67257 0.242499,-0.0771 0.0783,0.70409 0.01656,0.70738 -0.05612,0.0668 -0.09583,0.15195 -0.168351,0.20048 -0.173509,0.11611 -0.326131,0.0921 -0.508379,0.15936 -0.04953,0.0183 -0.08511,0.0797 -0.137869,0.0779 -0.16352,-0.005 -0.201303,-0.16657 -0.256889,-0.27542 -0.0114,-0.0695 -0.02437,-0.13884 -0.03424,-0.20861 -0.0079,-0.0555 0.01191,-0.1202 -0.01886,-0.16701 -0.06007,-0.0914 -0.188886,-0.12764 -0.238771,-0.22494 -0.04188,-0.0817 -0.109141,-0.27052 -0.01744,-0.27483 0.262364,-0.0123 0.20918,0.70642 0.392263,0.68337 -0.193865,1.34736 1.711577,1.62153 1.905445,0.27418 z" />
    <path
       style="fill:#813d9c;stroke-width:0.264583"
       id="path498"
       d="m 149.40274,52.970665 c 0.18507,-0.364374 0.66475,-1.179137 0.5967,-1.615244 -0.20925,-1.34098 -0.77426,-1.727761 -2.1796,-1.487324 -0.83615,0.143058 -1.2878,0.969264 -1.72621,1.554546 -0.09,0.355127 -0.26712,0.699048 -0.26987,1.065379 -0.009,1.250112 0.93967,2.135378 2.16971,2.13531 0.90737,-5.3e-5 1.18953,-0.3814 1.8503,-0.882518 0.16865,-0.298746 0.42061,-0.563962 0.50593,-0.896242 0.30203,-1.176229 -0.38834,-2.292784 -1.58909,-2.515393 -0.32345,-0.05997 -0.67481,-0.04063 -0.98435,0.07073 -0.32446,0.116721 -0.56682,0.39283 -0.85023,0.589243 -0.12767,0.290764 -0.33224,0.558816 -0.383,0.872289 -0.108,0.666848 0.1568,1.208537 0.65244,1.636694 0.18783,0.162264 0.43221,0.389832 0.67115,0.322606 0.31369,-0.08825 0.6321,-0.736139 0.80254,-1.048263 0.0407,-0.01191 0.0239,-0.06949 -0.0168,-0.05759 v 0 c -0.0577,-0.08608 -0.16544,-0.154887 -0.17321,-0.258249 -0.10663,-1.417553 0.42185,-0.359347 0.17241,-0.05447 -0.0483,0.05903 -0.12762,0.08352 -0.19143,0.125286 -0.0827,-0.0038 -0.17201,0.02143 -0.24801,-0.01132 -0.13324,-0.05741 -0.0167,-0.44463 0.0207,-0.493017 0.0353,-0.04568 0.11065,-0.09454 0.16039,-0.06526 0.0499,0.02938 0.0144,0.114929 0.0216,0.172394 -0.0323,0.0638 -0.0569,0.132144 -0.0969,0.191405 -0.0353,0.05227 -0.0999,0.08327 -0.12706,0.140195 -0.0438,0.09187 -0.0891,0.76849 -0.28597,0.161951 0.0548,-0.121076 0.10196,-0.24585 0.16425,-0.363225 0.049,-0.09243 0.1978,-0.164012 0.16892,-0.264583 -0.0537,-0.187164 -0.32462,-0.260512 -0.37381,-0.448921 -0.0481,-0.184161 0.0126,-0.396934 0.1103,-0.560253 0.14799,-0.247245 -0.15058,1.318167 -0.21252,0.837912 -0.8103,1.160176 0.83044,2.306108 1.64074,1.145931 z" />
    <path
       style="fill:#813d9c;stroke-width:0.264583"
       id="path500"
       d="m 154.2518,47.979795 c 0.64482,-0.384265 1.26836,-0.957157 2.08109,-0.845632 0.12357,0.01696 0.2625,0.08171 0.32135,0.19168 0.0389,0.07274 -0.0725,0.148952 -0.0969,0.22778 -0.0329,0.10646 -0.0495,0.217289 -0.0743,0.325932 -0.0171,0.17944 -0.025,0.360008 -0.0514,0.538327 -0.027,0.18288 -0.0768,0.517223 -0.19963,0.70027 -0.0298,0.04445 0.006,-0.178128 0.0522,-0.15185 2.05569,1.158465 1.33362,1.776492 2.01782,1.10885 0.54597,0.287859 1.08872,0.465537 1.38766,1.079762 0.37195,0.764225 0.33042,1.44022 0.39755,2.279192 -0.15855,0.990571 -0.053,1.577311 -0.83627,2.281026 -0.20094,0.180523 -0.47566,0.310663 -0.7457,0.317201 -0.37266,0.009 -0.88324,-0.612222 -1.00566,-0.859298 -0.125,-0.252309 -0.15184,-0.542303 -0.22776,-0.813453 0.0883,-0.984843 -0.0572,-0.835806 0.50659,-1.629233 0.14755,-0.207642 0.37486,-0.356976 0.49696,-0.580541 0.19213,-0.351829 0.28856,-0.748022 0.43284,-1.122031 0.0394,-0.01588 0.0169,-0.07151 -0.0224,-0.05565 v 0 c -0.57497,-0.08395 -1.16457,-0.405672 -1.72491,-0.251857 -1.13673,0.312039 -1.79425,1.766332 -1.93079,2.771754 -0.0829,0.610468 0.0903,1.228828 0.1355,1.843241 0.74071,1.342075 0.89615,2.265148 2.58171,2.720004 2.17443,0.586775 3.8523,-0.997384 4.45517,-2.930482 0.19529,-0.626192 0.15364,-1.302851 0.23046,-1.954276 -0.20934,-1.558431 -0.12023,-2.355856 -1.06745,-3.690861 -0.82523,-1.163074 -2.40021,-1.866022 -3.80562,-1.475161 -0.35331,0.09826 -0.63567,0.36584 -0.95351,0.548757 -0.74146,0.865629 -0.93578,0.814067 1.35178,1.9261 0.1876,0.0912 0.27061,-0.321143 0.37069,-0.504155 0.43482,-0.795134 0.45989,-1.730111 0.42637,-2.608157 -0.15195,-0.455261 -0.1828,-0.971079 -0.45586,-1.365784 -0.9517,-1.375659 -2.47941,-1.360303 -3.83295,-0.69953 -0.72962,0.356188 -1.18431,0.900179 -1.73803,1.458029 -0.8627,1.077151 0.66062,2.297195 1.52332,1.220044 z" />
    <path
       style="fill:#813d9c;stroke-width:0.264583"
       id="path502"
       d="m 164.34334,52.463482 c 0.42132,-0.573317 0.68631,-0.962895 1.16591,-1.49552 0.1649,-0.183134 0.40475,-0.305242 0.52541,-0.52012 0.10568,-0.188222 -0.29798,0.317955 -0.47842,0.43644 -0.69672,0.457502 -0.61103,-0.303138 -0.15956,1.082316 0.22565,0.747275 0.26242,1.286068 0.8847,1.823603 0.22474,0.194133 0.53061,0.266877 0.79593,0.400317 0.007,0.0419 0.0659,0.03252 0.0593,-0.0094 v 0 c 0.20571,-0.243065 0.49084,-0.43688 0.61713,-0.7292 0.36607,-0.847405 0.0499,-1.439169 -0.16125,-2.268977 -0.37562,-0.994725 -0.5979,-2.193665 -1.8473,-2.592358 -1.06276,-0.33913 -1.49816,0.441635 -1.95607,1.053409 -0.46414,0.620115 -0.75285,1.052246 -1.19047,1.687481 -0.80043,1.23371 0.94429,2.365698 1.74473,1.131991 z" />
    <path
       style="fill:#813d9c;stroke-width:0.264583"
       id="path504"
       d="m 165.26524,55.817285 c 0.18501,-0.06875 2.68367,-0.996151 2.69749,-1.006173 1.39105,-1.648484 0.64109,-1.031592 2.13473,-1.982388 0.04,-0.01421 0.0199,-0.07075 -0.0201,-0.05653 v 0 c -1.76205,0.208219 -0.78976,0.206169 -2.91268,-0.156422 -0.0621,0.0045 -2.57598,0.919282 -2.77092,0.989912 -1.56383,0.616228 -0.69235,2.82783 0.87148,2.211601 z" />
    <path
       style="fill:#813d9c;stroke-width:0.264583"
       id="path508"
       d="m 194.18631,85.631732 c 0.29709,-0.19347 0.64279,-0.32751 0.89126,-0.5804 1.17168,-1.19249 1.03068,-3.30951 -0.7247,-3.88929 -0.40071,-0.13235 -0.84333,-0.0339 -1.26499,-0.0509 -0.35551,0.16275 -0.75262,0.25513 -1.06652,0.48824 -0.9331,0.69294 -1.46321,2.15976 -0.80003,3.22919 0.66672,1.07513 1.15786,0.98647 2.22482,1.23962 0.36934,-0.0611 0.76206,-0.0402 1.10801,-0.18328 1.49732,-0.61906 2.06631,-2.54309 0.74591,-3.67436 -0.27683,-0.23718 -0.65922,-0.31143 -0.98883,-0.46714 -0.35686,0.0162 -0.7269,-0.0489 -1.07058,0.0485 -0.86491,0.24519 -2.03086,1.34072 -1.77033,2.36945 0.10145,0.40061 0.32183,0.89394 0.71832,1.01046 0.39476,0.11602 0.76281,-0.30872 1.14422,-0.46308 0.0395,0.0155 0.0614,-0.0404 0.0219,-0.0558 v 0 c 0.0834,-0.27128 0.07,-0.59461 0.2502,-0.81384 0.0819,-0.0996 0.1302,0.24135 0.11515,0.36947 -0.008,0.0721 -0.10338,0.1482 -0.17398,0.13116 -0.0387,-0.009 0.055,-0.41249 0.0836,-0.45093 0.0255,-0.1462 0.0334,-0.36522 0.2286,-0.38804 0.0546,-0.006 0.28308,0.0475 0.17494,0.19083 -0.0571,0.0757 -0.1656,0.0926 -0.2484,0.13886 -0.0904,0.0203 -0.18085,0.0407 -0.27128,0.061 -0.0481,0.0584 -0.0717,0.15425 -0.14439,0.17518 -0.0599,0.0173 -0.11806,-0.0461 -0.16605,-0.0858 -0.23894,-0.19777 -0.056,-0.41943 0.0947,-0.60359 0.0408,-0.10631 0.10121,-0.45674 0.28011,-0.43889 0.26397,0.0264 0.10317,0.44834 0.0125,0.53877 -1.52353,0.42137 -0.92761,2.57596 0.59591,2.15459 z" />
    <path
       style="fill:#813d9c;stroke-width:0.264583"
       id="path510"
       d="m 200.23438,86.575732 c 0.10028,-0.0482 1.02375,-0.55791 1.21167,-0.39569 0.12383,0.1069 -0.29413,0.17089 -0.38073,0.30968 -0.0922,0.14781 -0.11587,0.33285 -0.12863,0.50662 0.0231,1.29466 0.0501,0.66922 -0.067,1.87685 -0.24512,1.09107 -0.52678,1.20853 0.97897,2.2427 0.20308,0.13948 0.48439,-0.11404 0.73073,-0.11085 0.15469,0.002 0.48683,0.36279 0.53701,0.40978 0.0963,0.18393 0.22779,0.35337 0.28895,0.55178 0.35748,1.15968 0.39514,3.35678 -0.70127,4.1674 -0.16415,0.12136 -0.39634,0.098 -0.59451,0.14701 -0.16387,-0.0854 -0.35984,-0.12655 -0.49159,-0.25608 -0.45038,-0.44279 -0.69479,-1.03945 -0.49994,-1.68787 0.0917,-0.30505 0.39951,-0.49772 0.57166,-0.76572 1.09758,-1.70867 -0.0126,-0.47221 1.57315,-1.97999 0.0399,-0.0145 0.0194,-0.0709 -0.0205,-0.0564 v 0 c -1.36956,0.0494 -2.56771,-0.1795 -3.59838,1.11633 -1.56761,1.97092 -0.59019,4.85696 1.69079,5.69559 0.58417,0.21478 1.24464,0.0211 1.86696,0.0316 0.49136,-0.31004 1.06737,-0.51521 1.47408,-0.9301 1.59078,-1.62279 1.65873,-4.99105 0.63997,-6.90441 -0.24615,-0.46229 -0.67669,-0.79955 -1.01503,-1.19933 -0.39924,-0.19125 -0.77018,-0.45897 -1.19774,-0.57375 -1.77541,-0.47662 -1.19252,0.40991 -0.23289,1.4579 0.26319,0.28743 -0.29167,-2.40641 0.24325,-1.1436 0.11977,-1.29283 0.33979,-3.39203 -0.66964,-4.42825 -1.25103,-1.28423 -2.52555,-0.47417 -3.57149,0.34954 -1.10961,0.96319 0.25253,2.53241 1.36215,1.56923 z" />
    <path
       style="fill:#813d9c;stroke-width:0.264583"
       id="path512"
       d="m 207.57274,91.620372 c 0.23477,-0.15748 0.44921,-0.35063 0.70432,-0.47246 0.15675,-0.0749 0.33794,-0.13178 0.50994,-0.10747 0.0587,0.008 0.0263,0.16858 -0.0327,0.17494 -0.80565,0.0869 -0.51505,-0.54776 -1.0043,0.36337 -0.57898,0.86872 -0.94164,1.6713 0.20112,2.61317 0.69286,0.57104 3.00746,0.11191 3.83929,-0.008 1.13734,-0.93033 0.63056,-0.46652 1.53878,-1.37102 0.042,-0.006 0.033,-0.0657 -0.009,-0.0593 v 0 c -1.11274,-0.59578 -0.50916,-0.29535 -1.81862,-0.88529 -0.3611,0.0374 -0.72196,0.0772 -1.0833,0.1121 -0.3056,0.0295 -0.62081,0.002 -0.91746,0.0813 -0.0734,0.0196 -0.11935,0.11889 -0.11817,0.19483 0.006,0.36841 0.0875,0.73174 0.13819,1.09669 0.006,0.0466 -0.0246,-0.098 -0.005,-0.14096 0.10623,-0.2395 0.24969,-0.46069 0.37453,-0.69103 0.2942,-0.73862 0.76091,-1.57312 0.42319,-2.42597 -0.63606,-1.60625 -2.21068,-1.50277 -3.42223,-0.79064 -0.31961,0.18787 -0.57383,0.46958 -0.86075,0.70436 -1.13957,1.09079 0.40304,2.70239 1.54261,1.6116 z" />
    <path
       style="fill:#813d9c;stroke-width:0.264583"
       id="path518"
       d="m 58.809032,147.17857 c 0.06763,-0.31328 0.213963,-0.61953 0.20289,-0.93983 -0.0387,-1.11937 -0.879101,-2.28252 -2.134047,-2.1433 -1.175961,0.13045 -1.276733,0.65444 -1.846016,1.49238 -0.0612,0.39096 -0.207222,0.77787 -0.1836,1.17289 0.07227,1.20866 1.010132,2.31955 2.241738,2.47345 1.105892,0.13819 1.360244,-0.20954 2.204659,-0.73783 0.19866,-0.28072 0.483198,-0.51727 0.595979,-0.84216 0.409523,-1.17967 -0.113876,-2.36074 -1.167889,-2.97003 -0.80976,-0.4681 -1.084924,-0.32771 -1.960867,-0.27979 -0.314367,0.16969 -0.674169,0.27393 -0.943107,0.50907 -1.001196,0.87541 -0.998225,2.52397 -0.05204,3.43363 0.189257,0.18195 0.444474,0.27953 0.666711,0.4193 1.14215,-0.63575 0.734054,-0.24857 1.346298,-1.01761 0.04007,-0.0139 0.02035,-0.0706 -0.01971,-0.0567 v 0 c -0.507529,-0.33514 -0.387752,-0.0968 -0.166584,-0.78278 -0.19186,-0.0769 -0.395843,0.009 -0.494657,-0.22809 0.254973,-0.27853 0.34844,-0.0481 0.637389,-0.11771 0.06621,-0.016 0.131252,-0.10915 0.190098,-0.0749 0.05182,0.0302 -0.0069,0.11975 -0.01029,0.17962 -0.05454,0.11769 -0.05921,0.27818 -0.165855,0.35203 -0.06274,0.0434 -0.148351,0.0393 -0.224432,0.0453 -0.298252,0.0236 -0.413399,-0.16712 -0.49389,-0.42866 -0.01656,-0.0648 -0.0059,-0.14386 -0.04971,-0.19439 -0.151082,-0.17421 -0.32282,-0.061 -0.326826,-0.34032 -5.29e-4,-0.044 0.129119,-0.29138 0.243776,-0.16742 0.05396,0.0583 0.02249,0.15734 0.03373,0.23601 -0.712613,1.3267 1.163634,2.33449 1.876247,1.00779 z" />
    <path
       style="fill:#813d9c;stroke-width:0.264583"
       id="path526"
       d="m 171.88546,164.73786 c 0.78179,-0.9426 1.41894,-2.34926 0.294,-3.37501 -0.27813,-0.25361 -0.64615,-0.43391 -1.01878,-0.48701 -0.40199,-0.0573 -0.80415,0.11333 -1.20622,0.16999 -0.32282,0.21652 -0.68789,0.38052 -0.96844,0.64955 -1.11417,1.06836 -1.60821,3.15979 -0.32252,4.33102 0.32795,0.29876 0.78887,0.40609 1.18331,0.60914 0.4674,-0.0331 0.95266,0.0329 1.40219,-0.0992 1.55295,-0.45668 2.91172,-2.27744 2.4894,-3.92847 -0.0973,-0.38021 -0.37141,-0.69146 -0.55711,-1.03719 -0.30833,-0.21154 -0.58078,-0.48856 -0.92499,-0.63459 -1.3918,-0.59048 -2.99474,0.23139 -3.43766,1.64764 -0.10928,0.34943 -0.0773,0.72813 -0.11603,1.0922 0.0807,0.32034 0.1139,0.65653 0.24203,0.96101 0.31725,0.75389 1.09341,1.53412 1.97663,1.53028 0.28826,-10e-4 0.65273,-0.0157 0.82995,-0.24307 0.19223,-0.24664 0.0583,-0.62269 0.0875,-0.93404 0.0119,-0.11814 0.0237,-0.23629 0.0356,-0.35444 0.0325,-0.0272 -0.006,-0.0732 -0.0385,-0.046 v 0 c -0.11218,-0.0143 -0.22436,-0.0286 -0.33654,-0.0429 -0.13332,-0.18692 -0.32207,-0.34478 -0.39998,-0.56075 -0.0215,-0.0595 0.12769,-0.0465 0.18793,-0.0271 0.18982,0.0611 0.0254,0.24228 -0.2024,-0.0194 -0.0585,-0.0672 -0.0963,-0.14998 -0.14448,-0.22497 -0.19716,-0.47708 -0.10356,-0.84782 0.45912,-0.89886 0.0638,0.0113 0.14001,-0.006 0.19131,0.034 0.60411,0.46563 -0.60646,1.55317 -1.00847,1.75108 -0.066,0.0366 -0.12296,0.10292 -0.19816,0.10984 -0.72371,0.0666 -0.18492,-1.40204 0.16445,-1.57004 0.0158,-0.17242 -0.0857,-0.46694 0.0338,-0.5985 0.0305,-0.0336 0.13063,-0.052 0.13607,-0.007 0.0292,0.24217 -0.25814,0.57625 -0.3631,0.73062 -1.04101,1.08198 0.48915,2.55419 1.53016,1.4722 z" />
    <path
       style="fill:#813d9c;stroke-width:0.264583"
       id="path528"
       d="m 181.22103,158.39823 c 0.59305,-0.23064 2.33724,-0.97491 2.89913,-0.39366 0.0918,0.0949 -0.22658,0.4159 -0.23334,0.42401 -0.0699,0.20485 -0.13007,0.41329 -0.20974,0.61455 -0.10334,0.26103 -0.21128,0.52096 -0.3388,0.77107 -0.10276,0.20155 -0.21225,0.40213 -0.35063,0.58111 -0.0173,0.0224 -0.11014,-0.0186 -0.082,-0.0215 1.62497,-0.16581 1.13356,-0.47373 1.79132,0.68688 0.0283,0.0833 0.006,0.21135 0.0848,0.24987 0.10694,0.0521 0.23618,-0.038 0.35511,-0.0355 0.1543,0.003 0.31296,0.005 0.46001,0.0523 0.61679,0.19644 0.85744,0.94178 1.12174,1.44734 0.11214,0.35142 0.27083,0.69126 0.33641,1.05426 0.18634,1.0313 0.03,2.2309 -0.94472,2.84205 -0.2268,0.14221 -0.50543,0.22704 -0.77297,0.2179 -0.26211,-0.009 -0.49279,-0.17972 -0.73918,-0.26959 -0.50695,-0.85931 -0.53095,-1.35146 0.0717,-2.17177 0.18102,-0.24638 0.43787,-0.43247 0.60908,-0.68576 0.2228,-0.32961 0.26346,-0.79185 0.56508,-1.05128 0.29212,-0.25127 0.7289,-0.25013 1.09336,-0.3752 0.0421,-0.005 0.0345,-0.0649 -0.008,-0.0595 v 0 c -0.67922,-0.0343 -2.68237,-0.18788 -3.20001,0.0592 -1.15209,0.54988 -1.81456,2.19702 -1.75737,3.3721 0.0328,0.67292 0.25309,1.36801 0.6464,1.915 0.41327,0.57473 1.1147,0.87286 1.67204,1.30929 0.67427,0.0325 1.36278,0.23907 2.02282,0.0975 1.95027,-0.41837 3.04971,-2.42122 3.18559,-4.24863 0.0998,-1.34202 -0.28601,-2.03016 -0.72134,-3.23492 -0.68585,-1.06961 -0.84724,-1.62899 -2.02042,-2.25103 -0.98436,-0.52193 -2.55137,-0.47537 -3.45485,0.22041 -0.34621,0.26662 -0.55796,0.67265 -0.83695,1.00898 0.0946,0.49468 -0.1001,1.15805 0.2838,1.48405 1.67503,1.4224 2.89437,-1.45147 3.17553,-2.45939 0.13128,-0.47062 0.16855,-0.96253 0.25282,-1.44379 -0.13823,-0.48821 -0.14358,-1.03573 -0.41468,-1.46464 -0.24581,-0.38888 -0.65251,-0.67457 -1.06554,-0.8772 -1.38399,-0.67897 -3.17975,0.0979 -4.4446,0.67857 -1.3838,0.68449 -0.41578,2.64149 0.96803,1.95699 z" />
    <path
       style="fill:#813d9c;stroke-width:0.264583"
       id="path530"
       d="m 191.46174,163.19004 c 0.51575,-0.51335 1.01894,-1.039 1.52564,-1.56119 0.006,-0.006 0.42373,-0.44826 0.50319,-0.47839 0.03,-0.0113 0.0224,0.06 0.0337,0.09 -0.64703,-0.0597 -1.33465,-0.4125 -1.94109,-0.17918 -0.26915,0.10356 0.17008,0.55157 0.27316,0.8209 0.12916,0.33748 0.28032,0.66614 0.42304,0.99812 0.58509,1.36101 1.11305,2.71649 1.58868,4.12012 0.11258,0.40731 0.26293,0.806 0.33775,1.22189 0.041,0.22823 0.0702,0.47246 0.007,0.69563 -0.0196,0.0693 -0.16149,-0.069 -0.16381,-0.14101 -0.005,-0.15881 0.16708,-0.29689 0.14465,-0.4542 -0.0183,-0.12827 -0.27001,-0.16796 -0.25165,-0.29622 0.0213,-0.14883 0.22465,-0.19988 0.33698,-0.29982 0.87993,-0.67104 0.96094,-1.71279 1.13611,-2.72309 0.0319,-0.028 -0.008,-0.0731 -0.0396,-0.0451 v 0 c -0.49297,0.0802 -1.03331,0.015 -1.47892,0.24057 -1.65172,0.83607 -1.45221,1.61397 -1.90279,3.27528 0.33557,0.58238 0.49925,1.3064 1.00672,1.74714 0.89591,0.77812 2.30927,0.55691 3.1153,-0.19089 0.65196,-0.60486 0.54481,-1.71061 0.40881,-2.45004 -0.0845,-0.45955 -0.24949,-0.90059 -0.37423,-1.35089 -0.49266,-1.46381 -1.02923,-2.88524 -1.64123,-4.30305 -0.12673,-0.29359 -0.25401,-0.58696 -0.38045,-0.88067 -0.0693,-0.16107 -0.0563,-0.39378 -0.20688,-0.48368 -0.65075,-0.38862 -1.3951,-0.59304 -2.09265,-0.88956 -0.0209,0.0647 -0.0462,0.1282 -0.0627,0.19419 -0.0105,0.0418 0.003,0.0903 -0.018,0.12785 -0.37661,0.67046 -1.21781,1.19153 -1.6977,1.78041 -1.00047,0.99763 0.41039,2.41251 1.41086,1.41487 z" />
    <path
       style="fill:#813d9c;stroke-width:0.264583"
       id="path532"
       d="m 192.60796,158.25394 c 0.26545,-0.0748 0.58384,-0.0486 0.79636,-0.2243 1.04925,-0.8678 1.19475,-1.4945 0.22325,-2.61429 -0.43016,-0.49583 -1.5068,-0.47499 -2.03462,-0.28819 -0.31819,0.11261 -0.5634,0.37187 -0.8451,0.55781 -0.15846,0.30846 -0.43214,0.5813 -0.47537,0.92538 -0.1391,1.10706 0.65414,2.11759 1.73874,2.28518 0.26701,0.0413 0.59957,0.0964 0.80687,-0.0769 0.29313,-0.24503 0.34131,-0.68365 0.51196,-1.02547 0.0621,-0.18028 0.12425,-0.36055 0.18637,-0.54083 0.0297,-0.0303 -0.0132,-0.0723 -0.0429,-0.042 v 0 c -0.14062,0.0267 -0.28124,0.0535 -0.42186,0.0802 -0.0861,-0.19959 -0.16792,-0.40112 -0.25841,-0.59878 -0.12962,-0.28313 -0.0733,0.43827 -0.18659,0.6501 -0.0467,0.0874 -0.16017,0.11676 -0.24025,0.17513 -0.0622,-0.008 -0.12942,0.002 -0.18658,-0.024 -0.35563,-0.16042 -0.2747,-1.21205 -0.26512,-1.23443 0.11367,-0.26553 0.45899,-0.35088 0.69285,-0.52041 0.0335,-0.0243 -0.0608,0.0562 -0.0912,0.0843 -1.71932,0.0648 -1.62771,2.49626 0.0916,2.43148 z" />
    <path
       style="fill:#813d9c;stroke-width:0.264583"
       id="path711"
       d="m 39.233839,128.37629 c 0.462452,-0.22433 1.201417,-0.60616 1.690793,-0.7426 0.226102,-0.063 0.499718,-0.21072 0.698854,-0.0864 0.134001,0.0836 -0.274621,0.16694 -0.376666,0.2875 -0.26843,0.31714 -0.239686,0.9117 -0.277743,1.2421 -0.06544,0.30374 -0.120859,0.60982 -0.196308,0.91123 -0.19626,0.78404 -0.685019,1.54361 -0.05739,2.34985 0.02681,0.0344 1.194289,0.64482 1.50777,0.80937 0.953709,1.56339 1.520238,3.35607 1.288677,5.20763 -0.142544,1.13977 -0.04677,0.98892 -0.738844,1.15379 -0.06161,-0.11988 -0.102796,-0.25268 -0.184816,-0.35964 -0.154795,-0.20185 -0.374346,-0.35008 -0.519592,-0.5589 -0.483002,-0.69443 -0.787103,-1.30264 -0.774663,-2.17719 0.01389,-0.97689 0.338741,-1.23034 0.845574,-1.99394 0.680532,-0.39179 0.773676,-1.26757 1.313175,-1.76375 0.266165,-0.2448 0.64194,-0.33315 0.962911,-0.49972 0.04175,-0.008 0.03112,-0.0666 -0.01064,-0.0591 v 0 c -0.787757,-0.0601 -2.215287,-0.24185 -2.939492,0.0619 -0.539186,0.22616 -0.905579,0.73986 -1.358371,1.1098 -0.296695,0.5762 -0.707249,1.10683 -0.89009,1.72862 -0.559927,1.90415 0.03211,4.16638 1.505278,5.51888 0.486826,0.44694 1.065141,0.86277 1.71141,1.00096 0.634722,0.13572 1.28973,-0.14756 1.934594,-0.22134 0.379042,-0.43022 0.875371,-0.78053 1.137123,-1.29067 0.262065,-0.51076 0.333735,-1.10667 0.386242,-1.67833 0.183086,-1.9933 -0.284322,-4.31207 -1.414622,-5.98767 -0.353359,-0.52384 -0.864208,-0.92207 -1.29631,-1.38311 -1.634648,-0.64039 -0.703119,-0.45275 -0.568896,0.0596 0.06597,0.25184 -0.07676,0.5394 0.02087,0.78074 0.05628,0.13909 0.07552,-0.29052 0.119407,-0.434 0.458094,-1.49781 0.159983,-0.30215 0.548137,-2.12127 0.04825,-1.07693 0.304046,-2.30442 -0.558025,-3.23259 -1.506413,-1.62191 -3.389452,-0.15904 -4.658476,0.80294 -1.106808,0.81326 0.04331,2.37852 1.150117,1.56526 z" />
    <path
       style="fill:#813d9c;stroke-width:0.264583"
       id="path717"
       d="m 48.452829,134.82537 c -0.30322,-1.63457 -0.52915,-3.28263 -0.863279,-4.91144 -0.200827,0.17237 0.03959,-0.54918 -0.109432,-0.48025 -0.679699,0.31438 -1.436883,0.5713 -1.94877,1.11792 -0.152445,0.16279 0.25024,0.37089 0.398809,0.53722 0.413226,0.46263 1.18682,1.14047 1.6265,1.53982 1.390295,1.19142 2.797847,2.38561 4.330477,3.39369 0.05719,0.0317 0.12355,0.13929 0.171559,0.0949 0.575823,-0.53189 1.141703,-1.08839 1.595736,-1.7274 0.06974,-0.0982 -0.08939,-0.22371 -0.128495,-0.33759 -0.08885,-0.25877 -0.173408,-0.51903 -0.255267,-0.7801 -0.30494,-0.97254 -0.487609,-1.62006 -0.779592,-2.62127 -0.293264,-0.8413 -0.434391,-1.72399 -0.68467,-2.57674 -0.07612,-0.25935 -0.04598,-0.61361 -0.270225,-0.76452 -0.267438,-0.17996 -0.643175,-0.0444 -0.964763,-0.0665 -0.02381,-0.19449 -0.298852,-0.16083 -0.27505,0.0337 v 0 c -0.296828,0.18014 -0.720511,0.23767 -0.890482,0.54044 -0.139004,0.2476 0.05539,0.56629 0.113091,0.84432 0.07255,0.34958 0.641808,2.41 0.704908,2.64107 0.339111,1.19684 0.666271,2.40053 1.055127,3.58268 0.05309,0.16138 0.0199,0.55002 0.174228,0.47897 0.673655,-0.31012 1.170125,-0.91146 1.755185,-1.36718 -0.0016,-2.5e-4 -0.0033,-5.3e-4 -0.0049,-8e-4 -1.435944,-0.91792 -2.747936,-2.02189 -4.034062,-3.13469 -0.277456,-0.25458 -0.557615,-0.50625 -0.832366,-0.76375 -0.190032,-0.17809 -0.371817,-0.36486 -0.561872,-0.54293 -0.04875,-0.0457 -0.08972,-0.14541 -0.154215,-0.12801 -0.731925,0.19741 -1.431227,0.50034 -2.147435,0.7488 -0.0084,0.003 0.01582,-0.008 0.02371,-0.012 0.02043,0.0651 0.04083,0.13029 0.06124,0.19543 0.375409,1.59744 0.581403,3.22852 0.867569,4.84306 0.266454,1.43311 2.29317,1.05629 2.026718,-0.37682 z" />
    <path
       style="fill:#c64600;stroke-width:0.264583"
       id="path790"
       d="m 171.50567,157.58049 c 0.46911,-2.54123 0.24443,-5.14302 -0.28826,-7.65813 -0.18619,-0.87909 -0.43315,-1.7442 -0.64973,-2.61631 -1.38287,-5.33692 -4.01311,-10.20308 -6.94186,-14.83456 -0.69459,-1.0984 -1.42948,-2.17079 -2.14422,-3.25619 -3.39161,-5.01405 -7.592,-9.37988 -11.74552,-13.75388 -2.00772,-2.08077 -4.4198,-3.6838 -6.72246,-5.40649 -1.52337,-1.13968 -1.94477,-1.48278 -3.44524,-2.65728 -0.72937,-0.53566 -1.45445,-1.07723 -2.18813,-1.60699 -1.49958,-1.08278 -3.01239,-2.14712 -4.52284,-3.21468 -1.69143,-1.19548 -2.51306,-1.80337 -4.26694,-2.867302 -0.64736,-0.3927 -1.31538,-0.75029 -1.97307,-1.125435 -2.33941,-1.136001 -4.56002,-2.502577 -6.8916,-3.652218 -1.53865,-0.758669 -1.77127,-0.817528 -3.34154,-1.446683 -1.98797,-0.669566 -3.93227,-1.532234 -6.01829,-1.862619 -1.00746,-0.15956 -1.92848,-0.188082 -2.94108,-0.245494 -1.6508,-0.0402 -3.29572,-0.227473 -4.94733,-0.196218 -1.1643,0.09201 -2.33183,0.117994 -3.49773,0.178734 -0.04143,-0.0053 -0.818645,0.04432 -0.809014,0.09364 0.473723,2.42557 -0.08721,2.493103 0.762188,2.375239 -0.830371,0.163973 -0.698836,-4.47933 -0.03889,-1.437331 0.01707,0.07867 -0.153323,-0.04914 -0.229983,-0.07371 0.01251,-0.04053 -0.0448,-0.05824 -0.05733,-0.0177 v 0 c -0.118022,0.109316 -0.370189,0.167886 -0.354068,0.327949 0.361379,3.587943 1.513446,-1.474396 0.245309,-1.252035 -0.892003,0.172204 0.120155,-0.04925 0.437224,2.437027 0.0041,0.03216 -0.431623,0.05157 -0.05089,0.02127 0.07667,-0.0061 0.153405,-0.01143 0.230108,-0.01714 1.137446,-0.0655 2.275866,-0.112318 3.412676,-0.18937 1.58997,-0.03489 3.17587,0.145251 4.76507,0.176821 0.82677,0.04334 1.75953,0.07274 2.57979,0.194749 1.95007,0.290074 3.76322,1.119598 5.62279,1.728841 1.42468,0.558821 1.72559,0.644051 3.12248,1.329036 2.30908,1.132298 4.50482,2.48856 6.82592,3.599199 0.62286,0.35055 1.25637,0.68282 1.86859,1.05164 1.56309,0.94166 2.67467,1.73544 4.17822,2.79273 1.50285,1.05681 3.00478,2.11508 4.49441,3.19044 0.71476,0.516 1.42039,1.04453 2.13058,1.56679 1.40569,1.09747 2.07424,1.6314 3.50188,2.69832 2.19359,1.63934 4.50707,3.14396 6.43098,5.11336 4.07178,4.26672 8.23839,8.48209 11.56768,13.37878 0.70099,1.05899 1.42487,2.10317 2.10297,3.17697 2.80408,4.44039 5.32897,9.11285 6.6643,14.22274 0.57996,2.35003 1.20801,4.76886 1.2231,7.21103 0.005,0.79234 -0.0983,1.4168 -0.19724,2.19063 -0.23465,1.4828 1.86235,1.81463 2.09699,0.33184 z" />
    <path
       style="fill:#c64600;stroke-width:0.191126"
       id="path792"
       d="m 99.276504,92.860682 c 1.606396,-1.077848 3.253246,-2.086452 4.841626,-3.193309 0.77786,-0.567315 0.86877,-0.635879 0.90673,-1.581164 0.0297,-0.0053 0.0224,-0.04872 -0.007,-0.04344 v 0 c -0.20413,-0.126511 -0.38204,-0.317732 -0.61238,-0.379536 -0.56436,-0.151424 -0.8509,0.17913 -1.28831,0.460617 -1.59979,1.105078 -3.263407,2.107801 -4.833287,3.258074 -1.010986,0.726106 -0.01816,2.204865 0.992835,1.47876 z" />
    <path
       style="fill:#c64600;stroke-width:0.199004"
       id="path794"
       d="m 97.785751,93.185676 c 1.141213,0.975596 2.080253,2.108171 3.045879,3.215837 0.29043,0.333147 0.54139,0.696282 0.87126,0.999464 0.23089,0.212203 0.53108,0.355648 0.79662,0.53347 0.20311,-0.01809 0.4062,-0.03611 0.6093,-0.0542 0.01,0.02876 0.0557,0.01675 0.046,-0.01201 v 0 c 0.13851,-0.210599 0.27702,-0.421198 0.41553,-0.631794 -0.11739,-0.28004 -0.18471,-0.580688 -0.35217,-0.840122 -0.23847,-0.369455 -0.56607,-0.688166 -0.85423,-1.028901 -0.99736,-1.179299 -2.00579,-2.360716 -3.222916,-3.373492 -0.954557,-0.846071 -2.309887,0.345705 -1.355327,1.191778 z" />
    <path
       style="fill:#c64600;stroke-width:0.264583"
       id="path804"
       d="m 183.45192,140.7449 c -0.29867,1.35356 -0.23156,2.79712 0.36783,4.06902 0.12133,0.25746 0.18823,0.63335 0.45942,0.71973 0.42958,0.13681 0.89648,-0.0968 1.34472,-0.14513 0.031,0.029 0.072,-0.0148 0.041,-0.0438 v 0 c 0.20479,-0.27627 0.50703,-0.5021 0.61437,-0.82882 0.0569,-0.17332 -0.11038,-0.34785 -0.17133,-0.5198 -0.28985,-0.81776 -0.55564,-1.61267 -0.34192,-2.49175 0.53701,-1.63631 -1.77709,-2.39575 -2.31409,-0.75944 z" />
    <path
       style="fill:#c64600;stroke-width:0.264583"
       id="path806"
       d="m 183.86654,135.87494 c -0.24563,0.76961 -0.49689,1.54398 -0.6453,2.33979 0.77685,0.14248 1.54201,0.38256 2.33054,0.42744 0.0983,0.006 0.0282,-0.19488 0.0415,-0.29243 0.0555,-0.4069 0.0976,-0.81534 0.14328,-1.22342 0.04,-0.24594 0.0528,-0.48985 0.0409,-0.73784 -0.18647,-1.61248 -2.46686,-1.34877 -2.28039,0.26371 v 0 c -0.0103,-0.42486 0.001,0.20063 -0.0324,0.22429 -0.19351,1.79305 -0.71963,1.05004 2.09515,1.82616 0.16934,-0.67829 0.36879,-1.34899 0.59138,-2.01175 0.57696,-1.61547 -1.70766,-2.43142 -2.28462,-0.81595 z" />
    <path
       style="fill:#c64600;stroke-width:0.264583"
       id="path808"
       d="m 187.70875,140.7971 c 0.53398,2.23417 1.14238,4.5197 1.39231,6.8074 0.15864,1.45212 0.33252,1.08321 -0.24425,1.7619 0.01,-0.17772 0.0944,-0.36744 0.0295,-0.53315 -0.0684,-0.17454 -0.25039,-0.28111 -0.3953,-0.40005 -0.29988,-0.24615 -0.58809,-0.51979 -0.93557,-0.69234 -0.38775,-0.19255 -0.86927,-0.16346 -1.23956,-0.38778 -0.29443,-0.17836 -0.45432,-0.51731 -0.68148,-0.77596 -0.0171,-0.0388 -0.072,-0.0146 -0.0549,0.0242 v 0 c 0.0893,0.58256 0.359,2.54424 0.58361,2.90641 0.47522,0.76625 2.34262,1.78345 3.21849,1.7143 0.63825,-0.0504 1.13786,-0.58727 1.70679,-0.88091 0.16267,-0.48526 0.42424,-0.94798 0.48801,-1.45579 0.0692,-0.55084 -0.034,-1.11106 -0.0964,-1.66271 -0.0725,-0.64134 -0.19561,-1.27604 -0.30763,-1.91167 -0.30578,-1.73504 -0.66824,-3.46209 -1.10678,-5.16852 -0.46293,-1.66655 -2.81978,-1.01186 -2.35685,0.65469 z" />
    <path
       style="fill:#c64600;stroke-width:0.264583"
       id="path810"
       d="m 188.12188,135.56729 c -0.03,1.03711 -0.16836,0.50038 0.73502,1.49157 -0.0107,0.0411 0.0474,0.0561 0.0581,0.0151 v 0 c 1.21187,-0.20305 0.78968,0.0898 1.40759,-0.62805 0.62127,-1.55612 -1.57943,-2.43472 -2.20069,-0.8786 z" />
    <path
       style="fill:#c64600;stroke-width:0.264583"
       id="path816"
       d="m 193.96195,141.04141 c 1.16087,1.34257 2.79068,2.17518 4.5482,2.43128 0.52223,0.0761 1.0586,0.13722 1.58177,0.0679 0.5739,-0.076 1.10923,-0.33197 1.66385,-0.49796 0.44747,-0.39525 0.99626,-0.69931 1.34241,-1.18577 1.1629,-1.63426 0.81079,-3.6971 -0.21755,-5.27793 -0.91807,-1.41132 -1.5202,-1.59909 -2.88009,-2.47383 -0.60885,-0.15199 -1.19906,-0.44832 -1.82655,-0.45598 -2.21599,-0.0271 -4.06699,1.33821 -4.67934,3.46883 -0.52808,1.8374 -0.0337,2.44855 0.53979,4.14235 1.18255,1.34543 1.16715,1.86085 3.07263,2.00998 0.49845,0.039 0.98377,-0.1791 1.47565,-0.26865 0.0419,0.006 0.0511,-0.0529 0.009,-0.0593 v 0 c -0.30966,-0.21279 -0.65509,-0.38118 -0.92898,-0.63839 -0.0797,-0.0749 -1.42012,-1.82208 -1.45849,-1.87188 -0.45673,-0.99632 -0.72042,-1.20516 -0.5849,-2.33811 0.0428,-0.35773 0.13733,-0.72543 0.33202,-1.02856 0.3076,-0.47894 1.18083,-1.07792 1.76272,-1.15262 0.36919,-0.0474 0.73856,0.0934 1.10784,0.14003 0.37115,0.20446 0.7746,0.35893 1.11345,0.61337 1.00403,0.75391 2.13985,2.27379 1.56435,3.61495 -0.109,0.25402 -0.32518,0.44709 -0.48776,0.67064 -0.29874,0.13753 -0.57501,0.34202 -0.89623,0.4126 -1.29649,0.28485 -3.14549,-0.26468 -4.23752,-0.97627 -0.1985,-0.12935 -0.35982,-0.30832 -0.53972,-0.46248 -0.789,-0.97345 -2.16566,0.14236 -1.37667,1.11581 z" />
    <path
       style="fill:#c64600;stroke-width:0.264583"
       id="path818"
       d="m 196.22329,130.68066 c 0.70895,4.96902 1.66281,9.90055 2.73591,14.80257 0.89827,2.82853 0.185,1.69801 1.88009,3.54214 0.008,0.0417 0.0668,0.0307 0.059,-0.011 v 0 c 0.89764,-2.37159 0.6771,-1.05084 0.36534,-4.00044 -0.92256,-4.89776 -1.86926,-9.79089 -2.62799,-14.71759 -0.27175,-1.70578 -2.68408,-1.32147 -2.41233,0.38431 z" />
    <path
       style="fill:#c64600;stroke-width:0.264583"
       id="path999"
       d="m 208.14761,130.63364 c -0.25652,0.29784 -0.54841,0.56856 -0.76955,0.89353 -1.73143,2.54436 -2.33618,5.43352 -2.0363,8.48384 0.0785,0.79869 0.28584,1.57941 0.42876,2.36912 0.66149,2.00046 1.48955,4.09984 2.9682,5.6624 0.63494,0.67097 1.25738,1.14288 2.23278,0.9328 0.28733,-0.0619 0.48233,-0.33602 0.7235,-0.50403 0.0415,-0.009 0.0291,-0.0675 -0.0124,-0.0587 v 0 c -0.60922,-0.62082 0.026,0.11334 -0.4709,-0.86432 -0.15655,-0.30798 -0.36288,-0.58811 -0.55204,-0.8772 -0.98506,-1.50547 -2.01866,-2.97368 -2.48333,-4.74761 -0.13211,-0.65919 -0.31778,-1.30989 -0.39633,-1.97759 -0.33839,-2.8765 0.31764,-5.52106 2.06653,-7.82492 1.05169,-1.20134 -0.64725,-2.68865 -1.69894,-1.48731 z" />
    <path
       style="fill:#c64600;stroke-width:0.264583"
       id="path1001"
       d="m 212.30643,133.96544 c -0.0538,3.52083 0.48093,7.02179 0.91802,10.50736 0.0548,0.43624 0.1098,0.87247 0.16439,1.30874 0.0341,0.27272 0.0628,0.54617 0.10182,0.81824 0.02,0.13984 0.049,0.27826 0.0753,0.41708 0.01,0.0526 -0.0195,0.1659 0.0333,0.15713 2.5041,-0.41555 2.35617,0.1896 2.2184,-1.16835 -0.0689,-1.65492 -0.14654,-3.59087 0.86345,-5.01841 0.0891,-0.12599 0.22859,-0.20742 0.34288,-0.31114 0.002,0.0758 0.005,0.15154 0.007,0.22732 -0.0592,0.0708 -0.16777,0.12072 -0.17753,0.21251 -0.0125,0.11774 0.0808,0.2226 0.11939,0.33453 0.0926,0.26851 0.20345,0.53168 0.27427,0.80674 0.27197,1.05623 0.45743,2.13287 0.68786,3.19894 0.79423,1.68604 0.33846,0.94821 1.30565,2.25043 0.003,0.0423 0.063,0.0378 0.0598,-0.005 v 0 c 0.75732,-1.51648 0.45083,-0.66435 0.81526,-2.59151 -0.19474,-1.83173 -0.42259,-5.20857 -2.32275,-6.21482 -0.421,-0.22295 -0.92236,-0.34868 -1.39657,-0.30334 -0.42558,0.0407 -0.77312,0.36518 -1.15968,0.54776 -0.2151,0.2795 -0.46698,0.53421 -0.64528,0.8385 -1.08803,1.85681 -1.14108,4.13235 -1.06189,6.21495 0.0913,1.42761 -0.17681,0.71757 2.36778,0.56466 0.0129,-7.9e-4 -0.001,-0.0258 -0.002,-0.0387 -0.0104,-0.14058 -0.0162,-0.28159 -0.0318,-0.42169 -0.0307,-0.27533 -0.0707,-0.54954 -0.10718,-0.82417 -0.0579,-0.43571 -0.11717,-0.87122 -0.17575,-1.30683 -0.45344,-3.37509 -0.95975,-6.75634 -0.97941,-10.16931 0.0227,-1.62272 -2.27221,-1.65479 -2.29488,-0.0321 z" />
    <path
       style="fill:#c64600;stroke-width:0.264583"
       id="path1003"
       d="m 222.14605,144.98296 c 0.38233,1.71345 0.79262,3.4261 0.95638,5.17827 0.0396,0.42426 0.0827,0.85061 0.0687,1.27649 -0.01,0.29811 -0.0933,0.5892 -0.13992,0.8838 -0.0961,0.0988 -0.15365,0.26746 -0.28844,0.29638 -0.0867,0.0186 -0.10791,-0.14437 -0.18012,-0.19588 -0.12238,-0.0873 -0.25502,-0.16377 -0.39626,-0.21521 -0.66099,-0.24075 -1.46392,-0.37004 -2.13771,-0.50661 -0.0275,-0.0323 -0.0732,0.007 -0.0457,0.0389 v 0 c 0.14323,0.57237 0.1124,1.21968 0.4297,1.71713 0.58498,0.91711 2.02836,1.41541 3.05439,1.21497 0.52185,-0.10194 0.99869,-0.43719 1.36897,-0.81878 0.31367,-0.32324 0.40019,-0.80705 0.60029,-1.21058 0.0522,-0.44722 0.14517,-0.89154 0.15644,-1.34165 0.0122,-0.4856 -0.0389,-0.97129 -0.0864,-1.45471 -0.17908,-1.8207 -0.58984,-3.60806 -1.01252,-5.38424 -0.36893,-1.66012 -2.71669,-1.13837 -2.34776,0.52175 z" />
    <path
       style="fill:#d45500;stroke-width:0.197701"
       id="path1005"
       d="m 222.17922,141.1964 c 0.17185,0.0767 0.33056,0.194 0.51555,0.23022 1.07014,0.20953 1.91921,-0.21379 2.00028,-1.38876 0.0487,-0.7057 -0.29672,-0.99475 -0.67162,-1.50135 -0.23553,-0.13553 -0.44362,-0.33578 -0.70658,-0.40658 -0.86616,-0.23323 -1.85442,0.23678 -2.10036,1.12478 -0.0772,0.2786 -0.13013,0.60853 0.001,0.86655 0.14344,0.2817 0.49564,0.39733 0.74346,0.596 0.25795,-0.0296 0.5159,-0.0593 0.77384,-0.0889 0.0279,0.0153 0.0498,-0.0237 0.0219,-0.039 v 0 c -4e-4,-0.17099 -7.6e-4,-0.342 -0.002,-0.513 0.0634,-0.0245 0.12373,-0.0593 0.19028,-0.0735 0.0236,-0.005 -0.0323,0.0464 -0.0565,0.0448 -0.0292,-0.002 -0.0434,-0.0397 -0.0692,-0.053 -0.0923,-0.0478 -0.35832,-0.10908 -0.20552,-0.25339 0.38895,0.13746 0.32512,-0.21977 0.76398,-0.11992 0.0427,0.01 0.11631,0.1114 0.0726,0.10817 -0.10838,-0.008 -0.20034,-0.0834 -0.3005,-0.12501 -1.13908,-0.67891 -2.11058,0.9131 -0.97151,1.592 z" />
    <path
       style="fill:#c64600;stroke-width:0.264583"
       id="path1013"
       d="m 229.80509,134.63671 c -0.26999,0.29631 -0.57943,0.56098 -0.80997,0.88892 -1.478,2.10234 -1.68398,4.70913 -1.11267,7.16231 0.15697,0.67402 0.43938,1.31251 0.65907,1.96876 0.59754,1.07425 0.94807,2.16114 2.185,2.70034 0.34858,0.15196 1.92678,0.15609 2.46289,0.16592 0.0418,0.007 0.0522,-0.0517 0.0104,-0.0591 v 0 c -0.25016,-0.0937 -0.57679,-0.0782 -0.75048,-0.28118 -0.23798,-0.27811 -0.21768,-0.70144 -0.3737,-1.03256 -0.37115,-0.78772 -0.95485,-1.46389 -1.31698,-2.25606 -0.18392,-0.51715 -0.41626,-1.01956 -0.55177,-1.55145 -0.59761,-2.34575 -0.28624,-4.08439 1.04332,-6.05942 1.16424,-1.02187 -0.2809,-2.66836 -1.44514,-1.64649 z" />
    <path
       style="fill:#c64600;stroke-width:0.264583"
       id="path1015"
       d="m 233.52403,136.3815 c -0.48729,2.99303 0.0165,6.08053 1.45722,8.76296 0.25934,0.48285 0.60158,0.91635 0.90237,1.37453 0.59103,0.51044 1.26777,1.37038 2.22463,1.1962 0.9049,-0.16473 0.99185,-0.76078 1.25123,-1.40746 0.0241,-0.0349 -0.0253,-0.069 -0.0494,-0.0341 v 0 c -0.12923,0.0862 -0.23402,0.28151 -0.3877,0.25871 -0.13084,-0.0194 -0.1149,-0.24047 -0.19563,-0.34525 -0.2646,-0.34341 -0.7022,-0.5357 -0.87744,-0.96003 -0.23259,-0.35341 -0.49508,-0.68886 -0.69778,-1.06023 -1.21945,-2.23421 -1.71881,-4.74502 -1.33243,-7.26129 0.37058,-1.62286 -1.9245,-2.14695 -2.29508,-0.52408 z" />
    <path
       style="fill:#c64600;stroke-width:0.264583"
       id="path1021"
       d="m 232.81301,141.71999 c 3.34025,-0.46015 0.60118,0.1203 3.89383,-1.20938 0.529,-0.21363 1.08995,-0.33754 1.63492,-0.50632 0.0423,-0.004 0.0372,-0.0634 -0.005,-0.0598 v 0 c -0.56855,-0.0737 -1.14359,-0.10808 -1.70564,-0.22116 -3.34412,-0.6728 -0.87232,-0.65188 -4.15056,-0.38321 -1.6828,0.23514 -1.35026,2.61499 0.33254,2.37985 z" />
    <path
       style="fill:#c64600;stroke-width:0.264583"
       id="path1023"
       d="m 240.17747,137.506 c 1.08451,1.29433 1.66924,2.99539 1.7209,4.68354 0.0463,1.51371 -0.23698,2.49767 -0.53171,3.95607 -0.28842,1.07916 -0.51171,1.34509 -0.34872,2.35323 0.0203,0.12531 0.11136,0.22815 0.16703,0.34222 -0.0385,0.0177 -0.0135,0.0722 0.025,0.0545 v 0 c 0.21645,0.0403 0.44236,0.1958 0.64935,0.1208 1.27093,-0.46055 1.26523,-1.22261 1.78048,-2.39261 0.16244,-0.74725 0.38985,-1.48328 0.48732,-2.24175 0.36274,-2.82287 -0.019,-5.4906 -1.66668,-7.85549 -0.19607,-0.28142 -0.45507,-0.5133 -0.68261,-0.76995 -1.23702,-1.13165 -2.83741,0.61777 -1.60039,1.74941 z" />
    <path
       style="fill:#c64600;stroke-width:0.264583"
       id="path1025"
       d="m 245.24914,134.49869 c 0.15785,0.20235 0.34004,0.38789 0.47357,0.60705 0.45123,0.74056 0.78498,1.64605 1.00129,2.47172 0.66944,2.5553 0.60575,4.75552 0.58498,7.37036 -0.21983,2.37884 -0.16767,2.83954 -0.71723,5.08275 -0.15889,0.64858 -0.71934,2.10109 -0.80714,2.88703 -0.032,0.28665 0.0313,0.57602 0.0469,0.86403 -0.031,0.029 0.01,0.0728 0.041,0.0438 v 0 c 0.38565,-0.0584 0.8214,0.0236 1.15694,-0.17523 1.08351,-0.64219 1.5509,-2.0444 1.875,-3.13271 0.67054,-2.25159 0.63229,-3.18303 0.8518,-5.55416 0.005,-1.02369 0.0539,-2.04812 0.0149,-3.07108 -0.10905,-2.85935 -0.53041,-5.91911 -2.18546,-8.34028 -0.19974,-0.2922 -0.46613,-0.53275 -0.69919,-0.79912 -1.23449,-1.15781 -2.87188,0.58803 -1.63739,1.74584 z" />
    <path
       style="fill:#a51d2d;stroke-width:0.264583"
       id="path1078"
       d="m 216.66124,90.368436 c -0.35828,0.883042 -0.6718,1.443197 -0.64392,2.472944 0.0146,0.538978 0.2148,1.056741 0.3222,1.585108 -0.0142,0.04 0.0424,0.06 0.0566,0.02 v 0 c 0.40938,-0.325496 0.87122,-0.594196 1.22814,-0.976482 0.69374,-0.743035 0.8707,-1.351447 1.24041,-2.234147 0.61337,-1.558041 -1.59003,-2.425472 -2.2034,-0.867431 z" />
    <path
       style="fill:#a51d2d;stroke-width:0.264583"
       id="path1080"
       d="m 220.73533,82.726235 c 0.18023,3.857731 0.47215,7.712755 0.93095,11.547808 0.12758,0.981705 0.0501,1.052643 2.42095,-0.259627 0.22997,-0.127289 -0.0356,-0.525098 -0.0314,-0.787906 0.0141,-0.878567 0.0777,-1.527235 0.28807,-2.393021 0.0974,-0.400656 0.24577,-0.787148 0.36865,-1.180724 0.058,-0.103251 0.3818,-1.109599 0.87204,-0.962226 0.30391,0.09136 -0.13635,0.436303 -0.0829,0.756354 0.0653,0.390993 0.28443,0.740383 0.40786,1.117078 0.14835,0.452713 0.2714,0.913326 0.40709,1.369992 0.79853,1.502243 0.27871,0.880869 1.51465,1.900703 0.009,0.04152 0.0675,0.02918 0.0587,-0.01233 v 0 c 0.75831,-1.434052 0.49694,-0.627576 0.6638,-2.455158 -0.23562,-1.076905 -0.46043,-2.65398 -1.1809,-3.553976 -0.4505,-0.562761 -1.02579,-1.100558 -1.71204,-1.321287 -1.04521,-0.336193 -2.06302,0.518012 -2.59997,1.242483 -0.27347,0.368983 -0.40289,0.825479 -0.60435,1.238218 -0.14224,0.485828 -0.31311,0.964174 -0.42673,1.457484 -0.24995,1.085239 -0.30302,1.755063 -0.34127,2.840225 -0.0109,0.308748 -0.28515,0.808771 2.6e-4,0.926815 0.74985,0.310036 1.62448,0.148209 2.43296,0.07928 0.0949,-0.0081 -0.0157,-0.18981 -0.0235,-0.284713 -0.42325,-3.763825 -0.7717,-7.539207 -0.89575,-11.326061 -0.0428,-1.744636 -2.51013,-1.684036 -2.46728,0.0606 z" />
    <path
       style="fill:#a51d2d;stroke-width:0.264583"
       id="path1082"
       d="m 231.16994,94.062313 c 0.27543,-0.116385 0.88109,-0.438957 1.23971,-0.36808 0.0708,0.014 -0.0656,0.17344 -0.13754,0.167365 -0.2169,-0.01831 -0.39535,-0.260451 -0.61096,-0.230566 -0.13876,0.01923 -0.1703,0.224054 -0.23574,0.347919 -0.14584,0.276021 -0.26426,0.565679 -0.39639,0.848519 -0.16136,0.283535 -0.31461,0.571844 -0.48409,0.850606 -0.48871,0.803878 -1.42527,1.67635 -0.56187,2.769071 0.63715,0.806379 2.25827,0.902433 3.16648,1.037056 0.51135,0.04484 2.05837,0.247224 2.62385,0.05763 0.34712,-0.11638 0.57857,-0.451612 0.89195,-0.640887 0.14703,-0.0888 0.31994,-0.125116 0.47991,-0.187674 0.0417,0.0081 0.0531,-0.05078 0.0115,-0.05889 v 0 c -0.14135,-0.121283 -0.29194,-0.232556 -0.42405,-0.363842 -0.26699,-0.265327 -0.44533,-0.636821 -0.77166,-0.824421 -0.41604,-0.239172 -2.04231,-0.390607 -2.45073,-0.441351 -0.38951,-0.05639 -0.77741,-0.212984 -1.16854,-0.169175 -0.12345,0.01384 -0.15344,0.202184 -0.18894,0.321231 -0.0925,0.310293 -0.23252,0.631349 -0.19085,0.95245 0.0221,0.170526 0.16745,-0.300477 0.25636,-0.447667 0.91821,-1.520201 0.0649,-0.01805 1.07352,-1.844202 0.32149,-0.743617 0.98338,-1.980655 0.78619,-2.842911 -0.42326,-1.850842 -1.83849,-1.989711 -3.28385,-1.44767 -0.34436,0.129143 -0.65678,0.331195 -0.98516,0.496795 -1.42743,0.962313 -0.0665,2.981007 1.36092,2.018691 z" />
    <path
       style="fill:#a51d2d;stroke-width:0.264583"
       id="path1084"
       d="m 238.24691,82.149766 c -0.21272,0.530702 -0.48529,1.04117 -0.63815,1.592101 -0.78092,2.814543 -1.12265,6.783361 0.17741,9.501794 0.27052,0.56566 0.7094,1.034103 1.0641,1.551154 1.91661,1.187982 0.88799,1.0384 3.09252,0.400373 0.0415,0.0087 0.0539,-0.04998 0.0124,-0.05871 v 0 c -0.72958,-1.22106 -0.30909,-0.690356 -1.22809,-1.618009 -0.22993,-0.342612 -0.51046,-0.65623 -0.68979,-1.027835 -1.10481,-2.289283 -0.82381,-5.491824 -0.19235,-7.875854 0.12549,-0.473758 0.34678,-0.916795 0.52017,-1.375194 0.77062,-1.497774 -1.34756,-2.58759 -2.11818,-1.089816 z" />
    <path
       style="fill:#a51d2d;stroke-width:0.264583"
       id="path1086"
       d="m 243.46202,82.90521 c -0.14755,0.410276 -0.34226,0.806543 -0.44264,1.230831 -0.45861,1.938541 -0.27342,4.139935 0.3068,6.03259 0.21422,0.698778 0.45128,1.408007 0.84726,2.022319 0.37906,0.588042 0.96026,1.017749 1.44038,1.526622 0.69015,-0.07647 1.38031,-0.15294 2.07046,-0.22941 0.0394,0.01574 0.0617,-0.03997 0.0223,-0.05572 v 0 c -0.14519,-0.410321 -0.29038,-0.820642 -0.43557,-1.230963 -0.28389,-0.326234 -0.62657,-0.609441 -0.85168,-0.978699 -0.8981,-1.4732 -1.25257,-3.367781 -1.24495,-5.072584 0.004,-0.954902 0.14628,-1.283187 0.38273,-2.12761 0.79011,-1.481425 -1.30494,-2.598806 -2.09505,-1.11738 z" />
    <path
       style="fill:#a51d2d;stroke-width:0.264583"
       id="path1090"
       d="m 242.27854,88.964102 c 3.43424,-0.590844 0.2903,0.118102 4.02144,-1.329153 0.66657,-0.258553 1.36784,-0.41675 2.05176,-0.625123 0.0423,-0.0038 0.0368,-0.06358 -0.005,-0.05976 v 0 c -0.7191,-0.08148 -1.44199,-0.134512 -2.15728,-0.244441 -3.43146,-0.527362 -1.32975,-0.622122 -4.34562,-0.18099 -1.72496,0.30766 -1.28986,2.747121 0.4351,2.439463 z" />
    <path
       style="fill:#a51d2d;stroke-width:0.264583"
       id="path1092"
       d="m 249.0013,83.946771 c 0.91998,1.527839 1.877,3.103587 2.3807,4.831662 0.51375,1.762588 0.50383,3.601855 0.48556,5.415156 0.15182,0.289671 0.30364,0.579342 0.45545,0.869013 -0.0177,0.03854 0.0368,0.06362 0.0545,0.02508 v 0 c 0.3794,-0.205095 0.75879,-0.410189 1.13819,-0.615283 0.16454,-0.549545 0.41335,-1.08063 0.49363,-1.648635 0.54075,-3.8257 -1.03826,-7.273983 -3.14952,-10.336284 -1.03188,-1.314172 -2.8904,0.145124 -1.85852,1.459296 z" />
    <path
       style="fill:#a51d2d;stroke-width:0.264999"
       id="path948"
       d="m 203.16917,53.485761 c -0.0859,0.129122 -0.16984,0.259498 -0.25755,0.387363 -0.16676,0.243099 -0.33201,0.487357 -0.50582,0.725469 -0.35931,0.492247 -0.88227,1.032449 -1.02025,1.661684 -0.0763,0.347895 -0.005,0.712303 -0.007,1.068456 -0.0325,0.0273 0.006,0.07323 0.0386,0.04593 v 0 c 0.39566,0.02159 0.80146,0.156348 1.18699,0.06479 0.9756,-0.231703 1.95704,-1.633006 2.42421,-2.443231 0.16835,-0.29197 0.28855,-0.609171 0.43282,-0.91376 0.42193,-1.620639 -1.87,-2.217335 -2.29193,-0.596696 z" />
    <path
       style="fill:#a51d2d;stroke-width:0.264999"
       id="path950"
       d="m 208.0053,42.915085 c -0.033,0.206404 -0.0805,0.411017 -0.0991,0.619218 -0.0856,0.956855 -0.0585,2.24296 -0.0157,3.125462 0.10228,2.10747 0.35562,4.198903 0.64251,6.28731 0.26619,1.593582 0.379,2.622113 2.62893,0.91523 0.29795,-0.226031 0.1787,-0.726305 0.2704,-1.088866 0.3989,-1.577054 0.19882,-0.899242 0.74053,-2.430865 0.16442,-0.315811 0.29265,-0.653274 0.49325,-0.94743 0.1083,-0.158803 0.23596,-0.342884 0.42133,-0.3937 0.10567,-0.02897 -0.0397,0.22683 -0.11222,0.308964 -0.18713,0.211932 -0.63065,0.267372 -0.64594,0.54968 -0.008,0.141121 1.12431,3.430347 1.13669,3.466785 0.90368,1.748364 0.398,0.991542 1.44898,2.31448 0.005,0.04218 0.0643,0.03565 0.0596,-0.0065 v 0 c 0.71615,-1.686026 0.47386,-0.745323 0.5842,-2.855055 -0.18372,-0.95907 -0.53477,-3.293568 -1.10003,-4.114176 -0.49043,-0.711951 -1.11796,-1.432073 -1.92759,-1.735185 -0.43626,-0.163327 -0.91974,0.251105 -1.29335,0.529331 -0.62162,0.462917 -0.93541,1.521806 -1.19927,2.171903 -0.50658,1.608122 -0.3611,1.053891 -0.74649,2.620995 -0.071,0.288692 -0.45012,0.698547 -0.20573,0.86783 0.4919,0.340723 1.20204,0.07291 1.78118,0.223433 0.0857,0.02228 0.0449,0.171331 0.0673,0.256995 -0.039,-0.312703 -0.0781,-0.625406 -0.11709,-0.938109 -0.29615,-2.663524 -0.62544,-5.33255 -0.7513,-8.010993 -0.0158,-0.336704 5.3e-4,-0.674267 -0.01,-1.01118 -0.006,-0.194019 -0.0265,-0.387321 -0.0397,-0.58098 0.10221,-1.422275 -1.90919,-1.566825 -2.0114,-0.144552 z" />
    <path
       style="fill:#a51d2d;stroke-width:0.264999"
       id="path952"
       d="m 216.10212,57.107105 c 0.2307,-0.146659 0.47292,-0.276603 0.69211,-0.439981 0.11856,-0.08837 1.91903,-1.580422 2.0382,-1.674161 0.26626,-0.209431 0.52913,-0.425718 0.8165,-0.605071 0.0952,-0.05943 0.43243,-0.104063 0.32018,-0.104338 -0.35879,-7.94e-4 -0.71433,0.06833 -1.0715,0.102497 -0.0417,1.308452 -0.0643,0.833593 0.1532,2.607437 0.0728,0.59355 -0.0266,1.24764 0.25344,1.775997 0.28344,0.534736 0.89222,0.81797 1.33833,1.226955 0.007,0.04179 0.0664,0.03142 0.0591,-0.01037 v 0 c 0.28778,-0.493072 0.74162,-0.921435 0.86336,-1.479217 0.1254,-0.5745 -0.10016,-1.171802 -0.157,-1.757074 -0.23623,-2.432417 -0.0814,-1.410306 -0.67232,-3.857164 -0.58658,-0.24819 -1.12762,-0.666475 -1.75973,-0.744572 -0.42761,-0.05283 -1.41323,0.964104 -1.61267,1.145167 -0.82843,0.752081 -1.68012,1.476065 -2.49879,2.238465 -1.11401,0.875106 0.12359,2.450541 1.23759,1.575432 z" />
    <path
       style="fill:#a51d2d;stroke-width:0.264999"
       id="path956"
       d="m 224.01954,41.113908 c -0.2173,0.332563 -0.46151,0.649025 -0.65191,0.997685 -1.36938,2.507512 -1.7596,5.185151 -1.25309,7.999926 0.14426,0.801645 0.41786,1.574538 0.62679,2.361809 0.27303,0.675968 0.49097,1.376894 0.81909,2.027904 0.57655,1.143923 0.99551,1.96429 2.3879,2.131592 0.39113,0.047 0.75913,-0.21094 1.13869,-0.31641 0.0423,0.0038 0.0476,-0.05601 0.005,-0.05976 v 0 c -0.76172,-0.847434 -0.12427,-0.0092 -0.6729,-1.328 -0.18906,-0.454472 -0.43352,-0.883867 -0.65028,-1.3258 -0.2411,-0.588058 -0.4822,-1.176118 -0.72331,-1.764179 -0.46027,-1.601874 -0.75318,-2.232718 -0.80593,-3.895851 -0.0381,-1.201897 0.15392,-2.282143 0.52678,-3.417338 0.26804,-0.816078 0.71662,-1.564576 0.99428,-2.377368 0.7313,-1.231374 -1.01013,-2.26558 -1.74142,-1.034206 z" />
    <path
       style="fill:#a51d2d;stroke-width:0.264999"
       id="path962"
       d="m 228.06804,43.739141 c -0.11011,0.561178 -0.24985,1.117346 -0.33033,1.683533 -0.40417,2.843403 -0.54805,6.411259 1.0877,8.925605 0.32013,0.492074 0.79447,0.864473 1.1917,1.296709 0.69673,0.364747 1.90673,1.270815 2.8342,0.679948 0.48881,-0.311409 0.59372,-0.995566 0.89058,-1.493348 0.0368,-0.02109 0.007,-0.07315 -0.0298,-0.05207 v 0 c -0.2845,-0.164864 -0.54718,-0.375073 -0.8535,-0.494596 -0.15323,-0.05978 -0.32833,-0.02037 -0.4925,-0.03058 -0.21697,-0.08466 -0.43394,-0.169328 -0.65092,-0.253992 -0.24685,-0.232765 -0.5443,-0.421527 -0.74055,-0.698294 -0.72279,-1.019331 -0.89187,-1.94559 -1.03269,-3.197601 -0.22662,-2.014743 0.0316,-4.004982 0.21067,-6.008981 0.25197,-1.473991 -1.83258,-1.830326 -2.08454,-0.356335 z" />
    <path
       style="fill:#a51d2d;stroke-width:0.264999"
       id="path964"
       d="m 226.80644,49.676057 c 1.00699,-0.17019 2.0185,-0.342373 3.0195,-0.545708 0.50797,-0.103185 1.03437,-0.152186 1.51731,-0.340487 0.46403,-0.180933 0.85571,-0.510127 1.28993,-0.754094 0.32658,-0.183489 0.66135,-0.352015 0.99202,-0.528024 0.0423,-0.0034 0.0374,-0.06323 -0.005,-0.0598 v 0 c -0.39205,-0.128902 -2.33716,-0.778991 -2.58083,-0.80573 -0.54101,-0.05936 -1.08868,0.04285 -1.62943,0.104542 -1.01453,0.115747 -2.02233,0.351139 -3.01473,0.586513 -1.6566,0.290687 -1.24551,2.633479 0.41109,2.342792 z" />
    <path
       style="fill:#a51d2d;stroke-width:0.264999"
       id="path966"
       d="m 234.19857,44.315353 c 0.10519,0.09201 0.22636,0.168468 0.31558,0.276042 1.47895,1.783244 1.50558,4.237345 1.59848,6.42156 0.0385,0.905679 0.0452,1.81243 0.0678,2.718646 0.1294,0.742921 0.2588,1.485845 0.38819,2.228768 -0.009,0.04142 0.0494,0.05442 0.0586,0.01299 v 0 c 0.44951,-0.698833 0.89903,-1.397667 1.34854,-2.0965 0.17743,-1.007351 0.47825,-2.000626 0.53229,-3.022055 0.0532,-1.005853 -0.0664,-2.017718 -0.21296,-3.014263 -0.29068,-1.97699 -0.89834,-3.940714 -2.45311,-5.292902 -0.21763,-0.189278 -0.50422,-0.280231 -0.75632,-0.420349 -1.54719,-0.627216 -2.43421,1.560833 -0.88702,2.188049 z" />
    <path
       style="fill:#a51d2d;stroke-width:0.264999"
       id="path968"
       d="m 80.389721,79.896739 c -0.179993,0.389593 -0.658945,1.394484 -0.728316,1.721559 -0.0013,0.0065 -0.14718,2.357805 -0.153418,2.458228 -0.02114,0.03678 0.03088,0.06668 0.05202,0.0299 v 0 c 0.473215,-0.323615 1.733661,-1.1497 2.078236,-1.550186 0.421605,-0.490016 0.682162,-1.317178 0.907383,-1.925397 0.519089,-1.524458 -1.636818,-2.25856 -2.155907,-0.734102 z" />
    <path
       style="fill:#a51d2d;stroke-width:0.264999"
       id="path970"
       d="m 83.918342,68.716384 c -0.04239,0.293272 -0.104346,0.584375 -0.127172,0.879811 -0.0741,0.959067 -0.03416,2.195375 0.01675,3.120856 0.08334,1.515088 0.213077,2.826324 0.422331,4.331456 0.0901,0.648044 0.208719,1.291802 0.313078,1.937703 0.335606,1.639765 0.190085,1.015034 0.507757,2.319271 0.01336,0.05486 -0.01156,0.18378 0.04144,0.164259 0.682839,-0.251561 1.371304,-0.518152 1.984179,-0.910503 0.111654,-0.07148 0.04778,-0.261639 0.05366,-0.394081 0.01648,-0.371626 0.0089,-0.743929 0.01336,-1.115896 0.101463,-0.798147 0.200126,-2.518855 0.770652,-3.165819 0.05934,-0.0673 0.286658,-0.03008 0.263173,0.05652 -0.423775,1.562568 -0.512548,-0.795999 -0.333592,0.995002 0.461698,1.690598 0.32846,1.105575 0.709272,2.932986 0.161552,0.775234 0.162729,1.630764 0.802402,2.22078 0.2107,0.194344 0.525356,0.229484 0.788035,0.344226 0.0065,0.04193 0.06577,0.03276 0.05929,-0.0092 v 0 c 0.216242,-0.185714 0.51053,-0.30784 0.648727,-0.557144 0.448175,-0.808506 0.177829,-1.68157 0.01744,-2.508096 -0.362953,-1.870385 -0.394377,-1.760009 -1.00897,-3.612137 -0.399158,-0.516916 -0.629592,-1.228201 -1.197475,-1.550749 -0.529807,-0.300924 -1.233723,-0.327308 -1.820585,-0.16347 -0.450167,0.125677 -0.757288,0.573955 -1.024152,0.957656 -0.242458,0.348607 -0.345797,0.778307 -0.466386,1.185458 -0.313663,1.059027 -0.332872,1.767962 -0.445693,2.866639 5.29e-4,0.137586 -0.08023,2.633109 0.275381,2.747899 2.802765,0.904734 2.253848,-0.707115 2.031677,-1.841516 -0.08866,-0.452713 -0.172704,-0.90632 -0.259056,-1.35948 -0.517155,-3.072793 -0.94831,-6.201814 -0.72547,-9.324352 0.387543,-1.633463 -1.922523,-2.181532 -2.310066,-0.548069 z" />
    <path
       style="fill:#a51d2d;stroke-width:0.264999"
       id="path974"
       d="m 92.960469,79.140242 c -0.104124,0.26043 -0.242498,0.509656 -0.312369,0.781286 -0.324345,1.260914 -0.327563,3.122324 0.474165,4.228687 0.170831,0.235741 0.424968,0.398036 0.637452,0.597053 1.321438,-0.595291 0.895819,-0.149733 1.470779,-1.119761 0.03213,-0.0277 -0.007,-0.07315 -0.03918,-0.04544 v 0 c -0.551394,0.0068 -0.430176,0.100471 -0.01447,-0.459348 -0.148402,-0.02564 -0.139435,-0.0091 -0.230711,-0.285102 -0.264883,-0.800941 -0.171321,-1.711923 0.04432,-2.509062 0.840261,-1.435417 -1.189728,-2.623727 -2.029989,-1.18831 z" />
    <path
       style="fill:#a51d2d;stroke-width:0.264999"
       id="path988"
       d="m 94.384113,77.197864 c 0.293952,-0.694798 0.172093,-0.234841 0.01688,-1.427382 0.03764,-0.01955 0.01,-0.0728 -0.02767,-0.05324 v 0 c -1.057942,-0.7611 -0.540523,-0.69332 -1.442898,-0.607378 -1.476438,1.02792 -0.02275,3.115919 1.453698,2.087999 z" />
    <path
       style="fill:#a51d2d;stroke-width:0.264999"
       id="path990"
       d="m 98.076995,67.269663 c -0.139652,0.230479 -0.303408,0.44798 -0.418957,0.691436 -1.370867,2.888305 -1.208365,6.522633 -0.312727,9.517356 0.256289,0.856948 0.687123,1.651677 1.030684,2.477519 2.020655,1.647851 1.076849,0.974921 2.778785,2.090674 0.0274,0.03241 0.0732,-0.0063 0.0458,-0.03872 v 0 c -0.66423,-1.666499 -0.39331,-0.705255 -0.64108,-2.926688 -0.680821,-1.779667 -1.14876,-2.695104 -1.374797,-4.655945 -0.249489,-2.164302 0.119653,-4.157908 0.773819,-6.193408 0.680388,-1.330455 -1.201158,-2.292673 -1.881547,-0.962219 z" />
    <path
       style="fill:#a51d2d;stroke-width:0.264999"
       id="path992"
       d="m 102.49315,70.127777 c -0.73442,2.2909 -0.97197,5.051785 -0.39778,7.397425 0.14442,0.589991 0.41105,1.143166 0.61657,1.714751 0.3285,0.448625 0.59317,0.95186 0.9855,1.345875 0.63416,0.63687 1.64208,1.220091 2.57819,1.232222 0.4219,0.0055 0.91084,-0.04026 1.22384,-0.323207 0.34071,-0.308006 0.35817,-0.845888 0.53726,-1.268833 0.0363,-0.02188 0.005,-0.07329 -0.031,-0.0514 v 0 c -0.23257,-0.175075 -0.44538,-0.380079 -0.69772,-0.525227 -0.37252,-0.214284 -0.63247,-0.104757 -1.03073,-0.253508 -0.70417,-0.263012 -0.71619,-0.445169 -1.22898,-1.037757 -0.16326,-0.405508 -0.37543,-0.794607 -0.48979,-1.216525 -0.56582,-2.08761 -0.23284,-4.272494 0.19082,-6.348706 0.4703,-1.595392 -1.78593,-2.260499 -2.25623,-0.665107 z" />
    <path
       style="fill:#a51d2d;stroke-width:0.264999"
       id="path994"
       d="m 101.76384,76.973958 c 0.53566,-0.159702 2.13403,-0.631473 2.52445,-0.773387 0.51365,-0.186704 1.07791,-0.29898 1.51481,-0.62732 0.45132,-0.339174 0.71234,-0.876067 1.0685,-1.3141 0.0413,-0.0098 0.0274,-0.06819 -0.0139,-0.05837 v 0 c -0.54908,-0.22275 -1.05839,-0.602157 -1.64724,-0.66825 -0.56052,-0.06292 -1.11788,0.163166 -1.66597,0.296373 -0.50156,0.121896 -2.02212,0.650917 -2.6079,0.850958 -1.622178,0.584941 -0.79494,2.879043 0.82723,2.294099 z" />
    <path
       style="fill:#a51d2d;stroke-width:0.264999"
       id="path996"
       d="m 107.64462,70.344865 c 1.35899,1.256805 2.51078,2.846824 2.8961,4.697484 0.17423,0.836806 0.17034,1.700993 0.2555,2.551491 0.32534,3.312036 0.13148,1.736079 0.5614,4.730308 -0.008,0.04163 0.0507,0.05321 0.0589,0.01159 v 0 c 1.60759,-2.927485 0.98273,-1.291458 1.69552,-4.972775 -0.1038,-1.044871 -0.0979,-2.106525 -0.31139,-3.134619 -0.42323,-2.038549 -1.67851,-4.139674 -3.32245,-5.434616 -0.13833,-0.108969 -0.29595,-0.190939 -0.44392,-0.286409 -1.29935,-0.982612 -2.68897,0.854938 -1.38963,1.83755 z" />
    <path
       style="fill:#c64600;stroke-width:0.264999"
       id="path1179"
       d="m 173.7436,133.54288 c 1.56135,0.12262 3.13049,0.001 4.69132,-0.0751 0.76445,-0.0342 1.52943,-0.0688 2.29486,-0.0568 0.11546,0.002 0.23087,0.007 0.34622,0.012 0.0526,0.002 0.21011,0.0132 0.15751,0.0111 -0.0831,-0.003 -0.16602,-0.01 -0.24904,-0.0147 -0.0835,-0.22261 -0.23904,-2.03223 -0.68575,-1.39262 -0.25416,0.36391 -0.35272,0.57661 -0.44253,1.04059 -0.0852,0.43993 -0.065,1.12303 -0.0674,1.5507 -0.0517,2.2464 0.0703,4.50143 -0.10933,6.74411 -0.0301,0.37612 -0.086,0.74973 -0.12899,1.1246 -0.0997,0.19494 -0.15648,0.41874 -0.29917,0.58483 -0.19155,0.22296 -0.5462,0.21282 -0.7956,0.18284 -1.07161,-0.12883 -1.98633,-0.68973 -2.92235,-1.18224 -0.62471,-0.73376 -1.63058,-0.59004 -2.38844,-1.00423 -0.25484,-0.13928 -0.41133,-0.41009 -0.61699,-0.61513 -0.0209,-0.0369 -0.0731,-0.007 -0.0522,0.0295 v 0 c 0.12357,0.43883 0.61365,2.22336 0.74172,2.42511 0.30188,0.47553 0.80757,0.78542 1.21135,1.17813 1.14505,0.64886 1.83591,1.17173 3.1496,1.4166 1.01883,0.1899 2.0404,0.11053 2.93165,-0.47517 0.99734,-0.65541 1.0413,-1.2459 1.43175,-2.27095 0.047,-0.42444 0.10805,-0.84757 0.14109,-1.27334 0.17745,-2.28681 0.0498,-4.58456 0.0786,-6.87478 -1.1e-4,-0.007 0.002,-0.87354 -0.036,-1.07998 -0.006,-0.0313 -0.042,-0.0505 -0.0498,-0.0813 -0.0944,-0.374 0.26698,0.44078 0.14143,-0.3227 -0.0943,-0.57327 -0.30044,-1.12243 -0.45065,-1.68364 -1.13442,-0.19331 -2.29208,-0.0645 -3.43505,-0.0319 -1.49309,0.0771 -2.98596,0.15422 -4.48144,0.11488 -1.42811,-0.0752 -1.53446,1.94444 -0.10635,2.01964 z" />
    <path
       style="fill:#a51d2d;stroke-width:0.264999"
       id="path1181"
       d="m 56.962947,133.879 c -0.266396,0.53312 -0.759878,0.93783 -1.004933,1.48209 -0.182623,0.4056 -0.21065,0.86716 -0.373329,1.28116 -0.146397,0.37257 -0.366432,0.71182 -0.549648,1.06772 -0.0303,0.0297 0.01169,0.0726 0.042,0.0429 v 0 c 0.367466,-0.18382 0.728411,-0.38131 1.102402,-0.55147 0.450668,-0.20504 0.961552,-0.29393 1.370177,-0.57352 0.570351,-0.39024 1.024136,-1.21945 1.385665,-1.7947 0.674672,-1.39464 -1.29766,-2.34878 -1.972331,-0.95413 z" />
    <path
       style="fill:#a51d2d;stroke-width:0.264999"
       id="path1183"
       d="m 60.309706,122.83434 c -0.198747,1.77446 0.126074,3.5603 0.319953,5.32082 0.198998,1.80701 0.246343,2.34437 0.424275,4.15648 0.133094,1.24806 0.175496,1.7078 0.318268,2.85837 0.02686,0.21647 0.05794,0.43238 0.08714,0.64854 0.01013,0.075 -0.04111,0.24819 0.03082,0.22481 1.940348,-0.63084 1.712584,-0.26487 2.123001,-0.97689 -0.263306,-1.32424 -0.562044,-2.85995 0.09198,-4.1277 0.07184,-0.13926 0.193164,-0.24679 0.289745,-0.3702 0.457933,0.12845 -0.331263,0.28894 -0.29958,0.47706 0.03562,0.21147 0.197919,0.3815 0.275011,0.58161 0.439613,1.14118 0.420066,1.29102 0.704435,2.55583 0.197162,1.01421 0.123211,1.58391 0.91255,2.31953 0.228918,0.21333 0.557729,0.28391 0.836591,0.42587 0.01307,0.0404 0.07015,0.0219 0.05709,-0.0185 v 0 c 0.164306,-0.21222 0.381799,-0.39234 0.492924,-0.63664 0.509791,-1.12077 0.266004,-1.39184 0.089,-2.64564 -0.137646,-0.57612 -0.236391,-1.16295 -0.41294,-1.72836 -0.507201,-1.62434 -1.605494,-4.09907 -3.799999,-3.27209 -0.336656,0.12687 -0.555082,0.45783 -0.832625,0.68675 -0.171998,0.29996 -0.380801,0.58164 -0.515996,0.89989 -0.743315,1.74978 -0.50756,3.71245 -0.122846,5.51294 0.52696,1.45279 0.122418,1.19824 2.493809,0.0577 0.08252,-0.0397 -0.0132,-0.1827 -0.02334,-0.2737 -0.06502,-0.58321 -0.156004,-1.16338 -0.209886,-1.74792 -0.06216,-0.56339 -0.118303,-1.12742 -0.177453,-1.69114 -0.166767,-1.65058 -0.252476,-2.54838 -0.438844,-4.19579 -0.07733,-0.68359 -0.307218,-2.52631 -0.382132,-3.30476 -0.05353,-0.55622 -0.06473,-0.88731 -0.08856,-1.40222 0.236646,-1.5856 -2.00573,-1.92027 -2.242376,-0.33467 z" />
    <path
       style="fill:#a51d2d;stroke-width:0.264999"
       id="path1185"
       d="m 70.154048,139.21983 c -0.0895,-1.76518 -0.359275,-3.51203 -0.425569,-5.27832 0.168047,-0.28105 0.01638,-0.58533 0.06119,-0.87388 0.0048,-0.0308 0.07048,0.0699 0.04239,0.0834 -0.713298,0.34349 -1.51887,0.50807 -2.178812,0.9454 -0.115464,0.0765 0.146806,0.235 0.224078,0.34996 0.135152,0.20107 0.275405,0.39866 0.413107,0.59798 0.978416,1.42571 1.951503,2.86552 3.253589,4.02199 0.742384,0.65937 0.967812,0.75469 1.758477,1.23729 0.215484,0.0918 0.418242,0.22268 0.646451,0.27543 0.972905,0.2249 1.481942,0.0631 2.067089,-1.05619 0.192662,-0.36853 0.06409,-0.83253 0.0321,-1.24715 -0.04692,-0.60817 -0.47865,-2.75638 -0.581845,-3.29349 -0.200483,-0.67749 -0.367834,-2.91639 -1.223457,-3.27385 -0.23771,-0.0993 -0.515136,0.0105 -0.772703,0.0158 -0.01553,-0.0395 -0.07137,-0.0175 -0.05583,0.022 v 0 c -0.213508,0.11718 -0.48645,0.16294 -0.640527,0.35156 -0.376529,0.46097 -0.107601,1.38315 -0.03331,1.80351 0.09006,0.5096 0.204321,1.01463 0.306482,1.52195 0.09491,0.55207 0.199306,1.1026 0.28474,1.65622 0.06804,0.44088 0.09611,0.88776 0.17559,1.32672 0.01577,0.0872 0.02307,0.26579 0.108548,0.24255 0.365054,-0.0993 0.637135,-0.42505 0.996575,-0.54304 0.01101,-0.004 0.800293,0.302 0.01286,-0.001 -0.566338,-0.33347 -0.745416,-0.41096 -1.290045,-0.87797 -1.200591,-1.02949 -2.043017,-2.37161 -2.945024,-3.65244 -0.132249,-0.18623 -0.264498,-0.37247 -0.396745,-0.5587 -0.0876,-0.12336 -0.112326,-0.38593 -0.262795,-0.37009 -2.707341,0.28503 -2.678737,0.21434 -2.001496,1.58087 0.42871,1.69125 0.609576,3.42352 0.698119,5.16422 0.1207,1.22103 1.847482,1.05033 1.726785,-0.17069 z" />
    <path
       style="fill:#a51d2d;stroke-width:0.264999"
       id="path1187"
       d="m 79.090376,122.32306 c -0.297532,0.21768 -0.655801,0.37049 -0.892601,0.65305 -1.052676,1.25607 -1.697109,3.58262 -1.630878,5.18176 0.03413,0.82417 0.190039,1.64609 0.415967,2.43942 0.213516,0.74975 0.596101,1.44067 0.894151,2.161 0.602631,0.84253 1.267082,2.15944 2.42302,2.47972 0.407845,0.11301 0.838782,-0.11347 1.258171,-0.1702 0.03775,0.0194 0.06514,-0.034 0.02739,-0.0534 v 0 c -0.06082,-0.30313 -0.06559,-0.62316 -0.182454,-0.90939 -0.328872,-0.8055 -1.102699,-1.38491 -1.322639,-2.2502 -0.504047,-1.24369 -0.966184,-2.10368 -1.074161,-3.46545 -0.08857,-1.11705 0.176128,-1.86014 0.528365,-2.88128 0.09342,-0.27084 0.233175,-0.52464 0.320527,-0.7975 0.02013,-0.0629 -0.0011,-0.13216 -0.0019,-0.19824 1.548067,-0.5396 0.784961,-2.7289 -0.763108,-2.1893 z" />
    <path
       style="fill:#a51d2d;stroke-width:0.264999"
       id="path1189"
       d="m 83.114009,122.92785 c -0.150906,0.3917 -0.355114,0.76685 -0.452713,1.17511 -0.195784,0.81897 -0.224343,2.54021 -0.211725,3.29612 0.01873,1.12169 0.125037,2.78397 0.364765,3.89572 0.117954,0.54702 0.327893,1.07007 0.491839,1.6051 0.261023,0.41605 0.457679,0.88025 0.783067,1.24815 0.605509,0.68463 1.420476,1.14348 2.348571,1.1896 0.405088,0.0201 0.85385,-0.008 1.195416,-0.22693 0.131284,-0.0841 1.14444,-1.52298 1.341197,-1.79884 0.03442,-0.0248 -7.94e-4,-0.0735 -0.03508,-0.0487 v 0 c -1.260962,0.3033 -0.257818,0.23387 -1.516213,-0.2141 -0.78545,-0.27961 -0.198485,0.11233 -0.884473,-0.0573 -0.540375,-0.13365 -0.572212,-0.37874 -0.926891,-0.8402 -0.139515,-0.39992 -0.322144,-0.78732 -0.418542,-1.19976 -0.238868,-1.02198 -0.33396,-2.47982 -0.359569,-3.5114 -0.108706,-4.37922 0.06844,0.52487 0.117034,-2.81035 0.0024,-0.16044 -0.0484,-0.31724 -0.0726,-0.47586 0.867156,-1.2474 -0.896926,-2.47374 -1.764082,-1.22635 z" />
    <path
       style="fill:#a51d2d;stroke-width:0.264999"
       id="path1191"
       d="m 82.929419,128.90419 c 0.478251,-0.0806 2.502022,-0.41481 2.816577,-0.50192 0.54305,-0.15039 1.070475,-0.3578 1.585463,-0.58652 0.457033,-0.20297 0.882631,-0.47039 1.323948,-0.70559 0.04242,-8e-4 0.04131,-0.0608 -0.0011,-0.06 v 0 c -0.490289,-0.21806 -0.953556,-0.51162 -1.470869,-0.65416 -1.597718,-0.44026 -3.095773,-0.13101 -4.676711,0.14662 -1.669876,0.29889 -1.247177,2.66045 0.422698,2.36156 z" />
    <path
       style="fill:#a51d2d;stroke-width:0.264999"
       id="path1193"
       d="m 89.103299,124.80031 c 0.663496,1.47865 0.575128,3.14816 0.48989,4.72572 -0.189492,3.50713 -0.253447,1.83732 -0.600903,4.95993 -0.05489,0.49327 -0.05246,0.99124 -0.07868,1.48686 0.0521,0.34241 0.104193,0.68482 0.156289,1.02723 -0.02005,0.0374 0.03282,0.0658 0.05288,0.0284 v 0 c 0.348657,-0.21048 0.697314,-0.42097 1.045972,-0.63145 0.309187,-0.49697 0.714602,-0.94573 0.92756,-1.49092 0.524219,-1.34201 0.861058,-4.07006 0.923788,-5.39246 0.102171,-2.1539 0.09855,-3.32475 -0.606775,-5.26115 -0.109654,-0.30104 -0.342844,-0.54135 -0.514268,-0.81202 -0.961599,-1.26979 -2.757342,0.0901 -1.795743,1.3599 z" />
  </g>
</svg>
