<?xml version="1.0" encoding="UTF-8" standalone="no"?>
<!-- Created with Inkscape (http://www.inkscape.org/) -->

<svg
   width="1280"
   height="720"
   viewBox="0 0 338.66667 190.5"
   version="1.1"
   id="svg5"
   inkscape:version="1.2.2 (b0a8486541, 2022-12-01)"
   xml:space="preserve"
   sodipodi:docname="fig-venn-textpath.svg"
   xmlns:inkscape="http://www.inkscape.org/namespaces/inkscape"
   xmlns:sodipodi="http://sodipodi.sourceforge.net/DTD/sodipodi-0.dtd"
   xmlns="http://www.w3.org/2000/svg"
   xmlns:svg="http://www.w3.org/2000/svg"><sodipodi:namedview
     id="namedview7"
     pagecolor="#ffffff"
     bordercolor="#999999"
     borderopacity="1"
     inkscape:showpageshadow="0"
     inkscape:pageopacity="0"
     inkscape:pagecheckerboard="0"
     inkscape:deskcolor="#d1d1d1"
     inkscape:document-units="mm"
     showgrid="true"
     inkscape:zoom="1.4407301"
     inkscape:cx="457.40698"
     inkscape:cy="306.44185"
     inkscape:window-width="1920"
     inkscape:window-height="1056"
     inkscape:window-x="0"
     inkscape:window-y="0"
     inkscape:window-maximized="1"
     inkscape:current-layer="layer1"><inkscape:grid
       type="xygrid"
       id="grid9" /></sodipodi:namedview><defs
     id="defs2"><rect
       x="279.05067"
       y="218.50844"
       width="155.73053"
       height="66.748886"
       id="rect1171" /><rect
       x="466.28035"
       y="331.95996"
       width="136.11085"
       height="47.566772"
       id="rect5072" /><rect
       x="206.80917"
       y="326.69128"
       width="175.47074"
       height="62.346626"
       id="rect5066" /><rect
       x="330.27419"
       y="116.63685"
       width="199.05719"
       height="82.654603"
       id="rect4478" /><rect
       x="339.50374"
       y="108.99731"
       width="98.095561"
       height="67.153369"
       id="rect4422" /><rect
       x="335.61011"
       y="118.39228"
       width="131.60977"
       height="54.620264"
       id="rect4404" /><rect
       x="206.80917"
       y="326.69128"
       width="224.27856"
       height="65.224924"
       id="rect5066-3" /></defs><g
     inkscape:label="Layer 1"
     inkscape:groupmode="layer"
     id="layer1"><ellipse
       style="fill:none;stroke:#000000;stroke-width:0.273465;stroke-dasharray:none;stroke-opacity:1"
       id="path2264-3-6-7"
       cx="85"
       cy="85"
       rx="34.86327"
       ry="34.863266"
       inkscape:export-filename="../fig-venn.svg"
       inkscape:export-xdpi="96"
       inkscape:export-ydpi="96" /><ellipse
       style="fill:none;stroke:#000000;stroke-width:0.273465;stroke-dasharray:none;stroke-opacity:1"
       id="path2264-3-6-7-5"
       cx="125"
       cy="85"
       rx="34.86327"
       ry="34.863266" /><ellipse
       style="fill:none;stroke:#000000;stroke-width:0.273465;stroke-dasharray:none;stroke-opacity:1"
       id="path2264-3-6-7-5-3"
       cx="105"
       cy="50.903885"
       rx="34.86327"
       ry="34.863266" /><path
       style="fill:#a51d2d;stroke:#000000;stroke-width:0.122893;stroke-dasharray:none;stroke-opacity:1"
       d="m 393.25153,323.5365 c -9.33698,-0.2579 -19.59402,-1.6844 -28.56064,-3.97207 -7.49449,-1.91209 -15.46059,-4.70548 -22.14357,-7.76486 l -0.94961,-0.43472 0.0602,-0.52905 c 0.0331,-0.29098 0.14667,-1.44009 0.25239,-2.55359 1.65255,-17.40613 7.25104,-35.26874 15.94016,-50.8589 9.19791,-16.50304 22.10907,-31.09003 37.29016,-42.13028 l 1.70501,-1.23995 0.81032,0.57291 c 8.47573,5.99248 17.36731,14.26651 24.35034,22.65912 16.93681,20.35563 27.21337,44.93565 29.83114,71.35171 0.10292,1.0386 0.18713,2.08922 0.18713,2.33472 v 0.44636 l -2.13429,0.943 c -17.78279,7.857 -37.30786,11.70956 -56.63872,11.1756 z"
       id="path4267"
       transform="scale(0.26458333)" /><path
       style="fill:#d1ff82;stroke:#000000;stroke-width:0.122893;stroke-dasharray:none;stroke-opacity:1"
       d="m 453.08219,309.64914 c -0.0445,-0.65058 -0.22023,-2.37 -0.39043,-3.82092 -4.23116,-36.06989 -23.03936,-68.7364 -52.11034,-90.50644 l -2.67011,-1.99953 0.95232,-0.64672 c 19.68042,-13.36495 42.75718,-21.12143 66.71919,-22.42542 2.94509,-0.16027 10.85871,-0.1619 13.68098,-0.003 15.72602,0.88642 30.51537,4.33226 44.8229,10.44349 3.64751,1.55797 3.52066,1.48318 3.52066,2.07593 0,0.60691 -0.28929,3.45102 -0.61718,6.06764 -2.7115,21.63866 -10.9304,42.48942 -23.76687,60.29487 -4.30797,5.97557 -8.24888,10.57705 -13.82957,16.14763 -9.34072,9.32381 -19.33433,16.72672 -30.92748,22.90997 -2.18872,1.16736 -4.18928,2.18005 -4.86014,2.46021 l -0.44295,0.18499 z"
       id="path4269"
       transform="scale(0.26458333)" /><path
       style="fill:#d1ff82;stroke:#000000;stroke-width:0.122893;stroke-dasharray:none;stroke-opacity:1"
       d="m 337.23633,309.21492 c -10.36135,-5.29699 -19.85994,-11.84447 -28.46332,-19.62007 -3.38821,-3.0622 -8.27845,-8.08047 -11.30918,-11.60525 -17.85222,-20.76236 -28.71516,-46.37299 -31.25803,-73.69442 -0.10046,-1.07937 -0.14369,-1.99641 -0.0961,-2.03785 0.16422,-0.14292 4.1414,-1.86687 6.38304,-2.76679 11.3355,-4.55074 23.42536,-7.52063 35.60539,-8.7465 5.02947,-0.50619 6.31121,-0.56005 13.25153,-0.55682 7.12327,0.003 9.02092,0.0937 14.29448,0.68061 18.77811,2.08993 36.9236,8.21102 53.06749,17.90146 2.67056,1.60301 6.99386,4.40214 6.99386,4.52818 0,0.045 -1.25613,1.0269 -2.79141,2.18211 -13.55596,10.20009 -24.88932,22.71569 -33.64307,37.15255 -10.24207,16.89141 -16.55286,35.84024 -18.53096,55.64119 -0.13762,1.37759 -0.26513,2.51963 -0.28336,2.53785 -0.0182,0.0182 -1.46741,-0.70008 -3.22039,-1.59625 z"
       id="path4271"
       transform="scale(0.26458333)" /><path
       style="fill:#d1ff82;stroke:#000000;stroke-width:0.122893;stroke-dasharray:none;stroke-opacity:1"
       d="m 396.38037,428.13183 c -10.15981,-7.32271 -18.78567,-15.48068 -26.30847,-24.88144 -8.20217,-10.24974 -14.73458,-21.48558 -19.56323,-33.64906 -6.97066,-17.55926 -10.03506,-36.24537 -9.07651,-55.34677 0.0683,-1.36139 0.10532,-1.56547 0.27432,-1.51288 0.10745,0.0334 1.34594,0.5618 2.75221,1.17417 11.21965,4.88563 23.86622,8.31858 36.15481,9.81434 6.07918,0.73995 9.44726,0.93131 16.31902,0.92717 5.78191,-0.003 7.54271,-0.075 12.14724,-0.49333 13.96736,-1.26897 28.44353,-5.02396 41.21249,-10.69013 0.97056,-0.43068 1.79161,-0.75609 1.82457,-0.72313 0.2555,0.2555 0.36735,11.42573 0.15306,15.28604 -1.40015,25.22341 -9.72394,49.08362 -24.17511,69.29813 -4.62227,6.46571 -8.34962,10.85088 -14.16033,16.65942 -3.81658,3.81515 -6.33005,6.10468 -9.87953,8.99931 -2.20359,1.79703 -7.00428,5.40972 -7.18374,5.406 -0.0675,-0.001 -0.28835,-0.12192 -0.4908,-0.26784 z"
       id="path4273"
       transform="scale(0.26458333)" /><path
       style="fill:#f8ead3;stroke:#000000;stroke-width:0.49157;stroke-dasharray:none;stroke-opacity:1"
       d="m 309.20245,451.75755 c -2.56441,-0.24593 -7.65328,-0.99606 -11.30858,-1.66697 -25.56764,-4.69279 -48.59962,-16.51607 -67.31188,-34.55399 -7.64759,-7.37199 -12.61411,-13.32568 -18.48874,-22.16373 -11.65239,-17.53032 -18.51201,-36.41348 -20.98744,-57.77423 -0.98721,-8.51872 -0.72039,-25.18362 0.53657,-33.51274 5.80986,-38.4984 28.67345,-72.7717 62.01071,-92.95619 4.85274,-2.93815 10.08104,-5.69412 10.80223,-5.69412 0.23882,0 0.58366,1.82209 0.76631,4.04908 0.41865,5.10453 2.80847,17.07415 4.49092,22.49318 5.12758,16.5155 13.35246,32.35543 23.2981,44.86879 4.49528,5.65585 14.67771,15.9207 20.25762,20.42157 7.53202,6.0755 18.90673,13.35527 25.26604,16.17017 l 1.47228,0.6517 0.25011,12.05312 c 0.27092,13.05597 1.02162,18.99224 3.78686,29.94536 5.52246,21.87451 16.62781,41.92284 32.52521,58.71735 4.14666,4.38066 12.17297,11.51901 16.19197,14.40062 1.2822,0.91935 2.33128,1.80656 2.33128,1.97158 0,0.67803 -10.55455,6.8217 -17.42331,10.14188 -11.75748,5.68325 -25.16337,9.76178 -38.62402,11.75073 -6.12442,0.90495 -23.41751,1.30296 -29.84224,0.68684 z"
       id="path4275"
       transform="scale(0.26458333)" /><path
       style="fill:#f8ead3;stroke:#000000;stroke-width:0.49157;stroke-dasharray:none;stroke-opacity:1"
       d="m 393.12883,209.85489 c -15.82178,-10.17461 -33.44162,-16.7879 -52.58621,-19.73732 -9.39528,-1.44744 -27.99085,-1.57329 -36.98434,-0.25029 -11.51425,1.6938 -21.55812,4.33379 -31.26467,8.21779 -2.77989,1.11235 -5.35922,2.14338 -5.73184,2.29116 -0.94547,0.37498 -0.454,-20.26922 0.64367,-27.03786 4.68319,-28.87812 17.30269,-53.79948 37.32077,-73.702107 21.32298,-21.200011 49.08341,-34.381048 79.1466,-37.579908 8.12381,-0.86441 26.22451,-0.351899 33.7505,0.955627 15.23178,2.646287 26.72282,6.475539 39.80591,13.264854 19.84528,10.298467 36.30724,25.146544 49.03728,44.229834 4.19396,6.28704 11.05748,19.84031 13.69056,27.03448 3.33335,9.10745 5.99438,20.72777 7.1625,31.27757 0.48129,4.34668 0.73779,21.09489 0.32933,21.50335 -0.10542,0.10543 -1.95814,-0.56438 -4.11714,-1.48847 -25.73269,-11.01405 -58.00556,-13.0636 -85.79141,-5.44834 -13.3723,3.66494 -27.23989,9.99524 -39.50353,18.03263 -1.19301,0.78188 -1.32896,0.73859 -4.90798,-1.563 z"
       id="path4346"
       transform="scale(0.26458333)" /><path
       style="fill:#f8ead3;stroke:#000000;stroke-width:0.49157;stroke-dasharray:none;stroke-opacity:1"
       d="m 460.3681,451.75755 c -16.21645,-1.55514 -33.36704,-6.62521 -47.85276,-14.14628 -6.24033,-3.24001 -14.01119,-7.92074 -13.96017,-8.40882 0.0141,-0.13497 1.93694,-1.68098 4.27295,-3.43558 5.75871,-4.32542 18.65643,-17.27375 23.33558,-23.42714 13.82118,-18.17576 22.6221,-38.69685 26.05167,-60.74464 1.09385,-7.03203 1.82794,-19.36847 1.46218,-24.5719 l -0.31354,-4.46035 5.82564,-3.15259 c 32.01467,-17.32494 55.53433,-46.46035 65.16567,-80.72517 1.67522,-5.95983 3.62688,-15.84819 4.02927,-20.41485 0.18195,-2.06488 0.50066,-4.02913 0.70825,-4.36502 0.27748,-0.44897 1.65796,0.0695 5.21285,1.95785 24.53525,13.03303 45.58241,35.48232 57.26797,61.0831 5.49932,12.04793 9.68517,27.21124 11.12295,40.2931 0.68982,6.27638 0.69795,21.69173 0.0146,27.73007 -2.95552,26.117 -12.74972,49.38243 -29.23592,69.44785 -4.93141,6.00203 -14.72076,15.60371 -20.34649,19.95641 -18.22757,14.10294 -39.88941,23.29433 -62.9185,26.69712 -6.12442,0.90495 -23.41751,1.30296 -29.84223,0.68684 z"
       id="path4348"
       transform="scale(0.26458333)" /><text
       xml:space="preserve"
       transform="scale(0.26458333)"
       id="text4402"
       style="font-style:normal;font-variant:normal;font-weight:normal;font-stretch:normal;font-family:'Fira Code';-inkscape-font-specification:'Fira Code';white-space:pre;shape-inside:url(#rect4404);display:inline;fill:#f8ead3;stroke:#000000;stroke-width:1.00157;stroke-dasharray:none;stroke-opacity:1" /><text
       xml:space="preserve"
       transform="scale(0.26458333)"
       id="text4420"
       style="font-style:normal;font-variant:normal;font-weight:normal;font-stretch:normal;font-size:21.3333px;font-family:'Fira Code';-inkscape-font-specification:'Fira Code';white-space:pre;shape-inside:url(#rect4422);display:inline;fill:#f8ead3;stroke:#000000;stroke-width:1.00157;stroke-dasharray:none;stroke-opacity:1"><tspan
         x="339.50391"
         y="127.66468"
         id="tspan841">
</tspan><tspan
         x="339.50391"
         y="154.33131"
         id="tspan843">
</tspan><tspan
         x="339.50391"
         y="194.81703"
         id="tspan847"><tspan
           dx="0 13.128194 13.128194 13.128195 13.128193 13.128193 13.128197 13.128189 13.128197"
           id="tspan845">continous</tspan></tspan></text><g
       aria-label="continous"
       transform="matrix(0.26458333,0,0,0.26458333,-3.3586654,2.8970427)"
       id="text4476"
       style="font-size:29.3333px;font-family:'Fira Code';-inkscape-font-specification:'Fira Code';white-space:pre;shape-inside:url(#rect4478);display:inline;fill:#f8ead3;stroke:#000000;stroke-width:1.00157"><path
         d="m 340.60778,139.94165 q 1.11317,0 2.0759,-0.39111 0.96273,-0.39111 1.83521,-0.99282 l 1.56444,2.16615 q -1.03794,0.88752 -2.52717,1.4441 -1.47419,0.54154 -3.05367,0.54154 -2.43692,0 -4.18188,-1.02291 -1.72991,-1.03794 -2.64752,-2.8882 -0.90256,-1.86529 -0.90256,-4.36239 0,-2.42187 0.9176,-4.31726 0.93265,-1.91042 2.67761,-3.00854 1.74495,-1.11316 4.19692,-1.11316 3.18905,0 5.50563,1.91043 l -1.5494,2.12102 q -0.93265,-0.64684 -1.91042,-0.97778 -0.97778,-0.34598 -1.98564,-0.34598 -1.89539,0 -3.08376,1.38393 -1.18837,1.38393 -1.18837,4.34734 0,2.97846 1.20341,4.24205 1.20342,1.26359 3.05367,1.26359 z"
         style="font-weight:500;-inkscape-font-specification:'Fira Code Medium';fill:#000000;stroke:none"
         id="path334" /><path
         d="m 357.36538,125.99705 q 3.48991,0 5.32513,2.27145 1.83521,2.27145 1.83521,6.06222 0,2.52717 -0.84239,4.40751 -0.82735,1.88034 -2.43692,2.93333 -1.59453,1.03795 -3.89607,1.03795 -3.47487,0 -5.32512,-2.24137 -1.85025,-2.2564 -1.85025,-6.10734 0,-2.467 0.82734,-4.34734 0.8424,-1.89539 2.45197,-2.94838 1.60957,-1.06803 3.9111,-1.06803 z m 0,2.61743 q -1.82016,0 -2.73777,1.39898 -0.91761,1.38393 -0.91761,4.34734 0,2.96342 0.90257,4.36239 0.9176,1.38393 2.73777,1.38393 1.82017,0 2.72273,-1.39897 0.91761,-1.39898 0.91761,-4.37743 0,-2.93333 -0.90256,-4.31726 -0.90257,-1.39898 -2.72274,-1.39898 z"
         style="font-weight:500;-inkscape-font-specification:'Fira Code Medium';fill:#000000;stroke:none"
         id="path336" /><path
         d="m 369.05359,142.30336 v -15.88511 h 2.90324 l 0.25573,2.06085 q 0.99282,-1.20342 2.34666,-1.83521 1.35385,-0.64684 2.78291,-0.64684 2.22632,0 3.32444,1.24855 1.11316,1.24854 1.11316,3.47486 v 11.5829 h -3.36957 v -9.91316 q 0,-2.06085 -0.4212,-2.93333 -0.40615,-0.88752 -1.85025,-0.88752 -1.15829,0 -2.12103,0.72206 -0.94769,0.707 -1.59452,1.60957 v 11.40238 z"
         style="font-weight:500;-inkscape-font-specification:'Fira Code Medium';fill:#000000;stroke:none"
         id="path338" /><path
         d="m 400.37254,141.46096 q -0.87248,0.55658 -2.09094,0.90257 -1.21846,0.34598 -2.54222,0.34598 -2.76786,0 -4.21196,-1.42906 -1.42906,-1.4441 -1.42906,-3.79076 v -8.61948 h -3.53504 v -2.45196 h 3.53504 v -3.55009 l 3.36957,-0.40615 v 3.95624 h 5.35521 l -0.37607,2.45196 h -4.97914 v 8.58939 q 0,1.27863 0.6318,1.91043 0.64683,0.61675 2.10598,0.61675 0.87247,0 1.59452,-0.2106 0.7371,-0.2106 1.35385,-0.54154 z"
         style="font-weight:500;-inkscape-font-specification:'Fira Code Medium';fill:#000000;stroke:none"
         id="path340" /><path
         d="m 411.48912,118.64116 q 0.99282,0 1.59453,0.60171 0.61675,0.60171 0.61675,1.50427 0,0.90256 -0.61675,1.51932 -0.60171,0.61675 -1.59453,0.61675 -0.96274,0 -1.57949,-0.61675 -0.61675,-0.61676 -0.61675,-1.51932 0,-0.90256 0.61675,-1.50427 0.61675,-0.60171 1.57949,-0.60171 z m 2.34666,7.77709 v 13.4181 h 4.31726 v 2.46701 h -12.44032 v -2.46701 h 4.75349 v -10.9511 h -4.60307 v -2.467 z"
         style="font-weight:500;-inkscape-font-specification:'Fira Code Medium';fill:#000000;stroke:none"
         id="path342" /><path
         d="m 423.2074,142.30336 v -15.88511 h 2.90325 l 0.25572,2.06085 q 0.99282,-1.20342 2.34667,-1.83521 1.35384,-0.64684 2.7829,-0.64684 2.22632,0 3.32444,1.24855 1.11316,1.24854 1.11316,3.47486 v 11.5829 h -3.36957 v -9.91316 q 0,-2.06085 -0.42119,-2.93333 -0.40615,-0.88752 -1.85026,-0.88752 -1.15829,0 -2.12102,0.72206 -0.94769,0.707 -1.59453,1.60957 v 11.40238 z"
         style="font-weight:500;-inkscape-font-specification:'Fira Code Medium';fill:#000000;stroke:none"
         id="path344" /><path
         d="m 447.62175,125.99705 q 3.48991,0 5.32512,2.27145 1.83521,2.27145 1.83521,6.06222 0,2.52717 -0.84239,4.40751 -0.82735,1.88034 -2.43692,2.93333 -1.59453,1.03795 -3.89606,1.03795 -3.47487,0 -5.32512,-2.24137 -1.85026,-2.2564 -1.85026,-6.10734 0,-2.467 0.82735,-4.34734 0.84239,-1.89539 2.45196,-2.94838 1.60958,-1.06803 3.91111,-1.06803 z m 0,2.61743 q -1.82017,0 -2.73777,1.39898 -0.91761,1.38393 -0.91761,4.34734 0,2.96342 0.90256,4.36239 0.91761,1.38393 2.73778,1.38393 1.82017,0 2.72273,-1.39897 0.91761,-1.39898 0.91761,-4.37743 0,-2.93333 -0.90257,-4.31726 -0.90256,-1.39898 -2.72273,-1.39898 z"
         style="font-weight:500;-inkscape-font-specification:'Fira Code Medium';fill:#000000;stroke:none"
         id="path346" /><path
         d="m 462.67953,126.41825 v 11.10152 q 0,1.41402 0.55658,2.01573 0.57162,0.6017 1.71487,0.6017 1.08307,0 2.09094,-0.64683 1.00786,-0.64684 1.59452,-1.57949 v -11.49263 h 3.36957 v 15.88511 h -2.90324 l -0.2106,-2.03077 q -0.88752,1.18837 -2.24137,1.82017 -1.35384,0.61675 -2.76786,0.61675 -2.31657,0 -3.44478,-1.26359 -1.1282,-1.27863 -1.1282,-3.50495 v -11.52272 z"
         style="font-weight:500;-inkscape-font-specification:'Fira Code Medium';fill:#000000;stroke:none"
         id="path348" /><path
         d="m 483.13763,140.12216 q 1.57949,0 2.51214,-0.55658 0.93264,-0.57162 0.93264,-1.56444 0,-0.64684 -0.27076,-1.09812 -0.27077,-0.45128 -1.08308,-0.84239 -0.81231,-0.39111 -2.46701,-0.81231 -1.56444,-0.40615 -2.75281,-0.96273 -1.17334,-0.55658 -1.82017,-1.4441 -0.64684,-0.88752 -0.64684,-2.2865 0,-2.04581 1.69983,-3.29435 1.71487,-1.26359 4.6482,-1.26359 2.00068,0 3.48991,0.52649 1.48923,0.5265 2.54222,1.30872 l -1.41402,2.12102 q -0.93265,-0.61675 -2.04581,-1.00786 -1.09812,-0.39111 -2.48205,-0.39111 -1.60957,0 -2.31657,0.48137 -0.69197,0.48137 -0.69197,1.27863 0,0.60171 0.34598,0.99282 0.36103,0.39111 1.23351,0.73709 0.87247,0.34598 2.467,0.78222 1.5494,0.4212 2.69265,0.99282 1.15829,0.57163 1.79008,1.51932 0.64684,0.93265 0.64684,2.43692 0,1.71487 -0.99282,2.81299 -0.99282,1.08307 -2.58735,1.60957 -1.59453,0.51145 -3.42974,0.51145 -2.21128,0 -3.82085,-0.63179 -1.60957,-0.64684 -2.70769,-1.60958 l 1.79009,-2.04581 q 0.93264,0.75214 2.13606,1.23351 1.20342,0.46632 2.60239,0.46632 z"
         style="font-weight:500;-inkscape-font-specification:'Fira Code Medium';fill:#000000;stroke:none"
         id="path350" /></g><g
       aria-label="injective"
       transform="matrix(0.13229167,0.22913589,-0.22913589,0.13229167,113.5331,-20.844033)"
       id="text5064"
       style="font-weight:500;font-size:29.3333px;font-family:'Fira Code';-inkscape-font-specification:'Fira Code Medium';white-space:pre;shape-inside:url(#rect5066);display:inline;stroke-width:1.00157"><path
         d="m 215.81918,328.69585 q 0.99282,0 1.59453,0.60171 0.61675,0.60171 0.61675,1.50427 0,0.90256 -0.61675,1.51931 -0.60171,0.61675 -1.59453,0.61675 -0.96273,0 -1.57948,-0.61675 -0.61676,-0.61675 -0.61676,-1.51931 0,-0.90256 0.61676,-1.50427 0.61675,-0.60171 1.57948,-0.60171 z m 2.34667,7.77708 v 13.41811 h 4.31726 v 2.467 h -12.44033 v -2.467 h 4.7535 v -10.9511 h -4.60307 v -2.46701 z"
         id="path400" /><path
         d="m 227.53747,352.35804 v -15.88511 h 2.90325 l 0.25572,2.06086 q 0.99282,-1.20342 2.34667,-1.83522 1.35384,-0.64683 2.7829,-0.64683 2.22632,0 3.32444,1.24854 1.11316,1.24855 1.11316,3.47487 v 11.58289 h -3.36957 v -9.91315 q 0,-2.06085 -0.42119,-2.93333 -0.40616,-0.88752 -1.85026,-0.88752 -1.15829,0 -2.12102,0.72205 -0.94769,0.70701 -1.59453,1.60957 v 11.40238 z"
         id="path402" /><path
         d="m 253.98258,328.69585 q 0.97778,0 1.59453,0.60171 0.61675,0.60171 0.61675,1.50427 0,0.90256 -0.61675,1.51931 -0.61675,0.61675 -1.59453,0.61675 -0.97778,0 -1.59453,-0.61675 -0.60171,-0.61675 -0.60171,-1.51931 0,-0.90256 0.60171,-1.50427 0.61675,-0.60171 1.59453,-0.60171 z m 2.63248,7.77708 v 12.54563 q 0,2.96342 -1.23351,4.91897 -1.2335,1.95555 -3.59521,3.12888 -2.3617,1.17334 -5.74631,1.77504 l -0.54154,-2.58734 q 2.3617,-0.45128 4.10666,-1.24855 1.74496,-0.79726 2.69265,-2.18119 0.94769,-1.38393 0.94769,-3.58017 v -10.30426 h -6.27282 v -2.46701 z"
         id="path404" /><path
         d="m 266.43796,345.49856 q 0.15043,2.45197 1.36889,3.55009 1.2335,1.09811 2.96342,1.09811 1.15829,0 2.1511,-0.36102 1.00787,-0.36103 2.01573,-1.02291 l 1.45914,2.01573 q -1.11316,0.90256 -2.60239,1.4441 -1.48923,0.54154 -3.18905,0.54154 -2.48205,0 -4.19692,-1.05299 -1.69983,-1.05299 -2.58735,-2.93333 -0.87248,-1.88034 -0.87248,-4.34735 0,-2.39179 0.87248,-4.27213 0.87248,-1.89538 2.49709,-2.9935 1.62461,-1.11316 3.88102,-1.11316 3.15897,0 4.99418,2.12102 1.85026,2.12102 1.85026,5.82153 0,0.40616 -0.0301,0.81231 -0.015,0.39111 -0.0451,0.69196 z m 3.79077,-6.94973 q -1.57949,0 -2.61743,1.1282 -1.03795,1.12821 -1.18838,3.52 h 7.35589 q -0.0451,-2.24137 -0.96273,-3.44478 -0.90257,-1.20342 -2.58735,-1.20342 z"
         id="path406" /><path
         d="m 289.34803,349.99634 q 1.11317,0 2.0759,-0.39111 0.96273,-0.39111 1.83521,-0.99282 l 1.56444,2.16615 q -1.03794,0.88752 -2.52717,1.4441 -1.47419,0.54154 -3.05367,0.54154 -2.43693,0 -4.18188,-1.02291 -1.72991,-1.03795 -2.64752,-2.8882 -0.90256,-1.8653 -0.90256,-4.36239 0,-2.42188 0.9176,-4.31726 0.93265,-1.91042 2.67761,-3.00854 1.74495,-1.11316 4.19692,-1.11316 3.18905,0 5.50563,1.91042 l -1.5494,2.12103 q -0.93265,-0.64684 -1.91042,-0.97778 -0.97778,-0.34598 -1.98564,-0.34598 -1.89539,0 -3.08376,1.38393 -1.18837,1.38393 -1.18837,4.34734 0,2.97846 1.20341,4.24205 1.20342,1.26359 3.05367,1.26359 z"
         id="path408" /><path
         d="m 313.01024,351.51565 q -0.87248,0.55658 -2.09094,0.90256 -1.21846,0.34599 -2.54222,0.34599 -2.76786,0 -4.21196,-1.42906 -1.42906,-1.4441 -1.42906,-3.79077 v -8.61947 h -3.53504 v -2.45197 h 3.53504 v -3.55008 l 3.36957,-0.40615 v 3.95623 h 5.35521 l -0.37607,2.45197 h -4.97914 v 8.58939 q 0,1.27863 0.63179,1.91042 0.64684,0.61675 2.10598,0.61675 0.87248,0 1.59453,-0.21059 0.7371,-0.2106 1.35385,-0.54154 z"
         id="path410" /><path
         d="m 324.12682,328.69585 q 0.99282,0 1.59453,0.60171 0.61675,0.60171 0.61675,1.50427 0,0.90256 -0.61675,1.51931 -0.60171,0.61675 -1.59453,0.61675 -0.96273,0 -1.57948,-0.61675 -0.61676,-0.61675 -0.61676,-1.51931 0,-0.90256 0.61676,-1.50427 0.61675,-0.60171 1.57948,-0.60171 z m 2.34667,7.77708 v 13.41811 h 4.31726 v 2.467 h -12.44033 v -2.467 h 4.7535 v -10.9511 h -4.60307 v -2.46701 z"
         id="path412" /><path
         d="m 349.75963,336.47293 -5.59589,15.88511 h -3.94119 l -5.5959,-15.88511 h 3.61026 l 4.03145,13.08717 4.04649,-13.08717 z"
         id="path414" /><path
         d="m 356.69433,345.49856 q 0.15043,2.45197 1.36889,3.55009 1.2335,1.09811 2.96341,1.09811 1.15829,0 2.15111,-0.36102 1.00786,-0.36103 2.01573,-1.02291 l 1.45914,2.01573 q -1.11316,0.90256 -2.60239,1.4441 -1.48923,0.54154 -3.18906,0.54154 -2.48205,0 -4.19692,-1.05299 -1.69982,-1.05299 -2.58734,-2.93333 -0.87248,-1.88034 -0.87248,-4.34735 0,-2.39179 0.87248,-4.27213 0.87247,-1.89538 2.49709,-2.9935 1.62461,-1.11316 3.88102,-1.11316 3.15897,0 4.99418,2.12102 1.85026,2.12102 1.85026,5.82153 0,0.40616 -0.0301,0.81231 -0.015,0.39111 -0.0451,0.69196 z m 3.79076,-6.94973 q -1.57948,0 -2.61743,1.1282 -1.03795,1.12821 -1.18837,3.52 h 7.35589 q -0.0451,-2.24137 -0.96274,-3.44478 -0.90256,-1.20342 -2.58735,-1.20342 z"
         id="path416" /></g><g
       aria-label="surjective"
       transform="matrix(0.13229167,-0.22913589,0.22913589,0.13229167,17.777008,113.79336)"
       id="text5064-6"
       style="font-weight:500;font-size:29.3333px;font-family:'Fira Code';-inkscape-font-specification:'Fira Code Medium';white-space:pre;shape-inside:url(#rect5066-3);display:inline;stroke-width:1.00157"><path
         d="m 215.2626,350.17685 q 1.57949,0 2.51213,-0.55658 0.93265,-0.57162 0.93265,-1.56444 0,-0.64684 -0.27077,-1.09812 -0.27076,-0.45128 -1.08307,-0.84239 -0.81231,-0.39112 -2.46701,-0.81231 -1.56444,-0.40615 -2.75281,-0.96274 -1.17334,-0.55658 -1.82017,-1.4441 -0.64684,-0.88752 -0.64684,-2.28649 0,-2.04581 1.69983,-3.29435 1.71487,-1.26359 4.6482,-1.26359 2.00068,0 3.48991,0.52649 1.48923,0.5265 2.54222,1.30872 l -1.41402,2.12102 q -0.93265,-0.61675 -2.04581,-1.00786 -1.09812,-0.39111 -2.48205,-0.39111 -1.60957,0 -2.31658,0.48137 -0.69196,0.48136 -0.69196,1.27863 0,0.60171 0.34598,0.99282 0.36103,0.39111 1.23351,0.73709 0.87247,0.34598 2.467,0.78222 1.5494,0.4212 2.69265,0.99282 1.15829,0.57162 1.79008,1.51932 0.64684,0.93264 0.64684,2.43692 0,1.71487 -0.99282,2.81298 -0.99282,1.08308 -2.58735,1.60957 -1.59453,0.51146 -3.42974,0.51146 -2.21128,0 -3.82085,-0.6318 -1.60957,-0.64683 -2.70769,-1.60957 l 1.79009,-2.04581 q 0.93264,0.75214 2.13606,1.23351 1.20342,0.46632 2.60239,0.46632 z"
         id="path432" /><path
         d="m 230.90704,336.47293 v 11.10153 q 0,1.41401 0.55658,2.01572 0.57162,0.60171 1.71487,0.60171 1.08308,0 2.09094,-0.64683 1.00786,-0.64684 1.59453,-1.57949 v -11.49264 h 3.36956 v 15.88511 h -2.90324 l -0.2106,-2.03076 q -0.88752,1.18837 -2.24136,1.82017 -1.35385,0.61675 -2.76786,0.61675 -2.31658,0 -3.44479,-1.26359 -1.1282,-1.27863 -1.1282,-3.50495 v -11.52273 z"
         id="path434" /><path
         d="m 245.73917,352.35804 v -2.40683 h 2.33162 v -11.08648 h -2.33162 v -2.3918 h 4.90393 l 0.61675,3.68547 q 0.88752,-2.00068 2.19624,-3.03863 1.32375,-1.05299 3.39965,-1.05299 0.70701,0 1.26359,0.12034 0.57162,0.1053 1.1282,0.28581 l -0.57162,5.85162 h -2.40684 v -3.23418 q -1.68478,0.0602 -2.90324,1.35384 -1.21846,1.27863 -1.92547,3.61025 v 5.89675 h 3.2041 v 2.40683 z"
         id="path436" /><path
         d="m 272.03385,328.69585 q 0.97778,0 1.59453,0.60171 0.61675,0.60171 0.61675,1.50427 0,0.90256 -0.61675,1.51931 -0.61675,0.61675 -1.59453,0.61675 -0.97777,0 -1.59452,-0.61675 -0.60171,-0.61675 -0.60171,-1.51931 0,-0.90256 0.60171,-1.50427 0.61675,-0.60171 1.59452,-0.60171 z m 2.63248,7.77708 v 12.54563 q 0,2.96342 -1.2335,4.91897 -1.23351,1.95555 -3.59521,3.12888 -2.36171,1.17334 -5.74632,1.77504 l -0.54154,-2.58734 q 2.36171,-0.45128 4.10666,-1.24855 1.74496,-0.79726 2.69265,-2.18119 0.94769,-1.38393 0.94769,-3.58017 v -10.30426 h -6.27281 v -2.46701 z"
         id="path438" /><path
         d="m 284.48924,345.49856 q 0.15042,2.45197 1.36888,3.55009 1.23351,1.09811 2.96342,1.09811 1.15829,0 2.15111,-0.36102 1.00786,-0.36103 2.01572,-1.02291 l 1.45915,2.01573 q -1.11317,0.90256 -2.60239,1.4441 -1.48923,0.54154 -3.18906,0.54154 -2.48205,0 -4.19692,-1.05299 -1.69983,-1.05299 -2.58735,-2.93333 -0.87247,-1.88034 -0.87247,-4.34735 0,-2.39179 0.87247,-4.27213 0.87248,-1.89538 2.49709,-2.9935 1.62462,-1.11316 3.88103,-1.11316 3.15897,0 4.99418,2.12102 1.85025,2.12102 1.85025,5.82153 0,0.40616 -0.0301,0.81231 -0.0151,0.39111 -0.0451,0.69196 z m 3.79076,-6.94973 q -1.57948,0 -2.61743,1.1282 -1.03795,1.12821 -1.18838,3.52 h 7.35589 q -0.0451,-2.24137 -0.96273,-3.44478 -0.90256,-1.20342 -2.58735,-1.20342 z"
         id="path440" /><path
         d="m 307.3993,349.99634 q 1.11316,0 2.0759,-0.39111 0.96273,-0.39111 1.83521,-0.99282 l 1.56444,2.16615 q -1.03794,0.88752 -2.52717,1.4441 -1.47419,0.54154 -3.05368,0.54154 -2.43692,0 -4.18187,-1.02291 -1.72991,-1.03795 -2.64752,-2.8882 -0.90256,-1.8653 -0.90256,-4.36239 0,-2.42188 0.9176,-4.31726 0.93265,-1.91042 2.67761,-3.00854 1.74495,-1.11316 4.19692,-1.11316 3.18905,0 5.50563,1.91042 l -1.5494,2.12103 q -0.93265,-0.64684 -1.91042,-0.97778 -0.97778,-0.34598 -1.98564,-0.34598 -1.89539,0 -3.08376,1.38393 -1.18838,1.38393 -1.18838,4.34734 0,2.97846 1.20342,4.24205 1.20342,1.26359 3.05367,1.26359 z"
         id="path442" /><path
         d="m 331.06151,351.51565 q -0.87247,0.55658 -2.09093,0.90256 -1.21846,0.34599 -2.54222,0.34599 -2.76786,0 -4.21196,-1.42906 -1.42906,-1.4441 -1.42906,-3.79077 v -8.61947 h -3.53504 v -2.45197 h 3.53504 v -3.55008 l 3.36957,-0.40615 v 3.95623 h 5.3552 l -0.37606,2.45197 h -4.97914 v 8.58939 q 0,1.27863 0.63179,1.91042 0.64684,0.61675 2.10598,0.61675 0.87248,0 1.59453,-0.21059 0.73709,-0.2106 1.35384,-0.54154 z"
         id="path444" /><path
         d="m 342.1781,328.69585 q 0.99282,0 1.59453,0.60171 0.61675,0.60171 0.61675,1.50427 0,0.90256 -0.61675,1.51931 -0.60171,0.61675 -1.59453,0.61675 -0.96274,0 -1.57949,-0.61675 -0.61675,-0.61675 -0.61675,-1.51931 0,-0.90256 0.61675,-1.50427 0.61675,-0.60171 1.57949,-0.60171 z m 2.34666,7.77708 v 13.41811 h 4.31726 v 2.467 H 336.4017 v -2.467 h 4.75349 v -10.9511 h -4.60307 v -2.46701 z"
         id="path446" /><path
         d="m 367.8109,336.47293 -5.59589,15.88511 h -3.94119 l -5.5959,-15.88511 h 3.61026 l 4.03144,13.08717 4.0465,-13.08717 z"
         id="path448" /><path
         d="m 374.7456,345.49856 q 0.15043,2.45197 1.36889,3.55009 1.2335,1.09811 2.96341,1.09811 1.15829,0 2.15111,-0.36102 1.00786,-0.36103 2.01572,-1.02291 l 1.45915,2.01573 q -1.11316,0.90256 -2.60239,1.4441 -1.48923,0.54154 -3.18906,0.54154 -2.48205,0 -4.19692,-1.05299 -1.69982,-1.05299 -2.58734,-2.93333 -0.87248,-1.88034 -0.87248,-4.34735 0,-2.39179 0.87248,-4.27213 0.87247,-1.89538 2.49709,-2.9935 1.62461,-1.11316 3.88102,-1.11316 3.15897,0 4.99418,2.12102 1.85026,2.12102 1.85026,5.82153 0,0.40616 -0.0301,0.81231 -0.015,0.39111 -0.0451,0.69196 z m 3.79076,-6.94973 q -1.57948,0 -2.61743,1.1282 -1.03795,1.12821 -1.18837,3.52 h 7.35589 q -0.0451,-2.24137 -0.96274,-3.44478 -0.90256,-1.20342 -2.58735,-1.20342 z"
         id="path450" /></g><text
       xml:space="preserve"
       transform="matrix(0.26458333,0,0,0.26458333,-0.55309634,-1.9479558)"
       id="text5070"
       style="font-style:normal;font-variant:normal;font-weight:normal;font-stretch:normal;font-size:29.3333px;font-family:sans-serif;-inkscape-font-specification:sans-serif;white-space:pre;shape-inside:url(#rect5072);display:inline;fill:#000000;fill-opacity:1;stroke:none;stroke-width:1.00157;stroke-dasharray:none;stroke-opacity:1"><tspan
         x="466.28125"
         y="406.21699"
         id="tspan851"><tspan
           dx="0 18.051273 18.051273 18.051273 18.051273 18.05127 18.051277 18.051277 18.05127 18.05127"
           style="font-family:'Fira Code';-inkscape-font-specification:'Fira Code'"
           id="tspan849">surjective</tspan></tspan></text><text
       xml:space="preserve"
       transform="scale(0.26458333)"
       id="text1169"
       style="font-style:normal;font-variant:normal;font-weight:500;font-stretch:normal;font-size:18.6667px;font-family:'Fira Code';-inkscape-font-specification:'Fira Code Medium';text-align:center;white-space:pre;shape-inside:url(#rect1171);display:inline;fill:#a51d2d;fill-opacity:1;stroke-width:1.00157" /><g
       aria-label="Jordan"
       transform="translate(7.541244,-2.0828931)"
       id="text3405"
       style="font-weight:500;font-size:6.35px;font-family:'Fira Code';-inkscape-font-specification:'Fira Code Medium';text-align:center;text-anchor:middle;white-space:pre;inline-size:33.6485;display:inline;fill:#a51d2d;stroke-width:0.264999"><path
         d="m 69.68699,59.568555 v 2.953564 q 0,0.433102 -0.166077,0.804333 -0.166077,0.367974 -0.527538,0.595923 -0.358205,0.224692 -0.944359,0.224692 -0.371231,0 -0.687103,-0.107461 -0.315872,-0.107462 -0.592666,-0.306103 l 0.309359,-0.481948 q 0.267025,0.172589 0.491718,0.237718 0.227948,0.06187 0.449384,0.06187 0.423333,0 0.667564,-0.270282 0.247487,-0.270282 0.247487,-0.775025 v -2.357641 h -1.35141 v -0.579641 z"
         style="fill:#000000;stroke-width:0.265"
         id="path353" /><path
         d="m 72.243275,60.532452 q 0.755487,0 1.152769,0.491718 0.397282,0.491718 0.397282,1.312333 0,0.547077 -0.182359,0.954129 -0.179102,0.407051 -0.527538,0.635 -0.34518,0.224692 -0.84341,0.224692 -0.752231,0 -1.15277,-0.485205 -0.400538,-0.488462 -0.400538,-1.322103 0,-0.534051 0.179102,-0.941102 0.182359,-0.410308 0.530795,-0.638257 0.348436,-0.231205 0.846667,-0.231205 z m 0,0.566616 q -0.394026,0 -0.592667,0.302846 -0.198641,0.299589 -0.198641,0.941102 0,0.641513 0.195385,0.944359 0.198641,0.29959 0.592667,0.29959 0.394025,0 0.58941,-0.302846 0.198641,-0.302846 0.198641,-0.947616 0,-0.635 -0.195385,-0.934589 -0.195384,-0.302846 -0.58941,-0.302846 z"
         style="fill:#000000;stroke-width:0.265"
         id="path355" /><path
         d="m 74.806073,64.062401 v -0.521026 h 0.504743 v -2.399974 h -0.504743 v -0.517769 h 1.061589 l 0.133513,0.79782 q 0.192128,-0.433102 0.475436,-0.657795 0.286564,-0.227948 0.735949,-0.227948 0.153051,0 0.273538,0.02605 0.123744,0.0228 0.244231,0.06187 l -0.123744,1.266743 H 77.08556 v -0.700128 q -0.364718,0.01303 -0.628487,0.293077 -0.26377,0.276795 -0.416821,0.781538 v 1.276513 h 0.693615 v 0.521026 z"
         style="fill:#000000;stroke-width:0.265"
         id="path357" /><path
         d="m 80.700178,59.161503 0.729436,0.08141 v 4.819487 h -0.641513 l -0.0521,-0.423334 q -0.175847,0.244231 -0.420077,0.377744 -0.244231,0.133513 -0.547077,0.133513 -0.442872,0 -0.729436,-0.224692 -0.283308,-0.227949 -0.423333,-0.635 -0.140026,-0.407052 -0.140026,-0.947616 0,-0.524282 0.16282,-0.931333 0.162821,-0.410308 0.465667,-0.644769 0.302846,-0.234462 0.729436,-0.234462 0.530795,0 0.866205,0.374487 z m -0.674077,1.931052 q -0.367974,0 -0.573128,0.306102 -0.205154,0.302846 -0.205154,0.944359 0,0.657795 0.185616,0.954128 0.188871,0.293077 0.527538,0.293077 0.247487,0 0.429846,-0.143282 0.182359,-0.143282 0.309359,-0.345179 v -1.628205 q -0.127,-0.182359 -0.296333,-0.280052 -0.169334,-0.100948 -0.377744,-0.100948 z"
         style="fill:#000000;stroke-width:0.265"
         id="path359" /><path
         d="m 85.216822,63.218991 q 0,0.205153 0.06187,0.296333 0.06187,0.09118 0.198641,0.136769 l -0.16282,0.494974 q -0.254,-0.02931 -0.439615,-0.140025 -0.182359,-0.110718 -0.273539,-0.33541 -0.188872,0.240974 -0.478692,0.361461 -0.289821,0.117231 -0.618718,0.117231 -0.524282,0 -0.827128,-0.293077 -0.302846,-0.296333 -0.302846,-0.775026 0,-0.54382 0.423333,-0.836897 0.423333,-0.293077 1.211384,-0.293077 h 0.491718 v -0.224692 q 0,-0.335411 -0.201897,-0.478693 -0.201897,-0.146538 -0.563359,-0.146538 -0.169333,0 -0.410308,0.04559 -0.240974,0.04233 -0.504743,0.133513 l -0.179103,-0.514513 q 0.322385,-0.120487 0.631744,-0.175846 0.309359,-0.05862 0.573128,-0.05862 0.690359,0 1.029026,0.306103 0.341923,0.306102 0.341923,0.846666 z m -1.491436,0.394025 q 0.221436,0 0.433102,-0.117231 0.211667,-0.11723 0.341923,-0.328897 v -0.758744 h -0.403794 q -0.514513,0 -0.735949,0.17259 -0.221436,0.169334 -0.221436,0.468923 0,0.563359 0.586154,0.563359 z"
         style="fill:#000000;stroke-width:0.265"
         id="path361" /><path
         d="m 86.496593,64.062401 v -3.438769 h 0.628488 l 0.05536,0.446128 q 0.214923,-0.260513 0.508,-0.397282 0.293076,-0.140026 0.602435,-0.140026 0.481949,0 0.719667,0.270282 0.240974,0.270282 0.240974,0.752231 v 2.507436 h -0.729435 v -2.145975 q 0,-0.446128 -0.09118,-0.634999 -0.08792,-0.192129 -0.400538,-0.192129 -0.250744,0 -0.459154,0.156308 -0.205154,0.153051 -0.34518,0.348436 v 2.468359 z"
         style="fill:#000000;stroke-width:0.265"
         id="path363" /></g><g
       aria-label="Cantor"
       transform="translate(27.344247,30.596409)"
       id="text3405-7"
       style="font-weight:500;font-size:6.35px;font-family:'Fira Code';-inkscape-font-specification:'Fira Code Medium';text-align:center;text-anchor:middle;white-space:pre;inline-size:33.6485;display:inline;fill:#a51d2d;stroke-width:0.264999"><path
         d="m 68.710067,59.477375 q 0.455898,0 0.768513,0.120487 0.312615,0.117231 0.586154,0.338667 l -0.394026,0.468923 q -0.400538,-0.332154 -0.92482,-0.332154 -0.335411,0 -0.618718,0.169334 -0.283308,0.169333 -0.455898,0.550333 -0.169333,0.381 -0.169333,1.016 0,0.621974 0.16282,1.002974 0.162821,0.381 0.442872,0.55359 0.283308,0.17259 0.638257,0.17259 0.361461,0 0.599179,-0.117231 0.237718,-0.120487 0.420077,-0.270282 l 0.364718,0.465667 q -0.224692,0.218179 -0.569872,0.377743 -0.345179,0.156308 -0.840154,0.156308 -0.573128,0 -1.025769,-0.267026 -0.452641,-0.267025 -0.71641,-0.788051 -0.260513,-0.524282 -0.260513,-1.286282 0,-0.755487 0.270282,-1.273256 0.270282,-0.521026 0.719667,-0.788052 0.452641,-0.270282 1.002974,-0.270282 z"
         style="fill:#000000"
         id="path419" /><path
         d="m 73.493736,63.218991 q 0,0.205153 0.06187,0.296333 0.06187,0.09118 0.198641,0.136769 l -0.16282,0.494974 q -0.254,-0.02931 -0.439616,-0.140025 -0.182359,-0.110718 -0.273538,-0.33541 -0.188872,0.240974 -0.478692,0.361461 -0.289821,0.117231 -0.618718,0.117231 -0.524282,0 -0.827128,-0.293077 -0.302847,-0.296333 -0.302847,-0.775026 0,-0.54382 0.423334,-0.836897 0.423333,-0.293077 1.211384,-0.293077 h 0.491718 v -0.224692 q 0,-0.335411 -0.201897,-0.478693 -0.201898,-0.146538 -0.563359,-0.146538 -0.169333,0 -0.410308,0.04559 -0.240974,0.04233 -0.504743,0.133513 l -0.179103,-0.514513 q 0.322385,-0.120487 0.631744,-0.175846 0.309359,-0.05862 0.573128,-0.05862 0.690359,0 1.029025,0.306103 0.341923,0.306102 0.341923,0.846666 z m -1.491435,0.394025 q 0.221435,0 0.433102,-0.117231 0.211667,-0.11723 0.341923,-0.328897 v -0.758744 h -0.403795 q -0.514512,0 -0.735948,0.17259 -0.221436,0.169334 -0.221436,0.468923 0,0.563359 0.586154,0.563359 z"
         style="fill:#000000"
         id="path421" /><path
         d="m 74.773508,64.062401 v -3.438769 h 0.628488 l 0.05536,0.446128 q 0.214923,-0.260513 0.508,-0.397282 0.293077,-0.140026 0.602436,-0.140026 0.481948,0 0.719666,0.270282 0.240975,0.270282 0.240975,0.752231 v 2.507436 h -0.729436 v -2.145975 q 0,-0.446128 -0.09118,-0.634999 -0.08792,-0.192129 -0.400538,-0.192129 -0.250744,0 -0.459154,0.156308 -0.205154,0.153051 -0.34518,0.348436 v 2.468359 z"
         style="fill:#000000"
         id="path423" /><path
         d="m 81.553358,63.880042 q -0.188872,0.120487 -0.452641,0.195384 -0.26377,0.0749 -0.550334,0.0749 -0.599179,0 -0.911795,-0.309359 -0.309359,-0.312615 -0.309359,-0.820615 v -1.865923 h -0.765256 v -0.530795 h 0.765256 v -0.768513 l 0.729436,-0.08792 v 0.856436 h 1.159282 l -0.08141,0.530795 h -1.077872 v 1.85941 q 0,0.276795 0.13677,0.413564 0.140025,0.133513 0.455897,0.133513 0.188872,0 0.345179,-0.04559 0.159565,-0.04559 0.293077,-0.117231 z"
         style="fill:#000000"
         id="path425" /><path
         d="m 83.96636,60.532452 q 0.755487,0 1.152769,0.491718 0.397282,0.491718 0.397282,1.312333 0,0.547077 -0.182359,0.954129 -0.179102,0.407051 -0.527538,0.635 -0.34518,0.224692 -0.84341,0.224692 -0.752231,0 -1.15277,-0.485205 -0.400538,-0.488462 -0.400538,-1.322103 0,-0.534051 0.179103,-0.941102 0.182359,-0.410308 0.530794,-0.638257 0.348436,-0.231205 0.846667,-0.231205 z m 0,0.566616 q -0.394026,0 -0.592667,0.302846 -0.198641,0.299589 -0.198641,0.941102 0,0.641513 0.195385,0.944359 0.198641,0.29959 0.592667,0.29959 0.394025,0 0.58941,-0.302846 0.198641,-0.302846 0.198641,-0.947616 0,-0.635 -0.195385,-0.934589 -0.195384,-0.302846 -0.58941,-0.302846 z"
         style="fill:#000000"
         id="path427" /><path
         d="m 86.529158,64.062401 v -0.521026 h 0.504743 v -2.399974 h -0.504743 v -0.517769 h 1.061589 l 0.133513,0.79782 q 0.192128,-0.433102 0.475436,-0.657795 0.286564,-0.227948 0.735949,-0.227948 0.153051,0 0.273538,0.02605 0.123744,0.0228 0.244231,0.06187 l -0.123744,1.266743 h -0.521025 v -0.700128 q -0.364718,0.01303 -0.628488,0.293077 -0.263769,0.276795 -0.41682,0.781538 v 1.276513 h 0.693615 v 0.521026 z"
         style="fill:#000000"
         id="path429" /></g><g
       aria-label="Peano"
       transform="translate(46.292251,-2.0510644)"
       id="text3405-3"
       style="font-weight:500;font-size:6.35px;font-family:'Fira Code';-inkscape-font-specification:'Fira Code Medium';text-align:center;text-anchor:middle;white-space:pre;inline-size:33.6485;display:inline;fill:#a51d2d;stroke-width:0.264999"><path
         d="m 72.008812,60.97858 q 0,0.524282 -0.224692,0.85318 -0.224693,0.325641 -0.621975,0.478692 -0.394025,0.149795 -0.908538,0.149795 h -0.543821 v 1.602154 h -0.755487 v -4.493846 h 1.247205 q 0.846667,0 1.325359,0.348436 0.481949,0.345179 0.481949,1.061589 z m -0.794564,0.0065 q 0,-0.46241 -0.263769,-0.654538 -0.260513,-0.195385 -0.700128,-0.195385 h -0.540565 v 1.748692 h 0.550334 q 0.423333,0 0.687102,-0.195384 0.267026,-0.195385 0.267026,-0.703385 z"
         style="fill:#000000"
         id="path366" /><path
         d="m 73.425353,62.577478 q 0.03256,0.530795 0.296334,0.768513 0.267025,0.237718 0.641512,0.237718 0.250744,0 0.465667,-0.07815 0.21818,-0.07815 0.436359,-0.221436 l 0.315872,0.436359 q -0.240975,0.195384 -0.563359,0.312615 -0.322385,0.117231 -0.690359,0.117231 -0.537308,0 -0.908539,-0.227949 -0.367974,-0.227949 -0.560102,-0.635 -0.188872,-0.407051 -0.188872,-0.941102 0,-0.51777 0.188872,-0.924821 0.188872,-0.410308 0.540564,-0.648025 0.351692,-0.240975 0.840154,-0.240975 0.683846,0 1.081128,0.459154 0.400538,0.459154 0.400538,1.260231 0,0.08792 -0.0065,0.175846 -0.0033,0.08467 -0.0098,0.149795 z m 0.820616,-1.504462 q -0.341923,0 -0.566616,0.244231 -0.224692,0.244231 -0.257256,0.762 h 1.592384 q -0.0098,-0.485205 -0.20841,-0.745718 -0.195384,-0.260513 -0.560102,-0.260513 z"
         style="fill:#000000"
         id="path368" /><path
         d="m 79.355279,63.218991 q 0,0.205153 0.06187,0.296333 0.06187,0.09118 0.198641,0.136769 l -0.162821,0.494974 q -0.254,-0.02931 -0.439615,-0.140025 -0.182359,-0.110718 -0.273538,-0.33541 -0.188872,0.240974 -0.478693,0.361461 -0.28982,0.117231 -0.618718,0.117231 -0.524282,0 -0.827128,-0.293077 -0.302846,-0.296333 -0.302846,-0.775026 0,-0.54382 0.423333,-0.836897 0.423334,-0.293077 1.211385,-0.293077 h 0.491718 v -0.224692 q 0,-0.335411 -0.201898,-0.478693 -0.201897,-0.146538 -0.563359,-0.146538 -0.169333,0 -0.410307,0.04559 -0.240975,0.04233 -0.504744,0.133513 l -0.179102,-0.514513 q 0.322384,-0.120487 0.631743,-0.175846 0.309359,-0.05862 0.573128,-0.05862 0.690359,0 1.029026,0.306103 0.341923,0.306102 0.341923,0.846666 z m -1.491436,0.394025 q 0.221436,0 0.433103,-0.117231 0.211666,-0.11723 0.341923,-0.328897 v -0.758744 h -0.403795 q -0.514513,0 -0.735949,0.17259 -0.221436,0.169334 -0.221436,0.468923 0,0.563359 0.586154,0.563359 z"
         style="fill:#000000"
         id="path370" /><path
         d="m 80.635051,64.062401 v -3.438769 h 0.628487 l 0.05536,0.446128 q 0.214924,-0.260513 0.508,-0.397282 0.293077,-0.140026 0.602436,-0.140026 0.481949,0 0.719667,0.270282 0.240974,0.270282 0.240974,0.752231 v 2.507436 h -0.729436 v -2.145975 q 0,-0.446128 -0.09118,-0.634999 -0.08792,-0.192129 -0.400538,-0.192129 -0.250744,0 -0.459154,0.156308 -0.205154,0.153051 -0.34518,0.348436 v 2.468359 z"
         style="fill:#000000"
         id="path372" /><path
         d="m 85.920208,60.532452 q 0.755487,0 1.152769,0.491718 0.397282,0.491718 0.397282,1.312333 0,0.547077 -0.182359,0.954129 -0.179103,0.407051 -0.527539,0.635 -0.345179,0.224692 -0.84341,0.224692 -0.752231,0 -1.152769,-0.485205 -0.400538,-0.488462 -0.400538,-1.322103 0,-0.534051 0.179102,-0.941102 0.182359,-0.410308 0.530795,-0.638257 0.348436,-0.231205 0.846667,-0.231205 z m 0,0.566616 q -0.394026,0 -0.592667,0.302846 -0.198641,0.299589 -0.198641,0.941102 0,0.641513 0.195385,0.944359 0.198641,0.29959 0.592666,0.29959 0.394026,0 0.58941,-0.302846 0.198642,-0.302846 0.198642,-0.947616 0,-0.635 -0.195385,-0.934589 -0.195385,-0.302846 -0.58941,-0.302846 z"
         style="fill:#000000"
         id="path374" /></g><g
       aria-label="not
possible"
       id="text3477"
       style="font-weight:500;font-size:4.93889px;font-family:'Fira Code';-inkscape-font-specification:'Fira Code Medium';text-align:center;text-anchor:middle;fill:#f8ead3;stroke-width:0.264999"><path
         d="M 100.91737,72.419579 V 69.74498 h 0.48883 l 0.0431,0.346988 q 0.16717,-0.202621 0.39512,-0.308997 0.22794,-0.108909 0.46856,-0.108909 0.37485,0 0.55974,0.21022 0.18742,0.210219 0.18742,0.585068 v 1.950229 h -0.56734 v -1.669092 q 0,-0.346989 -0.0709,-0.493889 -0.0684,-0.149433 -0.31153,-0.149433 -0.19503,0 -0.35712,0.121573 -0.15957,0.11904 -0.26848,0.271005 v 1.919836 z"
         style="stroke-width:0.265"
         id="path377" /><path
         d="m 105.02805,69.674062 q 0.5876,0 0.8966,0.382448 0.309,0.382447 0.309,1.020704 0,0.425504 -0.14184,0.742099 -0.1393,0.316596 -0.4103,0.493889 -0.26848,0.174761 -0.65599,0.174761 -0.58507,0 -0.8966,-0.377382 -0.31153,-0.379914 -0.31153,-1.028302 0,-0.415373 0.1393,-0.731969 0.14184,-0.319128 0.41284,-0.496421 0.27101,-0.179827 0.65852,-0.179827 z m 0,0.440701 q -0.30646,0 -0.46096,0.235547 -0.1545,0.233015 -0.1545,0.731969 0,0.498955 0.15197,0.734502 0.15449,0.233014 0.46096,0.233014 0.30646,0 0.45843,-0.235547 0.1545,-0.235547 0.1545,-0.737034 0,-0.493889 -0.15197,-0.726904 -0.15196,-0.235547 -0.45843,-0.235547 z"
         style="stroke-width:0.265"
         id="path379" /><path
         d="m 109.22991,72.277744 q -0.1469,0.09371 -0.35205,0.151966 -0.20516,0.05825 -0.42804,0.05825 -0.46603,0 -0.70918,-0.240612 -0.24061,-0.243146 -0.24061,-0.638257 V 70.15782 h -0.5952 v -0.41284 h 0.5952 v -0.597733 l 0.56734,-0.06838 v 0.666117 h 0.90167 l -0.0633,0.41284 h -0.83835 v 1.446209 q 0,0.215284 0.10638,0.321661 0.10891,0.103843 0.35458,0.103843 0.1469,0 0.26848,-0.03546 0.1241,-0.03546 0.22795,-0.09118 z"
         style="stroke-width:0.265"
         id="path381" /><path
         d="m 94.62345,75.847675 q 0.354586,0 0.567339,0.17476 0.212752,0.172228 0.308997,0.488824 0.09624,0.314063 0.09624,0.739567 0,0.407775 -0.116507,0.726903 -0.116507,0.319129 -0.346989,0.501488 -0.227949,0.182359 -0.567339,0.182359 -0.420439,0 -0.678781,-0.296334 v 1.256251 l -0.567339,0.06332 v -3.76622 h 0.493889 l 0.03546,0.344456 q 0.151966,-0.205154 0.352054,-0.308997 0.200088,-0.106376 0.422972,-0.106376 z m -0.157032,0.438168 q -0.189957,0 -0.336857,0.113974 -0.144368,0.113975 -0.243146,0.268473 v 1.251186 q 0.200089,0.298866 0.529348,0.298866 0.286202,0 0.435635,-0.230482 0.149433,-0.230481 0.149433,-0.734501 0,-0.514151 -0.134236,-0.739567 -0.131704,-0.227949 -0.400177,-0.227949 z"
         style="stroke-width:0.265"
         id="path383" /><path
         d="m 97.429754,75.847675 q 0.587602,0 0.896599,0.382447 0.308997,0.382448 0.308997,1.020704 0,0.425504 -0.141835,0.7421 -0.139302,0.316595 -0.410308,0.493889 -0.268473,0.174761 -0.655986,0.174761 -0.585068,0 -0.896598,-0.377382 -0.31153,-0.379915 -0.31153,-1.028302 0,-0.415374 0.139302,-0.731969 0.141835,-0.319129 0.412841,-0.496422 0.271005,-0.179826 0.658518,-0.179826 z m 0,0.440701 q -0.306464,0 -0.460963,0.235547 -0.154498,0.233014 -0.154498,0.731969 0,0.498954 0.151965,0.734501 0.154499,0.233014 0.460963,0.233014 0.306465,0 0.458431,-0.235547 0.154498,-0.235547 0.154498,-0.737034 0,-0.493889 -0.151965,-0.726903 -0.151966,-0.235547 -0.458431,-0.235547 z"
         style="stroke-width:0.265"
         id="path385" /><path
         d="m 100.3703,78.22594 q 0.26594,0 0.42297,-0.09371 0.15703,-0.09624 0.15703,-0.263408 0,-0.108908 -0.0456,-0.184891 -0.0456,-0.07598 -0.18236,-0.141835 -0.13677,-0.06585 -0.41537,-0.136769 -0.26341,-0.06839 -0.463499,-0.162097 -0.197556,-0.09371 -0.306465,-0.243146 -0.108909,-0.149433 -0.108909,-0.38498 0,-0.344456 0.286203,-0.554675 0.28873,-0.212752 0.78262,-0.212752 0.33686,0 0.5876,0.08865 0.25075,0.08865 0.42804,0.220351 l -0.23808,0.35712 q -0.15703,-0.103844 -0.34445,-0.169695 -0.1849,-0.06585 -0.41791,-0.06585 -0.27101,0 -0.39005,0.08105 -0.1165,0.08105 -0.1165,0.215285 0,0.101311 0.0583,0.167162 0.0608,0.06585 0.20769,0.124106 0.1469,0.05825 0.41537,0.131704 0.26088,0.07092 0.45337,0.167162 0.19502,0.09625 0.30139,0.255809 0.10891,0.157032 0.10891,0.410308 0,0.288735 -0.16716,0.473627 -0.16716,0.182359 -0.43563,0.271006 -0.26848,0.08611 -0.57747,0.08611 -0.372321,0 -0.643327,-0.106376 -0.271005,-0.108909 -0.455897,-0.271006 l 0.301399,-0.344456 q 0.157031,0.126638 0.359652,0.207687 0.202623,0.07851 0.438173,0.07851 z"
         style="stroke-width:0.265"
         id="path387" /><path
         d="m 103.40961,78.22594 q 0.26594,0 0.42298,-0.09371 0.15703,-0.09624 0.15703,-0.263408 0,-0.108908 -0.0456,-0.184891 -0.0456,-0.07598 -0.18236,-0.141835 -0.13677,-0.06585 -0.41537,-0.136769 -0.26341,-0.06839 -0.4635,-0.162097 -0.19756,-0.09371 -0.30646,-0.243146 -0.10891,-0.149433 -0.10891,-0.38498 0,-0.344456 0.2862,-0.554675 0.28873,-0.212752 0.78262,-0.212752 0.33686,0 0.5876,0.08865 0.25075,0.08865 0.42804,0.220351 l -0.23808,0.35712 q -0.15703,-0.103844 -0.34445,-0.169695 -0.1849,-0.06585 -0.41791,-0.06585 -0.27101,0 -0.39005,0.08105 -0.1165,0.08105 -0.1165,0.215285 0,0.101311 0.0583,0.167162 0.0608,0.06585 0.20769,0.124106 0.1469,0.05825 0.41537,0.131704 0.26087,0.07092 0.45336,0.167162 0.19503,0.09625 0.3014,0.255809 0.10891,0.157032 0.10891,0.410308 0,0.288735 -0.16716,0.473627 -0.16716,0.182359 -0.43564,0.271006 -0.26847,0.08611 -0.57747,0.08611 -0.37231,0 -0.64332,-0.106376 -0.271,-0.108909 -0.4559,-0.271006 l 0.3014,-0.344456 q 0.15704,0.126638 0.35966,0.207687 0.20262,0.07851 0.43816,0.07851 z"
         style="stroke-width:0.265"
         id="path389" /><path
         d="m 106.54265,74.609153 q 0.16716,0 0.26847,0.101311 0.10384,0.10131 0.10384,0.253276 0,0.151966 -0.10384,0.255809 -0.10131,0.103844 -0.26847,0.103844 -0.1621,0 -0.26594,-0.103844 -0.10385,-0.103843 -0.10385,-0.255809 0,-0.151966 0.10385,-0.253276 0.10384,-0.101311 0.26594,-0.101311 z m 0.39511,1.309439 v 2.259226 h 0.7269 v 0.415373 h -2.0946 v -0.415373 h 0.80036 v -1.843853 h -0.77503 v -0.415373 z"
         style="stroke-width:0.265"
         id="path391" /><path
         d="m 109.08301,76.23772 q 0.13677,-0.182359 0.32419,-0.286202 0.18743,-0.103843 0.41031,-0.103843 0.35206,0 0.56987,0.17476 0.22035,0.172228 0.32166,0.488824 0.10385,0.314063 0.10385,0.739567 0,0.407775 -0.12157,0.726903 -0.12158,0.319129 -0.35966,0.501488 -0.23554,0.182359 -0.58253,0.182359 -0.4483,0 -0.70411,-0.331792 l -0.0304,0.263407 h -0.49896 V 74.8447 l 0.56734,-0.06332 z m 0.52428,1.990753 q 0.28874,0 0.44577,-0.235547 0.15956,-0.235547 0.15956,-0.739567 0,-0.514151 -0.14436,-0.739567 -0.14184,-0.227949 -0.40525,-0.227949 -0.18995,0 -0.33685,0.113974 -0.14437,0.113975 -0.24315,0.268473 v 1.251186 q 0.0937,0.144367 0.22542,0.227949 0.13423,0.08105 0.29886,0.08105 z"
         style="stroke-width:0.265"
         id="path393" /><path
         d="m 112.73019,74.8447 v 3.019055 q 0,0.184892 0.11144,0.263407 0.11398,0.07598 0.29381,0.07598 0.11397,0 0.21781,-0.0228 0.10638,-0.02533 0.20516,-0.06585 l 0.14436,0.395111 q -0.11904,0.06079 -0.2938,0.106376 -0.17222,0.04559 -0.39511,0.04559 -0.40271,0 -0.62812,-0.227949 -0.22289,-0.227949 -0.22289,-0.620527 V 75.262606 H 111.3549 V 74.8447 Z"
         style="stroke-width:0.265"
         id="path395" /><path
         d="m 115.0654,77.438251 q 0.0253,0.41284 0.23049,0.597732 0.20768,0.184892 0.49895,0.184892 0.19502,0 0.36219,-0.06079 0.16969,-0.06079 0.33939,-0.172228 l 0.24567,0.339391 q -0.18742,0.151966 -0.43816,0.243145 -0.25075,0.09118 -0.53695,0.09118 -0.41791,0 -0.70664,-0.177294 -0.2862,-0.177293 -0.43564,-0.493889 -0.1469,-0.316595 -0.1469,-0.731969 0,-0.402709 0.1469,-0.719305 0.1469,-0.319128 0.42044,-0.50402 0.27354,-0.187424 0.65346,-0.187424 0.53188,0 0.84087,0.357119 0.31153,0.35712 0.31153,0.98018 0,0.06839 -0.005,0.136769 -0.003,0.06585 -0.008,0.116508 z m 0.63826,-1.170137 q -0.26594,0 -0.4407,0.189957 -0.17476,0.189957 -0.20009,0.592667 h 1.23852 q -0.008,-0.377382 -0.16209,-0.580003 -0.15197,-0.202621 -0.43564,-0.202621 z"
         style="stroke-width:0.265"
         id="path397" /></g></g></svg>
