<?xml version="1.0" encoding="UTF-8" standalone="no"?>
<!-- Created with Inkscape (http://www.inkscape.org/) -->

<svg
   id="svg5"
   version="1.1"
   viewBox="0 0 187.19789 102.60759"
   height="387.80823"
   width="707.51959"
   xmlns="http://www.w3.org/2000/svg"
   xmlns:svg="http://www.w3.org/2000/svg">
  <defs
     id="defs2">
    <clipPath
       id="clipPath6539">
      <path
         clip-rule="nonzero"
         d="m 6,4 h 6 V 9.964844 H 6 Z m 0,0"
         id="path3266" />
    </clipPath>
    <clipPath
       id="clipPath4015">
      <path
         clip-rule="nonzero"
         d="m 13,0 h 7 v 9.964844 h -7 z m 0,0"
         id="path9317" />
    </clipPath>
    <clipPath
       id="clipPath3570">
      <path
         clip-rule="nonzero"
         d="m 30,6 h 2 v 3.964844 h -2 z m 0,0"
         id="path4442" />
    </clipPath>
    <clipPath
       id="clipPath6271">
      <path
         clip-rule="nonzero"
         d="m 43,0 h 4 v 9.964844 h -4 z m 0,0"
         id="path3323" />
    </clipPath>
    <clipPath
       id="clipPath6606">
      <path
         clip-rule="nonzero"
         d="m 47,6 h 3 v 3.964844 h -3 z m 0,0"
         id="path5267" />
    </clipPath>
    <clipPath
       id="clipPath9749">
      <path
         clip-rule="nonzero"
         d="m 55,0 h 3 v 9.964844 h -3 z m 0,0"
         id="path1557" />
    </clipPath>
    <clipPath
       id="clipPath6081">
      <path
         clip-rule="nonzero"
         d="m 7,4 h 6 V 9.964844 H 7 Z m 0,0"
         id="path4721" />
    </clipPath>
    <clipPath
       id="clipPath8390">
      <path
         clip-rule="nonzero"
         d="m 14,0 h 7 v 9.964844 h -7 z m 0,0"
         id="path6042" />
    </clipPath>
    <clipPath
       id="clipPath6485">
      <path
         clip-rule="nonzero"
         d="m 31,6 h 2 v 3.964844 h -2 z m 0,0"
         id="path558" />
    </clipPath>
    <clipPath
       id="clipPath1838">
      <path
         clip-rule="nonzero"
         d="m 45,0 h 3 v 9.964844 h -3 z m 0,0"
         id="path9811" />
    </clipPath>
    <clipPath
       id="clipPath7130">
      <path
         clip-rule="nonzero"
         d="m 49,6 h 2 v 3.964844 h -2 z m 0,0"
         id="path1342" />
    </clipPath>
    <clipPath
       id="clipPath4742">
      <path
         clip-rule="nonzero"
         d="m 56,0 h 3 v 9.964844 h -3 z m 0,0"
         id="path5594" />
    </clipPath>
  </defs>
  <g
     id="layer1"
     transform="translate(-48.345039,-42.381111)">
    <path
       style="fill:#f8ead3;stroke:none;stroke-width:0.19551;stroke-opacity:1"
       d="M 99.285127,93.327948 C 99.128893,89.262842 99.055676,80.943579 99.117719,74.305568 l 0.04933,-5.278503 2.318771,0.128329 c 1.27532,0.07059 8.29063,0.193863 15.58957,0.273963 7.29895,0.0801 13.31872,0.192514 13.37729,0.249814 0.14712,0.143952 -0.2644,15.700645 -0.49697,18.786805 -0.10404,1.38056 -0.19176,3.522291 -0.19492,4.759412 l -0.006,2.249303 -2.41745,0.108079 c -6.29988,0.281664 -13.68892,0.538341 -17.81009,0.618689 -2.49638,0.04867 -5.79513,0.124985 -7.33058,0.169591 l -2.791717,0.0811 z"
       id="path1261" />
    <path
       style="fill:#5e5c64;stroke-width:0.264999"
       id="path376"
       d="m 98.788629,57.543837 c -0.490927,2.690537 -0.564137,5.438685 -0.691518,8.164406 -0.04166,5.067202 -0.13445,10.132566 -0.251193,15.198598 -0.01699,6.785539 0.164749,13.570106 0.581272,20.342699 0.729488,3.77482 -0.125625,0.81691 1.317474,3.588 0.116631,0.22395 0.139078,0.48548 0.208618,0.72823 0.0054,0.0421 0.06488,0.0345 0.05952,-0.008 v 0 c 0.007,-0.2481 -0.05102,-0.5068 0.0211,-0.74429 1.01892,-3.3563 0.54125,0.67626 0.77515,-3.70381 -0.37287,-6.711045 -0.57236,-13.428477 -0.55872,-20.15055 0.0178,-0.854855 0.0959,-4.510698 0.10421,-5.325985 0.0336,-3.290488 -0.0624,-6.581085 0.003,-9.871469 0.001,-1.758995 0.0148,-3.515048 0.0704,-5.273228 0.01,-0.30566 0.0774,-1.771719 0.0754,-2.153574 -10e-4,-0.231986 -0.0245,-0.463333 -0.0368,-0.694999 0.0682,-1.186656 -1.609973,-1.283105 -1.678172,-0.09645 z" />
    <path
       style="fill:#5e5c64;stroke-width:0.264999"
       id="path378"
       d="m 129.91219,58.252079 c -0.25473,2.61444 -0.10395,5.243951 -0.1114,7.865096 -0.005,1.583944 -0.043,3.395033 -0.0715,4.980395 -0.1439,4.716383 -0.14222,9.434735 -0.34915,14.149155 -0.11198,2.607847 -0.37908,5.201647 -0.40558,7.812717 -0.0116,2.669606 0.28214,5.321983 0.66106,7.959868 0.15125,0.78587 0.0283,1.97608 0.8197,2.49741 0.17475,0.11512 0.40837,0.0916 0.61255,0.13742 0.01,0.0413 0.068,0.0278 0.0585,-0.0136 v 0 c 0.17805,-0.0668 0.39651,-0.0692 0.53415,-0.20039 0.74284,-0.70823 0.39096,-1.89725 0.31794,-2.75759 -0.36219,-2.518764 -0.6517,-5.051075 -0.64295,-7.600365 0.0236,-2.589842 0.29989,-5.16401 0.3573,-7.753135 0.13,-4.735177 0.15168,-9.472285 0.19074,-14.208882 0.0134,-4.28226 -0.10508,-8.564599 -0.35355,-12.839903 0.0199,-1.1439 -1.59776,-1.172134 -1.61772,-0.02823 z" />
    <path
       style="fill:#5e5c64;stroke-width:0.264999"
       id="path380"
       d="m 90.495547,70.314253 c 0.166876,-0.0369 0.331211,-0.08818 0.500629,-0.110683 0.332711,-0.04419 0.668668,-0.05897 1.002951,-0.08903 2.224691,-0.200101 4.436835,-0.272079 6.670037,-0.303178 3.993266,0.04289 7.983996,0.196324 11.977216,0.2623 3.9373,-0.0067 7.87375,0.04275 11.8106,0.09158 2.51084,0.0083 5.02161,0.145126 7.53275,0.09734 0.98066,-0.01865 2.04742,-0.08183 3.02638,-0.132405 3.0928,-0.09415 6.15681,-0.515573 9.22049,-0.91503 0.8141,-0.121523 1.40206,-0.04793 2.00946,-0.666864 0.16685,-0.170026 0.20842,-0.428437 0.31263,-0.642654 0.042,-0.0061 0.0333,-0.06549 -0.009,-0.05937 v 0 c -0.14414,-0.178032 -0.23934,-0.410845 -0.43242,-0.534101 -0.75988,-0.485084 -1.26791,-0.283054 -2.13342,-0.220273 -3.01593,0.324008 -6.0305,0.681357 -9.06925,0.686787 -0.30979,0.01061 -2.58662,0.0904 -2.92756,0.09507 -2.5009,0.03425 -4.9998,-0.124989 -7.50035,-0.13231 -3.93841,-0.04883 -7.87635,-0.09255 -11.81517,-0.06819 -4.02355,-0.01879 -8.04339,-0.178927 -12.06651,-0.176548 -1.816325,0.07412 -3.624932,0.182623 -5.433938,0.367543 -1.041877,0.106503 -1.751579,0.174008 -2.751003,0.435753 -0.234415,0.06139 -0.455694,0.164986 -0.68354,0.24748 -1.24931,0.536459 -0.490641,2.303248 0.758668,1.76679 z" />
    <path
       style="fill:#5e5c64;stroke-width:0.264999"
       id="path382"
       d="m 92.228798,98.995329 c 3.411588,-0.320728 6.833005,-0.526923 10.254352,-0.709842 3.77772,-0.258194 7.56177,-0.07008 11.34319,-0.151879 3.57373,-0.242247 7.15082,-0.315357 10.73096,-0.36648 3.01612,-0.104473 6.02437,-0.350766 9.03944,-0.481047 1.97388,-0.08901 3.92483,0.254733 5.89658,0.246261 1.03198,-0.736637 0.58366,-0.350694 1.36995,-1.128128 0.0423,-0.0037 0.0371,-0.06342 -0.005,-0.05978 v 0 c -0.7981,-0.630587 -0.37485,-0.296807 -1.26999,-1.001038 -0.17962,-0.01728 -1.69667,-0.162441 -1.82193,-0.177691 -1.41876,-0.17272 -2.83223,-0.412123 -4.27,-0.292738 -2.99407,0.120235 -5.98212,0.336312 -8.97585,0.458724 -1.73141,0.02782 -3.46433,0.02894 -5.19472,0.100751 -1.49224,0.06193 -2.15349,0.128352 -3.65397,0.21708 -0.63257,0.0374 -1.26553,0.06779 -1.8983,0.101693 -3.81176,0.08719 -7.62834,-0.112041 -11.43468,0.189428 -3.091322,0.215545 -1.0781,0.07346 -4.149259,0.294386 -1.803548,0.129738 -3.623723,0.201829 -5.40362,0.545311 -0.310713,0.05996 -0.613309,0.15621 -0.919964,0.234315 -1.400548,0.256657 -1.037577,2.23733 0.362969,1.980671 z" />
    <path
       style="fill:#5e5c64;stroke-width:0.264999"
       id="path388"
       d="m 100.93439,53.089746 c -0.0311,-0.462386 -0.0856,-1.817428 -0.27958,-2.203437 -0.23782,-0.47316 -0.671175,-0.819319 -1.006759,-1.228979 -0.0026,-0.04235 -0.06243,-0.03876 -0.05989,0.0036 v 0 c -0.283932,0.451517 -0.673274,0.851946 -0.851799,1.354553 -0.116867,0.329028 -0.0272,1.739366 -0.0094,2.143856 0.04921,1.560919 2.256678,1.491334 2.207478,-0.06959 z" />
    <path
       style="fill:#5e5c64;stroke-width:0.264999"
       id="path390"
       d="m 100.75587,46.291391 c -0.0256,-0.620779 0.17392,-2.267686 -0.0808,-2.753913 -0.21106,-0.402894 -0.6371,-0.649295 -0.955648,-0.973944 -0.0011,-0.04241 -0.06103,-0.04093 -0.05998,0.0016 v 0 c -0.302376,0.327591 -0.707196,0.584306 -0.907129,0.982771 -0.212487,0.423484 -0.06324,2.126583 -0.129826,2.700306 -0.03061,1.508527 2.102763,1.551821 2.133383,0.04329 z" />
    <path
       style="fill:#5e5c64;stroke-width:0.264999"
       id="path392"
       d="m 131.86035,54.551325 c -0.0271,-1.036336 0.0997,-2.1156 -0.40191,-3.076786 -0.18346,-0.35152 -0.47941,-0.631709 -0.71911,-0.947563 -0.001,-0.04241 -0.0612,-0.04065 -0.06,0.0019 v 0 c -0.22083,0.328295 -0.49869,0.624729 -0.66249,0.984885 -0.43823,0.963552 -0.26812,2.005232 -0.26682,3.019322 -0.013,1.49221 2.0973,1.510596 2.1103,0.01839 z" />
    <path
       style="fill:#5e5c64;stroke-width:0.264999"
       id="path394"
       d="m 132.75307,47.036958 c -0.007,-0.117108 -0.15043,-2.427367 -0.17306,-2.481223 -1.42002,-3.379391 -0.68755,0.594474 -1.07659,-2.143249 -5.3e-4,-0.04242 -0.0606,-0.04151 -0.06,7.93e-4 v 0 c -0.3613,3.270073 0.3803,-2.069155 -0.95881,2.259526 -0.0397,0.128212 0.11245,2.29521 0.12526,2.491938 0.0904,1.515465 2.23363,1.387565 2.14319,-0.127899 z" />
    <path
       style="fill:#5e5c64;stroke-width:0.264999"
       id="path398"
       d="m 130.01538,106.79388 c 0.0975,0.48988 0.19369,1.22703 0.50726,1.63668 0.23476,0.3067 0.65411,0.43875 0.88397,0.74913 0.15297,0.20657 0.14565,0.49303 0.21847,0.73954 0.005,0.0422 0.0643,0.0355 0.0596,-0.007 v 0 c 0.0159,-0.26092 -0.0419,-0.53723 0.0478,-0.78277 0.13649,-0.37358 0.48122,-0.6486 0.61234,-1.0241 0.12058,-0.34532 0.0183,-1.19833 -0.0125,-1.57264 -0.18445,-1.63839 -2.50148,-1.37754 -2.31703,0.26085 z" />
    <path
       style="fill:#5e5c64;stroke-width:0.264999"
       id="path400"
       d="m 130.39099,112.08326 c 0.0347,0.79233 -0.072,2.21443 0.38005,2.8897 0.24206,0.3616 0.65229,0.57612 0.97843,0.86418 0.006,0.042 0.0653,0.0337 0.0594,-0.008 v 0 c 0.23961,-0.32891 0.55473,-0.61437 0.71885,-0.98675 0.30119,-0.68341 0.10552,-2.06042 0.15464,-2.81613 -0.0405,-1.62027 -2.33194,-1.56293 -2.29139,0.0573 z" />
    <path
       style="fill:#5e5c64;stroke-width:0.264999"
       id="path402"
       d="m 98.831415,107.48968 c 0.08571,0.708 0.07348,2.36588 0.407823,2.94697 1.062762,1.08351 0.705416,0.50564 1.196882,1.64988 0.004,0.0423 0.0633,0.0372 0.0598,-0.005 v 0 c 0.29096,-1.2331 0.0491,-0.58237 0.84361,-1.90422 0.1801,-0.60268 -0.2203,-2.20766 -0.23289,-2.89653 -0.14774,-1.60882 -2.422953,-1.39989 -2.275215,0.20894 z" />
    <path
       style="fill:#5e5c64;stroke-width:0.264999"
       id="path404"
       d="m 98.888848,114.46894 c 0.04049,0.89715 0.05569,1.85178 0.38727,2.70285 0.244041,0.62638 0.657815,1.13263 1.046302,1.66622 0.004,0.0423 0.0635,0.0369 0.0598,-0.005 v 0 c 0.27152,-0.555 0.61002,-1.17939 0.7526,-1.78316 0.19835,-0.83987 0.11645,-1.72893 0.096,-2.58055 0,-1.65599 -2.341912,-1.65599 -2.341912,0 z" />
    <path
       style="fill:#5e5c64;stroke-width:0.264999"
       id="path408"
       d="m 144.5047,97.311545 c 0.56601,-0.118888 1.26197,-0.229799 1.77323,-0.507281 0.35466,-0.192489 0.64926,-0.479387 0.97389,-0.719081 0.0424,-7.94e-4 0.0412,-0.06083 -0.001,-0.05999 v 0 c -0.34283,-0.226513 -0.65323,-0.512107 -1.02847,-0.679535 -0.70025,-0.312447 -1.29967,-0.26906 -2.03166,-0.294241 -1.59815,0.222171 -1.28395,2.482297 0.3142,2.260127 z" />
    <path
       style="fill:#5e5c64;stroke-width:0.264999"
       id="path410"
       d="m 150.43745,96.618575 c 1.42847,-0.279723 0.12701,0.09613 1.85527,-1.05971 0.36307,-0.242816 0.77381,-0.405362 1.16072,-0.608044 0.0418,-0.0074 0.0314,-0.06644 -0.0104,-0.05909 v 0 c -0.43015,-0.05907 -0.87108,-0.06474 -1.29046,-0.177194 -2.09358,-0.561377 -0.52242,-0.578824 -2.04247,-0.453395 -1.66696,0.231455 -1.33963,2.588889 0.32733,2.357435 z" />
    <path
       style="fill:#5e5c64;stroke-width:0.264999"
       id="path412"
       d="m 148.16072,69.603458 c 0.68917,-0.148043 1.22278,-0.211196 1.85276,-0.620668 0.39634,-0.257609 0.71092,-0.623202 1.06637,-0.934804 0.0422,-0.0039 0.0367,-0.06369 -0.006,-0.05974 v 0 c -0.4254,-0.238474 -0.81737,-0.550124 -1.27618,-0.715425 -0.74571,-0.268664 -1.35093,-0.155848 -2.0948,-0.09906 -1.71806,0.323461 -1.26061,2.753153 0.45744,2.429695 z" />
    <path
       style="fill:#5e5c64;stroke-width:0.264999"
       id="path414"
       d="m 155.06108,68.989196 c 0.4302,-0.263819 1.01341,-0.146323 1.44165,-0.402307 0.31894,-0.190656 0.51717,-0.53771 0.81245,-0.763294 0.26705,-0.20402 0.57657,-0.345421 0.86486,-0.518131 0.0424,-0.0024 0.0388,-0.0624 -0.004,-0.05989 v 0 c -0.19225,-0.07883 -2.14862,-0.885708 -2.2235,-0.894455 -0.25782,-0.03012 -1.40077,0.368575 -1.70635,0.468918 -1.53383,0.57589 -0.71939,2.745052 0.81443,2.169163 z" />
    <path
       style="fill:#5e5c64;stroke-width:0.264999"
       id="path422"
       d="m 84.896387,68.451428 c -1.0235,0.03659 -1.111739,0.02386 -2.17352,0.132154 -0.833572,0.08502 -1.245481,0.0096 -1.856854,0.648888 -0.210343,0.219948 -0.305445,0.526486 -0.458168,0.789731 -0.04196,0.0062 -0.03312,0.0656 0.0088,0.05934 v 0 c 0.53494,0.528307 0.67686,0.842621 1.489133,0.938075 0.336405,0.03953 0.67455,-0.06251 1.011989,-0.09191 1.247614,-0.108699 0.791634,-0.07712 1.956067,-0.125635 1.662158,0.01593 1.684666,-2.334731 0.02252,-2.350645 z" />
    <path
       style="fill:#5e5c64;stroke-width:0.264999"
       id="path424"
       d="m 76.354447,68.88046 c -0.888045,0.08161 -1.463262,0.05151 -2.296046,0.54755 -0.417039,0.248409 -0.671288,0.721312 -1.092039,0.96338 -0.25903,0.149029 -0.586684,0.114135 -0.880025,0.171201 -0.04178,0.0074 -0.03133,0.06647 0.01045,0.05908 v 0 c 0.294465,-0.04684 0.591484,-0.20129 0.883391,-0.14052 0.466883,0.09719 0.84093,0.469585 1.300969,0.595251 0.783947,0.214146 1.456889,0.09087 2.229157,0.01593 1.564031,-0.110201 1.408184,-2.322078 -0.15585,-2.211877 z" />
    <path
       style="fill:#5e5c64;stroke-width:0.264999"
       id="path426"
       d="m 87.247747,97.515941 c -0.623313,-0.0019 -1.910913,-0.0482 -2.500936,0.133723 -0.04073,0.01257 -1.6992,0.936818 -1.906397,1.052044 -0.04233,0.0028 -0.03837,0.06267 0.004,0.05987 v 0 c 0.276633,0.111154 0.555977,0.215781 0.8299,0.33346 0.374343,0.160821 0.71917,0.403304 1.114497,0.501866 0.218752,0.05454 2.000255,0.111792 2.294826,0.122971 1.558415,0.116065 1.722559,-2.087867 0.164142,-2.203934 z" />
    <path
       style="fill:#5e5c64;stroke-width:0.264999"
       id="path428"
       d="m 80.434901,97.685298 c -2.3554,0.53857 -0.111784,-0.143219 -2.564828,1.251029 -0.376701,0.214109 -0.806119,0.318051 -1.20918,0.477076 -0.04188,0.0067 -0.03233,0.06599 0.0096,0.05924 v 0 c 0.432697,0.02426 0.873064,-0.01191 1.298091,0.07276 2.76126,0.550077 0.43017,0.608527 2.816476,0.3814 1.584979,-0.247565 1.234866,-2.489065 -0.350112,-2.241497 z" />
    <path
       style="fill:#813d9c;stroke-width:0.264999"
       id="path430"
       d="m 99.916362,124.41992 c 3.592578,-0.66405 7.254088,-0.7786 10.897998,-0.77207 3.42652,0.0251 6.84163,0.30975 10.2607,0.49735 2.28795,0.0763 4.57384,-0.0576 6.86031,0.0666 0.95051,0.11701 1.86763,0.16583 2.79579,-0.0947 0.10149,-0.10629 0.78384,-0.20877 0.27373,-0.12591 0.75964,0.003 0.5913,0.0284 0.81673,-1.95669 0.0232,-0.20398 -0.29703,-0.28575 -0.46478,-0.40411 -0.93697,-0.66108 -2.03654,-1.13502 -3.05044,-1.66 -0.60419,-0.33243 -1.23601,-0.61141 -1.84478,-0.93492 -0.11503,-0.0611 -0.35355,-0.32885 -0.3359,-0.19978 0.0681,0.49825 0.55095,0.92169 0.50311,1.42229 -0.10804,1.1302 -1.63123,0.43046 0.0353,0.93515 0.67915,0.23276 1.60011,0.52848 2.24728,0.83354 0.29973,0.14128 0.65576,0.23377 0.86408,0.49144 0.0773,0.0956 -0.17473,0.17535 -0.24165,0.27843 -0.30242,0.4658 -0.52544,0.97858 -0.78513,1.46949 -0.13222,0.17806 -0.80403,1.00694 -0.86474,1.32976 -0.0554,0.2943 0.0239,0.59844 0.0358,0.89766 -0.0381,0.0187 -0.0117,0.0725 0.0264,0.0539 v 0 c 0.3729,0.12247 0.72774,0.40199 1.11872,0.3674 0.81587,-0.0722 1.34342,-1.06641 1.73225,-1.58798 0.52266,-1.02349 1.20597,-1.99951 0.99969,-3.25799 -0.2377,-1.45017 -0.89829,-1.75205 -2.00607,-2.26794 -0.77583,-0.3613 -1.70438,-0.64102 -2.51554,-0.90797 -0.76198,-0.18277 -2.1286,-0.71748 -2.72516,0.33855 -0.75386,1.3345 0.96865,1.89935 1.65994,2.24593 0.34832,0.17463 0.69508,0.35236 1.04262,0.52854 0.58323,0.30194 1.56909,0.80855 2.16713,1.13162 0.17416,0.0941 0.34331,0.19724 0.51706,0.29209 0.0363,0.0198 0.0919,0.0875 0.11278,0.0518 1.02754,-1.76031 0.23153,-1.8445 0.92003,-1.76296 -0.30652,0.032 -0.59708,0.11164 -0.87612,0.24445 -0.66772,0.22089 -1.34934,0.0365 -2.0373,0.004 -2.28624,-0.12185 -4.57142,-0.002 -6.85912,-0.068 -3.46196,-0.18593 -6.9196,-0.47818 -10.38914,-0.49772 -3.79913,0.0281 -7.60966,0.21423 -11.340376,0.98812 -1.435854,0.31739 -0.986994,2.348 0.44886,2.0306 z" />
    <path
       style="fill:#813d9c;stroke-width:0.264999"
       id="path432"
       d="m 100.06007,119.69653 c -1.389779,1.24311 -3.18255,2.75672 -2.655715,4.89001 0.325618,1.3185 1.057677,1.69655 2.005478,2.52294 0.562785,0.33828 1.874977,1.19406 2.567187,1.3654 0.85418,0.21144 1.17644,0.005 1.91142,-0.24297 0.0369,0.0208 0.0664,-0.0314 0.0295,-0.0523 v 0 c -0.1984,-0.78101 -0.18005,-1.10662 -0.83872,-1.73118 -0.10307,-0.0977 -1.94139,-1.23262 -2.07331,-1.31465 -0.13638,-0.0951 -1.281565,-0.7651 -1.271574,-1.11337 0.03166,-1.10364 1.327074,-1.779 1.911454,-2.54904 1.25503,-1.12126 -0.33067,-2.89614 -1.5857,-1.77488 z" />
    <path
       style="fill:#813d9c;stroke-width:0.264999"
       id="path537"
       d="m 108.55841,136.18383 c 0.076,-0.0111 0.15911,8e-4 0.22803,-0.0332 0.58012,-0.28536 0.38729,-0.41582 1.09349,-0.59219 0.21251,-0.0531 0.78283,-0.0781 0.57321,0.22026 -0.0692,0.0985 -0.21491,0.10852 -0.32237,0.16278 -0.71636,2.40093 -2.02778,4.52571 -3.36601,6.61858 -0.3847,0.93344 -0.71817,1.26977 0.72998,2.30063 0.37216,0.26491 0.91524,0.0428 1.37043,0.004 0.45026,-0.038 0.89093,-0.15157 1.33545,-0.23263 1.68043,-0.30647 1.07005,-0.17286 2.63914,-0.61717 1.11552,-1.03951 0.61102,-0.54763 1.52284,-1.46598 0.0411,-0.0104 0.0264,-0.0686 -0.0147,-0.0582 v 0 c -1.19062,-0.38855 -0.54352,-0.16832 -1.93791,-0.67058 -1.83721,0.20285 -0.73175,0.0474 -2.63539,0.40029 -1.68672,0.31265 -1.5413,-0.0404 -0.97181,1.80431 0.0122,0.0395 0.0105,-0.082 0.0157,-0.12304 1.06201,-1.59224 2.12134,-3.23861 2.85402,-5.01398 0.25572,-0.61963 0.52504,-1.24489 0.64722,-1.904 0.12349,-0.66612 0.0548,-1.35384 0.0822,-2.03076 -0.34472,-0.49108 -0.55429,-1.11307 -1.03414,-1.47325 -0.3863,-0.28996 -0.92138,-0.35064 -1.40436,-0.35708 -1.19469,-0.0159 -2.60839,0.94751 -3.20896,1.93875 -0.21727,0.35861 -0.28285,0.78946 -0.42427,1.18419 0.044,1.57558 2.2722,1.51337 2.22821,-0.0622 z" />
    <path
       style="fill:#813d9c;stroke-width:0.264999"
       id="path539"
       d="m 114.40227,135.51671 c 0.30283,-0.0598 1.69601,-0.31977 1.89424,-0.43075 0.39322,-0.22015 0.65134,-0.62688 1.01484,-0.89324 0.29451,-0.21581 0.63298,-0.3641 0.94947,-0.54615 0.0418,-0.007 0.0316,-0.0663 -0.0102,-0.0591 v 0 c -0.36133,-0.0655 -0.73045,-0.0972 -1.08397,-0.1966 -0.44557,-0.12522 -0.84595,-0.41416 -1.3048,-0.47475 -0.20616,-0.0272 -1.5948,0.26605 -1.88917,0.32525 -1.60892,0.30374 -1.17937,2.5791 0.42955,2.27537 z" />
    <path
       style="fill:#813d9c;stroke-width:0.264999"
       id="path541"
       d="m 119.32006,131.6684 c 0.23063,1.15152 0.43996,2.3077 0.72521,3.44753 0.0638,0.25496 0.12846,0.51018 0.21098,0.75971 0.0427,0.12921 0.0286,0.38867 0.1639,0.37391 0.75871,-0.0828 1.46714,-0.42124 2.2007,-0.63186 -0.0523,-0.82013 0.12589,-3.20446 1.21574,-3.3578 0.0835,-0.0118 0.15134,0.0743 0.227,0.11146 0.004,0.0895 -0.0157,0.18376 0.0133,0.26856 0.0529,0.15478 0.15154,0.28996 0.22732,0.43493 0.10146,0.2568 0.21679,0.50854 0.30438,0.77039 0.10762,0.32171 0.14006,0.66949 0.28057,0.97825 0.35109,0.77153 0.69422,1.02099 1.26763,1.60186 0.001,0.0424 0.061,0.041 0.06,-0.001 v 0 c 0.21848,-0.29567 0.51021,-0.54927 0.65543,-0.88701 0.17509,-0.4072 0.29317,-0.8558 0.28448,-1.29896 -0.0244,-1.24796 -1.01419,-3.24315 -2.13849,-3.85563 -0.45525,-0.24801 -1.00754,-0.24474 -1.51132,-0.36712 -0.41255,0.15251 -0.86919,0.21733 -1.23764,0.45753 -1.54709,1.0086 -1.73583,3.36808 -1.86951,5.01919 0.72349,-0.0327 1.4492,-0.0327 2.17046,-0.0981 0.033,-0.003 -0.016,-0.0643 -0.0234,-0.0966 -0.053,-0.2334 -0.10709,-0.46659 -0.15781,-0.70051 -0.24564,-1.13299 -0.47618,-2.26934 -0.69868,-3.40708 -0.3386,-1.67602 -2.70885,-1.19716 -2.37025,0.47885 z" />
    <path
       style="fill:#813d9c;stroke-width:0.264999"
       id="path545"
       d="m 67.436195,71.902449 c -0.0505,0.526669 -0.134808,1.051184 -0.151487,1.580004 -0.03115,0.987565 0.09321,3.429071 0.148119,4.361386 0.134977,2.291702 0.329448,4.58039 0.510497,6.868766 0.15172,2.168684 0.487252,4.320985 0.566632,6.494915 0.01923,0.52655 0.03867,2.598997 0.04429,3.108095 0.120817,1.472335 0.01953,3.003521 0.373123,4.452683 0.06459,0.264695 0.07094,0.61051 0.297985,0.76113 0.913706,0.606152 0.885483,0.07723 0.966448,-0.34789 -0.0024,-0.04236 -0.06233,-0.03893 -0.0599,0.0034 v 0 c 0.129826,0.404509 0.170553,0.937752 0.967766,0.120621 0.178967,-0.183438 0.107236,-0.503867 0.11633,-0.759984 0.05038,-1.418703 -0.271786,-2.836052 -0.218803,-4.25587 -0.0059,-0.580168 -0.02328,-2.643558 -0.04344,-3.216394 -0.0773,-2.198137 -0.402973,-4.374618 -0.590573,-6.564159 -0.201467,-2.263034 -0.430673,-4.526174 -0.597731,-6.792018 -0.268155,-3.637069 -0.02625,-0.81293 -0.196186,-4.202097 -0.02395,-0.477761 -0.07233,-0.953984 -0.1085,-1.430975 0.128439,-1.431586 -1.896129,-1.613228 -2.024568,-0.181644 z" />
    <path
       style="fill:#813d9c;stroke-width:0.264999"
       id="path549"
       d="m 66.558241,75.996921 c 0.541719,-1.29622 1.171305,-2.569104 2.084623,-3.644998 0.09678,-0.0487 0.186232,-0.116136 0.290354,-0.146084 0.02397,-0.0069 0.08003,0.0315 0.05939,0.04549 -0.133149,0.09023 -0.279152,0.168902 -0.434915,0.208995 -0.129881,0.03343 -0.336423,-0.110345 -0.402285,0.0065 -0.06491,0.115125 0.141277,0.223449 0.20851,0.33723 0.130257,0.220438 0.255934,0.44355 0.3839,0.665326 0.559874,0.733926 0.574511,1.765052 1.109765,2.505049 0.379593,0.52479 0.962949,0.868955 1.403649,1.343589 0.360802,0.388583 0.663845,0.82705 0.995768,1.240573 0.01685,0.03894 0.07191,0.01511 0.05507,-0.02381 v 0 c -0.07284,-0.522113 -0.18906,-1.039995 -0.218516,-1.566341 -0.03625,-0.647695 0.137046,-1.307587 0.02196,-1.946003 -0.07838,-0.434752 -1.052822,-2.361408 -1.280059,-2.824914 -0.24397,-0.385114 -0.742247,-1.266237 -1.146636,-1.566238 -1.135009,-0.842015 -1.971757,-0.648057 -2.643767,0.480822 -0.947475,1.315466 -1.792562,2.703285 -2.32479,4.24488 -0.45253,1.29966 1.385469,1.939631 1.837997,0.639969 z" />
    <path
       style="fill:#813d9c;stroke-width:0.264999"
       id="path551"
       d="m 65.72324,95.870804 c 0.845759,1.301178 1.639639,2.651646 2.651977,3.834995 0.220562,0.257818 0.411446,0.561581 0.701614,0.737421 0.387419,0.23477 0.851998,0.30814 1.277996,0.46221 1.637879,-0.64956 1.426247,-0.2874 2.41691,-1.729332 0.253733,-0.369316 0.535715,-0.741519 0.656543,-1.173001 0.127111,-0.453914 0.03207,-0.942472 0.06748,-1.412515 0.02953,-0.391999 0.08485,-0.78163 0.127269,-1.172446 0.02154,-0.03655 -0.03014,-0.06702 -0.05169,-0.03047 v 0 c -0.324828,0.232161 -0.646808,0.46836 -0.974489,0.696481 -0.391049,0.272233 -0.848479,0.463767 -1.18156,0.804485 -0.242949,0.24852 -0.329481,0.612079 -0.49955,0.915169 -0.384571,0.685377 -0.479295,0.395862 -0.147703,0.836642 -0.0083,0.07483 0.03861,0.264758 -0.025,0.224488 -0.224161,-0.141885 -1.157634,-1.325959 -1.239605,-1.432716 -0.69506,-0.90525 -1.319398,-1.860957 -1.968495,-2.798778 -0.87495,-1.28106 -2.68664,-0.04369 -1.811689,1.237369 z" />
    <path
       style="fill:#813d9c;stroke-width:0.264999"
       id="path553"
       d="m 50.420566,85.411245 c 0.204046,-0.448392 0.461232,-1.25985 0.990182,-1.431578 0.04621,-0.015 0.154519,0.07368 0.110744,0.09475 -0.243944,0.117414 -0.51983,0.151501 -0.779743,0.227251 0.05313,2.274327 -0.457314,4.49308 -1.329254,6.583307 -0.346368,0.957355 -0.501928,1.020561 1.653165,1.778973 0.331919,0.116809 0.635717,-0.302217 0.958746,-0.44174 1.329452,-0.574217 2.705275,-1.014492 4.047885,-1.556705 0.982691,-0.919083 0.558717,-0.499502 1.286287,-1.244063 0.04227,-0.0036 0.03713,-0.06341 -0.0051,-0.05978 v 0 c -1.021283,-0.588147 -0.414872,-0.313764 -1.867577,-0.706646 -0.504857,0.09791 -1.018519,0.158096 -1.514573,0.293743 -0.799063,0.218503 -2.180394,0.779912 -2.961748,1.123854 -0.252746,0.111258 -0.812639,0.09486 -0.744895,0.362577 0.79407,3.138086 1.080061,2.093042 1.308552,1.405102 0.931942,-2.018609 1.853608,-5.234194 1.513018,-7.424071 -0.09257,-0.595177 -0.363128,-1.148633 -0.54469,-1.722948 -0.59848,-0.303099 -1.132004,-0.809789 -1.795436,-0.909299 -0.377963,-0.05669 -0.729835,0.259906 -1.03936,0.484101 -0.81089,0.587343 -1.307836,1.774221 -1.359586,2.745319 -0.01685,0.31637 0.07,0.629761 0.104995,0.944639 0.386633,1.391886 2.355056,0.845103 1.968423,-0.546783 z" />
    <path
       style="fill:#813d9c;stroke-width:0.264999"
       id="path555"
       d="m 55.032277,82.750257 c 0.375563,-0.160997 1.515179,-0.630185 1.831552,-0.849575 0.314071,-0.217797 0.529211,-0.560027 0.845796,-0.774155 0.257844,-0.174394 0.569857,-0.250706 0.854786,-0.376057 0.04238,-0.0019 0.03973,-0.06182 -0.0026,-0.05994 v 0 c -0.320712,-0.09568 -2.167885,-0.655372 -2.337224,-0.662215 -0.669763,-0.02707 -1.415772,0.354542 -2.015738,0.612712 -1.491451,0.582287 -0.667973,2.691519 0.823481,2.109232 z" />
    <path
       style="fill:#813d9c;stroke-width:0.264999"
       id="path557"
       d="m 58.78945,78.483192 c 0.446355,1.596234 0.91113,3.183773 1.519344,4.726755 3.548808,-1.607106 2.014344,-0.109832 1.877337,-1.25281 -0.02882,-0.240456 -0.05575,-0.490252 -0.0026,-0.726525 0.04102,-0.182338 0.427083,-1.024157 0.697887,-1.141918 0.07733,-0.03363 0.06489,0.155676 0.09733,0.233516 -0.08203,0.09566 -0.229116,0.162123 -0.246102,0.286994 -0.02035,0.149505 0.08515,0.290703 0.14891,0.427452 0.634696,1.361335 0.193381,0.390912 1.351682,1.647696 0.217834,0.236357 0.375182,0.522017 0.562774,0.783026 0.0083,0.04161 0.06712,0.02991 0.05885,-0.01169 v 0 c 0.06743,-0.330468 0.480718,-2.318721 0.467984,-2.452545 -0.08187,-0.860393 -0.854403,-2.192597 -1.626732,-2.615031 -0.482405,-0.263855 -1.08022,-0.206076 -1.62033,-0.309115 -0.404611,0.253767 -0.883753,0.416116 -1.213839,0.761299 -0.905635,0.947065 -0.860243,2.524067 -0.682313,3.706492 0.03634,0.24148 -0.06014,0.712478 0.184031,0.709105 0.737399,-0.01019 1.389883,-0.493631 2.084824,-0.740447 -0.179327,-0.659874 -0.424648,-1.299091 -0.646015,-1.94582 -0.559615,-1.634951 -0.172439,-0.476068 -0.655632,-2.071148 -0.07536,-0.248772 -0.156755,-0.495676 -0.23513,-0.743513 -0.514943,-1.500664 -2.637202,-0.772428 -2.122262,0.728236 z" />
    <path
       style="fill:#c64600;stroke:none;stroke-width:0.264999;stroke-opacity:1"
       id="path1499"
       d="m 114.41518,85.232752 c 1.12871,-0.105902 1.94986,-0.656598 1.98441,-1.914144 0.0216,-0.786847 -0.27415,-1.009388 -0.6894,-1.601732 -0.3028,-0.154971 -0.57652,-0.390326 -0.9084,-0.464918 -1.08974,-0.244924 -2.06524,0.45738 -2.44047,1.448737 -0.31087,0.821309 -0.0851,1.103381 0.15104,1.880783 0.22625,0.238678 0.41123,0.524748 0.67875,0.716031 0.90548,0.647454 2.46512,0.525394 2.97034,-0.591553 0.13537,-0.299302 0.0845,-0.651531 0.12675,-0.977297 -0.1334,-0.288901 -0.2175,-0.60616 -0.40019,-0.8667 -0.27958,-0.398714 -1.36057,-1.143416 -1.90187,-0.933739 -0.24857,0.09628 -0.45752,0.314394 -0.57886,0.551733 -0.0965,0.188648 -0.0186,0.423339 -0.0279,0.635008 -0.0276,0.03227 0.0181,0.07123 0.0456,0.03896 v 0 c 0.0781,0.109358 0.19767,0.198766 0.23418,0.328068 0.0374,0.132577 -0.0475,0.276593 -0.0251,0.412512 0.007,0.04081 0.0669,0.04956 0.10428,0.06725 0.0537,0.02543 0.11078,0.04338 0.16745,0.06132 0.17119,0.0542 0.10998,0.04744 0.15046,-0.15271 0.15704,-0.290645 0.13757,-0.389043 0.48981,-0.490344 0.0559,-0.01609 0.12482,5.29e-4 0.17071,0.03628 0.008,0.0065 -0.25348,0.203994 -0.14126,0.264784 -0.0315,0.02146 -0.0564,0.06694 -0.0945,0.06441 -0.0391,-0.0026 -0.0586,-0.05216 -0.0892,-0.07661 -0.16592,-0.132419 -0.29298,-0.281413 -0.34868,-0.494313 0.0682,-0.03788 0.26888,-0.122936 0.33388,-0.131194 0.0809,-0.01029 0.26522,-0.0019 0.12371,0.138782 -0.0366,0.03646 -0.0954,0.03982 -0.14312,0.05974 -1.40774,0.04065 -1.35025,2.031508 0.0575,1.990852 z" />
    <path
       style="fill:#aba8af;stroke:none;stroke-width:0.264999;stroke-opacity:1"
       id="path1501"
       d="m 118.4049,82.898601 c 2.03471,-0.861182 4.17185,-1.436786 6.27069,-2.113399 1.01052,-0.325761 2.01595,-0.667084 3.02392,-1.000628 0.9722,-0.326636 4.05876,-1.414558 5.23022,-1.6348 0.43635,-0.08204 1.60608,-0.422079 1.81198,0.367734 0.0421,0.161677 -0.0968,0.323149 -0.10555,0.490003 -0.0169,0.323001 0.0196,0.646584 0.0293,0.969875 0.0694,0.436981 0.0662,0.891866 0.20811,1.310942 0.36825,1.087445 0.92443,1.86908 2.08669,2.252311 1.24524,0.410588 2.85489,0.06425 4.0654,-0.165116 0.84837,-0.160745 1.68753,-0.366766 2.5313,-0.550148 3.00827,-0.633392 2.94514,-0.654836 5.95624,-1.152158 0.24052,-0.03972 3.74644,-0.526997 4.28573,-0.742209 0.39892,-0.159197 0.68997,-0.511741 1.03496,-0.767614 0.0424,-7.94e-4 0.0415,-0.06066 -0.001,-0.05999 v 0 c -0.39169,-0.244226 -0.72665,-0.623165 -1.17506,-0.732681 -0.626,-0.15289 -1.29007,-0.06976 -1.93301,-0.02641 -0.85869,0.05789 -1.71003,0.199517 -2.56081,0.329396 -1.03015,0.15726 -5.00271,0.880708 -6.01843,1.06385 -1.68528,0.296428 -2.52811,0.485627 -4.13677,0.642419 -0.3023,0.02947 -0.60659,0.04299 -0.91031,0.04049 -0.1477,-0.0013 -0.31737,0.03057 -0.44009,-0.05161 -0.52348,-0.350571 -0.49434,-1.103913 -0.59079,-1.61163 -0.16203,-1.259078 -0.0952,-2.320034 -1.15409,-3.299455 -1.02662,-0.94959 -2.42989,-0.808498 -3.6486,-0.558223 -1.0989,0.225671 -4.40281,1.444966 -5.31055,1.767062 -0.98314,0.366866 -1.96345,0.741423 -2.94943,1.100598 -2.11806,0.771572 -4.28055,1.438095 -6.33752,2.368317 -1.24669,0.521406 -0.50931,2.284489 0.73738,1.763085 z" />
    <path
       style="fill:#c64600;stroke:none;stroke-width:0.264999;stroke-opacity:1"
       id="path1503"
       d="m 160.35346,72.375137 c -0.46656,0.241486 -0.84553,0.395822 -1.22159,0.803511 -0.92777,1.005792 -1.36187,2.38307 -1.31292,3.742568 0.0205,0.570286 0.17621,1.127628 0.26432,1.691442 0.33098,0.821243 0.87326,2.501889 1.62816,3.132682 0.54209,0.45297 1.79878,0.683059 2.51322,0.847781 0.036,0.02241 0.0677,-0.02852 0.0317,-0.05094 v 0 c -1.14928,-1.637077 0.11085,0.36766 -0.73471,-1.907079 -0.31462,-0.846397 -1.03462,-1.508022 -1.20721,-2.425081 -0.0807,-0.371893 -0.20501,-0.736947 -0.24224,-1.115682 -0.0754,-0.766802 0.10587,-1.618718 0.5397,-2.262603 0.17089,-0.253637 0.40683,-0.446564 0.63061,-0.648205 1.27873,-0.628658 0.38968,-2.437053 -0.88905,-1.808396 z" />
    <path
       style="fill:#c64600;stroke:none;stroke-width:0.264999;stroke-opacity:1"
       id="path1505"
       d="m 162.9478,75.300619 c -0.0175,0.225277 -0.0756,0.45107 -0.0524,0.675831 0.15512,1.50377 1.05602,3.100065 2.15279,4.121462 0.24987,0.232696 0.5444,0.412255 0.8166,0.618384 0.29188,0.121142 0.56046,0.34045 0.87565,0.363429 1.50993,0.110085 2.46402,-0.787643 2.76615,-2.211072 0.20341,-0.958356 -0.002,-1.620364 -0.1671,-2.544435 -0.23495,-0.801536 -0.53088,-1.605095 -1.11094,-2.227672 -0.1061,-0.11388 -0.2845,-0.435676 -0.35876,-0.298884 -1.1422,2.104041 -1.04209,1.888553 0.13262,2.084784 0.27311,0.0019 0.55447,0.0722 0.81934,0.0056 0.69809,-0.175535 1.07828,-0.603633 1.59758,-1.047935 0.0422,-0.0045 0.0359,-0.06413 -0.006,-0.05967 v 0 c -0.10381,-0.06714 -1.28118,-0.836943 -1.4145,-0.890929 -0.21031,-0.08516 -0.44595,-0.08402 -0.66893,-0.126031 -1.20888,-0.165092 -0.35467,-0.195728 -1.69408,1.736936 -0.009,0.01236 -0.0201,-0.05288 -0.008,-0.04442 0.0637,0.04344 0.12482,0.09405 0.17105,0.155781 0.3026,0.404135 0.30839,0.566208 0.49235,1.080381 0.11893,0.656423 0.19159,0.80141 0.14799,1.437849 -0.002,0.02839 -0.1204,0.539655 -0.0912,0.628063 0.027,0.08165 0.21853,0.14928 0.15445,0.206605 -0.0794,0.07103 -0.20866,-0.0432 -0.31299,-0.0648 -0.15763,-0.107333 -0.33009,-0.195617 -0.4729,-0.322003 -0.84546,-0.74821 -1.37852,-1.780841 -1.66934,-2.856238 0.2977,-1.484458 -1.80164,-1.905479 -2.09934,-0.421018 z" />
    <path
       style="fill:#c64600;stroke:none;stroke-width:0.264999;stroke-opacity:1"
       id="path1507"
       d="m 170.47783,82.811696 c 0.9219,-0.758243 1.63213,-1.722893 2.40667,-2.621058 -1.60599,0.968174 0.18276,0.207232 -1.8769,-0.343847 -0.16306,-0.04363 -8e-4,0.337896 0.0113,0.506248 0.0224,0.309385 0.15121,1.614633 0.26131,1.872322 0.13633,0.319098 0.40646,0.562522 0.60969,0.843782 0.28219,0.180166 0.56438,0.360331 0.84658,0.540494 0.0114,0.04086 0.0692,0.02474 0.0578,-0.01614 v 0 c 0.15524,-0.274685 0.31049,-0.54937 0.46573,-0.824053 0.0759,-0.300921 0.21053,-0.592891 0.22766,-0.902761 0.0162,-0.292761 -0.0906,-0.579427 -0.12961,-0.870026 -0.0326,-0.242856 -0.0631,-0.486117 -0.0853,-0.730142 -0.0747,-0.819605 0.13887,-1.261157 -1.16387,-1.796915 -0.30575,-0.125746 -0.58613,0.306025 -0.87919,0.459039 -0.55521,0.830342 -1.20263,1.5954 -1.98112,2.227506 -1.17064,0.869201 0.0586,2.524739 1.22924,1.65554 z" />
    <path
       style="fill:#c64600;stroke:none;stroke-width:0.264999;stroke-opacity:1"
       id="path1509"
       d="m 176.06983,79.614979 c -0.19245,0.53291 -0.13207,0.355719 -0.35186,1.024379 -0.22526,0.6853 -0.42288,1.02375 -0.28642,1.775127 0.0601,0.330784 0.23565,0.62974 0.35348,0.94461 -0.0184,0.03825 0.0357,0.06421 0.0541,0.02596 v 0 c 0.33033,-0.127764 0.69738,-0.185211 0.99098,-0.383296 0.66199,-0.446633 0.81792,-0.971037 1.06987,-1.674979 0.22037,-0.615739 0.22041,-0.720392 0.32899,-1.298565 0.29221,-1.526736 -1.86692,-1.939978 -2.15913,-0.413242 z" />
    <path
       style="fill:#c64600;stroke:none;stroke-width:0.264999;stroke-opacity:1"
       id="path1511"
       d="m 179.0546,75.917122 c 0.0289,0.197083 0.0432,0.396889 0.0868,0.591246 0.33759,1.504331 0.95303,3.173034 2.37836,3.980207 0.34027,0.192696 0.74135,0.249078 1.11203,0.373618 0.3977,-0.06486 0.83878,-0.0027 1.19311,-0.194567 1.637,-0.886537 1.54981,-3.125663 1.38414,-4.681307 -0.0327,-0.307142 -0.097,-0.610087 -0.14557,-0.91513 -0.062,-0.207555 -0.22147,-0.87938 -0.41369,-1.085766 -0.70117,-0.752832 -1.59854,-0.960133 -1.77822,1.12176 -0.049,0.567332 1.60992,0.851847 1.89274,0.921533 1.23583,-0.16809 0.65535,0.04344 1.7326,-0.658284 0.0415,0.009 0.0542,-0.04958 0.0128,-0.05862 v 0 c -0.7166,-1.060138 -0.27854,-0.660123 -1.25623,-1.260584 -0.18711,-0.04659 -0.37264,-0.179485 -0.56132,-0.13975 -0.0836,0.01762 0.0636,0.190971 0.008,0.256199 -0.395,0.466823 -0.76055,1.016899 -1.31099,1.283287 -0.90687,0.438891 -0.57869,-0.682101 -0.39345,-0.361707 0.0675,0.116713 0.11158,0.245465 0.16737,0.368197 0.0588,0.222962 0.13945,0.441286 0.17644,0.668888 0.10147,0.624295 0.10588,1.148951 0.009,1.772722 -0.0292,0.187843 -0.1265,0.361481 -0.15057,0.550045 -0.10426,0.816604 0.20903,-0.293683 0.005,0.366254 -0.11201,-0.01016 -0.23371,0.01622 -0.33604,-0.03046 -1.12625,-0.513945 -1.39195,-2.124025 -1.67862,-3.186239 -0.22519,-1.508731 -2.35886,-1.190263 -2.13367,0.318465 z" />
    <path
       style="fill:#c64600;stroke:none;stroke-width:0.264999;stroke-opacity:1"
       id="path1517"
       d="m 186.34141,80.153125 c 0.0794,0.01447 0.15785,0.05037 0.23827,0.04339 0.40119,-0.03482 0.246,-0.18352 0.60393,-0.03255 0.0495,0.02085 0.10657,0.05174 0.12427,0.102418 0.0122,0.03501 -0.0178,0.100295 -0.0547,0.09688 -0.12744,-0.01177 -0.23957,-0.09012 -0.35935,-0.135176 -0.27302,0.545968 -0.5258,1.105308 -0.91648,1.580827 -0.084,0.102188 -0.18518,0.188905 -0.2758,0.285229 -0.12063,0.235866 -0.50217,0.482873 -0.36188,0.707599 0.31745,0.508513 0.9271,0.775264 1.45954,1.050703 0.13274,0.06867 0.29536,-0.04593 0.44342,-0.06627 0.20516,-0.02819 0.41039,-0.05624 0.6162,-0.07931 0.74838,-0.08386 0.62272,-0.06543 1.35972,-0.08881 1.03226,-0.265049 0.21495,0.0296 1.19557,-0.612122 0.14164,-0.09269 0.30273,-0.151566 0.4541,-0.227348 0.0417,0.008 0.053,-0.05093 0.0113,-0.05893 v 0 c -0.12403,-0.128606 -0.2499,-0.255455 -0.37208,-0.38582 -0.77573,-0.827717 -0.28221,-0.528437 -1.35972,-0.866013 -0.27467,0.0093 -0.54995,0.0074 -0.824,0.02794 -0.51741,0.03885 -1.00768,0.117624 -1.51306,0.229201 -0.16522,0.03648 -0.55809,-0.02574 -0.49081,0.129511 0.85603,1.975413 1.46344,0.391144 0.68965,1.795661 0.82011,-0.629097 1.64425,-1.704277 1.90391,-2.70332 0.0958,-0.368501 0.0979,-0.755171 0.14685,-1.132755 -0.19249,-0.425532 -0.27836,-0.917908 -0.57748,-1.276599 -0.20594,-0.246951 -0.54698,-0.357094 -0.85676,-0.443288 -0.82567,-0.22974 -1.77336,0.08958 -2.34132,0.716884 -0.17198,0.189947 -0.27373,0.433241 -0.41059,0.649864 -0.48946,1.037521 0.97782,1.729727 1.46728,0.692205 z" />
    <path
       style="fill:#c64600;stroke:none;stroke-width:0.264999;stroke-opacity:1"
       id="path1519"
       d="m 192.40301,74.333774 c 0.10122,0.215754 0.2644,0.395798 0.37152,0.607671 0.15705,0.310631 0.47279,1.140531 0.51771,1.426392 0.1544,0.98248 0.0409,2.09875 -0.006,3.071292 0.0777,2.130517 0.0105,1.105244 0.18946,3.076601 -0.0149,0.03971 0.0412,0.06085 0.0562,0.02114 v 0 c 1.55165,-1.629187 0.87364,-0.672594 1.93371,-2.938325 0.0657,-0.701913 0.20649,-1.400823 0.19699,-2.105734 -0.0214,-1.587463 -0.49697,-3.220733 -1.67654,-4.334793 -0.11724,-0.110728 -0.25506,-0.197408 -0.38259,-0.296111 -1.04076,-0.848868 -2.24124,0.622996 -1.20048,1.471864 z" />
    <g
       transform="matrix(3.1282077,0,0,3.1282077,172.18174,87.91327)"
       id="g2032"
       style="fill:#a51d2d">
      <g
         fill="#000000"
         fill-opacity="1"
         id="g57"
         transform="matrix(0.352778,0,0,0.352778,-0.192925,0.00436558)"
         style="fill:#a51d2d">
        <g
           id="use55"
           transform="translate(0,7.4720001)"
           style="fill:#a51d2d">
          <path
             d="m 2.859375,-6.8125 c 0,0 0,-0.109375 -0.125,-0.109375 -0.234375,0 -0.953125,0.078125 -1.21875,0.109375 -0.078125,0 -0.1875,0.015625 -0.1875,0.1875 0,0.125 0.09375,0.125 0.234375,0.125 0.484375,0 0.5,0.0625 0.5,0.171875 L 2.03125,-6.125 0.59375,-0.390625 c -0.046875,0.140625 -0.046875,0.15625 -0.046875,0.21875 0,0.234375 0.203125,0.28125 0.296875,0.28125 0.15625,0 0.3125,-0.125 0.359375,-0.265625 l 0.1875,-0.75 0.21875,-0.890625 C 1.671875,-2.03125 1.734375,-2.25 1.78125,-2.46875 1.796875,-2.53125 1.890625,-2.859375 1.890625,-2.921875 1.921875,-3.015625 2.234375,-3.5625 2.578125,-3.84375 2.796875,-4 3.09375,-4.1875 3.53125,-4.1875 c 0.421875,0 0.53125,0.34375 0.53125,0.703125 0,0.53125 -0.375,1.625 -0.609375,2.234375 C 3.375,-1.03125 3.3125,-0.90625 3.3125,-0.703125 c 0,0.46875 0.359375,0.8125 0.828125,0.8125 0.9375,0 1.296875,-1.453125 1.296875,-1.53125 0,-0.109375 -0.078125,-0.109375 -0.109375,-0.109375 -0.109375,0 -0.109375,0.03125 -0.15625,0.1875 -0.140625,0.53125 -0.46875,1.234375 -1.015625,1.234375 -0.171875,0 -0.234375,-0.09375 -0.234375,-0.328125 0,-0.25 0.078125,-0.484375 0.171875,-0.703125 0.15625,-0.4375 0.609375,-1.625 0.609375,-2.203125 0,-0.640625 -0.390625,-1.0625 -1.140625,-1.0625 -0.625,0 -1.109375,0.3125 -1.484375,0.765625 z m 0,0"
             id="path121"
             style="fill:#a51d2d" />
        </g>
      </g>
      <g
         clip-path="url(#clipPath6539)"
         id="g63"
         transform="matrix(0.352778,0,0,0.352778,-0.192925,0.00436558)"
         style="fill:#a51d2d">
        <g
           fill="#000000"
           fill-opacity="1"
           id="g61"
           style="fill:#a51d2d">
          <g
             id="use59"
             transform="translate(5.7399998,8.967)"
             style="fill:#a51d2d">
            <path
               d="m 4.921875,-4 c 0.078125,-0.265625 0.1875,-0.5 0.75,-0.515625 0.03125,0 0.140625,0 0.140625,-0.140625 0,-0.046875 -0.046875,-0.109375 -0.109375,-0.109375 -0.21875,0 -0.484375,0.03125 -0.71875,0.03125 -0.234375,0 -0.53125,-0.03125 -0.734375,-0.03125 -0.03125,0 -0.140625,0 -0.140625,0.15625 0,0.09375 0.09375,0.09375 0.15625,0.09375 0.328125,0.015625 0.4375,0.125 0.4375,0.296875 0,0.03125 0,0.0625 0,0.09375 C 4.59375,-3.671875 4.078125,-1.578125 4,-1.359375 c -0.390625,0.890625 -1.21875,1.25 -1.78125,1.25 C 1.75,-0.109375 1.25,-0.34375 1.25,-1.03125 c 0,-0.171875 0.03125,-0.34375 0.0625,-0.5 L 2,-4.21875 c 0.0625,-0.234375 0.0625,-0.296875 0.609375,-0.296875 0.109375,0 0.203125,0 0.203125,-0.140625 0,-0.03125 -0.015625,-0.109375 -0.109375,-0.109375 -0.203125,0 -0.703125,0.03125 -0.90625,0.03125 -0.125,0 -0.375,0 -0.484375,0 C 1.171875,-4.75 1,-4.765625 0.875,-4.765625 c -0.046875,0 -0.15625,0 -0.15625,0.15625 0,0.09375 0.09375,0.09375 0.234375,0.09375 0,0 0.140625,0 0.265625,0.015625 0.140625,0.015625 0.15625,0.03125 0.15625,0.109375 0,0.03125 -0.078125,0.3125 -0.109375,0.453125 l -0.15625,0.625 -0.40625,1.59375 c -0.0625,0.28125 -0.0625,0.34375 -0.0625,0.484375 0,0.859375 0.71875,1.375 1.546875,1.375 0.96875,0 1.890625,-0.78125 2.125,-1.6875 z m 0,0"
               id="path125"
               style="fill:#a51d2d" />
          </g>
        </g>
      </g>
      <g
         clip-path="url(#clipPath4015)"
         id="g71"
         transform="matrix(0.352778,0,0,0.352778,-0.192925,0.00436558)"
         style="fill:#a51d2d">
        <g
           fill="#000000"
           fill-opacity="1"
           id="g69"
           style="fill:#a51d2d">
          <g
             id="use65"
             transform="translate(12.413,7.4720001)"
             style="fill:#a51d2d">
            <path
               d="m 3.296875,2.390625 c 0,-0.03125 0,-0.046875 -0.171875,-0.21875 C 1.890625,0.921875 1.5625,-0.96875 1.5625,-2.5 c 0,-1.734375 0.375,-3.46875 1.609375,-4.703125 0.125,-0.125 0.125,-0.140625 0.125,-0.171875 0,-0.078125 -0.03125,-0.109375 -0.09375,-0.109375 -0.109375,0 -1,0.6875 -1.59375,1.953125 -0.5,1.09375 -0.625,2.203125 -0.625,3.03125 0,0.78125 0.109375,1.984375 0.65625,3.125 C 2.25,1.84375 3.09375,2.5 3.203125,2.5 c 0.0625,0 0.09375,-0.03125 0.09375,-0.109375 z m 0,0"
               id="path129"
               style="fill:#a51d2d" />
          </g>
          <g
             id="use67"
             transform="translate(16.287455,7.4720001)"
             style="fill:#a51d2d">
            <path
               d="m 3.296875,2.390625 c 0,-0.03125 0,-0.046875 -0.171875,-0.21875 C 1.890625,0.921875 1.5625,-0.96875 1.5625,-2.5 c 0,-1.734375 0.375,-3.46875 1.609375,-4.703125 0.125,-0.125 0.125,-0.140625 0.125,-0.171875 0,-0.078125 -0.03125,-0.109375 -0.09375,-0.109375 -0.109375,0 -1,0.6875 -1.59375,1.953125 -0.5,1.09375 -0.625,2.203125 -0.625,3.03125 0,0.78125 0.109375,1.984375 0.65625,3.125 C 2.25,1.84375 3.09375,2.5 3.203125,2.5 c 0.0625,0 0.09375,-0.03125 0.09375,-0.109375 z m 0,0"
               id="path133"
               style="fill:#a51d2d" />
          </g>
        </g>
      </g>
      <g
         fill="#000000"
         fill-opacity="1"
         id="g75"
         transform="matrix(0.352778,0,0,0.352778,-0.192925,0.00436558)"
         style="fill:#a51d2d">
        <g
           id="use73"
           transform="translate(20.162001,7.4720001)"
           style="fill:#a51d2d">
          <path
             d="m 4.671875,-3.703125 c 0,-0.546875 -0.265625,-0.703125 -0.4375,-0.703125 -0.25,0 -0.5,0.265625 -0.5,0.484375 0,0.125 0.046875,0.1875 0.15625,0.296875 0.21875,0.203125 0.34375,0.453125 0.34375,0.8125 0,0.421875 -0.609375,2.703125 -1.765625,2.703125 -0.515625,0 -0.75,-0.34375 -0.75,-0.875 0,-0.546875 0.28125,-1.28125 0.578125,-2.109375 0.078125,-0.171875 0.125,-0.3125 0.125,-0.5 0,-0.4375 -0.3125,-0.8125 -0.8125,-0.8125 -0.9375,0 -1.3125,1.453125 -1.3125,1.53125 0,0.109375 0.09375,0.109375 0.109375,0.109375 0.109375,0 0.109375,-0.03125 0.15625,-0.1875 0.296875,-1 0.71875,-1.234375 1.015625,-1.234375 0.078125,0 0.25,0 0.25,0.3125 0,0.25 -0.109375,0.53125 -0.171875,0.703125 -0.4375,1.15625 -0.5625,1.609375 -0.5625,2.046875 0,1.078125 0.875,1.234375 1.328125,1.234375 1.671875,0 2.25,-3.296875 2.25,-3.8125 z m 0,0"
             id="path137"
             style="fill:#a51d2d" />
        </g>
      </g>
      <g
         fill="#000000"
         fill-opacity="1"
         id="g79"
         transform="matrix(0.352778,0,0,0.352778,-0.192925,0.00436558)"
         style="fill:#a51d2d">
        <g
           id="use77"
           transform="translate(24.990999,8.967)"
           style="fill:#a51d2d">
          <path
             d="m 2.328125,-4.4375 c 0,-0.1875 0,-0.1875 -0.203125,-0.1875 -0.453125,0.4375 -1.078125,0.4375 -1.359375,0.4375 v 0.25 c 0.15625,0 0.625,0 1,-0.1875 v 3.546875 c 0,0.234375 0,0.328125 -0.6875,0.328125 H 0.8125 V 0 c 0.125,0 0.984375,-0.03125 1.234375,-0.03125 0.21875,0 1.09375,0.03125 1.25,0.03125 V -0.25 H 3.03125 c -0.703125,0 -0.703125,-0.09375 -0.703125,-0.328125 z m 0,0"
             id="path141"
             style="fill:#a51d2d" />
        </g>
      </g>
      <g
         clip-path="url(#clipPath3570)"
         id="g85"
         transform="matrix(0.352778,0,0,0.352778,-0.192925,0.00436558)"
         style="fill:#a51d2d">
        <g
           fill="#000000"
           fill-opacity="1"
           id="g83"
           style="fill:#a51d2d">
          <g
             id="use81"
             transform="translate(29.459999,7.4720001)"
             style="fill:#a51d2d">
            <path
               d="m 2.03125,-0.015625 c 0,-0.65625 -0.25,-1.046875 -0.640625,-1.046875 -0.328125,0 -0.53125,0.25 -0.53125,0.53125 C 0.859375,-0.265625 1.0625,0 1.390625,0 1.5,0 1.640625,-0.046875 1.734375,-0.125 1.765625,-0.15625 1.78125,-0.15625 1.78125,-0.15625 c 0.015625,0 0.015625,0 0.015625,0.140625 0,0.75 -0.34375,1.34375 -0.671875,1.671875 -0.109375,0.109375 -0.109375,0.125 -0.109375,0.15625 0,0.078125 0.046875,0.109375 0.09375,0.109375 0.109375,0 0.921875,-0.765625 0.921875,-1.9375 z m 0,0"
               id="path145"
               style="fill:#a51d2d" />
          </g>
        </g>
      </g>
      <g
         fill="#000000"
         fill-opacity="1"
         id="g89"
         transform="matrix(0.352778,0,0,0.352778,-0.192925,0.00436558)"
         style="fill:#a51d2d">
        <g
           id="use87"
           transform="translate(33.891365,7.4720001)"
           style="fill:#a51d2d">
          <path
             d="m 4.671875,-3.703125 c 0,-0.546875 -0.265625,-0.703125 -0.4375,-0.703125 -0.25,0 -0.5,0.265625 -0.5,0.484375 0,0.125 0.046875,0.1875 0.15625,0.296875 0.21875,0.203125 0.34375,0.453125 0.34375,0.8125 0,0.421875 -0.609375,2.703125 -1.765625,2.703125 -0.515625,0 -0.75,-0.34375 -0.75,-0.875 0,-0.546875 0.28125,-1.28125 0.578125,-2.109375 0.078125,-0.171875 0.125,-0.3125 0.125,-0.5 0,-0.4375 -0.3125,-0.8125 -0.8125,-0.8125 -0.9375,0 -1.3125,1.453125 -1.3125,1.53125 0,0.109375 0.09375,0.109375 0.109375,0.109375 0.109375,0 0.109375,-0.03125 0.15625,-0.1875 0.296875,-1 0.71875,-1.234375 1.015625,-1.234375 0.078125,0 0.25,0 0.25,0.3125 0,0.25 -0.109375,0.53125 -0.171875,0.703125 -0.4375,1.15625 -0.5625,1.609375 -0.5625,2.046875 0,1.078125 0.875,1.234375 1.328125,1.234375 1.671875,0 2.25,-3.296875 2.25,-3.8125 z m 0,0"
             id="path149"
             style="fill:#a51d2d" />
        </g>
      </g>
      <g
         fill="#000000"
         fill-opacity="1"
         id="g93"
         transform="matrix(0.352778,0,0,0.352778,-0.192925,0.00436558)"
         style="fill:#a51d2d">
        <g
           id="use91"
           transform="translate(38.716999,8.967)"
           style="fill:#a51d2d">
          <path
             d="M 3.515625,-1.265625 H 3.28125 c -0.015625,0.15625 -0.09375,0.5625 -0.1875,0.625 C 3.046875,-0.59375 2.515625,-0.59375 2.40625,-0.59375 H 1.125 c 0.734375,-0.640625 0.984375,-0.84375 1.390625,-1.171875 0.515625,-0.40625 1,-0.84375 1,-1.5 0,-0.84375 -0.734375,-1.359375 -1.625,-1.359375 -0.859375,0 -1.453125,0.609375 -1.453125,1.25 0,0.34375 0.296875,0.390625 0.375,0.390625 0.15625,0 0.359375,-0.125 0.359375,-0.375 0,-0.125 -0.046875,-0.375 -0.40625,-0.375 C 0.984375,-4.21875 1.453125,-4.375 1.78125,-4.375 c 0.703125,0 1.0625,0.546875 1.0625,1.109375 0,0.609375 -0.4375,1.078125 -0.65625,1.328125 L 0.515625,-0.265625 C 0.4375,-0.203125 0.4375,-0.1875 0.4375,0 h 2.875 z m 0,0"
             id="path153"
             style="fill:#a51d2d" />
        </g>
      </g>
      <g
         clip-path="url(#clipPath6271)"
         id="g99"
         transform="matrix(0.352778,0,0,0.352778,-0.192925,0.00436558)"
         style="fill:#a51d2d">
        <g
           fill="#000000"
           fill-opacity="1"
           id="g97"
           style="fill:#a51d2d">
          <g
             id="use95"
             transform="translate(43.187,7.4720001)"
             style="fill:#a51d2d">
            <path
               d="m 2.875,-2.5 c 0,-0.765625 -0.109375,-1.96875 -0.65625,-3.109375 -0.59375,-1.21875 -1.453125,-1.875 -1.546875,-1.875 -0.0625,0 -0.109375,0.046875 -0.109375,0.109375 0,0.03125 0,0.046875 0.1875,0.234375 0.984375,0.984375 1.546875,2.5625 1.546875,4.640625 0,1.71875 -0.359375,3.46875 -1.59375,4.71875 C 0.5625,2.34375 0.5625,2.359375 0.5625,2.390625 0.5625,2.453125 0.609375,2.5 0.671875,2.5 0.765625,2.5 1.671875,1.8125 2.25,0.546875 2.765625,-0.546875 2.875,-1.65625 2.875,-2.5 Z m 0,0"
               id="path157"
               style="fill:#a51d2d" />
          </g>
        </g>
      </g>
      <g
         clip-path="url(#clipPath6606)"
         id="g105"
         transform="matrix(0.352778,0,0,0.352778,-0.192925,0.00436558)"
         style="fill:#a51d2d">
        <g
           fill="#000000"
           fill-opacity="1"
           id="g103"
           style="fill:#a51d2d">
          <g
             id="use101"
             transform="translate(47.061001,7.4720001)"
             style="fill:#a51d2d">
            <path
               d="m 2.03125,-0.015625 c 0,-0.65625 -0.25,-1.046875 -0.640625,-1.046875 -0.328125,0 -0.53125,0.25 -0.53125,0.53125 C 0.859375,-0.265625 1.0625,0 1.390625,0 1.5,0 1.640625,-0.046875 1.734375,-0.125 1.765625,-0.15625 1.78125,-0.15625 1.78125,-0.15625 c 0.015625,0 0.015625,0 0.015625,0.140625 0,0.75 -0.34375,1.34375 -0.671875,1.671875 -0.109375,0.109375 -0.109375,0.125 -0.109375,0.15625 0,0.078125 0.046875,0.109375 0.09375,0.109375 0.109375,0 0.921875,-0.765625 0.921875,-1.9375 z m 0,0"
               id="path161"
               style="fill:#a51d2d" />
          </g>
        </g>
      </g>
      <g
         fill="#000000"
         fill-opacity="1"
         id="g109"
         transform="matrix(0.352778,0,0,0.352778,-0.192925,0.00436558)"
         style="fill:#a51d2d">
        <g
           id="use107"
           transform="translate(51.492363,7.4720001)"
           style="fill:#a51d2d">
          <path
             d="m 2.046875,-3.984375 h 0.9375 c 0.203125,0 0.3125,0 0.3125,-0.203125 0,-0.109375 -0.109375,-0.109375 -0.28125,-0.109375 h -0.875 C 2.5,-5.71875 2.546875,-5.90625 2.546875,-5.96875 c 0,-0.171875 -0.125,-0.265625 -0.296875,-0.265625 -0.03125,0 -0.3125,0 -0.390625,0.359375 L 1.46875,-4.296875 h -0.9375 c -0.203125,0 -0.296875,0 -0.296875,0.1875 0,0.125 0.078125,0.125 0.28125,0.125 h 0.875 C 0.671875,-1.15625 0.625,-0.984375 0.625,-0.8125 0.625,-0.265625 1,0.109375 1.546875,0.109375 2.5625,0.109375 3.125,-1.34375 3.125,-1.421875 3.125,-1.53125 3.046875,-1.53125 3.015625,-1.53125 2.921875,-1.53125 2.90625,-1.5 2.859375,-1.390625 2.4375,-0.34375 1.90625,-0.109375 1.5625,-0.109375 c -0.203125,0 -0.3125,-0.125 -0.3125,-0.453125 0,-0.25 0.03125,-0.3125 0.0625,-0.484375 z m 0,0"
             id="path165"
             style="fill:#a51d2d" />
        </g>
      </g>
      <g
         clip-path="url(#clipPath9749)"
         id="g115"
         transform="matrix(0.352778,0,0,0.352778,-0.192925,0.00436558)"
         style="fill:#a51d2d">
        <g
           fill="#000000"
           fill-opacity="1"
           id="g113"
           style="fill:#a51d2d">
          <g
             id="use111"
             transform="translate(55.087002,7.4720001)"
             style="fill:#a51d2d">
            <path
               d="m 2.875,-2.5 c 0,-0.765625 -0.109375,-1.96875 -0.65625,-3.109375 -0.59375,-1.21875 -1.453125,-1.875 -1.546875,-1.875 -0.0625,0 -0.109375,0.046875 -0.109375,0.109375 0,0.03125 0,0.046875 0.1875,0.234375 0.984375,0.984375 1.546875,2.5625 1.546875,4.640625 0,1.71875 -0.359375,3.46875 -1.59375,4.71875 C 0.5625,2.34375 0.5625,2.359375 0.5625,2.390625 0.5625,2.453125 0.609375,2.5 0.671875,2.5 0.765625,2.5 1.671875,1.8125 2.25,0.546875 2.765625,-0.546875 2.875,-1.65625 2.875,-2.5 Z m 0,0"
               id="path169"
               style="fill:#a51d2d" />
          </g>
        </g>
      </g>
    </g>
    <g
       transform="matrix(3.1282077,0,0,3.1282077,170.90043,100.69871)"
       id="g3460"
       style="fill:#c64600">
      <g
         fill="#000000"
         fill-opacity="1"
         id="g58"
         transform="matrix(0.352778,0,0,0.352778,-0.104731,0.00436558)"
         style="fill:#c64600">
        <g
           id="use56"
           transform="translate(0,7.4720001)"
           style="fill:#c64600">
          <path
             d="M 4.609375,-3.375 C 4.65625,-3.59375 4.75,-3.96875 4.75,-4.03125 c 0,-0.171875 -0.140625,-0.265625 -0.28125,-0.265625 -0.125,0 -0.296875,0.078125 -0.375,0.28125 -0.03125,0.0625 -0.5,1.96875 -0.5625,2.234375 C 3.453125,-1.484375 3.4375,-1.3125 3.4375,-1.125 c 0,0.109375 0,0.125 0.015625,0.171875 -0.234375,0.53125 -0.53125,0.84375 -0.921875,0.84375 -0.796875,0 -0.796875,-0.734375 -0.796875,-0.90625 0,-0.3125 0.046875,-0.703125 0.515625,-1.9375 0.109375,-0.296875 0.171875,-0.4375 0.171875,-0.640625 0,-0.4375 -0.328125,-0.8125 -0.8125,-0.8125 -0.953125,0 -1.3125,1.453125 -1.3125,1.53125 0,0.109375 0.09375,0.109375 0.109375,0.109375 0.109375,0 0.109375,-0.03125 0.15625,-0.1875 C 0.84375,-3.875 1.21875,-4.1875 1.578125,-4.1875 c 0.09375,0 0.25,0.015625 0.25,0.328125 0,0.25 -0.109375,0.53125 -0.1875,0.703125 -0.4375,1.171875 -0.546875,1.625 -0.546875,2.015625 0,0.90625 0.65625,1.25 1.40625,1.25 0.171875,0 0.640625,0 1.03125,-0.703125 0.265625,0.640625 0.953125,0.703125 1.25,0.703125 0.75,0 1.1875,-0.625 1.453125,-1.21875 0.328125,-0.78125 0.65625,-2.125 0.65625,-2.59375 0,-0.546875 -0.265625,-0.703125 -0.4375,-0.703125 -0.25,0 -0.5,0.265625 -0.5,0.484375 0,0.125 0.0625,0.1875 0.140625,0.265625 0.109375,0.109375 0.359375,0.359375 0.359375,0.84375 0,0.34375 -0.28125,1.3125 -0.546875,1.828125 -0.25,0.53125 -0.609375,0.875 -1.09375,0.875 -0.46875,0 -0.734375,-0.296875 -0.734375,-0.875 0,-0.265625 0.0625,-0.578125 0.109375,-0.71875 z m 0,0"
             id="path122"
             style="fill:#c64600" />
        </g>
      </g>
      <g
         clip-path="url(#clipPath6081)"
         id="g64"
         transform="matrix(0.352778,0,0,0.352778,-0.104731,0.00436558)"
         style="fill:#c64600">
        <g
           fill="#000000"
           fill-opacity="1"
           id="g62"
           style="fill:#c64600">
          <g
             id="use60"
             transform="translate(7.132,8.967)"
             style="fill:#c64600">
            <path
               d="m 4.921875,-4 c 0.078125,-0.265625 0.1875,-0.5 0.75,-0.515625 0.03125,0 0.140625,0 0.140625,-0.140625 0,-0.046875 -0.046875,-0.109375 -0.109375,-0.109375 -0.21875,0 -0.484375,0.03125 -0.71875,0.03125 -0.234375,0 -0.53125,-0.03125 -0.734375,-0.03125 -0.03125,0 -0.140625,0 -0.140625,0.15625 0,0.09375 0.09375,0.09375 0.15625,0.09375 0.328125,0.015625 0.4375,0.125 0.4375,0.296875 0,0.03125 0,0.0625 0,0.09375 C 4.59375,-3.671875 4.078125,-1.578125 4,-1.359375 c -0.390625,0.890625 -1.21875,1.25 -1.78125,1.25 C 1.75,-0.109375 1.25,-0.34375 1.25,-1.03125 c 0,-0.171875 0.03125,-0.34375 0.0625,-0.5 L 2,-4.21875 c 0.0625,-0.234375 0.0625,-0.296875 0.609375,-0.296875 0.109375,0 0.203125,0 0.203125,-0.140625 0,-0.03125 -0.015625,-0.109375 -0.109375,-0.109375 -0.203125,0 -0.703125,0.03125 -0.90625,0.03125 -0.125,0 -0.375,0 -0.484375,0 C 1.171875,-4.75 1,-4.765625 0.875,-4.765625 c -0.046875,0 -0.15625,0 -0.15625,0.15625 0,0.09375 0.09375,0.09375 0.234375,0.09375 0,0 0.140625,0 0.265625,0.015625 0.140625,0.015625 0.15625,0.03125 0.15625,0.109375 0,0.03125 -0.078125,0.3125 -0.109375,0.453125 l -0.15625,0.625 -0.40625,1.59375 c -0.0625,0.28125 -0.0625,0.34375 -0.0625,0.484375 0,0.859375 0.71875,1.375 1.546875,1.375 0.96875,0 1.890625,-0.78125 2.125,-1.6875 z m 0,0"
               id="path126"
               style="fill:#c64600" />
          </g>
        </g>
      </g>
      <g
         clip-path="url(#clipPath8390)"
         id="g72"
         transform="matrix(0.352778,0,0,0.352778,-0.104731,0.00436558)"
         style="fill:#c64600">
        <g
           fill="#000000"
           fill-opacity="1"
           id="g70"
           style="fill:#c64600">
          <g
             id="use66"
             transform="translate(13.806,7.4720001)"
             style="fill:#c64600">
            <path
               d="m 3.296875,2.390625 c 0,-0.03125 0,-0.046875 -0.171875,-0.21875 C 1.890625,0.921875 1.5625,-0.96875 1.5625,-2.5 c 0,-1.734375 0.375,-3.46875 1.609375,-4.703125 0.125,-0.125 0.125,-0.140625 0.125,-0.171875 0,-0.078125 -0.03125,-0.109375 -0.09375,-0.109375 -0.109375,0 -1,0.6875 -1.59375,1.953125 -0.5,1.09375 -0.625,2.203125 -0.625,3.03125 0,0.78125 0.109375,1.984375 0.65625,3.125 C 2.25,1.84375 3.09375,2.5 3.203125,2.5 c 0.0625,0 0.09375,-0.03125 0.09375,-0.109375 z m 0,0"
               id="path130"
               style="fill:#c64600" />
          </g>
          <g
             id="use68"
             transform="translate(17.680454,7.4720001)"
             style="fill:#c64600">
            <path
               d="m 3.296875,2.390625 c 0,-0.03125 0,-0.046875 -0.171875,-0.21875 C 1.890625,0.921875 1.5625,-0.96875 1.5625,-2.5 c 0,-1.734375 0.375,-3.46875 1.609375,-4.703125 0.125,-0.125 0.125,-0.140625 0.125,-0.171875 0,-0.078125 -0.03125,-0.109375 -0.09375,-0.109375 -0.109375,0 -1,0.6875 -1.59375,1.953125 -0.5,1.09375 -0.625,2.203125 -0.625,3.03125 0,0.78125 0.109375,1.984375 0.65625,3.125 C 2.25,1.84375 3.09375,2.5 3.203125,2.5 c 0.0625,0 0.09375,-0.03125 0.09375,-0.109375 z m 0,0"
               id="path134"
               style="fill:#c64600" />
          </g>
        </g>
      </g>
      <g
         fill="#000000"
         fill-opacity="1"
         id="g76"
         transform="matrix(0.352778,0,0,0.352778,-0.104731,0.00436558)"
         style="fill:#c64600">
        <g
           id="use74"
           transform="translate(21.554001,7.4720001)"
           style="fill:#c64600">
          <path
             d="m 4.671875,-3.703125 c 0,-0.546875 -0.265625,-0.703125 -0.4375,-0.703125 -0.25,0 -0.5,0.265625 -0.5,0.484375 0,0.125 0.046875,0.1875 0.15625,0.296875 0.21875,0.203125 0.34375,0.453125 0.34375,0.8125 0,0.421875 -0.609375,2.703125 -1.765625,2.703125 -0.515625,0 -0.75,-0.34375 -0.75,-0.875 0,-0.546875 0.28125,-1.28125 0.578125,-2.109375 0.078125,-0.171875 0.125,-0.3125 0.125,-0.5 0,-0.4375 -0.3125,-0.8125 -0.8125,-0.8125 -0.9375,0 -1.3125,1.453125 -1.3125,1.53125 0,0.109375 0.09375,0.109375 0.109375,0.109375 0.109375,0 0.109375,-0.03125 0.15625,-0.1875 0.296875,-1 0.71875,-1.234375 1.015625,-1.234375 0.078125,0 0.25,0 0.25,0.3125 0,0.25 -0.109375,0.53125 -0.171875,0.703125 -0.4375,1.15625 -0.5625,1.609375 -0.5625,2.046875 0,1.078125 0.875,1.234375 1.328125,1.234375 1.671875,0 2.25,-3.296875 2.25,-3.8125 z m 0,0"
             id="path138"
             style="fill:#c64600" />
        </g>
      </g>
      <g
         fill="#000000"
         fill-opacity="1"
         id="g80"
         transform="matrix(0.352778,0,0,0.352778,-0.104731,0.00436558)"
         style="fill:#c64600">
        <g
           id="use78"
           transform="translate(26.382999,8.967)"
           style="fill:#c64600">
          <path
             d="m 2.328125,-4.4375 c 0,-0.1875 0,-0.1875 -0.203125,-0.1875 -0.453125,0.4375 -1.078125,0.4375 -1.359375,0.4375 v 0.25 c 0.15625,0 0.625,0 1,-0.1875 v 3.546875 c 0,0.234375 0,0.328125 -0.6875,0.328125 H 0.8125 V 0 c 0.125,0 0.984375,-0.03125 1.234375,-0.03125 0.21875,0 1.09375,0.03125 1.25,0.03125 V -0.25 H 3.03125 c -0.703125,0 -0.703125,-0.09375 -0.703125,-0.328125 z m 0,0"
             id="path142"
             style="fill:#c64600" />
        </g>
      </g>
      <g
         clip-path="url(#clipPath6485)"
         id="g86"
         transform="matrix(0.352778,0,0,0.352778,-0.104731,0.00436558)"
         style="fill:#c64600">
        <g
           fill="#000000"
           fill-opacity="1"
           id="g84"
           style="fill:#c64600">
          <g
             id="use82"
             transform="translate(30.853001,7.4720001)"
             style="fill:#c64600">
            <path
               d="m 2.03125,-0.015625 c 0,-0.65625 -0.25,-1.046875 -0.640625,-1.046875 -0.328125,0 -0.53125,0.25 -0.53125,0.53125 C 0.859375,-0.265625 1.0625,0 1.390625,0 1.5,0 1.640625,-0.046875 1.734375,-0.125 1.765625,-0.15625 1.78125,-0.15625 1.78125,-0.15625 c 0.015625,0 0.015625,0 0.015625,0.140625 0,0.75 -0.34375,1.34375 -0.671875,1.671875 -0.109375,0.109375 -0.109375,0.125 -0.109375,0.15625 0,0.078125 0.046875,0.109375 0.09375,0.109375 0.109375,0 0.921875,-0.765625 0.921875,-1.9375 z m 0,0"
               id="path146"
               style="fill:#c64600" />
          </g>
        </g>
      </g>
      <g
         fill="#000000"
         fill-opacity="1"
         id="g90"
         transform="matrix(0.352778,0,0,0.352778,-0.104731,0.00436558)"
         style="fill:#c64600">
        <g
           id="use88"
           transform="translate(35.284363,7.4720001)"
           style="fill:#c64600">
          <path
             d="m 4.671875,-3.703125 c 0,-0.546875 -0.265625,-0.703125 -0.4375,-0.703125 -0.25,0 -0.5,0.265625 -0.5,0.484375 0,0.125 0.046875,0.1875 0.15625,0.296875 0.21875,0.203125 0.34375,0.453125 0.34375,0.8125 0,0.421875 -0.609375,2.703125 -1.765625,2.703125 -0.515625,0 -0.75,-0.34375 -0.75,-0.875 0,-0.546875 0.28125,-1.28125 0.578125,-2.109375 0.078125,-0.171875 0.125,-0.3125 0.125,-0.5 0,-0.4375 -0.3125,-0.8125 -0.8125,-0.8125 -0.9375,0 -1.3125,1.453125 -1.3125,1.53125 0,0.109375 0.09375,0.109375 0.109375,0.109375 0.109375,0 0.109375,-0.03125 0.15625,-0.1875 0.296875,-1 0.71875,-1.234375 1.015625,-1.234375 0.078125,0 0.25,0 0.25,0.3125 0,0.25 -0.109375,0.53125 -0.171875,0.703125 -0.4375,1.15625 -0.5625,1.609375 -0.5625,2.046875 0,1.078125 0.875,1.234375 1.328125,1.234375 1.671875,0 2.25,-3.296875 2.25,-3.8125 z m 0,0"
             id="path150"
             style="fill:#c64600" />
        </g>
      </g>
      <g
         fill="#000000"
         fill-opacity="1"
         id="g94"
         transform="matrix(0.352778,0,0,0.352778,-0.104731,0.00436558)"
         style="fill:#c64600">
        <g
           id="use92"
           transform="translate(40.110001,8.967)"
           style="fill:#c64600">
          <path
             d="M 3.515625,-1.265625 H 3.28125 c -0.015625,0.15625 -0.09375,0.5625 -0.1875,0.625 C 3.046875,-0.59375 2.515625,-0.59375 2.40625,-0.59375 H 1.125 c 0.734375,-0.640625 0.984375,-0.84375 1.390625,-1.171875 0.515625,-0.40625 1,-0.84375 1,-1.5 0,-0.84375 -0.734375,-1.359375 -1.625,-1.359375 -0.859375,0 -1.453125,0.609375 -1.453125,1.25 0,0.34375 0.296875,0.390625 0.375,0.390625 0.15625,0 0.359375,-0.125 0.359375,-0.375 0,-0.125 -0.046875,-0.375 -0.40625,-0.375 C 0.984375,-4.21875 1.453125,-4.375 1.78125,-4.375 c 0.703125,0 1.0625,0.546875 1.0625,1.109375 0,0.609375 -0.4375,1.078125 -0.65625,1.328125 L 0.515625,-0.265625 C 0.4375,-0.203125 0.4375,-0.1875 0.4375,0 h 2.875 z m 0,0"
             id="path154"
             style="fill:#c64600" />
        </g>
      </g>
      <g
         clip-path="url(#clipPath1838)"
         id="g100"
         transform="matrix(0.352778,0,0,0.352778,-0.104731,0.00436558)"
         style="fill:#c64600">
        <g
           fill="#000000"
           fill-opacity="1"
           id="g98"
           style="fill:#c64600">
          <g
             id="use96"
             transform="translate(44.578999,7.4720001)"
             style="fill:#c64600">
            <path
               d="m 2.875,-2.5 c 0,-0.765625 -0.109375,-1.96875 -0.65625,-3.109375 -0.59375,-1.21875 -1.453125,-1.875 -1.546875,-1.875 -0.0625,0 -0.109375,0.046875 -0.109375,0.109375 0,0.03125 0,0.046875 0.1875,0.234375 0.984375,0.984375 1.546875,2.5625 1.546875,4.640625 0,1.71875 -0.359375,3.46875 -1.59375,4.71875 C 0.5625,2.34375 0.5625,2.359375 0.5625,2.390625 0.5625,2.453125 0.609375,2.5 0.671875,2.5 0.765625,2.5 1.671875,1.8125 2.25,0.546875 2.765625,-0.546875 2.875,-1.65625 2.875,-2.5 Z m 0,0"
               id="path158"
               style="fill:#c64600" />
          </g>
        </g>
      </g>
      <g
         clip-path="url(#clipPath7130)"
         id="g106"
         transform="matrix(0.352778,0,0,0.352778,-0.104731,0.00436558)"
         style="fill:#c64600">
        <g
           fill="#000000"
           fill-opacity="1"
           id="g104"
           style="fill:#c64600">
          <g
             id="use102"
             transform="translate(48.452999,7.4720001)"
             style="fill:#c64600">
            <path
               d="m 2.03125,-0.015625 c 0,-0.65625 -0.25,-1.046875 -0.640625,-1.046875 -0.328125,0 -0.53125,0.25 -0.53125,0.53125 C 0.859375,-0.265625 1.0625,0 1.390625,0 1.5,0 1.640625,-0.046875 1.734375,-0.125 1.765625,-0.15625 1.78125,-0.15625 1.78125,-0.15625 c 0.015625,0 0.015625,0 0.015625,0.140625 0,0.75 -0.34375,1.34375 -0.671875,1.671875 -0.109375,0.109375 -0.109375,0.125 -0.109375,0.15625 0,0.078125 0.046875,0.109375 0.09375,0.109375 0.109375,0 0.921875,-0.765625 0.921875,-1.9375 z m 0,0"
               id="path162"
               style="fill:#c64600" />
          </g>
        </g>
      </g>
      <g
         fill="#000000"
         fill-opacity="1"
         id="g110"
         transform="matrix(0.352778,0,0,0.352778,-0.104731,0.00436558)"
         style="fill:#c64600">
        <g
           id="use108"
           transform="translate(52.881001,7.4720001)"
           style="fill:#c64600">
          <path
             d="m 1.90625,-2.5 c 0,-0.28125 -0.234375,-0.515625 -0.515625,-0.515625 -0.296875,0 -0.53125,0.234375 -0.53125,0.515625 0,0.296875 0.234375,0.53125 0.53125,0.53125 0.28125,0 0.515625,-0.234375 0.515625,-0.53125 z m 0,0"
             id="path166"
             style="fill:#c64600" />
        </g>
      </g>
      <g
         clip-path="url(#clipPath4742)"
         id="g116"
         transform="matrix(0.352778,0,0,0.352778,-0.104731,0.00436558)"
         style="fill:#c64600">
        <g
           fill="#000000"
           fill-opacity="1"
           id="g114"
           style="fill:#c64600">
          <g
             id="use112"
             transform="translate(55.648998,7.4720001)"
             style="fill:#c64600">
            <path
               d="m 2.875,-2.5 c 0,-0.765625 -0.109375,-1.96875 -0.65625,-3.109375 -0.59375,-1.21875 -1.453125,-1.875 -1.546875,-1.875 -0.0625,0 -0.109375,0.046875 -0.109375,0.109375 0,0.03125 0,0.046875 0.1875,0.234375 0.984375,0.984375 1.546875,2.5625 1.546875,4.640625 0,1.71875 -0.359375,3.46875 -1.59375,4.71875 C 0.5625,2.34375 0.5625,2.359375 0.5625,2.390625 0.5625,2.453125 0.609375,2.5 0.671875,2.5 0.765625,2.5 1.671875,1.8125 2.25,0.546875 2.765625,-0.546875 2.875,-1.65625 2.875,-2.5 Z m 0,0"
               id="path170"
               style="fill:#c64600" />
          </g>
        </g>
      </g>
    </g>
    <path
       style="fill:#aba8af;stroke:none;stroke-width:0.264999;stroke-opacity:1"
       id="path3940"
       d="m 159.57399,87.873929 c -0.36953,1.175927 -0.34777,2.411717 -0.23105,3.625813 0.0617,0.641556 0.24107,1.772481 0.4692,2.414418 0.11062,0.311274 0.28481,0.596156 0.42721,0.894236 0.35453,0.278408 0.65464,0.645597 1.0636,0.835223 0.75919,0.352026 1.79499,0.295733 2.59602,0.241734 1.00413,-0.06769 2.00705,-0.245348 3.00197,-0.392133 0.18272,-0.02772 0.36555,-0.05473 0.54816,-0.08317 0.10536,-0.0164 0.21056,-0.03379 0.31573,-0.05138 0.0386,-0.0065 0.14257,0.0076 0.1156,-0.0208 -0.0296,-0.03117 -0.1203,0.04905 -0.1288,0.0069 -0.44285,-2.196495 0.35943,-2.567983 -0.36837,-2.214071 -0.006,0.02772 -0.0243,0.05519 -0.0191,0.08315 0.009,0.04645 0.0391,0.08606 0.0586,0.129085 0.0268,0.282091 0.0535,0.564179 0.0803,0.84627 -0.0314,-0.02856 -0.0718,0.0158 -0.0404,0.04437 v 0 c 0.11635,0.679588 -0.042,0.820926 0.37666,1.100022 0.8464,-0.0583 0.2818,0.01275 -0.062,-2.280796 -0.009,-0.05999 -0.12133,0.0026 -0.18188,0.0063 -0.34783,0.02101 -0.68974,0.0994 -1.03513,0.139309 -0.91635,0.136943 -1.83381,0.294283 -2.75658,0.38213 -0.28566,0.02719 -0.57276,0.03617 -0.85915,0.05412 -0.15983,0.01003 -0.32223,-2.64e-4 -0.47951,0.02981 -0.0703,0.01349 -0.12703,0.06591 -0.19054,0.09886 -0.0831,-0.140991 -0.19177,-0.26974 -0.2492,-0.422974 -0.20894,-0.557482 -0.33667,-1.447122 -0.40462,-2.001202 -0.12213,-0.995937 -0.17623,-1.998797 -0.1398,-3.001777 0.32773,-1.34833 -1.57909,-1.811803 -1.90682,-0.463476 z" />
    <path
       style="fill:#aba8af;stroke:none;stroke-width:0.264999;stroke-opacity:1"
       id="path3942"
       d="m 165.71199,92.278985 c 0.65411,0.414192 0.14561,0.104415 0.88943,0.51993 0.10528,0.05881 0.54987,0.190756 0.52684,0.451897 -0.005,0.05937 -0.0845,0.08862 -0.10536,0.144447 -0.0523,0.139835 -0.0739,0.289282 -0.11079,0.433925 -0.4012,1.068181 -0.1025,0.340593 -0.62332,1.433451 -0.10447,0.219208 -0.27212,0.420947 -0.30509,0.661527 -0.0805,0.587158 0.17515,0.849167 0.44732,1.2987 -0.007,0.04192 0.0528,0.05116 0.0593,0.0092 v 0 c 0.3848,-0.01561 0.84918,-2.3e-4 1.18079,-0.238882 0.2563,-0.184452 0.41812,-0.476909 0.58573,-0.744519 0.54321,-0.867294 0.57498,-1.202743 0.8793,-2.184371 0.0205,-0.398846 0.12139,-0.801666 0.0616,-1.196538 -0.23663,-1.562664 -1.41772,-2.143469 -2.80536,-2.355845 -1.24948,-0.481097 -1.92985,1.285936 -0.68037,1.767033 z" />
    <path
       style="fill:#aba8af;stroke:none;stroke-width:0.264999;stroke-opacity:1"
       id="path3944"
       d="m 159.82608,101.31351 c -0.14763,1.22039 -0.22702,2.45937 -0.20853,3.68941 0.01,0.6489 0.0554,1.57441 0.26967,2.21336 0.10077,0.30054 0.28018,0.5687 0.42027,0.85304 0.27612,0.23551 0.51289,0.52713 0.82836,0.70654 0.57665,0.32794 1.32333,0.39213 1.96592,0.40513 0.95056,0.0192 1.91365,-0.11093 2.85934,-0.19145 0.61449,-0.0451 0.60832,-0.0495 1.15491,-0.0746 0.12184,-0.006 0.34822,0.0585 0.38124,-0.14291 0.0508,-0.30988 0.0468,-0.62629 0.0702,-0.93943 0.0424,-7.9e-4 0.0411,-0.0609 -0.001,-0.06 v 0 c -0.007,-0.31248 0.0432,-0.6316 -0.0213,-0.93744 -0.0171,-0.0814 -0.12525,-0.12085 -0.20599,-0.14084 -0.11089,-0.0275 -0.22853,5.3e-4 -0.34267,0.005 -0.41672,0.0165 -0.81286,0.0513 -1.23066,0.083 -0.84326,0.0776 -1.69023,0.18442 -2.53728,0.2099 -0.2844,0.009 -0.569,-0.0327 -0.8533,-0.0214 -0.053,0.002 -0.10403,0.0205 -0.15604,0.0308 -0.0665,-0.0855 -0.15974,-0.15579 -0.19958,-0.25655 -0.19674,-0.49758 -0.23894,-1.23103 -0.26076,-1.72772 -0.0535,-1.21808 0.0588,-2.43037 0.0437,-3.64806 0.0394,-1.397417 -1.93689,-1.453088 -1.97625,-0.0557 z" />
    <path
       style="fill:#aba8af;stroke:none;stroke-width:0.264999;stroke-opacity:1"
       id="path3948"
       d="m 164.88804,106.12761 c 0.55923,0.73009 1.30504,1.27591 1.98356,1.88491 0.11232,0.10081 0.24278,0.18763 0.3278,0.31232 0.0447,0.0655 -0.13423,-0.0846 -0.20135,-0.1269 -0.0817,-0.0426 -0.16917,-0.18009 -0.24516,-0.12792 -0.20322,0.13953 -0.28747,0.40064 -0.43724,0.59645 -0.36007,0.47075 -1.08094,1.2007 -1.08573,1.85447 -0.002,0.20055 0.10784,0.38634 0.16176,0.5795 0.13562,0.0975 0.27124,0.19499 0.40686,0.29248 0.0109,0.041 0.0689,0.0256 0.058,-0.0154 v 0 c 0.11323,0.0133 0.22645,0.0265 0.33968,0.0398 0.11945,0.0268 0.23805,0.10307 0.35835,0.0804 0.32059,-0.0605 0.84767,-0.59596 0.99787,-0.76102 0.22259,-0.24463 0.42195,-0.50998 0.61674,-0.77728 0.86727,-1.1901 0.58836,-0.77082 0.9962,-2.3699 -0.1394,-0.29974 -0.23909,-0.62138 -0.41819,-0.89922 -0.10205,-0.15831 -0.27068,-0.26215 -0.41127,-0.38749 -0.56942,-0.50771 -1.1561,-1.00081 -1.76855,-1.45571 -0.90549,-1.18745 -2.5848,0.0931 -1.67931,1.28055 z" />
  </g>
</svg>
