<?xml version="1.0" encoding="UTF-8" standalone="no"?>
<!-- Created with Inkscape (http://www.inkscape.org/) -->

<svg
   width="502.98267"
   height="363.91827"
   viewBox="0 0 133.08083 96.28671"
   version="1.1"
   id="svg5"
   xmlns="http://www.w3.org/2000/svg"
   xmlns:svg="http://www.w3.org/2000/svg">
  <defs
     id="defs2" />
  <g
     id="layer1"
     transform="translate(-72.286201,-49.815662)">
    <path
       style="fill:#5e5c64;fill-opacity:1;stroke-width:0.293542"
       id="path6614"
       d="m 77.421277,56.024213 c 2.723598,-0.500584 5.525099,-0.589862 8.300843,-0.750612 3.649059,-0.248177 7.310242,-0.177827 10.965329,-0.09616 3.567221,0.14646 7.132701,0.224168 10.704161,0.19208 3.87115,0.03854 7.73609,-0.144841 11.60414,-0.225341 3.05837,0.04312 6.11367,-0.06317 9.17053,-0.105092 3.36976,0.0104 6.73301,0.227867 10.0895,0.454107 2.97911,0.192132 5.97025,0.178573 8.95639,0.222597 2.42611,-0.04932 4.84127,0.112741 7.25851,0.249155 2.93372,0.220432 5.86999,0.107598 8.79989,-0.07886 1.94642,-0.245279 4.09266,0.138665 5.89495,-0.670788 0.4451,-0.199903 0.77959,-0.531526 1.16938,-0.797292 0.052,-7.94e-4 0.0505,-0.06086 -0.001,-0.05999 v 0 c -0.41476,-0.252185 -0.77531,-0.578302 -1.24427,-0.756554 -1.19203,-0.453081 -2.0845,-0.345321 -3.34735,-0.313 -1.20565,0.03086 -1.52908,0.06273 -2.70908,0.138732 -2.78189,0.180541 -5.56738,0.299214 -8.35423,0.09173 -2.46966,-0.139293 -4.93721,-0.305787 -7.41595,-0.25467 -2.92238,-0.03661 -5.84916,-0.01786 -8.76663,-0.169516 -3.45725,-0.226721 -6.92128,-0.436557 -10.39244,-0.408781 -3.06301,0.06628 -6.12408,0.167476 -9.18922,0.131898 -3.85536,0.09905 -7.70561,0.325122 -11.5658,0.277397 -3.53679,0.05759 -7.06902,0.0838 -10.603431,-0.07608 -3.739314,-0.04905 -7.484969,-0.08971 -11.215926,0.164597 -2.943298,0.190696 -5.954294,0.255765 -8.789319,0.98891 -1.606444,0.39276 -0.924899,2.244283 0.681545,1.851522 z" />
    <path
       style="fill:#5e5c64;fill-opacity:1;stroke-width:0.300531"
       id="path6618"
       d="m 76.934487,84.445162 c 3.380163,-0.09334 6.758764,-0.124524 10.140156,-0.06865 4.230539,0.111532 8.44938,0.397187 12.674059,0.595384 2.898928,0.151738 5.805938,0.15825 8.706038,0.284652 2.16712,0.127994 4.33636,0.206629 6.50964,0.187221 1.3702,-0.01175 2.7365,-0.102126 4.08692,-0.281728 0.85124,-0.184092 0.57357,-0.448297 0.62091,-1.231323 0.0539,-0.007 0.0412,-0.06614 -0.0129,-0.05919 v 0 c -0.3334,-0.731187 -0.17286,-1.048081 -1.05473,-1.027017 -1.22225,0.120285 -2.44406,0.245983 -3.67956,0.241376 -2.1046,0.0236 -4.20622,-0.0536 -6.30515,-0.17364 -2.89995,-0.121105 -5.80668,-0.09326 -8.705765,-0.240581 -4.274883,-0.171516 -8.545458,-0.455496 -12.82756,-0.475874 -3.437392,0.03262 -6.875346,0.120552 -10.303907,0.321392 -1.75339,0.08335 -1.601796,2.011325 0.151597,1.927982 z" />
    <path
       style="fill:#5e5c64;fill-opacity:1;stroke-width:0.293542"
       id="path6624"
       d="m 127.73089,84.802143 c 3.99011,-0.43439 8.02298,-0.573699 12.04409,-0.668182 3.63785,-0.02318 7.28299,0.0398 10.90208,0.355611 2.60161,0.343903 5.22766,0.300887 7.84827,0.194405 1.80575,-0.07573 3.60693,-0.205372 5.41105,-0.30159 1.22926,-0.07721 2.46176,-0.02331 3.69268,-0.01916 0.24464,-0.01238 1.53776,0.05089 1.62414,-0.09319 0.11105,-0.185322 0.0859,-0.406548 0.12877,-0.609822 0.0256,-0.114343 0.0514,-0.228688 0.0771,-0.343033 0.0518,0.0043 0.0591,-0.05544 0.007,-0.0597 v 0 c -0.0221,-0.118271 -0.0443,-0.236545 -0.0665,-0.354816 -0.0671,-0.20501 -0.0769,-0.428644 -0.20142,-0.615024 -0.0918,-0.137547 -1.32977,-0.05623 -1.5702,-0.07142 -1.27985,0.0053 -2.56033,-0.05003 -3.83978,0.0063 -1.79917,0.0681 -3.59467,0.186756 -5.39429,0.248076 -2.48068,0.09429 -4.96797,0.15486 -7.42894,-0.190389 -3.74321,-0.322281 -7.50996,-0.325038 -11.27082,-0.293772 -4.1261,0.108357 -8.29886,0.227253 -12.34037,0.966565 -1.60433,0.217133 -1.22755,2.066213 0.37678,1.84908 z" />
    <path
       style="fill:#5e5c64;fill-opacity:1;stroke-width:0.293542"
       id="path6628"
       d="m 77.246895,116.11413 c 1.618555,-0.0804 3.23142,-0.21693 4.850058,-0.29782 1.662571,-0.1098 3.325295,-0.13174 4.989646,-0.0531 1.305822,0.0741 2.609342,0.17446 3.910829,0.28802 1.068598,0.11438 2.135767,0.22619 3.210061,0.29899 0.353813,-0.0291 1.436562,0.17387 1.740215,0.0412 0.392683,-0.17154 0.514849,-0.65058 0.642406,-0.93543 0.05166,0.005 0.06075,-0.0543 0.0091,-0.0596 v 0 c -0.09008,-0.29676 -0.150137,-0.79789 -0.518181,-1.00988 -0.266125,-0.15328 -1.334612,-0.0584 -1.663806,-0.13835 -1.054206,-0.0681 -2.100152,-0.18318 -3.149034,-0.29141 -1.342637,-0.11347 -2.686965,-0.2147 -4.034352,-0.28298 -1.768919,-0.0821 -3.53508,-0.0463 -5.301514,0.0701 -1.621341,0.0899 -3.237565,0.22705 -4.857332,0.3335 -1.767089,0.0991 -1.595169,2.13575 0.171917,2.03667 z" />
    <path
       style="fill:#5e5c64;fill-opacity:1;stroke-width:0.293542"
       id="path6630"
       d="m 101.51356,116.60006 c 1.81432,-0.38677 3.67275,-0.57681 5.53881,-0.68968 1.71356,-0.10513 3.43257,-0.0666 5.14897,-0.0557 1.37377,-0.0261 2.74052,0.0881 4.10937,0.15862 1.00218,0.0554 2.00505,0.10198 3.00954,0.11367 0.53376,0.0114 0.55632,-8e-4 0.71448,-0.40386 1.04655,0.0584 1.14797,-1.14777 0.10147,-1.20622 v 0 c -0.17589,-0.40514 -0.21074,-0.44177 -0.75518,-0.44546 -0.97097,-0.0273 -1.94169,-0.0597 -2.91054,-0.12046 -1.41713,-0.0727 -2.83232,-0.18786 -4.25449,-0.15825 -1.78616,-0.005 -3.57521,-0.034 -5.35757,0.0838 -2.01804,0.13323 -4.0146,0.36962 -5.95868,0.84881 -1.626609,0.35377 -1.012734,2.22853 0.61387,1.87476 z" />
    <path
       style="fill:#5e5c64;fill-opacity:1;stroke-width:0.293542"
       id="path6632"
       d="m 126.89519,116.30959 c 2.30216,-0.32282 4.63882,-0.38213 6.96875,-0.43198 1.86939,-0.0354 3.72111,0.20648 5.57787,0.34569 1.39718,0.085 2.79832,0.10593 4.19866,0.12504 1.05209,8e-4 2.09872,0.0942 3.14523,0.17023 0.36186,0.009 0.30176,-0.0522 0.41686,-0.38301 0.0663,-0.19038 0.12541,-0.38234 0.18811,-0.57351 0.0492,0.0138 0.0731,-0.0429 0.0239,-0.0567 v 0 c 0.001,-0.20838 0.0191,-0.41715 0.004,-0.62516 -0.0274,-0.37098 -0.0389,-0.41285 -0.4184,-0.45737 -1.1088,-0.0704 -2.22283,-0.0974 -3.33377,-0.13193 -1.34159,-0.004 -2.68315,-0.0261 -4.02212,-0.0994 -1.94856,-0.11083 -3.88607,-0.38188 -5.84525,-0.31946 -2.45686,0.0532 -4.94056,0.10269 -7.34746,0.54467 -1.64239,0.2557 -1.19868,2.14866 0.44371,1.89295 z" />
    <path
       style="fill:#5e5c64;fill-opacity:1;stroke-width:0.293542"
       id="path6634"
       d="m 153.31654,116.75202 c 2.12213,-0.1581 4.24223,-0.31993 6.37067,-0.40894 1.60065,-0.0859 3.18759,0.0542 4.76484,0.25584 0.62917,0.10667 1.26269,0.14173 1.90306,0.14495 0.49197,0.0194 0.9829,0.0525 1.47355,0.087 0.52896,0.0487 1.05401,-0.0336 1.57867,-0.0746 0.24749,-0.0275 0.14824,-0.0161 0.29165,-0.0147 1.03446,0.009 -0.19979,0.0646 -0.19112,-0.57488 0.002,-0.21239 0.40785,-0.26452 0.61178,-0.39678 -0.0251,0.0371 0.0394,0.0661 0.0644,0.029 v 0 c 0.24485,-0.19276 0.72531,-0.30092 0.73455,-0.57826 0.0248,-0.7451 -0.656,-0.67214 -1.12931,-0.6732 -0.22287,-0.0104 -0.44323,-0.005 -0.66458,0.0167 -0.34944,0.0321 -0.70078,0.0811 -1.05256,0.073 -0.57607,-0.0444 -1.15235,-0.0905 -1.7311,-0.10476 -0.49412,0.007 -0.97901,-0.0349 -1.46475,-0.11481 -1.76989,-0.23093 -3.55132,-0.36748 -5.34632,-0.25589 -2.19471,0.11759 -4.38418,0.31427 -6.56555,0.54094 -1.77811,0.20287 -1.42606,2.25225 0.35205,2.04938 z" />
    <path
       style="fill:#5e5c64;fill-opacity:1;stroke-width:0.293542"
       id="path6636"
       d="m 76.953728,56.056238 c 0.179043,-0.134548 0.376394,-0.254534 0.537133,-0.403645 0.568335,-0.527212 1.073706,-1.411002 1.005233,-2.122832 -0.02227,-0.23142 -0.127651,-0.452456 -0.191474,-0.678683 -0.19213,-0.213984 -0.330031,-0.468759 -0.576394,-0.64195 -0.903232,-0.634966 -2.037178,-0.506823 -2.879638,0.127878 -0.575034,0.433226 -0.641499,0.931781 -0.84249,1.505934 0.01819,0.32557 -0.0249,0.657302 0.05455,0.97671 0.231023,0.928574 1.063445,1.702178 2.223558,1.90087 0.926184,0.158625 1.20806,-0.05149 2.019306,-0.326343 0.223942,-0.157242 0.476448,-0.290949 0.671831,-0.471725 0.768742,-0.711269 0.959821,-1.805453 0.381436,-2.644484 -0.151871,-0.220316 -0.383553,-0.397142 -0.57533,-0.595715 -0.224835,-0.130445 -0.43288,-0.282641 -0.674503,-0.391335 -0.899607,-0.40469 -1.945814,-0.399507 -2.784535,0.134822 -0.716259,0.456316 -0.804511,0.908005 -1.102046,1.552744 -0.110051,0.793292 -0.446597,1.368401 0.794961,1.889212 0.427956,0.179517 0.962629,0.0011 1.443947,0.0016 0.04363,0.02312 0.08378,-0.02717 0.04014,-0.0503 v 0 c 0.05703,-0.224401 0.06871,-0.459769 0.171099,-0.673203 0.0289,-0.06026 0.134331,-0.069 0.201496,-0.103507 -0.0037,-0.12449 -0.0075,-0.248976 -0.01116,-0.373465 0.0075,-0.0389 0.139488,-0.298926 -0.0172,-0.360471 -0.117598,-0.04619 -0.388166,-0.02633 -0.357782,-0.129807 0.0072,-0.02471 0.274052,0.03418 0.281545,0.03566 0.0906,-0.06574 0.09349,-0.02898 0.191702,0.0013 0.149063,0.04605 0.09232,0.0469 0.04482,0.174148 0.0045,0.0081 0.249989,0.433054 -0.01695,0.318741 -0.11415,-0.04888 -0.244664,-0.289047 -0.295703,-0.369832 0.0047,-0.136054 0.02529,-0.329874 -0.02085,-0.340807 -0.111818,-0.02651 -0.234684,0.0266 -0.349175,0.0093 -0.318643,-0.04828 -0.452538,-0.227062 -0.446876,-0.47096 0.02588,-0.01479 0.04923,-0.05564 0.07767,-0.04437 0.118923,0.04712 0.0388,0.220552 -9.74e-4,0.323303 -0.112641,0.290192 -0.375126,0.528962 -0.402191,0.837734 -1.217801,0.809686 0.187218,2.213271 1.405017,1.403588 z" />
    <path
       style="fill:#5e5c64;fill-opacity:1;stroke-width:0.293542"
       id="path6638"
       d="m 76.039079,84.829755 c 0.384026,-0.114493 0.777741,-0.20242 1.096743,-0.429607 0.706742,-0.503322 0.968691,-1.228577 0.638767,-1.959821 -0.111696,-0.247553 -0.333067,-0.452319 -0.499602,-0.678477 -0.40896,-0.154249 -0.783108,-0.398917 -1.226884,-0.462745 -0.364381,-0.05241 -0.748042,0.0323 -1.098832,0.128232 -1.03722,0.283658 -1.752713,1.044935 -2.017299,1.884924 -0.08406,0.266869 -0.06492,0.5485 -0.09738,0.822748 0.08234,0.279215 0.08976,0.580679 0.247054,0.837642 0.747523,1.22115 2.569628,1.626357 3.96751,0.871037 0.308529,-0.166708 0.503713,-0.442206 0.755568,-0.663307 0.124863,-0.24927 0.300228,-0.485476 0.374595,-0.747806 0.301901,-1.064969 -0.354733,-2.21902 -1.528971,-2.741035 -0.276539,-0.122939 -0.594747,-0.169376 -0.892118,-0.254064 -0.355465,0.01474 -1.718305,-0.07401 -1.790649,0.538388 -0.06085,0.515027 0.513182,0.909137 0.921366,1.222107 0.03107,0.03404 0.09014,-0.0019 0.05908,-0.03581 v 0 c -0.127139,-0.406918 -0.08378,-0.169849 0.686895,0.451298 0.07479,0.143274 -0.504401,0.238283 -0.560185,0.09872 -0.0083,-0.02701 -0.04518,-0.05847 -0.02513,-0.08103 0.03811,-0.04287 0.275675,0.02082 0.319896,0.03864 0.056,0.02254 0.09545,0.07192 0.132232,0.109929 0.119806,0.0321 0.260311,0.02801 0.362519,0.08821 0.02448,0.01442 -0.02555,0.04549 -0.02919,0.06994 -0.0149,0.09968 0.101757,0.315772 -0.107278,0.284831 -0.03535,-0.112365 -0.0741,-0.203649 -0.07362,-0.32072 3.09e-4,-0.07652 0.05984,-0.15308 0.03789,-0.22748 -0.05093,-0.172575 -0.462172,-0.223116 -0.363859,-0.442275 0.03864,-0.128437 0.07741,-0.394759 0.281045,-0.441092 0.262537,-0.05974 -0.197775,0.349459 -0.25133,0.346763 -1.467916,0.392538 -0.786761,2.0844 0.681155,1.691862 z" />
    <path
       style="fill:#5e5c64;fill-opacity:1;stroke-width:0.293542"
       id="path6640"
       d="m 76.317847,116.61849 c 0.154427,-0.0269 0.315819,-0.0347 0.463281,-0.0808 1.043516,-0.32595 1.793992,-1.25177 1.466162,-2.18335 -0.09388,-0.26678 -0.346906,-0.47768 -0.52036,-0.71652 -0.287304,-0.14259 -0.541796,-0.34354 -0.861916,-0.42775 -1.185857,-0.31194 -2.653978,0.27431 -3.292214,1.10297 -0.191322,0.24841 -0.282802,0.53941 -0.424203,0.80911 0.0276,0.32933 -0.04535,0.67484 0.08276,0.98799 0.46104,1.1268 2.178428,1.65977 3.445332,1.11124 0.301468,-0.13053 0.514454,-0.36581 0.771679,-0.54872 0.142021,-0.25832 0.344837,-0.49975 0.426063,-0.77498 0.137814,-0.46694 0.06398,-1.13869 -0.2958,-1.54252 -0.219722,-0.24662 -0.490895,-0.52494 -0.85595,-0.59107 -0.499969,-0.0906 -1.107577,-0.0831 -1.523927,0.15995 -0.302822,0.17682 -0.176875,0.58984 -0.265312,0.88476 0.422205,0.71846 0.110149,0.48615 0.814961,0.79164 0.02614,0.0367 0.08981,0.007 0.06367,-0.0301 v 0 c 0.245597,-0.26969 0.08174,-0.21422 0.49729,-0.15471 0.0361,0.10737 0.238682,0.28896 0.108285,0.32211 -0.286746,0.0729 -0.618514,-0.0161 -0.888222,-0.12381 -0.112309,-0.0449 -0.3439,-0.30679 -0.16985,-0.42615 0.04367,-0.0299 0.12971,0.049 0.171219,-0.002 0.123507,-0.004 0.229585,-0.016 0.350325,0.0341 0.06049,0.0251 0.07353,0.30383 0.04897,0.37765 -0.02523,0.0758 -0.09408,0.13702 -0.141108,0.20553 -0.02882,-0.0203 -0.08973,-0.03 -0.08653,-0.0609 0.0098,-0.0952 0.310769,-0.33818 0.286129,-0.37766 -0.03058,-0.049 -0.108014,-0.0675 -0.150406,-0.11028 -0.05745,-0.0579 -0.09755,-0.12598 -0.146326,-0.18897 -0.0327,-0.24635 -0.09374,-0.26749 0.1048,-0.47586 0.154176,-0.16181 0.429289,-0.0888 -0.01399,0.10253 -1.671773,0.30842 -1.136579,2.23524 0.535192,1.92682 z" />
    <path
       style="fill:#5e5c64;fill-opacity:1;stroke-width:0.293542"
       id="path6642"
       d="m 102.25108,117.51647 c 0.35215,-0.17882 0.61494,-0.278 0.86693,-0.57722 0.54667,-0.64914 0.69634,-1.4092 0.33146,-2.15175 -0.11536,-0.23478 -0.31954,-0.43362 -0.47931,-0.65044 -0.2493,-0.15568 -0.4619,-0.36127 -0.7479,-0.46704 -0.93478,-0.34572 -2.02602,-0.12237 -2.669454,0.52391 -0.556975,0.55944 -0.495826,0.87691 -0.620702,1.56109 0.0862,0.6515 0.02834,0.97401 0.562833,1.54416 0.666333,0.71076 1.794243,1.01046 2.837813,0.72278 0.31431,-0.0866 0.56917,-0.27806 0.85376,-0.41709 0.19483,-0.19502 0.42418,-0.37018 0.58449,-0.58506 0.5101,-0.68376 0.54546,-1.53239 -0.002,-2.21572 -0.45764,-0.57175 -0.85238,-0.62295 -1.55704,-0.88232 -0.3315,-0.0171 -0.66608,-0.0917 -0.9945,-0.0512 -0.34214,0.0422 -0.69271,0.12908 -0.97345,0.29396 -0.609739,0.35809 -1.094511,0.96143 -0.837945,1.61375 0.113217,0.28786 0.354225,0.6022 0.704305,0.7021 0.35031,0.1 0.7258,-0.12695 1.0887,-0.19043 0.0495,0.0132 0.0723,-0.0439 0.0229,-0.057 v 0 c 0.0778,-0.13935 0.0838,-0.32543 0.23341,-0.41804 0.0778,-0.0481 0.39903,0.13058 0.25747,0.24588 -0.1457,0.11866 -0.37515,0.0679 -0.41637,-0.079 0.19816,-0.0778 0.0676,-0.13936 0.16936,-0.28882 0.0174,-0.0255 0.0663,-0.0629 0.0931,-0.0436 0.0538,0.0388 -0.0515,0.13347 0.0245,0.17453 0.0688,0.0241 0.20272,0.0669 0.248,0.10731 0.0367,0.0327 0.045,0.19691 0.0304,0.21962 -0.0166,0.0256 -0.0824,0.0516 -0.10137,0.0272 -0.0581,-0.0748 -0.0518,-0.17196 -0.0777,-0.25794 -0.0213,-0.0534 -0.0245,-0.114 -0.0638,-0.16008 -0.0345,-0.0405 -0.24413,-0.017 -0.25458,-0.0178 -0.25045,-0.0186 -0.51597,-0.0691 -0.55911,-0.30322 0.0235,-0.0144 0.0412,-0.0462 0.0704,-0.0434 0.0366,0.004 0.0561,0.0389 0.0841,0.0584 0.0271,0.007 0.0531,0.018 0.0813,0.0201 0.0338,0.003 0.0915,-0.0327 0.10166,-0.006 0.0343,0.0893 -0.2416,0.15944 -0.20909,0.22313 -1.583885,0.759 -0.26682,2.58452 1.31706,1.82552 z" />
    <path
       style="fill:#5e5c64;fill-opacity:1;stroke-width:0.293542"
       id="path6646"
       d="m 126.20831,83.575471 c -0.27144,0.630198 -0.56895,0.949994 -0.1,1.655604 0.55096,0.829064 1.90045,1.134507 2.88401,0.641344 0.31522,-0.158054 0.51736,-0.431437 0.77604,-0.647154 0.10234,-0.234199 0.26548,-0.456304 0.30703,-0.702591 0.15184,-0.900075 -0.39478,-1.941346 -1.28577,-2.487594 -0.22644,-0.138821 -0.49492,-0.224972 -0.74237,-0.33746 -0.33516,-0.02814 -0.67218,-0.12455 -1.00549,-0.08443 -1.1804,0.142097 -1.82142,0.967489 -2.04084,1.846842 -0.15774,0.632129 -0.0649,0.797102 0.0448,1.408769 0.1554,0.241657 0.2343,0.528208 0.46622,0.724971 0.60801,0.51585 1.23973,0.672706 2.08382,0.57205 0.28789,-0.03433 0.60756,-0.09332 0.81111,-0.262747 0.56898,-0.473638 0.19464,-0.941091 0.0158,-1.436073 0.0335,-0.03246 -0.0228,-0.0711 -0.0563,-0.03864 v 0 c -0.24455,-0.112747 -0.50298,-0.207489 -0.73364,-0.338235 -0.78645,-0.445807 -0.027,-0.265912 0.24331,0.162017 0.0325,0.05142 -0.004,0.115639 -0.005,0.173461 -0.0917,-0.191191 -0.0914,-0.154781 -0.11448,-0.38976 -0.006,-0.06195 0.0613,-0.151501 -10e-4,-0.186444 -0.0705,-0.03911 -0.16442,0.04058 -0.24936,0.04734 -0.35721,0.0284 -0.28926,0.01646 -0.57424,-0.115919 -0.0129,-0.07813 -0.0504,-0.138851 0.11019,-0.03321 0.26636,0.175165 0.0934,0.340942 0.45659,0.198033 0.26039,-0.09156 0.35192,-0.171955 0.64173,-0.09452 0.49115,0.131236 0.64195,0.552521 0.4758,0.922477 -0.0185,0.04113 -0.0887,0.04945 -0.1331,0.07417 1.1039,-1.310593 -1.17033,-2.582897 -2.27421,-1.272305 z" />
    <path
       style="fill:#5e5c64;fill-opacity:1;stroke-width:0.293542"
       id="path6648"
       d="m 127.15071,115.67012 c 0.48951,-0.50068 0.83543,-1.16326 0.52135,-1.8075 -0.10098,-0.20714 -0.24092,-0.4162 -0.45174,-0.55819 -0.24482,-0.16488 -0.57582,-0.21851 -0.86374,-0.32777 -0.29573,0.0305 -0.60854,0.005 -0.8872,0.0916 -0.89403,0.27686 -1.27149,1.04062 -1.21809,1.76778 0.0401,0.54638 0.22278,0.71494 0.52038,1.18804 0.18091,0.15641 0.33527,0.3365 0.54274,0.46922 0.87387,0.55906 2.19194,0.6312 3.0438,-0.0127 0.22477,-0.16989 0.36402,-0.40206 0.54604,-0.60309 0.0817,-0.21848 0.19525,-0.43069 0.24508,-0.65545 0.1892,-0.85329 -0.14497,-1.90837 -1.08604,-2.40272 -0.28438,-0.14939 -0.63061,-0.19999 -0.94591,-0.29999 -0.37235,0.0349 -0.76125,0.009 -1.11706,0.10483 -1.29861,0.35042 -2.37208,1.77372 -1.94345,2.8765 0.13991,0.35995 0.49274,0.63953 0.7391,0.9593 1.88366,-0.22301 1.07284,-0.1418 2.42907,-0.26523 0.0515,0.006 0.0622,-0.0532 0.011,-0.0594 v 0 c -0.88517,-0.34997 -0.67657,-0.0635 -0.41275,-0.94109 -0.0337,0.0218 -0.0583,0.0674 -0.10123,0.0654 -0.1547,-0.007 -0.16314,-0.17328 -0.14426,-0.24974 0.06,-0.2427 0.26833,-0.24329 -0.0844,-0.38212 -0.0405,-0.0459 -0.0967,-0.085 -0.12136,-0.1378 -0.001,-0.003 -0.004,-0.19284 0.0982,-0.0758 0.10356,0.11924 0.0315,0.26795 0.13342,0.38214 0.12147,-0.04 0.18595,-0.075 0.3225,-0.0654 0.0366,0.003 0.32664,0.0721 0.22164,0.1615 -0.0147,0.0126 -0.0422,0.006 -0.0633,0.008 -0.052,-0.0208 -0.0901,-0.0653 -0.14626,-0.0766 -0.11829,-0.0239 -0.18814,0.12839 -0.29534,0.17561 -0.29142,0.12836 -0.40405,0.0698 -0.72693,0.0355 -0.34391,-0.22194 -0.47514,-0.20537 -0.52121,-0.55939 -0.009,-0.0679 0.0187,-0.13741 0.0492,-0.20105 0.0136,-0.0282 0.0455,-0.0789 0.0784,-0.0648 0.0876,0.0377 -0.21831,0.23632 -0.12463,0.21986 -1.07593,1.01043 0.67744,2.25052 1.75339,1.24009 z" />
    <path
       style="fill:#5e5c64;fill-opacity:1;stroke-width:0.293542"
       id="path6650"
       d="m 152.76897,117.15179 c 0.30161,-0.13063 0.9168,-0.38469 1.13487,-0.54827 0.625,-0.46887 0.89759,-1.20663 0.78687,-1.88073 -0.0379,-0.23105 -0.17043,-0.44504 -0.25565,-0.66756 -0.49451,-0.52616 -0.57852,-0.80242 -1.52958,-0.90959 -0.87033,-0.0981 -1.83246,0.36864 -2.31901,0.92924 -0.16781,0.19334 -0.26636,0.42097 -0.39954,0.63146 -0.0351,0.25256 -0.12393,0.50396 -0.1054,0.75769 0.0583,0.79539 0.83162,1.80866 1.73203,2.15337 0.28658,0.10971 0.60735,0.14613 0.91101,0.21919 0.47472,-0.15008 1.01418,-0.20414 1.42414,-0.45026 0.29845,-0.17917 0.456,-0.48497 0.59835,-0.7639 0.37153,-0.72798 0.17679,-1.75824 -0.67731,-2.22606 -0.31808,-0.17422 -0.72866,-0.19377 -1.09299,-0.29066 -0.69399,0.21559 -1.98962,0.33987 -1.59252,1.40119 0.24103,0.64419 1.18681,0.58456 1.75415,0.60949 0.046,0.0199 0.0805,-0.0331 0.0345,-0.053 v 0 c -0.0167,-0.0999 -0.15677,-0.24875 -0.0501,-0.29985 0.18634,-0.0892 0.55005,-0.14352 0.64815,0.0134 0.35157,0.56243 -0.90437,0.54054 -1.00824,0.551 -0.36755,-0.19274 -0.56237,-0.18122 -0.60371,-0.54348 -0.006,-0.0549 0.0243,-0.11622 0.0734,-0.15428 0.0213,-0.0166 0.044,0.0388 0.0734,0.0402 0.30335,0.0144 0.57154,-0.39875 0.90994,-0.0445 0.0474,0.0352 0.13991,0.0535 0.1422,0.10575 10e-4,0.0408 -0.0963,-0.0247 -0.13956,-0.0452 -0.17251,-0.0819 -0.26692,-0.30412 -0.4595,-0.13938 -0.25971,-0.0192 0.0654,-0.10168 -0.0696,-0.16743 -0.22317,-0.10871 -0.66131,-0.0992 -0.50337,-0.45597 0.01,-0.003 0.18831,-0.0697 0.21525,-0.0282 0.072,0.1108 -0.10638,0.33007 -0.1332,0.39264 -0.16961,0.39635 0.0413,0.19606 -0.32444,0.43753 -1.23743,0.47568 -0.41199,1.90189 0.82543,1.42621 z" />
    <path
       style="fill:#5e5c64;fill-opacity:1;stroke-width:0.293542"
       id="path6652"
       d="m 170.42479,49.990864 c -0.25725,0.153532 -0.54111,0.281167 -0.77174,0.4606 -0.67935,0.528534 -1.52883,1.645615 -1.71182,2.389616 -0.3007,1.222491 -0.0891,1.661787 0.13256,2.866551 0.46525,0.985981 0.64726,1.650468 1.5063,2.455275 0.29353,0.274998 0.60749,0.594659 1.0383,0.69255 0.0775,0.01762 1.57083,-0.185973 1.95083,-0.236821 0.0486,0.01529 0.0751,-0.04067 0.0265,-0.05597 v 0 c -0.66984,-0.998416 0.31148,0.620167 -0.14048,-1.190532 -0.0512,-0.205217 -0.29002,-0.345779 -0.43459,-0.518912 -0.78327,-0.938059 -0.43641,-0.439642 -1.04048,-1.544368 -0.12049,-0.501009 -0.33486,-1.149323 -0.27095,-1.682022 0.0439,-0.366236 0.31673,-0.832517 0.53097,-1.146757 0.10651,-0.156226 0.25252,-0.293365 0.35547,-0.451173 0.0525,-0.0804 0.0718,-0.17246 0.10761,-0.258693 1.54382,-0.736799 0.26528,-2.516148 -1.27854,-1.779347 z" />
    <path
       style="fill:#5e5c64;fill-opacity:1;stroke-width:0.293542"
       id="path6654"
       d="m 119.2623,80.437669 c -0.1505,0.127688 -0.31678,0.244149 -0.45147,0.383061 -0.63913,0.659148 -1.45955,1.920486 -1.48061,2.766081 -0.01,0.38858 0.10503,0.772594 0.15754,1.158888 0.4895,1.040091 0.4255,1.03827 1.1286,1.996816 0.21144,0.288264 0.41567,0.584028 0.68175,0.840478 0.23327,0.224838 0.46683,0.487164 0.80446,0.591968 0.10871,0.03374 1.37675,0.0055 1.71196,-5.29e-4 0.0429,0.02392 0.0845,-0.02561 0.0415,-0.04955 v 0 c -0.11939,-0.636008 -0.0991,-0.248033 0.12061,-1.160832 -0.0299,-0.229034 -0.23278,-0.420659 -0.37456,-0.619906 -0.17008,-0.239001 -0.3828,-0.456382 -0.55921,-0.692311 -0.4893,-0.654349 -0.48874,-0.701109 -0.8517,-1.353138 -0.0735,-0.119628 -0.19111,-0.227258 -0.22039,-0.358886 -0.0319,-0.143295 0.01,-0.292417 0.0437,-0.435443 0.13745,-0.584145 0.51602,-1.090319 0.86468,-1.602534 1.27028,-0.931733 -0.34653,-2.395807 -1.61681,-1.464077 z" />
    <path
       style="fill:#5e5c64;fill-opacity:1;stroke-width:0.293542"
       id="path6656"
       d="m 168.84425,80.933723 c -1.01619,0.782434 -1.81757,1.768909 -1.81819,2.951271 -1.8e-4,0.307758 0.0882,0.611309 0.13226,0.916964 0.37809,1.013304 0.96922,1.992085 1.84473,2.787266 0.47558,0.431948 1.18102,0.938289 1.92445,1.052073 0.32121,0.04917 0.65116,-0.04647 0.97674,-0.0697 0.20398,-0.141687 0.40796,-0.283374 0.61194,-0.425061 0.052,-0.0024 0.0479,-0.06226 -0.004,-0.05991 v 0 c -0.0427,-0.130548 -0.0853,-0.261096 -0.12789,-0.391644 -0.0508,-0.160108 -0.0672,-0.330195 -0.15235,-0.480322 -0.16462,-0.290433 -0.72205,-0.800005 -0.93925,-1.023594 -0.50584,-0.520724 -0.67174,-0.677442 -1.05993,-1.252122 -0.10933,-0.161803 -0.19468,-0.333592 -0.29202,-0.500391 -0.0401,-0.122645 -0.0963,-0.24253 -0.12037,-0.367937 -0.12673,-0.660265 0.35327,-1.227672 0.80578,-1.73342 1.21771,-1.026819 -0.5641,-2.430291 -1.7818,-1.403472 z" />
    <path
       style="fill:#5e5c64;fill-opacity:1;stroke-width:0.293542"
       id="path6658"
       d="m 169.79394,112.62073 c -0.86705,0.89492 -1.5731,1.89336 -1.79123,3.0384 -0.0618,0.32472 -0.049,0.65601 -0.0734,0.98401 0.0957,0.35683 0.12838,0.7289 0.28703,1.0705 0.27429,0.59054 0.87489,1.26819 1.48037,1.66891 0.30069,0.19901 0.62258,0.40911 0.99891,0.48394 0.80758,0.16056 1.32902,-0.12612 2.00528,-0.37107 0.0503,0.0111 0.0694,-0.0468 0.0193,-0.0579 v 0 c -0.0721,-0.18369 -0.14955,-0.36604 -0.21633,-0.55107 -0.0866,-0.23996 -0.10049,-0.50239 -0.24371,-0.72363 -0.11411,-0.1763 -0.33097,-0.2938 -0.50536,-0.43358 -0.39646,-0.31779 -0.81869,-0.56703 -0.98518,-1.02529 -0.009,-0.17875 -0.0423,-0.35798 -0.0244,-0.53627 0.0844,-0.84339 0.61837,-1.57626 1.07406,-2.3134 1.07026,-1.16709 -0.95494,-2.40062 -2.0252,-1.23354 z" />
    <path
       style="fill:#5e5c64;fill-opacity:1;stroke-width:0.293542"
       id="path6660"
       d="m 146.71909,112.23762 c -0.15961,0.19665 -0.33876,0.38365 -0.47882,0.58995 -0.15786,0.23253 -0.28467,0.47842 -0.41246,0.72291 -0.39891,0.76314 -0.74792,1.5717 -0.7741,2.41111 -0.009,0.27689 0.0482,0.55257 0.0724,0.82886 0.25659,0.86119 0.83106,1.54689 1.59534,2.16128 0.29694,0.23871 0.94016,0.69185 1.35016,0.82965 0.20157,0.0678 0.42929,0.0625 0.64393,0.0937 0.84303,-0.54369 0.46973,-0.36215 1.06021,-0.61894 0.0503,0.0107 0.069,-0.0474 0.0185,-0.0581 v 0 c -0.21965,-0.44141 -0.12659,-0.14399 0.0248,-0.92061 -0.0736,-0.10103 -0.12378,-0.21621 -0.22085,-0.30308 -0.11448,-0.10243 -0.27037,-0.16804 -0.40273,-0.25498 -0.52359,-0.34393 -1.0296,-0.71596 -1.36355,-1.19917 -0.0355,-0.11994 -0.0949,-0.23681 -0.10638,-0.35982 -0.10025,-1.06806 0.67787,-2.00655 0.95834,-3.01207 0.79017,-1.13229 -1.17465,-2.04303 -1.96484,-0.91073 z" />
    <path
       style="fill:#5e5c64;fill-opacity:1;stroke-width:0.293542"
       id="path6662"
       d="m 120.30898,111.71148 c -0.83523,0.73554 -1.79717,1.7258 -2.14109,2.70106 -0.085,0.24113 -0.10638,0.49422 -0.15962,0.74134 0.0266,0.27768 0.0161,0.55941 0.0798,0.83306 0.17418,0.74805 0.67418,1.47431 1.22241,2.08059 0.16958,0.18752 0.33746,0.38125 0.55359,0.53369 0.17717,0.12497 0.40594,0.19084 0.60892,0.28626 1.03832,-0.20129 0.61106,-0.17072 1.2654,-0.19009 0.0418,0.0252 0.0856,-0.0231 0.0437,-0.0483 v 0 c -0.0209,-0.46016 -0.0501,-0.15304 0.39224,-0.86705 -0.0485,-0.16162 -0.0645,-0.33208 -0.14541,-0.48486 -0.0912,-0.17223 -0.24018,-0.32001 -0.36402,-0.47809 -0.34266,-0.4374 -0.72837,-0.86417 -0.8846,-1.3769 9.7e-4,-0.0987 -0.0125,-0.19829 0.002,-0.29626 0.11693,-0.74743 0.79381,-1.33571 1.30152,-1.92873 1.30642,-1.02329 -0.46926,-2.52902 -1.77567,-1.50573 z" />
    <path
       style="fill:#5e5c64;fill-opacity:1;stroke-width:0.293542"
       id="path6670"
       d="m 96.229834,112.03815 c -0.825394,0.72095 -1.585208,1.71538 -1.782591,2.69918 -0.06714,0.33466 -0.03012,0.67775 -0.04518,1.01663 0.129956,1.08463 0.484661,2.15057 1.191122,3.08634 0.185034,0.24509 0.335697,0.54958 0.648999,0.6823 0.155952,0.0661 1.437426,0.0874 1.792932,0.096 0.04177,0.0253 0.08571,-0.0228 0.04394,-0.0481 v 0 c -0.101193,-0.66738 -0.110101,-0.27859 0.205855,-1.15447 -0.0127,-0.2033 -0.233045,-0.36012 -0.348435,-0.54066 -0.44611,-0.69799 -0.796854,-1.29504 -0.914623,-2.09251 -5.6e-5,-0.002 -0.03455,-1.10162 -0.02075,-1.16531 0.03691,-0.1702 0.142605,-0.32563 0.221436,-0.48608 0.177391,-0.36105 0.394614,-0.7094 0.548611,-1.07822 0.880727,-0.88824 -0.660601,-1.90333 -1.541328,-1.0151 z" />
    <path
       style="fill:#813d9c;fill-opacity:1;stroke-width:0.264999"
       id="path6676"
       d="m 117.53655,61.827756 c 0.0601,0.15784 0.10288,0.323414 0.18029,0.47352 0.46179,0.895387 1.30162,1.513855 2.30476,1.660284 0.26117,0.03812 0.52778,0.01008 0.79167,0.01511 0.26353,-0.06885 0.54028,-0.09916 0.79059,-0.206553 0.8471,-0.363447 1.37799,-1.097576 1.43657,-2.024901 0.0497,-0.787532 -0.19538,-1.132081 -0.49317,-1.827623 -0.21832,-0.267313 -0.40418,-0.564811 -0.65495,-0.801946 -0.75729,-0.716108 -1.75218,-1.089285 -2.79305,-0.865563 -0.86245,0.185375 -1.0366,0.481996 -1.66256,1.03696 -0.30416,0.630708 -1.00552,1.640168 -0.34371,2.405017 0.38499,0.444939 1.11253,0.392107 1.63992,0.652965 0.3337,0.165055 0.6201,0.412163 0.93015,0.618244 0.0347,0.02447 0.0693,-0.02453 0.0346,-0.04901 v 0 c -0.29058,-0.218078 -0.72568,-0.321575 -0.87173,-0.654233 -0.13135,-0.299191 0.17544,-0.640744 0.15992,-0.967126 -0.006,-0.124444 -0.18645,-0.182052 -0.22025,-0.301964 -0.0313,-0.110902 0.0255,-0.229036 0.0383,-0.343556 0.0731,-0.102452 0.13179,-0.216892 0.21929,-0.307356 0.11743,-0.121412 0.42215,-0.336746 0.60953,-0.34948 0.52212,-0.03548 0.93018,0.371449 1.25508,0.713285 0.28564,0.502108 0.20172,0.293386 0.36215,0.776713 0.0227,0.0685 0.0623,0.13448 0.0648,0.206614 0.0103,0.296111 -0.31121,0.421208 -0.53015,0.507621 -0.85059,0.07721 -1.28769,-0.02718 -1.71104,-0.807746 -0.31163,-1.086813 -1.84862,-0.646097 -1.53698,0.440716 z" />
    <path
       style="fill:#813d9c;fill-opacity:1;stroke-width:0.264999"
       id="path6678"
       d="m 123.83664,62.534384 c -0.16681,0.413269 -0.65383,1.335402 -0.64979,1.721014 0.004,0.38435 0.17304,0.749012 0.25957,1.123519 -0.0245,0.03463 0.0245,0.06929 0.049,0.03467 v 0 c 0.42626,-0.105442 0.90229,-0.09036 1.27879,-0.316323 0.40467,-0.242869 0.78259,-1.178134 0.92368,-1.604791 0.0674,-0.203948 0.0973,-0.418462 0.14593,-0.627692 0.23363,-1.41927 -1.77353,-1.749665 -2.00715,-0.330393 z" />
    <path
       style="fill:#813d9c;fill-opacity:1;stroke-width:0.264999"
       id="path6782"
       d="m 88.124772,93.421736 c 0.14355,0.08937 0.274177,0.203991 0.430649,0.268097 0.939552,0.384934 2.186549,0.05819 2.696245,-0.875226 0.202112,-0.370131 0.228449,-0.811911 0.342675,-1.217864 -0.06204,-0.415448 -0.05915,-0.845936 -0.186105,-1.246346 -0.491183,-1.549122 -2.251578,-3.033337 -3.930298,-2.037072 -0.436063,0.258792 -0.662409,0.767929 -0.993611,1.151893 -0.105855,0.446545 -0.308097,0.880813 -0.317567,1.339635 -0.0218,1.056905 0.310838,1.658319 1.24722,2.163863 0.338016,0.182491 0.74839,0.173636 1.122585,0.260454 0.03198,0.02788 0.07141,-0.01736 0.03943,-0.04523 v 0 c -0.06335,-0.294624 -0.126701,-0.589251 -0.19005,-0.883878 -0.02522,-0.221091 -0.02979,-0.445524 -0.07562,-0.663276 -0.03626,-0.172276 -0.14087,-0.326546 -0.169289,-0.500287 -0.02921,-0.178576 -7.93e-4,-0.361895 -0.0013,-0.542843 0.01754,-0.09078 0.101473,-0.694418 0.234757,-0.773028 0.114589,-0.06758 0.275844,-0.02992 0.398524,0.02154 0.574624,0.241056 0.797009,0.872678 0.927623,1.421593 0.02795,0.160073 0.115973,0.420283 0.02442,0.594865 -0.164099,0.312923 -0.787466,0.301451 -1.080317,0.402127 -0.820931,-0.367646 -1.340861,0.793327 -0.51993,1.160973 z" />
    <path
       style="fill:#834763;fill-opacity:1;stroke-width:0.264999"
       id="path6784"
       d="m 92.091384,92.611643 c -0.287168,0.509447 -0.498101,0.730101 -0.45005,1.382429 0.02447,0.332383 0.174291,0.643374 0.261437,0.96506 -0.02257,0.03592 0.02823,0.06785 0.0508,0.03192 v 0 c 0.333528,-0.0704 0.685681,-0.08069 1.000588,-0.21119 0.554982,-0.229992 0.678817,-0.527555 0.984403,-0.970971 0.846585,-1.306152 -1.000596,-2.503405 -1.847181,-1.197252 z" />
    <path
       style="fill:#813d9c;fill-opacity:1;stroke-width:0.264999"
       id="path6786"
       d="m 98.732828,93.932424 c 0.175546,-0.108349 0.365091,-0.196763 0.526643,-0.325051 0.986699,-0.783532 1.525169,-1.961991 1.307929,-3.232489 -0.0592,-0.346487 -0.22506,-0.666035 -0.33759,-0.999056 -0.254964,-0.291168 -0.45849,-0.637069 -0.764893,-0.873508 -1.178041,-0.909045 -3.136461,-0.876703 -4.161988,0.267843 -0.282287,0.315047 -0.41324,0.738237 -0.619861,1.107355 -0.04415,0.437488 -0.179676,0.875294 -0.13245,1.31246 0.10106,0.935535 0.570275,1.878552 1.299533,2.485353 0.326691,0.271833 0.716661,0.519822 1.138091,0.574739 0.399466,0.05205 0.784855,-0.18202 1.177283,-0.273029 0.0392,0.01624 0.06216,-0.0392 0.02296,-0.05544 v 0 c -0.101578,-0.295579 -0.162216,-0.608578 -0.304733,-0.886743 -0.114838,-0.224131 -0.304324,-0.401346 -0.457613,-0.60116 -0.418407,-0.545393 -0.786659,-0.93473 -0.780196,-1.661149 0.02905,-0.220805 0.01691,-0.473009 0.209048,-0.639487 0.301069,-0.260853 0.809455,-0.284247 1.168127,-0.158674 0.105773,0.03703 0.195874,0.108951 0.293812,0.163426 0.06682,0.117229 0.15566,0.224403 0.200469,0.351684 0.07959,0.226092 0.09989,0.588428 0.0241,0.820668 -0.140737,0.431261 -0.490466,0.746464 -0.735224,1.11373 -1.066689,0.655174 -0.140134,2.163699 0.926557,1.508524 z" />
    <path
       style="fill:#813d9c;fill-opacity:1;stroke-width:0.264999"
       id="path6790"
       d="m 143.53071,93.185492 c 0.32321,-0.09174 0.68233,-0.17394 0.9687,-0.358074 0.67051,-0.431144 1.13271,-1.170059 1.17728,-1.974006 0.0177,-0.319019 -0.0816,-0.633783 -0.12244,-0.950675 -0.13375,-0.297799 -0.22916,-0.615979 -0.40123,-0.893402 -0.53847,-0.868133 -1.4338,-1.516722 -2.47346,-1.593369 -0.96705,-0.07129 -1.21891,0.188807 -2.06734,0.593019 -0.63733,0.692377 -1.04926,0.938982 -1.20748,1.940393 -0.0693,0.438568 -0.053,0.89966 0.0523,1.331002 0.2461,1.008018 0.76641,1.629059 1.75867,1.999724 0.37861,0.141433 0.80579,0.06409 1.20869,0.09613 0.30242,-0.09159 0.60484,-0.183182 0.90725,-0.274772 0.0419,0.007 0.0517,-0.05221 0.01,-0.05918 v 0 c -0.18093,-0.172141 -0.36186,-0.344281 -0.54279,-0.516422 -0.15985,-0.215675 -0.31266,-0.43675 -0.47956,-0.64702 -0.291,-0.366636 -0.78719,-0.749128 -0.84518,-1.255154 -0.0389,-0.339386 0.10401,-0.498229 0.25534,-0.774351 0.0889,-0.09833 0.15836,-0.218535 0.26662,-0.295002 0.10439,-0.07373 0.2308,-0.115165 0.35526,-0.144235 0.72658,-0.169709 1.06725,0.238339 1.3857,0.819917 0.0307,0.09948 0.18365,0.550532 0.17981,0.686967 -0.007,0.262718 -0.26094,0.661448 -0.45419,0.8309 -0.0575,0.05037 -0.13486,0.07184 -0.2023,0.107754 -0.94035,0.19126 -0.66987,1.521119 0.27048,1.32986 z" />
    <path
       style="fill:#813d9c;fill-opacity:1;stroke-width:0.264999"
       id="path6792"
       d="m 147.01057,92.051355 c -0.24323,0.442669 -0.65583,0.908037 -0.6076,1.457846 0.0333,0.379487 0.22124,0.729062 0.33186,1.093592 -0.0225,0.03593 0.0283,0.06783 0.0508,0.0319 v 0 c 0.37727,-0.06022 0.77888,-0.03437 1.13181,-0.18066 0.63243,-0.262136 0.8819,-1.021149 1.14169,-1.577375 0.58357,-1.448562 -1.465,-2.273866 -2.04858,-0.825304 z" />
    <path
       style="fill:#813d9c;fill-opacity:1;stroke-width:0.264999"
       id="path6794"
       d="m 151.23267,91.62445 c 1.00551,-0.669433 1.95078,-1.422091 2.85007,-2.227368 0.0574,-0.04663 0.10681,-0.105418 0.17226,-0.139878 0.0309,-0.01627 0.0697,-0.0039 0.10452,-0.0058 -0.56801,-0.300625 -1.0945,-0.698204 -1.70403,-0.901877 -0.10111,-0.03378 -0.1207,0.17985 -0.15037,0.282236 -0.12223,0.42186 -0.12736,0.962726 -0.15409,1.386163 -0.006,0.740182 -0.0195,1.256117 0.0175,2.001073 0.0168,0.337756 -0.0291,0.690509 0.0771,1.011597 0.19333,0.584835 0.72568,1.066702 1.13213,1.497057 0.002,0.0424 0.0616,0.04012 0.06,-0.0024 v 0 c 0.3652,-0.450286 0.86398,-0.980019 1.01696,-1.560743 0.0842,-0.31968 0.017,-0.661021 0.0172,-0.991605 5.3e-4,-0.612995 -0.031,-1.225756 -0.0215,-1.838857 0.0117,-0.339918 0.0472,-0.679288 0.0443,-1.019394 -7.9e-4,-0.09021 0.0432,-0.21471 -0.0287,-0.269111 -0.52137,-0.394112 -1.11677,-0.679272 -1.67516,-1.01891 5.3e-4,0.03108 0.015,0.06532 0.001,0.09325 -0.0241,0.04933 -0.0718,0.08304 -0.10776,0.124552 -0.8349,0.730716 -1.73391,1.383895 -2.64561,2.014935 -1.10663,0.702746 -0.1128,2.267749 0.99383,1.565005 z" />
    <path
       style="fill:#813d9c;fill-opacity:1;stroke-width:0.264999"
       id="path6887"
       d="m 77.916751,127.08613 c 0.38631,-0.0683 0.619921,-0.0804 0.984821,-0.3023 0.739315,-0.44951 1.201309,-1.26574 1.244849,-2.12732 0.0173,-0.34258 -0.07681,-0.68173 -0.115218,-1.0226 -0.168511,-0.33494 -0.271465,-0.71191 -0.505529,-1.00482 -1.15234,-1.44204 -3.375147,-1.77015 -4.479245,-0.0294 -0.269841,0.42543 -0.276323,0.96894 -0.414483,1.45342 0.157509,0.92594 0.136379,1.95454 1.012113,2.59833 0.779291,0.57288 1.689481,0.39331 2.544535,0.34711 0.03964,0.0151 0.06102,-0.0409 0.02138,-0.0561 v 0 c -1.400606,-1.74279 0.07896,0.25693 -0.866089,-1.48914 -0.969772,-1.79175 0.146198,0.87218 -0.589463,-0.99034 -0.01426,-0.15705 -0.02684,-0.31426 -0.04281,-0.47115 -0.01082,-0.10617 -0.08698,-0.22338 -0.03753,-0.31795 0.05586,-0.10684 0.19103,-0.15541 0.305237,-0.19404 0.547841,-0.18531 0.81639,0.0496 1.099405,0.48285 0.04019,0.12586 0.09831,0.24735 0.120565,0.37758 0.02342,0.13696 0.01016,0.5197 -0.05053,0.66042 -0.04204,0.0975 -0.124915,0.17175 -0.18774,0.25736 -0.204539,0.2787 -0.09569,0.16939 -0.330726,0.35493 -1.041668,0.20256 -0.755214,1.6757 0.286453,1.47314 z" />
    <path
       style="fill:#813d9c;fill-opacity:1;stroke-width:0.264999"
       id="path6889"
       d="m 80.883108,126.01025 c -0.106561,0.33536 -0.678669,1.3279 -0.642866,1.57262 0.0563,0.38481 0.341178,0.69899 0.511768,1.04848 -0.01982,0.0375 0.03323,0.0655 0.05305,0.028 v 0 c 0.389861,-0.0656 0.825521,-0.002 1.169583,-0.19676 0.253452,-0.14344 0.337913,-0.4764 0.47443,-0.73365 0.267954,-0.50492 0.313967,-0.76261 0.453583,-1.27416 0.314351,-1.42804 -1.705197,-1.8726 -2.019549,-0.44456 z" />
    <path
       style="fill:#813d9c;fill-opacity:1;stroke-width:0.264999"
       id="path6895"
       d="m 85.077608,127.00747 c 0.175975,0.0452 0.347271,0.11624 0.527921,0.13568 0.252111,0.0271 0.509669,0.0388 0.760696,0.003 0.779814,-0.11127 1.616291,-0.55084 2.019509,-1.25236 0.151037,-0.26278 0.19405,-0.57428 0.291078,-0.86143 -0.03515,-0.32644 -0.01175,-0.66465 -0.105444,-0.97933 -0.412957,-1.38688 -2.035784,-2.26245 -3.424695,-2.16646 -0.34171,0.0236 -0.66565,0.16187 -0.998474,0.24281 -0.283472,0.23454 -0.632317,0.40732 -0.850413,0.70363 -0.753282,1.02343 -0.532429,2.25515 0.23201,3.18508 0.228661,0.27816 0.506865,0.53404 0.831773,0.68926 0.296823,0.14181 0.647803,0.11488 0.971704,0.17232 0.291393,-0.0791 0.582789,-0.15824 0.874183,-0.23736 0.03889,0.017 0.06288,-0.038 0.024,-0.055 v 0 c -0.0995,-0.24969 -0.199001,-0.49937 -0.298503,-0.74905 -0.118422,-0.19727 -0.209899,-0.41346 -0.355272,-0.5918 -0.294423,-0.36121 -0.626017,-0.37288 -0.814904,-0.83367 -0.03111,-0.0759 -0.06233,-0.15569 -0.06362,-0.23771 -0.0013,-0.0831 0.03737,-0.16191 0.05605,-0.24287 0.114006,-0.0695 0.214376,-0.16933 0.342019,-0.20853 0.474469,-0.14572 1.202714,-0.008 1.592302,0.30139 0.174043,0.13842 0.288145,0.40781 0.385659,0.60383 0.0031,0.0857 0.029,0.17372 0.0093,0.25722 -0.100933,0.42762 -0.583914,0.56954 -0.931957,0.71688 -0.130109,0.0551 -0.256244,0.12157 -0.391459,0.16253 -0.0931,0.0282 -0.192374,0.029 -0.28856,0.0435 -0.847429,-0.27923 -1.24232,0.91921 -0.394891,1.19844 z" />
    <path
       style="fill:#813d9c;fill-opacity:1;stroke-width:0.264999"
       id="path6897"
       d="m 91.63837,126.94171 c 0.210609,-0.0483 0.432126,-0.0624 0.631823,-0.14492 0.222609,-0.092 0.42042,-0.23642 0.619405,-0.37215 0.697182,-0.47554 1.330082,-1.04743 1.459915,-1.94194 0.04975,-0.34277 -0.05147,-0.6908 -0.0772,-1.0362 -0.193863,-0.33179 -0.328173,-0.70649 -0.581591,-0.99535 -0.935493,-1.06634 -2.716895,-1.46134 -3.974097,-0.7588 -0.309978,0.17322 -0.542235,0.45864 -0.813351,0.68795 -0.158474,0.35657 -0.391633,0.68861 -0.475424,1.0697 -0.252897,1.1502 0.236741,2.3861 1.185942,3.07015 0.295841,0.2132 0.640117,0.40315 1.003279,0.43613 0.384164,0.0349 0.754395,-0.1615 1.131591,-0.24225 0.03848,0.0179 0.06375,-0.0366 0.02527,-0.0544 v 0 c -0.102626,-0.30349 -0.170542,-0.62103 -0.307874,-0.91047 -0.09367,-0.19741 -0.24851,-0.35956 -0.378172,-0.53545 -0.09528,-0.12924 -0.208327,-0.24545 -0.296463,-0.37967 -0.197389,-0.30061 -0.307385,-0.63127 -0.356592,-0.98482 0.03761,-0.0926 0.052,-0.19846 0.112832,-0.27774 0.514379,-0.67034 1.429411,-0.31248 1.937308,0.15073 0.05464,0.12044 0.214757,0.39364 0.151016,0.55104 -0.06148,0.1518 -0.188544,0.26857 -0.296005,0.39217 -0.368385,0.42369 -0.841274,0.69422 -1.115679,1.18884 -0.768959,0.29279 -0.354886,1.38026 0.414073,1.08747 z" />
    <path
       style="fill:#813d9c;fill-opacity:1;stroke-width:0.264999"
       id="path6899"
       d="m 105.25363,126.77634 c 0.16078,-0.0772 0.33318,-0.13389 0.48232,-0.23172 0.98022,-0.64297 1.56123,-1.81234 1.32296,-2.99317 -0.0663,-0.32871 -0.25154,-0.62172 -0.37732,-0.93258 -0.23792,-0.24498 -0.42716,-0.54927 -0.71377,-0.73494 -1.28342,-0.83146 -3.07828,-0.4487 -3.99758,0.73769 -0.22987,0.29666 -0.34156,0.66839 -0.51235,1.00258 -0.022,0.39307 -0.14935,0.79446 -0.0659,1.1792 0.19922,0.91866 0.79549,1.57755 1.58192,2.03777 0.34781,0.20354 0.73303,0.44795 1.13482,0.41687 1.43993,-0.70653 0.76962,-0.64169 1.9495,-0.53028 0.0422,0.004 0.048,-0.0557 0.006,-0.0597 v 0 c -1.40196,-0.13726 -0.12586,0.18728 -1.27156,-1.06367 -0.16426,-0.17934 -0.43934,-0.20905 -0.65428,-0.3228 -0.0575,-0.0304 -0.70808,-0.37987 -0.8018,-0.51857 -0.069,-0.10216 -0.0652,-0.23781 -0.0978,-0.35672 0.0367,-0.1383 0.0478,-0.28612 0.11024,-0.4149 0.21509,-0.44391 0.93908,-0.94323 1.45472,-0.80517 0.11844,0.0317 0.21132,0.12445 0.31697,0.18667 0.18575,0.26242 0.32388,0.37772 0.33648,0.72329 0.022,0.60389 -0.43722,1.10987 -0.82466,1.51009 -0.82737,0.43941 -0.20596,1.60949 0.62141,1.17009 z" />
    <path
       style="fill:#813d9c;fill-opacity:1;stroke-width:0.264999"
       id="path6901"
       d="m 107.24852,125.76543 c -0.15994,0.29617 -0.59647,1.02361 -0.55632,1.3516 0.0478,0.39087 0.32364,0.71798 0.48547,1.07697 -0.0156,0.0395 0.0402,0.0615 0.0558,0.022 v 0 c 0.36507,-0.15572 0.79275,-0.2102 1.09522,-0.46718 0.24198,-0.20556 0.40993,-1.02414 0.49002,-1.34336 0.45259,-1.1103 -1.11761,-1.75037 -1.5702,-0.64007 z" />
    <path
       style="fill:#813d9c;fill-opacity:1;stroke-width:0.264999"
       id="path6905"
       d="m 109.3696,125.31118 c 0.49068,1.00377 1.27949,1.93456 2.4401,2.14703 0.24445,0.0448 0.49672,0.0176 0.74508,0.0264 0.28091,-0.11639 0.61875,-0.14353 0.84275,-0.34917 0.29416,-0.27005 0.50775,-0.63578 0.64039,-1.01243 0.30856,-0.87616 0.0106,-2.53708 -0.41423,-3.33815 -0.16698,-0.31486 -0.42795,-0.57003 -0.64193,-0.85504 -0.71848,-0.3802 -1.04696,-0.73475 -1.92641,-0.4676 -1.03905,0.31563 -1.7026,1.43866 -1.8352,2.45561 -0.0484,0.37135 0.0158,0.74883 0.0237,1.12325 0.27591,0.39533 0.43666,0.90409 0.82775,1.186 0.49884,0.35957 1.7491,0.38113 2.35534,0.42412 0.039,0.0167 0.0626,-0.0385 0.0236,-0.0552 v 0 c -0.21986,-0.21913 -0.47416,-0.40843 -0.65958,-0.65738 -0.95578,-1.28328 0.062,-0.39029 -0.7163,-1.01954 -0.0276,-0.15851 -0.0935,-0.31499 -0.0828,-0.47554 0.0276,-0.41724 0.1916,-0.53573 0.32057,-0.89277 0.0328,-0.0908 0.0113,-0.31046 0.13584,-0.36823 0.0962,-0.0446 0.21128,-0.0172 0.31693,-0.0258 0.15903,0.0848 0.34966,0.12706 0.47709,0.25454 0.42046,0.42061 0.4663,0.80827 0.4371,1.38252 -0.0103,0.20296 -0.10395,0.39415 -0.1295,0.59576 -0.0718,0.56643 0.11263,-0.008 -0.0263,0.37767 -0.0754,0.0147 -0.14935,0.0465 -0.22609,0.044 -0.45086,-0.0145 -0.89535,-0.33431 -1.09349,-0.7323 -0.0357,-0.0716 -0.0414,-0.15448 -0.0622,-0.23171 -0.32802,-1.25315 -2.10024,-0.78926 -1.77222,0.46389 z" />
    <path
       style="fill:#813d9c;fill-opacity:1;stroke-width:0.264999"
       id="path6909"
       d="m 114.94054,125.14521 c 0.15705,-0.0783 0.3209,-0.14419 0.47113,-0.23485 0.53911,-0.32534 0.85185,-0.59015 1.33362,-1.00086 0.46875,-0.39962 0.89685,-0.81576 1.30484,-1.27545 -0.32281,-0.009 0.58027,-0.34118 0.40038,-0.38238 -0.70768,-0.16204 -1.44287,-0.431 -2.15711,-0.30087 -0.23113,0.0421 -0.0414,0.46825 -0.0502,0.70302 -0.0369,0.98499 -0.008,1.24522 0.0282,2.27573 0.0465,0.50365 0.0887,1.86285 0.43282,2.3505 1.02708,0.74617 0.7185,0.33037 1.13061,1.06522 0.009,0.0415 0.0676,0.0289 0.0587,-0.0126 v 0 c 0.13646,-1.37768 -0.18207,1.00461 0.7062,-1.28457 0.15508,-0.39968 -0.002,-1.85718 -0.0275,-2.20341 -0.0359,-0.91209 -0.0633,-1.17262 -0.039,-2.03838 0.006,-0.20081 0.1978,-0.48152 0.0367,-0.60153 -0.61043,-0.45476 -1.40222,-0.59451 -2.08737,-0.92618 -0.0332,-0.0161 0.0784,-0.0583 0.10548,-0.0332 0.0306,0.0283 -0.004,0.0833 -0.006,0.12493 -0.73208,0.8897 -1.66958,1.58328 -2.4158,2.46062 -0.92933,0.54783 -0.15459,1.86211 0.77475,1.31428 z" />
    <path
       style="fill:#813d9c;fill-opacity:1;stroke-width:0.264999"
       id="path6911"
       d="m 131.3165,126.52809 c 0.10838,-0.16311 0.24316,-0.31149 0.32514,-0.48934 0.48301,-1.04782 0.20725,-2.37925 -0.46787,-3.28225 -0.20479,-0.27392 -0.48206,-0.48528 -0.72309,-0.72792 -0.38185,-0.13713 -0.74288,-0.36167 -1.14555,-0.41138 -1.18012,-0.14572 -2.3624,0.5873 -2.73602,1.71851 -0.34887,1.05623 -0.0166,1.41631 0.3547,2.36699 0.31285,0.30126 0.57409,0.66757 0.93856,0.90378 0.63546,0.41183 1.4415,0.56483 2.17768,0.36902 0.31721,-0.0844 0.57917,-0.30906 0.86875,-0.46359 0.0424,0.001 0.0437,-0.059 10e-4,-0.06 v 0 c -0.71435,-0.56771 -1.42646,-1.13772 -2.22365,-1.58807 -0.0844,-0.10884 -0.18676,-0.2059 -0.2533,-0.3265 -0.0622,-0.1128 -0.1702,-0.46164 -0.10298,-0.60958 0.1596,-0.35126 0.62014,-0.44515 0.93973,-0.5546 0.13012,0.0833 0.28366,0.13815 0.39037,0.24987 0.13064,0.13677 0.21975,0.30961 0.30521,0.47834 0.23707,0.46807 0.29094,0.98447 0.19194,1.49436 -0.65927,0.81957 0.49978,1.75192 1.15905,0.93235 z" />
    <path
       style="fill:#813d9c;fill-opacity:1;stroke-width:0.264999"
       id="path6913"
       d="m 132.50726,125.34288 c -0.25454,0.56002 -0.86521,1.38731 -0.93011,1.97911 -0.22379,2.0407 0.46964,0.12372 -0.13901,1.57021 -0.0273,0.0325 0.0187,0.0711 0.046,0.0386 v 0 c 0.1885,-0.12624 0.35937,-0.28399 0.56552,-0.37872 0.33102,-0.15213 0.7308,-0.15302 1.0333,-0.35603 0.53432,-0.35859 0.95521,-1.44859 1.23587,-2.02893 0.58281,-1.28095 -1.22872,-2.10516 -1.81153,-0.82422 z" />
    <path
       style="fill:#813d9c;fill-opacity:1;stroke-width:0.264999"
       id="path6915"
       d="m 136.49666,125.30255 c 0.48876,-0.39763 0.86804,-0.90043 1.21145,-1.42399 0.16466,-0.25103 0.48474,-0.81986 0.67231,-1.07875 0.0853,-0.11779 0.18853,-0.22155 0.28279,-0.33233 0.55087,-0.40745 -0.12884,0.3105 -0.26261,0.30406 -0.42035,-0.0202 -0.73926,-0.46626 -1.15861,-0.50154 -0.13379,-0.0113 -0.0211,0.26791 -0.0224,0.40217 -0.005,0.52663 0.0273,1.28498 0.0445,1.79242 0.0143,0.26197 0.0763,2.03228 0.23081,2.25544 0.27301,0.39433 0.79179,0.54148 1.18768,0.81222 0.0102,0.0412 0.0685,0.0267 0.0582,-0.0145 v 0 c 0.24635,-0.33122 0.60797,-0.60224 0.73906,-0.99367 0.0116,-0.0347 -0.10507,-2.10563 -0.10688,-2.13866 -0.0134,-0.32571 -0.0556,-1.46416 -0.0875,-1.83342 -0.0204,-0.236 0.0624,-0.52132 -0.0868,-0.7053 -0.33061,-0.40771 -0.74705,-0.82056 -1.25568,-0.95026 -0.60405,-0.15404 -0.6504,0.48191 -0.70833,0.78368 -0.0406,0.13393 -0.0691,0.27216 -0.12181,0.40179 -0.3152,0.7743 -0.84513,1.51135 -1.43257,2.10009 -0.79233,0.57726 0.024,1.69779 0.81638,1.12053 z" />
    <path
       style="fill:#813d9c;fill-opacity:1;stroke-width:0.264999"
       id="path6921"
       d="m 140.66424,126.12394 c 0.20396,0.17273 0.38831,0.37173 0.6119,0.51818 0.93362,0.61152 2.25209,0.83433 3.21635,0.14244 0.24984,-0.17927 0.42473,-0.44479 0.6371,-0.66718 0.11638,-0.28653 0.28265,-0.55757 0.34916,-0.8596 0.28054,-1.27415 -0.39911,-2.65004 -1.45645,-3.36282 -0.27294,-0.184 -0.59329,-0.28533 -0.88994,-0.42799 -0.72046,-0.10787 -1.22079,-0.28094 -1.94271,0.0194 -0.36367,0.15128 -0.70739,0.37607 -0.97971,0.66064 -0.52728,0.55102 -0.90125,1.51375 -0.73564,2.28414 0.10424,0.48493 0.46086,0.87847 0.69129,1.31771 0.46205,0.17191 0.9241,0.34383 1.38616,0.51574 0.0268,0.0329 0.0733,-0.005 0.0465,-0.0379 v 0 c 0.008,-0.38515 0.0168,-0.7703 0.0253,-1.15545 -0.0734,-0.22286 -0.28317,-0.76491 -0.27214,-1.04024 0.006,-0.14471 0.0618,-0.28428 0.1151,-0.41894 0.20022,-0.5061 0.4791,-0.55879 0.98912,-0.53617 0.14551,0.0433 0.30192,0.0597 0.4365,0.12994 0.42913,0.22395 0.77552,0.69096 0.91957,1.14689 0.0956,0.30249 0.0598,0.44249 0.038,0.73935 -0.0351,0.0865 -0.0476,0.18606 -0.10522,0.25948 -0.43544,0.55462 -1.31736,0.14599 -1.76417,-0.15867 -0.65836,-0.93059 -1.97442,5.3e-4 -1.31606,0.93106 z" />
    <path
       style="fill:#813d9c;fill-opacity:1;stroke-width:0.264999"
       id="path6923"
       d="m 156.18175,126.81015 c 0.19641,-0.1227 0.41868,-0.21142 0.58922,-0.36811 1.03368,-0.94975 1.20653,-2.55739 0.48591,-3.7523 -0.19777,-0.32791 -0.51179,-0.56976 -0.76768,-0.85464 -0.34148,-0.16899 -0.65533,-0.41245 -1.02442,-0.50698 -0.38541,-0.0987 -0.79956,-0.12598 -1.19202,-0.0607 -0.69451,0.11552 -1.51345,0.62021 -1.84196,1.2677 -0.55176,1.08754 -0.2475,1.49441 0.019,2.5731 0.39028,0.57696 1.0047,1.75425 1.84282,1.88621 0.52954,0.0834 1.04214,-0.25175 1.56321,-0.37763 0.0397,0.0149 0.0608,-0.0413 0.021,-0.0562 v 0 c -0.14423,-0.37475 -0.21402,-0.78748 -0.4327,-1.12426 -0.25527,-0.39312 -0.88338,-0.44727 -1.02705,-0.96049 -0.0772,-0.14143 -0.15472,-0.28265 -0.23152,-0.42429 -0.0439,-0.081 -0.12386,-0.1517 -0.13059,-0.24357 -0.0227,-0.31029 0.45496,-0.66261 0.71728,-0.70027 0.14276,-0.0205 0.28581,0.039 0.42872,0.0585 0.32443,0.22135 0.50964,0.27404 0.65497,0.67272 0.20254,0.55569 -0.029,1.17872 -0.33572,1.63889 -0.94208,0.46778 -0.28054,1.80009 0.66154,1.3323 z" />
    <path
       style="fill:#813d9c;fill-opacity:1;stroke-width:0.264999"
       id="path6925"
       d="m 158.27263,126.37669 c -0.52623,1.60348 -0.14797,0.0631 -0.16577,2.01739 -0.003,0.31991 -0.0892,0.63361 -0.13381,0.95041 -0.0199,0.0375 0.0331,0.0656 0.053,0.0281 v 0 c 0.24244,-0.22426 0.46989,-0.46592 0.72733,-0.67279 1.3623,-1.0947 0.737,-0.20681 1.4449,-1.56142 0.53862,-1.36164 -1.38704,-2.12335 -1.92565,-0.76171 z" />
    <path
       style="fill:#813d9c;fill-opacity:1;stroke-width:0.264999"
       id="path6927"
       d="m 162.03857,125.16717 c 0.15289,-0.0957 0.31483,-0.17823 0.45865,-0.28706 0.88987,-0.67332 1.58388,-1.65708 2.23408,-2.55437 0.0578,-0.0838 0.10519,-0.17591 0.17335,-0.25156 0.0106,-0.0117 0.0626,0.009 0.0469,0.007 -0.5815,-0.0851 -1.15899,-0.20447 -1.74446,-0.25545 -0.0353,-0.003 -0.0348,0.0651 -0.0345,0.10053 0.002,0.22355 0.0226,0.44661 0.0408,0.66942 0.0241,0.29637 0.0573,0.59193 0.0859,0.88789 0.11236,0.71245 0.0939,2.22853 0.63115,2.77548 0.23041,0.23458 0.58285,0.30457 0.87428,0.45685 0.0109,0.041 0.0689,0.0256 0.058,-0.0154 v 0 c 0.18997,-0.23023 0.44773,-0.41835 0.5699,-0.69069 0.29347,-0.65415 -0.0683,-2.02771 -0.0961,-2.72963 -0.17081,-1.65675 -0.0172,-0.0992 -0.13046,-1.40777 -0.0155,-0.1784 0.10722,-0.45155 -0.0514,-0.53475 -1.7597,-0.92332 -1.57786,-0.83875 -1.98846,-0.0166 -0.48394,0.87661 -1.06174,1.71205 -1.87763,2.31387 -1.08343,0.5303 -0.33347,2.06251 0.74996,1.5322 z" />
    <path
       style="fill:#813d9c;fill-opacity:1;stroke-width:0.264999"
       id="path6939"
       d="m 167.94882,124.53283 c 0.66686,-0.68376 1.2936,-1.40668 1.8808,-2.15985 0.52044,-0.66752 0.14111,-0.22206 0.60277,-0.74618 -0.56173,-0.004 0.3852,-0.19142 0.27205,-0.21505 -0.56248,-0.11748 -1.1324,-0.19595 -1.69845,-0.29482 -0.0156,-0.003 -0.0426,-0.0253 -0.0463,-0.01 -0.0555,0.22944 -0.0462,0.74104 -0.0493,0.9324 0.0724,1.19672 0.30681,2.37673 0.50389,3.55746 0.0431,0.258 -0.0498,0.58792 0.13507,0.77302 0.29695,0.29737 0.76724,0.34317 1.15086,0.51476 0.0105,0.0411 0.0686,0.0263 0.0582,-0.0148 v 0 c 0.27427,-0.2581 0.66545,-0.43214 0.82283,-0.7743 0.11701,-0.25436 -0.0455,-0.55835 -0.0822,-0.83593 -0.14479,-1.0966 -0.40968,-2.17458 -0.54343,-3.27271 -0.0248,-0.30689 -0.0567,-1.13302 -0.0646,-1.13669 -1.72326,-0.79978 -1.63965,-0.90329 -1.76566,-0.1029 -0.0481,0.10247 -0.0855,0.21067 -0.14423,0.30741 -0.1568,0.25814 -0.52472,0.70435 -0.69997,0.91577 -0.43586,0.52584 -0.8902,1.03591 -1.36301,1.52881 -0.73084,0.72884 0.2999,1.76239 1.03073,1.03355 z" />
    <path
       style="fill:#c64600;fill-opacity:1;stroke-width:0.264999"
       id="path6941"
       d="m 117.95087,66.607448 c -0.18903,0.0842 -0.38774,0.149384 -0.5671,0.252614 -0.5589,0.321691 -1.28959,0.90003 -1.76273,1.295231 -1.61307,1.347348 -3.06409,2.862506 -4.53454,4.360092 -0.34446,0.363368 -2.62058,2.754884 -3.04266,3.234314 -0.76754,0.871816 -1.17932,1.2113 -1.40232,2.315044 -0.048,0.237424 0.0169,0.48415 0.0253,0.726225 -0.0285,0.0314 0.0159,0.07175 0.0444,0.04035 v 0 c 0.23875,-0.01143 0.48626,0.03078 0.71626,-0.03428 1.09396,-0.309436 1.38257,-0.722154 2.21082,-1.561764 1.02668,-1.040755 1.95336,-2.177323 3.00163,-3.197725 1.74936,-1.789015 1.52461,-1.586728 3.24279,-3.243445 0.58495,-0.564018 1.33278,-1.263553 1.94198,-1.829039 0.21485,-0.199435 0.43948,-0.388651 0.64645,-0.596259 0.13165,-0.132056 0.24534,-0.280882 0.36801,-0.421325 0.94755,-0.628108 0.0593,-1.968146 -0.88828,-1.340036 z" />
    <path
       style="fill:#c64600;fill-opacity:1;stroke-width:0.264999"
       id="path6943"
       d="m 106.53223,73.482665 c -0.5829,0.717288 -0.96838,1.586698 -1.17197,2.487639 -0.15292,0.676714 -0.25979,1.549199 0.0355,2.218375 0.17805,0.403524 0.51854,0.713618 0.77781,1.070427 0.85085,0.474615 1.18936,0.794928 2.17983,0.85911 0.36441,0.0236 0.76484,0.0544 1.08973,-0.112318 0.37211,-0.19095 0.58487,-0.598038 0.87731,-0.897054 0.0424,-0.0016 0.0401,-0.06155 -0.002,-0.05996 v 0 c -0.2475,-0.278775 -0.44242,-0.615143 -0.7425,-0.836327 -0.34469,-0.25406 -1.29711,-0.331507 -1.74512,-0.487981 -0.0806,-0.01019 -0.1865,0.02895 -0.2418,-0.03057 -0.23668,-0.254744 -0.166,-0.846019 -0.12467,-1.096336 0.11862,-0.718352 0.45752,-1.36765 0.65865,-2.060842 0.74541,-1.124664 -0.84511,-2.178831 -1.59052,-1.054166 z" />
    <path
       style="fill:#c64600;fill-opacity:1;stroke-width:0.264999"
       id="path6945"
       d="m 125.4698,69.005275 c 0.10867,0.162271 0.20587,0.332837 0.32599,0.486817 0.18577,0.23812 0.38864,0.462523 0.59013,0.687491 0.65898,0.735758 1.31444,1.40604 1.98938,2.131748 0.79941,0.859522 1.59115,1.726157 2.3905,2.585725 0.29864,0.309957 1.61195,1.684917 2.00161,2.048875 0.2382,0.222488 0.96,0.90197 1.3899,0.936662 0.29105,0.02349 0.5697,-0.128342 0.85455,-0.192511 0.0282,0.0317 0.073,-0.0082 0.0448,-0.03988 v 0 c 0.0812,-0.293106 0.2577,-0.575482 0.2437,-0.879311 -0.0205,-0.444429 -0.69864,-1.161045 -0.93154,-1.413235 -0.6354,-0.688023 -1.34956,-1.300723 -1.96566,-2.007526 -1.07194,-1.116846 -1.37328,-1.43224 -2.44822,-2.546464 -0.88628,-0.918675 -1.75928,-1.8919 -2.75832,-2.694112 -0.15587,-0.12515 -0.32823,-0.228232 -0.49234,-0.342349 -0.87544,-0.872937 -2.10996,0.36513 -1.23452,1.238065 z" />
    <path
       style="fill:#c64600;fill-opacity:1;stroke-width:0.264999"
       id="path6947"
       d="m 133.60505,72.834219 c -0.0233,1.13181 -0.0402,0.362257 0.10199,1.706393 0.0362,0.342119 0.0653,0.684948 0.0968,1.02753 0.0264,0.287049 0.0613,0.573516 0.0768,0.861359 0.0326,0.608216 0.16448,0.628153 -0.0993,0.516758 0.0156,-0.09171 0.10194,-0.200298 0.0467,-0.275122 -0.0566,-0.07662 -0.18722,-0.04871 -0.28235,-0.044 -0.28603,0.01418 -0.56793,0.07588 -0.85326,0.100277 -1.47007,0.125696 -0.61147,-0.139411 -1.99907,0.547018 -0.041,-0.01103 -0.0566,0.04689 -0.0156,0.05793 v 0 c 0.2606,0.321363 0.44175,0.72839 0.7818,0.964094 0.33088,0.229355 0.75677,0.280803 1.14845,0.373883 0.76078,0.18079 1.58096,0.334121 2.33112,-0.033 0.35079,-0.171672 0.59728,-0.503343 0.89592,-0.755015 0.10014,-0.305787 0.24649,-0.600144 0.30041,-0.917355 0.059,-0.346949 -0.0789,-1.383777 -0.12056,-1.68021 -0.0495,-0.352412 -0.11162,-0.702948 -0.16994,-1.05401 -0.20988,-1.263365 -0.0772,-0.728229 -0.44164,-1.828951 -0.30576,-1.271551 -2.104,-0.839137 -1.79824,0.432414 z" />
    <path
       style="fill:#c64600;fill-opacity:1;stroke-width:0.264999"
       id="path6949"
       d="m 99.354858,75.857009 c 0.284946,-0.107198 0.58588,-0.178943 0.854832,-0.321596 1.07075,-0.567917 2.10374,-1.844765 1.62087,-3.137347 -0.1281,-0.342897 -0.41821,-0.600866 -0.62732,-0.9013 -0.28875,-0.172702 -0.55425,-0.392171 -0.86624,-0.518107 -0.94732,-0.382384 -2.050042,-0.276127 -2.840027,0.404172 -0.738063,0.63559 -0.718635,1.038397 -0.981684,1.922026 0.06102,0.402428 0.02881,0.830612 0.183047,1.207286 0.305416,0.745873 0.921319,1.358376 1.783448,1.368694 0.34825,0.0042 0.654386,-0.238659 0.98158,-0.357989 0.04047,0.01273 0.05848,-0.0445 0.01802,-0.05723 v 0 c -0.162745,-0.420672 -0.26298,-0.793208 -0.520732,-1.155216 -0.06151,-0.08639 -0.159554,-0.142925 -0.219149,-0.230653 -0.05954,-0.08766 -0.08901,-0.192339 -0.133511,-0.288507 0.01058,-0.270542 0.01738,-0.65523 0.241673,-0.862603 0.256048,-0.236738 0.602319,-0.208603 0.911135,-0.129664 0.0396,-0.003 0.27106,-0.04747 0.30652,0.0439 0.0894,0.230241 -0.140317,0.528881 -0.259493,0.661051 -0.135422,0.150183 -0.309607,0.260287 -0.46124,0.394081 -0.111101,0.09803 -0.217885,0.200856 -0.326827,0.301284 -1.172183,0.236958 -0.837073,1.894681 0.335111,1.65772 z" />
    <path
       style="fill:#c64600;fill-opacity:1;stroke-width:0.264999"
       id="path6951"
       d="m 138.92636,71.577085 c 2.06211,-1.737111 -1.00613,0.868109 1.12937,-1.017338 0.17058,-0.150612 0.35524,-0.284494 0.53251,-0.427186 0.11923,-0.09597 0.22152,-0.217514 0.35696,-0.288809 0.0484,-0.02548 -0.0255,0.144667 -0.0802,0.143127 -0.46097,-0.01299 -0.9141,-0.122672 -1.37115,-0.18401 0.0249,0.686223 0.50013,1.955755 0.95409,2.43832 0.33496,0.356074 0.81048,0.54686 1.21573,0.820288 0.0149,0.03972 0.0711,0.01863 0.0562,-0.02109 v 0 c 0.13555,-0.444527 0.35483,-0.871744 0.40665,-1.333579 0.10246,-0.913263 -0.39096,-2.185237 -0.64232,-3.067125 -0.54942,-0.219397 -1.06291,-0.572428 -1.64827,-0.658193 -0.19452,-0.0285 -0.335,0.210902 -0.47708,0.346789 -0.25705,0.245841 -0.39035,0.597125 -0.62215,0.866902 -0.22691,0.264073 -0.65928,0.624033 -0.92696,0.856354 -1.07873,0.789588 0.0379,2.315146 1.11665,1.525558 z" />
    <path
       style="fill:#c64600;fill-opacity:1;stroke-width:0.264999"
       id="path6953"
       d="m 91.553259,98.808396 c -0.235895,0.350705 -0.482542,0.694412 -0.707689,1.052115 -1.018643,1.618379 -1.922825,3.309809 -2.86127,4.974779 -1.003845,1.781 -0.773044,1.37221 -1.747832,3.02111 -0.34511,0.65805 -0.806953,1.2585 -0.740664,2.05345 0.02363,0.28327 0.202305,0.5313 0.303458,0.79695 -0.02082,0.037 0.03143,0.0664 0.05227,0.0295 v 0 c 0.268139,-0.0306 0.554257,0.01 0.80442,-0.0917 0.787921,-0.31892 1.079675,-0.94713 1.561433,-1.60041 0.287211,-0.47256 0.581147,-0.9411 0.861632,-1.41768 1.468781,-2.4957 2.823411,-5.05769 4.313785,-7.54105 0.902967,-1.300749 -0.936575,-2.577737 -1.839542,-1.276984 z" />
    <path
       style="fill:#c64600;fill-opacity:1;stroke-width:0.264999"
       id="path6955"
       d="m 84.569272,106.33823 c -0.08329,0.22438 -0.200263,0.43899 -0.249864,0.67312 -0.331116,1.56302 -0.250285,3.5924 1.168575,4.63787 0.345768,0.25477 0.789535,0.33837 1.184304,0.50756 1.603859,-0.16922 0.925218,0.18121 1.993161,-1.13025 0.04208,-0.005 0.03441,-0.0649 -0.0077,-0.0595 v 0 c -0.895974,-0.911 -0.43109,-0.68316 -1.232156,-0.94553 -0.09498,-0.004 -0.194276,0.0178 -0.28493,-0.0108 -0.348176,-0.10967 -0.48441,-0.35299 -0.568026,-0.72067 -0.181888,-0.79979 0.0059,-1.63405 0.0267,-2.43734 0.363778,-1.4355 -1.666317,-1.94996 -2.030095,-0.51446 z" />
    <path
       style="fill:#c64600;fill-opacity:1;stroke-width:0.264999"
       id="path6957"
       d="m 99.215476,99.876953 c 0.06093,0.189957 0.105129,0.386107 0.182782,0.569857 0.317868,0.7522 0.811322,1.60362 1.204512,2.29487 0.57769,1.01561 1.19003,2.06265 1.81654,3.04854 0.32248,0.50745 0.66205,1.00384 0.99307,1.50576 0.35111,0.49963 1.27857,1.8465 1.71087,2.36795 0.22215,0.26797 0.44751,0.53866 0.71629,0.75982 0.20712,0.17044 0.43113,0.36451 0.69661,0.40279 0.29277,0.0422 0.5797,-0.11798 0.86955,-0.17697 0.029,0.031 0.0728,-0.01 0.0438,-0.041 v 0 c 0.0982,-0.2637 0.28194,-0.50998 0.29463,-0.79108 0.0202,-0.44668 -0.56021,-1.2542 -0.75425,-1.53612 -0.52806,-0.7672 -1.13784,-1.47647 -1.62606,-2.2722 -0.31705,-0.48089 -0.64164,-0.9569 -0.95117,-1.44267 -0.63834,-1.00178 -1.1902,-1.94323 -1.78677,-2.9692 -0.40696,-0.69988 -0.87292,-1.5823 -1.36616,-2.249527 -0.12961,-0.175334 -0.29309,-0.322892 -0.43964,-0.484341 -0.71667,-1.134626 -2.32127,-0.121105 -1.604604,1.013521 z" />
    <path
       style="fill:#c64600;fill-opacity:1;stroke-width:0.264999"
       id="path6959"
       d="m 105.78964,106.73427 c 0.31249,3.37364 -0.16648,-1.51066 0.26982,2.00356 0.003,0.025 0.17961,0.88643 -0.0958,1.05327 -0.0476,0.0288 -0.057,-0.10246 -0.10576,-0.12918 -0.0563,-0.0308 -0.12645,-0.0217 -0.18967,-0.0325 -0.71441,0.13766 -0.27837,-0.008 -1.17677,0.71902 -0.0391,-0.0165 -0.0624,0.0388 -0.0233,0.0553 v 0 c 1.15769,1.67481 0.3972,1.39956 2.00432,1.36741 0.35032,-0.16613 0.75309,-0.25018 1.05095,-0.49838 0.9663,-0.80521 0.91827,-1.84606 0.74045,-2.95316 -0.17071,-1.06283 -0.21516,-1.06132 -0.55148,-2.06396 -0.33845,-1.35958 -2.2612,-0.88093 -1.92274,0.47866 z" />
    <path
       style="fill:#c64600;fill-opacity:1;stroke-width:0.264999"
       id="path6963"
       d="m 144.25283,97.09874 c -1.46948,1.36897 -2.44951,3.17746 -3.39443,4.92357 -0.74772,1.38171 -1.53644,3.00274 -2.23631,4.41448 -0.16405,0.34178 -1.33347,2.70571 -1.48781,3.265 -0.16686,0.60463 -0.0911,1.20982 -0.0508,1.81624 -0.0249,0.0343 0.0236,0.0696 0.0485,0.0353 v 0 c 0.71928,-0.23576 1.13062,-0.29381 1.71643,-0.92673 0.57664,-0.62304 1.51736,-2.51772 1.85823,-3.155 1.05561,-2.12349 2.11801,-4.23639 3.29652,-6.29533 1.28862,-2.251301 0.39912,-0.67678 1.40125,-2.268628 0.10998,-0.174686 0.20799,-0.356624 0.31198,-0.534938 0.90084,-1.034896 -0.56273,-2.30887 -1.46356,-1.273974 z" />
    <path
       style="fill:#c64600;fill-opacity:1;stroke-width:0.264999"
       id="path6965"
       d="m 136.27697,106.35017 c -0.0695,0.18001 -0.15863,0.35365 -0.20865,0.54003 -0.33938,1.26459 -0.33984,2.7374 0.39796,3.87475 0.18395,0.28357 0.45088,0.5037 0.67632,0.75554 0.94253,0.37357 1.15617,0.62849 2.17589,0.40474 0.29162,-0.064 0.60884,-0.15921 0.81204,-0.37795 0.22184,-0.23882 0.25142,-0.60147 0.37713,-0.9022 0.0402,-0.0135 0.0211,-0.0704 -0.0191,-0.0569 v 0 c -0.22233,-0.1838 -0.41381,-0.41316 -0.66701,-0.55139 -0.25857,-0.14117 -0.78958,-0.12583 -1.09109,-0.0954 -0.0836,-0.0589 -0.18421,-0.0992 -0.25084,-0.1768 -0.6485,-0.75545 -0.34924,-1.92005 -0.27973,-2.81185 0.42612,-1.3597 -1.49678,-1.96233 -1.9229,-0.60263 z" />
    <path
       style="fill:#c64600;fill-opacity:1;stroke-width:0.264999"
       id="path6967"
       d="m 152.6136,97.805125 c 0.039,0.554889 0.0361,0.732822 0.16306,1.332317 0.12221,0.577107 0.46967,1.762908 0.629,2.269978 0.33517,1.06669 0.73293,2.1934 1.09785,3.24956 0.46996,1.36739 0.97307,2.7237 1.41852,4.09951 0.24972,0.77127 0.4635,1.55299 0.70265,2.32745 0.55025,0.52706 0.19994,0.36863 1.11538,0.29372 0.009,0.0414 0.0677,0.0286 0.0586,-0.0129 v 0 c 0.81983,-0.452 0.61385,-0.12321 0.79593,-0.84927 -0.59612,-2.21973 -1.3569,-4.38796 -2.16336,-6.53936 -0.38212,-1.05854 -0.75973,-2.08277 -1.11462,-3.15049 -0.3679,-1.106846 -0.63629,-2.258236 -1.19014,-3.293863 -0.19328,-1.069755 -1.70614,-0.796427 -1.51287,0.273325 z" />
    <path
       style="fill:#c64600;fill-opacity:1;stroke-width:0.264999"
       id="path6969"
       d="m 153.99389,109.28053 c 0.7872,0.71118 1.5733,1.43041 2.40849,2.08591 0.19528,0.15327 0.38803,0.31163 0.59877,0.44285 0.19693,0.12262 0.41337,0.21071 0.62006,0.31606 0.43842,-0.0705 0.94887,0.0394 1.31525,-0.21151 0.80568,-0.55174 0.97929,-2.37912 1.00909,-3.26669 0.01,-0.28831 0.0948,-0.60484 -0.0301,-0.8649 -0.14483,-0.30168 -0.48046,-0.46595 -0.72069,-0.69893 0.006,-0.042 -0.0534,-0.0505 -0.0594,-0.008 v 0 c -0.29859,0.17629 -0.67506,0.26143 -0.89578,0.52886 -0.17725,0.21477 -0.15232,0.53624 -0.2084,0.80901 -0.0599,0.29121 -0.0893,0.58788 -0.13905,0.88099 -0.0391,0.23054 -0.15516,0.45763 -0.12749,0.68983 0.0336,0.28198 1.22123,-0.43311 0.82651,0.20668 -0.0955,-0.0461 -0.19767,-0.0805 -0.28658,-0.13838 -0.29914,-0.19466 -0.92634,-0.71522 -1.16954,-0.91201 -0.63001,-0.50981 -1.24639,-1.0435 -1.93305,-1.47759 -1.1443,-0.85427 -2.35243,0.76402 -1.20812,1.6183 z" />
    <path
       style="fill:#c64600;fill-opacity:1;stroke-width:0.264999"
       id="path6971"
       d="m 80.491295,107.09874 c 0.182869,-0.0913 0.382942,-0.1542 0.548605,-0.27393 1.037365,-0.74969 1.287465,-2.16173 0.765109,-3.29894 -0.144447,-0.31447 -0.392909,-0.56979 -0.589365,-0.85468 -0.30535,-0.20456 -0.57885,-0.46747 -0.916053,-0.61369 -1.124662,-0.48767 -2.335371,-0.27108 -3.214198,0.58994 -0.745427,0.73033 -0.756259,1.23941 -1.024628,2.18902 0.04353,0.42591 -0.0036,0.87118 0.130587,1.27774 0.256096,0.77586 0.911096,1.61034 1.762755,1.80446 0.884235,0.20155 1.42285,-0.25386 2.104226,-0.6415 0.04241,7.9e-4 0.04366,-0.0591 0.0013,-0.06 v 0 c -0.213289,-0.17534 -0.42658,-0.35067 -0.639871,-0.52601 -0.144452,-0.16772 -0.26756,-0.35651 -0.433361,-0.50316 -0.09502,-0.084 -0.231704,-0.10627 -0.336492,-0.17777 -0.350218,-0.23896 -0.269258,-0.2369 -0.401264,-0.65659 0.02461,-0.18023 0.02959,-0.36425 0.07383,-0.5407 0.03851,-0.15361 0.107741,-0.29817 0.172712,-0.4426 0.16102,-0.35794 0.368279,-0.58239 0.79766,-0.55036 0.114785,0.009 0.220618,0.0658 0.330925,0.0986 0.09017,0.0809 0.193744,0.14896 0.270513,0.24267 0.203152,0.24797 0.278826,0.6064 0.180239,0.91457 -0.057,0.17818 -0.204041,0.31912 -0.238103,0.50823 -1.071028,0.4631 -0.416105,1.97776 0.654925,1.51466 z" />
    <path
       style="fill:#c64600;fill-opacity:1;stroke-width:0.264999"
       id="path6973"
       d="m 109.06067,103.83106 c 0.57713,-0.37717 1.07105,-0.85036 1.52497,-1.36635 0.15298,-0.17391 0.28476,-0.36581 0.43879,-0.53879 0.36328,-0.40798 0.23299,-0.47064 0.43306,-0.32763 -0.63405,-0.19967 -1.23786,-0.62335 -1.90215,-0.59899 -0.22435,0.008 -0.0511,0.44655 -0.059,0.67091 -0.0124,0.35415 -0.0171,0.70905 -0.002,1.06309 0.0401,0.93606 0.0157,1.66738 0.64169,2.44811 0.24242,0.30234 0.62598,0.45702 0.93898,0.68553 0.0101,0.0412 0.0684,0.027 0.0583,-0.0143 v 0 c 0.18223,-0.30637 0.4268,-0.58339 0.5467,-0.91909 0.31652,-0.88623 0.12845,-1.32695 0.0712,-2.22655 -0.0194,-0.30391 -0.0222,-0.60871 -0.0249,-0.91322 -0.002,-0.20127 0.16301,-0.47105 0.0116,-0.60371 -0.53304,-0.46713 -1.24352,-0.68048 -1.86528,-1.02072 -0.0405,0.0822 -0.0851,0.16241 -0.12143,0.24652 -0.0541,0.12546 -0.0797,0.26421 -0.14955,0.38167 -0.096,0.16142 -0.2229,0.30254 -0.34297,0.44692 -0.34799,0.4184 -0.74114,0.78387 -1.17679,1.10955 -1.04439,0.69204 -0.0657,2.16903 0.97869,1.47699 z" />
    <path
       style="fill:#c64600;fill-opacity:1;stroke-width:0.264999"
       id="path6975"
       d="m 132.89504,106.33693 c 0.17256,-0.0631 0.3607,-0.0939 0.51766,-0.1894 0.23763,-0.14461 0.49561,-0.29129 0.65119,-0.52189 0.50954,-0.75529 0.58943,-1.43111 0.30529,-2.29065 -0.26642,-0.80596 -0.77782,-1.21331 -1.33647,-1.79734 -0.34047,-0.19819 -0.63034,-0.547 -1.02141,-0.59455 -1.17508,-0.14287 -1.89063,0.41251 -2.40985,1.3875 -0.21254,0.39912 -0.33318,0.85901 -0.34888,1.31092 -0.0466,1.34098 0.36522,1.52479 1.12192,2.51394 1.65575,0.69954 0.82689,0.69977 2.48655,-0.009 0.0414,0.009 0.0543,-0.0495 0.0129,-0.0586 v 0 c -0.58051,-1.07756 -0.21617,-0.70786 -0.93341,-1.24641 -0.32616,-0.29078 -0.42701,-0.28502 -0.49941,-0.76147 -0.0415,-0.27301 0.0644,-0.55559 0.0202,-0.82819 -0.0189,-0.11665 -0.18428,-0.24667 -0.10863,-0.33745 0.10237,-0.12286 0.31334,-0.0641 0.47001,-0.0962 0.15662,0.12253 0.33879,0.21805 0.46985,0.36761 0.20317,0.23185 0.27467,0.52334 0.36129,0.80544 0.0245,0.0799 0.092,0.15944 0.0711,0.24036 -0.051,0.19821 -0.35843,0.44093 -0.49319,0.5642 -1.08993,0.46896 -0.42672,2.01036 0.66322,1.54139 z" />
    <path
       style="fill:#c64600;fill-opacity:1;stroke-width:0.264999"
       id="path6977"
       d="m 160.77452,103.45286 c 0.5015,-0.47302 0.97929,-0.97109 1.44713,-1.47722 0.0542,-0.0587 0.63894,-0.75751 0.81919,-0.7991 0.075,-0.0173 -0.02,0.15254 -0.0301,0.22882 -0.47879,-0.12795 -0.94109,-0.36617 -1.43636,-0.38384 -0.11201,-0.004 -0.0559,0.21848 -0.0627,0.33035 -0.0179,0.29296 -0.0124,0.58695 -0.0113,0.88045 0.003,0.64893 0.0249,1.60016 0.0781,2.24131 0.0317,0.38204 0.0877,0.76169 0.13149,1.14253 0.48106,1.53324 -0.0407,0.51238 1.11183,1.59253 0.12639,0.11846 0.20507,0.27924 0.3076,0.41885 0.009,0.0414 0.068,0.028 0.0585,-0.0134 v 0 c 0.0333,-0.16282 0.0241,-0.34059 0.1,-0.48847 0.75618,-1.47444 0.51755,-0.0575 0.60512,-1.71307 -0.0741,-1.06214 -0.14715,-2.12251 -0.17673,-3.18706 -0.002,-0.0864 -0.009,-1.69728 -0.0977,-1.79 -0.40862,-0.42514 -1.04236,-0.551676 -1.56354,-0.827515 -0.8699,0.958365 0.0559,-0.119671 -0.61429,0.827745 -0.12529,0.17712 -0.27474,0.33586 -0.41076,0.50488 -0.42272,0.5253 -0.84376,1.05184 -1.27142,1.57317 -0.66399,0.71838 0.35196,1.65742 1.01596,0.93903 z" />
    <path
       style="fill:#613583;fill-opacity:1;stroke-width:0.243652"
       id="path6981"
       d="m 180.06524,52.16846 c -0.2073,1.343919 -0.3857,2.71828 -0.30715,4.081884 0.0105,0.181983 0.0426,0.36208 0.0638,0.54312 0.0846,0.395819 0.19504,1.238546 0.90913,1.065673 0.49277,-0.119297 0.7219,-0.728896 0.97206,-1.169898 0.1081,-0.190569 0.0369,-0.436722 0.0627,-0.654287 0.099,-0.833416 0.094,-0.712892 0.27705,-1.53681 0.1592,-0.384046 0.23608,-1.202757 0.8441,-1.116134 0.0599,0.0086 0.12146,0.05355 0.14532,0.109255 0.0225,0.05253 -0.0251,0.112298 -0.026,0.169428 -9.2e-4,0.08143 0.0129,0.162389 0.0193,0.243585 0.16374,0.576418 0.24011,0.824252 0.38582,1.445358 0.0657,0.279831 0.10669,0.565407 0.18091,0.843085 0.0683,0.255654 0.11094,0.527289 0.24617,0.754753 0.16939,0.284913 0.69113,0.692209 0.96415,0.91974 0.006,0.03844 0.061,0.0291 0.0543,-0.0093 v 0 c 0.15299,-0.235514 0.61194,-0.919274 0.66675,-1.127314 0.0753,-0.28571 0.0527,-0.590758 0.035,-0.885689 -0.0358,-0.596212 -0.2448,-1.58455 -0.45309,-2.130379 -0.14738,-0.386223 -0.36221,-0.743202 -0.54333,-1.114801 -0.27806,-0.253948 -0.50187,-0.584752 -0.83421,-0.761842 -0.30267,-0.161284 -0.66267,-0.230024 -1.00544,-0.218425 -1.00376,0.03396 -1.6239,0.879992 -1.98535,1.70767 -0.11628,0.266252 -0.18212,0.551787 -0.27317,0.827679 -0.2225,1.042216 -0.16686,0.687353 -0.30767,1.697535 -0.0304,0.218342 -0.29584,0.588234 -0.086,0.655746 0.30836,0.0992 0.56854,-0.460483 0.88642,-0.39824 0.78356,0.153426 0.8063,1.186742 0.76448,0.53443 -0.006,-0.235157 -0.0276,-0.906438 -0.0258,-1.077481 0.011,-1.074417 0.1587,-2.138921 0.19412,-3.211745 0.13191,-1.290061 -1.69251,-1.476613 -1.82442,-0.186549 z" />
    <path
       style="fill:#613583;fill-opacity:1;stroke-width:0.264999"
       id="path6985"
       d="m 188.45233,54.231636 c 0.23685,-0.03326 0.474,-0.06448 0.71055,-0.09979 0.32963,-0.04921 0.65773,-0.108802 0.98796,-0.153758 0.82715,-0.112606 1.32404,-0.105894 2.12259,-0.358087 0.66967,-0.211487 0.97641,-0.432086 1.55786,-0.77502 0.042,0.0058 0.0503,-0.05362 0.008,-0.05943 v 0 c -0.62762,-0.566166 -0.74982,-0.798113 -1.65101,-1.030695 -0.91362,-0.235789 -1.48386,-0.109929 -2.3906,0.01931 -0.64734,0.09226 -0.99112,0.163103 -1.58741,0.276919 -1.54188,0.170997 -1.30005,2.351553 0.24183,2.180555 z" />
    <path
       style="fill:#613583;fill-opacity:1;stroke-width:0.264999"
       id="path6987"
       d="m 188.64362,57.399863 c 0.95656,0.02741 1.91154,-0.111903 2.86045,-0.211897 0.57192,-0.06026 1.56086,-0.07105 2.07937,-0.459647 0.28134,-0.21085 0.42933,-0.556872 0.644,-0.835306 0.0424,-1.72e-4 0.0422,-0.06017 -2.4e-4,-0.06 v 0 c -0.24787,-0.276561 -0.42426,-0.640094 -0.74361,-0.829681 -0.61201,-0.363347 -1.60812,-0.189256 -2.23292,-0.128799 -0.87838,0.08499 -1.75888,0.192466 -2.62758,0.349081 -1.53885,0.01452 -1.51831,2.190765 0.0205,2.176248 z" />
    <path
       style="fill:#613583;fill-opacity:1;stroke-width:0.264999"
       id="path6991"
       d="m 196.53809,55.133029 c 0.0903,0.24652 0.15554,0.503695 0.27082,0.739561 0.52454,1.073237 1.5688,2.082017 2.83465,2.123151 0.35679,0.01159 0.706,-0.106317 1.059,-0.159474 0.30141,-0.161074 0.66276,-0.24138 0.90422,-0.483222 1.36408,-1.366216 1.31781,-3.607652 0.4607,-5.215483 -0.20171,-0.378388 -0.50288,-0.694679 -0.75432,-1.042019 -0.4226,-0.250298 -0.80402,-0.589174 -1.2678,-0.750895 -1.35073,-0.471001 -2.9507,-0.06159 -3.89718,1.011356 -0.87884,0.99627 -0.74789,1.501799 -0.9001,2.745306 0.13308,0.487707 0.17285,1.011108 0.39924,1.463122 0.45639,0.911236 1.19401,1.601219 2.19332,1.863768 0.4065,0.106801 0.84054,0.0095 1.26081,0.01426 0.0356,0.0231 0.0683,-0.02723 0.0327,-0.05033 v 0 c -0.12266,-0.347665 -0.21509,-0.707533 -0.36799,-1.043001 -0.13617,-0.298744 -0.31599,-0.576331 -0.49542,-0.851273 -0.79187,-1.213387 -0.21131,-0.05808 -0.75835,-1.255316 -0.0167,-0.207184 -0.0737,-0.415033 -0.0501,-0.621554 0.0986,-0.86487 0.8236,-1.474763 1.68849,-1.433168 0.19165,0.0092 0.37288,0.09062 0.55932,0.135927 0.42195,0.501224 0.63741,0.655317 0.83141,1.311807 0.18812,0.636579 0.11414,0.944089 0.063,1.574405 -0.011,0.135787 0.0286,0.286909 -0.0354,0.407157 -0.0618,0.116099 -0.20721,0.162071 -0.31081,0.243105 -0.0853,0.0454 -0.16223,0.112839 -0.25604,0.136199 -0.68809,0.171347 -1.24179,-0.73579 -1.47428,-1.241033 -0.26703,-1.407044 -2.25688,-1.029404 -1.98985,0.37764 z" />
    <path
       style="fill:#613583;fill-opacity:1;stroke-width:0.264999"
       id="path7050"
       d="m 178.88083,83.517638 c 0.1482,1.575517 0.29936,3.159062 0.71368,4.690259 0.38809,0.648567 0.2044,0.440216 1.90977,-0.280726 0.10502,-0.04439 -0.0251,-0.226663 -0.0344,-0.340299 -0.0165,-0.203401 -0.0395,-0.406667 -0.0429,-0.610709 -0.0145,-0.873786 2.1e-4,-0.691113 0.21792,-1.549021 0.21874,-0.443926 0.296,-0.755809 0.68425,-1.059688 0.0604,-0.04727 0.20207,-0.134753 0.22196,-0.06067 0.0865,0.322361 -0.36608,0.17104 -0.41236,0.331378 -0.0298,0.103367 0.0802,0.199652 0.12035,0.299479 0.39047,0.925084 0.80571,1.866413 0.93277,2.871933 0.017,0.134726 0.0324,0.66567 0.0382,0.840031 0.55471,0.466243 0.2341,0.274296 0.97977,0.544735 0.005,0.04217 0.0643,0.03553 0.0596,-0.0066 v 0 c 0.74147,-0.06566 0.39686,0.04885 1.03285,-0.346499 0.0345,-0.212137 0.0923,-0.42178 0.10353,-0.636415 0.0824,-1.579227 -0.67384,-3.144406 -1.43335,-4.478991 -0.49703,-0.600401 -0.73912,-1.118817 -1.6345,-1.213684 -0.33442,-0.03543 -0.67966,0.09107 -0.9787,0.244907 -0.7534,0.387572 -1.1052,1.565224 -1.3544,2.281652 -0.0802,0.357066 -0.18194,0.709965 -0.24057,1.071198 -0.04,0.246539 -0.10946,1.323147 -0.1107,1.617813 -8e-4,0.163693 -0.13128,0.462217 0.03,0.490167 0.61603,0.106762 1.25818,-0.02643 1.86872,-0.161107 0.0836,-0.01844 0.0144,-0.170596 0.0216,-0.255892 -0.10347,-0.732798 -0.26907,-1.444527 -0.41348,-2.169978 -0.205,-1.02994 -0.13406,-0.782777 -0.30172,-1.775176 -0.0341,-0.201668 -0.0747,-0.402167 -0.11208,-0.60325 -0.18752,-1.31943 -2.05347,-1.054238 -1.86596,0.265191 z" />
    <path
       style="fill:#613583;fill-opacity:1;stroke-width:0.264999"
       id="path7054"
       d="m 187.86523,84.494509 c 0.91734,-0.03421 1.83332,-0.101042 2.74964,-0.157057 0.3763,-0.02299 0.7558,-0.01773 1.12857,-0.074 0.31917,-0.04817 0.66499,-0.06684 0.93864,-0.23802 0.29892,-0.186986 0.4693,-0.526327 0.70394,-0.789492 0.0424,0.0024 0.0458,-0.05749 0.003,-0.0599 v 0 c -0.23564,-0.289896 -0.39289,-0.667306 -0.70691,-0.869691 -0.29146,-0.187851 -0.66774,-0.201805 -1.01255,-0.238519 -0.39543,-0.04211 -0.79556,-0.0098 -1.193,0.0037 -0.88668,0.0301 -1.77115,0.124769 -2.65118,0.232365 -1.54902,0.02789 -1.50957,2.218528 0.0395,2.190639 z" />
    <path
       style="fill:#613583;fill-opacity:1;stroke-width:0.264999"
       id="path7056"
       d="m 188.79094,88.23245 c 1.02961,-0.09467 1.75978,-0.127379 2.7768,-0.364731 0.39988,-0.09332 0.81575,-0.169463 1.17619,-0.366162 0.31375,-0.17122 0.53402,-0.475226 0.80103,-0.71284 0.0424,-0.0019 0.04,-0.06167 -0.002,-0.05995 v 0 c -0.29908,-0.214632 -0.55509,-0.508077 -0.89725,-0.6439 -0.38475,-0.152734 -0.81336,-0.164071 -1.22585,-0.198893 -0.98767,-0.08338 -1.79341,-0.0066 -2.77425,0.04726 -1.6258,0.103077 -1.48002,2.402293 0.14577,2.299219 z" />
    <path
       style="fill:#613583;fill-opacity:1;stroke-width:0.264999"
       id="path7058"
       d="m 196.58687,86.986246 c 1.29745,-0.827248 2.25971,-2.036386 3.32097,-3.124353 0.077,-0.06314 0.13941,-0.228624 0.23094,-0.189436 0.0841,0.03603 -0.0806,0.233473 -0.17031,0.215392 -0.65883,-0.13276 -1.24337,-0.686324 -1.91349,-0.635307 -0.25911,0.01971 0.009,0.519779 0.0229,0.77924 0.0694,1.255215 0.0929,1.241586 0.25991,2.551155 0.0538,0.268584 0.42963,2.32451 0.6216,2.606289 0.20554,0.301701 1.24567,0.861015 1.6426,1.086633 0.0147,0.03981 0.071,0.01905 0.0563,-0.02074 v 0 c 0.0913,-0.220908 0.70118,-1.693095 0.70281,-1.71732 0.0524,-0.778388 -0.6849,-1.480579 -0.52379,-2.281092 -0.16956,-1.266769 -0.17041,-1.104167 -0.25085,-2.322132 -0.0173,-0.261934 0.1452,-0.598426 -0.0378,-0.786611 -1.12036,-1.151959 -1.82153,-1.890826 -2.34294,-0.713915 -0.3639,0.516589 -0.78058,0.970696 -1.21981,1.425702 -0.46824,0.485058 -0.94714,0.964467 -1.49414,1.362057 -1.24765,0.774393 -0.15249,2.538841 1.09516,1.764448 z" />
    <path
       style="fill:#613583;fill-opacity:1;stroke-width:0.264999"
       id="path7062"
       d="m 180.39335,114.6714 c 0.062,1.35039 0.0396,2.73327 0.40226,4.04596 0.42377,0.98472 0.23978,1.00346 2.05768,-0.31023 0.15352,-0.11094 0.0221,-0.37823 0.0381,-0.56697 0.0201,-0.23826 0.0225,-0.47957 0.0702,-0.71388 0.14517,-0.714 0.16004,-0.6159 0.58571,-1.11449 0.11917,-0.0506 0.22877,-0.13802 0.35749,-0.15175 0.33031,-0.0352 0.0549,0.23652 0.0422,0.26947 -0.0413,0.10758 -0.10523,0.22267 -0.0826,0.33565 0.0578,0.28918 0.22105,0.54721 0.31513,0.82671 0.10786,0.32047 0.19351,0.648 0.29027,0.972 0.15112,0.55639 0.29263,1.60496 0.99048,1.81852 0.20067,0.0614 0.41969,-0.004 0.62953,-0.005 0.0355,0.0233 0.0684,-0.0269 0.0329,-0.0502 v 0 c 0.14956,-0.0414 0.32731,-0.0275 0.44866,-0.12417 0.68111,-0.54278 0.30377,-1.68496 0.15955,-2.33826 -0.22398,-0.70435 -0.52996,-1.84869 -0.9689,-2.45655 -0.30792,-0.4264 -0.66083,-0.85391 -1.11869,-1.11274 -0.65529,-0.37044 -1.51748,-0.15991 -2.09077,0.22385 -0.28593,0.19139 -0.48133,0.49179 -0.72199,0.73769 -0.16092,0.31844 -0.35231,0.62322 -0.48274,0.95531 -0.19548,0.49767 -0.32171,1.19714 -0.40608,1.73305 -0.0327,0.20782 -0.28524,0.57412 -0.0813,0.62587 2.284,0.57967 1.49499,-0.95519 1.98681,0.25481 0.0755,-0.96565 -0.0723,-1.92822 -0.17938,-2.88658 -0.0265,-0.23716 -0.0457,-0.47511 -0.0739,-0.71206 -0.0196,-0.16458 -0.0464,-0.32823 -0.0696,-0.49234 -0.16743,-1.50681 -2.29838,-1.27004 -2.13096,0.23677 z" />
    <path
       style="fill:#613583;fill-opacity:1;stroke-width:0.264999"
       id="path7068"
       d="m 188.57074,115.46041 c 0.5024,-0.0434 1.11018,-0.0963 1.60261,-0.13672 0.32514,-0.0267 0.65337,-0.0269 0.9756,-0.0779 0.32521,-0.0514 0.67469,-0.0657 0.96099,-0.22824 0.36433,-0.20688 0.61999,-0.56369 0.92998,-0.84552 0.0424,10e-4 0.0443,-0.0587 0.002,-0.06 v 0 c -0.32009,-0.30142 -0.57446,-0.6934 -0.96027,-0.90424 -0.31362,-0.1714 -0.69769,-0.16913 -1.05404,-0.19659 -0.35465,-0.0273 -0.71163,0.0102 -1.06658,0.0331 -0.76544,0.0495 -1.00024,0.10243 -1.70791,0.21711 -1.55487,0.2247 -1.23711,2.42361 0.31776,2.19892 z" />
    <path
       style="fill:#613583;fill-opacity:1;stroke-width:0.264999"
       id="path7070"
       d="m 188.99671,118.8765 c 0.97551,-0.0286 1.96043,-0.0387 2.93074,-0.15391 0.76836,-0.0912 1.68418,-0.22181 2.37791,-0.61866 0.28512,-0.16311 0.49951,-0.4267 0.74926,-0.64005 0.0424,-0.001 0.0405,-0.0613 -0.002,-0.06 v 0 c -0.26781,-0.19663 -0.50235,-0.44942 -0.80343,-0.5899 -0.35146,-0.16397 -0.73887,-0.24746 -1.12189,-0.30838 -1.36519,-0.21711 -2.75194,0.0235 -4.12126,0.0275 -1.65701,-0.007 -1.6664,2.33672 -0.009,2.34336 z" />
    <path
       style="fill:#613583;fill-opacity:1;stroke-width:0.264999"
       id="path7072"
       d="m 197.64528,114.45203 c 0.35495,-0.25721 0.98877,-0.75138 1.45264,-0.74252 0.0798,0.002 0.1515,0.0717 0.19525,0.13846 0.0527,0.0803 -0.014,0.30094 -0.0293,0.37135 -0.24966,1.31363 -0.70087,2.37383 -1.52083,3.44045 -0.13398,0.17429 -0.28873,0.33158 -0.43309,0.49737 -0.85433,0.80549 -0.8963,0.36966 0.89449,2.41439 0.11219,0.12811 0.33097,-0.0827 0.49948,-0.10726 0.35098,-0.0511 0.70488,-0.0797 1.05732,-0.11957 1.42831,-0.0862 1.40501,-0.11081 2.83797,-0.093 0.45891,0.006 1.56448,0.15404 2.05418,-0.14274 0.28879,-0.17502 0.4503,-0.50334 0.67545,-0.75501 0.0415,0.009 0.0542,-0.0496 0.0127,-0.0586 v 0 c -0.15199,-0.33351 -0.19539,-0.74282 -0.45599,-1.00054 -0.52191,-0.51617 -1.69874,-0.4918 -2.30145,-0.50809 -1.29424,-0.035 -1.8578,0.0293 -3.15465,0.1095 -0.44718,0.0685 -0.89827,0.11506 -1.34154,0.20547 -0.27055,0.0552 -0.79445,-0.0457 -0.79567,0.23041 -0.0148,3.35338 0.81192,2.37428 1.86436,1.42463 0.20297,-0.23522 0.42121,-0.45809 0.60892,-0.70565 0.9487,-1.25117 1.95041,-3.20575 1.86126,-4.81561 -0.0263,-0.47562 -0.21224,-0.92876 -0.31836,-1.39313 -0.27558,-0.32414 -0.48194,-0.72317 -0.82674,-0.9724 -0.33263,-0.24044 -0.73886,-0.39359 -1.14498,-0.45284 -1.10888,-0.16175 -2.0882,0.45839 -2.79919,1.22946 -0.19234,0.20859 -0.34145,0.45326 -0.51217,0.67989 -0.79595,1.14548 0.82401,2.27111 1.61995,1.12564 z" />
    <path
       style="fill:#613583;fill-opacity:1;stroke-width:0.264999"
       id="path9530"
       d="m 186.91823,128.10966 c 0.19769,0.89492 -0.0618,0.31652 0.88113,1.01316 0.15357,0.11346 0.2791,0.26063 0.41864,0.39095 0.004,0.0423 0.0634,0.0372 0.0598,-0.005 v 0 c 0.11577,-0.14899 0.20881,-0.31883 0.34732,-0.44695 0.83702,-0.77426 0.61943,-0.14446 0.76975,-0.92574 0.0186,-1.75125 -2.45801,-1.77758 -2.47663,-0.0263 z" />
    <path
       style="fill:#613583;fill-opacity:1;stroke-width:0.264999"
       id="path9532"
       d="m 187.33651,132.09288 c 0.2351,0.60345 0.0289,0.2931 0.73477,0.75803 0.17609,0.11597 0.34978,0.23556 0.52466,0.35335 0.002,0.0424 0.0621,0.0392 0.0599,-0.003 v 0 c 0.16118,-0.14425 0.32429,-0.28638 0.48354,-0.43277 0.61439,-0.56474 0.47528,-0.26575 0.5988,-0.88504 -0.14819,-1.69825 -2.54988,-1.48868 -2.40169,0.20957 z" />
    <path
       style="fill:#5e5c64;fill-opacity:1;stroke-width:0.264999"
       id="path9534"
       d="m 187.34684,136.19483 c 0.27385,0.9351 -0.11393,0.0763 1.1545,0.75807 0.13864,0.0745 0.18055,0.25787 0.27083,0.38681 0.0101,0.0412 0.0684,0.0269 0.0583,-0.0143 v 0 c 0.0208,-0.154 -0.0302,-0.33718 0.0623,-0.46201 0.85892,-1.15852 0.86332,-0.186 0.73161,-1.14698 -0.33829,-1.61048 -2.61586,-1.13205 -2.27756,0.47843 z" />
    <path
       style="fill:#5e5c64;fill-opacity:1;stroke-width:0.264999"
       id="path9593"
       d="m 73.564815,146.05904 c 1.567479,-0.12711 3.137583,-0.21177 4.710211,-0.22164 0.858019,0.006 1.715947,0.0262 2.573099,0.0657 0.328152,0.0151 0.660495,0.0228 0.984218,0.0832 0.519851,0.11943 0.228224,0.052 0.55114,-0.87876 0.0356,0.0231 0.06823,-0.0273 0.03263,-0.0504 v 0 c 0.177958,-1.08 0.451307,-0.97953 -0.232408,-1.12804 -1.29549,-0.21191 -2.625069,-0.11036 -3.930925,-0.17273 -1.007364,0.0149 -2.00623,0.0571 -3.011056,0.13185 -0.362085,0.0269 -1.222719,0.0901 -1.617096,0.15542 -0.185114,0.0307 -0.365612,0.0846 -0.548418,0.12689 -1.335328,0.3455 -0.846722,2.23394 0.488603,1.88844 z" />
    <path
       style="fill:#5e5c64;fill-opacity:1;stroke-width:0.264999"
       id="path9595"
       d="m 85.644399,145.95735 c 1.569707,-0.15898 3.138768,-0.25879 4.71682,-0.2697 1.384567,-0.047 2.765033,0.0375 4.146034,0.11633 0.03449,0.001 0.621596,0.0528 0.717092,-0.029 0.204888,-0.17568 0.215648,-0.85425 0.231513,-0.98912 0.03842,0.018 0.06386,-0.0364 0.02543,-0.0543 v 0 c -0.0033,-0.24996 0.08297,-0.80705 -0.170479,-1.05049 -0.09079,-0.0872 -0.632806,-0.0858 -0.683879,-0.0882 -1.426752,-0.0728 -2.851039,-0.18437 -4.281617,-0.11218 -1.690912,0.0126 -3.395689,0.0557 -5.046255,0.46468 -1.422746,0.24419 -1.07741,2.25626 0.345337,2.01207 z" />
    <path
       style="fill:#5e5c64;fill-opacity:1;stroke-width:0.264999"
       id="path9597"
       d="m 99.85514,145.7136 c 1.25676,-0.004 2.51155,0.0656 3.76586,0.13532 1.38846,0.0996 2.77751,0.18205 4.16822,0.24193 0.91342,0.0791 0.93146,-0.24793 1.15012,-1.02375 0.0424,5.3e-4 0.0431,-0.0595 7.9e-4,-0.06 v 0 c -0.13452,-0.79505 -0.15457,-1.11916 -1.06183,-1.11277 -1.3813,-0.0523 -2.75936,-0.1642 -4.13907,-0.24642 -1.35985,-0.0705 -2.73222,-0.16469 -4.090179,-0.0287 -1.480963,0.14579 -1.274786,2.24019 0.206179,2.0944 z" />
    <path
       style="fill:#5e5c64;fill-opacity:1;stroke-width:0.264999"
       id="path9599"
       d="m 111.94574,145.67252 c 1.42042,-0.10695 2.84035,-0.18202 4.26479,-0.14578 1.12251,0.0532 2.24509,0.10462 3.36901,0.082 0.18224,-0.0378 1.03148,0.045 1.15522,-0.10355 0.14227,-0.1708 0.19392,-0.75813 0.22166,-0.96069 0.04,0.0143 0.0602,-0.0422 0.0202,-0.0565 v 0 c -0.0432,-0.30355 -0.0592,-0.76569 -0.29222,-1.01489 -0.13086,-0.13991 -0.91387,-0.0252 -1.09597,-0.0715 -1.11007,-0.031 -2.22125,-0.0262 -3.33031,-0.0976 -1.483,-0.0264 -2.96306,0.0333 -4.43644,0.21329 -1.52396,0.0877 -1.39992,2.24291 0.12404,2.1552 z" />
    <path
       style="fill:#5e5c64;fill-opacity:1;stroke-width:0.264999"
       id="path9601"
       d="m 124.53529,145.33426 c 1.66118,-0.0803 3.31993,-0.20574 4.97921,-0.31804 1.09213,-0.10451 2.18535,-0.13239 3.2805,-0.0819 0.78854,0.10572 0.9269,-0.23921 1.26978,-0.88167 0.042,0.006 0.0507,-0.0532 0.009,-0.0594 v 0 c -0.20938,-0.85515 -0.24573,-1.09602 -1.18387,-1.1379 -1.17354,-0.0529 -2.34506,-0.0203 -3.51598,0.0801 -1.65829,0.11223 -3.31922,0.19591 -4.97308,0.36465 -1.43832,0.0952 -1.30363,2.12935 0.1347,2.03411 z" />
    <path
       style="fill:#5e5c64;fill-opacity:1;stroke-width:0.264999"
       id="path9607"
       d="m 137.51034,145.31897 c 2.47668,-0.0249 4.95368,-0.004 7.43035,0.0149 0.24166,-0.009 1.23357,-0.006 1.51527,-0.15736 0.26733,-0.14396 0.70389,-0.6953 0.92136,-0.95392 0.0409,-0.0112 0.0251,-0.0691 -0.0158,-0.0579 v 0 c -0.59468,-0.30276 -0.2923,-0.10507 -0.88021,-0.63235 -0.30271,-0.1549 -1.25509,-0.19819 -1.51457,-0.22078 -2.51661,-0.0452 -5.0377,-0.0637 -7.55255,0.0459 -1.38696,0.068 -1.29077,2.02946 0.0962,1.96145 z" />
    <path
       style="fill:#5e5c64;fill-opacity:1;stroke-width:0.264999"
       id="path9609"
       d="m 150.76756,145.31594 c 2.1633,-0.0967 4.32328,-0.0974 6.48498,0.0255 0.60878,0.0309 1.43591,0.12718 2.04974,-0.0378 0.50464,-0.13564 0.87004,-0.45222 1.27494,-0.74934 0.042,0.006 0.0508,-0.0531 0.009,-0.0593 v 0 c -0.35965,-0.44675 -0.56473,-0.78925 -1.1232,-1.05442 -0.61344,-0.29127 -1.42779,-0.30137 -2.07625,-0.36087 -2.18609,-0.13466 -4.3708,-0.18016 -6.55934,-0.0536 -1.61918,-0.0422 -1.67892,2.24762 -0.0597,2.28987 z" />
    <path
       style="fill:#5e5c64;fill-opacity:1;stroke-width:0.264999"
       id="path9611"
       d="m 163.67574,145.50943 c 0.18755,-0.004 0.3753,-0.002 0.56266,-0.0116 2.18727,-0.11013 -0.6808,-0.006 1.6591,-0.10679 0.88317,-0.0382 1.76467,-0.0246 2.64814,-0.0111 0.92037,-0.002 1.84076,0.0135 2.76113,0.009 0.0879,-5.3e-4 1.26911,-0.006 1.42387,-0.0466 0.18157,-0.0481 0.33142,-0.17683 0.49714,-0.26524 0.10197,-0.25279 0.20393,-0.50557 0.3059,-0.75836 0.0424,0.002 0.0457,-0.0575 0.003,-0.0599 v 0 c -0.10861,-0.26459 -0.21722,-0.52918 -0.32583,-0.79377 -0.16569,-0.085 -0.31644,-0.20971 -0.49706,-0.25502 -0.10838,-0.0272 -1.37979,-0.0368 -1.4026,-0.037 -0.92775,-0.007 -1.85562,-0.003 -2.78335,0.003 -1.73217,0.0529 -3.48987,0.057 -5.18896,0.43 -1.346,0.23794 -1.0095,2.14147 0.3365,1.90353 z" />
  </g>
</svg>
